  0
SECTION
  2
HEADER
  9
$ACADVER
  1
AC1027
  9
$ACADMAINTVER
 70
105
  9
$DWGCODEPAGE
  3
ANSI_1252
  9
$LASTSAVEDBY
  1
ezdxf
  9
$REQUIREDVERSIONS
160
0
  9
$INSBASE
 10
0.0
 20
0.0
 30
0.0
  9
$EXTMIN
 10
1e+20
 20
1e+20
 30
1e+20
  9
$EXTMAX
 10
-1e+20
 20
-1e+20
 30
-1e+20
  9
$LIMMIN
 10
0.0
 20
0.0
  9
$LIMMAX
 10
420.0
 20
297.0
  9
$ORTHOMODE
 70
0
  9
$REGENMODE
 70
1
  9
$FILLMODE
 70
1
  9
$QTEXTMODE
 70
0
  9
$MIRRTEXT
 70
1
  9
$LTSCALE
 40
1.0
  9
$ATTMODE
 70
1
  9
$TEXTSIZE
 40
2.5
  9
$TRACEWID
 40
1.0
  9
$TEXTSTYLE
  7
Standard
  9
$CLAYER
  8
0
  9
$CELTYPE
  6
ByLayer
  9
$CECOLOR
 62
256
  9
$CELTSCALE
 40
1.0
  9
$DISPSILH
 70
0
  9
$DIMSCALE
 40
1.0
  9
$DIMASZ
 40
2.5
  9
$DIMEXO
 40
0.625
  9
$DIMDLI
 40
3.75
  9
$DIMRND
 40
0.0
  9
$DIMDLE
 40
0.0
  9
$DIMEXE
 40
1.25
  9
$DIMTP
 40
0.0
  9
$DIMTM
 40
0.0
  9
$DIMTXT
 40
2.5
  9
$DIMCEN
 40
2.5
  9
$DIMTSZ
 40
0.0
  9
$DIMTOL
 70
0
  9
$DIMLIM
 70
0
  9
$DIMTIH
 70
0
  9
$DIMTOH
 70
0
  9
$DIMSE1
 70
0
  9
$DIMSE2
 70
0
  9
$DIMTAD
 70
1
  9
$DIMZIN
 70
8
  9
$DIMBLK
  1

  9
$DIMASO
 70
1
  9
$DIMSHO
 70
1
  9
$DIMPOST
  1

  9
$DIMAPOST
  1

  9
$DIMALT
 70
0
  9
$DIMALTD
 70
3
  9
$DIMALTF
 40
0.03937007874
  9
$DIMLFAC
 40
1.0
  9
$DIMTOFL
 70
1
  9
$DIMTVP
 40
0.0
  9
$DIMTIX
 70
0
  9
$DIMSOXD
 70
0
  9
$DIMSAH
 70
0
  9
$DIMBLK1
  1

  9
$DIMBLK2
  1

  9
$DIMSTYLE
  2
ISO-25
  9
$DIMCLRD
 70
0
  9
$DIMCLRE
 70
0
  9
$DIMCLRT
 70
0
  9
$DIMTFAC
 40
1.0
  9
$DIMGAP
 40
0.625
  9
$DIMJUST
 70
0
  9
$DIMSD1
 70
0
  9
$DIMSD2
 70
0
  9
$DIMTOLJ
 70
0
  9
$DIMTZIN
 70
8
  9
$DIMALTZ
 70
0
  9
$DIMALTTZ
 70
0
  9
$DIMUPT
 70
0
  9
$DIMDEC
 70
2
  9
$DIMTDEC
 70
2
  9
$DIMALTU
 70
2
  9
$DIMALTTD
 70
3
  9
$DIMTXSTY
  7
Standard
  9
$DIMAUNIT
 70
0
  9
$DIMADEC
 70
0
  9
$DIMALTRND
 40
0.0
  9
$DIMAZIN
 70
0
  9
$DIMDSEP
 70
44
  9
$DIMATFIT
 70
3
  9
$DIMFRAC
 70
0
  9
$DIMLDRBLK
  1

  9
$DIMLUNIT
 70
2
  9
$DIMLWD
 70
-2
  9
$DIMLWE
 70
-2
  9
$DIMTMOVE
 70
0
  9
$DIMFXL
 40
1.0
  9
$DIMFXLON
 70
0
  9
$DIMJOGANG
 40
0.785398163397
  9
$DIMTFILL
 70
0
  9
$DIMTFILLCLR
 70
0
  9
$DIMARCSYM
 70
0
  9
$DIMLTYPE
  6

  9
$DIMLTEX1
  6

  9
$DIMLTEX2
  6

  9
$DIMTXTDIRECTION
 70
0
  9
$LUNITS
 70
2
  9
$LUPREC
 70
4
  9
$SKETCHINC
 40
1.0
  9
$FILLETRAD
 40
10.0
  9
$AUNITS
 70
0
  9
$AUPREC
 70
2
  9
$MENU
  1
.
  9
$ELEVATION
 40
0.0
  9
$PELEVATION
 40
0.0
  9
$THICKNESS
 40
0.0
  9
$LIMCHECK
 70
0
  9
$CHAMFERA
 40
0.0
  9
$CHAMFERB
 40
0.0
  9
$CHAMFERC
 40
0.0
  9
$CHAMFERD
 40
0.0
  9
$SKPOLY
 70
0
  9
$TDCREATE
 40
2461319.6092708334
  9
$TDUCREATE
 40
2458532.153996898
  9
$TDUPDATE
 40
2461319.6092708334
  9
$TDUUPDATE
 40
2458532.1544311
  9
$TDINDWG
 40
0.0
  9
$TDUSRTIMER
 40
0.0
  9
$USRTIMER
 70
1
  9
$ANGBASE
 50
0.0
  9
$ANGDIR
 70
0
  9
$PDMODE
 70
0
  9
$PDSIZE
 40
0.0
  9
$PLINEWID
 40
0.0
  9
$SPLFRAME
 70
0
  9
$SPLINETYPE
 70
6
  9
$SPLINESEGS
 70
8
  9
$HANDSEED
  5
B2
  9
$SURFTAB1
 70
6
  9
$SURFTAB2
 70
6
  9
$SURFTYPE
 70
6
  9
$SURFU
 70
6
  9
$SURFV
 70
6
  9
$UCSBASE
  2

  9
$UCSNAME
  2

  9
$UCSORG
 10
0.0
 20
0.0
 30
0.0
  9
$UCSXDIR
 10
1.0
 20
0.0
 30
0.0
  9
$UCSYDIR
 10
0.0
 20
1.0
 30
0.0
  9
$UCSORTHOREF
  2

  9
$UCSORTHOVIEW
 70
0
  9
$UCSORGTOP
 10
0.0
 20
0.0
 30
0.0
  9
$UCSORGBOTTOM
 10
0.0
 20
0.0
 30
0.0
  9
$UCSORGLEFT
 10
0.0
 20
0.0
 30
0.0
  9
$UCSORGRIGHT
 10
0.0
 20
0.0
 30
0.0
  9
$UCSORGFRONT
 10
0.0
 20
0.0
 30
0.0
  9
$UCSORGBACK
 10
0.0
 20
0.0
 30
0.0
  9
$PUCSBASE
  2

  9
$PUCSNAME
  2

  9
$PUCSORG
 10
0.0
 20
0.0
 30
0.0
  9
$PUCSXDIR
 10
1.0
 20
0.0
 30
0.0
  9
$PUCSYDIR
 10
0.0
 20
1.0
 30
0.0
  9
$PUCSORTHOREF
  2

  9
$PUCSORTHOVIEW
 70
0
  9
$PUCSORGTOP
 10
0.0
 20
0.0
 30
0.0
  9
$PUCSORGBOTTOM
 10
0.0
 20
0.0
 30
0.0
  9
$PUCSORGLEFT
 10
0.0
 20
0.0
 30
0.0
  9
$PUCSORGRIGHT
 10
0.0
 20
0.0
 30
0.0
  9
$PUCSORGFRONT
 10
0.0
 20
0.0
 30
0.0
  9
$PUCSORGBACK
 10
0.0
 20
0.0
 30
0.0
  9
$USERI1
 70
0
  9
$USERI2
 70
0
  9
$USERI3
 70
0
  9
$USERI4
 70
0
  9
$USERI5
 70
0
  9
$USERR1
 40
0.0
  9
$USERR2
 40
0.0
  9
$USERR3
 40
0.0
  9
$USERR4
 40
0.0
  9
$USERR5
 40
0.0
  9
$WORLDVIEW
 70
1
  9
$SHADEDGE
 70
3
  9
$SHADEDIF
 70
70
  9
$TILEMODE
 70
1
  9
$MAXACTVP
 70
64
  9
$PINSBASE
 10
0.0
 20
0.0
 30
0.0
  9
$PLIMCHECK
 70
0
  9
$PEXTMIN
 10
1e+20
 20
1e+20
 30
1e+20
  9
$PEXTMAX
 10
-1e+20
 20
-1e+20
 30
-1e+20
  9
$PLIMMIN
 10
0.0
 20
0.0
  9
$PLIMMAX
 10
420.0
 20
297.0
  9
$UNITMODE
 70
0
  9
$VISRETAIN
 70
1
  9
$PLINEGEN
 70
0
  9
$PSLTSCALE
 70
1
  9
$TREEDEPTH
 70
3020
  9
$CMLSTYLE
  2
Standard
  9
$CMLJUST
 70
0
  9
$CMLSCALE
 40
20.0
  9
$PROXYGRAPHICS
 70
1
  9
$MEASUREMENT
 70
1
  9
$CELWEIGHT
370
-1
  9
$ENDCAPS
280
0
  9
$JOINSTYLE
280
0
  9
$LWDISPLAY
290
0
  9
$INSUNITS
 70
4
  9
$HYPERLINKBASE
  1

  9
$STYLESHEET
  1

  9
$XEDIT
290
1
  9
$CEPSNTYPE
380
0
  9
$PSTYLEMODE
290
1
  9
$FINGERPRINTGUID
  2
{9969C351-8ED6-4CAA-89A2-38B74181C90E}
  9
$VERSIONGUID
  2
{88B1808F-1032-4C8B-89C2-E01BE23FD002}
  9
$EXTNAMES
290
1
  9
$PSVPSCALE
 40
0.0
  9
$OLESTARTUP
290
0
  9
$SORTENTS
280
127
  9
$INDEXCTL
280
0
  9
$HIDETEXT
280
1
  9
$XCLIPFRAME
280
1
  9
$HALOGAP
280
0
  9
$OBSCOLOR
 70
257
  9
$OBSLTYPE
280
0
  9
$INTERSECTIONDISPLAY
280
0
  9
$INTERSECTIONCOLOR
 70
257
  9
$DIMASSOC
280
2
  9
$PROJECTNAME
  1

  9
$CAMERADISPLAY
290
0
  9
$LENSLENGTH
 40
50.0
  9
$CAMERAHEIGHT
 40
0.0
  9
$STEPSPERSEC
 40
24.0
  9
$STEPSIZE
 40
100.0
  9
$3DDWFPREC
 40
2.0
  9
$PSOLWIDTH
 40
0.005
  9
$PSOLHEIGHT
 40
0.08
  9
$LOFTANG1
 40
1.570796326795
  9
$LOFTANG2
 40
1.570796326795
  9
$LOFTMAG1
 40
0.0
  9
$LOFTMAG2
 40
0.0
  9
$LOFTPARAM
 70
7
  9
$LOFTNORMALS
280
1
  9
$LATITUDE
 40
37.795
  9
$LONGITUDE
 40
-122.394
  9
$NORTHDIRECTION
 40
0.0
  9
$TIMEZONE
 70
-8000
  9
$LIGHTGLYPHDISPLAY
280
1
  9
$TILEMODELIGHTSYNCH
280
1
  9
$CMATERIAL
347
20
  9
$SOLIDHIST
280
0
  9
$SHOWHIST
280
1
  9
$DWFFRAME
280
2
  9
$DGNFRAME
280
2
  9
$REALWORLDSCALE
290
1
  9
$INTERFERECOLOR
 62
256
  9
$CSHADOW
280
0
  9
$SHADOWPLANELOCATION
 40
0.0
  0
ENDSEC
  0
SECTION
  2
CLASSES
  0
CLASS
  1
ACDBDICTIONARYWDFLT
  2
AcDbDictionaryWithDefault
  3
ObjectDBX Classes
 90
0
 91
0
280
0
281
0
  0
CLASS
  1
SUN
  2
AcDbSun
  3
SCENEOE
 90
1153
 91
0
280
0
281
0
  0
CLASS
  1
VISUALSTYLE
  2
AcDbVisualStyle
  3
ObjectDBX Classes
 90
4095
 91
0
280
0
281
0
  0
CLASS
  1
MATERIAL
  2
AcDbMaterial
  3
ObjectDBX Classes
 90
1153
 91
0
280
0
281
0
  0
CLASS
  1
SCALE
  2
AcDbScale
  3
ObjectDBX Classes
 90
1153
 91
0
280
0
281
0
  0
CLASS
  1
TABLESTYLE
  2
AcDbTableStyle
  3
ObjectDBX Classes
 90
4095
 91
0
280
0
281
0
  0
CLASS
  1
MLEADERSTYLE
  2
AcDbMLeaderStyle
  3
ACDB_MLEADERSTYLE_CLASS
 90
4095
 91
0
280
0
281
0
  0
CLASS
  1
DICTIONARYVAR
  2
AcDbDictionaryVar
  3
ObjectDBX Classes
 90
0
 91
0
280
0
281
0
  0
CLASS
  1
CELLSTYLEMAP
  2
AcDbCellStyleMap
  3
ObjectDBX Classes
 90
1152
 91
0
280
0
281
0
  0
CLASS
  1
MENTALRAYRENDERSETTINGS
  2
AcDbMentalRayRenderSettings
  3
SCENEOE
 90
1024
 91
0
280
0
281
0
  0
CLASS
  1
ACDBDETAILVIEWSTYLE
  2
AcDbDetailViewStyle
  3
ObjectDBX Classes
 90
1025
 91
0
280
0
281
0
  0
CLASS
  1
ACDBSECTIONVIEWSTYLE
  2
AcDbSectionViewStyle
  3
ObjectDBX Classes
 90
1025
 91
0
280
0
281
0
  0
CLASS
  1
RASTERVARIABLES
  2
AcDbRasterVariables
  3
ISM
 90
0
 91
0
280
0
281
0
  0
CLASS
  1
LAYOUT
  2
AcDbLayout
  3
ObjectDBX Classes
 90
0
 91
0
280
0
281
0
  0
CLASS
  1
ACDBPLACEHOLDER
  2
AcDbPlaceHolder
  3
ObjectDBX Classes
 90
0
 91
0
280
0
281
0
  0
ENDSEC
  0
SECTION
  2
TABLES
  0
TABLE
  2
VPORT
  5
8
330
0
100
AcDbSymbolTable
 70
1
  0
VPORT
  5
AE
330
8
100
AcDbSymbolTableRecord
100
AcDbViewportTableRecord
  2
*Active
 70
0
 10
0.0
 20
0.0
 11
1.0
 21
1.0
 12
0.0
 22
0.0
 13
0.0
 23
0.0
 14
0.5
 24
0.5
 15
0.5
 25
0.5
 16
0.0
 26
0.0
 36
1.0
 17
0.0
 27
0.0
 37
0.0
 40
82.80000000000001
 41
1.34
 42
50.0
 43
0.0
 44
0.0
 50
0.0
 51
0.0
 71
0
 72
1000
 73
1
 74
3
 75
0
 76
0
 77
0
 78
0
281
0
 65
1
110
0.0
120
0.0
130
0.0
111
1.0
121
0.0
131
0.0
112
0.0
122
1.0
132
0.0
 79
0
146
0.0
  0
ENDTAB
  0
TABLE
  2
LTYPE
  5
2
330
0
100
AcDbSymbolTable
 70
4
  0
LTYPE
  5
24
330
2
100
AcDbSymbolTableRecord
100
AcDbLinetypeTableRecord
  2
ByBlock
 70
0
  3

 72
65
 73
0
 40
0.0
  0
LTYPE
  5
25
330
2
100
AcDbSymbolTableRecord
100
AcDbLinetypeTableRecord
  2
ByLayer
 70
0
  3

 72
65
 73
0
 40
0.0
  0
LTYPE
  5
26
330
2
100
AcDbSymbolTableRecord
100
AcDbLinetypeTableRecord
  2
Continuous
 70
0
  3

 72
65
 73
0
 40
0.0
  0
LTYPE
  5
30
330
2
100
AcDbSymbolTableRecord
100
AcDbLinetypeTableRecord
  2
ACAD_ISO02W100
 70
0
  3
ISO dash __ __ __ __ __ __ __ __ __ __ __ __ __
 72
65
 73
2
 40
15.0
 49
12.0
 74
0
 49
-3.0
 74
0
  0
ENDTAB
  0
TABLE
  2
LAYER
  5
1
330
0
100
AcDbSymbolTable
 70
4
  0
LAYER
  5
27
330
1
100
AcDbSymbolTableRecord
100
AcDbLayerTableRecord
  2
0
 70
0
 62
7
  6
Continuous
370
-3
390
13
347
21
  0
LAYER
  5
28
330
1
100
AcDbSymbolTableRecord
100
AcDbLayerTableRecord
  2
Defpoints
 70
0
 62
7
  6
Continuous
290
0
370
-3
390
13
347
21
  0
LAYER
  5
2F
330
1
100
AcDbSymbolTableRecord
100
AcDbLayerTableRecord
  2
VISIBLE
 70
0
 62
7
  6
Continuous
370
25
390
13
347
21
  0
LAYER
  5
31
330
1
100
AcDbSymbolTableRecord
100
AcDbLayerTableRecord
  2
HIDDEN
 70
0
 62
7
  6
ACAD_ISO02W100
370
13
390
13
347
21
  0
ENDTAB
  0
TABLE
  2
STYLE
  5
5
330
0
100
AcDbSymbolTable
 70
1
  0
STYLE
  5
29
330
5
100
AcDbSymbolTableRecord
100
AcDbTextStyleTableRecord
  2
Standard
 70
0
 40
0.0
 41
1.0
 50
0.0
 71
0
 42
2.5
  3
txt
  4

  0
ENDTAB
  0
TABLE
  2
VIEW
  5
7
330
0
100
AcDbSymbolTable
 70
0
  0
ENDTAB
  0
TABLE
  2
UCS
  5
6
330
0
100
AcDbSymbolTable
 70
0
  0
ENDTAB
  0
TABLE
  2
APPID
  5
3
330
0
100
AcDbSymbolTable
 70
3
  0
APPID
  5
2A
330
3
100
AcDbSymbolTableRecord
100
AcDbRegAppTableRecord
  2
ACAD
 70
0
  0
APPID
  5
AF
330
3
100
AcDbSymbolTableRecord
100
AcDbRegAppTableRecord
  2
HATCHBACKGROUNDCOLOR
 70
0
  0
APPID
  5
B0
330
3
100
AcDbSymbolTableRecord
100
AcDbRegAppTableRecord
  2
EZDXF
 70
0
  0
ENDTAB
  0
TABLE
  2
DIMSTYLE
  5
4
330
0
100
AcDbSymbolTable
 70
1
100
AcDbDimStyleTable
  0
DIMSTYLE
105
2B
330
4
100
AcDbSymbolTableRecord
100
AcDbDimStyleTableRecord
  2
Standard
 70
0
 40
1.0
 41
2.5
 42
0.625
 43
3.75
 44
1.25
 45
0.0
 46
0.0
 47
0.0
 48
0.0
 49
2.5
140
2.5
141
2.5
142
0.0
143
0.03937007874
144
1.0
145
0.0
146
1.0
147
0.625
148
0.0
 69
0
 70
0
 71
0
 72
0
 73
0
 74
0
 75
0
 76
0
 77
1
 78
8
 79
3
170
0
171
3
172
1
173
0
174
0
175
0
176
0
177
0
178
0
179
2
271
2
272
2
273
2
274
3
275
0
276
0
277
2
278
44
279
0
280
0
281
0
282
0
283
0
284
8
285
0
286
0
288
0
289
3
290
0
371
-2
372
-2
  0
ENDTAB
  0
TABLE
  2
BLOCK_RECORD
  5
9
330
0
100
AcDbSymbolTable
 70
2
  0
BLOCK_RECORD
  5
17
330
9
100
AcDbSymbolTableRecord
100
AcDbBlockTableRecord
  2
*Model_Space
340
1A
 70
0
280
1
281
0
  0
BLOCK_RECORD
  5
1B
330
9
100
AcDbSymbolTableRecord
100
AcDbBlockTableRecord
  2
*Paper_Space
340
1E
 70
0
280
1
281
0
  0
ENDTAB
  0
ENDSEC
  0
SECTION
  2
BLOCKS
  0
BLOCK
  5
18
330
17
100
AcDbEntity
  8
0
100
AcDbBlockBegin
  2
*Model_Space
 70
0
 10
0.0
 20
0.0
 30
0.0
  3
*Model_Space
  1

  0
ENDBLK
  5
19
330
17
100
AcDbEntity
  8
0
100
AcDbBlockEnd
  0
BLOCK
  5
1C
330
1B
100
AcDbEntity
  8
0
100
AcDbBlockBegin
  2
*Paper_Space
 70
0
 10
0.0
 20
0.0
 30
0.0
  3
*Paper_Space
  1

  0
ENDBLK
  5
1D
330
1B
100
AcDbEntity
  8
0
100
AcDbBlockEnd
  0
ENDSEC
  0
SECTION
  2
ENTITIES
  0
SPLINE
  5
32
330
17
100
AcDbEntity
  8
VISIBLE
100
AcDbSpline
 70
0
 71
1
 72
17
 73
15
 74
0
 40
0.0
 40
0.0
 40
0.07142857142857142
 40
0.14285714285714285
 40
0.21428571428571427
 40
0.2857142857142857
 40
0.35714285714285715
 40
0.42857142857142855
 40
0.5
 40
0.5714285714285714
 40
0.6428571428571429
 40
0.7142857142857143
 40
0.7857142857142857
 40
0.8571428571428571
 40
0.9285714285714286
 40
1.0
 40
1.0
 10
-81.60535049662127
 20
-1.5
 30
0.0
 10
-81.76500239448356
 20
-1.5
 30
0.0
 10
-81.91421489461803
 20
-1.5
 30
0.0
 10
-82.0526742633119
 20
-1.5
 30
0.0
 10
-82.18008937635133
 20
-1.5
 30
0.0
 10
-82.29619233113812
 20
-1.5
 30
0.0
 10
-82.40073900998084
 20
-1.5
 30
0.0
 10
-82.49350959337595
 20
-1.5
 30
0.0
 10
-82.57430902219946
 20
-1.5
 30
0.0
 10
-82.64296740783774
 20
-1.5
 30
0.0
 10
-82.69934038939462
 20
-1.5
 30
0.0
 10
-82.74330943722423
 20
-1.5
 30
0.0
 10
-82.77478210215102
 20
-1.5
 30
0.0
 10
-82.79369220985305
 20
-1.5
 30
0.0
 10
-82.80000000000001
 20
-1.5
 30
0.0
  0
LINE
  5
33
330
17
100
AcDbEntity
  8
VISIBLE
100
AcDbLine
 10
-81.60535049662126
 20
-1.5
 30
0.0
 11
-55.61976945047332
 21
-1.5
 31
0.0
  0
SPLINE
  5
34
330
17
100
AcDbEntity
  8
VISIBLE
100
AcDbSpline
 70
0
 71
2
 72
26
 73
23
 74
0
 40
0.0
 40
0.0
 40
0.0
 40
0.21428571428571427
 40
0.21428571428571427
 40
0.35714285714285715
 40
0.35714285714285715
 40
0.42857142857142855
 40
0.42857142857142855
 40
0.5
 40
0.5
 40
0.5714285714285714
 40
0.5714285714285714
 40
0.6428571428571429
 40
0.6428571428571429
 40
0.7142857142857143
 40
0.7142857142857143
 40
0.7857142857142857
 40
0.7857142857142857
 40
0.8571428571428571
 40
0.8571428571428571
 40
0.9285714285714286
 40
0.9285714285714286
 40
1.0
 40
1.0
 40
1.0
 10
-50.814418953852076
 20
-1.5
 30
0.0
 10
-51.412899180298524
 20
-1.5
 30
0.0
 10
-52.00070049172465
 20
-1.5
 30
0.0
 10
-52.38993838583332
 20
-1.5
 30
0.0
 10
-52.76837042595861
 20
-1.5
 30
0.0
 10
-52.95425882985816
 20
-1.5
 30
0.0
 10
-53.140147233757716
 20
-1.5
 30
0.0
 10
-53.32091950168941
 20
-1.5
 30
0.0
 10
-53.501691769621104
 20
-1.5
 30
0.0
 10
-53.676552576086294
 20
-1.5
 30
0.0
 10
-53.85141338255152
 20
-1.5
 30
0.0
 10
-54.01959341011187
 20
-1.5
 30
0.0
 10
-54.187773437672206
 20
-1.5
 30
0.0
 10
-54.348532761637856
 20
-1.5
 30
0.0
 10
-54.509292085603505
 20
-1.5
 30
0.0
 10
-54.66192342940512
 20
-1.5
 30
0.0
 10
-54.81455477320674
 20
-1.5
 30
0.0
 10
-54.958386620128806
 20
-1.5
 30
0.0
 10
-55.10221846705088
 20
-1.5
 30
0.0
 10
-55.236618014636036
 20
-1.5
 30
0.0
 10
-55.37101756222119
 20
-1.5
 30
0.0
 10
-55.495393506347256
 20
-1.5
 30
0.0
 10
-55.619769450473335
 20
-1.5
 30
0.0
  0
LINE
  5
35
330
17
100
AcDbEntity
  8
VISIBLE
100
AcDbLine
 10
-50.814418953852076
 20
-1.5
 30
0.0
 11
50.81441895385206
 21
-1.5
 31
0.0
  0
SPLINE
  5
36
330
17
100
AcDbEntity
  8
VISIBLE
100
AcDbSpline
 70
0
 71
1
 72
17
 73
15
 74
0
 40
0.0
 40
0.0
 40
0.07142857142857142
 40
0.14285714285714285
 40
0.21428571428571427
 40
0.2857142857142857
 40
0.35714285714285715
 40
0.42857142857142855
 40
0.5
 40
0.5714285714285714
 40
0.6428571428571429
 40
0.7142857142857143
 40
0.7857142857142857
 40
0.8571428571428571
 40
0.9285714285714286
 40
1.0
 40
1.0
 10
82.8
 20
-1.5
 30
0.0
 10
82.79369220985302
 20
-1.5
 30
0.0
 10
82.774782102151
 20
-1.5
 30
0.0
 10
82.74330943722421
 20
-1.5
 30
0.0
 10
82.6993403893946
 20
-1.5
 30
0.0
 10
82.64296740783774
 20
-1.5
 30
0.0
 10
82.57430902219946
 20
-1.5
 30
0.0
 10
82.49350959337593
 20
-1.5
 30
0.0
 10
82.40073900998082
 20
-1.5
 30
0.0
 10
82.29619233113812
 20
-1.5
 30
0.0
 10
82.1800893763513
 20
-1.5
 30
0.0
 10
82.05267426331189
 20
-1.5
 30
0.0
 10
81.91421489461803
 20
-1.5
 30
0.0
 10
81.76500239448356
 20
-1.5
 30
0.0
 10
81.60535049662124
 20
-1.5
 30
0.0
  0
SPLINE
  5
37
330
17
100
AcDbEntity
  8
VISIBLE
100
AcDbSpline
 70
0
 71
3
 72
38
 73
34
 74
0
 40
0.0
 40
0.0
 40
0.0
 40
0.0
 40
0.07142857142857142
 40
0.07142857142857142
 40
0.07142857142857142
 40
0.14285714285714285
 40
0.14285714285714285
 40
0.14285714285714285
 40
0.21428571428571427
 40
0.21428571428571427
 40
0.21428571428571427
 40
0.2857142857142857
 40
0.2857142857142857
 40
0.2857142857142857
 40
0.35714285714285715
 40
0.35714285714285715
 40
0.35714285714285715
 40
0.42857142857142855
 40
0.42857142857142855
 40
0.42857142857142855
 40
0.5
 40
0.5
 40
0.5
 40
0.5714285714285714
 40
0.5714285714285714
 40
0.5714285714285714
 40
0.6428571428571429
 40
0.6428571428571429
 40
0.6428571428571429
 40
0.7142857142857143
 40
0.7142857142857143
 40
0.7142857142857143
 40
1.0
 40
1.0
 40
1.0
 40
1.0
 10
55.619769450473314
 20
-1.5
 30
0.0
 10
55.53685215438925
 20
-1.4999999999999991
 30
0.0
 10
55.45393485830522
 20
-1.5000000000000002
 30
0.0
 10
55.37101756222117
 20
-1.5000000000000002
 30
0.0
 10
55.28141786383108
 20
-1.4999999999999998
 30
0.0
 10
55.19181816544096
 20
-1.4999999999999998
 30
0.0
 10
55.10221846705086
 20
-1.5
 30
0.0
 10
55.006330569102786
 20
-1.4999999999999991
 30
0.0
 10
54.91044267115477
 20
-1.5000000000000002
 30
0.0
 10
54.81455477320673
 20
-1.5000000000000002
 30
0.0
 10
54.71280054400565
 20
-1.4999999999999998
 30
0.0
 10
54.611046314804554
 20
-1.4999999999999998
 30
0.0
 10
54.50929208560349
 20
-1.5
 30
0.0
 10
54.4021192029597
 20
-1.4999999999999991
 30
0.0
 10
54.294946320315965
 20
-1.5000000000000002
 30
0.0
 10
54.187773437672206
 20
-1.5000000000000002
 30
0.0
 10
54.07565341929863
 20
-1.4999999999999998
 30
0.0
 10
53.96353340092507
 20
-1.4999999999999998
 30
0.0
 10
53.8514133825515
 20
-1.5
 30
0.0
 10
53.73483951157467
 20
-1.4999999999999991
 30
0.0
 10
53.61826564059789
 20
-1.5000000000000002
 30
0.0
 10
53.5016917696211
 20
-1.5000000000000002
 30
0.0
 10
53.381176924333296
 20
-1.4999999999999998
 30
0.0
 10
53.26066207904548
 20
-1.4999999999999998
 30
0.0
 10
53.140147233757695
 20
-1.5
 30
0.0
 10
53.016221631157954
 20
-1.4999999999999991
 30
0.0
 10
52.892296028558306
 20
-1.5000000000000002
 30
0.0
 10
52.76837042595861
 20
-1.5000000000000002
 30
0.0
 10
52.64157928901073
 20
-1.4999999999999998
 30
0.0
 10
52.51478815206284
 20
-1.4999999999999998
 30
0.0
 10
52.38799701511498
 20
-1.5
 30
0.0
 10
51.874637701229574
 20
-1.500000000000001
 30
0.0
 10
51.34538264064446
 20
-1.4999999999999993
 30
0.0
 10
50.81441895385206
 20
-1.5
 30
0.0
  0
LINE
  5
38
330
17
100
AcDbEntity
  8
VISIBLE
100
AcDbLine
 10
55.61976945047332
 20
-1.5
 30
0.0
 11
81.60535049662126
 21
-1.5
 31
0.0
  0
SPLINE
  5
39
330
17
100
AcDbEntity
  8
VISIBLE
100
AcDbSpline
 70
0
 71
1
 72
17
 73
15
 74
0
 40
0.0
 40
0.0
 40
0.07142857142857163
 40
0.14285714285714327
 40
0.21428571428571488
 40
0.28571428571428653
 40
0.35714285714285815
 40
0.42857142857142977
 40
0.5000000000000014
 40
0.5714285714285731
 40
0.6428571428571447
 40
0.7142857142857163
 40
0.7857142857142879
 40
0.8571428571428595
 40
0.9285714285714312
 40
1.0
 40
1.0
 10
-79.82488428382274
 20
1.5
 30
0.0
 10
-79.98200828826145
 20
1.5
 30
0.0
 10
-80.12883441795849
 20
1.5
 30
0.0
 10
-80.26505918142914
 20
1.5
 30
0.0
 10
-80.39040100034794
 20
1.5
 30
0.0
 10
-80.50460079157487
 20
1.5
 30
0.0
 10
-80.60742250268338
 20
1.5
 30
0.0
 10
-80.69865359988377
 20
1.5
 30
0.0
 10
-80.77810550733331
 20
1.5
 30
0.0
 10
-80.84561399692485
 20
1.5
 30
0.0
 10
-80.90103952774848
 20
1.5
 30
0.0
 10
-80.94426753452433
 20
1.5
 30
0.0
 10
-80.97520866441043
 20
1.5
 30
0.0
 10
-80.99379896169626
 20
1.5
 30
0.0
 10
-81.0
 20
1.5
 30
0.0
  0
LINE
  5
3A
330
17
100
AcDbEntity
  8
VISIBLE
100
AcDbLine
 10
-79.82488428382275
 20
1.5
 30
0.0
 11
-54.448796984844265
 21
1.5
 31
0.0
  0
SPLINE
  5
3B
330
17
100
AcDbEntity
  8
VISIBLE
100
AcDbSpline
 70
0
 71
2
 72
26
 73
23
 74
0
 40
0.0
 40
0.0
 40
0.0
 40
0.21428571428571389
 40
0.21428571428571389
 40
0.3571428571428565
 40
0.3571428571428565
 40
0.42857142857142777
 40
0.42857142857142777
 40
0.49999999999999906
 40
0.49999999999999906
 40
0.5714285714285703
 40
0.5714285714285703
 40
0.6428571428571417
 40
0.6428571428571417
 40
0.714285714285713
 40
0.714285714285713
 40
0.7857142857142843
 40
0.7857142857142843
 40
0.8571428571428555
 40
0.8571428571428555
 40
0.9285714285714268
 40
0.9285714285714268
 40
1.0
 40
1.0
 40
1.0
 10
-49.62391270102152
 20
1.5
 30
0.0
 10
-50.225925706149226
 20
1.5
 30
0.0
 10
-50.817070795070975
 20
1.5
 30
0.0
 10
-51.208491396764714
 20
1.5
 30
0.0
 10
-51.58891613950769
 20
1.5
 30
0.0
 10
-51.775742727960534
 20
1.5
 30
0.0
 10
-51.96256931641338
 20
1.5
 30
0.0
 10
-52.144190723284794
 20
1.5
 30
0.0
 10
-52.32581213015621
 20
1.5
 30
0.0
 10
-52.50141988070422
 20
1.5
 30
0.0
 10
-52.67702763125223
 20
1.5
 30
0.0
 10
-52.845840020097185
 20
1.5
 30
0.0
 10
-53.01465240894213
 20
1.5
 30
0.0
 10
-53.175917979772436
 20
1.5
 30
0.0
 10
-53.33718355060276
 20
1.5
 30
0.0
 10
-53.49018444122909
 20
1.5
 30
0.0
 10
-53.64318533185542
 20
1.5
 30
0.0
 10
-53.78724046972306
 20
1.5
 30
0.0
 10
-53.9312956075907
 20
1.5
 30
0.0
 10
-54.06576374152544
 20
1.5
 30
0.0
 10
-54.200231875460176
 20
1.5
 30
0.0
 10
-54.32451443015222
 20
1.5
 30
0.0
 10
-54.44879698484425
 20
1.5
 30
0.0
  0
LINE
  5
3C
330
17
100
AcDbEntity
  8
VISIBLE
100
AcDbLine
 10
-49.62391270102152
 20
1.5
 30
0.0
 11
49.62391270102153
 21
1.5
 31
0.0
  0
SPLINE
  5
3D
330
17
100
AcDbEntity
  8
VISIBLE
100
AcDbSpline
 70
0
 71
1
 72
17
 73
15
 74
0
 40
0.0
 40
0.0
 40
0.07142857142857129
 40
0.14285714285714257
 40
0.21428571428571383
 40
0.28571428571428514
 40
0.3571428571428564
 40
0.42857142857142766
 40
0.49999999999999895
 40
0.5714285714285703
 40
0.6428571428571415
 40
0.7142857142857127
 40
0.7857142857142844
 40
0.8571428571428561
 40
0.9285714285714277
 40
1.0
 40
1.0
 10
81.0
 20
1.5
 30
0.0
 10
80.99379896169627
 20
1.5
 30
0.0
 10
80.97520866441045
 20
1.5
 30
0.0
 10
80.94426753452433
 20
1.5
 30
0.0
 10
80.9010395277485
 20
1.5
 30
0.0
 10
80.84561399692485
 20
1.5
 30
0.0
 10
80.77810550733331
 20
1.5
 30
0.0
 10
80.69865359988377
 20
1.5
 30
0.0
 10
80.60742250268338
 20
1.5
 30
0.0
 10
80.50460079157489
 20
1.5
 30
0.0
 10
80.39040100034794
 20
1.5
 30
0.0
 10
80.26505918142914
 20
1.5
 30
0.0
 10
80.1288344179585
 20
1.5
 30
0.0
 10
79.98200828826145
 20
1.5
 30
0.0
 10
79.82488428382274
 20
1.5
 30
0.0
  0
SPLINE
  5
3E
330
17
100
AcDbEntity
  8
VISIBLE
100
AcDbSpline
 70
0
 71
2
 72
26
 73
23
 74
0
 40
0.0
 40
0.0
 40
0.0
 40
0.07142857142857129
 40
0.07142857142857129
 40
0.14285714285714257
 40
0.14285714285714257
 40
0.21428571428571389
 40
0.21428571428571389
 40
0.28571428571428514
 40
0.28571428571428514
 40
0.3571428571428565
 40
0.3571428571428565
 40
0.42857142857142777
 40
0.42857142857142777
 40
0.49999999999999906
 40
0.49999999999999906
 40
0.5714285714285703
 40
0.5714285714285703
 40
0.6428571428571417
 40
0.6428571428571417
 40
0.7857142857142843
 40
0.7857142857142843
 40
1.0
 40
1.0
 40
1.0
 10
54.448796984844265
 20
1.5
 30
0.0
 10
54.32451443015224
 20
1.5
 30
0.0
 10
54.200231875460204
 20
1.5
 30
0.0
 10
54.065763741525465
 20
1.5
 30
0.0
 10
53.93129560759071
 20
1.5
 30
0.0
 10
53.78724046972308
 20
1.5
 30
0.0
 10
53.643185331855435
 20
1.5
 30
0.0
 10
53.49018444122911
 20
1.5
 30
0.0
 10
53.337183550602774
 20
1.5
 30
0.0
 10
53.17591797977246
 20
1.5
 30
0.0
 10
53.014652408942155
 20
1.5
 30
0.0
 10
52.8458400200972
 20
1.5
 30
0.0
 10
52.67702763125225
 20
1.5
 30
0.0
 10
52.50141988070423
 20
1.5
 30
0.0
 10
52.32581213015624
 20
1.5
 30
0.0
 10
52.14419072328482
 20
1.5
 30
0.0
 10
51.96256931641341
 20
1.5
 30
0.0
 10
51.77574272796056
 20
1.5
 30
0.0
 10
51.58891613950772
 20
1.5
 30
0.0
 10
51.20849139676473
 20
1.5
 30
0.0
 10
50.817070795071004
 20
1.5
 30
0.0
 10
50.22592570614923
 20
1.5
 30
0.0
 10
49.623912701021524
 20
1.5
 30
0.0
  0
LINE
  5
3F
330
17
100
AcDbEntity
  8
VISIBLE
100
AcDbLine
 10
54.448796984844265
 20
1.5
 30
0.0
 11
79.82488428382274
 21
1.5
 31
0.0
  0
SPLINE
  5
40
330
17
100
AcDbEntity
  8
VISIBLE
100
AcDbSpline
 70
0
 71
1
 72
4
 73
2
 74
0
 40
0.0
 40
0.0
 40
1.0
 40
1.0
 10
-82.8
 20
-1.5
 30
0.0
 10
-81.0
 20
1.5
 30
0.0
  0
SPLINE
  5
41
330
17
100
AcDbEntity
  8
VISIBLE
100
AcDbSpline
 70
0
 71
1
 72
4
 73
2
 74
0
 40
0.0
 40
0.0
 40
1.0
 40
1.0
 10
-81.60535049662127
 20
-1.5
 30
0.0
 10
-79.82488428382274
 20
1.5
 30
0.0
  0
SPLINE
  5
42
330
17
100
AcDbEntity
  8
VISIBLE
100
AcDbSpline
 70
0
 71
1
 72
4
 73
2
 74
0
 40
0.0
 40
0.0
 40
1.0
 40
1.0
 10
-55.61976945047332
 20
-1.5
 30
0.0
 10
-54.448796984844265
 20
1.5
 30
0.0
  0
SPLINE
  5
43
330
17
100
AcDbEntity
  8
VISIBLE
100
AcDbSpline
 70
0
 71
1
 72
4
 73
2
 74
0
 40
0.0
 40
0.0
 40
1.0
 40
1.0
 10
82.8
 20
-1.5
 30
0.0
 10
81.0
 20
1.5000000000000002
 30
0.0
  0
SPLINE
  5
44
330
17
100
AcDbEntity
  8
VISIBLE
100
AcDbSpline
 70
0
 71
1
 72
4
 73
2
 74
0
 40
0.0
 40
0.0
 40
1.0
 40
1.0
 10
81.60535049662126
 20
-1.5
 30
0.0
 10
79.82488428382274
 20
1.5
 30
0.0
  0
SPLINE
  5
45
330
17
100
AcDbEntity
  8
VISIBLE
100
AcDbSpline
 70
0
 71
1
 72
4
 73
2
 74
0
 40
0.0
 40
0.0
 40
1.0
 40
1.0
 10
55.619769450473335
 20
-1.5
 30
0.0
 10
54.448796984844265
 20
1.5
 30
0.0
  0
SPLINE
  5
46
330
17
100
AcDbEntity
  8
VISIBLE
100
AcDbSpline
 70
0
 71
1
 72
4
 73
2
 74
0
 40
0.0
 40
0.0
 40
1.0
 40
1.0
 10
-50.81441895385208
 20
-1.5
 30
0.0
 10
-49.62391270102152
 20
1.5
 30
0.0
  0
SPLINE
  5
47
330
17
100
AcDbEntity
  8
VISIBLE
100
AcDbSpline
 70
0
 71
1
 72
4
 73
2
 74
0
 40
0.0
 40
0.0
 40
1.0
 40
1.0
 10
50.81441895385206
 20
-1.5
 30
0.0
 10
49.62391270102153
 20
1.5
 30
0.0
  0
LINE
  5
48
330
17
100
AcDbEntity
  8
HIDDEN
100
AcDbLine
 10
-55.6197694504733
 20
-1.5
 30
0.0
 11
-81.60535049662128
 21
-1.5
 31
0.0
  0
SPLINE
  5
49
330
17
100
AcDbEntity
  8
HIDDEN
100
AcDbSpline
 70
0
 71
1
 72
4
 73
2
 74
0
 40
0.0
 40
0.0
 40
1.0
 40
1.0
 10
-81.60535049662128
 20
-1.5
 30
0.0
 10
-79.82488428382275
 20
1.5
 30
0.0
  0
LINE
  5
4A
330
17
100
AcDbEntity
  8
HIDDEN
100
AcDbLine
 10
-54.448796984844236
 20
1.5
 30
0.0
 11
-79.82488428382275
 21
1.5
 31
0.0
  0
SPLINE
  5
4B
330
17
100
AcDbEntity
  8
HIDDEN
100
AcDbSpline
 70
0
 71
1
 72
4
 73
2
 74
0
 40
0.0
 40
0.0
 40
1.0
 40
1.0
 10
-55.6197694504733
 20
-1.5
 30
0.0
 10
-54.448796984844236
 20
1.5
 30
0.0
  0
SPLINE
  5
4C
330
17
100
AcDbEntity
  8
HIDDEN
100
AcDbSpline
 70
0
 71
3
 72
38
 73
34
 74
0
 40
0.0
 40
0.0
 40
0.0
 40
0.0
 40
0.0714285714285715
 40
0.0714285714285715
 40
0.0714285714285715
 40
0.142857142857143
 40
0.142857142857143
 40
0.142857142857143
 40
0.2142857142857145
 40
0.2142857142857145
 40
0.2142857142857145
 40
0.285714285714286
 40
0.285714285714286
 40
0.285714285714286
 40
0.3571428571428575
 40
0.3571428571428575
 40
0.3571428571428575
 40
0.428571428571429
 40
0.428571428571429
 40
0.428571428571429
 40
0.5000000000000004
 40
0.5000000000000004
 40
0.5000000000000004
 40
0.571428571428572
 40
0.571428571428572
 40
0.571428571428572
 40
0.6428571428571435
 40
0.6428571428571435
 40
0.6428571428571435
 40
0.714285714285715
 40
0.714285714285715
 40
0.714285714285715
 40
1.0
 40
1.0
 40
1.0
 40
1.0
 10
-55.61976945047328
 20
-1.5000000000000002
 30
0.0
 10
-55.53685215438924
 20
-1.5
 30
0.0
 10
-55.45393485830517
 20
-1.4999999999999998
 30
0.0
 10
-55.37101756222113
 20
-1.5
 30
0.0
 10
-55.28141786383099
 20
-1.4999999999999993
 30
0.0
 10
-55.19181816544096
 20
-1.5
 30
0.0
 10
-55.10221846705082
 20
-1.5
 30
0.0
 10
-55.00633056910275
 20
-1.4999999999999993
 30
0.0
 10
-54.910442671154726
 20
-1.5
 30
0.0
 10
-54.81455477320669
 20
-1.5000000000000002
 30
0.0
 10
-54.712800544005596
 20
-1.4999999999999993
 30
0.0
 10
-54.6110463148045
 20
-1.5
 30
0.0
 10
-54.50929208560346
 20
-1.5000000000000002
 30
0.0
 10
-54.40211920295966
 20
-1.4999999999999996
 30
0.0
 10
-54.294946320315916
 20
-1.5
 30
0.0
 10
-54.187773437672156
 20
-1.5
 30
0.0
 10
-54.07565341929859
 20
-1.4999999999999993
 30
0.0
 10
-53.96353340092502
 20
-1.5
 30
0.0
 10
-53.851413382551456
 20
-1.5
 30
0.0
 10
-53.73483951157462
 20
-1.4999999999999991
 30
0.0
 10
-53.61826564059786
 20
-1.5000000000000004
 30
0.0
 10
-53.50169176962105
 20
-1.5
 30
0.0
 10
-53.381176924333204
 20
-1.4999999999999993
 30
0.0
 10
-53.26066207904545
 20
-1.5
 30
0.0
 10
-53.14014723375766
 20
-1.5000000000000002
 30
0.0
 10
-53.01622163115795
 20
-1.5
 30
0.0
 10
-52.89229602855827
 20
-1.4999999999999998
 30
0.0
 10
-52.76837042595856
 20
-1.5
 30
0.0
 10
-52.64157928901066
 20
-1.4999999999999993
 30
0.0
 10
-52.51478815206282
 20
-1.5
 30
0.0
 10
-52.38799701511494
 20
-1.5
 30
0.0
 10
-51.87463770122949
 20
-1.499999999999999
 30
0.0
 10
-51.34538264064447
 20
-1.5000000000000007
 30
0.0
 10
-50.81441895385202
 20
-1.5
 30
0.0
  0
SPLINE
  5
4D
330
17
100
AcDbEntity
  8
HIDDEN
100
AcDbSpline
 70
0
 71
1
 72
17
 73
15
 74
0
 40
0.0
 40
0.0
 40
0.07142857142857133
 40
0.14285714285714265
 40
0.214285714285714
 40
0.2857142857142853
 40
0.35714285714285665
 40
0.428571428571428
 40
0.49999999999999933
 40
0.5714285714285706
 40
0.642857142857142
 40
0.7142857142857133
 40
0.7857142857142846
 40
0.857142857142856
 40
0.9285714285714273
 40
1.0
 40
1.0
 10
-82.80000000000001
 20
-1.5
 30
0.0
 10
-82.79369220985305
 20
-1.5
 30
0.0
 10
-82.77478210215101
 20
-1.5
 30
0.0
 10
-82.74330943722421
 20
-1.5
 30
0.0
 10
-82.69934038939462
 20
-1.5
 30
0.0
 10
-82.64296740783774
 20
-1.5
 30
0.0
 10
-82.57430902219947
 20
-1.5
 30
0.0
 10
-82.49350959337596
 20
-1.5
 30
0.0
 10
-82.40073900998084
 20
-1.5
 30
0.0
 10
-82.29619233113812
 20
-1.5
 30
0.0
 10
-82.18008937635133
 20
-1.5
 30
0.0
 10
-82.0526742633119
 20
-1.5
 30
0.0
 10
-81.91421489461803
 20
-1.5
 30
0.0
 10
-81.76500239448359
 20
-1.5
 30
0.0
 10
-81.60535049662127
 20
-1.5
 30
0.0
  0
LINE
  5
4E
330
17
100
AcDbEntity
  8
HIDDEN
100
AcDbLine
 10
50.814418953852055
 20
-1.5
 30
0.0
 11
-50.81441895385202
 21
-1.5
 31
0.0
  0
SPLINE
  5
4F
330
17
100
AcDbEntity
  8
HIDDEN
100
AcDbSpline
 70
0
 71
3
 72
38
 73
34
 74
0
 40
0.0
 40
0.0
 40
0.0
 40
0.0
 40
0.2653665551892492
 40
0.2653665551892492
 40
0.2653665551892492
 40
0.3317081939865615
 40
0.3317081939865615
 40
0.3317081939865615
 40
0.3980498327838738
 40
0.3980498327838738
 40
0.3980498327838738
 40
0.4643914715811861
 40
0.4643914715811861
 40
0.4643914715811861
 40
0.5307331103784984
 40
0.5307331103784984
 40
0.5307331103784984
 40
0.5970747491758106
 40
0.5970747491758106
 40
0.5970747491758106
 40
0.6634163879731229
 40
0.6634163879731229
 40
0.6634163879731229
 40
0.7297580267704351
 40
0.7297580267704351
 40
0.7297580267704351
 40
0.7960996655677474
 40
0.7960996655677474
 40
0.7960996655677474
 40
0.8624413043650596
 40
0.8624413043650596
 40
0.8624413043650596
 40
0.9287829431623722
 40
0.9287829431623722
 40
0.9287829431623722
 40
0.9287829431623722
 10
50.814418953852055
 20
-1.5
 30
0.0
 10
51.34538264064448
 20
-1.4999999999999991
 30
0.0
 10
51.87463770122952
 20
-1.5000000000000004
 30
0.0
 10
52.38799701511497
 20
-1.4999999999999998
 30
0.0
 10
52.51478815206284
 20
-1.5
 30
0.0
 10
52.64157928901073
 20
-1.5
 30
0.0
 10
52.768370425958594
 20
-1.5
 30
0.0
 10
52.8922960285583
 20
-1.5
 30
0.0
 10
53.01622163115797
 20
-1.5
 30
0.0
 10
53.14014723375769
 20
-1.5
 30
0.0
 10
53.26066207904549
 20
-1.5000000000000002
 30
0.0
 10
53.38117692433329
 20
-1.4999999999999996
 30
0.0
 10
53.50169176962109
 20
-1.5
 30
0.0
 10
53.61826564059788
 20
-1.5
 30
0.0
 10
53.73483951157473
 20
-1.5000000000000002
 30
0.0
 10
53.851413382551485
 20
-1.4999999999999996
 30
0.0
 10
53.96353340092512
 20
-1.5000000000000009
 30
0.0
 10
54.075653419298604
 20
-1.4999999999999998
 30
0.0
 10
54.18777343767219
 20
-1.5
 30
0.0
 10
54.29494632031601
 20
-1.5000000000000013
 30
0.0
 10
54.402119202959696
 20
-1.4999999999999993
 30
0.0
 10
54.509292085603484
 20
-1.5
 30
0.0
 10
54.61104631480454
 20
-1.4999999999999991
 30
0.0
 10
54.712800544005624
 20
-1.5000000000000002
 30
0.0
 10
54.81455477320672
 20
-1.5
 30
0.0
 10
54.91044267115481
 20
-1.5000000000000013
 30
0.0
 10
55.00633056910281
 20
-1.4999999999999993
 30
0.0
 10
55.10221846705085
 20
-1.4999999999999996
 30
0.0
 10
55.19181816544099
 20
-1.5000000000000009
 30
0.0
 10
55.28141786383105
 20
-1.4999999999999996
 30
0.0
 10
55.371017562221134
 20
-1.4999999999999996
 30
0.0
 10
55.45393485830525
 20
-1.5000000000000007
 30
0.0
 10
55.53685215438924
 20
-1.5
 30
0.0
 10
55.61976945047331
 20
-1.5
 30
0.0
  0
LINE
  5
50
330
17
100
AcDbEntity
  8
HIDDEN
100
AcDbLine
 10
81.60535049662127
 20
-1.5
 30
0.0
 11
55.619769450473335
 21
-1.5
 31
0.0
  0
SPLINE
  5
51
330
17
100
AcDbEntity
  8
HIDDEN
100
AcDbSpline
 70
0
 71
1
 72
17
 73
15
 74
0
 40
0.0
 40
0.0
 40
0.0714285714285715
 40
0.14285714285714282
 40
0.21428571428571414
 40
0.2857142857142854
 40
0.35714285714285676
 40
0.4285714285714281
 40
0.4999999999999994
 40
0.5714285714285707
 40
0.642857142857142
 40
0.7142857142857133
 40
0.7857142857142847
 40
0.857142857142856
 40
0.9285714285714273
 40
1.0
 40
1.0
 10
81.60535049662124
 20
-1.5
 30
0.0
 10
81.76500239448356
 20
-1.5
 30
0.0
 10
81.91421489461801
 20
-1.5
 30
0.0
 10
82.05267426331187
 20
-1.5
 30
0.0
 10
82.1800893763513
 20
-1.5
 30
0.0
 10
82.29619233113809
 20
-1.5
 30
0.0
 10
82.40073900998081
 20
-1.5
 30
0.0
 10
82.49350959337593
 20
-1.5
 30
0.0
 10
82.57430902219946
 20
-1.5
 30
0.0
 10
82.64296740783773
 20
-1.5
 30
0.0
 10
82.69934038939462
 20
-1.5
 30
0.0
 10
82.74330943722421
 20
-1.5
 30
0.0
 10
82.774782102151
 20
-1.5
 30
0.0
 10
82.79369220985303
 20
-1.5
 30
0.0
 10
82.8
 20
-1.5
 30
0.0
  0
SPLINE
  5
52
330
17
100
AcDbEntity
  8
HIDDEN
100
AcDbSpline
 70
0
 71
2
 72
30
 73
27
 74
0
 40
0.0
 40
0.0
 40
0.0
 40
0.1121997376282069
 40
0.1121997376282069
 40
0.3365992128846207
 40
0.3365992128846207
 40
0.4487989505128276
 40
0.4487989505128276
 40
0.5609986881410345
 40
0.5609986881410345
 40
0.6731984257692414
 40
0.6731984257692414
 40
0.7853981633974483
 40
0.7853981633974483
 40
0.8975979010256552
 40
0.8975979010256552
 40
1.009797638653862
 40
1.009797638653862
 40
1.121997376282069
 40
1.121997376282069
 40
1.2341971139102759
 40
1.2341971139102759
 40
1.3463968515384828
 40
1.3463968515384828
 40
1.4585965891666897
 40
1.4585965891666897
 40
1.5707963267948966
 40
1.5707963267948966
 40
1.5707963267948966
 10
-61.2
 20
-1.5
 30
0.0
 10
-61.08243730009153
 20
-1.5
 30
0.0
 10
-60.96487460018306
 20
-1.5
 30
0.0
 10
-60.73105815982729
 20
-1.5
 30
0.0
 10
-60.506413969894155
 20
-1.5
 30
0.0
 10
-60.397629058873655
 20
-1.5
 30
0.0
 10
-60.28884414785314
 20
-1.5
 30
0.0
 10
-60.185788393585476
 20
-1.5
 30
0.0
 10
-60.0827326393178
 20
-1.5
 30
0.0
 10
-59.986702027707224
 20
-1.5
 30
0.0
 10
-59.890671416096666
 20
-1.5
 30
0.0
 10
-59.80287358780246
 20
-1.5
 30
0.0
 10
-59.71507575950825
 20
-1.5
 30
0.0
 10
-59.63661482316269
 20
-1.5
 30
0.0
 10
-59.55815388681714
 20
-1.5
 30
0.0
 10
-59.49001653421887
 20
-1.5
 30
0.0
 10
-59.421879181620604
 20
-1.5
 30
0.0
 10
-59.36492227951277
 20
-1.5
 30
0.0
 10
-59.30796537740491
 20
-1.5
 30
0.0
 10
-59.26290519187867
 20
-1.5
 30
0.0
 10
-59.217845006352434
 20
-1.5
 30
0.0
 10
-59.1852481953853
 20
-1.5
 30
0.0
 10
-59.15265138441817
 20
-1.5
 30
0.0
 10
-59.13292787182118
 20
-1.5
 30
0.0
 10
-59.11320435922419
 20
-1.5
 30
0.0
 10
-59.106602179612096
 20
-1.5
 30
0.0
 10
-59.1
 20
-1.5
 30
0.0
  0
SPLINE
  5
53
330
17
100
AcDbEntity
  8
HIDDEN
100
AcDbSpline
 70
0
 71
1
 72
17
 73
15
 74
0
 40
0.0
 40
0.0
 40
0.07142857142857142
 40
0.14285714285714285
 40
0.21428571428571427
 40
0.2857142857142857
 40
0.35714285714285715
 40
0.42857142857142855
 40
0.5
 40
0.5714285714285714
 40
0.6428571428571429
 40
0.7142857142857143
 40
0.7857142857142857
 40
0.8571428571428571
 40
0.9285714285714286
 40
1.0
 40
1.0
 10
-59.1
 20
-1.5
 30
0.0
 10
-59.15265138441817
 20
-1.5
 30
0.0
 10
-59.30796537740491
 20
-1.5
 30
0.0
 10
-59.55815388681714
 20
-1.5
 30
0.0
 10
-59.890671416096666
 20
-1.5
 30
0.0
 10
-60.28884414785314
 20
-1.5
 30
0.0
 10
-60.732706038691745
 20
-1.5
 30
0.0
 10
-61.2
 20
-1.5
 30
0.0
 10
-61.66729396130826
 20
-1.5
 30
0.0
 10
-62.11115585214688
 20
-1.5
 30
0.0
 10
-62.50932858390334
 20
-1.5
 30
0.0
 10
-62.84184611318287
 20
-1.5
 30
0.0
 10
-63.09203462259508
 20
-1.5
 30
0.0
 10
-63.247348615581835
 20
-1.5
 30
0.0
 10
-63.300000000000004
 20
-1.5
 30
0.0
  0
SPLINE
  5
54
330
17
100
AcDbEntity
  8
HIDDEN
100
AcDbSpline
 70
0
 71
2
 72
30
 73
27
 74
0
 40
0.0
 40
0.0
 40
0.0
 40
0.07142857142857142
 40
0.07142857142857142
 40
0.14285714285714285
 40
0.14285714285714285
 40
0.21428571428571427
 40
0.21428571428571427
 40
0.2857142857142857
 40
0.2857142857142857
 40
0.35714285714285715
 40
0.35714285714285715
 40
0.42857142857142855
 40
0.42857142857142855
 40
0.5
 40
0.5
 40
0.5714285714285714
 40
0.5714285714285714
 40
0.6428571428571429
 40
0.6428571428571429
 40
0.7142857142857143
 40
0.7142857142857143
 40
0.7857142857142857
 40
0.7857142857142857
 40
0.8571428571428571
 40
0.8571428571428571
 40
1.0
 40
1.0
 40
1.0
 10
-63.300000000000004
 20
-1.5
 30
0.0
 10
-63.29339782038791
 20
-1.4999999999999998
 30
0.0
 10
-63.286795640775814
 20
-1.5
 30
0.0
 10
-63.26707212817882
 20
-1.5
 30
0.0
 10
-63.24734861558184
 20
-1.5
 30
0.0
 10
-63.21475180461469
 20
-1.4999999999999998
 30
0.0
 10
-63.18215499364757
 20
-1.5
 30
0.0
 10
-63.13709480812135
 20
-1.5
 30
0.0
 10
-63.09203462259509
 20
-1.5
 30
0.0
 10
-63.03507772048724
 20
-1.4999999999999998
 30
0.0
 10
-62.97812081837941
 20
-1.5
 30
0.0
 10
-62.90998346578113
 20
-1.5
 30
0.0
 10
-62.84184611318287
 20
-1.5
 30
0.0
 10
-62.76338517683731
 20
-1.4999999999999998
 30
0.0
 10
-62.68492424049175
 20
-1.5
 30
0.0
 10
-62.59712641219756
 20
-1.5
 30
0.0
 10
-62.509328583903354
 20
-1.5
 30
0.0
 10
-62.41329797229277
 20
-1.4999999999999998
 30
0.0
 10
-62.31726736068221
 20
-1.5
 30
0.0
 10
-62.214211606414544
 20
-1.5
 30
0.0
 10
-62.111155852146865
 20
-1.5
 30
0.0
 10
-62.00237094112636
 20
-1.4999999999999998
 30
0.0
 10
-61.89358603010585
 20
-1.5
 30
0.0
 10
-61.780439995707056
 20
-1.5
 30
0.0
 10
-61.66729396130826
 20
-1.5
 30
0.0
 10
-61.435954552789035
 20
-1.5
 30
0.0
 10
-61.2
 20
-1.5
 30
0.0
  0
SPLINE
  5
55
330
17
100
AcDbEntity
  8
HIDDEN
100
AcDbSpline
 70
0
 71
2
 72
30
 73
27
 74
0
 40
0.0
 40
0.0
 40
0.0
 40
0.1121997376282069
 40
0.1121997376282069
 40
0.3365992128846207
 40
0.3365992128846207
 40
0.4487989505128276
 40
0.4487989505128276
 40
0.5609986881410345
 40
0.5609986881410345
 40
0.6731984257692414
 40
0.6731984257692414
 40
0.7853981633974483
 40
0.7853981633974483
 40
0.8975979010256552
 40
0.8975979010256552
 40
1.009797638653862
 40
1.009797638653862
 40
1.121997376282069
 40
1.121997376282069
 40
1.2341971139102759
 40
1.2341971139102759
 40
1.3463968515384828
 40
1.3463968515384828
 40
1.4585965891666897
 40
1.4585965891666897
 40
1.5707963267948966
 40
1.5707963267948966
 40
1.5707963267948966
 10
-61.2
 20
-1.5
 30
0.0
 10
-61.08243730009153
 20
-1.5
 30
0.0
 10
-60.96487460018306
 20
-1.5
 30
0.0
 10
-60.73105815982729
 20
-1.5
 30
0.0
 10
-60.506413969894155
 20
-1.5
 30
0.0
 10
-60.397629058873655
 20
-1.5
 30
0.0
 10
-60.28884414785314
 20
-1.5
 30
0.0
 10
-60.185788393585476
 20
-1.5
 30
0.0
 10
-60.0827326393178
 20
-1.5
 30
0.0
 10
-59.986702027707224
 20
-1.5
 30
0.0
 10
-59.890671416096666
 20
-1.5
 30
0.0
 10
-59.80287358780246
 20
-1.5
 30
0.0
 10
-59.71507575950825
 20
-1.5
 30
0.0
 10
-59.63661482316269
 20
-1.5
 30
0.0
 10
-59.55815388681714
 20
-1.5
 30
0.0
 10
-59.49001653421887
 20
-1.5
 30
0.0
 10
-59.421879181620604
 20
-1.5
 30
0.0
 10
-59.36492227951277
 20
-1.5
 30
0.0
 10
-59.30796537740491
 20
-1.5
 30
0.0
 10
-59.26290519187867
 20
-1.5
 30
0.0
 10
-59.217845006352434
 20
-1.5
 30
0.0
 10
-59.1852481953853
 20
-1.5
 30
0.0
 10
-59.15265138441817
 20
-1.5
 30
0.0
 10
-59.13292787182118
 20
-1.5
 30
0.0
 10
-59.11320435922419
 20
-1.5
 30
0.0
 10
-59.106602179612096
 20
-1.5
 30
0.0
 10
-59.1
 20
-1.5
 30
0.0
  0
SPLINE
  5
56
330
17
100
AcDbEntity
  8
HIDDEN
100
AcDbSpline
 70
0
 71
1
 72
17
 73
15
 74
0
 40
0.0
 40
0.0
 40
0.07142857142857142
 40
0.14285714285714285
 40
0.21428571428571427
 40
0.2857142857142857
 40
0.35714285714285715
 40
0.42857142857142855
 40
0.5
 40
0.5714285714285714
 40
0.6428571428571429
 40
0.7142857142857143
 40
0.7857142857142857
 40
0.8571428571428571
 40
0.9285714285714286
 40
1.0
 40
1.0
 10
-59.1
 20
-1.5
 30
0.0
 10
-59.15265138441817
 20
-1.5
 30
0.0
 10
-59.30796537740491
 20
-1.5
 30
0.0
 10
-59.55815388681714
 20
-1.5
 30
0.0
 10
-59.890671416096666
 20
-1.5
 30
0.0
 10
-60.28884414785314
 20
-1.5
 30
0.0
 10
-60.732706038691745
 20
-1.5
 30
0.0
 10
-61.2
 20
-1.5
 30
0.0
 10
-61.66729396130826
 20
-1.5
 30
0.0
 10
-62.11115585214688
 20
-1.5
 30
0.0
 10
-62.50932858390334
 20
-1.5
 30
0.0
 10
-62.84184611318287
 20
-1.5
 30
0.0
 10
-63.09203462259508
 20
-1.5
 30
0.0
 10
-63.247348615581835
 20
-1.5
 30
0.0
 10
-63.300000000000004
 20
-1.5
 30
0.0
  0
SPLINE
  5
57
330
17
100
AcDbEntity
  8
HIDDEN
100
AcDbSpline
 70
0
 71
2
 72
30
 73
27
 74
0
 40
0.0
 40
0.0
 40
0.0
 40
0.07142857142857142
 40
0.07142857142857142
 40
0.14285714285714285
 40
0.14285714285714285
 40
0.21428571428571427
 40
0.21428571428571427
 40
0.2857142857142857
 40
0.2857142857142857
 40
0.35714285714285715
 40
0.35714285714285715
 40
0.42857142857142855
 40
0.42857142857142855
 40
0.5
 40
0.5
 40
0.5714285714285714
 40
0.5714285714285714
 40
0.6428571428571429
 40
0.6428571428571429
 40
0.7142857142857143
 40
0.7142857142857143
 40
0.7857142857142857
 40
0.7857142857142857
 40
0.8571428571428571
 40
0.8571428571428571
 40
1.0
 40
1.0
 40
1.0
 10
-63.300000000000004
 20
-1.5
 30
0.0
 10
-63.29339782038791
 20
-1.4999999999999998
 30
0.0
 10
-63.286795640775814
 20
-1.5
 30
0.0
 10
-63.26707212817882
 20
-1.5
 30
0.0
 10
-63.24734861558184
 20
-1.5
 30
0.0
 10
-63.21475180461469
 20
-1.4999999999999998
 30
0.0
 10
-63.18215499364757
 20
-1.5
 30
0.0
 10
-63.13709480812135
 20
-1.5
 30
0.0
 10
-63.09203462259509
 20
-1.5
 30
0.0
 10
-63.03507772048724
 20
-1.4999999999999998
 30
0.0
 10
-62.97812081837941
 20
-1.5
 30
0.0
 10
-62.90998346578113
 20
-1.5
 30
0.0
 10
-62.84184611318287
 20
-1.5
 30
0.0
 10
-62.76338517683731
 20
-1.4999999999999998
 30
0.0
 10
-62.68492424049175
 20
-1.5
 30
0.0
 10
-62.59712641219756
 20
-1.5
 30
0.0
 10
-62.509328583903354
 20
-1.5
 30
0.0
 10
-62.41329797229277
 20
-1.4999999999999998
 30
0.0
 10
-62.31726736068221
 20
-1.5
 30
0.0
 10
-62.214211606414544
 20
-1.5
 30
0.0
 10
-62.111155852146865
 20
-1.5
 30
0.0
 10
-62.00237094112636
 20
-1.4999999999999998
 30
0.0
 10
-61.89358603010585
 20
-1.5
 30
0.0
 10
-61.780439995707056
 20
-1.5
 30
0.0
 10
-61.66729396130826
 20
-1.5
 30
0.0
 10
-61.435954552789035
 20
-1.5
 30
0.0
 10
-61.2
 20
-1.5
 30
0.0
  0
SPLINE
  5
58
330
17
100
AcDbEntity
  8
HIDDEN
100
AcDbSpline
 70
0
 71
2
 72
30
 73
27
 74
0
 40
0.0
 40
0.0
 40
0.0
 40
0.1121997376282069
 40
0.1121997376282069
 40
0.3365992128846207
 40
0.3365992128846207
 40
0.4487989505128276
 40
0.4487989505128276
 40
0.5609986881410345
 40
0.5609986881410345
 40
0.6731984257692414
 40
0.6731984257692414
 40
0.7853981633974483
 40
0.7853981633974483
 40
0.8975979010256552
 40
0.8975979010256552
 40
1.009797638653862
 40
1.009797638653862
 40
1.121997376282069
 40
1.121997376282069
 40
1.2341971139102759
 40
1.2341971139102759
 40
1.3463968515384828
 40
1.3463968515384828
 40
1.4585965891666897
 40
1.4585965891666897
 40
1.5707963267948966
 40
1.5707963267948966
 40
1.5707963267948966
 10
61.2
 20
-1.5
 30
0.0
 10
61.31756269990849
 20
-1.5
 30
0.0
 10
61.43512539981695
 20
-1.5
 30
0.0
 10
61.668941840172714
 20
-1.5
 30
0.0
 10
61.89358603010585
 20
-1.5
 30
0.0
 10
62.002370941126365
 20
-1.5
 30
0.0
 10
62.111155852146865
 20
-1.5
 30
0.0
 10
62.214211606414544
 20
-1.5
 30
0.0
 10
62.31726736068221
 20
-1.5
 30
0.0
 10
62.41329797229277
 20
-1.5
 30
0.0
 10
62.50932858390334
 20
-1.5
 30
0.0
 10
62.59712641219755
 20
-1.5
 30
0.0
 10
62.68492424049175
 20
-1.5
 30
0.0
 10
62.7633851768373
 20
-1.5
 30
0.0
 10
62.84184611318287
 20
-1.5
 30
0.0
 10
62.90998346578114
 20
-1.5
 30
0.0
 10
62.9781208183794
 20
-1.5
 30
0.0
 10
63.03507772048724
 20
-1.5
 30
0.0
 10
63.092034622595094
 20
-1.5
 30
0.0
 10
63.13709480812133
 20
-1.5
 30
0.0
 10
63.18215499364757
 20
-1.5
 30
0.0
 10
63.21475180461471
 20
-1.5
 30
0.0
 10
63.247348615581835
 20
-1.5
 30
0.0
 10
63.267072128178825
 20
-1.5
 30
0.0
 10
63.286795640775814
 20
-1.5
 30
0.0
 10
63.29339782038791
 20
-1.5
 30
0.0
 10
63.300000000000004
 20
-1.5
 30
0.0
  0
SPLINE
  5
59
330
17
100
AcDbEntity
  8
HIDDEN
100
AcDbSpline
 70
0
 71
1
 72
17
 73
15
 74
0
 40
0.0
 40
0.0
 40
0.07142857142857142
 40
0.14285714285714285
 40
0.21428571428571427
 40
0.2857142857142857
 40
0.35714285714285715
 40
0.42857142857142855
 40
0.5
 40
0.5714285714285714
 40
0.6428571428571429
 40
0.7142857142857143
 40
0.7857142857142857
 40
0.8571428571428571
 40
0.9285714285714286
 40
1.0
 40
1.0
 10
63.300000000000004
 20
-1.5
 30
0.0
 10
63.247348615581835
 20
-1.5
 30
0.0
 10
63.092034622595094
 20
-1.5
 30
0.0
 10
62.84184611318287
 20
-1.5
 30
0.0
 10
62.50932858390334
 20
-1.5
 30
0.0
 10
62.111155852146865
 20
-1.5
 30
0.0
 10
61.66729396130826
 20
-1.5
 30
0.0
 10
61.2
 20
-1.5
 30
0.0
 10
60.732706038691745
 20
-1.5
 30
0.0
 10
60.288844147853126
 20
-1.5
 30
0.0
 10
59.890671416096666
 20
-1.5
 30
0.0
 10
59.55815388681714
 20
-1.5
 30
0.0
 10
59.307965377404926
 20
-1.5
 30
0.0
 10
59.15265138441817
 20
-1.5
 30
0.0
 10
59.1
 20
-1.5
 30
0.0
  0
SPLINE
  5
5A
330
17
100
AcDbEntity
  8
HIDDEN
100
AcDbSpline
 70
0
 71
2
 72
30
 73
27
 74
0
 40
0.0
 40
0.0
 40
0.0
 40
0.07142857142857142
 40
0.07142857142857142
 40
0.14285714285714285
 40
0.14285714285714285
 40
0.21428571428571427
 40
0.21428571428571427
 40
0.2857142857142857
 40
0.2857142857142857
 40
0.35714285714285715
 40
0.35714285714285715
 40
0.42857142857142855
 40
0.42857142857142855
 40
0.5
 40
0.5
 40
0.5714285714285714
 40
0.5714285714285714
 40
0.6428571428571429
 40
0.6428571428571429
 40
0.7142857142857143
 40
0.7142857142857143
 40
0.7857142857142857
 40
0.7857142857142857
 40
0.8571428571428571
 40
0.8571428571428571
 40
1.0
 40
1.0
 40
1.0
 10
59.1
 20
-1.5
 30
0.0
 10
59.106602179612096
 20
-1.4999999999999998
 30
0.0
 10
59.11320435922419
 20
-1.5
 30
0.0
 10
59.13292787182119
 20
-1.5
 30
0.0
 10
59.152651384418164
 20
-1.5
 30
0.0
 10
59.1852481953853
 20
-1.4999999999999998
 30
0.0
 10
59.217845006352434
 20
-1.5
 30
0.0
 10
59.262905191878666
 20
-1.5
 30
0.0
 10
59.30796537740492
 20
-1.5
 30
0.0
 10
59.364922279512754
 20
-1.4999999999999998
 30
0.0
 10
59.4218791816206
 20
-1.5
 30
0.0
 10
59.49001653421886
 20
-1.5
 30
0.0
 10
59.55815388681714
 20
-1.5
 30
0.0
 10
59.63661482316268
 20
-1.4999999999999998
 30
0.0
 10
59.71507575950825
 20
-1.5
 30
0.0
 10
59.80287358780245
 20
-1.5
 30
0.0
 10
59.89067141609665
 20
-1.5
 30
0.0
 10
59.986702027707224
 20
-1.4999999999999998
 30
0.0
 10
60.0827326393178
 20
-1.5
 30
0.0
 10
60.18578839358546
 20
-1.5
 30
0.0
 10
60.28884414785314
 20
-1.5
 30
0.0
 10
60.39762905887365
 20
-1.4999999999999998
 30
0.0
 10
60.506413969894155
 20
-1.5
 30
0.0
 10
60.61956000429296
 20
-1.5
 30
0.0
 10
60.732706038691745
 20
-1.5
 30
0.0
 10
60.964045447210985
 20
-1.5
 30
0.0
 10
61.2
 20
-1.5
 30
0.0
  0
LINE
  5
5B
330
17
100
AcDbEntity
  8
HIDDEN
100
AcDbLine
 10
19.800000000000004
 20
-1.5
 30
0.0
 11
-19.8
 21
-1.5
 31
0.0
  0
LINE
  5
5C
330
17
100
AcDbEntity
  8
HIDDEN
100
AcDbLine
 10
19.800000000000004
 20
-1.5
 30
0.0
 11
-19.8
 21
-1.5
 31
0.0
  0
LINE
  5
5D
330
17
100
AcDbEntity
  8
HIDDEN
100
AcDbLine
 10
19.800000000000004
 20
-1.5
 30
0.0
 11
-19.8
 21
-1.5
 31
0.0
  0
LINE
  5
5E
330
17
100
AcDbEntity
  8
HIDDEN
100
AcDbLine
 10
19.800000000000004
 20
-1.5
 30
0.0
 11
-19.8
 21
-1.5
 31
0.0
  0
LINE
  5
5F
330
17
100
AcDbEntity
  8
HIDDEN
100
AcDbLine
 10
19.800000000000004
 20
-1.5
 30
0.0
 11
-19.8
 21
-1.5
 31
0.0
  0
LINE
  5
60
330
17
100
AcDbEntity
  8
HIDDEN
100
AcDbLine
 10
19.800000000000004
 20
-1.5
 30
0.0
 11
-19.8
 21
-1.5
 31
0.0
  0
LINE
  5
61
330
17
100
AcDbEntity
  8
HIDDEN
100
AcDbLine
 10
19.800000000000004
 20
-1.5
 30
0.0
 11
-19.8
 21
-1.5
 31
0.0
  0
LINE
  5
62
330
17
100
AcDbEntity
  8
HIDDEN
100
AcDbLine
 10
19.800000000000004
 20
-1.5
 30
0.0
 11
-19.8
 21
-1.5
 31
0.0
  0
LINE
  5
63
330
17
100
AcDbEntity
  8
HIDDEN
100
AcDbLine
 10
19.800000000000004
 20
-1.5
 30
0.0
 11
-19.8
 21
-1.5
 31
0.0
  0
LINE
  5
64
330
17
100
AcDbEntity
  8
HIDDEN
100
AcDbLine
 10
19.800000000000004
 20
-1.5
 30
0.0
 11
-19.8
 21
-1.5
 31
0.0
  0
LINE
  5
65
330
17
100
AcDbEntity
  8
HIDDEN
100
AcDbLine
 10
19.800000000000004
 20
-1.5
 30
0.0
 11
-19.8
 21
-1.5
 31
0.0
  0
LINE
  5
66
330
17
100
AcDbEntity
  8
HIDDEN
100
AcDbLine
 10
19.800000000000004
 20
-1.5
 30
0.0
 11
-19.8
 21
-1.5
 31
0.0
  0
SPLINE
  5
67
330
17
100
AcDbEntity
  8
HIDDEN
100
AcDbSpline
 70
0
 71
2
 72
30
 73
27
 74
0
 40
0.0
 40
0.0
 40
0.0
 40
0.1121997376282069
 40
0.1121997376282069
 40
0.3365992128846207
 40
0.3365992128846207
 40
0.4487989505128276
 40
0.4487989505128276
 40
0.5609986881410345
 40
0.5609986881410345
 40
0.6731984257692414
 40
0.6731984257692414
 40
0.7853981633974483
 40
0.7853981633974483
 40
0.8975979010256552
 40
0.8975979010256552
 40
1.009797638653862
 40
1.009797638653862
 40
1.121997376282069
 40
1.121997376282069
 40
1.2341971139102759
 40
1.2341971139102759
 40
1.3463968515384828
 40
1.3463968515384828
 40
1.4585965891666897
 40
1.4585965891666897
 40
1.5707963267948966
 40
1.5707963267948966
 40
1.5707963267948966
 10
61.2
 20
-1.5
 30
0.0
 10
61.31756269990849
 20
-1.5
 30
0.0
 10
61.43512539981695
 20
-1.5
 30
0.0
 10
61.668941840172714
 20
-1.5
 30
0.0
 10
61.89358603010585
 20
-1.5
 30
0.0
 10
62.002370941126365
 20
-1.5
 30
0.0
 10
62.111155852146865
 20
-1.5
 30
0.0
 10
62.214211606414544
 20
-1.5
 30
0.0
 10
62.31726736068221
 20
-1.5
 30
0.0
 10
62.41329797229277
 20
-1.5
 30
0.0
 10
62.50932858390334
 20
-1.5
 30
0.0
 10
62.59712641219755
 20
-1.5
 30
0.0
 10
62.68492424049175
 20
-1.5
 30
0.0
 10
62.7633851768373
 20
-1.5
 30
0.0
 10
62.84184611318287
 20
-1.5
 30
0.0
 10
62.90998346578114
 20
-1.5
 30
0.0
 10
62.9781208183794
 20
-1.5
 30
0.0
 10
63.03507772048724
 20
-1.5
 30
0.0
 10
63.092034622595094
 20
-1.5
 30
0.0
 10
63.13709480812133
 20
-1.5
 30
0.0
 10
63.18215499364757
 20
-1.5
 30
0.0
 10
63.21475180461471
 20
-1.5
 30
0.0
 10
63.247348615581835
 20
-1.5
 30
0.0
 10
63.267072128178825
 20
-1.5
 30
0.0
 10
63.286795640775814
 20
-1.5
 30
0.0
 10
63.29339782038791
 20
-1.5
 30
0.0
 10
63.300000000000004
 20
-1.5
 30
0.0
  0
SPLINE
  5
68
330
17
100
AcDbEntity
  8
HIDDEN
100
AcDbSpline
 70
0
 71
1
 72
17
 73
15
 74
0
 40
0.0
 40
0.0
 40
0.07142857142857142
 40
0.14285714285714285
 40
0.21428571428571427
 40
0.2857142857142857
 40
0.35714285714285715
 40
0.42857142857142855
 40
0.5
 40
0.5714285714285714
 40
0.6428571428571429
 40
0.7142857142857143
 40
0.7857142857142857
 40
0.8571428571428571
 40
0.9285714285714286
 40
1.0
 40
1.0
 10
63.300000000000004
 20
-1.5
 30
0.0
 10
63.247348615581835
 20
-1.5
 30
0.0
 10
63.092034622595094
 20
-1.5
 30
0.0
 10
62.84184611318287
 20
-1.5
 30
0.0
 10
62.50932858390334
 20
-1.5
 30
0.0
 10
62.111155852146865
 20
-1.5
 30
0.0
 10
61.66729396130826
 20
-1.5
 30
0.0
 10
61.2
 20
-1.5
 30
0.0
 10
60.732706038691745
 20
-1.5
 30
0.0
 10
60.288844147853126
 20
-1.5
 30
0.0
 10
59.890671416096666
 20
-1.5
 30
0.0
 10
59.55815388681714
 20
-1.5
 30
0.0
 10
59.307965377404926
 20
-1.5
 30
0.0
 10
59.15265138441817
 20
-1.5
 30
0.0
 10
59.1
 20
-1.5
 30
0.0
  0
SPLINE
  5
69
330
17
100
AcDbEntity
  8
HIDDEN
100
AcDbSpline
 70
0
 71
2
 72
30
 73
27
 74
0
 40
0.0
 40
0.0
 40
0.0
 40
0.07142857142857142
 40
0.07142857142857142
 40
0.14285714285714285
 40
0.14285714285714285
 40
0.21428571428571427
 40
0.21428571428571427
 40
0.2857142857142857
 40
0.2857142857142857
 40
0.35714285714285715
 40
0.35714285714285715
 40
0.42857142857142855
 40
0.42857142857142855
 40
0.5
 40
0.5
 40
0.5714285714285714
 40
0.5714285714285714
 40
0.6428571428571429
 40
0.6428571428571429
 40
0.7142857142857143
 40
0.7142857142857143
 40
0.7857142857142857
 40
0.7857142857142857
 40
0.8571428571428571
 40
0.8571428571428571
 40
1.0
 40
1.0
 40
1.0
 10
59.1
 20
-1.5
 30
0.0
 10
59.106602179612096
 20
-1.4999999999999998
 30
0.0
 10
59.11320435922419
 20
-1.5
 30
0.0
 10
59.13292787182119
 20
-1.5
 30
0.0
 10
59.152651384418164
 20
-1.5
 30
0.0
 10
59.1852481953853
 20
-1.4999999999999998
 30
0.0
 10
59.217845006352434
 20
-1.5
 30
0.0
 10
59.262905191878666
 20
-1.5
 30
0.0
 10
59.30796537740492
 20
-1.5
 30
0.0
 10
59.364922279512754
 20
-1.4999999999999998
 30
0.0
 10
59.4218791816206
 20
-1.5
 30
0.0
 10
59.49001653421886
 20
-1.5
 30
0.0
 10
59.55815388681714
 20
-1.5
 30
0.0
 10
59.63661482316268
 20
-1.4999999999999998
 30
0.0
 10
59.71507575950825
 20
-1.5
 30
0.0
 10
59.80287358780245
 20
-1.5
 30
0.0
 10
59.89067141609665
 20
-1.5
 30
0.0
 10
59.986702027707224
 20
-1.4999999999999998
 30
0.0
 10
60.0827326393178
 20
-1.5
 30
0.0
 10
60.18578839358546
 20
-1.5
 30
0.0
 10
60.28884414785314
 20
-1.5
 30
0.0
 10
60.39762905887365
 20
-1.4999999999999998
 30
0.0
 10
60.506413969894155
 20
-1.5
 30
0.0
 10
60.61956000429296
 20
-1.5
 30
0.0
 10
60.732706038691745
 20
-1.5
 30
0.0
 10
60.964045447210985
 20
-1.5
 30
0.0
 10
61.2
 20
-1.5
 30
0.0
  0
SPLINE
  5
6A
330
17
100
AcDbEntity
  8
HIDDEN
100
AcDbSpline
 70
0
 71
1
 72
4
 73
2
 74
0
 40
0.0
 40
0.0
 40
1.0
 40
1.0
 10
-82.80000000000001
 20
-1.5
 30
0.0
 10
-81.00000000000001
 20
1.5
 30
0.0
  0
SPLINE
  5
6B
330
17
100
AcDbEntity
  8
HIDDEN
100
AcDbSpline
 70
0
 71
1
 72
17
 73
15
 74
0
 40
0.0
 40
0.0
 40
0.07142857142857142
 40
0.14285714285714285
 40
0.21428571428571427
 40
0.2857142857142857
 40
0.35714285714285715
 40
0.42857142857142855
 40
0.5
 40
0.5714285714285714
 40
0.6428571428571429
 40
0.7142857142857143
 40
0.7857142857142857
 40
0.8571428571428571
 40
0.9285714285714286
 40
1.0
 40
1.0
 10
-81.0
 20
1.5
 30
0.0
 10
-80.99379896169627
 20
1.5
 30
0.0
 10
-80.97520866441045
 20
1.5
 30
0.0
 10
-80.94426753452433
 20
1.5
 30
0.0
 10
-80.9010395277485
 20
1.5
 30
0.0
 10
-80.84561399692485
 20
1.5
 30
0.0
 10
-80.77810550733331
 20
1.5
 30
0.0
 10
-80.69865359988378
 20
1.5
 30
0.0
 10
-80.60742250268336
 20
1.5
 30
0.0
 10
-80.50460079157486
 20
1.5
 30
0.0
 10
-80.39040100034791
 20
1.5
 30
0.0
 10
-80.26505918142911
 20
1.5
 30
0.0
 10
-80.12883441795849
 20
1.5
 30
0.0
 10
-79.98200828826144
 20
1.5
 30
0.0
 10
-79.82488428382273
 20
1.5
 30
0.0
  0
SPLINE
  5
6C
330
17
100
AcDbEntity
  8
HIDDEN
100
AcDbSpline
 70
0
 71
3
 72
38
 73
34
 74
0
 40
0.0
 40
0.0
 40
0.0
 40
0.0
 40
0.07142857142857142
 40
0.07142857142857142
 40
0.07142857142857142
 40
0.14285714285714285
 40
0.14285714285714285
 40
0.14285714285714285
 40
0.21428571428571427
 40
0.21428571428571427
 40
0.21428571428571427
 40
0.2857142857142857
 40
0.2857142857142857
 40
0.2857142857142857
 40
0.35714285714285715
 40
0.35714285714285715
 40
0.35714285714285715
 40
0.42857142857142855
 40
0.42857142857142855
 40
0.42857142857142855
 40
0.5
 40
0.5
 40
0.5
 40
0.5714285714285714
 40
0.5714285714285714
 40
0.5714285714285714
 40
0.6428571428571429
 40
0.6428571428571429
 40
0.6428571428571429
 40
0.7142857142857143
 40
0.7142857142857143
 40
0.7142857142857143
 40
1.0
 40
1.0
 40
1.0
 40
1.0
 10
-54.44879698484422
 20
1.5
 30
0.0
 10
-54.365941948382876
 20
1.5
 30
0.0
 10
-54.28308691192151
 20
1.5
 30
0.0
 10
-54.20023187546016
 20
1.5
 30
0.0
 10
-54.11058645283696
 20
1.4999999999999993
 30
0.0
 10
-54.020941030213855
 20
1.5
 30
0.0
 10
-53.93129560759067
 20
1.5
 30
0.0
 10
-53.83525884901221
 20
1.4999999999999993
 30
0.0
 10
-53.739222090433834
 20
1.5
 30
0.0
 10
-53.64318533185539
 20
1.5
 30
0.0
 10
-53.54118473810446
 20
1.4999999999999991
 30
0.0
 10
-53.43918414435362
 20
1.5000000000000004
 30
0.0
 10
-53.33718355060273
 20
1.5
 30
0.0
 10
-53.2296731700492
 20
1.5
 30
0.0
 10
-53.122162789495654
 20
1.5
 30
0.0
 10
-53.01465240894211
 20
1.5
 30
0.0
 10
-52.902110816378794
 20
1.4999999999999993
 30
0.0
 10
-52.78956922381551
 20
1.5
 30
0.0
 10
-52.67702763125221
 20
1.5
 30
0.0
 10
-52.55995579755352
 20
1.4999999999999993
 30
0.0
 10
-52.44288396385486
 20
1.5
 30
0.0
 10
-52.32581213015619
 20
1.5
 30
0.0
 10
-52.2047311922419
 20
1.4999999999999991
 30
0.0
 10
-52.08365025432763
 20
1.5000000000000004
 30
0.0
 10
-51.96256931641335
 20
1.5
 30
0.0
 10
-51.838018257444794
 20
1.5
 30
0.0
 10
-51.71346719847621
 20
1.5
 30
0.0
 10
-51.58891613950766
 20
1.5
 30
0.0
 10
-51.461449389642546
 20
1.4999999999999993
 30
0.0
 10
-51.33398263977742
 20
1.5
 30
0.0
 10
-51.20651588991233
 20
1.5
 30
0.0
 10
-50.69034541079448
 20
1.4999999999999991
 30
0.0
 10
-50.157998696168065
 20
1.5000000000000004
 30
0.0
 10
-49.623912701021496
 20
1.5
 30
0.0
  0
LINE
  5
6D
330
17
100
AcDbEntity
  8
HIDDEN
100
AcDbLine
 10
49.62391270102152
 20
1.5
 30
0.0
 11
-49.62391270102149
 21
1.5
 31
0.0
  0
SPLINE
  5
6E
330
17
100
AcDbEntity
  8
HIDDEN
100
AcDbSpline
 70
0
 71
3
 72
38
 73
34
 74
0
 40
0.0
 40
0.0
 40
0.0
 40
0.0
 40
0.26692563586913537
 40
0.26692563586913537
 40
0.26692563586913537
 40
0.3336570448364192
 40
0.3336570448364192
 40
0.3336570448364192
 40
0.4003884538037031
 40
0.4003884538037031
 40
0.4003884538037031
 40
0.46711986277098694
 40
0.46711986277098694
 40
0.46711986277098694
 40
0.5338512717382707
 40
0.5338512717382707
 40
0.5338512717382707
 40
0.6005826807055545
 40
0.6005826807055545
 40
0.6005826807055545
 40
0.6673140896728383
 40
0.6673140896728383
 40
0.6673140896728383
 40
0.7340454986401221
 40
0.7340454986401221
 40
0.7340454986401221
 40
0.8007769076074059
 40
0.8007769076074059
 40
0.8007769076074059
 40
0.8675083165746897
 40
0.8675083165746897
 40
0.8675083165746897
 40
0.9342397255419739
 40
0.9342397255419739
 40
0.9342397255419739
 40
0.9342397255419739
 10
49.623912701021524
 20
1.5
 30
0.0
 10
50.15799869616805
 20
1.4999999999999991
 30
0.0
 10
50.69034541079451
 20
1.5000000000000004
 30
0.0
 10
51.20651588991235
 20
1.4999999999999998
 30
0.0
 10
51.33398263977745
 20
1.5
 30
0.0
 10
51.46144938964258
 20
1.5
 30
0.0
 10
51.58891613950769
 20
1.5
 30
0.0
 10
51.713467198476245
 20
1.5
 30
0.0
 10
51.83801825744482
 20
1.5
 30
0.0
 10
51.96256931641338
 20
1.5
 30
0.0
 10
52.08365025432765
 20
1.5000000000000002
 30
0.0
 10
52.20473119224194
 20
1.4999999999999996
 30
0.0
 10
52.32581213015621
 20
1.5
 30
0.0
 10
52.442883963854875
 20
1.5
 30
0.0
 10
52.559955797553556
 20
1.4999999999999996
 30
0.0
 10
52.677027631252244
 20
1.5000000000000004
 30
0.0
 10
52.78956922381553
 20
1.5000000000000002
 30
0.0
 10
52.90211081637885
 20
1.5
 30
0.0
 10
53.014652408942126
 20
1.5
 30
0.0
 10
53.12216278949572
 20
1.5000000000000013
 30
0.0
 10
53.229673170049175
 20
1.4999999999999993
 30
0.0
 10
53.337183550602745
 20
1.5
 30
0.0
 10
53.439184144353604
 20
1.4999999999999991
 30
0.0
 10
53.541184738104526
 20
1.5000000000000002
 30
0.0
 10
53.64318533185541
 20
1.5
 30
0.0
 10
53.73922209043391
 20
1.5000000000000016
 30
0.0
 10
53.835258849012206
 20
1.4999999999999987
 30
0.0
 10
53.93129560759071
 20
1.5000000000000004
 30
0.0
 10
54.02094103021384
 20
1.5000000000000009
 30
0.0
 10
54.11058645283701
 20
1.499999999999999
 30
0.0
 10
54.20023187546018
 20
1.5000000000000004
 30
0.0
 10
54.28308691192155
 20
1.5000000000000007
 30
0.0
 10
54.365941948382876
 20
1.4999999999999993
 30
0.0
 10
54.448796984844236
 20
1.5
 30
0.0
  0
LINE
  5
6F
330
17
100
AcDbEntity
  8
HIDDEN
100
AcDbLine
 10
79.82488428382274
 20
1.5
 30
0.0
 11
54.44879698484425
 21
1.5
 31
0.0
  0
SPLINE
  5
70
330
17
100
AcDbEntity
  8
HIDDEN
100
AcDbSpline
 70
0
 71
1
 72
17
 73
15
 74
0
 40
0.0
 40
0.0
 40
0.07142857142857142
 40
0.14285714285714285
 40
0.21428571428571427
 40
0.2857142857142857
 40
0.35714285714285715
 40
0.42857142857142855
 40
0.5
 40
0.5714285714285714
 40
0.6428571428571429
 40
0.7142857142857143
 40
0.7857142857142857
 40
0.8571428571428571
 40
0.9285714285714286
 40
1.0
 40
1.0
 10
79.82488428382273
 20
1.5
 30
0.0
 10
79.98200828826144
 20
1.5
 30
0.0
 10
80.12883441795847
 20
1.5
 30
0.0
 10
80.26505918142911
 20
1.5
 30
0.0
 10
80.39040100034791
 20
1.5
 30
0.0
 10
80.50460079157486
 20
1.5
 30
0.0
 10
80.60742250268336
 20
1.5
 30
0.0
 10
80.69865359988377
 20
1.5
 30
0.0
 10
80.77810550733331
 20
1.5
 30
0.0
 10
80.84561399692485
 20
1.5
 30
0.0
 10
80.90103952774848
 20
1.5
 30
0.0
 10
80.94426753452433
 20
1.5
 30
0.0
 10
80.97520866441043
 20
1.5
 30
0.0
 10
80.99379896169626
 20
1.5
 30
0.0
 10
81.0
 20
1.5
 30
0.0
  0
SPLINE
  5
71
330
17
100
AcDbEntity
  8
HIDDEN
100
AcDbSpline
 70
0
 71
2
 72
30
 73
27
 74
0
 40
0.0
 40
0.0
 40
0.0
 40
0.1121997376282069
 40
0.1121997376282069
 40
0.3365992128846207
 40
0.3365992128846207
 40
0.4487989505128276
 40
0.4487989505128276
 40
0.5609986881410345
 40
0.5609986881410345
 40
0.6731984257692414
 40
0.6731984257692414
 40
0.7853981633974483
 40
0.7853981633974483
 40
0.8975979010256552
 40
0.8975979010256552
 40
1.009797638653862
 40
1.009797638653862
 40
1.121997376282069
 40
1.121997376282069
 40
1.2341971139102759
 40
1.2341971139102759
 40
1.3463968515384828
 40
1.3463968515384828
 40
1.4585965891666897
 40
1.4585965891666897
 40
1.5707963267948966
 40
1.5707963267948966
 40
1.5707963267948966
 10
-61.2
 20
1.5
 30
0.0
 10
-61.08243730009153
 20
1.5
 30
0.0
 10
-60.96487460018306
 20
1.5
 30
0.0
 10
-60.73105815982729
 20
1.5
 30
0.0
 10
-60.506413969894155
 20
1.5
 30
0.0
 10
-60.397629058873655
 20
1.5
 30
0.0
 10
-60.28884414785314
 20
1.5
 30
0.0
 10
-60.185788393585476
 20
1.5
 30
0.0
 10
-60.0827326393178
 20
1.5
 30
0.0
 10
-59.986702027707224
 20
1.5
 30
0.0
 10
-59.890671416096666
 20
1.5
 30
0.0
 10
-59.80287358780246
 20
1.5
 30
0.0
 10
-59.71507575950825
 20
1.5
 30
0.0
 10
-59.63661482316269
 20
1.5
 30
0.0
 10
-59.55815388681714
 20
1.5
 30
0.0
 10
-59.49001653421887
 20
1.5
 30
0.0
 10
-59.421879181620604
 20
1.5
 30
0.0
 10
-59.36492227951277
 20
1.5
 30
0.0
 10
-59.30796537740491
 20
1.5
 30
0.0
 10
-59.26290519187867
 20
1.5
 30
0.0
 10
-59.217845006352434
 20
1.5
 30
0.0
 10
-59.1852481953853
 20
1.5
 30
0.0
 10
-59.15265138441817
 20
1.5
 30
0.0
 10
-59.13292787182118
 20
1.5
 30
0.0
 10
-59.11320435922419
 20
1.5
 30
0.0
 10
-59.106602179612096
 20
1.5
 30
0.0
 10
-59.1
 20
1.5
 30
0.0
  0
SPLINE
  5
72
330
17
100
AcDbEntity
  8
HIDDEN
100
AcDbSpline
 70
0
 71
1
 72
17
 73
15
 74
0
 40
0.0
 40
0.0
 40
0.07142857142857142
 40
0.14285714285714285
 40
0.21428571428571427
 40
0.2857142857142857
 40
0.35714285714285715
 40
0.42857142857142855
 40
0.5
 40
0.5714285714285714
 40
0.6428571428571429
 40
0.7142857142857143
 40
0.7857142857142857
 40
0.8571428571428571
 40
0.9285714285714286
 40
1.0
 40
1.0
 10
-59.1
 20
1.5
 30
0.0
 10
-59.15265138441817
 20
1.5
 30
0.0
 10
-59.30796537740491
 20
1.5
 30
0.0
 10
-59.55815388681714
 20
1.5
 30
0.0
 10
-59.890671416096666
 20
1.5
 30
0.0
 10
-60.28884414785314
 20
1.5
 30
0.0
 10
-60.732706038691745
 20
1.5
 30
0.0
 10
-61.2
 20
1.5
 30
0.0
 10
-61.66729396130826
 20
1.5
 30
0.0
 10
-62.11115585214688
 20
1.5
 30
0.0
 10
-62.50932858390334
 20
1.5
 30
0.0
 10
-62.84184611318287
 20
1.5
 30
0.0
 10
-63.09203462259508
 20
1.5
 30
0.0
 10
-63.247348615581835
 20
1.5
 30
0.0
 10
-63.300000000000004
 20
1.5
 30
0.0
  0
SPLINE
  5
73
330
17
100
AcDbEntity
  8
HIDDEN
100
AcDbSpline
 70
0
 71
2
 72
30
 73
27
 74
0
 40
0.0
 40
0.0
 40
0.0
 40
0.07142857142857142
 40
0.07142857142857142
 40
0.14285714285714285
 40
0.14285714285714285
 40
0.21428571428571427
 40
0.21428571428571427
 40
0.2857142857142857
 40
0.2857142857142857
 40
0.35714285714285715
 40
0.35714285714285715
 40
0.42857142857142855
 40
0.42857142857142855
 40
0.5
 40
0.5
 40
0.5714285714285714
 40
0.5714285714285714
 40
0.6428571428571429
 40
0.6428571428571429
 40
0.7142857142857143
 40
0.7142857142857143
 40
0.7857142857142857
 40
0.7857142857142857
 40
0.8571428571428571
 40
0.8571428571428571
 40
1.0
 40
1.0
 40
1.0
 10
-63.300000000000004
 20
1.5
 30
0.0
 10
-63.29339782038791
 20
1.4999999999999998
 30
0.0
 10
-63.286795640775814
 20
1.5
 30
0.0
 10
-63.26707212817882
 20
1.5
 30
0.0
 10
-63.24734861558184
 20
1.5
 30
0.0
 10
-63.21475180461469
 20
1.4999999999999998
 30
0.0
 10
-63.18215499364757
 20
1.5
 30
0.0
 10
-63.13709480812135
 20
1.5
 30
0.0
 10
-63.09203462259509
 20
1.5
 30
0.0
 10
-63.03507772048724
 20
1.4999999999999998
 30
0.0
 10
-62.97812081837941
 20
1.5
 30
0.0
 10
-62.90998346578113
 20
1.5
 30
0.0
 10
-62.84184611318287
 20
1.5
 30
0.0
 10
-62.76338517683731
 20
1.4999999999999998
 30
0.0
 10
-62.68492424049175
 20
1.5
 30
0.0
 10
-62.59712641219756
 20
1.5
 30
0.0
 10
-62.509328583903354
 20
1.5
 30
0.0
 10
-62.41329797229277
 20
1.4999999999999998
 30
0.0
 10
-62.31726736068221
 20
1.5
 30
0.0
 10
-62.214211606414544
 20
1.5
 30
0.0
 10
-62.111155852146865
 20
1.5
 30
0.0
 10
-62.00237094112636
 20
1.4999999999999998
 30
0.0
 10
-61.89358603010585
 20
1.5
 30
0.0
 10
-61.780439995707056
 20
1.5
 30
0.0
 10
-61.66729396130826
 20
1.5
 30
0.0
 10
-61.435954552789035
 20
1.5
 30
0.0
 10
-61.2
 20
1.5
 30
0.0
  0
SPLINE
  5
74
330
17
100
AcDbEntity
  8
HIDDEN
100
AcDbSpline
 70
0
 71
2
 72
30
 73
27
 74
0
 40
0.0
 40
0.0
 40
0.0
 40
0.1121997376282069
 40
0.1121997376282069
 40
0.3365992128846207
 40
0.3365992128846207
 40
0.4487989505128276
 40
0.4487989505128276
 40
0.5609986881410345
 40
0.5609986881410345
 40
0.6731984257692414
 40
0.6731984257692414
 40
0.7853981633974483
 40
0.7853981633974483
 40
0.8975979010256552
 40
0.8975979010256552
 40
1.009797638653862
 40
1.009797638653862
 40
1.121997376282069
 40
1.121997376282069
 40
1.2341971139102759
 40
1.2341971139102759
 40
1.3463968515384828
 40
1.3463968515384828
 40
1.4585965891666897
 40
1.4585965891666897
 40
1.5707963267948966
 40
1.5707963267948966
 40
1.5707963267948966
 10
-61.2
 20
1.5
 30
0.0
 10
-61.08243730009153
 20
1.5
 30
0.0
 10
-60.96487460018306
 20
1.5
 30
0.0
 10
-60.73105815982729
 20
1.5
 30
0.0
 10
-60.506413969894155
 20
1.5
 30
0.0
 10
-60.397629058873655
 20
1.5
 30
0.0
 10
-60.28884414785314
 20
1.5
 30
0.0
 10
-60.185788393585476
 20
1.5
 30
0.0
 10
-60.0827326393178
 20
1.5
 30
0.0
 10
-59.986702027707224
 20
1.5
 30
0.0
 10
-59.890671416096666
 20
1.5
 30
0.0
 10
-59.80287358780246
 20
1.5
 30
0.0
 10
-59.71507575950825
 20
1.5
 30
0.0
 10
-59.63661482316269
 20
1.5
 30
0.0
 10
-59.55815388681714
 20
1.5
 30
0.0
 10
-59.49001653421887
 20
1.5
 30
0.0
 10
-59.421879181620604
 20
1.5
 30
0.0
 10
-59.36492227951277
 20
1.5
 30
0.0
 10
-59.30796537740491
 20
1.5
 30
0.0
 10
-59.26290519187867
 20
1.5
 30
0.0
 10
-59.217845006352434
 20
1.5
 30
0.0
 10
-59.1852481953853
 20
1.5
 30
0.0
 10
-59.15265138441817
 20
1.5
 30
0.0
 10
-59.13292787182118
 20
1.5
 30
0.0
 10
-59.11320435922419
 20
1.5
 30
0.0
 10
-59.106602179612096
 20
1.5
 30
0.0
 10
-59.1
 20
1.5
 30
0.0
  0
SPLINE
  5
75
330
17
100
AcDbEntity
  8
HIDDEN
100
AcDbSpline
 70
0
 71
1
 72
17
 73
15
 74
0
 40
0.0
 40
0.0
 40
0.07142857142857142
 40
0.14285714285714285
 40
0.21428571428571427
 40
0.2857142857142857
 40
0.35714285714285715
 40
0.42857142857142855
 40
0.5
 40
0.5714285714285714
 40
0.6428571428571429
 40
0.7142857142857143
 40
0.7857142857142857
 40
0.8571428571428571
 40
0.9285714285714286
 40
1.0
 40
1.0
 10
-59.1
 20
1.5
 30
0.0
 10
-59.15265138441817
 20
1.5
 30
0.0
 10
-59.30796537740491
 20
1.5
 30
0.0
 10
-59.55815388681714
 20
1.5
 30
0.0
 10
-59.890671416096666
 20
1.5
 30
0.0
 10
-60.28884414785314
 20
1.5
 30
0.0
 10
-60.732706038691745
 20
1.5
 30
0.0
 10
-61.2
 20
1.5
 30
0.0
 10
-61.66729396130826
 20
1.5
 30
0.0
 10
-62.11115585214688
 20
1.5
 30
0.0
 10
-62.50932858390334
 20
1.5
 30
0.0
 10
-62.84184611318287
 20
1.5
 30
0.0
 10
-63.09203462259508
 20
1.5
 30
0.0
 10
-63.247348615581835
 20
1.5
 30
0.0
 10
-63.300000000000004
 20
1.5
 30
0.0
  0
SPLINE
  5
76
330
17
100
AcDbEntity
  8
HIDDEN
100
AcDbSpline
 70
0
 71
2
 72
30
 73
27
 74
0
 40
0.0
 40
0.0
 40
0.0
 40
0.07142857142857142
 40
0.07142857142857142
 40
0.14285714285714285
 40
0.14285714285714285
 40
0.21428571428571427
 40
0.21428571428571427
 40
0.2857142857142857
 40
0.2857142857142857
 40
0.35714285714285715
 40
0.35714285714285715
 40
0.42857142857142855
 40
0.42857142857142855
 40
0.5
 40
0.5
 40
0.5714285714285714
 40
0.5714285714285714
 40
0.6428571428571429
 40
0.6428571428571429
 40
0.7142857142857143
 40
0.7142857142857143
 40
0.7857142857142857
 40
0.7857142857142857
 40
0.8571428571428571
 40
0.8571428571428571
 40
1.0
 40
1.0
 40
1.0
 10
-63.300000000000004
 20
1.5
 30
0.0
 10
-63.29339782038791
 20
1.4999999999999998
 30
0.0
 10
-63.286795640775814
 20
1.5
 30
0.0
 10
-63.26707212817882
 20
1.5
 30
0.0
 10
-63.24734861558184
 20
1.5
 30
0.0
 10
-63.21475180461469
 20
1.4999999999999998
 30
0.0
 10
-63.18215499364757
 20
1.5
 30
0.0
 10
-63.13709480812135
 20
1.5
 30
0.0
 10
-63.09203462259509
 20
1.5
 30
0.0
 10
-63.03507772048724
 20
1.4999999999999998
 30
0.0
 10
-62.97812081837941
 20
1.5
 30
0.0
 10
-62.90998346578113
 20
1.5
 30
0.0
 10
-62.84184611318287
 20
1.5
 30
0.0
 10
-62.76338517683731
 20
1.4999999999999998
 30
0.0
 10
-62.68492424049175
 20
1.5
 30
0.0
 10
-62.59712641219756
 20
1.5
 30
0.0
 10
-62.509328583903354
 20
1.5
 30
0.0
 10
-62.41329797229277
 20
1.4999999999999998
 30
0.0
 10
-62.31726736068221
 20
1.5
 30
0.0
 10
-62.214211606414544
 20
1.5
 30
0.0
 10
-62.111155852146865
 20
1.5
 30
0.0
 10
-62.00237094112636
 20
1.4999999999999998
 30
0.0
 10
-61.89358603010585
 20
1.5
 30
0.0
 10
-61.780439995707056
 20
1.5
 30
0.0
 10
-61.66729396130826
 20
1.5
 30
0.0
 10
-61.435954552789035
 20
1.5
 30
0.0
 10
-61.2
 20
1.5
 30
0.0
  0
SPLINE
  5
77
330
17
100
AcDbEntity
  8
HIDDEN
100
AcDbSpline
 70
0
 71
2
 72
30
 73
27
 74
0
 40
0.0
 40
0.0
 40
0.0
 40
0.1121997376282069
 40
0.1121997376282069
 40
0.3365992128846207
 40
0.3365992128846207
 40
0.4487989505128276
 40
0.4487989505128276
 40
0.5609986881410345
 40
0.5609986881410345
 40
0.6731984257692414
 40
0.6731984257692414
 40
0.7853981633974483
 40
0.7853981633974483
 40
0.8975979010256552
 40
0.8975979010256552
 40
1.009797638653862
 40
1.009797638653862
 40
1.121997376282069
 40
1.121997376282069
 40
1.2341971139102759
 40
1.2341971139102759
 40
1.3463968515384828
 40
1.3463968515384828
 40
1.4585965891666897
 40
1.4585965891666897
 40
1.5707963267948966
 40
1.5707963267948966
 40
1.5707963267948966
 10
61.2
 20
1.5
 30
0.0
 10
61.31756269990849
 20
1.5
 30
0.0
 10
61.43512539981695
 20
1.5
 30
0.0
 10
61.668941840172714
 20
1.5
 30
0.0
 10
61.89358603010585
 20
1.5
 30
0.0
 10
62.002370941126365
 20
1.5
 30
0.0
 10
62.111155852146865
 20
1.5
 30
0.0
 10
62.214211606414544
 20
1.5
 30
0.0
 10
62.31726736068221
 20
1.5
 30
0.0
 10
62.41329797229277
 20
1.5
 30
0.0
 10
62.50932858390334
 20
1.5
 30
0.0
 10
62.59712641219755
 20
1.5
 30
0.0
 10
62.68492424049175
 20
1.5
 30
0.0
 10
62.7633851768373
 20
1.5
 30
0.0
 10
62.84184611318287
 20
1.5
 30
0.0
 10
62.90998346578114
 20
1.5
 30
0.0
 10
62.9781208183794
 20
1.5
 30
0.0
 10
63.03507772048724
 20
1.5
 30
0.0
 10
63.092034622595094
 20
1.5
 30
0.0
 10
63.13709480812133
 20
1.5
 30
0.0
 10
63.18215499364757
 20
1.5
 30
0.0
 10
63.21475180461471
 20
1.5
 30
0.0
 10
63.247348615581835
 20
1.5
 30
0.0
 10
63.267072128178825
 20
1.5
 30
0.0
 10
63.286795640775814
 20
1.5
 30
0.0
 10
63.29339782038791
 20
1.5
 30
0.0
 10
63.300000000000004
 20
1.5
 30
0.0
  0
SPLINE
  5
78
330
17
100
AcDbEntity
  8
HIDDEN
100
AcDbSpline
 70
0
 71
1
 72
17
 73
15
 74
0
 40
0.0
 40
0.0
 40
0.07142857142857142
 40
0.14285714285714285
 40
0.21428571428571427
 40
0.2857142857142857
 40
0.35714285714285715
 40
0.42857142857142855
 40
0.5
 40
0.5714285714285714
 40
0.6428571428571429
 40
0.7142857142857143
 40
0.7857142857142857
 40
0.8571428571428571
 40
0.9285714285714286
 40
1.0
 40
1.0
 10
63.300000000000004
 20
1.5
 30
0.0
 10
63.247348615581835
 20
1.5
 30
0.0
 10
63.092034622595094
 20
1.5
 30
0.0
 10
62.84184611318287
 20
1.5
 30
0.0
 10
62.50932858390334
 20
1.5
 30
0.0
 10
62.111155852146865
 20
1.5
 30
0.0
 10
61.66729396130826
 20
1.5
 30
0.0
 10
61.2
 20
1.5
 30
0.0
 10
60.732706038691745
 20
1.5
 30
0.0
 10
60.288844147853126
 20
1.5
 30
0.0
 10
59.890671416096666
 20
1.5
 30
0.0
 10
59.55815388681714
 20
1.5
 30
0.0
 10
59.307965377404926
 20
1.5
 30
0.0
 10
59.15265138441817
 20
1.5
 30
0.0
 10
59.1
 20
1.5
 30
0.0
  0
SPLINE
  5
79
330
17
100
AcDbEntity
  8
HIDDEN
100
AcDbSpline
 70
0
 71
2
 72
30
 73
27
 74
0
 40
0.0
 40
0.0
 40
0.0
 40
0.07142857142857142
 40
0.07142857142857142
 40
0.14285714285714285
 40
0.14285714285714285
 40
0.21428571428571427
 40
0.21428571428571427
 40
0.2857142857142857
 40
0.2857142857142857
 40
0.35714285714285715
 40
0.35714285714285715
 40
0.42857142857142855
 40
0.42857142857142855
 40
0.5
 40
0.5
 40
0.5714285714285714
 40
0.5714285714285714
 40
0.6428571428571429
 40
0.6428571428571429
 40
0.7142857142857143
 40
0.7142857142857143
 40
0.7857142857142857
 40
0.7857142857142857
 40
0.8571428571428571
 40
0.8571428571428571
 40
1.0
 40
1.0
 40
1.0
 10
59.1
 20
1.5
 30
0.0
 10
59.106602179612096
 20
1.4999999999999998
 30
0.0
 10
59.11320435922419
 20
1.5
 30
0.0
 10
59.13292787182119
 20
1.5
 30
0.0
 10
59.152651384418164
 20
1.5
 30
0.0
 10
59.1852481953853
 20
1.4999999999999998
 30
0.0
 10
59.217845006352434
 20
1.5
 30
0.0
 10
59.262905191878666
 20
1.5
 30
0.0
 10
59.30796537740492
 20
1.5
 30
0.0
 10
59.364922279512754
 20
1.4999999999999998
 30
0.0
 10
59.4218791816206
 20
1.5
 30
0.0
 10
59.49001653421886
 20
1.5
 30
0.0
 10
59.55815388681714
 20
1.5
 30
0.0
 10
59.63661482316268
 20
1.4999999999999998
 30
0.0
 10
59.71507575950825
 20
1.5
 30
0.0
 10
59.80287358780245
 20
1.5
 30
0.0
 10
59.89067141609665
 20
1.5
 30
0.0
 10
59.986702027707224
 20
1.4999999999999998
 30
0.0
 10
60.0827326393178
 20
1.5
 30
0.0
 10
60.18578839358546
 20
1.5
 30
0.0
 10
60.28884414785314
 20
1.5
 30
0.0
 10
60.39762905887365
 20
1.4999999999999998
 30
0.0
 10
60.506413969894155
 20
1.5
 30
0.0
 10
60.61956000429296
 20
1.5
 30
0.0
 10
60.732706038691745
 20
1.5
 30
0.0
 10
60.964045447210985
 20
1.5
 30
0.0
 10
61.2
 20
1.5
 30
0.0
  0
LINE
  5
7A
330
17
100
AcDbEntity
  8
HIDDEN
100
AcDbLine
 10
19.800000000000004
 20
1.5
 30
0.0
 11
-19.8
 21
1.5
 31
0.0
  0
LINE
  5
7B
330
17
100
AcDbEntity
  8
HIDDEN
100
AcDbLine
 10
19.800000000000004
 20
1.5
 30
0.0
 11
-19.8
 21
1.5
 31
0.0
  0
LINE
  5
7C
330
17
100
AcDbEntity
  8
HIDDEN
100
AcDbLine
 10
19.800000000000004
 20
1.5
 30
0.0
 11
-19.8
 21
1.5
 31
0.0
  0
LINE
  5
7D
330
17
100
AcDbEntity
  8
HIDDEN
100
AcDbLine
 10
19.800000000000004
 20
1.5
 30
0.0
 11
-19.8
 21
1.5
 31
0.0
  0
LINE
  5
7E
330
17
100
AcDbEntity
  8
HIDDEN
100
AcDbLine
 10
19.800000000000004
 20
1.5
 30
0.0
 11
-19.8
 21
1.5
 31
0.0
  0
LINE
  5
7F
330
17
100
AcDbEntity
  8
HIDDEN
100
AcDbLine
 10
19.800000000000004
 20
1.5
 30
0.0
 11
-19.8
 21
1.5
 31
0.0
  0
LINE
  5
80
330
17
100
AcDbEntity
  8
HIDDEN
100
AcDbLine
 10
19.800000000000004
 20
1.5
 30
0.0
 11
-19.8
 21
1.5
 31
0.0
  0
LINE
  5
81
330
17
100
AcDbEntity
  8
HIDDEN
100
AcDbLine
 10
19.800000000000004
 20
1.5
 30
0.0
 11
-19.8
 21
1.5
 31
0.0
  0
LINE
  5
82
330
17
100
AcDbEntity
  8
HIDDEN
100
AcDbLine
 10
19.800000000000004
 20
1.5
 30
0.0
 11
-19.8
 21
1.5
 31
0.0
  0
LINE
  5
83
330
17
100
AcDbEntity
  8
HIDDEN
100
AcDbLine
 10
19.800000000000004
 20
1.5
 30
0.0
 11
-19.8
 21
1.5
 31
0.0
  0
LINE
  5
84
330
17
100
AcDbEntity
  8
HIDDEN
100
AcDbLine
 10
19.800000000000004
 20
1.5
 30
0.0
 11
-19.8
 21
1.5
 31
0.0
  0
LINE
  5
85
330
17
100
AcDbEntity
  8
HIDDEN
100
AcDbLine
 10
19.800000000000004
 20
1.5
 30
0.0
 11
-19.8
 21
1.5
 31
0.0
  0
SPLINE
  5
86
330
17
100
AcDbEntity
  8
HIDDEN
100
AcDbSpline
 70
0
 71
2
 72
30
 73
27
 74
0
 40
0.0
 40
0.0
 40
0.0
 40
0.1121997376282069
 40
0.1121997376282069
 40
0.3365992128846207
 40
0.3365992128846207
 40
0.4487989505128276
 40
0.4487989505128276
 40
0.5609986881410345
 40
0.5609986881410345
 40
0.6731984257692414
 40
0.6731984257692414
 40
0.7853981633974483
 40
0.7853981633974483
 40
0.8975979010256552
 40
0.8975979010256552
 40
1.009797638653862
 40
1.009797638653862
 40
1.121997376282069
 40
1.121997376282069
 40
1.2341971139102759
 40
1.2341971139102759
 40
1.3463968515384828
 40
1.3463968515384828
 40
1.4585965891666897
 40
1.4585965891666897
 40
1.5707963267948966
 40
1.5707963267948966
 40
1.5707963267948966
 10
61.2
 20
1.5
 30
0.0
 10
61.31756269990849
 20
1.5
 30
0.0
 10
61.43512539981695
 20
1.5
 30
0.0
 10
61.668941840172714
 20
1.5
 30
0.0
 10
61.89358603010585
 20
1.5
 30
0.0
 10
62.002370941126365
 20
1.5
 30
0.0
 10
62.111155852146865
 20
1.5
 30
0.0
 10
62.214211606414544
 20
1.5
 30
0.0
 10
62.31726736068221
 20
1.5
 30
0.0
 10
62.41329797229277
 20
1.5
 30
0.0
 10
62.50932858390334
 20
1.5
 30
0.0
 10
62.59712641219755
 20
1.5
 30
0.0
 10
62.68492424049175
 20
1.5
 30
0.0
 10
62.7633851768373
 20
1.5
 30
0.0
 10
62.84184611318287
 20
1.5
 30
0.0
 10
62.90998346578114
 20
1.5
 30
0.0
 10
62.9781208183794
 20
1.5
 30
0.0
 10
63.03507772048724
 20
1.5
 30
0.0
 10
63.092034622595094
 20
1.5
 30
0.0
 10
63.13709480812133
 20
1.5
 30
0.0
 10
63.18215499364757
 20
1.5
 30
0.0
 10
63.21475180461471
 20
1.5
 30
0.0
 10
63.247348615581835
 20
1.5
 30
0.0
 10
63.267072128178825
 20
1.5
 30
0.0
 10
63.286795640775814
 20
1.5
 30
0.0
 10
63.29339782038791
 20
1.5
 30
0.0
 10
63.300000000000004
 20
1.5
 30
0.0
  0
SPLINE
  5
87
330
17
100
AcDbEntity
  8
HIDDEN
100
AcDbSpline
 70
0
 71
1
 72
17
 73
15
 74
0
 40
0.0
 40
0.0
 40
0.07142857142857142
 40
0.14285714285714285
 40
0.21428571428571427
 40
0.2857142857142857
 40
0.35714285714285715
 40
0.42857142857142855
 40
0.5
 40
0.5714285714285714
 40
0.6428571428571429
 40
0.7142857142857143
 40
0.7857142857142857
 40
0.8571428571428571
 40
0.9285714285714286
 40
1.0
 40
1.0
 10
63.300000000000004
 20
1.5
 30
0.0
 10
63.247348615581835
 20
1.5
 30
0.0
 10
63.092034622595094
 20
1.5
 30
0.0
 10
62.84184611318287
 20
1.5
 30
0.0
 10
62.50932858390334
 20
1.5
 30
0.0
 10
62.111155852146865
 20
1.5
 30
0.0
 10
61.66729396130826
 20
1.5
 30
0.0
 10
61.2
 20
1.5
 30
0.0
 10
60.732706038691745
 20
1.5
 30
0.0
 10
60.288844147853126
 20
1.5
 30
0.0
 10
59.890671416096666
 20
1.5
 30
0.0
 10
59.55815388681714
 20
1.5
 30
0.0
 10
59.307965377404926
 20
1.5
 30
0.0
 10
59.15265138441817
 20
1.5
 30
0.0
 10
59.1
 20
1.5
 30
0.0
  0
SPLINE
  5
88
330
17
100
AcDbEntity
  8
HIDDEN
100
AcDbSpline
 70
0
 71
2
 72
30
 73
27
 74
0
 40
0.0
 40
0.0
 40
0.0
 40
0.07142857142857142
 40
0.07142857142857142
 40
0.14285714285714285
 40
0.14285714285714285
 40
0.21428571428571427
 40
0.21428571428571427
 40
0.2857142857142857
 40
0.2857142857142857
 40
0.35714285714285715
 40
0.35714285714285715
 40
0.42857142857142855
 40
0.42857142857142855
 40
0.5
 40
0.5
 40
0.5714285714285714
 40
0.5714285714285714
 40
0.6428571428571429
 40
0.6428571428571429
 40
0.7142857142857143
 40
0.7142857142857143
 40
0.7857142857142857
 40
0.7857142857142857
 40
0.8571428571428571
 40
0.8571428571428571
 40
1.0
 40
1.0
 40
1.0
 10
59.1
 20
1.5
 30
0.0
 10
59.106602179612096
 20
1.4999999999999998
 30
0.0
 10
59.11320435922419
 20
1.5
 30
0.0
 10
59.13292787182119
 20
1.5
 30
0.0
 10
59.152651384418164
 20
1.5
 30
0.0
 10
59.1852481953853
 20
1.4999999999999998
 30
0.0
 10
59.217845006352434
 20
1.5
 30
0.0
 10
59.262905191878666
 20
1.5
 30
0.0
 10
59.30796537740492
 20
1.5
 30
0.0
 10
59.364922279512754
 20
1.4999999999999998
 30
0.0
 10
59.4218791816206
 20
1.5
 30
0.0
 10
59.49001653421886
 20
1.5
 30
0.0
 10
59.55815388681714
 20
1.5
 30
0.0
 10
59.63661482316268
 20
1.4999999999999998
 30
0.0
 10
59.71507575950825
 20
1.5
 30
0.0
 10
59.80287358780245
 20
1.5
 30
0.0
 10
59.89067141609665
 20
1.5
 30
0.0
 10
59.986702027707224
 20
1.4999999999999998
 30
0.0
 10
60.0827326393178
 20
1.5
 30
0.0
 10
60.18578839358546
 20
1.5
 30
0.0
 10
60.28884414785314
 20
1.5
 30
0.0
 10
60.39762905887365
 20
1.4999999999999998
 30
0.0
 10
60.506413969894155
 20
1.5
 30
0.0
 10
60.61956000429296
 20
1.5
 30
0.0
 10
60.732706038691745
 20
1.5
 30
0.0
 10
60.964045447210985
 20
1.5
 30
0.0
 10
61.2
 20
1.5
 30
0.0
  0
SPLINE
  5
89
330
17
100
AcDbEntity
  8
HIDDEN
100
AcDbSpline
 70
0
 71
1
 72
4
 73
2
 74
0
 40
0.0
 40
0.0
 40
1.0
 40
1.0
 10
55.619769450473335
 20
-1.5
 30
0.0
 10
54.44879698484425
 20
1.5
 30
0.0
  0
SPLINE
  5
8A
330
17
100
AcDbEntity
  8
HIDDEN
100
AcDbSpline
 70
0
 71
1
 72
4
 73
2
 74
0
 40
0.0
 40
0.0
 40
1.0
 40
1.0
 10
81.60535049662124
 20
-1.5
 30
0.0
 10
79.82488428382273
 20
1.5
 30
0.0
  0
SPLINE
  5
8B
330
17
100
AcDbEntity
  8
HIDDEN
100
AcDbSpline
 70
0
 71
1
 72
4
 73
2
 74
0
 40
0.0
 40
0.0
 40
1.0
 40
1.0
 10
82.80000000000001
 20
-1.5
 30
0.0
 10
81.0
 20
1.5
 30
0.0
  0
LINE
  5
8C
330
17
100
AcDbEntity
  8
HIDDEN
100
AcDbLine
 10
19.8
 20
-1.5
 30
0.0
 11
19.8
 21
1.5
 31
0.0
  0
LINE
  5
8D
330
17
100
AcDbEntity
  8
HIDDEN
100
AcDbLine
 10
19.8
 20
-1.5
 30
0.0
 11
19.8
 21
1.5
 31
0.0
  0
LINE
  5
8E
330
17
100
AcDbEntity
  8
HIDDEN
100
AcDbLine
 10
-19.8
 20
-1.5
 30
0.0
 11
-19.8
 21
1.5
 31
0.0
  0
LINE
  5
8F
330
17
100
AcDbEntity
  8
HIDDEN
100
AcDbLine
 10
-19.8
 20
-1.5
 30
0.0
 11
-19.8
 21
1.5
 31
0.0
  0
LINE
  5
90
330
17
100
AcDbEntity
  8
HIDDEN
100
AcDbLine
 10
19.8
 20
-1.5
 30
0.0
 11
19.8
 21
1.5
 31
0.0
  0
LINE
  5
91
330
17
100
AcDbEntity
  8
HIDDEN
100
AcDbLine
 10
19.8
 20
-1.5
 30
0.0
 11
19.8
 21
1.5
 31
0.0
  0
LINE
  5
92
330
17
100
AcDbEntity
  8
HIDDEN
100
AcDbLine
 10
-19.8
 20
-1.5
 30
0.0
 11
-19.8
 21
1.5
 31
0.0
  0
LINE
  5
93
330
17
100
AcDbEntity
  8
HIDDEN
100
AcDbLine
 10
-19.8
 20
-1.5
 30
0.0
 11
-19.8
 21
1.5
 31
0.0
  0
LINE
  5
94
330
17
100
AcDbEntity
  8
HIDDEN
100
AcDbLine
 10
19.8
 20
-1.5
 30
0.0
 11
19.8
 21
1.5
 31
0.0
  0
LINE
  5
95
330
17
100
AcDbEntity
  8
HIDDEN
100
AcDbLine
 10
19.8
 20
-1.5
 30
0.0
 11
19.8
 21
1.5
 31
0.0
  0
LINE
  5
96
330
17
100
AcDbEntity
  8
HIDDEN
100
AcDbLine
 10
-19.8
 20
-1.5
 30
0.0
 11
-19.8
 21
1.5
 31
0.0
  0
LINE
  5
97
330
17
100
AcDbEntity
  8
HIDDEN
100
AcDbLine
 10
-19.8
 20
-1.5
 30
0.0
 11
-19.8
 21
1.5
 31
0.0
  0
LINE
  5
98
330
17
100
AcDbEntity
  8
HIDDEN
100
AcDbLine
 10
19.8
 20
-1.5
 30
0.0
 11
19.8
 21
1.5
 31
0.0
  0
LINE
  5
99
330
17
100
AcDbEntity
  8
HIDDEN
100
AcDbLine
 10
19.8
 20
-1.5
 30
0.0
 11
19.8
 21
1.5
 31
0.0
  0
LINE
  5
9A
330
17
100
AcDbEntity
  8
HIDDEN
100
AcDbLine
 10
-19.8
 20
-1.5
 30
0.0
 11
-19.8
 21
1.5
 31
0.0
  0
LINE
  5
9B
330
17
100
AcDbEntity
  8
HIDDEN
100
AcDbLine
 10
-19.8
 20
-1.5
 30
0.0
 11
-19.8
 21
1.5
 31
0.0
  0
LINE
  5
9C
330
17
100
AcDbEntity
  8
HIDDEN
100
AcDbLine
 10
19.8
 20
-1.5
 30
0.0
 11
19.8
 21
1.5
 31
0.0
  0
LINE
  5
9D
330
17
100
AcDbEntity
  8
HIDDEN
100
AcDbLine
 10
19.8
 20
-1.5
 30
0.0
 11
19.8
 21
1.5
 31
0.0
  0
LINE
  5
9E
330
17
100
AcDbEntity
  8
HIDDEN
100
AcDbLine
 10
-19.8
 20
-1.5
 30
0.0
 11
-19.8
 21
1.5
 31
0.0
  0
LINE
  5
9F
330
17
100
AcDbEntity
  8
HIDDEN
100
AcDbLine
 10
-19.8
 20
-1.5
 30
0.0
 11
-19.8
 21
1.5
 31
0.0
  0
LINE
  5
A0
330
17
100
AcDbEntity
  8
HIDDEN
100
AcDbLine
 10
19.8
 20
-1.5
 30
0.0
 11
19.8
 21
1.5
 31
0.0
  0
LINE
  5
A1
330
17
100
AcDbEntity
  8
HIDDEN
100
AcDbLine
 10
19.8
 20
-1.5
 30
0.0
 11
19.8
 21
1.5
 31
0.0
  0
LINE
  5
A2
330
17
100
AcDbEntity
  8
HIDDEN
100
AcDbLine
 10
-19.8
 20
-1.5
 30
0.0
 11
-19.8
 21
1.5
 31
0.0
  0
LINE
  5
A3
330
17
100
AcDbEntity
  8
HIDDEN
100
AcDbLine
 10
-19.8
 20
-1.5
 30
0.0
 11
-19.8
 21
1.5
 31
0.0
  0
LINE
  5
A4
330
17
100
AcDbEntity
  8
HIDDEN
100
AcDbLine
 10
-59.1
 20
-1.5
 30
0.0
 11
-59.1
 21
1.5
 31
0.0
  0
LINE
  5
A5
330
17
100
AcDbEntity
  8
HIDDEN
100
AcDbLine
 10
-63.300000000000004
 20
-1.5
 30
0.0
 11
-63.300000000000004
 21
1.5
 31
0.0
  0
LINE
  5
A6
330
17
100
AcDbEntity
  8
HIDDEN
100
AcDbLine
 10
-59.1
 20
-1.5
 30
0.0
 11
-59.1
 21
1.5
 31
0.0
  0
LINE
  5
A7
330
17
100
AcDbEntity
  8
HIDDEN
100
AcDbLine
 10
-63.300000000000004
 20
-1.5
 30
0.0
 11
-63.300000000000004
 21
1.5
 31
0.0
  0
LINE
  5
A8
330
17
100
AcDbEntity
  8
HIDDEN
100
AcDbLine
 10
63.300000000000004
 20
-1.5
 30
0.0
 11
63.300000000000004
 21
1.5
 31
0.0
  0
LINE
  5
A9
330
17
100
AcDbEntity
  8
HIDDEN
100
AcDbLine
 10
59.1
 20
-1.5
 30
0.0
 11
59.1
 21
1.5
 31
0.0
  0
LINE
  5
AA
330
17
100
AcDbEntity
  8
HIDDEN
100
AcDbLine
 10
63.300000000000004
 20
-1.5
 30
0.0
 11
63.300000000000004
 21
1.5
 31
0.0
  0
LINE
  5
AB
330
17
100
AcDbEntity
  8
HIDDEN
100
AcDbLine
 10
59.1
 20
-1.5
 30
0.0
 11
59.1
 21
1.5
 31
0.0
  0
SPLINE
  5
AC
330
17
100
AcDbEntity
  8
HIDDEN
100
AcDbSpline
 70
0
 71
1
 72
4
 73
2
 74
0
 40
0.0
 40
0.0
 40
1.0
 40
1.0
 10
-50.81441895385202
 20
-1.5
 30
0.0
 10
-49.62391270102149
 20
1.5
 30
0.0
  0
SPLINE
  5
AD
330
17
100
AcDbEntity
  8
HIDDEN
100
AcDbSpline
 70
0
 71
1
 72
4
 73
2
 74
0
 40
0.0
 40
0.0
 40
1.0
 40
1.0
 10
50.814418953852055
 20
-1.5
 30
0.0
 10
49.62391270102152
 20
1.5
 30
0.0
  0
ENDSEC
  0
SECTION
  2
OBJECTS
  0
DICTIONARY
  5
A
330
0
100
AcDbDictionary
281
1
  3
ACAD_COLOR
350
B
  3
ACAD_GROUP
350
C
  3
ACAD_LAYOUT
350
D
  3
ACAD_MATERIAL
350
E
  3
ACAD_MLEADERSTYLE
350
F
  3
ACAD_MLINESTYLE
350
10
  3
ACAD_PLOTSETTINGS
350
11
  3
ACAD_PLOTSTYLENAME
350
12
  3
ACAD_SCALELIST
350
14
  3
ACAD_TABLESTYLE
350
15
  3
ACAD_VISUALSTYLE
350
16
  3
EZDXF_META
350
2D
  0
DICTIONARY
  5
B
330
A
100
AcDbDictionary
281
1
  0
DICTIONARY
  5
C
330
A
100
AcDbDictionary
281
1
  0
DICTIONARY
  5
D
330
A
100
AcDbDictionary
281
1
  3
Model
350
1A
  3
Layout1
350
1E
  0
DICTIONARY
  5
E
330
A
100
AcDbDictionary
281
1
  3
ByBlock
350
1F
  3
ByLayer
350
20
  3
Global
350
21
  0
DICTIONARY
  5
F
330
A
100
AcDbDictionary
281
1
  3
Standard
350
2C
  0
DICTIONARY
  5
10
330
A
100
AcDbDictionary
281
1
  3
Standard
350
22
  0
DICTIONARY
  5
11
330
A
100
AcDbDictionary
281
1
  0
ACDBDICTIONARYWDFLT
  5
12
330
A
100
AcDbDictionary
281
1
  3
Normal
350
13
100
AcDbDictionaryWithDefault
340
13
  0
ACDBPLACEHOLDER
  5
13
330
12
  0
DICTIONARY
  5
14
330
A
100
AcDbDictionary
281
1
  0
DICTIONARY
  5
15
330
A
100
AcDbDictionary
281
1
  0
DICTIONARY
  5
16
330
A
100
AcDbDictionary
281
1
  0
LAYOUT
  5
1A
330
D
100
AcDbPlotSettings
  1

  4
A3
  6

 40
7.5
 41
20.0
 42
7.5
 43
20.0
 44
420.0
 45
297.0
 46
0.0
 47
0.0
 48
0.0
 49
0.0
140
0.0
141
0.0
142
1.0
143
1.0
 70
1024
 72
1
 73
0
 74
5
  7

 75
16
 76
0
 77
2
 78
300
147
1.0
148
0.0
149
0.0
100
AcDbLayout
  1
Model
 70
1
 71
0
 10
0.0
 20
0.0
 11
420.0
 21
297.0
 12
0.0
 22
0.0
 32
0.0
 14
1e+20
 24
1e+20
 34
1e+20
 15
-1e+20
 25
-1e+20
 35
-1e+20
146
0.0
 13
0.0
 23
0.0
 33
0.0
 16
1.0
 26
0.0
 36
0.0
 17
0.0
 27
1.0
 37
0.0
 76
1
330
17
  0
LAYOUT
  5
1E
330
D
100
AcDbPlotSettings
  1

  4
A3
  6

 40
7.5
 41
20.0
 42
7.5
 43
20.0
 44
420.0
 45
297.0
 46
0.0
 47
0.0
 48
0.0
 49
0.0
140
0.0
141
0.0
142
1.0
143
1.0
 70
0
 72
1
 73
0
 74
5
  7

 75
16
 76
0
 77
2
 78
300
147
1.0
148
0.0
149
0.0
100
AcDbLayout
  1
Layout1
 70
1
 71
1
 10
0.0
 20
0.0
 11
420.0
 21
297.0
 12
0.0
 22
0.0
 32
0.0
 14
1e+20
 24
1e+20
 34
1e+20
 15
-1e+20
 25
-1e+20
 35
-1e+20
146
0.0
 13
0.0
 23
0.0
 33
0.0
 16
1.0
 26
0.0
 36
0.0
 17
0.0
 27
1.0
 37
0.0
 76
1
330
1B
  0
MATERIAL
  5
1F
102
{ACAD_REACTORS
330
E
102
}
330
E
100
AcDbMaterial
  1
ByBlock
  2

 70
0
 40
1.0
 71
1
 41
1.0
 91
-1023410177
 42
1.0
 72
1
  3

 73
1
 74
1
 75
1
 44
0.5
 73
0
 45
1.0
 46
1.0
 77
1
  4

 78
1
 79
1
170
1
 48
1.0
171
1
  6

172
1
173
1
174
1
140
1.0
141
1.0
175
1
  7

176
1
177
1
178
1
143
1.0
179
1
  8

270
1
271
1
272
1
145
1.0
146
1.0
273
1
  9

274
1
275
1
276
1
 42
1.0
 72
1
  3

 73
1
 74
1
 75
1
 94
63
  0
MATERIAL
  5
20
102
{ACAD_REACTORS
330
E
102
}
330
E
100
AcDbMaterial
  1
ByLayer
  2

 70
0
 40
1.0
 71
1
 41
1.0
 91
-1023410177
 42
1.0
 72
1
  3

 73
1
 74
1
 75
1
 44
0.5
 73
0
 45
1.0
 46
1.0
 77
1
  4

 78
1
 79
1
170
1
 48
1.0
171
1
  6

172
1
173
1
174
1
140
1.0
141
1.0
175
1
  7

176
1
177
1
178
1
143
1.0
179
1
  8

270
1
271
1
272
1
145
1.0
146
1.0
273
1
  9

274
1
275
1
276
1
 42
1.0
 72
1
  3

 73
1
 74
1
 75
1
 94
63
  0
MATERIAL
  5
21
102
{ACAD_REACTORS
330
E
102
}
330
E
100
AcDbMaterial
  1
Global
  2

 70
0
 40
1.0
 71
1
 41
1.0
 91
-1023410177
 42
1.0
 72
1
  3

 73
1
 74
1
 75
1
 44
0.5
 73
0
 45
1.0
 46
1.0
 77
1
  4

 78
1
 79
1
170
1
 48
1.0
171
1
  6

172
1
173
1
174
1
140
1.0
141
1.0
175
1
  7

176
1
177
1
178
1
143
1.0
179
1
  8

270
1
271
1
272
1
145
1.0
146
1.0
273
1
  9

274
1
275
1
276
1
 42
1.0
 72
1
  3

 73
1
 74
1
 75
1
 94
63
  0
MLINESTYLE
  5
22
102
{ACAD_REACTORS
330
10
102
}
330
10
100
AcDbMlineStyle
  2
Standard
 70
0
  3

 62
256
 51
90.0
 52
90.0
 71
2
 49
0.5
 62
256
  6
BYLAYER
 49
-0.5
 62
256
  6
BYLAYER
  0
MLEADERSTYLE
  5
2C
102
{ACAD_REACTORS
330
F
102
}
330
F
100
AcDbMLeaderStyle
179
2
170
2
171
1
172
0
 90
2
 40
0.0
 41
0.0
173
1
 91
-1056964608
 92
-2
290
1
 42
2.0
291
1
 43
8.0
  3
Standard
 44
4.0
300

342
29
174
1
175
1
176
0
178
1
 93
-1056964608
 45
4.0
292
0
297
0
 46
4.0
 94
-1056964608
 47
1.0
 49
1.0
140
1.0
294
1
141
0.0
177
0
142
1.0
295
0
296
0
143
3.75
271
0
272
9
273
9
  0
DICTIONARY
  5
2D
330
A
100
AcDbDictionary
280
1
281
1
  3
CREATED_BY_EZDXF
350
2E
  3
WRITTEN_BY_EZDXF
350
B1
  0
DICTIONARYVAR
  5
2E
330
2D
100
DictionaryVariables
280
0
  1
1.4.4 @ 2026-10-05T07:37:21.339715+00:00
  0
DICTIONARYVAR
  5
B1
330
2D
100
DictionaryVariables
280
0
  1
1.4.4 @ 2026-10-05T07:37:21.751937+00:00
  0
ENDSEC
  0
EOF
