  0
SECTION
  2
HEADER
  9
$ACADVER
  1
AC1027
  9
$ACADMAINTVER
 70
105
  9
$DWGCODEPAGE
  3
ANSI_1252
  9
$LASTSAVEDBY
  1
ezdxf
  9
$REQUIREDVERSIONS
160
0
  9
$INSBASE
 10
0.0
 20
0.0
 30
0.0
  9
$EXTMIN
 10
1e+20
 20
1e+20
 30
1e+20
  9
$EXTMAX
 10
-1e+20
 20
-1e+20
 30
-1e+20
  9
$LIMMIN
 10
0.0
 20
0.0
  9
$LIMMAX
 10
420.0
 20
297.0
  9
$ORTHOMODE
 70
0
  9
$REGENMODE
 70
1
  9
$FILLMODE
 70
1
  9
$QTEXTMODE
 70
0
  9
$MIRRTEXT
 70
1
  9
$LTSCALE
 40
1.0
  9
$ATTMODE
 70
1
  9
$TEXTSIZE
 40
2.5
  9
$TRACEWID
 40
1.0
  9
$TEXTSTYLE
  7
Standard
  9
$CLAYER
  8
0
  9
$CELTYPE
  6
ByLayer
  9
$CECOLOR
 62
256
  9
$CELTSCALE
 40
1.0
  9
$DISPSILH
 70
0
  9
$DIMSCALE
 40
1.0
  9
$DIMASZ
 40
2.5
  9
$DIMEXO
 40
0.625
  9
$DIMDLI
 40
3.75
  9
$DIMRND
 40
0.0
  9
$DIMDLE
 40
0.0
  9
$DIMEXE
 40
1.25
  9
$DIMTP
 40
0.0
  9
$DIMTM
 40
0.0
  9
$DIMTXT
 40
2.5
  9
$DIMCEN
 40
2.5
  9
$DIMTSZ
 40
0.0
  9
$DIMTOL
 70
0
  9
$DIMLIM
 70
0
  9
$DIMTIH
 70
0
  9
$DIMTOH
 70
0
  9
$DIMSE1
 70
0
  9
$DIMSE2
 70
0
  9
$DIMTAD
 70
1
  9
$DIMZIN
 70
8
  9
$DIMBLK
  1

  9
$DIMASO
 70
1
  9
$DIMSHO
 70
1
  9
$DIMPOST
  1

  9
$DIMAPOST
  1

  9
$DIMALT
 70
0
  9
$DIMALTD
 70
3
  9
$DIMALTF
 40
0.03937007874
  9
$DIMLFAC
 40
1.0
  9
$DIMTOFL
 70
1
  9
$DIMTVP
 40
0.0
  9
$DIMTIX
 70
0
  9
$DIMSOXD
 70
0
  9
$DIMSAH
 70
0
  9
$DIMBLK1
  1

  9
$DIMBLK2
  1

  9
$DIMSTYLE
  2
ISO-25
  9
$DIMCLRD
 70
0
  9
$DIMCLRE
 70
0
  9
$DIMCLRT
 70
0
  9
$DIMTFAC
 40
1.0
  9
$DIMGAP
 40
0.625
  9
$DIMJUST
 70
0
  9
$DIMSD1
 70
0
  9
$DIMSD2
 70
0
  9
$DIMTOLJ
 70
0
  9
$DIMTZIN
 70
8
  9
$DIMALTZ
 70
0
  9
$DIMALTTZ
 70
0
  9
$DIMUPT
 70
0
  9
$DIMDEC
 70
2
  9
$DIMTDEC
 70
2
  9
$DIMALTU
 70
2
  9
$DIMALTTD
 70
3
  9
$DIMTXSTY
  7
Standard
  9
$DIMAUNIT
 70
0
  9
$DIMADEC
 70
0
  9
$DIMALTRND
 40
0.0
  9
$DIMAZIN
 70
0
  9
$DIMDSEP
 70
44
  9
$DIMATFIT
 70
3
  9
$DIMFRAC
 70
0
  9
$DIMLDRBLK
  1

  9
$DIMLUNIT
 70
2
  9
$DIMLWD
 70
-2
  9
$DIMLWE
 70
-2
  9
$DIMTMOVE
 70
0
  9
$DIMFXL
 40
1.0
  9
$DIMFXLON
 70
0
  9
$DIMJOGANG
 40
0.785398163397
  9
$DIMTFILL
 70
0
  9
$DIMTFILLCLR
 70
0
  9
$DIMARCSYM
 70
0
  9
$DIMLTYPE
  6

  9
$DIMLTEX1
  6

  9
$DIMLTEX2
  6

  9
$DIMTXTDIRECTION
 70
0
  9
$LUNITS
 70
2
  9
$LUPREC
 70
4
  9
$SKETCHINC
 40
1.0
  9
$FILLETRAD
 40
10.0
  9
$AUNITS
 70
0
  9
$AUPREC
 70
2
  9
$MENU
  1
.
  9
$ELEVATION
 40
0.0
  9
$PELEVATION
 40
0.0
  9
$THICKNESS
 40
0.0
  9
$LIMCHECK
 70
0
  9
$CHAMFERA
 40
0.0
  9
$CHAMFERB
 40
0.0
  9
$CHAMFERC
 40
0.0
  9
$CHAMFERD
 40
0.0
  9
$SKPOLY
 70
0
  9
$TDCREATE
 40
2461319.609189815
  9
$TDUCREATE
 40
2458532.153996898
  9
$TDUPDATE
 40
2461319.609212963
  9
$TDUUPDATE
 40
2458532.1544311
  9
$TDINDWG
 40
0.0
  9
$TDUSRTIMER
 40
0.0
  9
$USRTIMER
 70
1
  9
$ANGBASE
 50
0.0
  9
$ANGDIR
 70
0
  9
$PDMODE
 70
0
  9
$PDSIZE
 40
0.0
  9
$PLINEWID
 40
0.0
  9
$SPLFRAME
 70
0
  9
$SPLINETYPE
 70
6
  9
$SPLINESEGS
 70
8
  9
$HANDSEED
  5
16C
  9
$SURFTAB1
 70
6
  9
$SURFTAB2
 70
6
  9
$SURFTYPE
 70
6
  9
$SURFU
 70
6
  9
$SURFV
 70
6
  9
$UCSBASE
  2

  9
$UCSNAME
  2

  9
$UCSORG
 10
0.0
 20
0.0
 30
0.0
  9
$UCSXDIR
 10
1.0
 20
0.0
 30
0.0
  9
$UCSYDIR
 10
0.0
 20
1.0
 30
0.0
  9
$UCSORTHOREF
  2

  9
$UCSORTHOVIEW
 70
0
  9
$UCSORGTOP
 10
0.0
 20
0.0
 30
0.0
  9
$UCSORGBOTTOM
 10
0.0
 20
0.0
 30
0.0
  9
$UCSORGLEFT
 10
0.0
 20
0.0
 30
0.0
  9
$UCSORGRIGHT
 10
0.0
 20
0.0
 30
0.0
  9
$UCSORGFRONT
 10
0.0
 20
0.0
 30
0.0
  9
$UCSORGBACK
 10
0.0
 20
0.0
 30
0.0
  9
$PUCSBASE
  2

  9
$PUCSNAME
  2

  9
$PUCSORG
 10
0.0
 20
0.0
 30
0.0
  9
$PUCSXDIR
 10
1.0
 20
0.0
 30
0.0
  9
$PUCSYDIR
 10
0.0
 20
1.0
 30
0.0
  9
$PUCSORTHOREF
  2

  9
$PUCSORTHOVIEW
 70
0
  9
$PUCSORGTOP
 10
0.0
 20
0.0
 30
0.0
  9
$PUCSORGBOTTOM
 10
0.0
 20
0.0
 30
0.0
  9
$PUCSORGLEFT
 10
0.0
 20
0.0
 30
0.0
  9
$PUCSORGRIGHT
 10
0.0
 20
0.0
 30
0.0
  9
$PUCSORGFRONT
 10
0.0
 20
0.0
 30
0.0
  9
$PUCSORGBACK
 10
0.0
 20
0.0
 30
0.0
  9
$USERI1
 70
0
  9
$USERI2
 70
0
  9
$USERI3
 70
0
  9
$USERI4
 70
0
  9
$USERI5
 70
0
  9
$USERR1
 40
0.0
  9
$USERR2
 40
0.0
  9
$USERR3
 40
0.0
  9
$USERR4
 40
0.0
  9
$USERR5
 40
0.0
  9
$WORLDVIEW
 70
1
  9
$SHADEDGE
 70
3
  9
$SHADEDIF
 70
70
  9
$TILEMODE
 70
1
  9
$MAXACTVP
 70
64
  9
$PINSBASE
 10
0.0
 20
0.0
 30
0.0
  9
$PLIMCHECK
 70
0
  9
$PEXTMIN
 10
1e+20
 20
1e+20
 30
1e+20
  9
$PEXTMAX
 10
-1e+20
 20
-1e+20
 30
-1e+20
  9
$PLIMMIN
 10
0.0
 20
0.0
  9
$PLIMMAX
 10
420.0
 20
297.0
  9
$UNITMODE
 70
0
  9
$VISRETAIN
 70
1
  9
$PLINEGEN
 70
0
  9
$PSLTSCALE
 70
1
  9
$TREEDEPTH
 70
3020
  9
$CMLSTYLE
  2
Standard
  9
$CMLJUST
 70
0
  9
$CMLSCALE
 40
20.0
  9
$PROXYGRAPHICS
 70
1
  9
$MEASUREMENT
 70
1
  9
$CELWEIGHT
370
-1
  9
$ENDCAPS
280
0
  9
$JOINSTYLE
280
0
  9
$LWDISPLAY
290
0
  9
$INSUNITS
 70
4
  9
$HYPERLINKBASE
  1

  9
$STYLESHEET
  1

  9
$XEDIT
290
1
  9
$CEPSNTYPE
380
0
  9
$PSTYLEMODE
290
1
  9
$FINGERPRINTGUID
  2
{E7B55B05-A4E4-4094-B267-B063F384201D}
  9
$VERSIONGUID
  2
{040A7B1F-AA35-48CC-A1DA-E014D251321E}
  9
$EXTNAMES
290
1
  9
$PSVPSCALE
 40
0.0
  9
$OLESTARTUP
290
0
  9
$SORTENTS
280
127
  9
$INDEXCTL
280
0
  9
$HIDETEXT
280
1
  9
$XCLIPFRAME
280
1
  9
$HALOGAP
280
0
  9
$OBSCOLOR
 70
257
  9
$OBSLTYPE
280
0
  9
$INTERSECTIONDISPLAY
280
0
  9
$INTERSECTIONCOLOR
 70
257
  9
$DIMASSOC
280
2
  9
$PROJECTNAME
  1

  9
$CAMERADISPLAY
290
0
  9
$LENSLENGTH
 40
50.0
  9
$CAMERAHEIGHT
 40
0.0
  9
$STEPSPERSEC
 40
24.0
  9
$STEPSIZE
 40
100.0
  9
$3DDWFPREC
 40
2.0
  9
$PSOLWIDTH
 40
0.005
  9
$PSOLHEIGHT
 40
0.08
  9
$LOFTANG1
 40
1.570796326795
  9
$LOFTANG2
 40
1.570796326795
  9
$LOFTMAG1
 40
0.0
  9
$LOFTMAG2
 40
0.0
  9
$LOFTPARAM
 70
7
  9
$LOFTNORMALS
280
1
  9
$LATITUDE
 40
37.795
  9
$LONGITUDE
 40
-122.394
  9
$NORTHDIRECTION
 40
0.0
  9
$TIMEZONE
 70
-8000
  9
$LIGHTGLYPHDISPLAY
280
1
  9
$TILEMODELIGHTSYNCH
280
1
  9
$CMATERIAL
347
20
  9
$SOLIDHIST
280
0
  9
$SHOWHIST
280
1
  9
$DWFFRAME
280
2
  9
$DGNFRAME
280
2
  9
$REALWORLDSCALE
290
1
  9
$INTERFERECOLOR
 62
256
  9
$CSHADOW
280
0
  9
$SHADOWPLANELOCATION
 40
0.0
  0
ENDSEC
  0
SECTION
  2
CLASSES
  0
CLASS
  1
ACDBDICTIONARYWDFLT
  2
AcDbDictionaryWithDefault
  3
ObjectDBX Classes
 90
0
 91
0
280
0
281
0
  0
CLASS
  1
SUN
  2
AcDbSun
  3
SCENEOE
 90
1153
 91
0
280
0
281
0
  0
CLASS
  1
VISUALSTYLE
  2
AcDbVisualStyle
  3
ObjectDBX Classes
 90
4095
 91
0
280
0
281
0
  0
CLASS
  1
MATERIAL
  2
AcDbMaterial
  3
ObjectDBX Classes
 90
1153
 91
0
280
0
281
0
  0
CLASS
  1
SCALE
  2
AcDbScale
  3
ObjectDBX Classes
 90
1153
 91
0
280
0
281
0
  0
CLASS
  1
TABLESTYLE
  2
AcDbTableStyle
  3
ObjectDBX Classes
 90
4095
 91
0
280
0
281
0
  0
CLASS
  1
MLEADERSTYLE
  2
AcDbMLeaderStyle
  3
ACDB_MLEADERSTYLE_CLASS
 90
4095
 91
0
280
0
281
0
  0
CLASS
  1
DICTIONARYVAR
  2
AcDbDictionaryVar
  3
ObjectDBX Classes
 90
0
 91
0
280
0
281
0
  0
CLASS
  1
CELLSTYLEMAP
  2
AcDbCellStyleMap
  3
ObjectDBX Classes
 90
1152
 91
0
280
0
281
0
  0
CLASS
  1
MENTALRAYRENDERSETTINGS
  2
AcDbMentalRayRenderSettings
  3
SCENEOE
 90
1024
 91
0
280
0
281
0
  0
CLASS
  1
ACDBDETAILVIEWSTYLE
  2
AcDbDetailViewStyle
  3
ObjectDBX Classes
 90
1025
 91
0
280
0
281
0
  0
CLASS
  1
ACDBSECTIONVIEWSTYLE
  2
AcDbSectionViewStyle
  3
ObjectDBX Classes
 90
1025
 91
0
280
0
281
0
  0
CLASS
  1
RASTERVARIABLES
  2
AcDbRasterVariables
  3
ISM
 90
0
 91
0
280
0
281
0
  0
CLASS
  1
LAYOUT
  2
AcDbLayout
  3
ObjectDBX Classes
 90
0
 91
0
280
0
281
0
  0
CLASS
  1
ACDBPLACEHOLDER
  2
AcDbPlaceHolder
  3
ObjectDBX Classes
 90
0
 91
0
280
0
281
0
  0
ENDSEC
  0
SECTION
  2
TABLES
  0
TABLE
  2
VPORT
  5
8
330
0
100
AcDbSymbolTable
 70
1
  0
VPORT
  5
168
330
8
100
AcDbSymbolTableRecord
100
AcDbViewportTableRecord
  2
*Active
 70
0
 10
0.0
 20
0.0
 11
1.0
 21
1.0
 12
-0.8393162283777542
 22
0.0
 13
0.0
 23
0.0
 14
0.5
 24
0.5
 15
0.5
 25
0.5
 16
0.0
 26
0.0
 36
1.0
 17
0.0
 27
0.0
 37
0.0
 40
169.16068377162225
 41
1.34
 42
50.0
 43
0.0
 44
0.0
 50
0.0
 51
0.0
 71
0
 72
1000
 73
1
 74
3
 75
0
 76
0
 77
0
 78
0
281
0
 65
1
110
0.0
120
0.0
130
0.0
111
1.0
121
0.0
131
0.0
112
0.0
122
1.0
132
0.0
 79
0
146
0.0
  0
ENDTAB
  0
TABLE
  2
LTYPE
  5
2
330
0
100
AcDbSymbolTable
 70
4
  0
LTYPE
  5
24
330
2
100
AcDbSymbolTableRecord
100
AcDbLinetypeTableRecord
  2
ByBlock
 70
0
  3

 72
65
 73
0
 40
0.0
  0
LTYPE
  5
25
330
2
100
AcDbSymbolTableRecord
100
AcDbLinetypeTableRecord
  2
ByLayer
 70
0
  3

 72
65
 73
0
 40
0.0
  0
LTYPE
  5
26
330
2
100
AcDbSymbolTableRecord
100
AcDbLinetypeTableRecord
  2
Continuous
 70
0
  3

 72
65
 73
0
 40
0.0
  0
LTYPE
  5
30
330
2
100
AcDbSymbolTableRecord
100
AcDbLinetypeTableRecord
  2
ACAD_ISO02W100
 70
0
  3
ISO dash __ __ __ __ __ __ __ __ __ __ __ __ __
 72
65
 73
2
 40
15.0
 49
12.0
 74
0
 49
-3.0
 74
0
  0
ENDTAB
  0
TABLE
  2
LAYER
  5
1
330
0
100
AcDbSymbolTable
 70
4
  0
LAYER
  5
27
330
1
100
AcDbSymbolTableRecord
100
AcDbLayerTableRecord
  2
0
 70
0
 62
7
  6
Continuous
370
-3
390
13
347
21
  0
LAYER
  5
28
330
1
100
AcDbSymbolTableRecord
100
AcDbLayerTableRecord
  2
Defpoints
 70
0
 62
7
  6
Continuous
290
0
370
-3
390
13
347
21
  0
LAYER
  5
2F
330
1
100
AcDbSymbolTableRecord
100
AcDbLayerTableRecord
  2
VISIBLE
 70
0
 62
7
  6
Continuous
370
25
390
13
347
21
  0
LAYER
  5
31
330
1
100
AcDbSymbolTableRecord
100
AcDbLayerTableRecord
  2
HIDDEN
 70
0
 62
7
  6
ACAD_ISO02W100
370
13
390
13
347
21
  0
ENDTAB
  0
TABLE
  2
STYLE
  5
5
330
0
100
AcDbSymbolTable
 70
1
  0
STYLE
  5
29
330
5
100
AcDbSymbolTableRecord
100
AcDbTextStyleTableRecord
  2
Standard
 70
0
 40
0.0
 41
1.0
 50
0.0
 71
0
 42
2.5
  3
txt
  4

  0
ENDTAB
  0
TABLE
  2
VIEW
  5
7
330
0
100
AcDbSymbolTable
 70
0
  0
ENDTAB
  0
TABLE
  2
UCS
  5
6
330
0
100
AcDbSymbolTable
 70
0
  0
ENDTAB
  0
TABLE
  2
APPID
  5
3
330
0
100
AcDbSymbolTable
 70
3
  0
APPID
  5
2A
330
3
100
AcDbSymbolTableRecord
100
AcDbRegAppTableRecord
  2
ACAD
 70
0
  0
APPID
  5
169
330
3
100
AcDbSymbolTableRecord
100
AcDbRegAppTableRecord
  2
HATCHBACKGROUNDCOLOR
 70
0
  0
APPID
  5
16A
330
3
100
AcDbSymbolTableRecord
100
AcDbRegAppTableRecord
  2
EZDXF
 70
0
  0
ENDTAB
  0
TABLE
  2
DIMSTYLE
  5
4
330
0
100
AcDbSymbolTable
 70
1
100
AcDbDimStyleTable
  0
DIMSTYLE
105
2B
330
4
100
AcDbSymbolTableRecord
100
AcDbDimStyleTableRecord
  2
Standard
 70
0
 40
1.0
 41
2.5
 42
0.625
 43
3.75
 44
1.25
 45
0.0
 46
0.0
 47
0.0
 48
0.0
 49
2.5
140
2.5
141
2.5
142
0.0
143
0.03937007874
144
1.0
145
0.0
146
1.0
147
0.625
148
0.0
 69
0
 70
0
 71
0
 72
0
 73
0
 74
0
 75
0
 76
0
 77
1
 78
8
 79
3
170
0
171
3
172
1
173
0
174
0
175
0
176
0
177
0
178
0
179
2
271
2
272
2
273
2
274
3
275
0
276
0
277
2
278
44
279
0
280
0
281
0
282
0
283
0
284
8
285
0
286
0
288
0
289
3
290
0
371
-2
372
-2
  0
ENDTAB
  0
TABLE
  2
BLOCK_RECORD
  5
9
330
0
100
AcDbSymbolTable
 70
2
  0
BLOCK_RECORD
  5
17
330
9
100
AcDbSymbolTableRecord
100
AcDbBlockTableRecord
  2
*Model_Space
340
1A
 70
0
280
1
281
0
  0
BLOCK_RECORD
  5
1B
330
9
100
AcDbSymbolTableRecord
100
AcDbBlockTableRecord
  2
*Paper_Space
340
1E
 70
0
280
1
281
0
  0
ENDTAB
  0
ENDSEC
  0
SECTION
  2
BLOCKS
  0
BLOCK
  5
18
330
17
100
AcDbEntity
  8
0
100
AcDbBlockBegin
  2
*Model_Space
 70
0
 10
0.0
 20
0.0
 30
0.0
  3
*Model_Space
  1

  0
ENDBLK
  5
19
330
17
100
AcDbEntity
  8
0
100
AcDbBlockEnd
  0
BLOCK
  5
1C
330
1B
100
AcDbEntity
  8
0
100
AcDbBlockBegin
  2
*Paper_Space
 70
0
 10
0.0
 20
0.0
 30
0.0
  3
*Paper_Space
  1

  0
ENDBLK
  5
1D
330
1B
100
AcDbEntity
  8
0
100
AcDbBlockEnd
  0
ENDSEC
  0
SECTION
  2
ENTITIES
  0
LINE
  5
32
330
17
100
AcDbEntity
  8
VISIBLE
100
AcDbLine
 10
-140.4521689947505
 20
-32.0
 30
0.0
 11
-110.05045222730945
 21
-32.0
 31
0.0
  0
SPLINE
  5
33
330
17
100
AcDbEntity
  8
VISIBLE
100
AcDbSpline
 70
0
 71
1
 72
4
 73
2
 74
0
 40
0.0
 40
0.0
 40
1.0
 40
1.0
 10
-110.05045222730945
 20
-32.0
 30
0.0
 10
-130.82002478453538
 20
-5.12
 30
0.0
  0
LINE
  5
34
330
17
100
AcDbEntity
  8
VISIBLE
100
AcDbLine
 10
-167.6666969480156
 20
-5.12
 30
0.0
 11
-130.82002478453535
 21
-5.12
 31
0.0
  0
SPLINE
  5
35
330
17
100
AcDbEntity
  8
VISIBLE
100
AcDbSpline
 70
0
 71
1
 72
4
 73
2
 74
0
 40
0.0
 40
0.0
 40
1.0
 40
1.0
 10
-140.4521689947505
 20
-32.0
 30
0.0
 10
-167.6666969480156
 20
-5.12
 30
0.0
  0
SPLINE
  5
36
330
17
100
AcDbEntity
  8
VISIBLE
100
AcDbSpline
 70
0
 71
3
 72
8
 73
4
 74
0
 40
0.0
 40
0.0
 40
0.0
 40
0.0
 40
1.0
 40
1.0
 40
1.0
 40
1.0
 10
-106.63828323255893
 20
-32.0
 30
0.0
 10
-107.85653883041712
 20
-31.999999999999975
 30
0.0
 10
-109.06944998315215
 20
-32.000000000000014
 30
0.0
 10
-110.05045222730945
 20
-32.0
 30
0.0
  0
LINE
  5
37
330
17
100
AcDbEntity
  8
VISIBLE
100
AcDbLine
 10
-106.63828323255893
 20
-32.0
 30
0.0
 11
106.63828323255896
 21
-32.0
 31
0.0
  0
SPLINE
  5
38
330
17
100
AcDbEntity
  8
VISIBLE
100
AcDbSpline
 70
0
 71
3
 72
8
 73
4
 74
0
 40
0.0
 40
0.0
 40
0.0
 40
0.0
 40
1.0
 40
1.0
 40
1.0
 40
1.0
 10
110.05045222730944
 20
-32.0
 30
0.0
 10
109.06944998315211
 20
-31.999999999999982
 30
0.0
 10
107.85653883041725
 20
-32.0
 30
0.0
 10
106.63828323255893
 20
-32.0
 30
0.0
  0
LINE
  5
39
330
17
100
AcDbEntity
  8
VISIBLE
100
AcDbLine
 10
110.05045222730945
 20
-32.0
 30
0.0
 11
140.4521689947505
 21
-32.0
 31
0.0
  0
SPLINE
  5
3A
330
17
100
AcDbEntity
  8
VISIBLE
100
AcDbSpline
 70
0
 71
1
 72
17
 73
15
 74
0
 40
0.0
 40
0.0
 40
0.07142857142857123
 40
0.14285714285714246
 40
0.21428571428571366
 40
0.2857142857142849
 40
0.35714285714285615
 40
0.4285714285714273
 40
0.49999999999999856
 40
0.5714285714285698
 40
0.642857142857141
 40
0.7142857142857123
 40
0.7857142857142835
 40
0.8571428571428547
 40
0.9285714285714264
 40
1.0
 40
1.0
 10
142.79999999999998
 20
-32.0
 30
0.0
 10
142.78711027460307
 20
-32.0
 30
0.0
 10
142.7484987876556
 20
-32.0
 30
0.0
 10
142.68433834869376
 20
-32.0
 30
0.0
 10
142.59491611412008
 20
-32.0
 30
0.0
 10
142.48063230200682
 20
-32.0
 30
0.0
 10
142.34199840088024
 20
-32.0
 30
0.0
 10
142.17963488050282
 20
-32.0
 30
0.0
 10
141.9942684148997
 20
-32.0
 30
0.0
 10
141.78672863005676
 20
-32.0
 30
0.0
 10
141.55794439084735
 20
-32.0
 30
0.0
 10
141.3089396438059
 20
-32.0
 30
0.0
 10
141.04082883435302
 20
-32.0
 30
0.0
 10
140.75481191898527
 20
-32.0
 30
0.0
 10
140.4521689947505
 20
-32.0
 30
0.0
  0
SPLINE
  5
3B
330
17
100
AcDbEntity
  8
VISIBLE
100
AcDbSpline
 70
0
 71
1
 72
17
 73
15
 74
0
 40
0.0
 40
0.0
 40
0.07142857142857184
 40
0.14285714285714368
 40
0.2142857142857155
 40
0.28571428571428736
 40
0.35714285714285915
 40
0.428571428571431
 40
0.5000000000000029
 40
0.5714285714285747
 40
0.6428571428571466
 40
0.7142857142857183
 40
0.7857142857142901
 40
0.857142857142862
 40
0.9285714285714338
 40
1.0
 40
1.0
 10
-140.45216899475048
 20
-32.0
 30
0.0
 10
-140.75481191898524
 20
-32.0
 30
0.0
 10
-141.04082883435302
 20
-32.0
 30
0.0
 10
-141.30893964380587
 20
-32.0
 30
0.0
 10
-141.55794439084738
 20
-32.0
 30
0.0
 10
-141.7867286300567
 20
-32.0
 30
0.0
 10
-141.9942684148997
 20
-32.0
 30
0.0
 10
-142.17963488050282
 20
-32.0
 30
0.0
 10
-142.34199840088024
 20
-32.0
 30
0.0
 10
-142.48063230200682
 20
-32.0
 30
0.0
 10
-142.5949161141201
 20
-32.0
 30
0.0
 10
-142.68433834869376
 20
-32.0
 30
0.0
 10
-142.74849878765562
 20
-32.0
 30
0.0
 10
-142.78711027460307
 20
-32.0
 30
0.0
 10
-142.79999999999998
 20
-32.0
 30
0.0
  0
SPLINE
  5
3C
330
17
100
AcDbEntity
  8
VISIBLE
100
AcDbSpline
 70
0
 71
3
 72
20
 73
16
 74
0
 40
0.0
 40
0.0
 40
0.0
 40
0.0
 40
0.49999999999999595
 40
0.49999999999999595
 40
0.49999999999999595
 40
0.6428571428571377
 40
0.6428571428571377
 40
0.6428571428571377
 40
0.7857142857142794
 40
0.7857142857142794
 40
0.7857142857142794
 40
0.928571428571421
 40
0.928571428571421
 40
0.928571428571421
 40
1.0
 40
1.0
 40
1.0
 40
1.0
 10
-127.15332783651971
 20
-5.12
 30
0.0
 10
-127.81095490010242
 20
-5.119999999999998
 30
0.0
 10
-128.46746287634218
 20
-5.12
 30
0.0
 10
-129.09040379984967
 20
-5.12
 30
0.0
 10
-129.2676117465083
 20
-5.119999999999996
 30
0.0
 10
-129.44229402501125
 20
-5.120000000000003
 30
0.0
 10
-129.61445063535837
 20
-5.12
 30
0.0
 10
-129.78501615777336
 20
-5.119999999999996
 30
0.0
 10
-129.95246660229677
 20
-5.120000000000003
 30
0.0
 10
-130.11680196892846
 20
-5.12
 30
0.0
 10
-130.2792214831974
 20
-5.119999999999996
 30
0.0
 10
-130.43796397014214
 20
-5.120000000000003
 30
0.0
 10
-130.5930294297625
 20
-5.12
 30
0.0
 10
-130.6686945480201
 20
-5.12
 30
0.0
 10
-130.74435966627772
 20
-5.119999999999999
 30
0.0
 10
-130.82002478453535
 20
-5.12
 30
0.0
  0
SPLINE
  5
3D
330
17
100
AcDbEntity
  8
VISIBLE
100
AcDbSpline
 70
0
 71
1
 72
4
 73
2
 74
0
 40
0.0
 40
0.0
 40
1.0
 40
1.0
 10
-130.82002478453538
 20
-5.12
 30
0.0
 10
-124.33781279333881
 20
32.0
 30
0.0
  0
LINE
  5
3E
330
17
100
AcDbEntity
  8
VISIBLE
100
AcDbLine
 10
-159.0928549378763
 20
32.0
 30
0.0
 11
-124.33781279333881
 21
32.0
 31
0.0
  0
SPLINE
  5
3F
330
17
100
AcDbEntity
  8
VISIBLE
100
AcDbSpline
 70
0
 71
1
 72
4
 73
2
 74
0
 40
0.0
 40
0.0
 40
1.0
 40
1.0
 10
-167.6666969480156
 20
-5.12
 30
0.0
 10
-159.0928549378763
 20
32.0
 30
0.0
  0
SPLINE
  5
40
330
17
100
AcDbEntity
  8
VISIBLE
100
AcDbSpline
 70
0
 71
1
 72
17
 73
15
 74
0
 40
0.0
 40
0.0
 40
0.07142857142857184
 40
0.14285714285714368
 40
0.21428571428571552
 40
0.28571428571428736
 40
0.3571428571428592
 40
0.42857142857143105
 40
0.5000000000000029
 40
0.5714285714285747
 40
0.6428571428571466
 40
0.7142857142857184
 40
0.7857142857142903
 40
0.8571428571428621
 40
0.928571428571434
 40
1.0
 40
1.0
 10
-167.6666969480156
 20
-5.12
 30
0.0
 10
-167.9685067440164
 20
-5.12
 30
0.0
 10
-168.25343278525884
 20
-5.12
 30
0.0
 10
-168.52026287236538
 20
-5.12
 30
0.0
 10
-168.76786179402274
 20
-5.12
 30
0.0
 10
-168.99517615666468
 20
-5.12
 30
0.0
 10
-169.20123886606675
 20
-5.12
 30
0.0
 10
-169.38517324178594
 20
-5.12
 30
0.0
 10
-169.54619674694078
 20
-5.12
 30
0.0
 10
-169.68362431746402
 20
-5.12
 30
0.0
 10
-169.79687127666296
 20
-5.12
 30
0.0
 10
-169.88545582268887
 20
-5.12
 30
0.0
 10
-169.9490010783315
 20
-5.12
 30
0.0
 10
-169.98723669441875
 20
-5.12
 30
0.0
 10
-170.0
 20
-5.12
 30
0.0
  0
SPLINE
  5
41
330
17
100
AcDbEntity
  8
VISIBLE
100
AcDbSpline
 70
0
 71
1
 72
4
 73
2
 74
0
 40
0.0
 40
0.0
 40
1.0
 40
1.0
 10
-142.79999999999998
 20
-32.0
 30
0.0
 10
-170.0
 20
-5.12
 30
0.0
  0
LINE
  5
42
330
17
100
AcDbEntity
  8
VISIBLE
100
AcDbLine
 10
-127.15332783651974
 20
-5.12
 30
0.0
 11
-118.72819436736269
 21
-5.12
 31
0.0
  0
SPLINE
  5
43
330
17
100
AcDbEntity
  8
VISIBLE
100
AcDbSpline
 70
0
 71
3
 72
11
 73
7
 74
0
 40
0.0
 40
0.0
 40
0.0
 40
0.0
 40
0.6246913587741997
 40
0.6246913587741997
 40
0.6246913587741997
 40
1.0
 40
1.0
 40
1.0
 40
1.0
 10
-112.47180563263731
 20
-5.120000000000003
 30
0.0
 10
-113.48159559702944
 20
-5.73424299754968
 30
0.0
 10
-114.73347366256026
 20
-6.0999818849514025
 30
0.0
 10
-116.14943722916755
 20
-5.974790266712669
 30
0.0
 10
-116.99553879747884
 20
-5.8990757931367925
 30
0.0
 10
-117.90512069678223
 20
-5.6246684295808205
 30
0.0
 10
-118.7281943673627
 20
-5.120000000000004
 30
0.0
  0
LINE
  5
44
330
17
100
AcDbEntity
  8
VISIBLE
100
AcDbLine
 10
-112.47180563263733
 20
-5.12
 30
0.0
 11
112.47180563263723
 21
-5.12
 31
0.0
  0
SPLINE
  5
45
330
17
100
AcDbEntity
  8
VISIBLE
100
AcDbSpline
 70
0
 71
3
 72
11
 73
7
 74
0
 40
0.0
 40
0.0
 40
0.0
 40
0.0
 40
0.3774027704841839
 40
0.3774027704841839
 40
0.3774027704841839
 40
1.0
 40
1.0
 40
1.0
 40
1.0
 10
118.7281943673627
 20
-5.120000000000004
 30
0.0
 10
117.90047661506911
 20
-5.627526951554981
 30
0.0
 10
116.98548854861008
 20
-5.902050169742953
 30
0.0
 10
116.13526250302876
 20
-5.976076811157233
 30
0.0
 10
114.72501553629212
 20
-6.097449097837649
 30
0.0
 10
113.47825216108315
 20
-5.732229798219391
 30
0.0
 10
112.47180563263733
 20
-5.120000000000003
 30
0.0
  0
LINE
  5
46
330
17
100
AcDbEntity
  8
VISIBLE
100
AcDbLine
 10
118.72819436736282
 20
-5.12
 30
0.0
 11
127.1533278365198
 21
-5.12
 31
0.0
  0
SPLINE
  5
47
330
17
100
AcDbEntity
  8
VISIBLE
100
AcDbSpline
 70
0
 71
1
 72
4
 73
2
 74
0
 40
0.0
 40
0.0
 40
1.0
 40
1.0
 10
110.05045222730946
 20
-32.0
 30
0.0
 10
130.8200247845354
 20
-5.12
 30
0.0
  0
SPLINE
  5
48
330
17
100
AcDbEntity
  8
VISIBLE
100
AcDbSpline
 70
0
 71
3
 72
17
 73
13
 74
0
 40
0.0
 40
0.0
 40
0.0
 40
0.0
 40
0.14285714285714401
 40
0.14285714285714401
 40
0.14285714285714401
 40
0.28571428571428803
 40
0.28571428571428803
 40
0.28571428571428803
 40
0.5000000000000041
 40
0.5000000000000041
 40
0.5000000000000041
 40
1.0
 40
1.0
 40
1.0
 40
1.0
 10
130.8200247845354
 20
-5.12
 30
0.0
 10
130.67011247051911
 20
-5.1199999999999966
 30
0.0
 10
130.51625401078766
 20
-5.120000000000002
 30
0.0
 10
130.35844940534088
 20
-5.12
 30
0.0
 10
130.19857272520866
 20
-5.1199999999999966
 30
0.0
 10
130.035296244125
 20
-5.120000000000002
 30
0.0
 10
129.86861996208964
 20
-5.12
 30
0.0
 10
129.61644338114425
 20
-5.119999999999999
 30
0.0
 10
129.35654305890972
 20
-5.120000000000001
 30
0.0
 10
129.0904037998497
 20
-5.12
 30
0.0
 10
128.4674628763422
 20
-5.1199999999999966
 30
0.0
 10
127.8109549001025
 20
-5.120000000000002
 30
0.0
 10
127.15332783651976
 20
-5.12
 30
0.0
  0
SPLINE
  5
49
330
17
100
AcDbEntity
  8
VISIBLE
100
AcDbSpline
 70
0
 71
1
 72
4
 73
2
 74
0
 40
0.0
 40
0.0
 40
1.0
 40
1.0
 10
140.4521689947505
 20
-32.0
 30
0.0
 10
167.66669694801564
 20
-5.12
 30
0.0
  0
LINE
  5
4A
330
17
100
AcDbEntity
  8
VISIBLE
100
AcDbLine
 10
130.8200247845354
 20
-5.12
 30
0.0
 11
167.66669694801564
 21
-5.12
 31
0.0
  0
SPLINE
  5
4B
330
17
100
AcDbEntity
  8
VISIBLE
100
AcDbSpline
 70
0
 71
2
 72
6
 73
3
 74
0
 40
0.0
 40
0.0
 40
0.0
 40
1.0
 40
1.0
 40
1.0
 10
168.32136754324452
 20
-5.12
 30
0.0
 10
168.01546176381152
 20
-5.12
 30
0.0
 10
167.66669694801564
 20
-5.12
 30
0.0
  0
SPLINE
  5
4C
330
17
100
AcDbEntity
  8
VISIBLE
100
AcDbSpline
 70
0
 71
3
 72
20
 73
16
 74
0
 40
0.0
 40
0.0
 40
0.0
 40
0.0
 40
0.2516809290350918
 40
0.2516809290350918
 40
0.2516809290350918
 40
0.41834908527182857
 40
0.41834908527182857
 40
0.41834908527182857
 40
0.5277985080680251
 40
0.5277985080680251
 40
0.5277985080680251
 40
0.6718188084850325
 40
0.6718188084850325
 40
0.6718188084850325
 40
1.0
 40
1.0
 40
1.0
 40
1.0
 10
164.30789365843188
 20
-10.745140384608423
 30
0.0
 10
164.34424198665144
 20
-10.71029692784085
 30
0.0
 10
164.35654510353856
 20
-10.468259011296357
 30
0.0
 10
164.4672756174855
 20
-10.0465231469995
 30
0.0
 10
164.54005017576748
 20
-9.76887386460181
 30
0.0
 10
164.6585519023316
 20
-9.412955030477729
 30
0.0
 10
164.84536369671153
 20
-9.022104823639374
 30
0.0
 10
164.96815076871607
 20
-8.763302425183557
 30
0.0
 10
165.11740854684655
 20
-8.49849233212554
 30
0.0
 10
165.29313703110284
 20
-8.227674544465334
 30
0.0
 10
165.52327192453586
 20
-7.87398229847654
 30
0.0
 10
165.79445114214084
 20
-7.524152149753258
 30
0.0
 10
166.08829631076617
 20
-7.1910968930619505
 30
0.0
 10
166.7606348380805
 20
-6.430283226777774
 30
0.0
 10
167.5351252446031
 20
-5.754923831567053
 30
0.0
 10
168.32136753857552
 20
-5.1200000000000045
 30
0.0
  0
SPLINE
  5
4D
330
17
100
AcDbEntity
  8
VISIBLE
100
AcDbSpline
 70
0
 71
1
 72
4
 73
2
 74
0
 40
0.0
 40
0.0
 40
0.7907313845011747
 40
0.7907313845011747
 10
142.79999999999998
 20
-32.0
 30
0.0
 10
164.307893658432
 20
-10.745140384608423
 30
0.0
  0
SPLINE
  5
4E
330
17
100
AcDbEntity
  8
VISIBLE
100
AcDbSpline
 70
0
 71
2
 72
6
 73
3
 74
0
 40
0.0
 40
0.0
 40
0.0
 40
1.0
 40
1.0
 40
1.0
 10
164.30789365843194
 20
-10.745140384608426
 30
0.0
 10
164.3029669389727
 20
-10.750009142662154
 30
0.0
 10
164.3029761904762
 20
-10.75
 30
0.0
  0
SPLINE
  5
4F
330
17
100
AcDbEntity
  8
VISIBLE
100
AcDbSpline
 70
0
 71
1
 72
4
 73
2
 74
0
 40
0.0
 40
0.0
 40
0.7905505952380952
 40
0.7905505952380952
 10
142.79999999999998
 20
-32.0
 30
0.0
 10
164.3029761904762
 20
-10.75
 30
0.0
  0
SPLINE
  5
50
330
17
100
AcDbEntity
  8
VISIBLE
100
AcDbSpline
 70
0
 71
3
 72
11
 73
7
 74
0
 40
0.0
 40
0.0
 40
0.0
 40
0.0
 40
0.49999999999999933
 40
0.49999999999999933
 40
0.49999999999999933
 40
1.0
 40
1.0
 40
1.0
 40
1.0
 10
-120.74495785546253
 20
32.0
 30
0.0
 10
-121.38711649886801
 20
31.999999999999982
 30
0.0
 10
-122.02823864793176
 20
32.0
 30
0.0
 10
-122.63808978698137
 20
32.0
 30
0.0
 10
-123.24695078016448
 20
31.99999999999998
 30
0.0
 10
-123.82257366650758
 20
32.00000000000001
 30
0.0
 10
-124.33781279333881
 20
32.0
 30
0.0
  0
SPLINE
  5
51
330
17
100
AcDbEntity
  8
VISIBLE
100
AcDbSpline
 70
0
 71
1
 72
17
 73
15
 74
0
 40
0.0
 40
0.0
 40
0.0714285714285715
 40
0.142857142857143
 40
0.2142857142857145
 40
0.285714285714286
 40
0.3571428571428575
 40
0.428571428571429
 40
0.5000000000000004
 40
0.571428571428572
 40
0.6428571428571435
 40
0.714285714285715
 40
0.7857142857142865
 40
0.857142857142858
 40
0.9285714285714295
 40
1.0
 40
1.0
 10
-159.09285493787627
 20
32.0
 30
0.0
 10
-159.4035124083585
 20
32.0
 30
0.0
 10
-159.69699598934906
 20
32.0
 30
0.0
 10
-159.97201447076324
 20
32.0
 30
0.0
 10
-160.2273578815509
 20
32.0
 30
0.0
 10
-160.46190281308395
 20
32.0
 30
0.0
 10
-160.674617361704
 20
32.0
 30
0.0
 10
-160.86456566868455
 20
32.0
 30
0.0
 10
-161.03091203763424
 20
32.0
 30
0.0
 10
-161.17292461122594
 20
32.0
 30
0.0
 10
-161.28997859107545
 20
32.0
 30
0.0
 10
-161.38155898660403
 20
32.0
 30
0.0
 10
-161.44726288079028
 20
32.0
 30
0.0
 10
-161.4868012028437
 20
32.0
 30
0.0
 10
-161.5
 20
32.0
 30
0.0
  0
LINE
  5
52
330
17
100
AcDbEntity
  8
VISIBLE
100
AcDbLine
 10
-120.74495785546253
 20
32.0
 30
0.0
 11
120.74495785546259
 21
32.0
 31
0.0
  0
SPLINE
  5
53
330
17
100
AcDbEntity
  8
VISIBLE
100
AcDbSpline
 70
0
 71
3
 72
11
 73
7
 74
0
 40
0.0
 40
0.0
 40
0.0
 40
0.0
 40
0.5
 40
0.5
 40
0.5
 40
1.0
 40
1.0
 40
1.0
 40
1.0
 10
124.33781279333886
 20
32.0
 30
0.0
 10
123.82257366650757
 20
31.999999999999982
 30
0.0
 10
123.24695078016461
 20
32.0
 30
0.0
 10
122.63808978698142
 20
32.0
 30
0.0
 10
122.02823864793174
 20
31.999999999999982
 30
0.0
 10
121.38711649886811
 20
32.0
 30
0.0
 10
120.74495785546259
 20
32.0
 30
0.0
  0
LINE
  5
54
330
17
100
AcDbEntity
  8
VISIBLE
100
AcDbLine
 10
124.33781279333886
 20
32.0
 30
0.0
 11
159.09285493787627
 21
32.0
 31
0.0
  0
SPLINE
  5
55
330
17
100
AcDbEntity
  8
VISIBLE
100
AcDbSpline
 70
0
 71
1
 72
17
 73
15
 74
0
 40
0.0
 40
0.0
 40
0.07142857142857142
 40
0.14285714285714285
 40
0.21428571428571427
 40
0.2857142857142857
 40
0.35714285714285715
 40
0.42857142857142855
 40
0.5
 40
0.5714285714285714
 40
0.6428571428571429
 40
0.7142857142857143
 40
0.7857142857142857
 40
0.8571428571428571
 40
0.9285714285714286
 40
1.0
 40
1.0
 10
161.5
 20
32.0
 30
0.0
 10
161.4868012028437
 20
32.0
 30
0.0
 10
161.44726288079033
 20
32.0
 30
0.0
 10
161.38155898660403
 20
32.0
 30
0.0
 10
161.28997859107545
 20
32.0
 30
0.0
 10
161.1729246112259
 20
32.0
 30
0.0
 10
161.03091203763424
 20
32.0
 30
0.0
 10
160.86456566868458
 20
32.0
 30
0.0
 10
160.674617361704
 20
32.0
 30
0.0
 10
160.46190281308395
 20
32.0
 30
0.0
 10
160.2273578815509
 20
32.0
 30
0.0
 10
159.97201447076324
 20
32.0
 30
0.0
 10
159.6969959893491
 20
32.0
 30
0.0
 10
159.4035124083585
 20
32.0
 30
0.0
 10
159.09285493787627
 20
32.0
 30
0.0
  0
SPLINE
  5
56
330
17
100
AcDbEntity
  8
VISIBLE
100
AcDbSpline
 70
0
 71
1
 72
4
 73
2
 74
0
 40
0.0
 40
0.0
 40
1.0
 40
1.0
 10
-170.0
 20
-5.12
 30
0.0
 10
-161.5
 20
32.0
 30
0.0
  0
SPLINE
  5
57
330
17
100
AcDbEntity
  8
VISIBLE
100
AcDbSpline
 70
0
 71
3
 72
11
 73
7
 74
0
 40
0.0
 40
0.0
 40
0.0
 40
0.0
 40
0.37227211848039804
 40
0.37227211848039804
 40
0.37227211848039804
 40
1.0
 40
1.0
 40
1.0
 40
1.0
 10
121.60000000000002
 20
1.7985612998927536e-14
 30
0.0
 10
121.6007943306559
 20
-0.8768748136440848
 30
0.0
 10
121.4049515032208
 20
-1.7118454311518994
 30
0.0
 10
121.08673087298442
 20
-2.4281236227671346
 30
0.0
 10
120.54667862091502
 20
-3.641011085900775
 30
0.0
 10
119.68779618324118
 20
-4.532459135596251
 30
0.0
 10
118.72819436736273
 20
-5.120000000000001
 30
0.0
  0
SPLINE
  5
58
330
17
100
AcDbEntity
  8
VISIBLE
100
AcDbSpline
 70
0
 71
3
 72
38
 73
34
 74
0
 40
0.0
 40
0.0
 40
0.0
 40
0.0
 40
0.09118261304324203
 40
0.09118261304324203
 40
0.09118261304324203
 40
0.19416284148475102
 40
0.19416284148475102
 40
0.19416284148475102
 40
0.24632822045080852
 40
0.24632822045080852
 40
0.24632822045080852
 40
0.3229233847608222
 40
0.3229233847608222
 40
0.3229233847608222
 40
0.43804183975711497
 40
0.43804183975711497
 40
0.43804183975711497
 40
0.5732021388285895
 40
0.5732021388285895
 40
0.5732021388285895
 40
0.6723324841786125
 40
0.6723324841786125
 40
0.6723324841786125
 40
0.7714628295286354
 40
0.7714628295286354
 40
0.7714628295286354
 40
0.8838333543191982
 40
0.8838333543191982
 40
0.8838333543191982
 40
0.9628791468216673
 40
0.9628791468216673
 40
0.9628791468216673
 40
1.0
 40
1.0
 40
1.0
 40
1.0
 10
112.47180563263727
 20
-5.12
 30
0.0
 10
111.85568761866215
 20
-4.74359911298219
 30
0.0
 10
111.27162191566623
 20
-4.233745067944714
 30
0.0
 10
110.78582349038511
 20
-3.5810200410319175
 30
0.0
 10
110.23702354849908
 20
-2.8488560100204197
 30
0.0
 10
109.82403576633216
 20
-1.9173348156716186
 30
0.0
 10
109.67201964705252
 20
-0.926848927856147
 30
0.0
 10
109.59358743763484
 20
-0.4270254506847613
 30
0.0
 10
109.58012523610924
 20
0.08182122158717761
 30
0.0
 10
109.62728647876901
 20
0.5715708121524097
 30
0.0
 10
109.69593600102905
 20
1.2920238797050898
 30
0.0
 10
109.8934066665303
 20
1.9668989447689218
 30
0.0
 10
110.17300273644264
 20
2.5588475338209262
 30
0.0
 10
110.59478613538397
 20
3.4511623067759687
 30
0.0
 10
111.19337273957271
 20
4.161266834331879
 30
0.0
 10
111.86613853408713
 20
4.696624165650368
 30
0.0
 10
112.6586744730852
 20
5.325255426332082
 30
0.0
 10
113.55818665608909
 20
5.7207253383851695
 30
0.0
 10
114.49343357146641
 20
5.897076456960906
 30
0.0
 10
115.17977136237396
 20
6.025571426056118
 30
0.0
 10
115.88661443763654
 20
6.035544942206598
 30
0.0
 10
116.59371071766905
 20
5.917139403285945
 30
0.0
 10
117.30024012950668
 20
5.798132217802887
 30
0.0
 10
118.00717570799712
 20
5.5507676547262195
 30
0.0
 10
118.67849973511518
 20
5.150032949496189
 30
0.0
 10
119.43702739993958
 20
4.697046299696809
 30
0.0
 10
120.15624028418655
 20
4.037472580098745
 30
0.0
 10
120.70028482119154
 20
3.1602365010744693
 30
0.0
 10
121.08215570418204
 20
2.5465390590660713
 30
0.0
 10
121.36844328015583
 20
1.8245708245387113
 30
0.0
 10
121.5039862042009
 20
1.0690869471681388
 30
0.0
 10
121.56813585031996
 20
0.7131617628659918
 30
0.0
 10
121.60014044891977
 20
0.35679944714328526
 30
0.0
 10
121.60000000000002
 20
1.7763568394002505e-14
 30
0.0
  0
SPLINE
  5
59
330
17
100
AcDbEntity
  8
VISIBLE
100
AcDbSpline
 70
0
 71
3
 72
11
 73
7
 74
0
 40
0.0
 40
0.0
 40
0.0
 40
0.0
 40
0.4322624012586585
 40
0.4322624012586585
 40
0.4322624012586585
 40
1.0
 40
1.0
 40
1.0
 40
1.0
 10
-109.60000000000002
 20
1.7763568394002505e-14
 30
0.0
 10
-109.5964695042312
 20
-0.9392593767661983
 30
0.0
 10
-109.8333824437174
 20
-1.90299788119863
 30
0.0
 10
-110.2490477487596
 20
-2.7142789106768497
 30
0.0
 10
-110.79431466504442
 20
-3.7883814624122842
 30
0.0
 10
-111.60587494603772
 20
-4.592311181081099
 30
0.0
 10
-112.4718056326373
 20
-5.120000000000001
 30
0.0
  0
SPLINE
  5
5A
330
17
100
AcDbEntity
  8
VISIBLE
100
AcDbSpline
 70
0
 71
3
 72
35
 73
31
 74
0
 40
0.0
 40
0.0
 40
0.0
 40
0.0
 40
0.15892147992998898
 40
0.15892147992998898
 40
0.15892147992998898
 40
0.22824690734977307
 40
0.22824690734977307
 40
0.22824690734977307
 40
0.27772182085918534
 40
0.27772182085918534
 40
0.27772182085918534
 40
0.3540253958662776
 40
0.3540253958662776
 40
0.3540253958662776
 40
0.4658674176285056
 40
0.4658674176285056
 40
0.4658674176285056
 40
0.5534985022691933
 40
0.5534985022691933
 40
0.5534985022691933
 40
0.671911686838492
 40
0.671911686838492
 40
0.671911686838492
 40
0.7903248714077908
 40
0.7903248714077908
 40
0.7903248714077908
 40
0.9005847282570323
 40
0.9005847282570323
 40
0.9005847282570323
 40
1.0
 40
1.0
 40
1.0
 40
1.0
 10
-118.72819436736272
 20
-5.120000000000001
 30
0.0
 10
-119.73603954761855
 20
-4.502894970335661
 30
0.0
 10
-120.63553734989993
 20
-3.548350904458911
 30
0.0
 10
-121.16603634102644
 20
-2.2403659188563783
 30
0.0
 10
-121.39534161248626
 20
-1.6716527944879251
 30
0.0
 10
-121.54796293674931
 20
-1.0361751218445194
 30
0.0
 10
-121.58873213802393
 20
-0.367542349940483
 30
0.0
 10
-121.61823438177403
 20
0.1089214782319761
 30
0.0
 10
-121.59012481881139
 20
0.6006329098822395
 30
0.0
 10
-121.50166960199554
 20
1.081802157920861
 30
0.0
 10
-121.36662019028255
 20
1.8250080354644618
 30
0.0
 10
-121.08586213292737
 20
2.5353482300244177
 30
0.0
 10
-120.71186616509397
 20
3.1414684958101287
 30
0.0
 10
-120.16237862966736
 20
4.034753473500933
 30
0.0
 10
-119.43142020444785
 20
4.703945952400302
 30
0.0
 10
-118.66094755589468
 20
5.160484479199846
 30
0.0
 10
-118.05514938812185
 20
5.5194637203218
 30
0.0
 10
-117.41989318259039
 20
5.753884840677184
 30
0.0
 10
-116.78329623675027
 20
5.8821603188023435
 30
0.0
 10
-115.92282324967678
 20
6.054536987527015
 30
0.0
 10
-115.06004942785218
 20
6.035243388060537
 30
0.0
 10
-114.23168922160879
 20
5.841893967217821
 30
0.0
 10
-113.40383104956334
 20
5.647340964180197
 30
0.0
 10
-112.61002758062364
 20
5.27852537752772
 30
0.0
 10
-111.90013642167358
 20
4.7234531332251
 30
0.0
 10
-111.24073761182203
 20
4.206461023704662
 30
0.0
 10
-110.65144326940135
 20
3.523768945822886
 30
0.0
 10
-110.22535021623432
 20
2.6670470003109115
 30
0.0
 10
-109.84196949091613
 20
1.8983500095807249
 30
0.0
 10
-109.59882302106145
 20
0.9753501639780099
 30
0.0
 10
-109.60000000000002
 20
1.7985612998927536e-14
 30
0.0
  0
SPLINE
  5
5B
330
17
100
AcDbEntity
  8
VISIBLE
100
AcDbSpline
 70
0
 71
1
 72
4
 73
2
 74
0
 40
0.0
 40
0.0
 40
1.0
 40
1.0
 10
130.8200247845354
 20
-5.12
 30
0.0
 10
124.33781279333887
 20
32.0
 30
0.0
  0
SPLINE
  5
5C
330
17
100
AcDbEntity
  8
VISIBLE
100
AcDbSpline
 70
0
 71
1
 72
4
 73
2
 74
0
 40
0.0
 40
0.0
 40
1.0
 40
1.0
 10
163.62285392808877
 20
12.387606592490252
 30
0.0
 10
159.09285493787627
 20
32.0
 30
0.0
  0
SPLINE
  5
5D
330
17
100
AcDbEntity
  8
VISIBLE
100
AcDbSpline
 70
0
 71
3
 72
17
 73
13
 74
0
 40
0.0
 40
0.0
 40
0.0
 40
0.0
 40
0.27877735035685486
 40
0.27877735035685486
 40
0.27877735035685486
 40
0.46480803927605074
 40
0.46480803927605074
 40
0.46480803927605074
 40
0.5790297097601671
 40
0.5790297097601671
 40
0.5790297097601671
 40
1.0
 40
1.0
 40
1.0
 40
1.0
 10
163.16017352849693
 20
7.750000000000001
 30
0.0
 10
162.9689342394616
 20
8.228426068095752
 30
0.0
 10
162.82318012601903
 20
8.769095824880795
 30
0.0
 10
162.7711695406258
 20
9.305015382820619
 30
0.0
 10
162.7355540771118
 20
9.661743736068054
 30
0.0
 10
162.74118233219792
 20
10.009490392089436
 30
0.0
 10
162.78003713438451
 20
10.32608660454486
 30
0.0
 10
162.8042541536641
 20
10.520844679810684
 30
0.0
 10
162.83884433099553
 20
10.704412472226473
 30
0.0
 10
162.883807666379
 20
10.876789981792257
 30
0.0
 10
163.04967415986573
 20
11.51177077174817
 30
0.0
 10
163.3222482558754
 20
11.99222609272153
 30
0.0
 10
163.62285392808874
 20
12.38760659249025
 30
0.0
  0
SPLINE
  5
5E
330
17
100
AcDbEntity
  8
VISIBLE
100
AcDbSpline
 70
0
 71
2
 72
6
 73
3
 74
0
 40
0.0
 40
0.0
 40
0.0
 40
1.0
 40
1.0
 40
1.0
 10
166.83993414043195
 20
-1.5405737193182798
 30
0.0
 10
165.00371257332446
 20
3.1104891080507526
 30
0.0
 10
163.16017352849695
 20
7.75
 30
0.0
  0
SPLINE
  5
5F
330
17
100
AcDbEntity
  8
VISIBLE
100
AcDbSpline
 70
0
 71
1
 72
4
 73
2
 74
0
 40
0.0
 40
0.0
 40
0.09642850971664163
 40
0.09642850971664163
 10
167.66669694801564
 20
-5.12
 30
0.0
 10
166.83993414043198
 20
-1.5405737193182627
 30
0.0
  0
SPLINE
  5
60
330
17
100
AcDbEntity
  8
VISIBLE
100
AcDbSpline
 70
0
 71
2
 72
6
 73
3
 74
0
 40
0.0
 40
0.0
 40
0.0
 40
1.0
 40
1.0
 40
1.0
 10
167.68567241503087
 20
-3.750000000000001
 30
0.0
 10
167.27388812781345
 20
-2.6409955434147263
 30
0.0
 10
166.83993414043192
 20
-1.5405737193181857
 30
0.0
  0
SPLINE
  5
61
330
17
100
AcDbEntity
  8
VISIBLE
100
AcDbSpline
 70
0
 71
3
 72
8
 73
4
 74
0
 40
0.0
 40
0.0
 40
0.0
 40
0.0
 40
1.0
 40
1.0
 40
1.0
 40
1.0
 10
168.32136753857554
 20
-5.1200000000000045
 30
0.0
 10
168.08773199563572
 20
-4.690185065725133
 30
0.0
 10
167.86673167416504
 20
-4.236359262252085
 30
0.0
 10
167.68567241503087
 20
-3.7500000000000018
 30
0.0
  0
SPLINE
  5
62
330
17
100
AcDbEntity
  8
VISIBLE
100
AcDbSpline
 70
0
 71
3
 72
8
 73
4
 74
0
 40
0.0
 40
0.0
 40
0.0
 40
0.0
 40
1.0
 40
1.0
 40
1.0
 40
1.0
 10
168.3213675385756
 20
-5.120000000000001
 30
0.0
 10
168.08773199563575
 20
-4.690185065725153
 30
0.0
 10
167.86673167416484
 20
-4.236359262252104
 30
0.0
 10
167.68567241503072
 20
-3.7500000000000004
 30
0.0
  0
SPLINE
  5
63
330
17
100
AcDbEntity
  8
VISIBLE
100
AcDbSpline
 70
0
 71
1
 72
4
 73
2
 74
0
 40
0.0
 40
0.0
 40
0.020283137832176078
 40
0.020283137832176078
 10
163.16017352849695
 20
7.75
 30
0.0
 10
163.23495627060862
 20
7.561792607629652
 30
0.0
  0
SPLINE
  5
64
330
17
100
AcDbEntity
  8
VISIBLE
100
AcDbSpline
 70
0
 71
3
 72
8
 73
4
 74
0
 40
0.0
 40
0.0
 40
0.0
 40
0.0
 40
0.40449368183409423
 40
0.40449368183409423
 40
0.40449368183409423
 40
0.40449368183409423
 10
163.62285392808874
 20
12.387606592490245
 30
0.0
 10
163.3337595759377
 20
12.007679594880255
 30
0.0
 10
163.0713847642782
 20
11.549129037455627
 30
0.0
 10
162.90352424938533
 20
10.950476185030698
 30
0.0
  0
SPLINE
  5
65
330
17
100
AcDbEntity
  8
VISIBLE
100
AcDbSpline
 70
0
 71
2
 72
6
 73
3
 74
0
 40
0.0
 40
0.0
 40
0.0
 40
1.0
 40
1.0
 40
1.0
 10
162.82220219035185
 20
10.59954363864121
 30
0.0
 10
162.77887583178793
 20
10.370467745309613
 30
0.0
 10
162.75980725827634
 20
10.119222548089846
 30
0.0
  0
SPLINE
  5
66
330
17
100
AcDbEntity
  8
VISIBLE
100
AcDbSpline
 70
0
 71
3
 72
8
 73
4
 74
0
 40
0.0
 40
0.0
 40
0.0
 40
0.0
 40
1.0
 40
1.0
 40
1.0
 40
1.0
 10
162.74822219916777
 20
9.869990931114932
 30
0.0
 10
162.7399102531265
 20
9.475430947263186
 30
0.0
 10
162.78603064382517
 20
9.049998672752851
 30
0.0
 10
162.8805335012446
 20
8.641260128767717
 30
0.0
  0
SPLINE
  5
67
330
17
100
AcDbEntity
  8
VISIBLE
100
AcDbSpline
 70
0
 71
2
 72
6
 73
3
 74
0
 40
0.0
 40
0.0
 40
0.0
 40
1.0
 40
1.0
 40
1.0
 10
162.913019230382
 20
8.50714663244294
 30
0.0
 10
163.01511256434236
 20
8.111978225303385
 30
0.0
 10
163.16017352849693
 20
7.750000000000001
 30
0.0
  0
SPLINE
  5
68
330
17
100
AcDbEntity
  8
VISIBLE
100
AcDbSpline
 70
0
 71
1
 72
4
 73
2
 74
0
 40
0.0
 40
0.0
 40
0.00017455753884590444
 40
0.00017455753884590444
 10
121.6
 20
-2.042810365310288e-14
 30
0.0
 10
121.59999785956225
 20
0.0050680414069167465
 30
0.0
  0
SPLINE
  5
69
330
17
100
AcDbEntity
  8
VISIBLE
100
AcDbSpline
 70
0
 71
2
 72
6
 73
3
 74
0
 40
0.0
 40
0.0
 40
0.0
 40
1.0
 40
1.0
 40
1.0
 10
121.42310399549463
 20
1.446188052489469
 30
0.0
 10
121.28017239644102
 20
2.017221431755425
 30
0.0
 10
121.03905035395974
 20
2.5331267749809276
 30
0.0
  0
SPLINE
  5
6A
330
17
100
AcDbEntity
  8
VISIBLE
100
AcDbSpline
 70
0
 71
1
 72
4
 73
2
 74
0
 40
0.0
 40
0.0
 40
1.0
 40
1.0
 10
120.71208502412914
 20
3.141112224275478
 30
0.0
 10
120.70582068511841
 20
3.151284568878646
 30
0.0
  0
SPLINE
  5
6B
330
17
100
AcDbEntity
  8
VISIBLE
100
AcDbSpline
 70
0
 71
1
 72
4
 73
2
 74
0
 40
0.0
 40
0.0
 40
1.0
 40
1.0
 10
120.27825862141776
 20
3.756846503218732
 30
0.0
 10
120.27402116155025
 20
3.7621171621131655
 30
0.0
  0
SPLINE
  5
6C
330
17
100
AcDbEntity
  8
VISIBLE
100
AcDbSpline
 70
0
 71
1
 72
4
 73
2
 74
0
 40
0.0
 40
0.0
 40
1.0
 40
1.0
 10
119.91200592341737
 20
4.172122346379966
 30
0.0
 10
119.89792404834289
 20
4.186627381476944
 30
0.0
  0
SPLINE
  5
6D
330
17
100
AcDbEntity
  8
VISIBLE
100
AcDbSpline
 70
0
 71
1
 72
4
 73
2
 74
0
 40
0.0
 40
0.0
 40
1.0
 40
1.0
 10
117.24085410706816
 20
5.771273483826105
 30
0.0
 10
117.22330098658249
 20
5.776235257311656
 30
0.0
  0
SPLINE
  5
6E
330
17
100
AcDbEntity
  8
VISIBLE
100
AcDbSpline
 70
0
 71
1
 72
4
 73
2
 74
0
 40
0.0
 40
0.0
 40
1.0
 40
1.0
 10
115.5488772914885
 20
5.999782209512508
 30
0.0
 10
115.53852450997273
 20
5.999685063205979
 30
0.0
  0
SPLINE
  5
6F
330
17
100
AcDbEntity
  8
VISIBLE
100
AcDbSpline
 70
0
 71
1
 72
4
 73
2
 74
0
 40
0.0
 40
0.0
 40
1.0
 40
1.0
 10
112.40698406583181
 20
5.079827658838315
 30
0.0
 10
112.35095643425961
 20
5.044176421540275
 30
0.0
  0
SPLINE
  5
70
330
17
100
AcDbEntity
  8
VISIBLE
100
AcDbSpline
 70
0
 71
1
 72
4
 73
2
 74
0
 40
0.0
 40
0.0
 40
1.0
 40
1.0
 10
111.03542487085052
 20
3.8941820552499236
 30
0.0
 10
111.03155067808082
 20
3.88963633019383
 30
0.0
  0
SPLINE
  5
71
330
17
100
AcDbEntity
  8
VISIBLE
100
AcDbSpline
 70
0
 71
2
 72
6
 73
3
 74
0
 40
0.0
 40
0.0
 40
0.0
 40
1.0
 40
1.0
 40
1.0
 10
110.67448684351675
 20
3.4262691339015223
 30
0.0
 10
110.52972285688172
 20
3.2184234994519083
 30
0.0
 10
110.39961882722702
 20
2.9926636292257114
 30
0.0
  0
SPLINE
  5
72
330
17
100
AcDbEntity
  8
VISIBLE
100
AcDbSpline
 70
0
 71
1
 72
4
 73
2
 74
0
 40
0.0
 40
0.0
 40
1.0
 40
1.0
 10
110.15821381499839
 20
2.527244049688154
 30
0.0
 10
110.15658219664502
 20
2.523727793751592
 30
0.0
  0
SPLINE
  5
73
330
17
100
AcDbEntity
  8
VISIBLE
100
AcDbSpline
 70
0
 71
1
 72
4
 73
2
 74
0
 40
0.0
 40
0.0
 40
1.0
 40
1.0
 10
110.02346344305668
 20
2.2141003358340994
 30
0.0
 10
110.02134347980815
 20
2.208753431714846
 30
0.0
  0
SPLINE
  5
74
330
17
100
AcDbEntity
  8
VISIBLE
100
AcDbSpline
 70
0
 71
3
 72
8
 73
4
 74
0
 40
0.0
 40
0.0
 40
0.0
 40
0.0
 40
1.0
 40
1.0
 40
1.0
 40
1.0
 10
109.8796213024825
 20
1.8103223835191842
 30
0.0
 10
109.72647807173509
 20
1.3272198244537212
 30
0.0
 10
109.6294539925116
 20
0.8040793399996067
 30
0.0
 10
109.6058445193158
 20
0.26476414470073945
 30
0.0
  0
SPLINE
  5
75
330
17
100
AcDbEntity
  8
VISIBLE
100
AcDbSpline
 70
0
 71
1
 72
4
 73
2
 74
0
 40
0.0
 40
0.0
 40
1.0
 40
1.0
 10
112.45966682762207
 20
-5.112563698572412
 30
0.0
 10
112.47180563263726
 20
-5.120000000000001
 30
0.0
  0
SPLINE
  5
76
330
17
100
AcDbEntity
  8
VISIBLE
100
AcDbSpline
 70
0
 71
1
 72
4
 73
2
 74
0
 40
0.0
 40
0.0
 40
0.001303087362066814
 40
0.001303087362066814
 10
112.47180563263726
 20
-5.120000000000003
 30
0.0
 10
112.47798525952749
 20
-5.123770482704959
 30
0.0
  0
SPLINE
  5
77
330
17
100
AcDbEntity
  8
VISIBLE
100
AcDbSpline
 70
0
 71
1
 72
4
 73
2
 74
0
 40
0.0
 40
0.0
 40
1.0
 40
1.0
 10
115.85906850796084
 20
-5.994404352151067
 30
0.0
 10
115.86968290690419
 20
-5.993936197949337
 30
0.0
  0
SPLINE
  5
78
330
17
100
AcDbEntity
  8
VISIBLE
100
AcDbSpline
 70
0
 71
1
 72
4
 73
2
 74
0
 40
0.0
 40
0.0
 40
1.0
 40
1.0
 10
116.93039981343496
 20
-5.850644096525146
 30
0.0
 10
116.95670930076524
 20
-5.844599206547075
 30
0.0
  0
SPLINE
  5
79
330
17
100
AcDbEntity
  8
VISIBLE
100
AcDbSpline
 70
0
 71
1
 72
4
 73
2
 74
0
 40
0.0
 40
0.0
 40
1.0
 40
1.0
 10
118.72490328916103
 20
-5.122009316016696
 30
0.0
 10
118.72819436736279
 20
-5.120000000000003
 30
0.0
  0
SPLINE
  5
7A
330
17
100
AcDbEntity
  8
VISIBLE
100
AcDbSpline
 70
0
 71
1
 72
4
 73
2
 74
0
 40
0.0
 40
0.0
 40
0.031665226915279836
 40
0.031665226915279836
 10
118.72819436736279
 20
-5.120000000000001
 30
0.0
 10
118.87205639453356
 20
-5.029278961447368
 30
0.0
  0
SPLINE
  5
7B
330
17
100
AcDbEntity
  8
VISIBLE
100
AcDbSpline
 70
0
 71
3
 72
11
 73
7
 74
0
 40
0.0
 40
0.0
 40
0.0
 40
0.0
 40
0.6035720527071856
 40
0.6035720527071856
 40
0.6035720527071856
 40
1.0
 40
1.0
 40
1.0
 40
1.0
 10
118.8721387280728
 20
-5.029225394159868
 30
0.0
 10
119.74816059359408
 20
-4.458254172810343
 30
0.0
 10
120.53709084324002
 20
-3.62229436637659
 30
0.0
 10
121.05378330379159
 20
-2.501249222945257
 30
0.0
 10
121.39157389033103
 20
-1.7682554357171394
 30
0.0
 10
121.60108622668484
 20
-0.9045046198745298
 30
0.0
 10
121.60000000000001
 20
-2.042810365310288e-14
 30
0.0
  0
SPLINE
  5
7C
330
17
100
AcDbEntity
  8
VISIBLE
100
AcDbSpline
 70
0
 71
3
 72
8
 73
4
 74
0
 40
0.0
 40
0.0
 40
0.0
 40
0.0
 40
0.04904645368513141
 40
0.04904645368513141
 40
0.04904645368513141
 40
0.04904645368513141
 10
-109.60000000000001
 20
-2.042810365310288e-14
 30
0.0
 10
-109.59982581745555
 20
0.4829730448429563
 30
0.0
 10
-109.65895640011857
 20
0.9582010622088681
 30
0.0
 10
-109.76697261448606
 20
1.4056285683245007
 30
0.0
  0
SPLINE
  5
7D
330
17
100
AcDbEntity
  8
VISIBLE
100
AcDbSpline
 70
0
 71
1
 72
4
 73
2
 74
0
 40
0.0
 40
0.0
 40
1.0
 40
1.0
 10
-109.8959470754524
 20
1.8611232365844486
 30
0.0
 10
-109.8976885010103
 20
1.86645199221934
 30
0.0
  0
SPLINE
  5
7E
330
17
100
AcDbEntity
  8
VISIBLE
100
AcDbSpline
 70
0
 71
1
 72
4
 73
2
 74
0
 40
0.0
 40
0.0
 40
1.0
 40
1.0
 10
-110.05098923709858
 20
2.282209442162065
 30
0.0
 10
-110.05309272923944
 20
2.2873172286533023
 30
0.0
  0
SPLINE
  5
7F
330
17
100
AcDbEntity
  8
VISIBLE
100
AcDbSpline
 70
0
 71
2
 72
6
 73
3
 74
0
 40
0.0
 40
0.0
 40
0.0
 40
1.0
 40
1.0
 40
1.0
 10
-110.20551848131042
 20
2.6267029973691463
 30
0.0
 10
-110.47828008080276
 20
3.1820425214684303
 30
0.0
 10
-110.83143101753627
 20
3.641531250252313
 30
0.0
  0
SPLINE
  5
80
330
17
100
AcDbEntity
  8
VISIBLE
100
AcDbSpline
 70
0
 71
3
 72
8
 73
4
 74
0
 40
0.0
 40
0.0
 40
0.0
 40
0.0
 40
1.0
 40
1.0
 40
1.0
 40
1.0
 10
-118.27210634908486
 20
5.372136200064212
 30
0.0
 10
-118.99954312082717
 20
5.010003220753199
 30
0.0
 10
-119.70031214658944
 20
4.47815586461599
 30
0.0
 10
-120.28528155658363
 20
3.7480843375539123
 30
0.0
  0
SPLINE
  5
81
330
17
100
AcDbEntity
  8
VISIBLE
100
AcDbSpline
 70
0
 71
2
 72
6
 73
3
 74
0
 40
0.0
 40
0.0
 40
0.0
 40
1.0
 40
1.0
 40
1.0
 10
-120.54666820915932
 20
3.395655158641229
 30
0.0
 10
-120.6694500422198
 20
3.2169411478520846
 30
0.0
 10
-120.78130055735838
 20
3.02557833574951
 30
0.0
  0
SPLINE
  5
82
330
17
100
AcDbEntity
  8
VISIBLE
100
AcDbSpline
 70
0
 71
2
 72
6
 73
3
 74
0
 40
0.0
 40
0.0
 40
0.0
 40
1.0
 40
1.0
 40
1.0
 10
-120.93462914621402
 20
2.7462212844870315
 30
0.0
 10
-121.00852809849434
 20
2.602732334643667
 30
0.0
 10
-121.07544363844579
 20
2.453470472265032
 30
0.0
  0
SPLINE
  5
83
330
17
100
AcDbEntity
  8
VISIBLE
100
AcDbSpline
 70
0
 71
2
 72
6
 73
3
 74
0
 40
0.0
 40
0.0
 40
0.0
 40
1.0
 40
1.0
 40
1.0
 10
-121.18663542602324
 20
2.1884936331277767
 30
0.0
 10
-121.23303722752775
 20
2.0700702872791803
 30
0.0
 10
-121.27468377386474
 20
1.9488365225046398
 30
0.0
  0
SPLINE
  5
84
330
17
100
AcDbEntity
  8
VISIBLE
100
AcDbSpline
 70
0
 71
2
 72
6
 73
3
 74
0
 40
0.0
 40
0.0
 40
0.0
 40
1.0
 40
1.0
 40
1.0
 10
-121.37265431950775
 20
1.6359895981888435
 30
0.0
 10
-121.45537197819667
 20
1.3442987729064653
 30
0.0
 10
-121.50858908207698
 20
1.0433479313915517
 30
0.0
  0
SPLINE
  5
85
330
17
100
AcDbEntity
  8
VISIBLE
100
AcDbSpline
 70
0
 71
2
 72
6
 73
3
 74
0
 40
0.0
 40
0.0
 40
0.0
 40
1.0
 40
1.0
 40
1.0
 10
-121.55190841465003
 20
0.7581465620403609
 30
0.0
 10
-121.5869097859511
 20
0.48305289264901263
 30
0.0
 10
-121.59641933817049
 20
0.2072561998066776
 30
0.0
  0
SPLINE
  5
86
330
17
100
AcDbEntity
  8
VISIBLE
100
AcDbSpline
 70
0
 71
3
 72
11
 73
7
 74
0
 40
0.0
 40
0.0
 40
0.0
 40
0.0
 40
0.37438618757372977
 40
0.37438618757372977
 40
0.37438618757372977
 40
1.0
 40
1.0
 40
1.0
 40
1.0
 10
-121.59868097924046
 20
0.12580344148637446
 30
0.0
 10
-121.61874612336376
 20
-0.7739497568941691
 30
0.0
 10
-121.42886239599964
 20
-1.6414612540550635
 30
0.0
 10
-121.1071853053685
 20
-2.3813672569204796
 30
0.0
 10
-120.56604951677903
 20
-3.624364249772447
 30
0.0
 10
-119.6939002008733
 20
-4.5286986626416645
 30
0.0
 10
-118.72819436736279
 20
-5.120000000000001
 30
0.0
  0
SPLINE
  5
87
330
17
100
AcDbEntity
  8
VISIBLE
100
AcDbSpline
 70
0
 71
2
 72
6
 73
3
 74
0
 40
0.0
 40
0.0
 40
0.0
 40
0.041696583966318874
 40
0.041696583966318874
 40
0.041696583966318874
 10
-118.72819436736278
 20
-5.120000000000004
 30
0.0
 10
-118.59115324161485
 20
-5.203721283348034
 30
0.0
 10
-118.45018895080278
 20
-5.2798127546415525
 30
0.0
  0
SPLINE
  5
88
330
17
100
AcDbEntity
  8
VISIBLE
100
AcDbSpline
 70
0
 71
2
 72
6
 73
3
 74
0
 40
0.0
 40
0.0
 40
0.0
 40
1.0
 40
1.0
 40
1.0
 10
-117.97735513796265
 20
-5.5089184621259655
 30
0.0
 10
-117.43707793753576
 20
-5.740372054144484
 30
0.0
 10
-116.89157825592852
 20
-5.859336608705242
 30
0.0
  0
SPLINE
  5
89
330
17
100
AcDbEntity
  8
VISIBLE
100
AcDbSpline
 70
0
 71
1
 72
4
 73
2
 74
0
 40
0.0
 40
0.0
 40
1.0
 40
1.0
 10
-116.41117035549797
 20
-5.944914023183237
 30
0.0
 10
-116.40115986048147
 20
-5.946271350478337
 30
0.0
  0
SPLINE
  5
8A
330
17
100
AcDbEntity
  8
VISIBLE
100
AcDbSpline
 70
0
 71
2
 72
6
 73
3
 74
0
 40
0.0
 40
0.0
 40
0.0
 40
1.0
 40
1.0
 40
1.0
 10
-115.808978838268
 20
-5.996359542273138
 30
0.0
 10
-115.65920458207536
 20
-6.001543280965799
 30
0.0
 10
-115.51221655399073
 20
-5.99935779250753
 30
0.0
  0
SPLINE
  5
8B
330
17
100
AcDbEntity
  8
VISIBLE
100
AcDbSpline
 70
0
 71
2
 72
6
 73
3
 74
0
 40
0.0
 40
0.0
 40
0.0
 40
1.0
 40
1.0
 40
1.0
 10
-114.73042751968897
 20
-5.936652573225126
 30
0.0
 10
-114.41721656145253
 20
-5.890456268981077
 30
0.0
 10
-114.12182632487311
 20
-5.815066860551166
 30
0.0
  0
SPLINE
  5
8C
330
17
100
AcDbEntity
  8
VISIBLE
100
AcDbSpline
 70
0
 71
1
 72
4
 73
2
 74
0
 40
0.0
 40
0.0
 40
1.0
 40
1.0
 10
-112.47377445088547
 20
-5.121202379915054
 30
0.0
 10
-112.47180563263724
 20
-5.1200000000000045
 30
0.0
  0
SPLINE
  5
8D
330
17
100
AcDbEntity
  8
VISIBLE
100
AcDbSpline
 70
0
 71
2
 72
6
 73
3
 74
0
 40
0.0
 40
0.0
 40
0.0
 40
0.08297448679425579
 40
0.08297448679425579
 40
0.08297448679425579
 10
-112.47180563263724
 20
-5.12
 30
0.0
 10
-112.28263935598758
 20
-5.004526751551076
 30
0.0
 10
-112.09866992875219
 20
-4.872441719796433
 30
0.0
  0
SPLINE
  5
8E
330
17
100
AcDbEntity
  8
VISIBLE
100
AcDbSpline
 70
0
 71
1
 72
4
 73
2
 74
0
 40
0.0
 40
0.0
 40
1.0
 40
1.0
 10
-110.81657972649232
 20
-3.622000828570272
 30
0.0
 10
-110.79183300360931
 20
-3.589084804791689
 30
0.0
  0
SPLINE
  5
8F
330
17
100
AcDbEntity
  8
VISIBLE
100
AcDbSpline
 70
0
 71
1
 72
4
 73
2
 74
0
 40
0.0
 40
0.0
 40
1.0
 40
1.0
 10
-110.54218514858371
 20
-3.2277714819719323
 30
0.0
 10
-110.52021592736168
 20
-3.1930852852255702
 30
0.0
  0
SPLINE
  5
90
330
17
100
AcDbEntity
  8
VISIBLE
100
AcDbSpline
 70
0
 71
1
 72
4
 73
2
 74
0
 40
0.0
 40
0.0
 40
1.0
 40
1.0
 10
-110.24546883040222
 20
-2.7072118021533633
 30
0.0
 10
-110.21705481740292
 20
-2.6502643239960815
 30
0.0
  0
SPLINE
  5
91
330
17
100
AcDbEntity
  8
VISIBLE
100
AcDbSpline
 70
0
 71
1
 72
4
 73
2
 74
0
 40
0.0
 40
0.0
 40
1.0
 40
1.0
 10
-110.0901092861526
 20
-2.375100899664898
 30
0.0
 10
-110.03349233865788
 20
-2.239194589647875
 30
0.0
  0
SPLINE
  5
92
330
17
100
AcDbEntity
  8
VISIBLE
100
AcDbSpline
 70
0
 71
1
 72
4
 73
2
 74
0
 40
0.0
 40
0.0
 40
1.0
 40
1.0
 10
-109.81918909172148
 20
-1.6069303818317082
 30
0.0
 10
-109.80222839627666
 20
-1.5446178904432513
 30
0.0
  0
SPLINE
  5
93
330
17
100
AcDbEntity
  8
VISIBLE
100
AcDbSpline
 70
0
 71
1
 72
4
 73
2
 74
0
 40
0.0
 40
0.0
 40
1.0
 40
1.0
 10
-109.67620040368493
 20
-0.9532042574285287
 30
0.0
 10
-109.67106621618396
 20
-0.9207302570712894
 30
0.0
  0
SPLINE
  5
94
330
17
100
AcDbEntity
  8
VISIBLE
100
AcDbSpline
 70
0
 71
1
 72
4
 73
2
 74
0
 40
0.0
 40
0.0
 40
1.0
 40
1.0
 10
-109.61834815849267
 20
-0.4688722961898464
 30
0.0
 10
-109.61512294594849
 20
-0.425730690375679
 30
0.0
  0
SPLINE
  5
95
330
17
100
AcDbEntity
  8
VISIBLE
100
AcDbSpline
 70
0
 71
1
 72
4
 73
2
 74
0
 40
0.0
 40
0.0
 40
1.0
 40
1.0
 10
-109.60205969189187
 20
-0.15720059783161566
 30
0.0
 10
-109.60197664869384
 20
-0.1539994983906372
 30
0.0
  0
SPLINE
  5
96
330
17
100
AcDbEntity
  8
VISIBLE
100
AcDbSpline
 70
0
 71
3
 72
11
 73
7
 74
0
 40
0.0
 40
0.0
 40
0.0
 40
0.0
 40
0.4270658331024816
 40
0.4270658331024816
 40
0.4270658331024816
 40
1.0
 40
1.0
 40
1.0
 40
1.0
 10
165.45047968240888
 20
14.748022845762561
 30
0.0
 10
165.45640264998386
 20
14.727991656429296
 30
0.0
 10
165.2899101409062
 20
14.519019260356501
 30
0.0
 10
165.02921279846433
 20
14.189143862267121
 30
0.0
 10
164.67757398539172
 20
13.745490355862046
 30
0.0
 10
164.17157557332868
 20
13.104181264720198
 30
0.0
 10
163.62285392808874
 20
12.387606592490235
 30
0.0
  0
SPLINE
  5
97
330
17
100
AcDbEntity
  8
VISIBLE
100
AcDbSpline
 70
0
 71
1
 72
4
 73
2
 74
0
 40
0.0
 40
0.0
 40
1.0
 40
1.0
 10
165.45047968240894
 20
14.74802284576256
 30
0.0
 10
161.50000000000003
 20
32.0
 30
0.0
  0
SPLINE
  5
98
330
17
100
AcDbEntity
  8
VISIBLE
100
AcDbSpline
 70
0
 71
1
 72
4
 73
2
 74
0
 40
0.0
 40
0.0
 40
1.0
 40
1.0
 10
165.45002693965517
 20
14.750000000000002
 30
0.0
 10
161.5
 20
32.0
 30
0.0
  0
SPLINE
  5
99
330
17
100
AcDbEntity
  8
VISIBLE
100
AcDbSpline
 70
0
 71
1
 72
4
 73
2
 74
0
 40
0.0
 40
0.0
 40
1.0
 40
1.0
 10
165.45002693965517
 20
14.75
 30
0.0
 10
165.4504796824089
 20
14.748022845762563
 30
0.0
  0
SPLINE
  5
9A
330
17
100
AcDbEntity
  8
VISIBLE
100
AcDbSpline
 70
0
 71
1
 72
4
 73
2
 74
0
 40
0.0
 40
0.0
 40
1.0
 40
1.0
 10
-106.63828323255892
 20
-32.0
 30
0.0
 10
-127.15332783651974
 20
-5.12
 30
0.0
  0
SPLINE
  5
9B
330
17
100
AcDbEntity
  8
VISIBLE
100
AcDbSpline
 70
0
 71
1
 72
4
 73
2
 74
0
 40
0.0
 40
0.0
 40
1.0
 40
1.0
 10
106.63828323255896
 20
-32.0
 30
0.0
 10
127.1533278365198
 20
-5.12
 30
0.0
  0
SPLINE
  5
9C
330
17
100
AcDbEntity
  8
VISIBLE
100
AcDbSpline
 70
0
 71
1
 72
4
 73
2
 74
0
 40
0.0
 40
0.0
 40
1.0
 40
1.0
 10
-127.15332783651974
 20
-5.12
 30
0.0
 10
-120.74495785546253
 20
32.0
 30
0.0
  0
SPLINE
  5
9D
330
17
100
AcDbEntity
  8
VISIBLE
100
AcDbSpline
 70
0
 71
1
 72
4
 73
2
 74
0
 40
0.0
 40
0.0
 40
1.0
 40
1.0
 10
127.1533278365198
 20
-5.12
 30
0.0
 10
120.74495785546259
 20
32.0
 30
0.0
  0
SPLINE
  5
9E
330
17
100
AcDbEntity
  8
HIDDEN
100
AcDbSpline
 70
0
 71
1
 72
17
 73
15
 74
0
 40
0.0
 40
0.0
 40
0.07142857142857123
 40
0.14285714285714246
 40
0.21428571428571366
 40
0.2857142857142849
 40
0.35714285714285615
 40
0.4285714285714273
 40
0.49999999999999856
 40
0.5714285714285698
 40
0.642857142857141
 40
0.7142857142857123
 40
0.7857142857142835
 40
0.8571428571428547
 40
0.9285714285714259
 40
1.0
 40
1.0
 10
140.45216899475048
 20
-32.0
 30
0.0
 10
140.75481191898524
 20
-32.0
 30
0.0
 10
141.04082883435296
 20
-32.0
 30
0.0
 10
141.30893964380584
 20
-32.0
 30
0.0
 10
141.55794439084735
 20
-32.0
 30
0.0
 10
141.7867286300567
 20
-32.0
 30
0.0
 10
141.9942684148997
 20
-32.0
 30
0.0
 10
142.17963488050282
 20
-32.0
 30
0.0
 10
142.34199840088024
 20
-32.0
 30
0.0
 10
142.48063230200685
 20
-32.0
 30
0.0
 10
142.59491611412005
 20
-32.0
 30
0.0
 10
142.68433834869376
 20
-32.0
 30
0.0
 10
142.74849878765562
 20
-32.0
 30
0.0
 10
142.78711027460307
 20
-32.0
 30
0.0
 10
142.79999999999998
 20
-32.0
 30
0.0
  0
LINE
  5
9F
330
17
100
AcDbEntity
  8
HIDDEN
100
AcDbLine
 10
140.45216899475048
 20
-32.0
 30
0.0
 11
110.05045222730945
 21
-32.0
 31
0.0
  0
SPLINE
  5
A0
330
17
100
AcDbEntity
  8
HIDDEN
100
AcDbSpline
 70
0
 71
3
 72
8
 73
4
 74
0
 40
0.0
 40
0.0
 40
0.0
 40
0.0
 40
1.0
 40
1.0
 40
1.0
 40
1.0
 10
106.63828323255896
 20
-32.0
 30
0.0
 10
107.85653883041721
 20
-31.999999999999982
 30
0.0
 10
109.06944998315214
 20
-32.0
 30
0.0
 10
110.05045222730946
 20
-32.0
 30
0.0
  0
LINE
  5
A1
330
17
100
AcDbEntity
  8
HIDDEN
100
AcDbLine
 10
106.63828323255896
 20
-32.0
 30
0.0
 11
-106.63828323255893
 21
-32.0
 31
0.0
  0
SPLINE
  5
A2
330
17
100
AcDbEntity
  8
HIDDEN
100
AcDbSpline
 70
0
 71
3
 72
8
 73
4
 74
0
 40
0.0
 40
0.0
 40
0.0
 40
0.0
 40
1.0
 40
1.0
 40
1.0
 40
1.0
 10
-110.05045222730945
 20
-32.0
 30
0.0
 10
-109.06944998315204
 20
-31.999999999999975
 30
0.0
 10
-107.85653883041728
 20
-32.000000000000014
 30
0.0
 10
-106.63828323255893
 20
-32.0
 30
0.0
  0
LINE
  5
A3
330
17
100
AcDbEntity
  8
HIDDEN
100
AcDbLine
 10
-110.05045222730945
 20
-32.0
 30
0.0
 11
-140.45216899475054
 21
-32.0
 31
0.0
  0
SPLINE
  5
A4
330
17
100
AcDbEntity
  8
HIDDEN
100
AcDbSpline
 70
0
 71
1
 72
17
 73
15
 74
0
 40
0.0
 40
0.0
 40
0.06691240050939092
 40
0.13382480101878183
 40
0.20073720152817276
 40
0.26764960203756366
 40
0.33456200254695456
 40
0.40147440305634546
 40
0.46838680356573636
 40
0.5352992040751273
 40
0.6022116045845183
 40
0.6691240050939092
 40
0.7360364056033002
 40
0.8029488061126911
 40
0.8698612066220821
 40
0.9367736071314727
 40
0.9367736071314727
 10
-142.79999999999998
 20
-32.0
 30
0.0
 10
-142.78711027460307
 20
-32.0
 30
0.0
 10
-142.7484987876556
 20
-32.0
 30
0.0
 10
-142.68433834869376
 20
-32.0
 30
0.0
 10
-142.59491611412008
 20
-32.0
 30
0.0
 10
-142.48063230200682
 20
-32.0
 30
0.0
 10
-142.34199840088024
 20
-32.0
 30
0.0
 10
-142.17963488050282
 20
-32.0
 30
0.0
 10
-141.9942684148997
 20
-32.0
 30
0.0
 10
-141.7867286300567
 20
-32.0
 30
0.0
 10
-141.55794439084735
 20
-32.0
 30
0.0
 10
-141.3089396438059
 20
-32.0
 30
0.0
 10
-141.04082883435302
 20
-32.0
 30
0.0
 10
-140.75481191898524
 20
-32.0
 30
0.0
 10
-140.45216899475048
 20
-32.0
 30
0.0
  0
SPLINE
  5
A5
330
17
100
AcDbEntity
  8
HIDDEN
100
AcDbSpline
 70
0
 71
2
 72
6
 73
3
 74
0
 40
0.0
 40
0.0
 40
0.0
 40
1.0
 40
1.0
 40
1.0
 10
164.30297619047616
 20
-10.75
 30
0.0
 10
164.30296651645222
 20
-10.750009560211886
 30
0.0
 10
164.30789365843194
 20
-10.745140384608426
 30
0.0
  0
SPLINE
  5
A6
330
17
100
AcDbEntity
  8
HIDDEN
100
AcDbSpline
 70
0
 71
1
 72
4
 73
2
 74
0
 40
0.0
 40
0.0
 40
1.0
 40
1.0
 10
164.3029761904762
 20
-10.75
 30
0.0
 10
164.30789365843194
 20
-10.745140384608423
 30
0.0
  0
SPLINE
  5
A7
330
17
100
AcDbEntity
  8
HIDDEN
100
AcDbSpline
 70
0
 71
3
 72
20
 73
16
 74
0
 40
0.0
 40
0.0
 40
0.0
 40
0.0
 40
0.3274510730489368
 40
0.3274510730489368
 40
0.3274510730489368
 40
0.4722940257369071
 40
0.4722940257369071
 40
0.4722940257369071
 40
0.5817505724909172
 40
0.5817505724909172
 40
0.5817505724909172
 40
0.7484017942503418
 40
0.7484017942503418
 40
0.7484017942503418
 40
1.0
 40
1.0
 40
1.0
 40
1.0
 10
168.32136753857552
 20
-5.119999999999999
 30
0.0
 10
167.5368538066386
 20
-5.753520492027202
 30
0.0
 10
166.76411134804596
 20
-6.4272672026994755
 30
0.0
 10
166.0927620294869
 20
-7.186033300605435
 30
0.0
 10
165.79700602900326
 20
-7.520835932523511
 30
0.0
 10
165.52408640707404
 20
-7.872639938735318
 30
0.0
 10
165.29268992771574
 20
-8.228360925644177
 30
0.0
 10
165.11699151645135
 20
-8.499198368081643
 30
0.0
 10
164.96777084138674
 20
-8.764014384605595
 30
0.0
 10
164.84502790252228
 20
-9.022808975216035
 30
0.0
 10
164.65831338345205
 20
-9.413580761223619
 30
0.0
 10
164.53989099304542
 20
-9.769392665272907
 30
0.0
 10
164.4671660755648
 20
-10.04693909081272
 30
0.0
 10
164.35653686771047
 20
-10.468421500505569
 30
0.0
 10
164.34423005252006
 20
-10.710306895073241
 30
0.0
 10
164.30789365843194
 20
-10.745140384608423
 30
0.0
  0
SPLINE
  5
A8
330
17
100
AcDbEntity
  8
HIDDEN
100
AcDbSpline
 70
0
 71
2
 72
6
 73
3
 74
0
 40
0.0
 40
0.0
 40
0.0
 40
1.0
 40
1.0
 40
1.0
 10
167.6666969480156
 20
-5.12
 30
0.0
 10
168.01546176381154
 20
-5.119999999999999
 30
0.0
 10
168.3213675432445
 20
-5.12
 30
0.0
  0
SPLINE
  5
A9
330
17
100
AcDbEntity
  8
HIDDEN
100
AcDbSpline
 70
0
 71
1
 72
4
 73
2
 74
0
 40
0.0
 40
0.0
 40
1.0
 40
1.0
 10
140.4521689947505
 20
-32.0
 30
0.0
 10
167.6666969480156
 20
-5.12
 30
0.0
  0
SPLINE
  5
AA
330
17
100
AcDbEntity
  8
HIDDEN
100
AcDbSpline
 70
0
 71
1
 72
4
 73
2
 74
0
 40
0.0
 40
0.0
 40
1.0
 40
1.0
 10
110.05045222730945
 20
-32.0
 30
0.0
 10
130.8200247845354
 20
-5.12
 30
0.0
  0
LINE
  5
AB
330
17
100
AcDbEntity
  8
HIDDEN
100
AcDbLine
 10
167.6666969480156
 20
-5.12
 30
0.0
 11
130.8200247845354
 21
-5.12
 31
0.0
  0
SPLINE
  5
AC
330
17
100
AcDbEntity
  8
HIDDEN
100
AcDbSpline
 70
0
 71
3
 72
20
 73
16
 74
0
 40
0.0
 40
0.0
 40
0.0
 40
0.0
 40
0.49999999999999933
 40
0.49999999999999933
 40
0.49999999999999933
 40
0.642857142857142
 40
0.642857142857142
 40
0.642857142857142
 40
0.7857142857142847
 40
0.7857142857142847
 40
0.7857142857142847
 40
0.9285714285714273
 40
0.9285714285714273
 40
0.9285714285714273
 40
1.0
 40
1.0
 40
1.0
 40
1.0
 10
127.15332783651978
 20
-5.12
 30
0.0
 10
127.81095490010242
 20
-5.119999999999998
 30
0.0
 10
128.46746287634227
 20
-5.120000000000002
 30
0.0
 10
129.09040379984972
 20
-5.119999999999999
 30
0.0
 10
129.26761174650844
 20
-5.120000000000001
 30
0.0
 10
129.44229402501128
 20
-5.119999999999999
 30
0.0
 10
129.61445063535842
 20
-5.12
 30
0.0
 10
129.78501615777347
 20
-5.1199999999999966
 30
0.0
 10
129.9524666022968
 20
-5.120000000000002
 30
0.0
 10
130.11680196892857
 20
-5.120000000000001
 30
0.0
 10
130.27922148319743
 20
-5.119999999999996
 30
0.0
 10
130.43796397014228
 20
-5.120000000000003
 30
0.0
 10
130.59302942976257
 20
-5.12
 30
0.0
 10
130.6686945480201
 20
-5.119999999999996
 30
0.0
 10
130.74435966627777
 20
-5.120000000000003
 30
0.0
 10
130.8200247845354
 20
-5.12
 30
0.0
  0
LINE
  5
AD
330
17
100
AcDbEntity
  8
HIDDEN
100
AcDbLine
 10
127.15332783651978
 20
-5.12
 30
0.0
 11
118.72819436736269
 21
-5.12
 31
0.0
  0
SPLINE
  5
AE
330
17
100
AcDbEntity
  8
HIDDEN
100
AcDbSpline
 70
0
 71
3
 72
11
 73
7
 74
0
 40
0.0
 40
0.0
 40
0.0
 40
0.0
 40
0.6246913587738621
 40
0.6246913587738621
 40
0.6246913587738621
 40
1.0
 40
1.0
 40
1.0
 40
1.0
 10
112.47180563263724
 20
-5.120000000000002
 30
0.0
 10
113.4815955970292
 20
-5.734242997549635
 30
0.0
 10
114.73347366255996
 20
-6.099981884951341
 30
0.0
 10
116.14943722916699
 20
-5.974790266712762
 30
0.0
 10
116.99553879747849
 20
-5.899075793136939
 30
0.0
 10
117.90512069678203
 20
-5.624668429580947
 30
0.0
 10
118.7281943673628
 20
-5.120000000000004
 30
0.0
  0
LINE
  5
AF
330
17
100
AcDbEntity
  8
HIDDEN
100
AcDbLine
 10
112.47180563263733
 20
-5.12
 30
0.0
 11
-112.47180563263723
 21
-5.12
 31
0.0
  0
SPLINE
  5
B0
330
17
100
AcDbEntity
  8
HIDDEN
100
AcDbSpline
 70
0
 71
3
 72
11
 73
7
 74
0
 40
0.0
 40
0.0
 40
0.0
 40
0.0
 40
0.3774027704840148
 40
0.3774027704840148
 40
0.3774027704840148
 40
1.0
 40
1.0
 40
1.0
 40
1.0
 10
-118.72819436736278
 20
-5.1200000000000045
 30
0.0
 10
-117.90047661506918
 20
-5.627526951555011
 30
0.0
 10
-116.98548854861008
 20
-5.902050169742982
 30
0.0
 10
-116.13526250302876
 20
-5.9760768111572675
 30
0.0
 10
-114.72501553629205
 20
-6.097449097837697
 30
0.0
 10
-113.4782521610831
 20
-5.732229798219409
 30
0.0
 10
-112.47180563263724
 20
-5.120000000000003
 30
0.0
  0
LINE
  5
B1
330
17
100
AcDbEntity
  8
HIDDEN
100
AcDbLine
 10
-118.72819436736282
 20
-5.12
 30
0.0
 11
-127.15332783651974
 21
-5.12
 31
0.0
  0
SPLINE
  5
B2
330
17
100
AcDbEntity
  8
HIDDEN
100
AcDbSpline
 70
0
 71
1
 72
4
 73
2
 74
0
 40
0.0
 40
0.0
 40
1.0
 40
1.0
 10
-110.05045222730945
 20
-32.0
 30
0.0
 10
-130.82002478453535
 20
-5.12
 30
0.0
  0
SPLINE
  5
B3
330
17
100
AcDbEntity
  8
HIDDEN
100
AcDbSpline
 70
0
 71
3
 72
20
 73
16
 74
0
 40
0.0
 40
0.0
 40
0.0
 40
0.0
 40
0.07142857142857144
 40
0.07142857142857144
 40
0.07142857142857144
 40
0.214285714285714
 40
0.214285714285714
 40
0.214285714285714
 40
0.35714285714285654
 40
0.35714285714285654
 40
0.35714285714285654
 40
0.49999999999999906
 40
0.49999999999999906
 40
0.49999999999999906
 40
1.0
 40
1.0
 40
1.0
 40
1.0
 10
-130.82002478453532
 20
-5.119999999999999
 30
0.0
 10
-130.74435966627786
 20
-5.120000000000004
 30
0.0
 10
-130.66869454802014
 20
-5.119999999999998
 30
0.0
 10
-130.5930294297625
 20
-5.12
 30
0.0
 10
-130.43796397014214
 20
-5.119999999999999
 30
0.0
 10
-130.27922148319757
 20
-5.120000000000002
 30
0.0
 10
-130.1168019689284
 20
-5.119999999999999
 30
0.0
 10
-129.95246660229674
 20
-5.1199999999999966
 30
0.0
 10
-129.78501615777347
 20
-5.120000000000003
 30
0.0
 10
-129.6144506353584
 20
-5.12
 30
0.0
 10
-129.4422940250113
 20
-5.12
 30
0.0
 10
-129.2676117465084
 20
-5.12
 30
0.0
 10
-129.0904037998497
 20
-5.12
 30
0.0
 10
-128.46746287634218
 20
-5.1199999999999966
 30
0.0
 10
-127.81095490010247
 20
-5.120000000000002
 30
0.0
 10
-127.15332783651974
 20
-5.12
 30
0.0
  0
SPLINE
  5
B4
330
17
100
AcDbEntity
  8
HIDDEN
100
AcDbSpline
 70
0
 71
1
 72
4
 73
2
 74
0
 40
0.0
 40
0.0
 40
1.0
 40
1.0
 10
-140.4521689947505
 20
-32.0
 30
0.0
 10
-167.6666969480156
 20
-5.12
 30
0.0
  0
LINE
  5
B5
330
17
100
AcDbEntity
  8
HIDDEN
100
AcDbLine
 10
-130.82002478453538
 20
-5.12
 30
0.0
 11
-167.6666969480156
 21
-5.12
 31
0.0
  0
SPLINE
  5
B6
330
17
100
AcDbEntity
  8
HIDDEN
100
AcDbSpline
 70
0
 71
1
 72
4
 73
2
 74
0
 40
0.0
 40
0.0
 40
1.0
 40
1.0
 10
-142.8
 20
-32.0
 30
0.0
 10
-170.0
 20
-5.12
 30
0.0
  0
SPLINE
  5
B7
330
17
100
AcDbEntity
  8
HIDDEN
100
AcDbSpline
 70
0
 71
1
 72
17
 73
15
 74
0
 40
0.0
 40
0.0
 40
0.06523759959967336
 40
0.13047519919934672
 40
0.1957127987990201
 40
0.26095039839869344
 40
0.3261879979983668
 40
0.39142559759804013
 40
0.4566631971977135
 40
0.5219007967973869
 40
0.5871383963970602
 40
0.6523759959967336
 40
0.7176135955964069
 40
0.7828511951960803
 40
0.8480887947957536
 40
0.9133263943954271
 40
0.9133263943954271
 10
-170.0
 20
-5.12
 30
0.0
 10
-169.98723669441875
 20
-5.12
 30
0.0
 10
-169.94900107833143
 20
-5.12
 30
0.0
 10
-169.88545582268887
 20
-5.12
 30
0.0
 10
-169.79687127666298
 20
-5.12
 30
0.0
 10
-169.68362431746397
 20
-5.12
 30
0.0
 10
-169.54619674694078
 20
-5.12
 30
0.0
 10
-169.3851732417859
 20
-5.12
 30
0.0
 10
-169.20123886606677
 20
-5.12
 30
0.0
 10
-168.99517615666468
 20
-5.12
 30
0.0
 10
-168.76786179402274
 20
-5.12
 30
0.0
 10
-168.52026287236538
 20
-5.12
 30
0.0
 10
-168.25343278525884
 20
-5.12
 30
0.0
 10
-167.9685067440164
 20
-5.12
 30
0.0
 10
-167.6666969480156
 20
-5.12
 30
0.0
  0
SPLINE
  5
B8
330
17
100
AcDbEntity
  8
HIDDEN
100
AcDbSpline
 70
0
 71
1
 72
17
 73
15
 74
0
 40
0.0
 40
0.0
 40
0.0663416387973123
 40
0.1326832775946246
 40
0.19902491639193687
 40
0.2653665551892492
 40
0.3317081939865615
 40
0.3980498327838738
 40
0.4643914715811861
 40
0.5307331103784984
 40
0.5970747491758106
 40
0.6634163879731229
 40
0.7297580267704351
 40
0.7960996655677474
 40
0.8624413043650596
 40
0.9287829431623722
 40
0.9287829431623722
 10
-161.5
 20
32.0
 30
0.0
 10
-161.4868012028437
 20
32.0
 30
0.0
 10
-161.44726288079033
 20
32.0
 30
0.0
 10
-161.38155898660403
 20
32.0
 30
0.0
 10
-161.28997859107545
 20
32.0
 30
0.0
 10
-161.1729246112259
 20
32.0
 30
0.0
 10
-161.03091203763424
 20
32.0
 30
0.0
 10
-160.86456566868458
 20
32.0
 30
0.0
 10
-160.674617361704
 20
32.0
 30
0.0
 10
-160.46190281308398
 20
32.0
 30
0.0
 10
-160.2273578815509
 20
32.0
 30
0.0
 10
-159.97201447076324
 20
32.0
 30
0.0
 10
-159.6969959893491
 20
32.0
 30
0.0
 10
-159.4035124083585
 20
32.0
 30
0.0
 10
-159.09285493787627
 20
32.0
 30
0.0
  0
LINE
  5
B9
330
17
100
AcDbEntity
  8
HIDDEN
100
AcDbLine
 10
-124.33781279333886
 20
32.0
 30
0.0
 11
-159.09285493787627
 21
32.0
 31
0.0
  0
SPLINE
  5
BA
330
17
100
AcDbEntity
  8
HIDDEN
100
AcDbSpline
 70
0
 71
3
 72
11
 73
7
 74
0
 40
0.0
 40
0.0
 40
0.0
 40
0.0
 40
0.4999999999999994
 40
0.4999999999999994
 40
0.4999999999999994
 40
1.0
 40
1.0
 40
1.0
 40
1.0
 10
-124.33781279333881
 20
31.999999999999993
 30
0.0
 10
-123.82257366650752
 20
31.999999999999986
 30
0.0
 10
-123.24695078016467
 20
32.00000000000001
 30
0.0
 10
-122.63808978698142
 20
32.0
 30
0.0
 10
-122.0282386479317
 20
31.999999999999975
 30
0.0
 10
-121.38711649886805
 20
32.000000000000014
 30
0.0
 10
-120.74495785546259
 20
32.0
 30
0.0
  0
LINE
  5
BB
330
17
100
AcDbEntity
  8
HIDDEN
100
AcDbLine
 10
120.74495785546259
 20
32.0
 30
0.0
 11
-120.7449578554626
 21
32.0
 31
0.0
  0
SPLINE
  5
BC
330
17
100
AcDbEntity
  8
HIDDEN
100
AcDbSpline
 70
0
 71
3
 72
11
 73
7
 74
0
 40
0.0
 40
0.0
 40
0.0
 40
0.0
 40
0.5
 40
0.5
 40
0.5
 40
1.0
 40
1.0
 40
1.0
 40
1.0
 10
120.74495785546259
 20
32.0
 30
0.0
 10
121.38711649886801
 20
31.999999999999982
 30
0.0
 10
122.02823864793183
 20
32.0
 30
0.0
 10
122.63808978698142
 20
32.0
 30
0.0
 10
123.2469507801646
 20
31.999999999999982
 30
0.0
 10
123.82257366650758
 20
32.0
 30
0.0
 10
124.33781279333886
 20
32.0
 30
0.0
  0
SPLINE
  5
BD
330
17
100
AcDbEntity
  8
HIDDEN
100
AcDbSpline
 70
0
 71
1
 72
17
 73
15
 74
0
 40
0.0
 40
0.0
 40
0.07142857142857142
 40
0.14285714285714285
 40
0.21428571428571427
 40
0.2857142857142857
 40
0.35714285714285715
 40
0.42857142857142855
 40
0.5
 40
0.5714285714285714
 40
0.6428571428571429
 40
0.7142857142857143
 40
0.7857142857142857
 40
0.8571428571428571
 40
0.9285714285714286
 40
1.0
 40
1.0
 10
159.09285493787627
 20
32.0
 30
0.0
 10
159.4035124083585
 20
32.0
 30
0.0
 10
159.69699598934906
 20
32.0
 30
0.0
 10
159.97201447076324
 20
32.0
 30
0.0
 10
160.2273578815509
 20
32.0
 30
0.0
 10
160.46190281308395
 20
32.0
 30
0.0
 10
160.674617361704
 20
32.0
 30
0.0
 10
160.86456566868455
 20
32.0
 30
0.0
 10
161.03091203763424
 20
32.0
 30
0.0
 10
161.17292461122594
 20
32.0
 30
0.0
 10
161.28997859107545
 20
32.0
 30
0.0
 10
161.38155898660403
 20
32.0
 30
0.0
 10
161.44726288079028
 20
32.0
 30
0.0
 10
161.4868012028437
 20
32.0
 30
0.0
 10
161.5
 20
32.0
 30
0.0
  0
LINE
  5
BE
330
17
100
AcDbEntity
  8
HIDDEN
100
AcDbLine
 10
159.09285493787627
 20
32.0
 30
0.0
 11
124.33781279333886
 21
32.0
 31
0.0
  0
SPLINE
  5
BF
330
17
100
AcDbEntity
  8
HIDDEN
100
AcDbSpline
 70
0
 71
1
 72
4
 73
2
 74
0
 40
0.0
 40
0.0
 40
1.0
 40
1.0
 10
-123.42093486913934
 20
32.0
 30
0.0
 10
-157.87159747938236
 20
32.0
 30
0.0
  0
SPLINE
  5
C0
330
17
100
AcDbEntity
  8
HIDDEN
100
AcDbSpline
 70
0
 71
3
 72
11
 73
7
 74
0
 40
0.0
 40
0.0
 40
0.0
 40
0.0
 40
0.6099966193074535
 40
0.6099966193074535
 40
0.6099966193074535
 40
1.0
 40
1.0
 40
1.0
 40
1.0
 10
-157.8715974793824
 20
32.0
 30
0.0
 10
-158.78919464656803
 20
31.999999999999982
 30
0.0
 10
-159.50580092713705
 20
32.0
 30
0.0
 10
-159.91021799870128
 20
32.0
 30
0.0
 10
-160.17153014443954
 20
32.0
 30
0.0
 10
-160.30275911940555
 20
32.0
 30
0.0
 10
-160.3039049235993
 20
32.0
 30
0.0
  0
SPLINE
  5
C1
330
17
100
AcDbEntity
  8
HIDDEN
100
AcDbSpline
 70
0
 71
3
 72
11
 73
7
 74
0
 40
0.0
 40
0.0
 40
0.0
 40
0.0
 40
0.6620033652123983
 40
0.6620033652123983
 40
0.6620033652123983
 40
1.0
 40
1.0
 40
1.0
 40
1.0
 10
-160.30390492359933
 20
32.0
 30
0.0
 10
-160.30641306633015
 20
31.999999999999982
 30
0.0
 10
-159.91230382280895
 20
32.0
 30
0.0
 10
-159.19303666992877
 20
32.00000000000001
 30
0.0
 10
-158.82717455976476
 20
31.99999999999998
 30
0.0
 10
-158.379359714782
 20
32.00000000000001
 30
0.0
 10
-157.87159747938242
 20
32.0
 30
0.0
  0
SPLINE
  5
C2
330
17
100
AcDbEntity
  8
HIDDEN
100
AcDbSpline
 70
0
 71
1
 72
4
 73
2
 74
0
 40
0.0
 40
0.0
 40
1.0
 40
1.0
 10
-157.87159747938242
 20
32.0
 30
0.0
 10
-123.42093486913937
 20
32.0
 30
0.0
  0
SPLINE
  5
C3
330
17
100
AcDbEntity
  8
HIDDEN
100
AcDbSpline
 70
0
 71
3
 72
8
 73
4
 74
0
 40
0.0
 40
0.0
 40
0.0
 40
0.0
 40
1.0
 40
1.0
 40
1.0
 40
1.0
 10
-123.4209348691394
 20
32.0
 30
0.0
 10
-122.39806528706424
 20
31.999999999999982
 30
0.0
 10
-121.12761605880979
 20
32.0
 30
0.0
 10
-119.85324231335638
 20
32.0
 30
0.0
  0
SPLINE
  5
C4
330
17
100
AcDbEntity
  8
HIDDEN
100
AcDbSpline
 70
0
 71
1
 72
4
 73
2
 74
0
 40
0.0
 40
0.0
 40
1.0
 40
1.0
 10
-119.8532423133563
 20
32.0
 30
0.0
 10
119.85324231335625
 20
32.0
 30
0.0
  0
SPLINE
  5
C5
330
17
100
AcDbEntity
  8
HIDDEN
100
AcDbSpline
 70
0
 71
3
 72
8
 73
4
 74
0
 40
0.0
 40
0.0
 40
0.0
 40
0.0
 40
1.0
 40
1.0
 40
1.0
 40
1.0
 10
119.85324231335628
 20
32.0
 30
0.0
 10
121.1276160693581
 20
31.999999999999982
 30
0.0
 10
122.39806533079457
 20
32.0
 30
0.0
 10
123.42093486913933
 20
32.0
 30
0.0
  0
SPLINE
  5
C6
330
17
100
AcDbEntity
  8
HIDDEN
100
AcDbSpline
 70
0
 71
1
 72
4
 73
2
 74
0
 40
0.0
 40
0.0
 40
1.0
 40
1.0
 10
123.42093486913933
 20
32.0
 30
0.0
 10
157.8715974793824
 20
32.0
 30
0.0
  0
SPLINE
  5
C7
330
17
100
AcDbEntity
  8
HIDDEN
100
AcDbSpline
 70
0
 71
3
 72
11
 73
7
 74
0
 40
0.0
 40
0.0
 40
0.0
 40
0.0
 40
0.49999713271920865
 40
0.49999713271920865
 40
0.49999713271920865
 40
1.0
 40
1.0
 40
1.0
 40
1.0
 10
157.87159747938242
 20
32.0
 30
0.0
 10
158.62317252315043
 20
31.999999999999982
 30
0.0
 10
159.24158604247467
 20
32.0
 30
0.0
 10
159.66142269367288
 20
32.0
 30
0.0
 10
160.08274714242967
 20
31.99999999999997
 30
0.0
 10
160.30473521189225
 20
32.00000000000002
 30
0.0
 10
160.30390492359933
 20
32.0
 30
0.0
  0
SPLINE
  5
C8
330
17
100
AcDbEntity
  8
HIDDEN
100
AcDbSpline
 70
0
 71
3
 72
11
 73
7
 74
0
 40
0.0
 40
0.0
 40
0.0
 40
0.0
 40
0.5180074972060308
 40
0.5180074972060308
 40
0.5180074972060308
 40
1.0
 40
1.0
 40
1.0
 40
1.0
 10
160.30390492359936
 20
32.0
 30
0.0
 10
160.30485978772828
 20
31.999999999999982
 30
0.0
 10
160.0663007576258
 20
32.0
 30
0.0
 10
159.61525297058137
 20
32.0
 30
0.0
 10
159.19700444801884
 20
31.99999999999998
 30
0.0
 10
158.59604818582113
 20
32.00000000000001
 30
0.0
 10
157.8715974793824
 20
32.0
 30
0.0
  0
SPLINE
  5
C9
330
17
100
AcDbEntity
  8
HIDDEN
100
AcDbSpline
 70
0
 71
1
 72
4
 73
2
 74
0
 40
0.0
 40
0.0
 40
1.0
 40
1.0
 10
157.8715974793824
 20
32.0
 30
0.0
 10
123.42093486913933
 20
32.0
 30
0.0
  0
SPLINE
  5
CA
330
17
100
AcDbEntity
  8
HIDDEN
100
AcDbSpline
 70
0
 71
3
 72
8
 73
4
 74
0
 40
0.0
 40
0.0
 40
0.0
 40
0.0
 40
1.0
 40
1.0
 40
1.0
 40
1.0
 10
123.42093486913933
 20
32.0
 30
0.0
 10
122.39806201726014
 20
31.999999999999982
 30
0.0
 10
121.12761208886366
 20
32.0
 30
0.0
 10
119.85324231335625
 20
32.0
 30
0.0
  0
SPLINE
  5
CB
330
17
100
AcDbEntity
  8
HIDDEN
100
AcDbSpline
 70
0
 71
1
 72
4
 73
2
 74
0
 40
0.0
 40
0.0
 40
1.0
 40
1.0
 10
119.8532423133563
 20
32.0
 30
0.0
 10
-119.8532423133563
 20
32.0
 30
0.0
  0
SPLINE
  5
CC
330
17
100
AcDbEntity
  8
HIDDEN
100
AcDbSpline
 70
0
 71
3
 72
8
 73
4
 74
0
 40
0.0
 40
0.0
 40
0.0
 40
0.0
 40
1.0
 40
1.0
 40
1.0
 40
1.0
 10
-119.85324231335632
 20
32.0
 30
0.0
 10
-121.12761514488525
 20
31.999999999999982
 30
0.0
 10
-122.39806536454378
 20
32.0
 30
0.0
 10
-123.42093486913939
 20
32.0
 30
0.0
  0
SPLINE
  5
CD
330
17
100
AcDbEntity
  8
HIDDEN
100
AcDbSpline
 70
0
 71
3
 72
14
 73
10
 74
0
 40
0.0
 40
0.0
 40
0.0
 40
0.0
 40
0.4054360577046934
 40
0.4054360577046934
 40
0.4054360577046934
 40
0.5697774450926825
 40
0.5697774450926825
 40
0.5697774450926825
 40
1.0
 40
1.0
 40
1.0
 40
1.0
 10
-109.60000000000002
 20
1.7763568394002505e-14
 30
0.0
 10
-109.59714037273243
 20
-0.8937796724265541
 30
0.0
 10
-109.81013638389909
 20
-1.8038044054691929
 30
0.0
 10
-110.18261988093872
 20
-2.5791457201173027
 30
0.0
 10
-110.33376897845935
 20
-2.8948483397630516
 30
0.0
 10
-110.50580181957719
 20
-3.18874764730772
 30
0.0
 10
-110.69871840429181
 20
-3.460843642751299
 30
0.0
 10
-111.2019191030545
 20
-4.1728002787017795
 30
0.0
 10
-111.81923705718702
 20
-4.721235552686961
 30
0.0
 10
-112.4718056326373
 20
-5.120000000000001
 30
0.0
  0
SPLINE
  5
CE
330
17
100
AcDbEntity
  8
HIDDEN
100
AcDbSpline
 70
0
 71
3
 72
14
 73
10
 74
0
 40
0.0
 40
0.0
 40
0.0
 40
0.0
 40
0.5921222874482749
 40
0.5921222874482749
 40
0.5921222874482749
 40
0.7960611437241374
 40
0.7960611437241374
 40
0.7960611437241374
 40
1.0
 40
1.0
 40
1.0
 40
1.0
 10
-112.4718056326373
 20
-5.120000000000003
 30
0.0
 10
-113.4044988554756
 20
-5.686947375169506
 30
0.0
 10
-114.55805335761485
 20
-6.054007200989458
 30
0.0
 10
-115.8961309025599
 20
-5.992687751631051
 30
0.0
 10
-116.35573796252251
 20
-5.970116186336516
 30
0.0
 10
-116.83707903571243
 20
-5.892675041028654
 30
0.0
 10
-117.31861093442211
 20
-5.748597782664923
 30
0.0
 10
-117.79970761870639
 20
-5.605165940353405
 30
0.0
 10
-118.28084386657599
 20
-5.393734512115757
 30
0.0
 10
-118.72819436736273
 20
-5.120000000000003
 30
0.0
  0
SPLINE
  5
CF
330
17
100
AcDbEntity
  8
HIDDEN
100
AcDbSpline
 70
0
 71
3
 72
32
 73
28
 74
0
 40
0.0
 40
0.0
 40
0.0
 40
0.0
 40
0.15186022974044508
 40
0.15186022974044508
 40
0.15186022974044508
 40
0.2200651082178999
 40
0.2200651082178999
 40
0.2200651082178999
 40
0.2676144812916448
 40
0.2676144812916448
 40
0.2676144812916448
 40
0.34349571903243337
 40
0.34349571903243337
 40
0.34349571903243337
 40
0.3918008476654063
 40
0.3918008476654063
 40
0.3918008476654063
 40
0.5419843231012405
 40
0.5419843231012405
 40
0.5419843231012405
 40
0.7480648212841756
 40
0.7480648212841756
 40
0.7480648212841756
 40
0.8959684194955759
 40
0.8959684194955759
 40
0.8959684194955759
 40
1.0
 40
1.0
 40
1.0
 40
1.0
 10
-118.72819436736272
 20
-5.120000000000001
 30
0.0
 10
-119.69192143992429
 20
-4.529910789209833
 30
0.0
 10
-120.56236206271407
 20
-3.6281620986321634
 30
0.0
 10
-121.10383254811062
 20
-2.389105958796726
 30
0.0
 10
-121.34502711622675
 20
-1.8343718793315975
 30
0.0
 10
-121.51372468887313
 20
-1.211788515749169
 30
0.0
 10
-121.57443977540936
 20
-0.5532353658312734
 30
0.0
 10
-121.61712243144599
 20
-0.09481704368379036
 30
0.0
 10
-121.60674597865696
 20
0.37950653271383583
 30
0.0
 10
-121.54001692098271
 20
0.8462854001099633
 30
0.0
 10
-121.43491868282845
 20
1.592299119247623
 30
0.0
 10
-121.18360651268365
 20
2.3112908426368723
 30
0.0
 10
-120.8361260860536
 20
2.92967295289924
 30
0.0
 10
-120.6129040908496
 20
3.3249262536148154
 30
0.0
 10
-120.35959471562037
 20
3.680186567337548
 30
0.0
 10
-120.07619796036565
 20
3.9954538940674347
 30
0.0
 10
-119.1971322419349
 20
4.975302116672708
 30
0.0
 10
-118.12440823673275
 20
5.5528070219587065
 30
0.0
 10
-117.05198172860227
 20
5.821662053039962
 30
0.0
 10
-115.57536976353056
 20
6.184799380649814
 30
0.0
 10
-114.06334703836232
 20
5.990544194916558
 30
0.0
 10
-112.7272859326913
 20
5.267590899783965
 30
0.0
 10
-111.77274620002571
 20
4.745562503705853
 30
0.0
 10
-110.89502612026938
 20
3.9352062233660203
 30
0.0
 10
-110.29181764197598
 20
2.796998400779386
 30
0.0
 10
-109.87020016186501
 20
2.0019325255400453
 30
0.0
 10
-109.5984049337574
 20
1.028535773493056
 30
0.0
 10
-109.60000000000002
 20
1.7763568394002505e-14
 30
0.0
  0
SPLINE
  5
D0
330
17
100
AcDbEntity
  8
HIDDEN
100
AcDbSpline
 70
0
 71
3
 72
11
 73
7
 74
0
 40
0.0
 40
0.0
 40
0.0
 40
0.0
 40
0.38867843504290883
 40
0.38867843504290883
 40
0.38867843504290883
 40
1.0
 40
1.0
 40
1.0
 40
1.0
 10
121.60000000000002
 20
1.7763568394002505e-14
 30
0.0
 10
121.60111921046068
 20
-0.9159292427235695
 30
0.0
 10
121.38626232359296
 20
-1.7896942805047498
 30
0.0
 10
121.04105315331319
 20
-2.5288219753120127
 30
0.0
 10
120.49508419557847
 20
-3.6968587830447746
 30
0.0
 10
119.65577191495818
 20
-4.552069740814705
 30
0.0
 10
118.72819436736273
 20
-5.120000000000001
 30
0.0
  0
SPLINE
  5
D1
330
17
100
AcDbEntity
  8
HIDDEN
100
AcDbSpline
 70
0
 71
3
 72
17
 73
13
 74
0
 40
0.0
 40
0.0
 40
0.0
 40
0.0
 40
0.24107453477378618
 40
0.24107453477378618
 40
0.24107453477378618
 40
0.5047571925821488
 40
0.5047571925821488
 40
0.5047571925821488
 40
0.7684398503905113
 40
0.7684398503905113
 40
0.7684398503905113
 40
1.0
 40
1.0
 40
1.0
 40
1.0
 10
118.72819436736269
 20
-5.120000000000004
 30
0.0
 10
118.20002195199204
 20
-5.443497405690384
 30
0.0
 10
117.62420545028398
 20
-5.679184286280493
 30
0.0
 10
117.05695184602904
 20
-5.820420201184136
 30
0.0
 10
116.43569364968671
 20
-5.975870397605202
 30
0.0
 10
115.8274928599279
 20
-6.022770354451767
 30
0.0
 10
115.25818678919595
 20
-5.990255731675709
 30
0.0
 10
114.68808375953127
 20
-5.957521214695572
 30
0.0
 10
114.15632488155305
 20
-5.84651021121019
 30
0.0
 10
113.66658104650341
 20
-5.679955206712461
 30
0.0
 10
113.23617991686248
 20
-5.531813350596944
 30
0.0
 10
112.83792144557381
 20
-5.345161615026129
 30
0.0
 10
112.47180563263736
 20
-5.120000000000004
 30
0.0
  0
SPLINE
  5
D2
330
17
100
AcDbEntity
  8
HIDDEN
100
AcDbSpline
 70
0
 71
3
 72
35
 73
31
 74
0
 40
0.0
 40
0.0
 40
0.0
 40
0.0
 40
0.09904257466778577
 40
0.09904257466778577
 40
0.09904257466778577
 40
0.13691702016489304
 40
0.13691702016489304
 40
0.13691702016489304
 40
0.23750040806201733
 40
0.23750040806201733
 40
0.23750040806201733
 40
0.3280825286790232
 40
0.3280825286790232
 40
0.3280825286790232
 40
0.4430818981219954
 40
0.4430818981219954
 40
0.4430818981219954
 40
0.5863609657116489
 40
0.5863609657116489
 40
0.5863609657116489
 40
0.7332361391030562
 40
0.7332361391030562
 40
0.7332361391030562
 40
0.8448816339747132
 40
0.8448816339747132
 40
0.8448816339747132
 40
0.9186145986488335
 40
0.9186145986488335
 40
0.9186145986488335
 40
1.0
 40
1.0
 40
1.0
 40
1.0
 10
112.47180563263727
 20
-5.119999999999999
 30
0.0
 10
111.81037415205154
 20
-4.715828831638424
 30
0.0
 10
111.18497683991646
 20
-4.157721678621715
 30
0.0
 10
110.67821786676187
 20
-3.4316265287670102
 30
0.0
 10
110.48370010293752
 20
-3.153807605544565
 30
0.0
 10
110.31098462909631
 20
-2.8536788535850244
 30
0.0
 10
110.16007144523869
 20
-2.531240272888394
 30
0.0
 10
109.75885545844582
 20
-1.679352890598518
 30
0.0
 10
109.5547639990243
 20
-0.6677330967336359
 30
0.0
 10
109.60753440090741
 20
0.30059282042631663
 30
0.0
 10
109.65054594083111
 20
1.1740058901098638
 30
0.0
 10
109.88680339157955
 20
1.9946029249431678
 30
0.0
 10
110.23651254956481
 20
2.6894241705287047
 30
0.0
 10
110.68197483729534
 20
3.575513525735301
 30
0.0
 10
111.30000054899443
 20
4.271321799127912
 30
0.0
 10
111.98618894049172
 20
4.789610592331671
 30
0.0
 10
112.84418531255498
 20
5.435139937783842
 30
0.0
 10
113.81329855234172
 20
5.814442293367236
 30
0.0
 10
114.81092319553927
 20
5.947886834554122
 30
0.0
 10
115.83380719229207
 20
6.082379592612506
 30
0.0
 10
116.89485875586011
 20
5.959943817533301
 30
0.0
 10
117.91344877089215
 20
5.536059499721622
 30
0.0
 10
118.68537858385608
 20
5.213040825879137
 30
0.0
 10
119.43680968177082
 20
4.710975830213233
 30
0.0
 10
120.07778867648514
 20
3.993671064164086
 30
0.0
 10
120.4997792262682
 20
3.5211081430769644
 30
0.0
 10
120.8708043272897
 20
2.9516442209898663
 30
0.0
 10
121.13961748279274
 20
2.304916081842677
 30
0.0
 10
121.43783336500722
 20
1.5932672481206644
 30
0.0
 10
121.60189723907264
 20
0.7880556040032676
 30
0.0
 10
121.60000000000002
 20
1.7763568394002505e-14
 30
0.0
  0
LINE
  5
D3
330
17
100
AcDbEntity
  8
HIDDEN
100
AcDbLine
 10
160.23701444326232
 20
-10.75
 30
0.0
 11
164.3029761904762
 21
-10.75
 31
0.0
  0
SPLINE
  5
D4
330
17
100
AcDbEntity
  8
HIDDEN
100
AcDbSpline
 70
0
 71
3
 72
8
 73
4
 74
0
 40
0.0
 40
0.0
 40
0.0
 40
0.0
 40
1.0
 40
1.0
 40
1.0
 40
1.0
 10
160.23701444326232
 20
-10.75
 30
0.0
 10
159.84858549709526
 20
-10.75160380533122
 30
0.0
 10
159.45423759160474
 20
-10.501873744947323
 30
0.0
 10
159.03224231417212
 20
-10.047816239529068
 30
0.0
  0
SPLINE
  5
D5
330
17
100
AcDbEntity
  8
HIDDEN
100
AcDbSpline
 70
0
 71
3
 72
20
 73
16
 74
0
 40
0.0
 40
0.0
 40
0.0
 40
0.0
 40
0.21990738448713992
 40
0.21990738448713992
 40
0.21990738448713992
 40
0.3733061526954653
 40
0.3733061526954653
 40
0.3733061526954653
 40
0.5041005235060145
 40
0.5041005235060145
 40
0.5041005235060145
 40
0.7288928840235056
 40
0.7288928840235056
 40
0.7288928840235056
 40
1.0
 40
1.0
 40
1.0
 40
1.0
 10
159.03224231417212
 20
-10.047816239529073
 30
0.0
 10
158.844085555204
 20
-9.848363301709385
 30
0.0
 10
158.72457618151037
 20
-9.576998846752149
 30
0.0
 10
158.77888765594844
 20
-9.205000395950067
 30
0.0
 10
158.815251517868
 20
-8.94748862571645
 30
0.0
 10
158.94401865094716
 20
-8.643908687998792
 30
0.0
 10
159.14436704839346
 20
-8.336578621046867
 30
0.0
 10
159.3142328613582
 20
-8.074349242790424
 30
0.0
 10
159.52995972260842
 20
-7.811810882568363
 30
0.0
 10
159.7650962069668
 20
-7.561101790703571
 30
0.0
 10
160.17096750129284
 20
-7.129250787614236
 30
0.0
 10
160.63001034229134
 20
-6.730422318814896
 30
0.0
 10
161.09774197432859
 20
-6.359889389959353
 30
0.0
 10
161.6638363580727
 20
-5.912673284138066
 30
0.0
 10
162.24796360150575
 20
-5.503877724135915
 30
0.0
 10
162.8345405936557
 20
-5.120000000000003
 30
0.0
  0
SPLINE
  5
D6
330
17
100
AcDbEntity
  8
HIDDEN
100
AcDbSpline
 70
0
 71
3
 72
8
 73
4
 74
0
 40
0.0
 40
0.0
 40
0.0
 40
0.0
 40
1.0
 40
1.0
 40
1.0
 40
1.0
 10
162.83454059365573
 20
-5.120000000000001
 30
0.0
 10
162.6015895379555
 20
-4.715644764712902
 30
0.0
 10
162.38661006594094
 20
-4.260498136353412
 30
0.0
 10
162.2257428176378
 20
-3.7500000000000013
 30
0.0
  0
SPLINE
  5
D7
330
17
100
AcDbEntity
  8
HIDDEN
100
AcDbSpline
 70
0
 71
2
 72
6
 73
3
 74
0
 40
0.0
 40
0.0
 40
0.0
 40
1.0
 40
1.0
 40
1.0
 10
160.58726968174204
 20
-10.75
 30
0.0
 10
160.58588543130122
 20
-10.75
 30
0.0
 10
160.23701444326232
 20
-10.75
 30
0.0
  0
SPLINE
  5
D8
330
17
100
AcDbEntity
  8
HIDDEN
100
AcDbSpline
 70
0
 71
2
 72
6
 73
3
 74
0
 40
0.0
 40
0.0
 40
0.0
 40
1.0
 40
1.0
 40
1.0
 10
160.23701444326235
 20
-10.75
 30
0.0
 10
160.58588532734328
 20
-10.75
 30
0.0
 10
160.5872696817421
 20
-10.75
 30
0.0
  0
LINE
  5
D9
330
17
100
AcDbEntity
  8
HIDDEN
100
AcDbLine
 10
160.23701444326235
 20
-10.75
 30
0.0
 11
164.3029761904762
 21
-10.75
 31
0.0
  0
SPLINE
  5
DA
330
17
100
AcDbEntity
  8
HIDDEN
100
AcDbSpline
 70
0
 71
3
 72
8
 73
4
 74
0
 40
0.0
 40
0.0
 40
0.0
 40
0.0
 40
1.0
 40
1.0
 40
1.0
 40
1.0
 10
159.03224231417212
 20
-10.047816239529068
 30
0.0
 10
159.4542376555297
 20
-10.501873805047378
 30
0.0
 10
159.8485854848239
 20
-10.75160378132828
 30
0.0
 10
160.23701444326235
 20
-10.75
 30
0.0
  0
SPLINE
  5
DB
330
17
100
AcDbEntity
  8
HIDDEN
100
AcDbSpline
 70
0
 71
3
 72
23
 73
19
 74
0
 40
0.0
 40
0.0
 40
0.0
 40
0.0
 40
0.219192695415979
 40
0.219192695415979
 40
0.219192695415979
 40
0.4126532337929038
 40
0.4126532337929038
 40
0.4126532337929038
 40
0.5554189128469357
 40
0.5554189128469357
 40
0.5554189128469357
 40
0.7105535834406519
 40
0.7105535834406519
 40
0.7105535834406519
 40
0.8099703639143787
 40
0.8099703639143787
 40
0.8099703639143787
 40
1.0
 40
1.0
 40
1.0
 40
1.0
 10
162.83454059365565
 20
-5.120000000000004
 30
0.0
 10
162.35888919422678
 20
-5.429234092353511
 30
0.0
 10
161.88890002193898
 20
-5.7583125003307964
 30
0.0
 10
161.42457307679257
 20
-6.107235223931861
 30
0.0
 10
161.0134321779595
 20
-6.415254728814924
 30
0.0
 10
160.61699606688452
 20
-6.744528951327627
 30
0.0
 10
160.23526474356737
 20
-7.095057891469952
 30
0.0
 10
159.95640832900455
 20
-7.3541460946399715
 30
0.0
 10
159.68988188752266
 20
-7.6272257335137095
 30
0.0
 10
159.45817939808668
 20
-7.9101312306919365
 30
0.0
 10
159.20662014220798
 20
-8.216570567897987
 30
0.0
 10
158.99923504033248
 20
-8.536650029607182
 30
0.0
 10
158.88295112434673
 20
-8.83098505524817
 30
0.0
 10
158.8082993229597
 20
-9.020709058341549
 30
0.0
 10
158.76932766179547
 20
-9.19416361044307
 30
0.0
 10
158.766036140854
 20
-9.351348711552712
 30
0.0
 10
158.75863939580242
 20
-9.650406049429114
 30
0.0
 10
158.86959608290607
 20
-9.8750376483723
 30
0.0
 10
159.03224231417204
 20
-10.047816239529075
 30
0.0
  0
SPLINE
  5
DC
330
17
100
AcDbEntity
  8
HIDDEN
100
AcDbSpline
 70
0
 71
3
 72
8
 73
4
 74
0
 40
0.0
 40
0.0
 40
0.0
 40
0.0
 40
1.0
 40
1.0
 40
1.0
 40
1.0
 10
162.83454059365567
 20
-5.120000000000001
 30
0.0
 10
162.6015895379555
 20
-4.715644764712871
 30
0.0
 10
162.38661006594094
 20
-4.260498136353391
 30
0.0
 10
162.22574281763775
 20
-3.75
 30
0.0
  0
SPLINE
  5
DD
330
17
100
AcDbEntity
  8
HIDDEN
100
AcDbSpline
 70
0
 71
2
 72
6
 73
3
 74
0
 40
0.0
 40
0.0
 40
0.0
 40
1.0
 40
1.0
 40
1.0
 10
167.6856724150307
 20
-3.750000000000001
 30
0.0
 10
167.27388812781317
 20
-2.6409955434148578
 30
0.0
 10
166.83993414043195
 20
-1.5405737193182656
 30
0.0
  0
SPLINE
  5
DE
330
17
100
AcDbEntity
  8
HIDDEN
100
AcDbSpline
 70
0
 71
1
 72
4
 73
2
 74
0
 40
0.0
 40
0.0
 40
0.0964285097166431
 40
0.0964285097166431
 10
167.6666969480156
 20
-5.12
 30
0.0
 10
166.83993414043192
 20
-1.5405737193182092
 30
0.0
  0
SPLINE
  5
DF
330
17
100
AcDbEntity
  8
HIDDEN
100
AcDbSpline
 70
0
 71
2
 72
6
 73
3
 74
0
 40
0.0
 40
0.0
 40
0.0
 40
1.0
 40
1.0
 40
1.0
 10
163.2349562706086
 20
7.561792607629652
 30
0.0
 10
165.04093901546938
 20
3.01619029305374
 30
0.0
 10
166.83993414043192
 20
-1.5405737193183349
 30
0.0
  0
SPLINE
  5
E0
330
17
100
AcDbEntity
  8
HIDDEN
100
AcDbSpline
 70
0
 71
2
 72
6
 73
3
 74
0
 40
0.0
 40
0.0
 40
0.0
 40
1.0
 40
1.0
 40
1.0
 10
162.90352424938533
 20
10.9504761850307
 30
0.0
 10
162.85668578872065
 20
10.782430560954133
 30
0.0
 10
162.82220219035185
 20
10.59954363864121
 30
0.0
  0
SPLINE
  5
E1
330
17
100
AcDbEntity
  8
HIDDEN
100
AcDbSpline
 70
0
 71
2
 72
6
 73
3
 74
0
 40
0.0
 40
0.0
 40
0.0
 40
1.0
 40
1.0
 40
1.0
 10
162.75980725827634
 20
10.119222548089848
 30
0.0
 10
162.7506867155027
 20
9.996827065108992
 30
0.0
 10
162.74822219916774
 20
9.869990931114932
 30
0.0
  0
SPLINE
  5
E2
330
17
100
AcDbEntity
  8
HIDDEN
100
AcDbSpline
 70
0
 71
1
 72
4
 73
2
 74
0
 40
0.0
 40
0.0
 40
1.0
 40
1.0
 10
162.8805335012446
 20
8.641260128767719
 30
0.0
 10
162.91301923038202
 20
8.50714663244294
 30
0.0
  0
SPLINE
  5
E3
330
17
100
AcDbEntity
  8
HIDDEN
100
AcDbSpline
 70
0
 71
1
 72
4
 73
2
 74
0
 40
0.0
 40
0.0
 40
1.0
 40
1.0
 10
163.62285392808877
 20
12.387606592490236
 30
0.0
 10
159.0928549378763
 20
32.0
 30
0.0
  0
SPLINE
  5
E4
330
17
100
AcDbEntity
  8
HIDDEN
100
AcDbSpline
 70
0
 71
1
 72
4
 73
2
 74
0
 40
0.0
 40
0.0
 40
1.0
 40
1.0
 10
130.8200247845354
 20
-5.12
 30
0.0
 10
124.33781279333886
 20
32.0
 30
0.0
  0
SPLINE
  5
E5
330
17
100
AcDbEntity
  8
HIDDEN
100
AcDbSpline
 70
0
 71
3
 72
35
 73
31
 74
0
 40
0.0
 40
0.0
 40
0.0
 40
0.0
 40
0.09948866617271906
 40
0.09948866617271906
 40
0.09948866617271906
 40
0.2103193631662115
 40
0.2103193631662115
 40
0.2103193631662115
 40
0.34031742235306905
 40
0.34031742235306905
 40
0.34031742235306905
 40
0.43757192344131274
 40
0.43757192344131274
 40
0.43757192344131274
 40
0.5348264245295564
 40
0.5348264245295564
 40
0.5348264245295564
 40
0.6450705610425946
 40
0.6450705610425946
 40
0.6450705610425946
 40
0.7226226590494889
 40
0.7226226590494889
 40
0.7226226590494889
 40
0.7716752942212566
 40
0.7716752942212566
 40
0.7716752942212566
 40
0.8411640339450882
 40
0.8411640339450882
 40
0.8411640339450882
 40
1.0
 40
1.0
 40
1.0
 40
1.0
 10
-109.60000000000004
 20
-2.020605904817785e-14
 30
0.0
 10
-109.59882028097181
 20
0.9763783543941025
 30
0.0
 10
-109.84248004145668
 20
1.9002605387668636
 30
0.0
 10
-110.22655112989585
 20
2.669465721895757
 30
0.0
 10
-110.65532564606195
 20
3.5305718752484156
 30
0.0
 10
-111.24888730975972
 20
4.215687815152163
 30
0.0
 10
-111.91287922974689
 20
4.733406851895159
 30
0.0
 10
-112.6940990947915
 20
5.340633341671505
 30
0.0
 10
-113.57648958120431
 20
5.724223433477741
 30
0.0
 10
-114.49343357146229
 20
5.897076456960103
 30
0.0
 10
-115.17977136237512
 20
6.025571426056761
 30
0.0
 10
-115.88661443764367
 20
6.035544942206973
 30
0.0
 10
-116.59371071768177
 20
5.917139403283753
 30
0.0
 10
-117.30024012952475
 20
5.798132217798244
 30
0.0
 10
-118.00717570802114
 20
5.550767654716868
 30
0.0
 10
-118.67849973514328
 20
5.150032949479325
 30
0.0
 10
-119.43702739996199
 20
4.697046299677793
 30
0.0
 10
-120.15624028420277
 20
4.037472580079142
 30
0.0
 10
-120.70028482120213
 20
3.160236501057396
 30
0.0
 10
-121.08218060548462
 20
2.546491158187638
 30
0.0
 10
-121.36843997597126
 20
1.824566681390565
 30
0.0
 10
-121.50398620420401
 20
1.0690869471508893
 30
0.0
 10
-121.59062284585308
 20
0.5919949041518379
 30
0.0
 10
-121.61796441488086
 20
0.10478357234125256
 30
0.0
 10
-121.58873717559443
 20
-0.3674602586042789
 30
0.0
 10
-121.54789521618936
 20
-1.0374525519630176
 30
0.0
 10
-121.39474453289053
 20
-1.6741408555093042
 30
0.0
 10
-121.16467220960845
 20
-2.243752036124196
 30
0.0
 10
-120.63395507307627
 20
-3.5500188537830426
 30
0.0
 10
-119.73518127634637
 20
-4.50342043341291
 30
0.0
 10
-118.72819436736278
 20
-5.120000000000001
 30
0.0
  0
SPLINE
  5
E6
330
17
100
AcDbEntity
  8
HIDDEN
100
AcDbSpline
 70
0
 71
3
 72
11
 73
7
 74
0
 40
0.0
 40
0.0
 40
0.0
 40
0.0
 40
0.5671432116630463
 40
0.5671432116630463
 40
0.5671432116630463
 40
1.0
 40
1.0
 40
1.0
 40
1.0
 10
-112.47180563263723
 20
-5.120000000000001
 30
0.0
 10
-111.6068487044863
 20
-4.592896166418687
 30
0.0
 10
-110.79617187261047
 20
-3.7902298572870805
 30
0.0
 10
-110.25089645622684
 20
-2.717920395816066
 30
0.0
 10
-109.83421656721886
 20
-1.9061062594857887
 30
0.0
 10
-109.59642142353187
 20
-0.9406874767706701
 30
0.0
 10
-109.60000000000002
 20
-2.042810365310288e-14
 30
0.0
  0
SPLINE
  5
E7
330
17
100
AcDbEntity
  8
HIDDEN
100
AcDbSpline
 70
0
 71
3
 72
38
 73
34
 74
0
 40
0.0
 40
0.0
 40
0.0
 40
0.0
 40
0.03756531532855595
 40
0.03756531532855595
 40
0.03756531532855595
 40
0.11536474282106086
 40
0.11536474282106086
 40
0.11536474282106086
 40
0.22940227052339046
 40
0.22940227052339046
 40
0.22940227052339046
 40
0.42595723142709174
 40
0.42595723142709174
 40
0.42595723142709174
 40
0.5237760918222851
 40
0.5237760918222851
 40
0.5237760918222851
 40
0.611913974054001
 40
0.611913974054001
 40
0.611913974054001
 40
0.6772383139298214
 40
0.6772383139298214
 40
0.6772383139298214
 40
0.7523743074966135
 40
0.7523743074966135
 40
0.7523743074966135
 40
0.8060988760974691
 40
0.8060988760974691
 40
0.8060988760974691
 40
0.8715299850592851
 40
0.8715299850592851
 40
0.8715299850592851
 40
1.0
 40
1.0
 40
1.0
 40
1.0
 10
121.60000000000001
 20
-2.1316282072803006e-14
 30
0.0
 10
121.60014185797661
 20
0.3611139275948837
 30
0.0
 10
121.56736505864193
 20
0.7217146469010112
 30
0.0
 10
121.50166960199597
 20
1.0818021579183619
 30
0.0
 10
121.366623212005
 20
1.825012573790733
 30
0.0
 10
121.0858378629637
 20
2.535395142461006
 30
0.0
 10
120.71186616509671
 20
3.141468495805599
 30
0.0
 10
120.16237862967174
 20
4.0347534734957184
 30
0.0
 10
119.43142020445376
 20
4.703945952395161
 30
0.0
 10
118.66094755590221
 20
5.160484479195356
 30
0.0
 10
117.3246794096854
 20
5.946112727410912
 30
0.0
 10
115.86864038313794
 20
6.147466459739702
 30
0.0
 10
114.51083734034606
 20
5.900315644168142
 30
0.0
 10
113.8331790877499
 20
5.774985031116755
 30
0.0
 10
113.17530902718822
 20
5.533884161038692
 30
0.0
 10
112.56160147302941
 20
5.173793037153964
 30
0.0
 10
112.00916297699156
 20
4.849138927851015
 30
0.0
 10
111.49175438086458
 20
4.42720523227772
 30
0.0
 10
111.04062258350127
 20
3.900266346535956
 30
0.0
 10
110.70670956282827
 20
3.509871258916254
 30
0.0
 10
110.40945906863334
 20
3.061104353325711
 30
0.0
 10
110.17115847733349
 20
2.554932429981636
 30
0.0
 10
109.8972569189067
 20
1.9738786538847493
 30
0.0
 10
109.70244781427104
 20
1.3132798198793216
 30
0.0
 10
109.63087910000519
 20
0.6079438142171403
 30
0.0
 10
109.57927716680958
 20
0.10451909825044846
 30
0.0
 10
109.59175363946119
 20
-0.41983159877905674
 30
0.0
 10
109.67322085320626
 20
-0.9344993018355253
 30
0.0
 10
109.77146593860941
 20
-1.5616963124364647
 30
0.0
 10
109.97250074641411
 20
-2.1706024345555086
 30
0.0
 10
110.24904774869721
 20
-2.7142789105539014
 30
0.0
 10
110.79431466498133
 20
-3.7883814623491525
 30
0.0
 10
111.60587494600472
 20
-4.592311181061458
 30
0.0
 10
112.47180563263724
 20
-5.12
 30
0.0
  0
SPLINE
  5
E8
330
17
100
AcDbEntity
  8
HIDDEN
100
AcDbSpline
 70
0
 71
3
 72
11
 73
7
 74
0
 40
0.0
 40
0.0
 40
0.0
 40
0.0
 40
0.6278848852295787
 40
0.6278848852295787
 40
0.6278848852295787
 40
1.0
 40
1.0
 40
1.0
 40
1.0
 10
118.72819436736279
 20
-5.120000000000001
 30
0.0
 10
119.68803324498717
 20
-4.532313765928207
 30
0.0
 10
120.54711440730861
 20
-3.6405615374212417
 30
0.0
 10
121.08713303695426
 20
-2.427214665983547
 30
0.0
 10
121.40511743052234
 20
-1.7111457769385638
 30
0.0
 10
121.60079348809835
 20
-0.8765027556879456
 30
0.0
 10
121.60000000000001
 20
-2.1316282072803006e-14
 30
0.0
  0
SPLINE
  5
E9
330
17
100
AcDbEntity
  8
HIDDEN
100
AcDbSpline
 70
0
 71
3
 72
8
 73
4
 74
0
 40
0.0
 40
0.0
 40
0.0
 40
0.0
 40
1.0
 40
1.0
 40
1.0
 40
1.0
 10
121.59999785956225
 20
0.005068041406916857
 30
0.0
 10
121.59987618772615
 20
0.48721017360881813
 30
0.0
 10
121.54002085618916
 20
0.9765957533095202
 30
0.0
 10
121.42310399549463
 20
1.4461880524894688
 30
0.0
  0
SPLINE
  5
EA
330
17
100
AcDbEntity
  8
HIDDEN
100
AcDbSpline
 70
0
 71
2
 72
6
 73
3
 74
0
 40
0.0
 40
0.0
 40
0.0
 40
1.0
 40
1.0
 40
1.0
 10
121.03905035395972
 20
2.5331267749809276
 30
0.0
 10
120.89051335824837
 20
2.8512801002261052
 30
0.0
 10
120.71208502412912
 20
3.141112224275478
 30
0.0
  0
SPLINE
  5
EB
330
17
100
AcDbEntity
  8
HIDDEN
100
AcDbSpline
 70
0
 71
2
 72
6
 73
3
 74
0
 40
0.0
 40
0.0
 40
0.0
 40
1.0
 40
1.0
 40
1.0
 10
120.7058206851184
 20
3.151284568878646
 30
0.0
 10
120.506578189865
 20
3.473204248589271
 30
0.0
 10
120.27825862141775
 20
3.7568465032187315
 30
0.0
  0
SPLINE
  5
EC
330
17
100
AcDbEntity
  8
HIDDEN
100
AcDbSpline
 70
0
 71
2
 72
6
 73
3
 74
0
 40
0.0
 40
0.0
 40
0.0
 40
1.0
 40
1.0
 40
1.0
 10
120.27402116155027
 20
3.7621171621131655
 30
0.0
 10
120.09960060160235
 20
3.9785010037366555
 30
0.0
 10
119.91200592341737
 20
4.172122346379966
 30
0.0
  0
SPLINE
  5
ED
330
17
100
AcDbEntity
  8
HIDDEN
100
AcDbSpline
 70
0
 71
3
 72
8
 73
4
 74
0
 40
0.0
 40
0.0
 40
0.0
 40
0.0
 40
1.0
 40
1.0
 40
1.0
 40
1.0
 10
119.89792404834289
 20
4.186627381476944
 30
0.0
 10
119.10576646852135
 20
4.997128387718721
 30
0.0
 10
118.17742339612595
 20
5.504070034327766
 30
0.0
 10
117.24085410706816
 20
5.771273483826105
 30
0.0
  0
SPLINE
  5
EE
330
17
100
AcDbEntity
  8
HIDDEN
100
AcDbSpline
 70
0
 71
2
 72
6
 73
3
 74
0
 40
0.0
 40
0.0
 40
0.0
 40
1.0
 40
1.0
 40
1.0
 10
117.22330098658249
 20
5.776235257311656
 30
0.0
 10
116.3866163805987
 20
6.008523404173676
 30
0.0
 10
115.5488772914885
 20
5.999782209512509
 30
0.0
  0
SPLINE
  5
EF
330
17
100
AcDbEntity
  8
HIDDEN
100
AcDbSpline
 70
0
 71
3
 72
8
 73
4
 74
0
 40
0.0
 40
0.0
 40
0.0
 40
0.0
 40
1.0
 40
1.0
 40
1.0
 40
1.0
 10
115.5385245099727
 20
5.999685063205978
 30
0.0
 10
114.44645188807407
 20
5.986971303605722
 30
0.0
 10
113.37234467749417
 20
5.684501843308242
 30
0.0
 10
112.40698406583181
 20
5.079827658838315
 30
0.0
  0
SPLINE
  5
F0
330
17
100
AcDbEntity
  8
HIDDEN
100
AcDbSpline
 70
0
 71
3
 72
8
 73
4
 74
0
 40
0.0
 40
0.0
 40
0.0
 40
0.0
 40
1.0
 40
1.0
 40
1.0
 40
1.0
 10
112.3509564342596
 20
5.044176421540275
 30
0.0
 10
111.87695467548949
 20
4.738713157688071
 30
0.0
 10
111.43093417860706
 20
4.357509128119544
 30
0.0
 10
111.03542487085052
 20
3.8941820552499236
 30
0.0
  0
SPLINE
  5
F1
330
17
100
AcDbEntity
  8
HIDDEN
100
AcDbSpline
 70
0
 71
2
 72
6
 73
3
 74
0
 40
0.0
 40
0.0
 40
0.0
 40
1.0
 40
1.0
 40
1.0
 10
111.03155067808083
 20
3.88963633019383
 30
0.0
 10
110.84449519262722
 20
3.6702644817916985
 30
0.0
 10
110.67448684351676
 20
3.4262691339015223
 30
0.0
  0
SPLINE
  5
F2
330
17
100
AcDbEntity
  8
HIDDEN
100
AcDbSpline
 70
0
 71
2
 72
6
 73
3
 74
0
 40
0.0
 40
0.0
 40
0.0
 40
1.0
 40
1.0
 40
1.0
 10
110.399618827227
 20
2.9926636292257114
 30
0.0
 10
110.27050909417936
 20
2.7686320041840364
 30
0.0
 10
110.15821381499836
 20
2.527244049688154
 30
0.0
  0
SPLINE
  5
F3
330
17
100
AcDbEntity
  8
HIDDEN
100
AcDbSpline
 70
0
 71
2
 72
6
 73
3
 74
0
 40
0.0
 40
0.0
 40
0.0
 40
1.0
 40
1.0
 40
1.0
 10
110.156582196645
 20
2.523727793751592
 30
0.0
 10
110.08628512582156
 20
2.3722050960589023
 30
0.0
 10
110.02346344305667
 20
2.2141003358341
 30
0.0
  0
SPLINE
  5
F4
330
17
100
AcDbEntity
  8
HIDDEN
100
AcDbSpline
 70
0
 71
2
 72
6
 73
3
 74
0
 40
0.0
 40
0.0
 40
0.0
 40
1.0
 40
1.0
 40
1.0
 10
110.02134347980815
 20
2.208753431714846
 30
0.0
 10
109.94424071121055
 20
2.0142306582798657
 30
0.0
 10
109.87962130248252
 20
1.8103223835191844
 30
0.0
  0
SPLINE
  5
F5
330
17
100
AcDbEntity
  8
HIDDEN
100
AcDbSpline
 70
0
 71
3
 72
14
 73
10
 74
0
 40
0.0
 40
0.0
 40
0.0
 40
0.0
 40
0.4295593733520489
 40
0.4295593733520489
 40
0.4295593733520489
 40
0.5879425745598834
 40
0.5879425745598834
 40
0.5879425745598834
 40
1.0
 40
1.0
 40
1.0
 40
1.0
 10
109.60584451931578
 20
0.26476414470073945
 30
0.0
 10
109.55848450414854
 20
-0.7111101510283886
 30
0.0
 10
109.77217635841134
 20
-1.7274044172986904
 30
0.0
 10
110.1826198809509
 20
-2.579145720142973
 30
0.0
 10
110.33376897847359
 20
-2.8948483397890064
 30
0.0
 10
110.5058018195933
 20
-3.1887476473336833
 30
0.0
 10
110.69871840430994
 20
-3.4608436427770055
 30
0.0
 10
111.19878247710062
 20
-4.168379733337032
 30
0.0
 10
111.81163295677418
 20
-4.7144582470541385
 30
0.0
 10
112.45966682762207
 20
-5.112563698572412
 30
0.0
  0
SPLINE
  5
F6
330
17
100
AcDbEntity
  8
HIDDEN
100
AcDbSpline
 70
0
 71
3
 72
8
 73
4
 74
0
 40
0.0
 40
0.0
 40
0.0
 40
0.0
 40
1.0
 40
1.0
 40
1.0
 40
1.0
 10
112.47798525952749
 20
-5.123770482704959
 30
0.0
 10
113.40097475965716
 20
-5.683388892075789
 30
0.0
 10
114.53951312159379
 20
-6.0468796476997975
 30
0.0
 10
115.85906850796084
 20
-5.994404352151067
 30
0.0
  0
SPLINE
  5
F7
330
17
100
AcDbEntity
  8
HIDDEN
100
AcDbSpline
 70
0
 71
2
 72
6
 73
3
 74
0
 40
0.0
 40
0.0
 40
0.0
 40
1.0
 40
1.0
 40
1.0
 10
115.86968290690417
 20
-5.9939361979493375
 30
0.0
 10
116.38816847757674
 20
-5.972136795153911
 30
0.0
 10
116.93039981343496
 20
-5.850644096525146
 30
0.0
  0
SPLINE
  5
F8
330
17
100
AcDbEntity
  8
HIDDEN
100
AcDbSpline
 70
0
 71
3
 72
8
 73
4
 74
0
 40
0.0
 40
0.0
 40
0.0
 40
0.0
 40
1.0
 40
1.0
 40
1.0
 40
1.0
 10
116.95670930076523
 20
-5.844599206547073
 30
0.0
 10
117.55561431961229
 20
-5.706429364495734
 30
0.0
 10
118.16600188999794
 20
-5.463869957958795
 30
0.0
 10
118.72490328916102
 20
-5.122009316016696
 30
0.0
  0
SPLINE
  5
F9
330
17
100
AcDbEntity
  8
HIDDEN
100
AcDbSpline
 70
0
 71
1
 72
4
 73
2
 74
0
 40
0.0
 40
0.0
 40
1.0
 40
1.0
 10
118.87205639453356
 20
-5.029278961447368
 30
0.0
 10
118.8721387280728
 20
-5.029225394159866
 30
0.0
  0
SPLINE
  5
FA
330
17
100
AcDbEntity
  8
HIDDEN
100
AcDbSpline
 70
0
 71
2
 72
6
 73
3
 74
0
 40
0.0
 40
0.0
 40
0.0
 40
1.0
 40
1.0
 40
1.0
 10
-109.76697261448606
 20
1.405628568324501
 30
0.0
 10
-109.82321515297879
 20
1.6385446666128862
 30
0.0
 10
-109.8959470754524
 20
1.8611232365844488
 30
0.0
  0
SPLINE
  5
FB
330
17
100
AcDbEntity
  8
HIDDEN
100
AcDbSpline
 70
0
 71
2
 72
6
 73
3
 74
0
 40
0.0
 40
0.0
 40
0.0
 40
1.0
 40
1.0
 40
1.0
 10
-109.8976885010103
 20
1.8664519922193403
 30
0.0
 10
-109.96755393576208
 20
2.0795854962876907
 30
0.0
 10
-110.05098923709859
 20
2.282209442162065
 30
0.0
  0
SPLINE
  5
FC
330
17
100
AcDbEntity
  8
HIDDEN
100
AcDbSpline
 70
0
 71
2
 72
6
 73
3
 74
0
 40
0.0
 40
0.0
 40
0.0
 40
1.0
 40
1.0
 40
1.0
 10
-110.05309272923944
 20
2.287317228653302
 30
0.0
 10
-110.12482128246077
 20
2.4611054115027162
 30
0.0
 10
-110.20551848131042
 20
2.6267029973691454
 30
0.0
  0
SPLINE
  5
FD
330
17
100
AcDbEntity
  8
HIDDEN
100
AcDbSpline
 70
0
 71
3
 72
14
 73
10
 74
0
 40
0.0
 40
0.0
 40
0.0
 40
0.0
 40
0.19283954335628042
 40
0.19283954335628042
 40
0.19283954335628042
 40
0.5650324927952849
 40
0.5650324927952849
 40
0.5650324927952849
 40
1.0
 40
1.0
 40
1.0
 40
1.0
 10
-110.83143101753629
 20
3.641531250252312
 30
0.0
 10
-111.1892692027624
 20
4.109872437258851
 30
0.0
 10
-111.59789550103031
 20
4.5030950193592485
 30
0.0
 10
-112.03542898762973
 20
4.826368562156153
 30
0.0
 10
-112.8813467551254
 20
5.449458672861644
 30
0.0
 10
-113.83229499754546
 20
5.817041948229774
 30
0.0
 10
-114.81092319621156
 20
5.9478868346432785
 30
0.0
 10
-115.95424404708449
 20
6.097699685333845
 30
0.0
 10
-117.14734852914796
 20
5.928553105180837
 30
0.0
 10
-118.27210634908485
 20
5.372136200064212
 30
0.0
  0
SPLINE
  5
FE
330
17
100
AcDbEntity
  8
HIDDEN
100
AcDbSpline
 70
0
 71
2
 72
6
 73
3
 74
0
 40
0.0
 40
0.0
 40
0.0
 40
1.0
 40
1.0
 40
1.0
 10
-120.28528155658363
 20
3.7480843375539123
 30
0.0
 10
-120.42087969032038
 20
3.578726943262354
 30
0.0
 10
-120.54666820915932
 20
3.3956551586412296
 30
0.0
  0
SPLINE
  5
FF
330
17
100
AcDbEntity
  8
HIDDEN
100
AcDbSpline
 70
0
 71
2
 72
6
 73
3
 74
0
 40
0.0
 40
0.0
 40
0.0
 40
1.0
 40
1.0
 40
1.0
 10
-120.78130055735836
 20
3.0255783357495094
 30
0.0
 10
-120.86111173500964
 20
2.8889616913378733
 30
0.0
 10
-120.93462914621401
 20
2.746221284487031
 30
0.0
  0
SPLINE
  5
100
330
17
100
AcDbEntity
  8
HIDDEN
100
AcDbSpline
 70
0
 71
2
 72
6
 73
3
 74
0
 40
0.0
 40
0.0
 40
0.0
 40
1.0
 40
1.0
 40
1.0
 10
-121.0754436384458
 20
2.4534704722650322
 30
0.0
 10
-121.13392554399017
 20
2.3229976252369164
 30
0.0
 10
-121.18663542602326
 20
2.188493633127777
 30
0.0
  0
SPLINE
  5
101
330
17
100
AcDbEntity
  8
HIDDEN
100
AcDbSpline
 70
0
 71
2
 72
6
 73
3
 74
0
 40
0.0
 40
0.0
 40
0.0
 40
1.0
 40
1.0
 40
1.0
 10
-121.27468377386472
 20
1.9488365225046398
 30
0.0
 10
-121.3277474853301
 20
1.7943759531624912
 30
0.0
 10
-121.37265431950773
 20
1.6359895981888435
 30
0.0
  0
SPLINE
  5
102
330
17
100
AcDbEntity
  8
HIDDEN
100
AcDbSpline
 70
0
 71
2
 72
6
 73
3
 74
0
 40
0.0
 40
0.0
 40
0.0
 40
1.0
 40
1.0
 40
1.0
 10
-121.50858908207698
 20
1.0433479313915517
 30
0.0
 10
-121.5336713696507
 20
0.9013062252330306
 30
0.0
 10
-121.55190841465003
 20
0.7581465620403609
 30
0.0
  0
SPLINE
  5
103
330
17
100
AcDbEntity
  8
HIDDEN
100
AcDbSpline
 70
0
 71
1
 72
4
 73
2
 74
0
 40
0.0
 40
0.0
 40
1.0
 40
1.0
 10
-121.59641933817049
 20
0.2072561998066776
 30
0.0
 10
-121.59868097924046
 20
0.12580344148637446
 30
0.0
  0
SPLINE
  5
104
330
17
100
AcDbEntity
  8
HIDDEN
100
AcDbSpline
 70
0
 71
2
 72
6
 73
3
 74
0
 40
0.0
 40
0.0
 40
0.0
 40
1.0
 40
1.0
 40
1.0
 10
-118.45018895080278
 20
-5.2798127546415525
 30
0.0
 10
-118.2174171648697
 20
-5.40538563332603
 30
0.0
 10
-117.97735513796263
 20
-5.5089184621259655
 30
0.0
  0
SPLINE
  5
105
330
17
100
AcDbEntity
  8
HIDDEN
100
AcDbSpline
 70
0
 71
2
 72
6
 73
3
 74
0
 40
0.0
 40
0.0
 40
0.0
 40
1.0
 40
1.0
 40
1.0
 10
-116.89157825592851
 20
-5.859336608705242
 30
0.0
 10
-116.64951072020904
 20
-5.912538470744918
 30
0.0
 10
-116.41117035549799
 20
-5.944914023183237
 30
0.0
  0
SPLINE
  5
106
330
17
100
AcDbEntity
  8
HIDDEN
100
AcDbSpline
 70
0
 71
2
 72
6
 73
3
 74
0
 40
0.0
 40
0.0
 40
0.0
 40
1.0
 40
1.0
 40
1.0
 10
-116.40115986048147
 20
-5.946271350478338
 30
0.0
 10
-116.10068847993074
 20
-5.986462484749947
 30
0.0
 10
-115.808978838268
 20
-5.996359542273138
 30
0.0
  0
SPLINE
  5
107
330
17
100
AcDbEntity
  8
HIDDEN
100
AcDbSpline
 70
0
 71
2
 72
6
 73
3
 74
0
 40
0.0
 40
0.0
 40
0.0
 40
1.0
 40
1.0
 40
1.0
 10
-115.51221655399071
 20
-5.9993577925075305
 30
0.0
 10
-115.10933794556951
 20
-5.992781175475277
 30
0.0
 10
-114.73042751968896
 20
-5.9366525732251265
 30
0.0
  0
SPLINE
  5
108
330
17
100
AcDbEntity
  8
HIDDEN
100
AcDbSpline
 70
0
 71
3
 72
8
 73
4
 74
0
 40
0.0
 40
0.0
 40
0.0
 40
0.0
 40
1.0
 40
1.0
 40
1.0
 40
1.0
 10
-114.12182632487311
 20
-5.815066860551166
 30
0.0
 10
-113.51512854498169
 20
-5.660585770442192
 30
0.0
 10
-112.96518407004511
 20
-5.420963878445137
 30
0.0
 10
-112.47377445088547
 20
-5.121202379915054
 30
0.0
  0
SPLINE
  5
109
330
17
100
AcDbEntity
  8
HIDDEN
100
AcDbSpline
 70
0
 71
3
 72
8
 73
4
 74
0
 40
0.0
 40
0.0
 40
0.0
 40
0.0
 40
1.0
 40
1.0
 40
1.0
 40
1.0
 10
-112.09866992875219
 20
-4.872441719796434
 30
0.0
 10
-111.6347046326219
 20
-4.539018860738455
 30
0.0
 10
-111.19660716483205
 20
-4.123741579696564
 30
0.0
 10
-110.81657972649232
 20
-3.6220008285702727
 30
0.0
  0
SPLINE
  5
10A
330
17
100
AcDbEntity
  8
HIDDEN
100
AcDbSpline
 70
0
 71
2
 72
6
 73
3
 74
0
 40
0.0
 40
0.0
 40
0.0
 40
1.0
 40
1.0
 40
1.0
 10
-110.79183300360931
 20
-3.589084804791689
 30
0.0
 10
-110.66181800182109
 20
-3.4150563215353413
 30
0.0
 10
-110.54218514858371
 20
-3.2277714819719328
 30
0.0
  0
SPLINE
  5
10B
330
17
100
AcDbEntity
  8
HIDDEN
100
AcDbSpline
 70
0
 71
2
 72
6
 73
3
 74
0
 40
0.0
 40
0.0
 40
0.0
 40
1.0
 40
1.0
 40
1.0
 10
-110.52021592736169
 20
-3.1930852852255702
 30
0.0
 10
-110.37332458094644
 20
-2.9597023716658306
 30
0.0
 10
-110.2454688304022
 20
-2.7072118021533633
 30
0.0
  0
SPLINE
  5
10C
330
17
100
AcDbEntity
  8
HIDDEN
100
AcDbSpline
 70
0
 71
2
 72
6
 73
3
 74
0
 40
0.0
 40
0.0
 40
0.0
 40
1.0
 40
1.0
 40
1.0
 10
-110.21705481740291
 20
-2.6502643239960824
 30
0.0
 10
-110.15051246199684
 20
-2.5151642195977315
 30
0.0
 10
-110.0901092861526
 20
-2.3751008996648983
 30
0.0
  0
SPLINE
  5
10D
330
17
100
AcDbEntity
  8
HIDDEN
100
AcDbSpline
 70
0
 71
2
 72
6
 73
3
 74
0
 40
0.0
 40
0.0
 40
0.0
 40
1.0
 40
1.0
 40
1.0
 10
-110.03349233865788
 20
-2.239194589647875
 30
0.0
 10
-109.9097551127232
 20
-1.9320141857075515
 30
0.0
 10
-109.81918909172148
 20
-1.6069303818317082
 30
0.0
  0
SPLINE
  5
10E
330
17
100
AcDbEntity
  8
HIDDEN
100
AcDbSpline
 70
0
 71
2
 72
6
 73
3
 74
0
 40
0.0
 40
0.0
 40
0.0
 40
1.0
 40
1.0
 40
1.0
 10
-109.80222839627667
 20
-1.5446178904432513
 30
0.0
 10
-109.72454503829496
 20
-1.2532102382704486
 30
0.0
 10
-109.67620040368493
 20
-0.9532042574285287
 30
0.0
  0
SPLINE
  5
10F
330
17
100
AcDbEntity
  8
HIDDEN
100
AcDbSpline
 70
0
 71
2
 72
6
 73
3
 74
0
 40
0.0
 40
0.0
 40
0.0
 40
1.0
 40
1.0
 40
1.0
 10
-109.67106621618397
 20
-0.9207302570712895
 30
0.0
 10
-109.63613477161309
 20
-0.6957579970909622
 30
0.0
 10
-109.61834815849267
 20
-0.4688722961898464
 30
0.0
  0
SPLINE
  5
110
330
17
100
AcDbEntity
  8
HIDDEN
100
AcDbSpline
 70
0
 71
2
 72
6
 73
3
 74
0
 40
0.0
 40
0.0
 40
0.0
 40
1.0
 40
1.0
 40
1.0
 10
-109.61512294594849
 20
-0.4257306903756791
 30
0.0
 10
-109.605572387144
 20
-0.2913944204875018
 30
0.0
 10
-109.60205969189187
 20
-0.15720059783161575
 30
0.0
  0
SPLINE
  5
111
330
17
100
AcDbEntity
  8
HIDDEN
100
AcDbSpline
 70
0
 71
1
 72
4
 73
2
 74
0
 40
0.0
 40
0.0
 40
1.0
 40
1.0
 10
-109.60197664869384
 20
-0.1539994983906372
 30
0.0
 10
-109.6
 20
-2.042810365310288e-14
 30
0.0
  0
SPLINE
  5
112
330
17
100
AcDbEntity
  8
HIDDEN
100
AcDbSpline
 70
0
 71
1
 72
4
 73
2
 74
0
 40
0.0
 40
0.0
 40
1.0
 40
1.0
 10
-130.82002478453535
 20
-5.12
 30
0.0
 10
-124.33781279333886
 20
32.0
 30
0.0
  0
SPLINE
  5
113
330
17
100
AcDbEntity
  8
HIDDEN
100
AcDbSpline
 70
0
 71
1
 72
4
 73
2
 74
0
 40
0.0
 40
0.0
 40
1.0
 40
1.0
 10
-167.6666969480156
 20
-5.12
 30
0.0
 10
-159.09285493787627
 20
32.0
 30
0.0
  0
SPLINE
  5
114
330
17
100
AcDbEntity
  8
HIDDEN
100
AcDbSpline
 70
0
 71
1
 72
4
 73
2
 74
0
 40
0.0
 40
0.0
 40
1.0
 40
1.0
 10
-170.0
 20
-5.12
 30
0.0
 10
-161.50000000000003
 20
32.0
 30
0.0
  0
SPLINE
  5
115
330
17
100
AcDbEntity
  8
HIDDEN
100
AcDbSpline
 70
0
 71
1
 72
4
 73
2
 74
0
 40
0.0
 40
0.0
 40
1.0
 40
1.0
 10
165.45047968240888
 20
14.748022845762568
 30
0.0
 10
165.45002693965515
 20
14.750000000000002
 30
0.0
  0
SPLINE
  5
116
330
17
100
AcDbEntity
  8
HIDDEN
100
AcDbSpline
 70
0
 71
1
 72
4
 73
2
 74
0
 40
0.0
 40
0.0
 40
1.0
 40
1.0
 10
165.4504796824089
 20
14.748022845762563
 30
0.0
 10
165.45002693965517
 20
14.75
 30
0.0
  0
SPLINE
  5
117
330
17
100
AcDbEntity
  8
HIDDEN
100
AcDbSpline
 70
0
 71
3
 72
11
 73
7
 74
0
 40
0.0
 40
0.0
 40
0.0
 40
0.0
 40
0.572936014259847
 40
0.572936014259847
 40
0.572936014259847
 40
1.0
 40
1.0
 40
1.0
 40
1.0
 10
163.62285392808877
 20
12.387606592490238
 30
0.0
 10
164.17157733711514
 20
13.104183575212616
 30
0.0
 10
164.67757731950968
 20
13.745494570269619
 30
0.0
 10
165.02921620909584
 20
14.189148171738868
 30
0.0
 10
165.2899117421846
 20
14.519021283542045
 30
0.0
 10
165.45640258584515
 20
14.727991691423508
 30
0.0
 10
165.45047968240897
 20
14.748022845762558
 30
0.0
  0
SPLINE
  5
118
330
17
100
AcDbEntity
  8
HIDDEN
100
AcDbSpline
 70
0
 71
1
 72
4
 73
2
 74
0
 40
0.0
 40
0.0
 40
0.7877758913412566
 40
0.7877758913412566
 10
-164.62968351810463
 20
-5.12
 30
0.0
 10
-157.8715974793824
 20
32.000000000000014
 30
0.0
  0
SPLINE
  5
119
330
17
100
AcDbEntity
  8
HIDDEN
100
AcDbSpline
 70
0
 71
1
 72
4
 73
2
 74
0
 40
0.0
 40
0.0
 40
0.7877758913412566
 40
0.7877758913412566
 10
-128.52900037105405
 20
-5.12
 30
0.0
 10
-123.42093486913936
 20
32.000000000000014
 30
0.0
  0
LINE
  5
11A
330
17
100
AcDbEntity
  8
HIDDEN
100
AcDbLine
 10
-164.62968351810463
 20
-5.12
 30
0.0
 11
-128.52900037105405
 21
-5.12
 31
0.0
  0
SPLINE
  5
11B
330
17
100
AcDbEntity
  8
HIDDEN
100
AcDbSpline
 70
0
 71
1
 72
4
 73
2
 74
0
 40
0.0
 40
0.0
 40
0.7877758913412566
 40
0.7877758913412566
 10
-167.0
 20
-5.12
 30
0.0
 10
-160.30390492359933
 20
32.000000000000014
 30
0.0
  0
SPLINE
  5
11C
330
17
100
AcDbEntity
  8
HIDDEN
100
AcDbSpline
 70
0
 71
1
 72
17
 73
15
 74
0
 40
0.0
 40
0.0
 40
0.0714285714285715
 40
0.142857142857143
 40
0.2142857142857145
 40
0.285714285714286
 40
0.3571428571428575
 40
0.428571428571429
 40
0.5000000000000004
 40
0.571428571428572
 40
0.6428571428571435
 40
0.714285714285715
 40
0.7857142857142865
 40
0.857142857142858
 40
0.9285714285714295
 40
1.0
 40
1.0
 10
-167.0
 20
-5.12
 30
0.0
 10
-166.98701867645224
 20
-5.12
 30
0.0
 10
-166.94813087739595
 20
-5.12
 30
0.0
 10
-166.88350487453172
 20
-5.12
 30
0.0
 10
-166.79342031154377
 20
-5.12
 30
0.0
 10
-166.67826699405168
 20
-5.12
 30
0.0
 10
-166.5385432028795
 20
-5.12
 30
0.0
 10
-166.3748535379407
 20
-5.12
 30
0.0
 10
-166.18790630206928
 20
-5.12
 30
0.0
 10
-165.978510436117
 20
-5.12
 30
0.0
 10
-165.747572018579
 20
-5.12
 30
0.0
 10
-165.49609034489447
 20
-5.12
 30
0.0
 10
-165.22515360338764
 20
-5.12
 30
0.0
 10
-164.93593416655926
 20
-5.12
 30
0.0
 10
-164.62968351810463
 20
-5.12
 30
0.0
  0
SPLINE
  5
11D
330
17
100
AcDbEntity
  8
HIDDEN
100
AcDbSpline
 70
0
 71
1
 72
4
 73
2
 74
0
 40
0.0
 40
0.0
 40
0.7877758913412566
 40
0.7877758913412566
 10
-166.99999999999997
 20
-5.12
 30
0.0
 10
-160.30390492359933
 20
32.000000000000014
 30
0.0
  0
SPLINE
  5
11E
330
17
100
AcDbEntity
  8
HIDDEN
100
AcDbSpline
 70
0
 71
1
 72
4
 73
2
 74
0
 40
0.0
 40
0.0
 40
0.7877758913412566
 40
0.7877758913412566
 10
-164.62968351810463
 20
-5.12
 30
0.0
 10
-157.8715974793824
 20
32.000000000000014
 30
0.0
  0
SPLINE
  5
11F
330
17
100
AcDbEntity
  8
HIDDEN
100
AcDbSpline
 70
0
 71
1
 72
17
 73
15
 74
0
 40
0.0
 40
0.0
 40
0.0714285714285715
 40
0.142857142857143
 40
0.2142857142857145
 40
0.285714285714286
 40
0.3571428571428575
 40
0.428571428571429
 40
0.5000000000000004
 40
0.571428571428572
 40
0.6428571428571435
 40
0.714285714285715
 40
0.7857142857142865
 40
0.857142857142858
 40
0.9285714285714295
 40
1.0
 40
1.0
 10
-164.62968351810463
 20
-5.12
 30
0.0
 10
-164.93593416655926
 20
-5.12
 30
0.0
 10
-165.22515360338764
 20
-5.12
 30
0.0
 10
-165.4960903448945
 20
-5.12
 30
0.0
 10
-165.74757201857898
 20
-5.12
 30
0.0
 10
-165.978510436117
 20
-5.12
 30
0.0
 10
-166.1879063020693
 20
-5.12
 30
0.0
 10
-166.37485353794068
 20
-5.12
 30
0.0
 10
-166.5385432028795
 20
-5.12
 30
0.0
 10
-166.6782669940517
 20
-5.12
 30
0.0
 10
-166.79342031154377
 20
-5.12
 30
0.0
 10
-166.88350487453175
 20
-5.12
 30
0.0
 10
-166.94813087739595
 20
-5.12
 30
0.0
 10
-166.98701867645224
 20
-5.12
 30
0.0
 10
-167.0
 20
-5.12
 30
0.0
  0
SPLINE
  5
120
330
17
100
AcDbEntity
  8
HIDDEN
100
AcDbSpline
 70
0
 71
1
 72
4
 73
2
 74
0
 40
0.0
 40
0.0
 40
0.7877758913412566
 40
0.7877758913412566
 10
-128.52900037105405
 20
-5.12
 30
0.0
 10
-123.42093486913937
 20
32.000000000000014
 30
0.0
  0
LINE
  5
121
330
17
100
AcDbEntity
  8
HIDDEN
100
AcDbLine
 10
-128.52900037105405
 20
-5.12
 30
0.0
 11
-164.62968351810463
 21
-5.12
 31
0.0
  0
SPLINE
  5
122
330
17
100
AcDbEntity
  8
HIDDEN
100
AcDbSpline
 70
0
 71
3
 72
11
 73
7
 74
0
 40
0.0
 40
0.0
 40
0.0
 40
0.0
 40
0.49999999999999933
 40
0.49999999999999933
 40
0.49999999999999933
 40
1.0
 40
1.0
 40
1.0
 40
1.0
 10
-124.89931685294943
 20
-5.12
 30
0.0
 10
-125.54916755226773
 20
-5.1199999999999966
 30
0.0
 10
-126.1979412610759
 20
-5.120000000000001
 30
0.0
 10
-126.81431558847919
 20
-5.12
 30
0.0
 10
-127.42966655090589
 20
-5.1199999999999966
 30
0.0
 10
-128.01057680697465
 20
-5.120000000000002
 30
0.0
 10
-128.52900037105405
 20
-5.12
 30
0.0
  0
LINE
  5
123
330
17
100
AcDbEntity
  8
HIDDEN
100
AcDbLine
 10
-118.72819436736364
 20
-5.12
 30
0.0
 11
-124.89931685294943
 21
-5.12
 31
0.0
  0
LINE
  5
124
330
17
100
AcDbEntity
  8
HIDDEN
100
AcDbLine
 10
112.47180563263746
 20
-5.12
 30
0.0
 11
-112.4718056326364
 21
-5.12
 31
0.0
  0
LINE
  5
125
330
17
100
AcDbEntity
  8
HIDDEN
100
AcDbLine
 10
124.89931685294947
 20
-5.12
 30
0.0
 11
118.72819436736256
 21
-5.12
 31
0.0
  0
SPLINE
  5
126
330
17
100
AcDbEntity
  8
HIDDEN
100
AcDbSpline
 70
0
 71
1
 72
4
 73
2
 74
0
 40
0.0
 40
0.0
 40
0.7877758913412566
 40
0.7877758913412566
 10
128.52900037105405
 20
-5.12
 30
0.0
 10
123.42093486913932
 20
32.000000000000014
 30
0.0
  0
SPLINE
  5
127
330
17
100
AcDbEntity
  8
HIDDEN
100
AcDbSpline
 70
0
 71
3
 72
11
 73
7
 74
0
 40
0.0
 40
0.0
 40
0.0
 40
0.0
 40
0.49999999999999983
 40
0.49999999999999983
 40
0.49999999999999983
 40
1.0
 40
1.0
 40
1.0
 40
1.0
 10
128.52900037105405
 20
-5.12
 30
0.0
 10
128.0105768069746
 20
-5.1199999999999966
 30
0.0
 10
127.42966655090599
 20
-5.120000000000001
 30
0.0
 10
126.8143155884792
 20
-5.12
 30
0.0
 10
126.19794126107585
 20
-5.119999999999998
 30
0.0
 10
125.54916755226782
 20
-5.119999999999999
 30
0.0
 10
124.89931685294945
 20
-5.12
 30
0.0
  0
SPLINE
  5
128
330
17
100
AcDbEntity
  8
HIDDEN
100
AcDbSpline
 70
0
 71
1
 72
4
 73
2
 74
0
 40
0.0
 40
0.0
 40
1.0
 40
1.0
 10
161.19653813795938
 20
13.737166922824125
 30
0.0
 10
157.8715974793824
 20
32.00000000000001
 30
0.0
  0
LINE
  5
129
330
17
100
AcDbEntity
  8
HIDDEN
100
AcDbLine
 10
162.83454059365567
 20
-5.12
 30
0.0
 11
128.52900037105405
 21
-5.12
 31
0.0
  0
SPLINE
  5
12A
330
17
100
AcDbEntity
  8
HIDDEN
100
AcDbSpline
 70
0
 71
3
 72
26
 73
22
 74
0
 40
0.0
 40
0.0
 40
0.0
 40
0.0
 40
0.49583845154674205
 40
0.49583845154674205
 40
0.49583845154674205
 40
0.7469971460214054
 40
0.7469971460214054
 40
0.7469971460214054
 40
0.8726196910195548
 40
0.8726196910195548
 40
0.8726196910195548
 40
0.9338309997429943
 40
0.9338309997429943
 40
0.9338309997429943
 40
0.9660493135541327
 40
0.9660493135541327
 40
0.9660493135541327
 40
0.9830246567770664
 40
0.9830246567770664
 40
0.9830246567770664
 40
1.0
 40
1.0
 40
1.0
 40
1.0
 10
162.22574281763775
 20
-3.7500000000000018
 30
0.0
 10
161.62526786232263
 20
-1.843523667062323
 30
0.0
 10
161.02479290700765
 20
0.0629526658753549
 30
0.0
 10
160.4243179516925
 20
1.9694289988130338
 30
0.0
 10
160.1195816260149
 20
2.934481470613469
 30
0.0
 10
159.81484530033754
 20
3.899533942413911
 30
0.0
 10
159.51010897465997
 20
4.8645864142143465
 30
0.0
 10
159.3575409877429
 20
5.347112497944557
 30
0.0
 10
159.20497300082607
 20
5.829638581674762
 30
0.0
 10
159.05240501390904
 20
6.312164665404971
 30
0.0
 10
158.97802828681023
 20
6.547241438455522
 30
0.0
 10
158.90365155971142
 20
6.78231821150608
 30
0.0
 10
158.82927483261255
 20
7.017394984556629
 30
0.0
 10
158.79011629909238
 20
7.141119592192802
 30
0.0
 10
158.7509577655723
 20
7.264844199828975
 30
0.0
 10
158.71179923205216
 20
7.388568807465152
 30
0.0
 10
158.6921572088049
 20
7.450622344290727
 30
0.0
 10
158.67261976026762
 20
7.512341991433671
 30
0.0
 10
158.65318688644032
 20
7.573727748893981
 30
0.0
 10
158.6335143288111
 20
7.635870920837105
 30
0.0
 10
158.61170143987817
 20
7.704770214787382
 30
0.0
 10
158.59738144848117
 20
7.75
 30
0.0
  0
SPLINE
  5
12B
330
17
100
AcDbEntity
  8
HIDDEN
100
AcDbSpline
 70
0
 71
3
 72
20
 73
16
 74
0
 40
0.0
 40
0.0
 40
0.0
 40
0.0
 40
0.24731199677049376
 40
0.24731199677049376
 40
0.24731199677049376
 40
0.5091563132947247
 40
0.5091563132947247
 40
0.5091563132947247
 40
0.7049381390244557
 40
0.7049381390244557
 40
0.7049381390244557
 40
0.8037753594581152
 40
0.8037753594581152
 40
0.8037753594581152
 40
1.0
 40
1.0
 40
1.0
 40
1.0
 10
161.19653813795932
 20
13.737166922824128
 30
0.0
 10
160.8166839832737
 20
13.539264998797886
 30
0.0
 10
160.4494601060914
 20
13.294555089483211
 30
0.0
 10
160.09486650641222
 20
13.003037194880095
 30
0.0
 10
159.72171487529943
 20
12.690247657453432
 30
0.0
 10
159.36474586523235
 20
12.317222757546002
 30
0.0
 10
159.05409849135364
 20
11.834526678522327
 30
0.0
 10
158.82339932613905
 20
11.473100714352043
 30
0.0
 10
158.61668454370476
 20
11.04770977069991
 30
0.0
 10
158.48077437328553
 20
10.52354683652223
 30
0.0
 10
158.41089245304093
 20
10.258389962952549
 30
0.0
 10
158.3657723082391
 20
9.970056303534166
 30
0.0
 10
158.34541393887966
 20
9.6585458582671
 30
0.0
 10
158.30448649273097
 20
9.041773802125286
 30
0.0
 10
158.40340274067816
 20
8.350507330566765
 30
0.0
 10
158.59738144848117
 20
7.75
 30
0.0
  0
SPLINE
  5
12C
330
17
100
AcDbEntity
  8
HIDDEN
100
AcDbSpline
 70
0
 71
1
 72
4
 73
2
 74
0
 40
0.0
 40
0.0
 40
1.0
 40
1.0
 10
163.41564091680814
 20
14.750000000000002
 30
0.0
 10
160.30390492359933
 20
32.000000000000014
 30
0.0
  0
SPLINE
  5
12D
330
17
100
AcDbEntity
  8
HIDDEN
100
AcDbSpline
 70
0
 71
3
 72
11
 73
7
 74
0
 40
0.0
 40
0.0
 40
0.0
 40
0.0
 40
0.6273926679822213
 40
0.6273926679822213
 40
0.6273926679822213
 40
1.0
 40
1.0
 40
1.0
 40
1.0
 10
161.19653813795938
 20
13.737166922824121
 30
0.0
 10
161.78525571858998
 20
14.04911891253493
 30
0.0
 10
162.31170820903856
 20
14.364598890570997
 30
0.0
 10
162.7173830983186
 20
14.561088984628022
 30
0.0
 10
162.9574296292681
 20
14.677488377499929
 30
0.0
 10
163.15243011294302
 20
14.750177258246914
 30
0.0
 10
163.27833344463693
 20
14.75
 30
0.0
  0
SPLINE
  5
12E
330
17
100
AcDbEntity
  8
HIDDEN
100
AcDbSpline
 70
0
 71
2
 72
6
 73
3
 74
0
 40
0.0
 40
0.0
 40
0.0
 40
1.0
 40
1.0
 40
1.0
 10
163.27833344463696
 20
14.75
 30
0.0
 10
163.41543401746117
 20
14.75
 30
0.0
 10
163.41564091680823
 20
14.75
 30
0.0
  0
SPLINE
  5
12F
330
17
100
AcDbEntity
  8
HIDDEN
100
AcDbSpline
 70
0
 71
1
 72
4
 73
2
 74
0
 40
0.0
 40
0.0
 40
1.0
 40
1.0
 10
163.41564091680817
 20
14.750000000000002
 30
0.0
 10
160.30390492359936
 20
32.000000000000014
 30
0.0
  0
SPLINE
  5
130
330
17
100
AcDbEntity
  8
HIDDEN
100
AcDbSpline
 70
0
 71
1
 72
4
 73
2
 74
0
 40
0.0
 40
0.0
 40
1.0
 40
1.0
 10
161.19653813795935
 20
13.737166922824128
 30
0.0
 10
157.87159747938236
 20
32.00000000000001
 30
0.0
  0
SPLINE
  5
131
330
17
100
AcDbEntity
  8
HIDDEN
100
AcDbSpline
 70
0
 71
2
 72
6
 73
3
 74
0
 40
0.0
 40
0.0
 40
0.0
 40
1.0
 40
1.0
 40
1.0
 10
163.41564091680817
 20
14.75
 30
0.0
 10
163.41543402269383
 20
14.75
 30
0.0
 10
163.27833344463698
 20
14.75
 30
0.0
  0
SPLINE
  5
132
330
17
100
AcDbEntity
  8
HIDDEN
100
AcDbSpline
 70
0
 71
3
 72
11
 73
7
 74
0
 40
0.0
 40
0.0
 40
0.0
 40
0.0
 40
0.3734739516400547
 40
0.3734739516400547
 40
0.3734739516400547
 40
1.0
 40
1.0
 40
1.0
 40
1.0
 10
163.2783334446369
 20
14.75
 30
0.0
 10
163.1521368894628
 20
14.750178335141479
 30
0.0
 10
162.95652285465232
 20
14.677148698508898
 30
0.0
 10
162.7157069349992
 20
14.560276668531436
 30
0.0
 10
162.3102433394091
 20
14.363722555536786
 30
0.0
 10
161.78444829625425
 20
14.048690668134956
 30
0.0
 10
161.19653813795935
 20
13.737166922824121
 30
0.0
  0
SPLINE
  5
133
330
17
100
AcDbEntity
  8
HIDDEN
100
AcDbSpline
 70
0
 71
1
 72
4
 73
2
 74
0
 40
0.0
 40
0.0
 40
0.7877758913412566
 40
0.7877758913412566
 10
128.52900037105405
 20
-5.12
 30
0.0
 10
123.42093486913932
 20
32.000000000000014
 30
0.0
  0
SPLINE
  5
134
330
17
100
AcDbEntity
  8
HIDDEN
100
AcDbSpline
 70
0
 71
3
 72
20
 73
16
 74
0
 40
0.0
 40
0.0
 40
0.0
 40
0.0
 40
0.2080286432642707
 40
0.2080286432642707
 40
0.2080286432642707
 40
0.34004521244662766
 40
0.34004521244662766
 40
0.34004521244662766
 40
0.4762702706955596
 40
0.4762702706955596
 40
0.4762702706955596
 40
0.7428813536116803
 40
0.7428813536116803
 40
0.7428813536116803
 40
1.0
 40
1.0
 40
1.0
 40
1.0
 10
158.5973814484812
 20
7.75
 30
0.0
 10
158.39093441160398
 20
8.38653890049282
 30
0.0
 10
158.29441716919797
 20
9.125538537061297
 30
0.0
 10
158.3533590196826
 20
9.768987689323707
 30
0.0
 10
158.3876345691679
 20
10.177950872731387
 30
0.0
 10
158.472990576773
 20
10.54604574265122
 30
0.0
 10
158.5850421399023
 20
10.869695800618725
 30
0.0
 10
158.70340436973265
 20
11.202234915717288
 30
0.0
 10
158.84272389617288
 20
11.496649457039961
 30
0.0
 10
159.003000719223
 20
11.752939424586735
 30
0.0
 10
159.3133804452831
 20
12.257491489941133
 30
0.0
 10
159.6747142479414
 20
12.644291685038642
 30
0.0
 10
160.0530125348947
 20
12.967757116880167
 30
0.0
 10
160.4188262820505
 20
13.27866166912596
 30
0.0
 10
160.80304490990682
 20
13.528274883319332
 30
0.0
 10
161.19653813795935
 20
13.737166922824127
 30
0.0
  0
SPLINE
  5
135
330
17
100
AcDbEntity
  8
HIDDEN
100
AcDbSpline
 70
0
 71
3
 72
26
 73
22
 74
0
 40
0.0
 40
0.0
 40
0.0
 40
0.0
 40
0.49583845154670175
 40
0.49583845154670175
 40
0.49583845154670175
 40
0.746997146021326
 40
0.746997146021326
 40
0.746997146021326
 40
0.8726196910194643
 40
0.8726196910194643
 40
0.8726196910194643
 40
0.933830999742898
 40
0.933830999742898
 40
0.933830999742898
 40
0.9660493135542073
 40
0.9660493135542073
 40
0.9660493135542073
 40
0.9830246567771037
 40
0.9830246567771037
 40
0.9830246567771037
 40
1.0
 40
1.0
 40
1.0
 40
1.0
 10
162.22574281763784
 20
-3.7500000000000018
 30
0.0
 10
161.62526786232272
 20
-1.8435236670623179
 30
0.0
 10
161.02479290700757
 20
0.0629526658753645
 30
0.0
 10
160.42431795169253
 20
1.9694289988130487
 30
0.0
 10
160.11958162601505
 20
2.934481470613427
 30
0.0
 10
159.8148453003375
 20
3.8995339424138
 30
0.0
 10
159.51010897466003
 20
4.864586414214179
 30
0.0
 10
159.35754098774308
 20
5.347112497944325
 30
0.0
 10
159.2049730008261
 20
5.829638581674474
 30
0.0
 10
159.05240501390918
 20
6.312164665404623
 30
0.0
 10
158.9780282868103
 20
6.547241438455127
 30
0.0
 10
158.9036515597116
 20
6.782318211505645
 30
0.0
 10
158.82927483261273
 20
7.017394984556152
 30
0.0
 10
158.79011629909257
 20
7.14111959219242
 30
0.0
 10
158.7509577655723
 20
7.264844199828688
 30
0.0
 10
158.71179923205227
 20
7.388568807464963
 30
0.0
 10
158.692157208805
 20
7.450622344290396
 30
0.0
 10
158.6726197602678
 20
7.512341991433309
 30
0.0
 10
158.65318688644038
 20
7.573727748893681
 30
0.0
 10
158.6335143288112
 20
7.635870920836808
 30
0.0
 10
158.61170143987837
 20
7.704770214786956
 30
0.0
 10
158.59738144848117
 20
7.750000000000001
 30
0.0
  0
LINE
  5
136
330
17
100
AcDbEntity
  8
HIDDEN
100
AcDbLine
 10
128.52900037105408
 20
-5.12
 30
0.0
 11
162.83454059365582
 21
-5.12
 31
0.0
  0
SPLINE
  5
137
330
17
100
AcDbEntity
  8
HIDDEN
100
AcDbSpline
 70
0
 71
3
 72
11
 73
7
 74
0
 40
0.0
 40
0.0
 40
0.0
 40
0.0
 40
0.500000000000002
 40
0.500000000000002
 40
0.500000000000002
 40
1.0
 40
1.0
 40
1.0
 40
1.0
 10
124.89931685294948
 20
-5.12
 30
0.0
 10
125.54916755226786
 20
-5.120000000000001
 30
0.0
 10
126.19794126107587
 20
-5.119999999999998
 30
0.0
 10
126.81431558847925
 20
-5.12
 30
0.0
 10
127.42966655090603
 20
-5.120000000000001
 30
0.0
 10
128.01057680697465
 20
-5.119999999999999
 30
0.0
 10
128.52900037105408
 20
-5.12
 30
0.0
  0
LINE
  5
138
330
17
100
AcDbEntity
  8
HIDDEN
100
AcDbLine
 10
118.7281943673626
 20
-5.12
 30
0.0
 11
124.8993168529495
 21
-5.12
 31
0.0
  0
LINE
  5
139
330
17
100
AcDbEntity
  8
HIDDEN
100
AcDbLine
 10
-112.47180563263751
 20
-5.12
 30
0.0
 11
112.47180563263741
 21
-5.12
 31
0.0
  0
LINE
  5
13A
330
17
100
AcDbEntity
  8
HIDDEN
100
AcDbLine
 10
-124.89931685294941
 20
-5.12
 30
0.0
 11
-118.7281943673625
 21
-5.12
 31
0.0
  0
SPLINE
  5
13B
330
17
100
AcDbEntity
  8
HIDDEN
100
AcDbSpline
 70
0
 71
3
 72
11
 73
7
 74
0
 40
0.0
 40
0.0
 40
0.0
 40
0.0
 40
0.49999999999999933
 40
0.49999999999999933
 40
0.49999999999999933
 40
1.0
 40
1.0
 40
1.0
 40
1.0
 10
-128.52900037105405
 20
-5.12
 30
0.0
 10
-128.0105768069746
 20
-5.120000000000001
 30
0.0
 10
-127.42966655090599
 20
-5.119999999999999
 30
0.0
 10
-126.81431558847919
 20
-5.12
 30
0.0
 10
-126.19794126107574
 20
-5.1199999999999966
 30
0.0
 10
-125.54916755226786
 20
-5.120000000000002
 30
0.0
 10
-124.89931685294943
 20
-5.12
 30
0.0
  0
LINE
  5
13C
330
17
100
AcDbEntity
  8
HIDDEN
100
AcDbLine
 10
-104.4679863326941
 20
-29.0
 30
0.0
 11
104.4679863326941
 21
-29.0
 31
0.0
  0
LINE
  5
13D
330
17
100
AcDbEntity
  8
HIDDEN
100
AcDbLine
 10
163.27833344463693
 20
14.75
 30
0.0
 11
165.45002693965517
 21
14.75
 31
0.0
  0
SPLINE
  5
13E
330
17
100
AcDbEntity
  8
HIDDEN
100
AcDbSpline
 70
0
 71
1
 72
17
 73
15
 74
0
 40
0.0
 40
0.0
 40
0.0714285714285715
 40
0.142857142857143
 40
0.2142857142857145
 40
0.285714285714286
 40
0.3571428571428575
 40
0.428571428571429
 40
0.5000000000000004
 40
0.571428571428572
 40
0.6428571428571435
 40
0.714285714285715
 40
0.7857142857142865
 40
0.857142857142858
 40
0.9285714285714289
 40
1.0
 40
1.0
 10
139.79999999999998
 20
-29.0
 30
0.0
 10
139.78737842942166
 20
-29.0
 30
0.0
 10
139.7495714365433
 20
-29.0
 30
0.0
 10
139.68675191398398
 20
-29.0
 30
0.0
 10
139.59920713748207
 20
-29.0
 30
0.0
 10
139.48733745217353
 20
-29.0
 30
0.0
 10
139.35165444180066
 20
-29.0
 30
0.0
 10
139.19277858922274
 20
-29.0
 30
0.0
 10
139.01143643892766
 20
-29.0
 30
0.0
 10
138.8084572745201
 20
-29.0
 30
0.0
 10
138.58476932638018
 20
-29.0
 30
0.0
 10
138.3413955268359
 20
-29.0
 30
0.0
 10
138.07944883225963
 20
-29.0
 30
0.0
 10
137.80012713348225
 20
-29.0
 30
0.0
 10
137.50470777779918
 20
-29.0
 30
0.0
  0
SPLINE
  5
13F
330
17
100
AcDbEntity
  8
HIDDEN
100
AcDbSpline
 70
0
 71
1
 72
4
 73
2
 74
0
 40
0.0
 40
0.0
 40
0.793642536033121
 40
0.793642536033121
 10
137.50470777779918
 20
-29.0
 30
0.0
 10
159.03224231417207
 20
-10.047816239529071
 30
0.0
  0
SPLINE
  5
140
330
17
100
AcDbEntity
  8
HIDDEN
100
AcDbSpline
 70
0
 71
1
 72
4
 73
2
 74
0
 40
0.0
 40
0.0
 40
0.7642378559463988
 40
0.7642378559463988
 10
139.79999999999998
 20
-29.0
 30
0.0
 10
160.58726968174204
 20
-10.749999999999996
 30
0.0
  0
SPLINE
  5
141
330
17
100
AcDbEntity
  8
HIDDEN
100
AcDbSpline
 70
0
 71
1
 72
4
 73
2
 74
0
 40
0.0
 40
0.0
 40
1.0
 40
1.0
 10
107.69269411049328
 20
-29.0
 30
0.0
 10
128.52900037105405
 20
-5.12
 30
0.0
  0
LINE
  5
142
330
17
100
AcDbEntity
  8
HIDDEN
100
AcDbLine
 10
107.69269411049329
 20
-29.0
 30
0.0
 11
137.50470777779918
 21
-29.0
 31
0.0
  0
SPLINE
  5
143
330
17
100
AcDbEntity
  8
HIDDEN
100
AcDbSpline
 70
0
 71
1
 72
4
 73
2
 74
0
 40
0.0
 40
0.0
 40
0.7642378559463988
 40
0.7642378559463988
 10
139.79999999999998
 20
-29.0
 30
0.0
 10
160.58726968174204
 20
-10.749999999999996
 30
0.0
  0
SPLINE
  5
144
330
17
100
AcDbEntity
  8
HIDDEN
100
AcDbSpline
 70
0
 71
1
 72
17
 73
15
 74
0
 40
0.0
 40
0.0
 40
0.07142857142857142
 40
0.14285714285714285
 40
0.21428571428571427
 40
0.2857142857142857
 40
0.35714285714285715
 40
0.42857142857142855
 40
0.5
 40
0.5714285714285714
 40
0.6428571428571429
 40
0.7142857142857143
 40
0.7857142857142857
 40
0.8571428571428571
 40
0.9285714285714286
 40
1.0
 40
1.0
 10
137.50470777779918
 20
-29.0
 30
0.0
 10
137.80012713348225
 20
-29.0
 30
0.0
 10
138.0794488322596
 20
-29.0
 30
0.0
 10
138.34139552683587
 20
-29.0
 30
0.0
 10
138.58476932638018
 20
-29.0
 30
0.0
 10
138.80845727452007
 20
-29.0
 30
0.0
 10
139.0114364389277
 20
-29.0
 30
0.0
 10
139.19277858922274
 20
-29.0
 30
0.0
 10
139.35165444180066
 20
-29.0
 30
0.0
 10
139.48733745217353
 20
-29.0
 30
0.0
 10
139.5992071374821
 20
-29.0
 30
0.0
 10
139.68675191398398
 20
-29.0
 30
0.0
 10
139.7495714365433
 20
-29.0
 30
0.0
 10
139.7873784294217
 20
-29.0
 30
0.0
 10
139.79999999999998
 20
-29.0
 30
0.0
  0
SPLINE
  5
145
330
17
100
AcDbEntity
  8
HIDDEN
100
AcDbSpline
 70
0
 71
1
 72
4
 73
2
 74
0
 40
0.0
 40
0.0
 40
0.7936425360331212
 40
0.7936425360331212
 10
137.50470777779915
 20
-29.0
 30
0.0
 10
159.0322423141721
 20
-10.047816239529066
 30
0.0
  0
SPLINE
  5
146
330
17
100
AcDbEntity
  8
HIDDEN
100
AcDbSpline
 70
0
 71
1
 72
4
 73
2
 74
0
 40
0.0
 40
0.0
 40
1.0
 40
1.0
 10
107.69269411049328
 20
-29.0
 30
0.0
 10
128.52900037105405
 20
-5.12
 30
0.0
  0
LINE
  5
147
330
17
100
AcDbEntity
  8
HIDDEN
100
AcDbLine
 10
137.50470777779915
 20
-29.0
 30
0.0
 11
107.69269411049328
 21
-29.0
 31
0.0
  0
LINE
  5
148
330
17
100
AcDbEntity
  8
HIDDEN
100
AcDbLine
 10
163.27833344463693
 20
14.75
 30
0.0
 11
165.45002693965517
 21
14.75
 31
0.0
  0
LINE
  5
149
330
17
100
AcDbEntity
  8
HIDDEN
100
AcDbLine
 10
104.4679863326941
 20
-29.0
 30
0.0
 11
-104.4679863326941
 21
-29.0
 31
0.0
  0
LINE
  5
14A
330
17
100
AcDbEntity
  8
HIDDEN
100
AcDbLine
 10
-137.5047077777992
 20
-29.0
 30
0.0
 11
-107.69269411049328
 21
-29.0
 31
0.0
  0
SPLINE
  5
14B
330
17
100
AcDbEntity
  8
HIDDEN
100
AcDbSpline
 70
0
 71
1
 72
4
 73
2
 74
0
 40
0.0
 40
0.0
 40
1.0
 40
1.0
 10
-107.69269411049328
 20
-29.0
 30
0.0
 10
-128.52900037105405
 20
-5.12
 30
0.0
  0
SPLINE
  5
14C
330
17
100
AcDbEntity
  8
HIDDEN
100
AcDbSpline
 70
0
 71
1
 72
4
 73
2
 74
0
 40
0.0
 40
0.0
 40
1.0
 40
1.0
 10
-137.5047077777992
 20
-29.0
 30
0.0
 10
-164.62968351810463
 20
-5.12
 30
0.0
  0
SPLINE
  5
14D
330
17
100
AcDbEntity
  8
HIDDEN
100
AcDbSpline
 70
0
 71
1
 72
17
 73
15
 74
0
 40
0.0
 40
0.0
 40
0.0714285714285713
 40
0.1428571428571426
 40
0.21428571428571389
 40
0.2857142857142852
 40
0.3571428571428565
 40
0.42857142857142777
 40
0.49999999999999906
 40
0.5714285714285704
 40
0.6428571428571417
 40
0.714285714285713
 40
0.7857142857142843
 40
0.8571428571428555
 40
0.9285714285714268
 40
1.0
 40
1.0
 10
-137.5047077777992
 20
-29.0
 30
0.0
 10
-137.80012713348225
 20
-29.0
 30
0.0
 10
-138.07944883225963
 20
-29.0
 30
0.0
 10
-138.34139552683592
 20
-29.0
 30
0.0
 10
-138.5847693263802
 20
-29.0
 30
0.0
 10
-138.80845727452015
 20
-29.0
 30
0.0
 10
-139.01143643892772
 20
-29.0
 30
0.0
 10
-139.19277858922277
 20
-29.0
 30
0.0
 10
-139.3516544418007
 20
-29.0
 30
0.0
 10
-139.48733745217356
 20
-29.0
 30
0.0
 10
-139.5992071374821
 20
-29.0
 30
0.0
 10
-139.686751913984
 20
-29.0
 30
0.0
 10
-139.74957143654336
 20
-29.0
 30
0.0
 10
-139.78737842942172
 20
-29.0
 30
0.0
 10
-139.8
 20
-29.0
 30
0.0
  0
SPLINE
  5
14E
330
17
100
AcDbEntity
  8
HIDDEN
100
AcDbSpline
 70
0
 71
1
 72
4
 73
2
 74
0
 40
0.0
 40
0.0
 40
1.0
 40
1.0
 10
-139.79999999999998
 20
-29.0
 30
0.0
 10
-167.0
 20
-5.12
 30
0.0
  0
SPLINE
  5
14F
330
17
100
AcDbEntity
  8
HIDDEN
100
AcDbSpline
 70
0
 71
1
 72
4
 73
2
 74
0
 40
0.0
 40
0.0
 40
1.0
 40
1.0
 10
-139.79999999999998
 20
-29.0
 30
0.0
 10
-166.99999999999997
 20
-5.12
 30
0.0
  0
SPLINE
  5
150
330
17
100
AcDbEntity
  8
HIDDEN
100
AcDbSpline
 70
0
 71
1
 72
17
 73
15
 74
0
 40
0.0
 40
0.0
 40
0.06763709485703481
 40
0.13527418971406963
 40
0.20291128457110444
 40
0.27054837942813925
 40
0.3381854742851741
 40
0.40582256914220893
 40
0.4734596639992438
 40
0.5410967588562786
 40
0.6087338537133135
 40
0.6763709485703483
 40
0.7440080434273831
 40
0.811645138284418
 40
0.8792822331414528
 40
0.9469193279984873
 40
0.9469193279984873
 10
-139.8
 20
-29.0
 30
0.0
 10
-139.78737842942172
 20
-29.0
 30
0.0
 10
-139.74957143654333
 20
-29.0
 30
0.0
 10
-139.68675191398398
 20
-29.0
 30
0.0
 10
-139.5992071374821
 20
-29.0
 30
0.0
 10
-139.48733745217356
 20
-29.0
 30
0.0
 10
-139.3516544418007
 20
-29.0
 30
0.0
 10
-139.19277858922283
 20
-29.0
 30
0.0
 10
-139.01143643892772
 20
-29.0
 30
0.0
 10
-138.80845727452012
 20
-29.0
 30
0.0
 10
-138.58476932638024
 20
-29.0
 30
0.0
 10
-138.34139552683592
 20
-29.0
 30
0.0
 10
-138.07944883225963
 20
-29.0
 30
0.0
 10
-137.80012713348228
 20
-29.0
 30
0.0
 10
-137.5047077777992
 20
-29.0
 30
0.0
  0
SPLINE
  5
151
330
17
100
AcDbEntity
  8
HIDDEN
100
AcDbSpline
 70
0
 71
1
 72
4
 73
2
 74
0
 40
0.0
 40
0.0
 40
1.0
 40
1.0
 10
-137.5047077777992
 20
-29.0
 30
0.0
 10
-164.62968351810463
 20
-5.12
 30
0.0
  0
LINE
  5
152
330
17
100
AcDbEntity
  8
HIDDEN
100
AcDbLine
 10
-107.69269411049328
 20
-29.0
 30
0.0
 11
-137.5047077777992
 21
-29.0
 31
0.0
  0
SPLINE
  5
153
330
17
100
AcDbEntity
  8
HIDDEN
100
AcDbSpline
 70
0
 71
1
 72
4
 73
2
 74
0
 40
0.0
 40
0.0
 40
1.0
 40
1.0
 10
-107.6926941104933
 20
-29.000000000000004
 30
0.0
 10
-128.52900037105405
 20
-5.12
 30
0.0
  0
SPLINE
  5
154
330
17
100
AcDbEntity
  8
HIDDEN
100
AcDbSpline
 70
0
 71
3
 72
8
 73
4
 74
0
 40
0.0
 40
0.0
 40
0.0
 40
0.0
 40
1.0
 40
1.0
 40
1.0
 40
1.0
 10
-107.69269411049328
 20
-29.0
 30
0.0
 10
-106.76073781435937
 20
-28.999999999999986
 30
0.0
 10
-105.6167510518357
 20
-29.000000000000014
 30
0.0
 10
-104.46798633269408
 20
-28.999999999999996
 30
0.0
  0
SPLINE
  5
155
330
17
100
AcDbEntity
  8
HIDDEN
100
AcDbSpline
 70
0
 71
3
 72
8
 73
4
 74
0
 40
0.0
 40
0.0
 40
0.0
 40
0.0
 40
1.0
 40
1.0
 40
1.0
 40
1.0
 10
104.4679863326941
 20
-29.0
 30
0.0
 10
105.61675105183562
 20
-28.999999999999993
 30
0.0
 10
106.76073781435947
 20
-29.0
 30
0.0
 10
107.69269411049328
 20
-29.0
 30
0.0
  0
SPLINE
  5
156
330
17
100
AcDbEntity
  8
HIDDEN
100
AcDbSpline
 70
0
 71
3
 72
8
 73
4
 74
0
 40
0.0
 40
0.0
 40
0.0
 40
0.0
 40
1.0
 40
1.0
 40
1.0
 40
1.0
 10
107.69269411049328
 20
-29.0
 30
0.0
 10
106.76073781435939
 20
-28.999999999999986
 30
0.0
 10
105.61675105183568
 20
-29.000000000000007
 30
0.0
 10
104.4679863326941
 20
-29.0
 30
0.0
  0
SPLINE
  5
157
330
17
100
AcDbEntity
  8
HIDDEN
100
AcDbSpline
 70
0
 71
3
 72
8
 73
4
 74
0
 40
0.0
 40
0.0
 40
0.0
 40
0.0
 40
1.0
 40
1.0
 40
1.0
 40
1.0
 10
-104.4679863326941
 20
-29.0
 30
0.0
 10
-105.61675105183564
 20
-28.999999999999986
 30
0.0
 10
-106.76073781435944
 20
-29.000000000000004
 30
0.0
 10
-107.69269411049329
 20
-29.0
 30
0.0
  0
SPLINE
  5
158
330
17
100
AcDbEntity
  8
HIDDEN
100
AcDbSpline
 70
0
 71
1
 72
4
 73
2
 74
0
 40
0.0
 40
0.0
 40
1.0
 40
1.0
 10
106.63828323255895
 20
-32.0
 30
0.0
 10
127.15332783651976
 20
-5.12
 30
0.0
  0
SPLINE
  5
159
330
17
100
AcDbEntity
  8
HIDDEN
100
AcDbSpline
 70
0
 71
1
 72
4
 73
2
 74
0
 40
0.0
 40
0.0
 40
1.0
 40
1.0
 10
-106.63828323255893
 20
-32.0
 30
0.0
 10
-127.15332783651974
 20
-5.12
 30
0.0
  0
LINE
  5
15A
330
17
100
AcDbEntity
  8
HIDDEN
100
AcDbLine
 10
162.2257428176378
 20
-3.750000000000001
 30
0.0
 11
167.68567241503084
 21
-3.750000000000001
 31
0.0
  0
LINE
  5
15B
330
17
100
AcDbEntity
  8
HIDDEN
100
AcDbLine
 10
162.22574281763778
 20
-3.750000000000001
 30
0.0
 11
167.6856724150307
 21
-3.750000000000001
 31
0.0
  0
SPLINE
  5
15C
330
17
100
AcDbEntity
  8
HIDDEN
100
AcDbSpline
 70
0
 71
1
 72
4
 73
2
 74
0
 40
0.0
 40
0.0
 40
1.0
 40
1.0
 10
127.15332783651976
 20
-5.12
 30
0.0
 10
120.74495785546259
 20
32.0
 30
0.0
  0
SPLINE
  5
15D
330
17
100
AcDbEntity
  8
HIDDEN
100
AcDbSpline
 70
0
 71
1
 72
4
 73
2
 74
0
 40
0.0
 40
0.0
 40
1.0
 40
1.0
 10
-127.15332783651974
 20
-5.12
 30
0.0
 10
-120.7449578554626
 20
32.0
 30
0.0
  0
SPLINE
  5
15E
330
17
100
AcDbEntity
  8
HIDDEN
100
AcDbSpline
 70
0
 71
1
 72
4
 73
2
 74
0
 40
0.0
 40
0.0
 40
0.7877758913412566
 40
0.7877758913412566
 10
-124.89931685294943
 20
-5.12
 30
0.0
 10
-119.85324231335629
 20
32.000000000000014
 30
0.0
  0
SPLINE
  5
15F
330
17
100
AcDbEntity
  8
HIDDEN
100
AcDbSpline
 70
0
 71
1
 72
4
 73
2
 74
0
 40
0.0
 40
0.0
 40
0.7877758913412565
 40
0.7877758913412565
 10
124.89931685294944
 20
-5.12
 30
0.0
 10
119.85324231335626
 20
32.000000000000014
 30
0.0
  0
SPLINE
  5
160
330
17
100
AcDbEntity
  8
HIDDEN
100
AcDbSpline
 70
0
 71
1
 72
4
 73
2
 74
0
 40
0.0
 40
0.0
 40
0.7877758913412566
 40
0.7877758913412566
 10
124.8993168529495
 20
-5.12
 30
0.0
 10
119.85324231335626
 20
32.000000000000014
 30
0.0
  0
SPLINE
  5
161
330
17
100
AcDbEntity
  8
HIDDEN
100
AcDbSpline
 70
0
 71
1
 72
4
 73
2
 74
0
 40
0.0
 40
0.0
 40
0.7877758913412566
 40
0.7877758913412566
 10
-124.89931685294943
 20
-5.12
 30
0.0
 10
-119.85324231335629
 20
32.000000000000014
 30
0.0
  0
SPLINE
  5
162
330
17
100
AcDbEntity
  8
HIDDEN
100
AcDbSpline
 70
0
 71
1
 72
4
 73
2
 74
0
 40
0.0
 40
0.0
 40
1.0
 40
1.0
 10
-104.4679863326941
 20
-29.0
 30
0.0
 10
-124.89931685294943
 20
-5.12
 30
0.0
  0
SPLINE
  5
163
330
17
100
AcDbEntity
  8
HIDDEN
100
AcDbSpline
 70
0
 71
1
 72
4
 73
2
 74
0
 40
0.0
 40
0.0
 40
1.0
 40
1.0
 10
104.4679863326941
 20
-29.0
 30
0.0
 10
124.8993168529495
 20
-5.12
 30
0.0
  0
LINE
  5
164
330
17
100
AcDbEntity
  8
HIDDEN
100
AcDbLine
 10
158.5973814484812
 20
7.750000000000001
 30
0.0
 11
163.16017352849695
 21
7.750000000000001
 31
0.0
  0
LINE
  5
165
330
17
100
AcDbEntity
  8
HIDDEN
100
AcDbLine
 10
158.59738144848117
 20
7.750000000000001
 30
0.0
 11
163.16017352849695
 21
7.750000000000001
 31
0.0
  0
SPLINE
  5
166
330
17
100
AcDbEntity
  8
HIDDEN
100
AcDbSpline
 70
0
 71
1
 72
4
 73
2
 74
0
 40
0.0
 40
0.0
 40
1.0
 40
1.0
 10
104.46798633269412
 20
-29.000000000000004
 30
0.0
 10
124.89931685294944
 20
-5.12
 30
0.0
  0
SPLINE
  5
167
330
17
100
AcDbEntity
  8
HIDDEN
100
AcDbSpline
 70
0
 71
1
 72
4
 73
2
 74
0
 40
0.0
 40
0.0
 40
1.0
 40
1.0
 10
-104.4679863326941
 20
-29.0
 30
0.0
 10
-124.89931685294943
 20
-5.12
 30
0.0
  0
ENDSEC
  0
SECTION
  2
OBJECTS
  0
DICTIONARY
  5
A
330
0
100
AcDbDictionary
281
1
  3
ACAD_COLOR
350
B
  3
ACAD_GROUP
350
C
  3
ACAD_LAYOUT
350
D
  3
ACAD_MATERIAL
350
E
  3
ACAD_MLEADERSTYLE
350
F
  3
ACAD_MLINESTYLE
350
10
  3
ACAD_PLOTSETTINGS
350
11
  3
ACAD_PLOTSTYLENAME
350
12
  3
ACAD_SCALELIST
350
14
  3
ACAD_TABLESTYLE
350
15
  3
ACAD_VISUALSTYLE
350
16
  3
EZDXF_META
350
2D
  0
DICTIONARY
  5
B
330
A
100
AcDbDictionary
281
1
  0
DICTIONARY
  5
C
330
A
100
AcDbDictionary
281
1
  0
DICTIONARY
  5
D
330
A
100
AcDbDictionary
281
1
  3
Model
350
1A
  3
Layout1
350
1E
  0
DICTIONARY
  5
E
330
A
100
AcDbDictionary
281
1
  3
ByBlock
350
1F
  3
ByLayer
350
20
  3
Global
350
21
  0
DICTIONARY
  5
F
330
A
100
AcDbDictionary
281
1
  3
Standard
350
2C
  0
DICTIONARY
  5
10
330
A
100
AcDbDictionary
281
1
  3
Standard
350
22
  0
DICTIONARY
  5
11
330
A
100
AcDbDictionary
281
1
  0
ACDBDICTIONARYWDFLT
  5
12
330
A
100
AcDbDictionary
281
1
  3
Normal
350
13
100
AcDbDictionaryWithDefault
340
13
  0
ACDBPLACEHOLDER
  5
13
330
12
  0
DICTIONARY
  5
14
330
A
100
AcDbDictionary
281
1
  0
DICTIONARY
  5
15
330
A
100
AcDbDictionary
281
1
  0
DICTIONARY
  5
16
330
A
100
AcDbDictionary
281
1
  0
LAYOUT
  5
1A
330
D
100
AcDbPlotSettings
  1

  4
A3
  6

 40
7.5
 41
20.0
 42
7.5
 43
20.0
 44
420.0
 45
297.0
 46
0.0
 47
0.0
 48
0.0
 49
0.0
140
0.0
141
0.0
142
1.0
143
1.0
 70
1024
 72
1
 73
0
 74
5
  7

 75
16
 76
0
 77
2
 78
300
147
1.0
148
0.0
149
0.0
100
AcDbLayout
  1
Model
 70
1
 71
0
 10
0.0
 20
0.0
 11
420.0
 21
297.0
 12
0.0
 22
0.0
 32
0.0
 14
1e+20
 24
1e+20
 34
1e+20
 15
-1e+20
 25
-1e+20
 35
-1e+20
146
0.0
 13
0.0
 23
0.0
 33
0.0
 16
1.0
 26
0.0
 36
0.0
 17
0.0
 27
1.0
 37
0.0
 76
1
330
17
  0
LAYOUT
  5
1E
330
D
100
AcDbPlotSettings
  1

  4
A3
  6

 40
7.5
 41
20.0
 42
7.5
 43
20.0
 44
420.0
 45
297.0
 46
0.0
 47
0.0
 48
0.0
 49
0.0
140
0.0
141
0.0
142
1.0
143
1.0
 70
0
 72
1
 73
0
 74
5
  7

 75
16
 76
0
 77
2
 78
300
147
1.0
148
0.0
149
0.0
100
AcDbLayout
  1
Layout1
 70
1
 71
1
 10
0.0
 20
0.0
 11
420.0
 21
297.0
 12
0.0
 22
0.0
 32
0.0
 14
1e+20
 24
1e+20
 34
1e+20
 15
-1e+20
 25
-1e+20
 35
-1e+20
146
0.0
 13
0.0
 23
0.0
 33
0.0
 16
1.0
 26
0.0
 36
0.0
 17
0.0
 27
1.0
 37
0.0
 76
1
330
1B
  0
MATERIAL
  5
1F
102
{ACAD_REACTORS
330
E
102
}
330
E
100
AcDbMaterial
  1
ByBlock
  2

 70
0
 40
1.0
 71
1
 41
1.0
 91
-1023410177
 42
1.0
 72
1
  3

 73
1
 74
1
 75
1
 44
0.5
 73
0
 45
1.0
 46
1.0
 77
1
  4

 78
1
 79
1
170
1
 48
1.0
171
1
  6

172
1
173
1
174
1
140
1.0
141
1.0
175
1
  7

176
1
177
1
178
1
143
1.0
179
1
  8

270
1
271
1
272
1
145
1.0
146
1.0
273
1
  9

274
1
275
1
276
1
 42
1.0
 72
1
  3

 73
1
 74
1
 75
1
 94
63
  0
MATERIAL
  5
20
102
{ACAD_REACTORS
330
E
102
}
330
E
100
AcDbMaterial
  1
ByLayer
  2

 70
0
 40
1.0
 71
1
 41
1.0
 91
-1023410177
 42
1.0
 72
1
  3

 73
1
 74
1
 75
1
 44
0.5
 73
0
 45
1.0
 46
1.0
 77
1
  4

 78
1
 79
1
170
1
 48
1.0
171
1
  6

172
1
173
1
174
1
140
1.0
141
1.0
175
1
  7

176
1
177
1
178
1
143
1.0
179
1
  8

270
1
271
1
272
1
145
1.0
146
1.0
273
1
  9

274
1
275
1
276
1
 42
1.0
 72
1
  3

 73
1
 74
1
 75
1
 94
63
  0
MATERIAL
  5
21
102
{ACAD_REACTORS
330
E
102
}
330
E
100
AcDbMaterial
  1
Global
  2

 70
0
 40
1.0
 71
1
 41
1.0
 91
-1023410177
 42
1.0
 72
1
  3

 73
1
 74
1
 75
1
 44
0.5
 73
0
 45
1.0
 46
1.0
 77
1
  4

 78
1
 79
1
170
1
 48
1.0
171
1
  6

172
1
173
1
174
1
140
1.0
141
1.0
175
1
  7

176
1
177
1
178
1
143
1.0
179
1
  8

270
1
271
1
272
1
145
1.0
146
1.0
273
1
  9

274
1
275
1
276
1
 42
1.0
 72
1
  3

 73
1
 74
1
 75
1
 94
63
  0
MLINESTYLE
  5
22
102
{ACAD_REACTORS
330
10
102
}
330
10
100
AcDbMlineStyle
  2
Standard
 70
0
  3

 62
256
 51
90.0
 52
90.0
 71
2
 49
0.5
 62
256
  6
BYLAYER
 49
-0.5
 62
256
  6
BYLAYER
  0
MLEADERSTYLE
  5
2C
102
{ACAD_REACTORS
330
F
102
}
330
F
100
AcDbMLeaderStyle
179
2
170
2
171
1
172
0
 90
2
 40
0.0
 41
0.0
173
1
 91
-1056964608
 92
-2
290
1
 42
2.0
291
1
 43
8.0
  3
Standard
 44
4.0
300

342
29
174
1
175
1
176
0
178
1
 93
-1056964608
 45
4.0
292
0
297
0
 46
4.0
 94
-1056964608
 47
1.0
 49
1.0
140
1.0
294
1
141
0.0
177
0
142
1.0
295
0
296
0
143
3.75
271
0
272
9
273
9
  0
DICTIONARY
  5
2D
330
A
100
AcDbDictionary
280
1
281
1
  3
CREATED_BY_EZDXF
350
2E
  3
WRITTEN_BY_EZDXF
350
16B
  0
DICTIONARYVAR
  5
2E
330
2D
100
DictionaryVariables
280
0
  1
1.4.4 @ 2026-10-05T07:37:14.289811+00:00
  0
DICTIONARYVAR
  5
16B
330
2D
100
DictionaryVariables
280
0
  1
1.4.4 @ 2026-10-05T07:37:16.010716+00:00
  0
ENDSEC
  0
EOF
