  0
SECTION
  2
HEADER
  9
$ACADVER
  1
AC1027
  9
$ACADMAINTVER
 70
105
  9
$DWGCODEPAGE
  3
ANSI_1252
  9
$LASTSAVEDBY
  1
ezdxf
  9
$REQUIREDVERSIONS
160
0
  9
$INSBASE
 10
0.0
 20
0.0
 30
0.0
  9
$EXTMIN
 10
1e+20
 20
1e+20
 30
1e+20
  9
$EXTMAX
 10
-1e+20
 20
-1e+20
 30
-1e+20
  9
$LIMMIN
 10
0.0
 20
0.0
  9
$LIMMAX
 10
420.0
 20
297.0
  9
$ORTHOMODE
 70
0
  9
$REGENMODE
 70
1
  9
$FILLMODE
 70
1
  9
$QTEXTMODE
 70
0
  9
$MIRRTEXT
 70
1
  9
$LTSCALE
 40
1.0
  9
$ATTMODE
 70
1
  9
$TEXTSIZE
 40
2.5
  9
$TRACEWID
 40
1.0
  9
$TEXTSTYLE
  7
Standard
  9
$CLAYER
  8
0
  9
$CELTYPE
  6
ByLayer
  9
$CECOLOR
 62
256
  9
$CELTSCALE
 40
1.0
  9
$DISPSILH
 70
0
  9
$DIMSCALE
 40
1.0
  9
$DIMASZ
 40
2.5
  9
$DIMEXO
 40
0.625
  9
$DIMDLI
 40
3.75
  9
$DIMRND
 40
0.0
  9
$DIMDLE
 40
0.0
  9
$DIMEXE
 40
1.25
  9
$DIMTP
 40
0.0
  9
$DIMTM
 40
0.0
  9
$DIMTXT
 40
2.5
  9
$DIMCEN
 40
2.5
  9
$DIMTSZ
 40
0.0
  9
$DIMTOL
 70
0
  9
$DIMLIM
 70
0
  9
$DIMTIH
 70
0
  9
$DIMTOH
 70
0
  9
$DIMSE1
 70
0
  9
$DIMSE2
 70
0
  9
$DIMTAD
 70
1
  9
$DIMZIN
 70
8
  9
$DIMBLK
  1

  9
$DIMASO
 70
1
  9
$DIMSHO
 70
1
  9
$DIMPOST
  1

  9
$DIMAPOST
  1

  9
$DIMALT
 70
0
  9
$DIMALTD
 70
3
  9
$DIMALTF
 40
0.03937007874
  9
$DIMLFAC
 40
1.0
  9
$DIMTOFL
 70
1
  9
$DIMTVP
 40
0.0
  9
$DIMTIX
 70
0
  9
$DIMSOXD
 70
0
  9
$DIMSAH
 70
0
  9
$DIMBLK1
  1

  9
$DIMBLK2
  1

  9
$DIMSTYLE
  2
ISO-25
  9
$DIMCLRD
 70
0
  9
$DIMCLRE
 70
0
  9
$DIMCLRT
 70
0
  9
$DIMTFAC
 40
1.0
  9
$DIMGAP
 40
0.625
  9
$DIMJUST
 70
0
  9
$DIMSD1
 70
0
  9
$DIMSD2
 70
0
  9
$DIMTOLJ
 70
0
  9
$DIMTZIN
 70
8
  9
$DIMALTZ
 70
0
  9
$DIMALTTZ
 70
0
  9
$DIMUPT
 70
0
  9
$DIMDEC
 70
2
  9
$DIMTDEC
 70
2
  9
$DIMALTU
 70
2
  9
$DIMALTTD
 70
3
  9
$DIMTXSTY
  7
Standard
  9
$DIMAUNIT
 70
0
  9
$DIMADEC
 70
0
  9
$DIMALTRND
 40
0.0
  9
$DIMAZIN
 70
0
  9
$DIMDSEP
 70
44
  9
$DIMATFIT
 70
3
  9
$DIMFRAC
 70
0
  9
$DIMLDRBLK
  1

  9
$DIMLUNIT
 70
2
  9
$DIMLWD
 70
-2
  9
$DIMLWE
 70
-2
  9
$DIMTMOVE
 70
0
  9
$DIMFXL
 40
1.0
  9
$DIMFXLON
 70
0
  9
$DIMJOGANG
 40
0.785398163397
  9
$DIMTFILL
 70
0
  9
$DIMTFILLCLR
 70
0
  9
$DIMARCSYM
 70
0
  9
$DIMLTYPE
  6

  9
$DIMLTEX1
  6

  9
$DIMLTEX2
  6

  9
$DIMTXTDIRECTION
 70
0
  9
$LUNITS
 70
2
  9
$LUPREC
 70
4
  9
$SKETCHINC
 40
1.0
  9
$FILLETRAD
 40
10.0
  9
$AUNITS
 70
0
  9
$AUPREC
 70
2
  9
$MENU
  1
.
  9
$ELEVATION
 40
0.0
  9
$PELEVATION
 40
0.0
  9
$THICKNESS
 40
0.0
  9
$LIMCHECK
 70
0
  9
$CHAMFERA
 40
0.0
  9
$CHAMFERB
 40
0.0
  9
$CHAMFERC
 40
0.0
  9
$CHAMFERD
 40
0.0
  9
$SKPOLY
 70
0
  9
$TDCREATE
 40
2461319.609224537
  9
$TDUCREATE
 40
2458532.153996898
  9
$TDUPDATE
 40
2461319.609236111
  9
$TDUUPDATE
 40
2458532.1544311
  9
$TDINDWG
 40
0.0
  9
$TDUSRTIMER
 40
0.0
  9
$USRTIMER
 70
1
  9
$ANGBASE
 50
0.0
  9
$ANGDIR
 70
0
  9
$PDMODE
 70
0
  9
$PDSIZE
 40
0.0
  9
$PLINEWID
 40
0.0
  9
$SPLFRAME
 70
0
  9
$SPLINETYPE
 70
6
  9
$SPLINESEGS
 70
8
  9
$HANDSEED
  5
126
  9
$SURFTAB1
 70
6
  9
$SURFTAB2
 70
6
  9
$SURFTYPE
 70
6
  9
$SURFU
 70
6
  9
$SURFV
 70
6
  9
$UCSBASE
  2

  9
$UCSNAME
  2

  9
$UCSORG
 10
0.0
 20
0.0
 30
0.0
  9
$UCSXDIR
 10
1.0
 20
0.0
 30
0.0
  9
$UCSYDIR
 10
0.0
 20
1.0
 30
0.0
  9
$UCSORTHOREF
  2

  9
$UCSORTHOVIEW
 70
0
  9
$UCSORGTOP
 10
0.0
 20
0.0
 30
0.0
  9
$UCSORGBOTTOM
 10
0.0
 20
0.0
 30
0.0
  9
$UCSORGLEFT
 10
0.0
 20
0.0
 30
0.0
  9
$UCSORGRIGHT
 10
0.0
 20
0.0
 30
0.0
  9
$UCSORGFRONT
 10
0.0
 20
0.0
 30
0.0
  9
$UCSORGBACK
 10
0.0
 20
0.0
 30
0.0
  9
$PUCSBASE
  2

  9
$PUCSNAME
  2

  9
$PUCSORG
 10
0.0
 20
0.0
 30
0.0
  9
$PUCSXDIR
 10
1.0
 20
0.0
 30
0.0
  9
$PUCSYDIR
 10
0.0
 20
1.0
 30
0.0
  9
$PUCSORTHOREF
  2

  9
$PUCSORTHOVIEW
 70
0
  9
$PUCSORGTOP
 10
0.0
 20
0.0
 30
0.0
  9
$PUCSORGBOTTOM
 10
0.0
 20
0.0
 30
0.0
  9
$PUCSORGLEFT
 10
0.0
 20
0.0
 30
0.0
  9
$PUCSORGRIGHT
 10
0.0
 20
0.0
 30
0.0
  9
$PUCSORGFRONT
 10
0.0
 20
0.0
 30
0.0
  9
$PUCSORGBACK
 10
0.0
 20
0.0
 30
0.0
  9
$USERI1
 70
0
  9
$USERI2
 70
0
  9
$USERI3
 70
0
  9
$USERI4
 70
0
  9
$USERI5
 70
0
  9
$USERR1
 40
0.0
  9
$USERR2
 40
0.0
  9
$USERR3
 40
0.0
  9
$USERR4
 40
0.0
  9
$USERR5
 40
0.0
  9
$WORLDVIEW
 70
1
  9
$SHADEDGE
 70
3
  9
$SHADEDIF
 70
70
  9
$TILEMODE
 70
1
  9
$MAXACTVP
 70
64
  9
$PINSBASE
 10
0.0
 20
0.0
 30
0.0
  9
$PLIMCHECK
 70
0
  9
$PEXTMIN
 10
1e+20
 20
1e+20
 30
1e+20
  9
$PEXTMAX
 10
-1e+20
 20
-1e+20
 30
-1e+20
  9
$PLIMMIN
 10
0.0
 20
0.0
  9
$PLIMMAX
 10
420.0
 20
297.0
  9
$UNITMODE
 70
0
  9
$VISRETAIN
 70
1
  9
$PLINEGEN
 70
0
  9
$PSLTSCALE
 70
1
  9
$TREEDEPTH
 70
3020
  9
$CMLSTYLE
  2
Standard
  9
$CMLJUST
 70
0
  9
$CMLSCALE
 40
20.0
  9
$PROXYGRAPHICS
 70
1
  9
$MEASUREMENT
 70
1
  9
$CELWEIGHT
370
-1
  9
$ENDCAPS
280
0
  9
$JOINSTYLE
280
0
  9
$LWDISPLAY
290
0
  9
$INSUNITS
 70
4
  9
$HYPERLINKBASE
  1

  9
$STYLESHEET
  1

  9
$XEDIT
290
1
  9
$CEPSNTYPE
380
0
  9
$PSTYLEMODE
290
1
  9
$FINGERPRINTGUID
  2
{A3DDA2BF-D67A-4CA9-8FD5-E4518979709D}
  9
$VERSIONGUID
  2
{84AB0765-55CB-43E7-8425-D4C33633156F}
  9
$EXTNAMES
290
1
  9
$PSVPSCALE
 40
0.0
  9
$OLESTARTUP
290
0
  9
$SORTENTS
280
127
  9
$INDEXCTL
280
0
  9
$HIDETEXT
280
1
  9
$XCLIPFRAME
280
1
  9
$HALOGAP
280
0
  9
$OBSCOLOR
 70
257
  9
$OBSLTYPE
280
0
  9
$INTERSECTIONDISPLAY
280
0
  9
$INTERSECTIONCOLOR
 70
257
  9
$DIMASSOC
280
2
  9
$PROJECTNAME
  1

  9
$CAMERADISPLAY
290
0
  9
$LENSLENGTH
 40
50.0
  9
$CAMERAHEIGHT
 40
0.0
  9
$STEPSPERSEC
 40
24.0
  9
$STEPSIZE
 40
100.0
  9
$3DDWFPREC
 40
2.0
  9
$PSOLWIDTH
 40
0.005
  9
$PSOLHEIGHT
 40
0.08
  9
$LOFTANG1
 40
1.570796326795
  9
$LOFTANG2
 40
1.570796326795
  9
$LOFTMAG1
 40
0.0
  9
$LOFTMAG2
 40
0.0
  9
$LOFTPARAM
 70
7
  9
$LOFTNORMALS
280
1
  9
$LATITUDE
 40
37.795
  9
$LONGITUDE
 40
-122.394
  9
$NORTHDIRECTION
 40
0.0
  9
$TIMEZONE
 70
-8000
  9
$LIGHTGLYPHDISPLAY
280
1
  9
$TILEMODELIGHTSYNCH
280
1
  9
$CMATERIAL
347
20
  9
$SOLIDHIST
280
0
  9
$SHOWHIST
280
1
  9
$DWFFRAME
280
2
  9
$DGNFRAME
280
2
  9
$REALWORLDSCALE
290
1
  9
$INTERFERECOLOR
 62
256
  9
$CSHADOW
280
0
  9
$SHADOWPLANELOCATION
 40
0.0
  0
ENDSEC
  0
SECTION
  2
CLASSES
  0
CLASS
  1
ACDBDICTIONARYWDFLT
  2
AcDbDictionaryWithDefault
  3
ObjectDBX Classes
 90
0
 91
0
280
0
281
0
  0
CLASS
  1
SUN
  2
AcDbSun
  3
SCENEOE
 90
1153
 91
0
280
0
281
0
  0
CLASS
  1
VISUALSTYLE
  2
AcDbVisualStyle
  3
ObjectDBX Classes
 90
4095
 91
0
280
0
281
0
  0
CLASS
  1
MATERIAL
  2
AcDbMaterial
  3
ObjectDBX Classes
 90
1153
 91
0
280
0
281
0
  0
CLASS
  1
SCALE
  2
AcDbScale
  3
ObjectDBX Classes
 90
1153
 91
0
280
0
281
0
  0
CLASS
  1
TABLESTYLE
  2
AcDbTableStyle
  3
ObjectDBX Classes
 90
4095
 91
0
280
0
281
0
  0
CLASS
  1
MLEADERSTYLE
  2
AcDbMLeaderStyle
  3
ACDB_MLEADERSTYLE_CLASS
 90
4095
 91
0
280
0
281
0
  0
CLASS
  1
DICTIONARYVAR
  2
AcDbDictionaryVar
  3
ObjectDBX Classes
 90
0
 91
0
280
0
281
0
  0
CLASS
  1
CELLSTYLEMAP
  2
AcDbCellStyleMap
  3
ObjectDBX Classes
 90
1152
 91
0
280
0
281
0
  0
CLASS
  1
MENTALRAYRENDERSETTINGS
  2
AcDbMentalRayRenderSettings
  3
SCENEOE
 90
1024
 91
0
280
0
281
0
  0
CLASS
  1
ACDBDETAILVIEWSTYLE
  2
AcDbDetailViewStyle
  3
ObjectDBX Classes
 90
1025
 91
0
280
0
281
0
  0
CLASS
  1
ACDBSECTIONVIEWSTYLE
  2
AcDbSectionViewStyle
  3
ObjectDBX Classes
 90
1025
 91
0
280
0
281
0
  0
CLASS
  1
RASTERVARIABLES
  2
AcDbRasterVariables
  3
ISM
 90
0
 91
0
280
0
281
0
  0
CLASS
  1
LAYOUT
  2
AcDbLayout
  3
ObjectDBX Classes
 90
0
 91
0
280
0
281
0
  0
CLASS
  1
ACDBPLACEHOLDER
  2
AcDbPlaceHolder
  3
ObjectDBX Classes
 90
0
 91
0
280
0
281
0
  0
ENDSEC
  0
SECTION
  2
TABLES
  0
TABLE
  2
VPORT
  5
8
330
0
100
AcDbSymbolTable
 70
1
  0
VPORT
  5
122
330
8
100
AcDbSymbolTableRecord
100
AcDbViewportTableRecord
  2
*Active
 70
0
 10
0.0
 20
0.0
 11
1.0
 21
1.0
 12
0.0
 22
7.105427357601002e-15
 13
0.0
 23
0.0
 14
0.5
 24
0.5
 15
0.5
 25
0.5
 16
0.0
 26
0.0
 36
1.0
 17
0.0
 27
0.0
 37
0.0
 40
90.00000000000001
 41
1.34
 42
50.0
 43
0.0
 44
0.0
 50
0.0
 51
0.0
 71
0
 72
1000
 73
1
 74
3
 75
0
 76
0
 77
0
 78
0
281
0
 65
1
110
0.0
120
0.0
130
0.0
111
1.0
121
0.0
131
0.0
112
0.0
122
1.0
132
0.0
 79
0
146
0.0
  0
ENDTAB
  0
TABLE
  2
LTYPE
  5
2
330
0
100
AcDbSymbolTable
 70
4
  0
LTYPE
  5
24
330
2
100
AcDbSymbolTableRecord
100
AcDbLinetypeTableRecord
  2
ByBlock
 70
0
  3

 72
65
 73
0
 40
0.0
  0
LTYPE
  5
25
330
2
100
AcDbSymbolTableRecord
100
AcDbLinetypeTableRecord
  2
ByLayer
 70
0
  3

 72
65
 73
0
 40
0.0
  0
LTYPE
  5
26
330
2
100
AcDbSymbolTableRecord
100
AcDbLinetypeTableRecord
  2
Continuous
 70
0
  3

 72
65
 73
0
 40
0.0
  0
LTYPE
  5
30
330
2
100
AcDbSymbolTableRecord
100
AcDbLinetypeTableRecord
  2
ACAD_ISO02W100
 70
0
  3
ISO dash __ __ __ __ __ __ __ __ __ __ __ __ __
 72
65
 73
2
 40
15.0
 49
12.0
 74
0
 49
-3.0
 74
0
  0
ENDTAB
  0
TABLE
  2
LAYER
  5
1
330
0
100
AcDbSymbolTable
 70
4
  0
LAYER
  5
27
330
1
100
AcDbSymbolTableRecord
100
AcDbLayerTableRecord
  2
0
 70
0
 62
7
  6
Continuous
370
-3
390
13
347
21
  0
LAYER
  5
28
330
1
100
AcDbSymbolTableRecord
100
AcDbLayerTableRecord
  2
Defpoints
 70
0
 62
7
  6
Continuous
290
0
370
-3
390
13
347
21
  0
LAYER
  5
2F
330
1
100
AcDbSymbolTableRecord
100
AcDbLayerTableRecord
  2
VISIBLE
 70
0
 62
7
  6
Continuous
370
25
390
13
347
21
  0
LAYER
  5
31
330
1
100
AcDbSymbolTableRecord
100
AcDbLayerTableRecord
  2
HIDDEN
 70
0
 62
7
  6
ACAD_ISO02W100
370
13
390
13
347
21
  0
ENDTAB
  0
TABLE
  2
STYLE
  5
5
330
0
100
AcDbSymbolTable
 70
1
  0
STYLE
  5
29
330
5
100
AcDbSymbolTableRecord
100
AcDbTextStyleTableRecord
  2
Standard
 70
0
 40
0.0
 41
1.0
 50
0.0
 71
0
 42
2.5
  3
txt
  4

  0
ENDTAB
  0
TABLE
  2
VIEW
  5
7
330
0
100
AcDbSymbolTable
 70
0
  0
ENDTAB
  0
TABLE
  2
UCS
  5
6
330
0
100
AcDbSymbolTable
 70
0
  0
ENDTAB
  0
TABLE
  2
APPID
  5
3
330
0
100
AcDbSymbolTable
 70
3
  0
APPID
  5
2A
330
3
100
AcDbSymbolTableRecord
100
AcDbRegAppTableRecord
  2
ACAD
 70
0
  0
APPID
  5
123
330
3
100
AcDbSymbolTableRecord
100
AcDbRegAppTableRecord
  2
HATCHBACKGROUNDCOLOR
 70
0
  0
APPID
  5
124
330
3
100
AcDbSymbolTableRecord
100
AcDbRegAppTableRecord
  2
EZDXF
 70
0
  0
ENDTAB
  0
TABLE
  2
DIMSTYLE
  5
4
330
0
100
AcDbSymbolTable
 70
1
100
AcDbDimStyleTable
  0
DIMSTYLE
105
2B
330
4
100
AcDbSymbolTableRecord
100
AcDbDimStyleTableRecord
  2
Standard
 70
0
 40
1.0
 41
2.5
 42
0.625
 43
3.75
 44
1.25
 45
0.0
 46
0.0
 47
0.0
 48
0.0
 49
2.5
140
2.5
141
2.5
142
0.0
143
0.03937007874
144
1.0
145
0.0
146
1.0
147
0.625
148
0.0
 69
0
 70
0
 71
0
 72
0
 73
0
 74
0
 75
0
 76
0
 77
1
 78
8
 79
3
170
0
171
3
172
1
173
0
174
0
175
0
176
0
177
0
178
0
179
2
271
2
272
2
273
2
274
3
275
0
276
0
277
2
278
44
279
0
280
0
281
0
282
0
283
0
284
8
285
0
286
0
288
0
289
3
290
0
371
-2
372
-2
  0
ENDTAB
  0
TABLE
  2
BLOCK_RECORD
  5
9
330
0
100
AcDbSymbolTable
 70
2
  0
BLOCK_RECORD
  5
17
330
9
100
AcDbSymbolTableRecord
100
AcDbBlockTableRecord
  2
*Model_Space
340
1A
 70
0
280
1
281
0
  0
BLOCK_RECORD
  5
1B
330
9
100
AcDbSymbolTableRecord
100
AcDbBlockTableRecord
  2
*Paper_Space
340
1E
 70
0
280
1
281
0
  0
ENDTAB
  0
ENDSEC
  0
SECTION
  2
BLOCKS
  0
BLOCK
  5
18
330
17
100
AcDbEntity
  8
0
100
AcDbBlockBegin
  2
*Model_Space
 70
0
 10
0.0
 20
0.0
 30
0.0
  3
*Model_Space
  1

  0
ENDBLK
  5
19
330
17
100
AcDbEntity
  8
0
100
AcDbBlockEnd
  0
BLOCK
  5
1C
330
1B
100
AcDbEntity
  8
0
100
AcDbBlockBegin
  2
*Paper_Space
 70
0
 10
0.0
 20
0.0
 30
0.0
  3
*Paper_Space
  1

  0
ENDBLK
  5
1D
330
1B
100
AcDbEntity
  8
0
100
AcDbBlockEnd
  0
ENDSEC
  0
SECTION
  2
ENTITIES
  0
SPLINE
  5
32
330
17
100
AcDbEntity
  8
VISIBLE
100
AcDbSpline
 70
0
 71
1
 72
17
 73
15
 74
0
 40
0.0
 40
0.0
 40
0.07142857142857102
 40
0.14285714285714204
 40
0.21428571428571308
 40
0.2857142857142841
 40
0.35714285714285515
 40
0.42857142857142616
 40
0.4999999999999972
 40
0.5714285714285682
 40
0.6428571428571392
 40
0.7142857142857103
 40
0.7857142857142813
 40
0.8571428571428523
 40
0.9285714285714234
 40
1.0
 40
1.0
 10
-70.88054983286068
 20
-32.0
 30
0.0
 10
-71.03026712637975
 20
-32.0
 30
0.0
 10
-71.17016153455123
 20
-32.0
 30
0.0
 10
-71.29994619096541
 20
-32.0
 30
0.0
 10
-71.41935496019266
 20
-32.0
 30
0.0
 10
-71.52814298351865
 20
-32.0
 30
0.0
 10
-71.62608718104991
 20
-32.0
 30
0.0
 10
-71.71298670915971
 20
-32.0
 30
0.0
 10
-71.7886633723364
 20
-32.0
 30
0.0
 10
-71.85296198858987
 20
-32.0
 30
0.0
 10
-71.90575070766653
 20
-32.0
 30
0.0
 10
-71.94692128142039
 20
-32.0
 30
0.0
 10
-71.97638928578594
 20
-32.0
 30
0.0
 10
-71.99409429389748
 20
-32.0
 30
0.0
 10
-72.00000000000001
 20
-32.0
 30
0.0
  0
LINE
  5
33
330
17
100
AcDbEntity
  8
VISIBLE
100
AcDbLine
 10
-70.8805498328607
 20
-32.0
 30
0.0
 11
-48.526346327389334
 21
-32.0
 31
0.0
  0
SPLINE
  5
34
330
17
100
AcDbEntity
  8
VISIBLE
100
AcDbSpline
 70
0
 71
2
 72
26
 73
23
 74
0
 40
0.0
 40
0.0
 40
0.0
 40
0.21428571428571366
 40
0.21428571428571366
 40
0.35714285714285615
 40
0.35714285714285615
 40
0.4285714285714273
 40
0.4285714285714273
 40
0.49999999999999856
 40
0.49999999999999856
 40
0.5714285714285698
 40
0.5714285714285698
 40
0.642857142857141
 40
0.642857142857141
 40
0.7142857142857123
 40
0.7142857142857123
 40
0.7857142857142835
 40
0.7857142857142835
 40
0.8571428571428547
 40
0.8571428571428547
 40
0.9285714285714264
 40
0.9285714285714264
 40
1.0
 40
1.0
 40
1.0
 10
-43.885796494528655
 20
-32.0
 30
0.0
 10
-44.46530391726152
 20
-32.0
 30
0.0
 10
-45.034293166471976
 20
-32.0
 30
0.0
 10
-45.411029357931874
 20
-32.0
 30
0.0
 10
-45.777124111405115
 20
-32.0
 30
0.0
 10
-45.95689499199412
 20
-32.0
 30
0.0
 10
-46.13666587258312
 20
-32.0
 30
0.0
 10
-46.31139975869513
 20
-32.0
 30
0.0
 10
-46.486133644807154
 20
-32.0
 30
0.0
 10
-46.65504849761943
 20
-32.0
 30
0.0
 10
-46.82396335043171
 20
-32.0
 30
0.0
 10
-46.98630317478167
 20
-32.0
 30
0.0
 10
-47.148642999131624
 20
-32.0
 30
0.0
 10
-47.30368122704814
 20
-32.0
 30
0.0
 10
-47.45871945496465
 20
-32.0
 30
0.0
 10
-47.60576219749498
 20
-32.0
 30
0.0
 10
-47.75280494002532
 20
-32.0
 30
0.0
 10
-47.89119409280392
 20
-32.0
 30
0.0
 10
-48.02958324558251
 20
-32.0
 30
0.0
 10
-48.158699434242266
 20
-32.0
 30
0.0
 10
-48.28781562290202
 20
-32.0
 30
0.0
 10
-48.407080975145675
 20
-32.0
 30
0.0
 10
-48.52634632738934
 20
-32.0
 30
0.0
  0
LINE
  5
35
330
17
100
AcDbEntity
  8
VISIBLE
100
AcDbLine
 10
-43.885796494528655
 20
-32.0
 30
0.0
 11
43.885796494528655
 21
-32.0
 31
0.0
  0
SPLINE
  5
36
330
17
100
AcDbEntity
  8
VISIBLE
100
AcDbSpline
 70
0
 71
2
 72
26
 73
23
 74
0
 40
0.0
 40
0.0
 40
0.0
 40
0.07142857142857123
 40
0.07142857142857123
 40
0.14285714285714246
 40
0.14285714285714246
 40
0.21428571428571366
 40
0.21428571428571366
 40
0.2857142857142849
 40
0.2857142857142849
 40
0.35714285714285615
 40
0.35714285714285615
 40
0.4285714285714273
 40
0.4285714285714273
 40
0.49999999999999856
 40
0.49999999999999856
 40
0.5714285714285698
 40
0.5714285714285698
 40
0.642857142857141
 40
0.642857142857141
 40
0.7857142857142835
 40
0.7857142857142835
 40
1.0
 40
1.0
 40
1.0
 10
48.52634632738935
 20
-32.0
 30
0.0
 10
48.407080975145696
 20
-32.0
 30
0.0
 10
48.28781562290203
 20
-32.0
 30
0.0
 10
48.15869943424228
 20
-32.0
 30
0.0
 10
48.02958324558252
 20
-32.0
 30
0.0
 10
47.891194092803936
 20
-32.0
 30
0.0
 10
47.75280494002533
 20
-32.0
 30
0.0
 10
47.605762197495
 20
-32.0
 30
0.0
 10
47.458719454964665
 20
-32.0
 30
0.0
 10
47.30368122704815
 20
-32.0
 30
0.0
 10
47.14864299913164
 20
-32.0
 30
0.0
 10
46.986303174781675
 20
-32.0
 30
0.0
 10
46.823963350431725
 20
-32.0
 30
0.0
 10
46.65504849761944
 20
-32.0
 30
0.0
 10
46.48613364480717
 20
-32.0
 30
0.0
 10
46.31139975869515
 20
-32.0
 30
0.0
 10
46.13666587258314
 20
-32.0
 30
0.0
 10
45.95689499199414
 20
-32.0
 30
0.0
 10
45.77712411140513
 20
-32.0
 30
0.0
 10
45.411029357931895
 20
-32.0
 30
0.0
 10
45.03429316647199
 20
-32.0
 30
0.0
 10
44.46530391726152
 20
-32.0
 30
0.0
 10
43.88579649452865
 20
-32.0
 30
0.0
  0
LINE
  5
37
330
17
100
AcDbEntity
  8
VISIBLE
100
AcDbLine
 10
48.52634632738934
 20
-32.0
 30
0.0
 11
70.8805498328607
 21
-32.0
 31
0.0
  0
SPLINE
  5
38
330
17
100
AcDbEntity
  8
VISIBLE
100
AcDbSpline
 70
0
 71
1
 72
17
 73
15
 74
0
 40
0.0
 40
0.0
 40
0.07142857142857138
 40
0.14285714285714277
 40
0.21428571428571414
 40
0.28571428571428553
 40
0.3571428571428569
 40
0.42857142857142827
 40
0.49999999999999967
 40
0.5714285714285711
 40
0.6428571428571425
 40
0.7142857142857137
 40
0.7857142857142855
 40
0.8571428571428572
 40
0.9285714285714289
 40
1.0
 40
1.0
 10
72.0
 20
-32.0
 30
0.0
 10
71.99409429389749
 20
-32.0
 30
0.0
 10
71.97638928578594
 20
-32.0
 30
0.0
 10
71.94692128142039
 20
-32.0
 30
0.0
 10
71.90575070766654
 20
-32.0
 30
0.0
 10
71.8529619885899
 20
-32.0
 30
0.0
 10
71.7886633723364
 20
-32.0
 30
0.0
 10
71.71298670915971
 20
-32.0
 30
0.0
 10
71.62608718104991
 20
-32.0
 30
0.0
 10
71.52814298351865
 20
-32.0
 30
0.0
 10
71.41935496019265
 20
-32.0
 30
0.0
 10
71.29994619096543
 20
-32.0
 30
0.0
 10
71.17016153455123
 20
-32.0
 30
0.0
 10
71.03026712637975
 20
-32.0
 30
0.0
 10
70.88054983286068
 20
-32.0
 30
0.0
  0
SPLINE
  5
39
330
17
100
AcDbEntity
  8
VISIBLE
100
AcDbSpline
 70
0
 71
1
 72
4
 73
2
 74
0
 40
0.0
 40
0.0
 40
1.0
 40
1.0
 10
-72.0
 20
-32.0
 30
0.0
 10
-90.0
 20
-5.12
 30
0.0
  0
SPLINE
  5
3A
330
17
100
AcDbEntity
  8
VISIBLE
100
AcDbSpline
 70
0
 71
1
 72
4
 73
2
 74
0
 40
0.0
 40
0.0
 40
1.0
 40
1.0
 10
-70.8805498328607
 20
-32.0
 30
0.0
 10
-88.74924557076311
 20
-5.12
 30
0.0
  0
SPLINE
  5
3B
330
17
100
AcDbEntity
  8
VISIBLE
100
AcDbSpline
 70
0
 71
1
 72
17
 73
15
 74
0
 40
0.0
 40
0.0
 40
0.07142857142857201
 40
0.14285714285714401
 40
0.21428571428571602
 40
0.28571428571428803
 40
0.35714285714286004
 40
0.42857142857143204
 40
0.5000000000000041
 40
0.5714285714285761
 40
0.6428571428571481
 40
0.7142857142857201
 40
0.7857142857142921
 40
0.8571428571428641
 40
0.9285714285714362
 40
1.0
 40
1.0
 10
-88.7492455707631
 20
-5.12
 30
0.0
 10
-88.91614207986738
 20
-5.12
 30
0.0
 10
-89.07219831326397
 20
-5.12
 30
0.0
 10
-89.21707016116748
 20
-5.12
 30
0.0
 10
-89.35043817577758
 20
-5.12
 30
0.0
 10
-89.47200827567326
 20
-5.12
 30
0.0
 10
-89.58151239427312
 20
-5.12
 30
0.0
 10
-89.67870907093234
 20
-5.12
 30
0.0
 10
-89.76338398337226
 20
-5.12
 30
0.0
 10
-89.83535042026892
 20
-5.12
 30
0.0
 10
-89.89444969295857
 20
-5.12
 30
0.0
 10
-89.94055148535193
 20
-5.12
 30
0.0
 10
-89.97355414128606
 20
-5.12
 30
0.0
 10
-89.99338488868003
 20
-5.12
 30
0.0
 10
-90.0
 20
-5.12
 30
0.0
  0
SPLINE
  5
3C
330
17
100
AcDbEntity
  8
VISIBLE
100
AcDbSpline
 70
0
 71
1
 72
4
 73
2
 74
0
 40
0.0
 40
0.0
 40
1.0
 40
1.0
 10
-48.526346327389334
 20
-32.0
 30
0.0
 10
-60.301447209252636
 20
-5.12
 30
0.0
  0
LINE
  5
3D
330
17
100
AcDbEntity
  8
VISIBLE
100
AcDbLine
 10
-88.7492455707631
 20
-5.12
 30
0.0
 11
-60.301447209252636
 21
-5.12
 31
0.0
  0
SPLINE
  5
3E
330
17
100
AcDbEntity
  8
VISIBLE
100
AcDbSpline
 70
0
 71
2
 72
6
 73
3
 74
0
 40
0.0
 40
0.0
 40
0.0
 40
1.0
 40
1.0
 40
1.0
 10
-59.7146267196403
 20
-5.12
 30
0.0
 10
-60.031944233656844
 20
-5.12
 30
0.0
 10
-60.30144720925264
 20
-5.12
 30
0.0
  0
SPLINE
  5
3F
330
17
100
AcDbEntity
  8
VISIBLE
100
AcDbSpline
 70
0
 71
3
 72
17
 73
13
 74
0
 40
0.0
 40
0.0
 40
0.0
 40
0.0
 40
0.2516809290350918
 40
0.2516809290350918
 40
0.2516809290350918
 40
0.5277985080680251
 40
0.5277985080680251
 40
0.5277985080680251
 40
0.6718188084850325
 40
0.6718188084850325
 40
0.6718188084850325
 40
1.0
 40
1.0
 40
1.0
 40
1.0
 10
-53.11078918616449
 20
-10.745140384608423
 30
0.0
 10
-54.077477536455966
 20
-10.710296927840849
 30
0.0
 10
-55.0427094179945
 20
-10.468259011296361
 30
0.0
 10
-55.908397662060885
 20
-10.046523146999496
 30
0.0
 10
-56.86112567701326
 20
-9.588652475225654
 30
0.0
 10
-57.67232510964368
 20
-8.90580513553076
 30
0.0
 10
-58.23056044235611
 20
-8.227674544465334
 30
0.0
 10
-58.5247261689063
 20
-7.87398229847654
 30
0.0
 10
-58.75768139480194
 20
-7.524152149753258
 30
0.0
 10
-58.94580611343234
 20
-7.1910968930619505
 30
0.0
 10
-59.37139181596567
 20
-6.430283226777774
 30
0.0
 10
-59.58495771590773
 20
-5.754923831567053
 30
0.0
 10
-59.714626719640336
 20
-5.1200000000000045
 30
0.0
  0
SPLINE
  5
40
330
17
100
AcDbEntity
  8
VISIBLE
100
AcDbSpline
 70
0
 71
2
 72
6
 73
3
 74
0
 40
0.0
 40
0.0
 40
0.0
 40
1.0
 40
1.0
 40
1.0
 10
-52.85
 20
-10.75
 30
0.0
 10
-52.979913819446075
 20
-10.750009560211886
 30
0.0
 10
-53.11078918616447
 20
-10.745140384608426
 30
0.0
  0
SPLINE
  5
41
330
17
100
AcDbEntity
  8
VISIBLE
100
AcDbSpline
 70
0
 71
1
 72
4
 73
2
 74
0
 40
0.0
 40
0.0
 40
1.0
 40
1.0
 10
52.85
 20
-10.75
 30
0.0
 10
-52.85
 20
-10.75
 30
0.0
  0
SPLINE
  5
42
330
17
100
AcDbEntity
  8
VISIBLE
100
AcDbSpline
 70
0
 71
2
 72
6
 73
3
 74
0
 40
0.0
 40
0.0
 40
0.0
 40
1.0
 40
1.0
 40
1.0
 10
53.11078918616446
 20
-10.745140384608426
 30
0.0
 10
52.979921884490345
 20
-10.750009142662154
 30
0.0
 10
52.85000000000001
 20
-10.75
 30
0.0
  0
SPLINE
  5
43
330
17
100
AcDbEntity
  8
VISIBLE
100
AcDbSpline
 70
0
 71
3
 72
17
 73
13
 74
0
 40
0.0
 40
0.0
 40
0.0
 40
0.0
 40
0.3274510730489368
 40
0.3274510730489368
 40
0.3274510730489368
 40
0.4722940257369071
 40
0.4722940257369071
 40
0.4722940257369071
 40
0.7484017942503418
 40
0.7484017942503418
 40
0.7484017942503418
 40
1.0
 40
1.0
 40
1.0
 40
1.0
 10
59.714626719640336
 20
-5.119999999999999
 30
0.0
 10
59.58526675233685
 20
-5.753520492027202
 30
0.0
 10
59.37230362712636
 20
-6.4272672026994755
 30
0.0
 10
58.94866175132958
 20
-7.186033300605435
 30
0.0
 10
58.759914180440255
 20
-7.520835932523512
 30
0.0
 10
58.52591535558204
 20
-7.8726399387353165
 30
0.0
 10
58.22998916538533
 20
-8.228360925644179
 30
0.0
 10
57.67162178941601
 20
-8.906475182892521
 30
0.0
 10
56.8603045762328
 20
-9.589211823364408
 30
0.0
 10
55.9075411831396
 20
-10.04693909081272
 30
0.0
 10
55.04207103487567
 20
-10.468421500505569
 30
0.0
 10
54.07715918332895
 20
-10.710306895073241
 30
0.0
 10
53.110789186164475
 20
-10.745140384608423
 30
0.0
  0
SPLINE
  5
44
330
17
100
AcDbEntity
  8
VISIBLE
100
AcDbSpline
 70
0
 71
2
 72
6
 73
3
 74
0
 40
0.0
 40
0.0
 40
0.0
 40
1.0
 40
1.0
 40
1.0
 10
60.30144720925264
 20
-5.12
 30
0.0
 10
60.03194423365685
 20
-5.119999999999999
 30
0.0
 10
59.71462671964032
 20
-5.12
 30
0.0
  0
SPLINE
  5
45
330
17
100
AcDbEntity
  8
VISIBLE
100
AcDbSpline
 70
0
 71
1
 72
4
 73
2
 74
0
 40
0.0
 40
0.0
 40
1.0
 40
1.0
 10
48.52634632738935
 20
-32.0
 30
0.0
 10
60.30144720925264
 20
-5.12
 30
0.0
  0
SPLINE
  5
46
330
17
100
AcDbEntity
  8
VISIBLE
100
AcDbSpline
 70
0
 71
1
 72
4
 73
2
 74
0
 40
0.0
 40
0.0
 40
1.0
 40
1.0
 10
70.8805498328607
 20
-32.0
 30
0.0
 10
88.74924557076311
 20
-5.12
 30
0.0
  0
LINE
  5
47
330
17
100
AcDbEntity
  8
VISIBLE
100
AcDbLine
 10
60.30144720925264
 20
-5.12
 30
0.0
 11
88.74924557076311
 21
-5.12
 31
0.0
  0
SPLINE
  5
48
330
17
100
AcDbEntity
  8
VISIBLE
100
AcDbSpline
 70
0
 71
1
 72
4
 73
2
 74
0
 40
0.0
 40
0.0
 40
1.0
 40
1.0
 10
72.00000000000003
 20
-32.0
 30
0.0
 10
90.0
 20
-5.12
 30
0.0
  0
SPLINE
  5
49
330
17
100
AcDbEntity
  8
VISIBLE
100
AcDbSpline
 70
0
 71
1
 72
17
 73
15
 74
0
 40
0.0
 40
0.0
 40
0.07142857142857133
 40
0.14285714285714265
 40
0.214285714285714
 40
0.2857142857142853
 40
0.35714285714285665
 40
0.428571428571428
 40
0.49999999999999933
 40
0.5714285714285706
 40
0.642857142857142
 40
0.7142857142857133
 40
0.7857142857142847
 40
0.857142857142856
 40
0.9285714285714273
 40
1.0
 40
1.0
 10
90.0
 20
-5.12
 30
0.0
 10
89.99338488868003
 20
-5.12
 30
0.0
 10
89.97355414128603
 20
-5.12
 30
0.0
 10
89.9405514853519
 20
-5.12
 30
0.0
 10
89.89444969295857
 20
-5.12
 30
0.0
 10
89.83535042026894
 20
-5.12
 30
0.0
 10
89.76338398337228
 20
-5.12
 30
0.0
 10
89.67870907093234
 20
-5.12
 30
0.0
 10
89.58151239427312
 20
-5.12
 30
0.0
 10
89.47200827567326
 20
-5.12
 30
0.0
 10
89.3504381757776
 20
-5.12
 30
0.0
 10
89.21707016116748
 20
-5.12
 30
0.0
 10
89.07219831326397
 20
-5.12
 30
0.0
 10
88.91614207986737
 20
-5.12
 30
0.0
 10
88.7492455707631
 20
-5.12
 30
0.0
  0
SPLINE
  5
4A
330
17
100
AcDbEntity
  8
VISIBLE
100
AcDbSpline
 70
0
 71
1
 72
17
 73
15
 74
0
 40
0.0
 40
0.0
 40
0.07142857142857142
 40
0.14285714285714285
 40
0.21428571428571427
 40
0.2857142857142857
 40
0.35714285714285715
 40
0.42857142857142855
 40
0.5
 40
0.5714285714285714
 40
0.6428571428571429
 40
0.7142857142857143
 40
0.7857142857142857
 40
0.8571428571428571
 40
0.9285714285714286
 40
1.0
 40
1.0
 10
-81.60535049662127
 20
32.0
 30
0.0
 10
-81.76500239448356
 20
32.0
 30
0.0
 10
-81.91421489461803
 20
32.0
 30
0.0
 10
-82.0526742633119
 20
32.0
 30
0.0
 10
-82.18008937635133
 20
32.0
 30
0.0
 10
-82.29619233113812
 20
32.0
 30
0.0
 10
-82.40073900998084
 20
32.0
 30
0.0
 10
-82.49350959337595
 20
32.0
 30
0.0
 10
-82.57430902219946
 20
32.0
 30
0.0
 10
-82.64296740783774
 20
32.0
 30
0.0
 10
-82.69934038939462
 20
32.0
 30
0.0
 10
-82.74330943722423
 20
32.0
 30
0.0
 10
-82.77478210215102
 20
32.0
 30
0.0
 10
-82.79369220985305
 20
32.0
 30
0.0
 10
-82.80000000000001
 20
32.0
 30
0.0
  0
LINE
  5
4B
330
17
100
AcDbEntity
  8
VISIBLE
100
AcDbLine
 10
-81.60535049662126
 20
32.0
 30
0.0
 11
-55.61976945047332
 21
32.0
 31
0.0
  0
SPLINE
  5
4C
330
17
100
AcDbEntity
  8
VISIBLE
100
AcDbSpline
 70
0
 71
2
 72
26
 73
23
 74
0
 40
0.0
 40
0.0
 40
0.0
 40
0.21428571428571427
 40
0.21428571428571427
 40
0.35714285714285715
 40
0.35714285714285715
 40
0.42857142857142855
 40
0.42857142857142855
 40
0.5
 40
0.5
 40
0.5714285714285714
 40
0.5714285714285714
 40
0.6428571428571429
 40
0.6428571428571429
 40
0.7142857142857143
 40
0.7142857142857143
 40
0.7857142857142857
 40
0.7857142857142857
 40
0.8571428571428571
 40
0.8571428571428571
 40
0.9285714285714286
 40
0.9285714285714286
 40
1.0
 40
1.0
 40
1.0
 10
-50.814418953852076
 20
32.0
 30
0.0
 10
-51.412899180298524
 20
32.0
 30
0.0
 10
-52.00070049172465
 20
32.0
 30
0.0
 10
-52.38993838583332
 20
32.0
 30
0.0
 10
-52.76837042595861
 20
32.0
 30
0.0
 10
-52.95425882985816
 20
32.0
 30
0.0
 10
-53.140147233757716
 20
32.0
 30
0.0
 10
-53.32091950168941
 20
32.0
 30
0.0
 10
-53.501691769621104
 20
32.0
 30
0.0
 10
-53.676552576086294
 20
32.0
 30
0.0
 10
-53.85141338255152
 20
32.0
 30
0.0
 10
-54.01959341011187
 20
32.0
 30
0.0
 10
-54.187773437672206
 20
32.0
 30
0.0
 10
-54.348532761637856
 20
32.0
 30
0.0
 10
-54.509292085603505
 20
32.0
 30
0.0
 10
-54.66192342940512
 20
32.0
 30
0.0
 10
-54.81455477320674
 20
32.0
 30
0.0
 10
-54.958386620128806
 20
32.0
 30
0.0
 10
-55.10221846705088
 20
32.0
 30
0.0
 10
-55.236618014636036
 20
32.0
 30
0.0
 10
-55.37101756222119
 20
32.0
 30
0.0
 10
-55.495393506347256
 20
32.0
 30
0.0
 10
-55.619769450473335
 20
32.0
 30
0.0
  0
LINE
  5
4D
330
17
100
AcDbEntity
  8
VISIBLE
100
AcDbLine
 10
-50.814418953852076
 20
32.0
 30
0.0
 11
50.81441895385206
 21
32.0
 31
0.0
  0
SPLINE
  5
4E
330
17
100
AcDbEntity
  8
VISIBLE
100
AcDbSpline
 70
0
 71
1
 72
17
 73
15
 74
0
 40
0.0
 40
0.0
 40
0.07142857142857142
 40
0.14285714285714285
 40
0.21428571428571427
 40
0.2857142857142857
 40
0.35714285714285715
 40
0.42857142857142855
 40
0.5
 40
0.5714285714285714
 40
0.6428571428571429
 40
0.7142857142857143
 40
0.7857142857142857
 40
0.8571428571428571
 40
0.9285714285714286
 40
1.0
 40
1.0
 10
82.8
 20
32.0
 30
0.0
 10
82.79369220985302
 20
32.0
 30
0.0
 10
82.774782102151
 20
32.0
 30
0.0
 10
82.74330943722421
 20
32.0
 30
0.0
 10
82.6993403893946
 20
32.0
 30
0.0
 10
82.64296740783774
 20
32.0
 30
0.0
 10
82.57430902219946
 20
32.0
 30
0.0
 10
82.49350959337593
 20
32.0
 30
0.0
 10
82.40073900998082
 20
32.0
 30
0.0
 10
82.29619233113812
 20
32.0
 30
0.0
 10
82.1800893763513
 20
32.0
 30
0.0
 10
82.05267426331189
 20
32.0
 30
0.0
 10
81.91421489461803
 20
32.0
 30
0.0
 10
81.76500239448356
 20
32.0
 30
0.0
 10
81.60535049662124
 20
32.0
 30
0.0
  0
SPLINE
  5
4F
330
17
100
AcDbEntity
  8
VISIBLE
100
AcDbSpline
 70
0
 71
3
 72
38
 73
34
 74
0
 40
0.0
 40
0.0
 40
0.0
 40
0.0
 40
0.07142857142857142
 40
0.07142857142857142
 40
0.07142857142857142
 40
0.14285714285714285
 40
0.14285714285714285
 40
0.14285714285714285
 40
0.21428571428571427
 40
0.21428571428571427
 40
0.21428571428571427
 40
0.2857142857142857
 40
0.2857142857142857
 40
0.2857142857142857
 40
0.35714285714285715
 40
0.35714285714285715
 40
0.35714285714285715
 40
0.42857142857142855
 40
0.42857142857142855
 40
0.42857142857142855
 40
0.5
 40
0.5
 40
0.5
 40
0.5714285714285714
 40
0.5714285714285714
 40
0.5714285714285714
 40
0.6428571428571429
 40
0.6428571428571429
 40
0.6428571428571429
 40
0.7142857142857143
 40
0.7142857142857143
 40
0.7142857142857143
 40
1.0
 40
1.0
 40
1.0
 40
1.0
 10
55.619769450473314
 20
32.0
 30
0.0
 10
55.53685215438925
 20
31.999999999999993
 30
0.0
 10
55.45393485830522
 20
32.0
 30
0.0
 10
55.37101756222117
 20
32.0
 30
0.0
 10
55.28141786383108
 20
32.0
 30
0.0
 10
55.19181816544096
 20
31.99999999999999
 30
0.0
 10
55.10221846705086
 20
32.0
 30
0.0
 10
55.006330569102786
 20
31.999999999999993
 30
0.0
 10
54.91044267115477
 20
32.0
 30
0.0
 10
54.81455477320673
 20
32.0
 30
0.0
 10
54.71280054400565
 20
32.0
 30
0.0
 10
54.611046314804554
 20
31.99999999999999
 30
0.0
 10
54.50929208560349
 20
32.0
 30
0.0
 10
54.4021192029597
 20
31.999999999999993
 30
0.0
 10
54.294946320315965
 20
32.0
 30
0.0
 10
54.187773437672206
 20
32.0
 30
0.0
 10
54.07565341929863
 20
32.0
 30
0.0
 10
53.96353340092507
 20
31.99999999999999
 30
0.0
 10
53.8514133825515
 20
32.0
 30
0.0
 10
53.73483951157467
 20
31.999999999999993
 30
0.0
 10
53.61826564059789
 20
32.0
 30
0.0
 10
53.5016917696211
 20
32.0
 30
0.0
 10
53.381176924333296
 20
32.0
 30
0.0
 10
53.26066207904548
 20
31.99999999999999
 30
0.0
 10
53.140147233757695
 20
32.0
 30
0.0
 10
53.016221631157954
 20
31.999999999999993
 30
0.0
 10
52.892296028558306
 20
32.0
 30
0.0
 10
52.76837042595861
 20
32.0
 30
0.0
 10
52.64157928901073
 20
32.0
 30
0.0
 10
52.51478815206284
 20
31.99999999999999
 30
0.0
 10
52.38799701511498
 20
32.0
 30
0.0
 10
51.874637701229574
 20
32.00000000000002
 30
0.0
 10
51.34538264064446
 20
31.99999999999999
 30
0.0
 10
50.81441895385206
 20
32.0
 30
0.0
  0
LINE
  5
50
330
17
100
AcDbEntity
  8
VISIBLE
100
AcDbLine
 10
55.61976945047332
 20
32.0
 30
0.0
 11
81.60535049662126
 21
32.0
 31
0.0
  0
SPLINE
  5
51
330
17
100
AcDbEntity
  8
VISIBLE
100
AcDbSpline
 70
0
 71
1
 72
4
 73
2
 74
0
 40
0.0
 40
0.0
 40
1.0
 40
1.0
 10
-90.0
 20
-5.12
 30
0.0
 10
-82.8
 20
32.0
 30
0.0
  0
SPLINE
  5
52
330
17
100
AcDbEntity
  8
VISIBLE
100
AcDbSpline
 70
0
 71
1
 72
4
 73
2
 74
0
 40
0.0
 40
0.0
 40
1.0
 40
1.0
 10
-88.74924557076311
 20
-5.12
 30
0.0
 10
-81.60535049662127
 20
32.0
 30
0.0
  0
SPLINE
  5
53
330
17
100
AcDbEntity
  8
VISIBLE
100
AcDbSpline
 70
0
 71
1
 72
4
 73
2
 74
0
 40
0.0
 40
0.0
 40
1.0
 40
1.0
 10
-58.0933391167548
 20
12.387606592490252
 30
0.0
 10
-55.61976945047332
 20
32.0
 30
0.0
  0
SPLINE
  5
54
330
17
100
AcDbEntity
  8
VISIBLE
100
AcDbSpline
 70
0
 71
3
 72
17
 73
13
 74
0
 40
0.0
 40
0.0
 40
0.0
 40
0.0
 40
0.27877735035685486
 40
0.27877735035685486
 40
0.27877735035685486
 40
0.46480803927605074
 40
0.46480803927605074
 40
0.46480803927605074
 40
0.5790297097601671
 40
0.5790297097601671
 40
0.5790297097601671
 40
1.0
 40
1.0
 40
1.0
 40
1.0
 10
-59.85000000000001
 20
7.750000000000001
 30
0.0
 10
-59.85086492730018
 20
8.228426068095752
 30
0.0
 10
-59.797991206701255
 20
8.769095824880795
 30
0.0
 10
-59.67509539561107
 20
9.305015382820619
 30
0.0
 10
-59.59405166774604
 20
9.661743736068054
 30
0.0
 10
-59.484304919860236
 20
10.009490392089436
 30
0.0
 10
-59.35874625453203
 20
10.32608660454486
 30
0.0
 10
-59.281265866829926
 20
10.520844679810684
 30
0.0
 10
-59.19929763542838
 20
10.704412472226473
 30
0.0
 10
-59.11284156032736
 20
10.876789981792257
 30
0.0
 10
-58.79418483064859
 20
11.51177077174817
 30
0.0
 10
-58.441427431069336
 20
11.99222609272153
 30
0.0
 10
-58.0933391167548
 20
12.38760659249025
 30
0.0
  0
SPLINE
  5
55
330
17
100
AcDbEntity
  8
VISIBLE
100
AcDbSpline
 70
0
 71
2
 72
6
 73
3
 74
0
 40
0.0
 40
0.0
 40
0.0
 40
1.0
 40
1.0
 40
1.0
 10
-59.85
 20
-1.5405737193182798
 30
0.0
 10
-59.85000000000001
 20
3.1104891080507526
 30
0.0
 10
-59.85
 20
7.75
 30
0.0
  0
SPLINE
  5
56
330
17
100
AcDbEntity
  8
VISIBLE
100
AcDbSpline
 70
0
 71
1
 72
4
 73
2
 74
0
 40
0.0
 40
0.0
 40
0.09642850971664163
 40
0.09642850971664163
 10
-60.301447209252636
 20
-5.12
 30
0.0
 10
-59.85
 20
-1.5405737193182627
 30
0.0
  0
SPLINE
  5
57
330
17
100
AcDbEntity
  8
VISIBLE
100
AcDbSpline
 70
0
 71
2
 72
6
 73
3
 74
0
 40
0.0
 40
0.0
 40
0.0
 40
1.0
 40
1.0
 40
1.0
 10
-59.85
 20
-3.750000000000001
 30
0.0
 10
-59.85000000000001
 20
-2.6409955434147263
 30
0.0
 10
-59.85
 20
-1.5405737193181857
 30
0.0
  0
SPLINE
  5
58
330
17
100
AcDbEntity
  8
VISIBLE
100
AcDbSpline
 70
0
 71
2
 72
6
 73
3
 74
0
 40
0.0
 40
0.0
 40
0.0
 40
1.0
 40
1.0
 40
1.0
 10
-59.714626719640336
 20
-5.1200000000000045
 30
0.0
 10
-59.846313611319175
 20
-4.477408245982914
 30
0.0
 10
-59.85
 20
-3.7500000000000018
 30
0.0
  0
SPLINE
  5
59
330
17
100
AcDbEntity
  8
VISIBLE
100
AcDbSpline
 70
0
 71
2
 72
6
 73
3
 74
0
 40
0.0
 40
0.0
 40
0.0
 40
1.0
 40
1.0
 40
1.0
 10
59.714626719640336
 20
-5.120000000000001
 30
0.0
 10
59.846313611319175
 20
-4.477408245982943
 30
0.0
 10
59.85
 20
-3.7500000000000004
 30
0.0
  0
SPLINE
  5
5A
330
17
100
AcDbEntity
  8
VISIBLE
100
AcDbSpline
 70
0
 71
2
 72
6
 73
3
 74
0
 40
0.0
 40
0.0
 40
0.0
 40
1.0
 40
1.0
 40
1.0
 10
59.85
 20
-3.750000000000001
 30
0.0
 10
59.85000000000001
 20
-2.6409955434148578
 30
0.0
 10
59.85
 20
-1.5405737193182656
 30
0.0
  0
SPLINE
  5
5B
330
17
100
AcDbEntity
  8
VISIBLE
100
AcDbSpline
 70
0
 71
1
 72
4
 73
2
 74
0
 40
0.0
 40
0.0
 40
0.0964285097166431
 40
0.0964285097166431
 10
60.30144720925264
 20
-5.12
 30
0.0
 10
59.85
 20
-1.5405737193182092
 30
0.0
  0
SPLINE
  5
5C
330
17
100
AcDbEntity
  8
VISIBLE
100
AcDbSpline
 70
0
 71
2
 72
6
 73
3
 74
0
 40
0.0
 40
0.0
 40
0.0
 40
1.0
 40
1.0
 40
1.0
 10
59.85
 20
7.75
 30
0.0
 10
59.85000000000001
 20
3.1105327227009703
 30
0.0
 10
59.85
 20
-1.5405737193183349
 30
0.0
  0
SPLINE
  5
5D
330
17
100
AcDbEntity
  8
VISIBLE
100
AcDbSpline
 70
0
 71
3
 72
14
 73
10
 74
0
 40
0.0
 40
0.0
 40
0.0
 40
0.0
 40
0.4177145570996358
 40
0.4177145570996358
 40
0.4177145570996358
 40
0.720695123894208
 40
0.720695123894208
 40
0.720695123894208
 40
1.0
 40
1.0
 40
1.0
 40
1.0
 10
58.09333911675479
 20
12.387606592490245
 30
0.0
 10
58.43880799304274
 20
11.995241918263481
 30
0.0
 10
58.78873205504566
 20
11.51910642160769
 30
0.0
 10
59.10557585180666
 20
10.891300807355636
 30
0.0
 10
59.33395357888711
 20
10.43884027150112
 30
0.0
 10
59.54219953078946
 20
9.891286336790108
 30
0.0
 10
59.67446748809535
 20
9.307768758169715
 30
0.0
 10
59.79780174296145
 20
8.770998188387884
 30
0.0
 10
59.850863153010835
 20
8.229268215687615
 30
0.0
 10
59.849999999999994
 20
7.750000000000001
 30
0.0
  0
SPLINE
  5
5E
330
17
100
AcDbEntity
  8
VISIBLE
100
AcDbSpline
 70
0
 71
1
 72
4
 73
2
 74
0
 40
0.0
 40
0.0
 40
1.0
 40
1.0
 10
58.09333911675481
 20
12.387606592490236
 30
0.0
 10
55.619769450473335
 20
32.0
 30
0.0
  0
SPLINE
  5
5F
330
17
100
AcDbEntity
  8
VISIBLE
100
AcDbSpline
 70
0
 71
1
 72
4
 73
2
 74
0
 40
0.0
 40
0.0
 40
1.0
 40
1.0
 10
88.74924557076311
 20
-5.12
 30
0.0
 10
81.60535049662126
 20
32.0
 30
0.0
  0
SPLINE
  5
60
330
17
100
AcDbEntity
  8
VISIBLE
100
AcDbSpline
 70
0
 71
1
 72
4
 73
2
 74
0
 40
0.0
 40
0.0
 40
1.0
 40
1.0
 10
90.0
 20
-5.12
 30
0.0
 10
82.8
 20
32.0
 30
0.0
  0
SPLINE
  5
61
330
17
100
AcDbEntity
  8
VISIBLE
100
AcDbSpline
 70
0
 71
3
 72
11
 73
7
 74
0
 40
0.0
 40
0.0
 40
0.0
 40
0.0
 40
0.4270658331024816
 40
0.4270658331024816
 40
0.4270658331024816
 40
1.0
 40
1.0
 40
1.0
 40
1.0
 10
-53.01636180506725
 20
14.748022845762561
 30
0.0
 10
-53.93129117815805
 20
14.727991656429296
 30
0.0
 10
-54.82691841656199
 20
14.519019260356501
 30
0.0
 10
-55.5954373642514
 20
14.189143862267121
 30
0.0
 10
-56.632591943023236
 20
13.745490355862046
 30
0.0
 10
-57.45875001600848
 20
13.104181264720198
 30
0.0
 10
-58.09333911675481
 20
12.387606592490235
 30
0.0
  0
SPLINE
  5
62
330
17
100
AcDbEntity
  8
VISIBLE
100
AcDbSpline
 70
0
 71
1
 72
4
 73
2
 74
0
 40
0.0
 40
0.0
 40
1.0
 40
1.0
 10
52.85000000000001
 20
14.75
 30
0.0
 10
53.016361805067234
 20
14.748022845762563
 30
0.0
  0
SPLINE
  5
63
330
17
100
AcDbEntity
  8
VISIBLE
100
AcDbSpline
 70
0
 71
1
 72
4
 73
2
 74
0
 40
0.0
 40
0.0
 40
1.0
 40
1.0
 10
52.85
 20
14.75
 30
0.0
 10
-52.85
 20
14.75
 30
0.0
  0
SPLINE
  5
64
330
17
100
AcDbEntity
  8
VISIBLE
100
AcDbSpline
 70
0
 71
1
 72
4
 73
2
 74
0
 40
0.0
 40
0.0
 40
1.0
 40
1.0
 10
-53.01636180506726
 20
14.748022845762563
 30
0.0
 10
-52.85000000000001
 20
14.75
 30
0.0
  0
SPLINE
  5
65
330
17
100
AcDbEntity
  8
VISIBLE
100
AcDbSpline
 70
0
 71
3
 72
11
 73
7
 74
0
 40
0.0
 40
0.0
 40
0.0
 40
0.0
 40
0.572936014259847
 40
0.572936014259847
 40
0.572936014259847
 40
1.0
 40
1.0
 40
1.0
 40
1.0
 10
58.093339116754805
 20
12.387606592490238
 30
0.0
 10
57.45874796842083
 20
13.104183575212616
 30
0.0
 10
56.63258653164543
 20
13.745494570269619
 30
0.0
 10
55.595427256802125
 20
14.189148171738868
 30
0.0
 10
54.826910100545724
 20
14.519021283542045
 30
0.0
 10
53.931287170083856
 20
14.727991691423508
 30
0.0
 10
53.01636180506725
 20
14.748022845762558
 30
0.0
  0
SPLINE
  5
66
330
17
100
AcDbEntity
  8
VISIBLE
100
AcDbSpline
 70
0
 71
1
 72
4
 73
2
 74
0
 40
0.0
 40
0.0
 40
0.4001945442986383
 40
0.4001945442986383
 10
-58.35080181820644
 20
-5.12
 30
0.0
 10
-56.47682123008245
 20
13.737166927351836
 30
0.0
  0
LINE
  5
67
330
17
100
AcDbEntity
  8
VISIBLE
100
AcDbLine
 10
-58.35080181820644
 20
-5.12
 30
0.0
 11
-59.714626719640336
 21
-5.12
 31
0.0
  0
SPLINE
  5
68
330
17
100
AcDbEntity
  8
VISIBLE
100
AcDbSpline
 70
0
 71
2
 72
26
 73
23
 74
0
 40
0.0
 40
0.0
 40
0.0
 40
0.2142857142857145
 40
0.2142857142857145
 40
0.3571428571428575
 40
0.3571428571428575
 40
0.428571428571429
 40
0.428571428571429
 40
0.5000000000000004
 40
0.5000000000000004
 40
0.571428571428572
 40
0.571428571428572
 40
0.6428571428571435
 40
0.6428571428571435
 40
0.714285714285715
 40
0.714285714285715
 40
0.7857142857142865
 40
0.7857142857142865
 40
0.857142857142858
 40
0.857142857142858
 40
0.9285714285714295
 40
0.9285714285714295
 40
1.0
 40
1.0
 40
1.0
 10
-53.573208537233306
 20
-5.12
 30
0.0
 10
-54.166713099608444
 20
-5.119999999999999
 30
0.0
 10
-54.74980124134185
 20
-5.12
 30
0.0
 10
-55.135961575577284
 20
-5.119999999999999
 30
0.0
 10
-55.51158000428058
 20
-5.12
 30
0.0
 10
-55.696142422417125
 20
-5.119999999999999
 30
0.0
 10
-55.88070484055365
 20
-5.12
 30
0.0
 10
-56.06027486600708
 20
-5.119999999999999
 30
0.0
 10
-56.23984489146051
 20
-5.12
 30
0.0
 10
-56.413645505364194
 20
-5.119999999999999
 30
0.0
 10
-56.58744611926788
 20
-5.12
 30
0.0
 10
-56.7547252676212
 20
-5.119999999999999
 30
0.0
 10
-56.9220044159745
 20
-5.12
 30
0.0
 10
-57.08203826386159
 20
-5.119999999999999
 30
0.0
 10
-57.24207211174868
 20
-5.12
 30
0.0
 10
-57.39416817545021
 20
-5.119999999999999
 30
0.0
 10
-57.54626423915174
 20
-5.12
 30
0.0
 10
-57.68976438259662
 20
-5.119999999999999
 30
0.0
 10
-57.83326452604149
 20
-5.12
 30
0.0
 10
-57.967547808632645
 20
-5.119999999999999
 30
0.0
 10
-58.10183109122381
 20
-5.12
 30
0.0
 10
-58.22631645471513
 20
-5.119999999999999
 30
0.0
 10
-58.35080181820644
 20
-5.12
 30
0.0
  0
LINE
  5
69
330
17
100
AcDbEntity
  8
VISIBLE
100
AcDbLine
 10
53.5732085372333
 20
-5.12
 30
0.0
 11
-53.573208537233306
 21
-5.12
 31
0.0
  0
SPLINE
  5
6A
330
17
100
AcDbEntity
  8
VISIBLE
100
AcDbSpline
 70
0
 71
1
 72
4
 73
2
 74
0
 40
0.0
 40
0.0
 40
0.40019454429863993
 40
0.40019454429863993
 10
58.35080181820645
 20
-5.12
 30
0.0
 10
56.47682123008245
 20
13.73716692735191
 30
0.0
  0
SPLINE
  5
6B
330
17
100
AcDbEntity
  8
VISIBLE
100
AcDbSpline
 70
0
 71
3
 72
38
 73
34
 74
0
 40
0.0
 40
0.0
 40
0.0
 40
0.0
 40
0.0714285714285715
 40
0.0714285714285715
 40
0.0714285714285715
 40
0.142857142857143
 40
0.142857142857143
 40
0.142857142857143
 40
0.2142857142857145
 40
0.2142857142857145
 40
0.2142857142857145
 40
0.285714285714286
 40
0.285714285714286
 40
0.285714285714286
 40
0.3571428571428575
 40
0.3571428571428575
 40
0.3571428571428575
 40
0.428571428571429
 40
0.428571428571429
 40
0.428571428571429
 40
0.5000000000000004
 40
0.5000000000000004
 40
0.5000000000000004
 40
0.571428571428572
 40
0.571428571428572
 40
0.571428571428572
 40
0.6428571428571435
 40
0.6428571428571435
 40
0.6428571428571435
 40
0.714285714285715
 40
0.714285714285715
 40
0.714285714285715
 40
1.0
 40
1.0
 40
1.0
 40
1.0
 10
58.350801818206435
 20
-5.12
 30
0.0
 10
58.26781157587885
 20
-5.119999999999998
 30
0.0
 10
58.18482133355137
 20
-5.120000000000001
 30
0.0
 10
58.1018310912238
 20
-5.12
 30
0.0
 10
58.01230890282967
 20
-5.119999999999998
 30
0.0
 10
57.9227867144356
 20
-5.120000000000001
 30
0.0
 10
57.83326452604149
 20
-5.12
 30
0.0
 10
57.73759776374487
 20
-5.119999999999998
 30
0.0
 10
57.64193100144832
 20
-5.120000000000001
 30
0.0
 10
57.546264239151725
 20
-5.12
 30
0.0
 10
57.44486686335067
 20
-5.119999999999998
 30
0.0
 10
57.343469487549704
 20
-5.120000000000001
 30
0.0
 10
57.24207211174868
 20
-5.12
 30
0.0
 10
57.13538287982391
 20
-5.119999999999998
 30
0.0
 10
57.02869364789926
 20
-5.120000000000001
 30
0.0
 10
56.9220044159745
 20
-5.12
 30
0.0
 10
56.81048498373892
 20
-5.119999999999998
 30
0.0
 10
56.69896555150343
 20
-5.120000000000001
 30
0.0
 10
56.58744611926787
 20
-5.12
 30
0.0
 10
56.471579043332056
 20
-5.119999999999998
 30
0.0
 10
56.35571196739632
 20
-5.120000000000001
 30
0.0
 10
56.23984489146051
 20
-5.12
 30
0.0
 10
56.12013154115821
 20
-5.12
 30
0.0
 10
56.000418190855925
 20
-5.119999999999999
 30
0.0
 10
55.88070484055367
 20
-5.120000000000002
 30
0.0
 10
55.75766322846258
 20
-5.119999999999997
 30
0.0
 10
55.63462161637161
 20
-5.120000000000001
 30
0.0
 10
55.511580004280574
 20
-5.12
 30
0.0
 10
55.38574254472628
 20
-5.120000000000001
 30
0.0
 10
55.25990508517195
 20
-5.119999999999999
 30
0.0
 10
55.134067625617675
 20
-5.12
 30
0.0
 10
54.6246740527973
 20
-5.119999999999998
 30
0.0
 10
54.0997743309963
 20
-5.12
 30
0.0
 10
53.573208537233306
 20
-5.12
 30
0.0
  0
LINE
  5
6C
330
17
100
AcDbEntity
  8
VISIBLE
100
AcDbLine
 10
59.71462671964032
 20
-5.12
 30
0.0
 11
58.35080181820645
 21
-5.12
 31
0.0
  0
SPLINE
  5
6D
330
17
100
AcDbEntity
  8
VISIBLE
100
AcDbSpline
 70
0
 71
1
 72
4
 73
2
 74
0
 40
0.0
 40
0.0
 40
1.0
 40
1.0
 10
-55.905734054715616
 20
-10.047816239520825
 30
0.0
 10
-58.35080181820644
 20
-5.12
 30
0.0
  0
SPLINE
  5
6E
330
17
100
AcDbEntity
  8
VISIBLE
100
AcDbSpline
 70
0
 71
1
 72
4
 73
2
 74
0
 40
0.0
 40
0.0
 40
1.0
 40
1.0
 10
55.90573405471342
 20
-10.047816239525272
 30
0.0
 10
58.35080181820645
 20
-5.12
 30
0.0
  0
SPLINE
  5
6F
330
17
100
AcDbEntity
  8
VISIBLE
100
AcDbSpline
 70
0
 71
1
 72
4
 73
2
 74
0
 40
0.0
 40
0.0
 40
0.7907313845011747
 40
0.7907313845011747
 10
-43.88579649452866
 20
-32.0
 30
0.0
 10
-53.11078918616448
 20
-10.745140384608423
 30
0.0
  0
SPLINE
  5
70
330
17
100
AcDbEntity
  8
VISIBLE
100
AcDbSpline
 70
0
 71
1
 72
4
 73
2
 74
0
 40
0.0
 40
0.0
 40
0.7907313845011747
 40
0.7907313845011747
 10
43.885796494528655
 20
-32.0
 30
0.0
 10
53.11078918616448
 20
-10.745140384608423
 30
0.0
  0
SPLINE
  5
71
330
17
100
AcDbEntity
  8
VISIBLE
100
AcDbSpline
 70
0
 71
1
 72
4
 73
2
 74
0
 40
0.0
 40
0.0
 40
1.0
 40
1.0
 10
-53.016361805067255
 20
14.74802284576256
 30
0.0
 10
-50.81441895385208
 20
32.0
 30
0.0
  0
SPLINE
  5
72
330
17
100
AcDbEntity
  8
VISIBLE
100
AcDbSpline
 70
0
 71
1
 72
4
 73
2
 74
0
 40
0.0
 40
0.0
 40
1.0
 40
1.0
 10
53.01636180506725
 20
14.748022845762568
 30
0.0
 10
50.81441895385206
 20
32.0
 30
0.0
  0
SPLINE
  5
73
330
17
100
AcDbEntity
  8
VISIBLE
100
AcDbSpline
 70
0
 71
1
 72
4
 73
2
 74
0
 40
0.0
 40
0.0
 40
0.42168930390492365
 40
0.42168930390492365
 10
-53.573208537233306
 20
-5.12
 30
0.0
 10
-51.57379043519233
 20
14.750000000000002
 30
0.0
  0
SPLINE
  5
74
330
17
100
AcDbEntity
  8
VISIBLE
100
AcDbSpline
 70
0
 71
1
 72
4
 73
2
 74
0
 40
0.0
 40
0.0
 40
0.42168930390492365
 40
0.42168930390492365
 10
53.5732085372333
 20
-5.12
 30
0.0
 10
51.57379043519232
 20
14.750000000000002
 30
0.0
  0
SPLINE
  5
75
330
17
100
AcDbEntity
  8
VISIBLE
100
AcDbSpline
 70
0
 71
1
 72
4
 73
2
 74
0
 40
0.0
 40
0.0
 40
1.0
 40
1.0
 10
-50.849861612451
 20
-10.75
 30
0.0
 10
-53.573208537233306
 20
-5.12
 30
0.0
  0
SPLINE
  5
76
330
17
100
AcDbEntity
  8
VISIBLE
100
AcDbSpline
 70
0
 71
1
 72
4
 73
2
 74
0
 40
0.0
 40
0.0
 40
1.0
 40
1.0
 10
50.849861612451
 20
-10.75
 30
0.0
 10
53.5732085372333
 20
-5.12
 30
0.0
  0
LINE
  5
77
330
17
100
AcDbEntity
  8
HIDDEN
100
AcDbLine
 10
-48.52634632738932
 20
-32.0
 30
0.0
 11
-70.8805498328607
 21
-32.0
 31
0.0
  0
SPLINE
  5
78
330
17
100
AcDbEntity
  8
HIDDEN
100
AcDbSpline
 70
0
 71
1
 72
4
 73
2
 74
0
 40
0.0
 40
0.0
 40
1.0
 40
1.0
 10
-70.8805498328607
 20
-32.0
 30
0.0
 10
-88.74924557076312
 20
-5.12
 30
0.0
  0
LINE
  5
79
330
17
100
AcDbEntity
  8
HIDDEN
100
AcDbLine
 10
-60.30144720925264
 20
-5.12
 30
0.0
 11
-88.74924557076312
 21
-5.12
 31
0.0
  0
SPLINE
  5
7A
330
17
100
AcDbEntity
  8
HIDDEN
100
AcDbSpline
 70
0
 71
1
 72
4
 73
2
 74
0
 40
0.0
 40
0.0
 40
1.0
 40
1.0
 10
-48.52634632738932
 20
-32.0
 30
0.0
 10
-60.30144720925264
 20
-5.12
 30
0.0
  0
SPLINE
  5
7B
330
17
100
AcDbEntity
  8
HIDDEN
100
AcDbSpline
 70
0
 71
1
 72
17
 73
15
 74
0
 40
0.0
 40
0.0
 40
0.07142857142857083
 40
0.14285714285714166
 40
0.2142857142857125
 40
0.2857142857142833
 40
0.35714285714285415
 40
0.428571428571425
 40
0.4999999999999958
 40
0.5714285714285666
 40
0.6428571428571375
 40
0.7142857142857083
 40
0.7857142857142791
 40
0.85714285714285
 40
0.9285714285714207
 40
1.0
 40
1.0
 10
-72.0
 20
-32.0
 30
0.0
 10
-71.99409429389749
 20
-32.0
 30
0.0
 10
-71.97638928578594
 20
-32.0
 30
0.0
 10
-71.94692128142039
 20
-32.0
 30
0.0
 10
-71.90575070766654
 20
-32.0
 30
0.0
 10
-71.85296198858988
 20
-32.0
 30
0.0
 10
-71.78866337233642
 20
-32.0
 30
0.0
 10
-71.71298670915972
 20
-32.0
 30
0.0
 10
-71.62608718104991
 20
-32.0
 30
0.0
 10
-71.52814298351865
 20
-32.0
 30
0.0
 10
-71.41935496019266
 20
-32.0
 30
0.0
 10
-71.29994619096544
 20
-32.0
 30
0.0
 10
-71.17016153455126
 20
-32.0
 30
0.0
 10
-71.03026712637975
 20
-32.0
 30
0.0
 10
-70.88054983286068
 20
-32.0
 30
0.0
  0
SPLINE
  5
7C
330
17
100
AcDbEntity
  8
HIDDEN
100
AcDbSpline
 70
0
 71
1
 72
17
 73
15
 74
0
 40
0.0
 40
0.0
 40
0.07142857142857136
 40
0.1428571428571427
 40
0.21428571428571425
 40
0.28571428571428575
 40
0.3571428571428573
 40
0.4285714285714288
 40
0.5000000000000003
 40
0.5714285714285718
 40
0.6428571428571435
 40
0.714285714285715
 40
0.7857142857142865
 40
0.857142857142858
 40
0.9285714285714295
 40
1.0
 40
1.0
 10
70.8805498328607
 20
-32.0
 30
0.0
 10
71.03026712637975
 20
-32.0
 30
0.0
 10
71.17016153455123
 20
-32.0
 30
0.0
 10
71.29994619096541
 20
-32.0
 30
0.0
 10
71.41935496019266
 20
-32.0
 30
0.0
 10
71.52814298351865
 20
-32.0
 30
0.0
 10
71.62608718104991
 20
-32.0
 30
0.0
 10
71.71298670915971
 20
-32.0
 30
0.0
 10
71.7886633723364
 20
-32.0
 30
0.0
 10
71.85296198858988
 20
-32.0
 30
0.0
 10
71.90575070766654
 20
-32.0
 30
0.0
 10
71.94692128142039
 20
-32.0
 30
0.0
 10
71.97638928578596
 20
-32.0
 30
0.0
 10
71.99409429389749
 20
-32.0
 30
0.0
 10
72.0
 20
-32.0
 30
0.0
  0
LINE
  5
7D
330
17
100
AcDbEntity
  8
HIDDEN
100
AcDbLine
 10
70.8805498328607
 20
-32.0
 30
0.0
 11
48.52634632738932
 21
-32.0
 31
0.0
  0
SPLINE
  5
7E
330
17
100
AcDbEntity
  8
HIDDEN
100
AcDbSpline
 70
0
 71
2
 72
26
 73
23
 74
0
 40
0.0
 40
0.0
 40
0.0
 40
0.20073720152817276
 40
0.20073720152817276
 40
0.33456200254695456
 40
0.33456200254695456
 40
0.40147440305634546
 40
0.40147440305634546
 40
0.46838680356573636
 40
0.46838680356573636
 40
0.5352992040751273
 40
0.5352992040751273
 40
0.6022116045845183
 40
0.6022116045845183
 40
0.6691240050939092
 40
0.6691240050939092
 40
0.7360364056033002
 40
0.7360364056033002
 40
0.8029488061126911
 40
0.8029488061126911
 40
0.8698612066220821
 40
0.8698612066220821
 40
0.9367736071314727
 40
0.9367736071314727
 40
0.9367736071314727
 10
43.88579649452863
 20
-32.0
 30
0.0
 10
44.465303917261494
 20
-32.0
 30
0.0
 10
45.03429316647196
 20
-32.0
 30
0.0
 10
45.41102935793186
 20
-32.0
 30
0.0
 10
45.77712411140509
 20
-32.0
 30
0.0
 10
45.95689499199409
 20
-31.999999999999996
 30
0.0
 10
46.136665872583094
 20
-32.0
 30
0.0
 10
46.31139975869511
 20
-32.0
 30
0.0
 10
46.48613364480714
 20
-32.0
 30
0.0
 10
46.65504849761942
 20
-31.999999999999996
 30
0.0
 10
46.8239633504317
 20
-32.0
 30
0.0
 10
46.98630317478166
 20
-32.0
 30
0.0
 10
47.14864299913161
 20
-32.0
 30
0.0
 10
47.30368122704812
 20
-31.999999999999996
 30
0.0
 10
47.45871945496464
 20
-32.0
 30
0.0
 10
47.60576219749496
 20
-32.0
 30
0.0
 10
47.75280494002531
 20
-32.0
 30
0.0
 10
47.89119409280389
 20
-31.999999999999996
 30
0.0
 10
48.0295832455825
 20
-32.0
 30
0.0
 10
48.158699434242244
 20
-32.0
 30
0.0
 10
48.287815622902
 20
-32.0
 30
0.0
 10
48.40708097514566
 20
-32.0
 30
0.0
 10
48.52634632738932
 20
-32.0
 30
0.0
  0
LINE
  5
7F
330
17
100
AcDbEntity
  8
HIDDEN
100
AcDbLine
 10
43.885796494528634
 20
-32.0
 30
0.0
 11
-43.88579649452863
 21
-32.0
 31
0.0
  0
SPLINE
  5
80
330
17
100
AcDbEntity
  8
HIDDEN
100
AcDbSpline
 70
0
 71
3
 72
38
 73
34
 74
0
 40
0.0
 40
0.0
 40
0.0
 40
0.0
 40
0.07142857142857184
 40
0.07142857142857184
 40
0.07142857142857184
 40
0.14285714285714368
 40
0.14285714285714368
 40
0.14285714285714368
 40
0.2142857142857155
 40
0.2142857142857155
 40
0.2142857142857155
 40
0.28571428571428736
 40
0.28571428571428736
 40
0.28571428571428736
 40
0.35714285714285915
 40
0.35714285714285915
 40
0.35714285714285915
 40
0.428571428571431
 40
0.428571428571431
 40
0.428571428571431
 40
0.5000000000000029
 40
0.5000000000000029
 40
0.5000000000000029
 40
0.5714285714285747
 40
0.5714285714285747
 40
0.5714285714285747
 40
0.6428571428571466
 40
0.6428571428571466
 40
0.6428571428571466
 40
0.7142857142857183
 40
0.7142857142857183
 40
0.7142857142857183
 40
1.0
 40
1.0
 40
1.0
 40
1.0
 10
-48.5263463273893
 20
-31.999999999999993
 30
0.0
 10
-48.44683609256019
 20
-31.99999999999999
 30
0.0
 10
-48.36732585773108
 20
-32.00000000000001
 30
0.0
 10
-48.287815622901995
 20
-32.0
 30
0.0
 10
-48.201738163795476
 20
-31.999999999999993
 30
0.0
 10
-48.115660704689
 20
-32.0
 30
0.0
 10
-48.02958324558247
 20
-31.999999999999993
 30
0.0
 10
-47.93732381039672
 20
-31.99999999999999
 30
0.0
 10
-47.84506437521103
 20
-32.00000000000001
 30
0.0
 10
-47.752804940025285
 20
-32.0
 30
0.0
 10
-47.65477644500506
 20
-31.999999999999993
 30
0.0
 10
-47.55674794998487
 20
-32.0
 30
0.0
 10
-47.45871945496461
 20
-31.999999999999993
 30
0.0
 10
-47.35536063635359
 20
-31.99999999999999
 30
0.0
 10
-47.25200181774262
 20
-32.00000000000001
 30
0.0
 10
-47.14864299913158
 20
-32.0
 30
0.0
 10
-47.040416449564944
 20
-31.999999999999993
 30
0.0
 10
-46.93218989999831
 20
-32.0
 30
0.0
 10
-46.82396335043166
 20
-31.999999999999993
 30
0.0
 10
-46.7113534485568
 20
-31.99999999999999
 30
0.0
 10
-46.59874354668195
 20
-32.00000000000001
 30
0.0
 10
-46.486133644807126
 20
-32.0
 30
0.0
 10
-46.36964438739909
 20
-31.999999999999993
 30
0.0
 10
-46.25315512999112
 20
-32.0
 30
0.0
 10
-46.13666587258307
 20
-31.999999999999993
 30
0.0
 10
-46.01681861885707
 20
-31.99999999999999
 30
0.0
 10
-45.89697136513107
 20
-32.00000000000001
 30
0.0
 10
-45.777124111405065
 20
-32.0
 30
0.0
 10
-45.6544552496215
 20
-31.999999999999993
 30
0.0
 10
-45.531786387837975
 20
-31.999999999999996
 30
0.0
 10
-45.40911752605442
 20
-32.0
 30
0.0
 10
-44.912341870214824
 20
-31.99999999999999
 30
0.0
 10
-44.39991093001219
 20
-32.00000000000001
 30
0.0
 10
-43.88579649452863
 20
-32.0
 30
0.0
  0
SPLINE
  5
81
330
17
100
AcDbEntity
  8
HIDDEN
100
AcDbSpline
 70
0
 71
1
 72
4
 73
2
 74
0
 40
0.0
 40
0.0
 40
1.0
 40
1.0
 10
-72.00000000000001
 20
-32.0
 30
0.0
 10
-90.0
 20
-5.12
 30
0.0
  0
SPLINE
  5
82
330
17
100
AcDbEntity
  8
HIDDEN
100
AcDbSpline
 70
0
 71
1
 72
17
 73
15
 74
0
 40
0.0
 40
0.0
 40
0.07142857142857086
 40
0.1428571428571417
 40
0.21428571428571255
 40
0.2857142857142834
 40
0.35714285714285426
 40
0.4285714285714251
 40
0.49999999999999595
 40
0.5714285714285668
 40
0.6428571428571377
 40
0.7142857142857085
 40
0.7857142857142794
 40
0.8571428571428502
 40
0.928571428571421
 40
1.0
 40
1.0
 10
-90.0
 20
-5.12
 30
0.0
 10
-89.99338488868003
 20
-5.12
 30
0.0
 10
-89.97355414128603
 20
-5.12
 30
0.0
 10
-89.9405514853519
 20
-5.12
 30
0.0
 10
-89.89444969295857
 20
-5.12
 30
0.0
 10
-89.83535042026894
 20
-5.12
 30
0.0
 10
-89.76338398337226
 20
-5.12
 30
0.0
 10
-89.67870907093234
 20
-5.12
 30
0.0
 10
-89.58151239427312
 20
-5.12
 30
0.0
 10
-89.47200827567326
 20
-5.12
 30
0.0
 10
-89.35043817577761
 20
-5.12
 30
0.0
 10
-89.2170701611675
 20
-5.12
 30
0.0
 10
-89.07219831326398
 20
-5.12
 30
0.0
 10
-88.9161420798674
 20
-5.12
 30
0.0
 10
-88.74924557076312
 20
-5.12
 30
0.0
  0
SPLINE
  5
83
330
17
100
AcDbEntity
  8
HIDDEN
100
AcDbSpline
 70
0
 71
1
 72
4
 73
2
 74
0
 40
0.0
 40
0.0
 40
1.0
 40
1.0
 10
-88.74924557076312
 20
-5.12
 30
0.0
 10
-81.60535049662128
 20
32.0
 30
0.0
  0
LINE
  5
84
330
17
100
AcDbEntity
  8
HIDDEN
100
AcDbLine
 10
-55.6197694504733
 20
32.0
 30
0.0
 11
-81.60535049662128
 21
32.0
 31
0.0
  0
SPLINE
  5
85
330
17
100
AcDbEntity
  8
HIDDEN
100
AcDbSpline
 70
0
 71
1
 72
4
 73
2
 74
0
 40
0.0
 40
0.0
 40
1.0
 40
1.0
 10
-60.30144720925264
 20
-5.12
 30
0.0
 10
-55.6197694504733
 20
32.0
 30
0.0
  0
SPLINE
  5
86
330
17
100
AcDbEntity
  8
HIDDEN
100
AcDbSpline
 70
0
 71
3
 72
38
 73
34
 74
0
 40
0.0
 40
0.0
 40
0.0
 40
0.0
 40
0.07142857142857184
 40
0.07142857142857184
 40
0.07142857142857184
 40
0.14285714285714368
 40
0.14285714285714368
 40
0.14285714285714368
 40
0.21428571428571552
 40
0.21428571428571552
 40
0.21428571428571552
 40
0.28571428571428736
 40
0.28571428571428736
 40
0.28571428571428736
 40
0.3571428571428592
 40
0.3571428571428592
 40
0.3571428571428592
 40
0.42857142857143105
 40
0.42857142857143105
 40
0.42857142857143105
 40
0.5000000000000029
 40
0.5000000000000029
 40
0.5000000000000029
 40
0.5714285714285747
 40
0.5714285714285747
 40
0.5714285714285747
 40
0.6428571428571466
 40
0.6428571428571466
 40
0.6428571428571466
 40
0.7142857142857184
 40
0.7142857142857184
 40
0.7142857142857184
 40
1.0
 40
1.0
 40
1.0
 40
1.0
 10
-60.30144720925263
 20
-5.12
 30
0.0
 10
-60.21840069349658
 20
-5.119999999999999
 30
0.0
 10
-60.13535417774061
 20
-5.120000000000002
 30
0.0
 10
-60.05230766198456
 20
-5.12
 30
0.0
 10
-59.96287934308121
 20
-5.12
 30
0.0
 10
-59.87345102417789
 20
-5.119999999999999
 30
0.0
 10
-59.78402270527454
 20
-5.12
 30
0.0
 10
-59.68859305021119
 20
-5.120000000000005
 30
0.0
 10
-59.593163395147684
 20
-5.1199999999999966
 30
0.0
 10
-59.49773374008434
 20
-5.120000000000001
 30
0.0
 10
-59.39670874814388
 20
-5.119999999999998
 30
0.0
 10
-59.29568375620349
 20
-5.120000000000001
 30
0.0
 10
-59.19465876426304
 20
-5.12
 30
0.0
 10
-59.08846823972674
 20
-5.119999999999999
 30
0.0
 10
-58.98227771519042
 20
-5.120000000000002
 30
0.0
 10
-58.876087190654125
 20
-5.12
 30
0.0
 10
-58.76518291422679
 20
-5.120000000000001
 30
0.0
 10
-58.65427863779942
 20
-5.119999999999998
 30
0.0
 10
-58.54337436137211
 20
-5.120000000000001
 30
0.0
 10
-58.428228168110515
 20
-5.120000000000004
 30
0.0
 10
-58.313081974848835
 20
-5.119999999999998
 30
0.0
 10
-58.19793578158726
 20
-5.120000000000001
 30
0.0
 10
-58.07903755350846
 20
-5.120000000000004
 30
0.0
 10
-57.96013932542951
 20
-5.119999999999999
 30
0.0
 10
-57.841241097350704
 20
-5.12
 30
0.0
 10
-57.71909667926062
 20
-5.119999999999999
 30
0.0
 10
-57.59695226117058
 20
-5.120000000000002
 30
0.0
 10
-57.4748078430805
 20
-5.12
 30
0.0
 10
-57.34993689049028
 20
-5.12
 30
0.0
 10
-57.2250659379
 20
-5.119999999999999
 30
0.0
 10
-57.10019498530977
 20
-5.12
 30
0.0
 10
-56.59481764543447
 20
-5.12
 30
0.0
 10
-56.07432153616047
 20
-5.12
 30
0.0
 10
-55.55220163848953
 20
-5.12
 30
0.0
  0
SPLINE
  5
87
330
17
100
AcDbEntity
  8
HIDDEN
100
AcDbSpline
 70
0
 71
3
 72
8
 73
4
 74
0
 40
0.0
 40
0.0
 40
0.0
 40
0.0
 40
0.5425293674997523
 40
0.5425293674997523
 40
0.5425293674997523
 40
0.5425293674997523
 10
-90.00000000000001
 20
-5.120000000000002
 30
0.0
 10
-89.6418490465078
 20
-5.6548387572148515
 30
0.0
 10
-89.41246014542669
 20
-5.9973928494963324
 30
0.0
 10
-89.41071426745816
 20
-6.00000002726243
 30
0.0
  0
SPLINE
  5
88
330
17
100
AcDbEntity
  8
HIDDEN
100
AcDbSpline
 70
0
 71
3
 72
11
 73
7
 74
0
 40
0.0
 40
0.0
 40
0.0
 40
0.0
 40
0.17960058075291394
 40
0.17960058075291394
 40
0.17960058075291394
 40
1.0
 40
1.0
 40
1.0
 40
1.0
 10
-89.41071426745815
 20
-6.00000002726243
 30
0.0
 10
-89.41062311763679
 20
-6.000136144328975
 30
0.0
 10
-89.41625029633103
 20
-5.991732890812396
 30
0.0
 10
-89.42759580354064
 20
-5.974790266712669
 30
0.0
 10
-89.47829745995305
 20
-5.8990757931367925
 30
0.0
 10
-89.66205239090569
 20
-5.6246684295808205
 30
0.0
 10
-90.0
 20
-5.120000000000004
 30
0.0
  0
SPLINE
  5
89
330
17
100
AcDbEntity
  8
HIDDEN
100
AcDbSpline
 70
0
 71
3
 72
11
 73
7
 74
0
 40
0.0
 40
0.0
 40
0.0
 40
0.0
 40
0.3774027704841839
 40
0.3774027704841839
 40
0.3774027704841839
 40
0.45747245960781424
 40
0.45747245960781424
 40
0.45747245960781424
 40
0.45747245960781424
 10
-90.0
 20
-5.120000000000004
 30
0.0
 10
-89.66013820208364
 20
-5.627526951554981
 30
0.0
 10
-89.47630568990434
 20
-5.902050169742953
 30
0.0
 10
-89.42673427824293
 20
-5.976076811157232
 30
0.0
 10
-89.41596996890576
 20
-5.9921515131006835
 30
0.0
 10
-89.4106299646029
 20
-6.000125919526389
 30
0.0
 10
-89.41071426533414
 20
-6.000000030434333
 30
0.0
  0
SPLINE
  5
8A
330
17
100
AcDbEntity
  8
HIDDEN
100
AcDbSpline
 70
0
 71
3
 72
8
 73
4
 74
0
 40
0.0
 40
0.0
 40
0.0
 40
0.0
 40
1.0
 40
1.0
 40
1.0
 40
1.0
 10
-89.41071426533415
 20
-6.000000030434334
 30
0.0
 10
-89.41245933444232
 20
-5.9973940605661715
 30
0.0
 10
-89.64185072227798
 20
-5.654836254731527
 30
0.0
 10
-90.0
 20
-5.120000000000004
 30
0.0
  0
SPLINE
  5
8B
330
17
100
AcDbEntity
  8
HIDDEN
100
AcDbSpline
 70
0
 71
3
 72
8
 73
4
 74
0
 40
0.0
 40
0.0
 40
0.0
 40
0.0
 40
0.5425293674995382
 40
0.5425293674995382
 40
0.5425293674995382
 40
0.5425293674995382
 10
90.0
 20
-5.120000000000004
 30
0.0
 10
89.64184904650787
 20
-5.654838757214871
 30
0.0
 10
89.41246014542656
 20
-5.997392849496411
 30
0.0
 10
89.41071426745816
 20
-6.000000027262454
 30
0.0
  0
SPLINE
  5
8C
330
17
100
AcDbEntity
  8
HIDDEN
100
AcDbSpline
 70
0
 71
3
 72
11
 73
7
 74
0
 40
0.0
 40
0.0
 40
0.0
 40
0.0
 40
0.17960058075256
 40
0.17960058075256
 40
0.17960058075256
 40
1.0
 40
1.0
 40
1.0
 40
1.0
 10
89.41071426745816
 20
-6.000000027262453
 30
0.0
 10
89.41062311763685
 20
-6.000136144328978
 30
0.0
 10
89.41625029633099
 20
-5.991732890812417
 30
0.0
 10
89.42759580354056
 20
-5.974790266712762
 30
0.0
 10
89.47829745995291
 20
-5.899075793136939
 30
0.0
 10
89.66205239090561
 20
-5.624668429580947
 30
0.0
 10
89.99999999999999
 20
-5.120000000000004
 30
0.0
  0
SPLINE
  5
8D
330
17
100
AcDbEntity
  8
HIDDEN
100
AcDbSpline
 70
0
 71
3
 72
11
 73
7
 74
0
 40
0.0
 40
0.0
 40
0.0
 40
0.0
 40
0.3774027704840148
 40
0.3774027704840148
 40
0.3774027704840148
 40
0.4574724596076655
 40
0.4574724596076655
 40
0.4574724596076655
 40
0.4574724596076655
 10
90.00000000000001
 20
-5.1200000000000045
 30
0.0
 10
89.66013820208371
 20
-5.627526951555011
 30
0.0
 10
89.47630568990427
 20
-5.902050169742982
 30
0.0
 10
89.4267342782429
 20
-5.9760768111572675
 30
0.0
 10
89.41596996890573
 20
-5.9921515131007235
 30
0.0
 10
89.41062996460286
 20
-6.000125919526432
 30
0.0
 10
89.41071426533414
 20
-6.000000030434374
 30
0.0
  0
SPLINE
  5
8E
330
17
100
AcDbEntity
  8
HIDDEN
100
AcDbSpline
 70
0
 71
3
 72
8
 73
4
 74
0
 40
0.0
 40
0.0
 40
0.0
 40
0.0
 40
1.0
 40
1.0
 40
1.0
 40
1.0
 10
89.41071426533415
 20
-6.000000030434375
 30
0.0
 10
89.4124593344422
 20
-5.997394060566212
 30
0.0
 10
89.641850722278
 20
-5.654836254731546
 30
0.0
 10
90.0
 20
-5.120000000000003
 30
0.0
  0
SPLINE
  5
8F
330
17
100
AcDbEntity
  8
HIDDEN
100
AcDbSpline
 70
0
 71
1
 72
4
 73
2
 74
0
 40
0.0
 40
0.0
 40
1.0
 40
1.0
 10
72.0
 20
-32.0
 30
0.0
 10
90.0
 20
-5.12
 30
0.0
  0
SPLINE
  5
90
330
17
100
AcDbEntity
  8
HIDDEN
100
AcDbSpline
 70
0
 71
1
 72
4
 73
2
 74
0
 40
0.0
 40
0.0
 40
1.0
 40
1.0
 10
70.8805498328607
 20
-32.0
 30
0.0
 10
88.74924557076311
 20
-5.12
 30
0.0
  0
SPLINE
  5
91
330
17
100
AcDbEntity
  8
HIDDEN
100
AcDbSpline
 70
0
 71
1
 72
17
 73
15
 74
0
 40
0.0
 40
0.0
 40
0.07142857142857144
 40
0.1428571428571427
 40
0.214285714285714
 40
0.28571428571428525
 40
0.35714285714285654
 40
0.4285714285714278
 40
0.49999999999999906
 40
0.5714285714285704
 40
0.6428571428571416
 40
0.7142857142857129
 40
0.7857142857142841
 40
0.8571428571428554
 40
0.9285714285714267
 40
1.0
 40
1.0
 10
88.74924557076311
 20
-5.12
 30
0.0
 10
88.91614207986738
 20
-5.12
 30
0.0
 10
89.07219831326397
 20
-5.12
 30
0.0
 10
89.21707016116748
 20
-5.12
 30
0.0
 10
89.35043817577758
 20
-5.12
 30
0.0
 10
89.47200827567326
 20
-5.12
 30
0.0
 10
89.58151239427312
 20
-5.12
 30
0.0
 10
89.67870907093234
 20
-5.12
 30
0.0
 10
89.76338398337226
 20
-5.12
 30
0.0
 10
89.83535042026892
 20
-5.12
 30
0.0
 10
89.89444969295857
 20
-5.12
 30
0.0
 10
89.9405514853519
 20
-5.12
 30
0.0
 10
89.97355414128603
 20
-5.12
 30
0.0
 10
89.99338488868003
 20
-5.12
 30
0.0
 10
90.0
 20
-5.12
 30
0.0
  0
SPLINE
  5
92
330
17
100
AcDbEntity
  8
HIDDEN
100
AcDbSpline
 70
0
 71
1
 72
4
 73
2
 74
0
 40
0.0
 40
0.0
 40
1.0
 40
1.0
 10
48.52634632738931
 20
-32.0
 30
0.0
 10
60.30144720925264
 20
-5.12
 30
0.0
  0
LINE
  5
93
330
17
100
AcDbEntity
  8
HIDDEN
100
AcDbLine
 10
88.74924557076312
 20
-5.12
 30
0.0
 11
60.30144720925264
 21
-5.12
 31
0.0
  0
SPLINE
  5
94
330
17
100
AcDbEntity
  8
HIDDEN
100
AcDbSpline
 70
0
 71
2
 72
26
 73
23
 74
0
 40
0.0
 40
0.0
 40
0.0
 40
0.1957127987990201
 40
0.1957127987990201
 40
0.3261879979983668
 40
0.3261879979983668
 40
0.39142559759804013
 40
0.39142559759804013
 40
0.4566631971977135
 40
0.4566631971977135
 40
0.5219007967973869
 40
0.5219007967973869
 40
0.5871383963970602
 40
0.5871383963970602
 40
0.6523759959967336
 40
0.6523759959967336
 40
0.7176135955964069
 40
0.7176135955964069
 40
0.7828511951960803
 40
0.7828511951960803
 40
0.8480887947957536
 40
0.8480887947957536
 40
0.9133263943954271
 40
0.9133263943954271
 40
0.9133263943954271
 10
55.55220163848954
 20
-5.12
 30
0.0
 10
56.140676690630094
 20
-5.119999999999999
 30
0.0
 10
56.71899629016467
 20
-5.12
 30
0.0
 10
57.1020417777385
 20
-5.119999999999999
 30
0.0
 10
57.47480784308054
 20
-5.12
 30
0.0
 10
57.65802447021562
 20
-5.119999999999999
 30
0.0
 10
57.84124109735074
 20
-5.12
 30
0.0
 10
58.01958843946901
 20
-5.119999999999999
 30
0.0
 10
58.197935781587276
 20
-5.12
 30
0.0
 10
58.3706550714797
 20
-5.12
 30
0.0
 10
58.54337436137213
 20
-5.12
 30
0.0
 10
58.709730776013146
 20
-5.12
 30
0.0
 10
58.87608719065416
 20
-5.12
 30
0.0
 10
59.03537297745861
 20
-5.119999999999999
 30
0.0
 10
59.19465876426307
 20
-5.12
 30
0.0
 10
59.346196252173705
 20
-5.12
 30
0.0
 10
59.49773374008436
 20
-5.12
 30
0.0
 10
59.64087822267947
 20
-5.119999999999999
 30
0.0
 10
59.78402270527455
 20
-5.12
 30
0.0
 10
59.91816518362957
 20
-5.12
 30
0.0
 10
60.052307661984585
 20
-5.12
 30
0.0
 10
60.17687743561861
 20
-5.119999999999999
 30
0.0
 10
60.30144720925264
 20
-5.12
 30
0.0
  0
LINE
  5
95
330
17
100
AcDbEntity
  8
HIDDEN
100
AcDbLine
 10
55.55220163848954
 20
-5.12
 30
0.0
 11
-55.55220163848952
 21
-5.12
 31
0.0
  0
SPLINE
  5
96
330
17
100
AcDbEntity
  8
HIDDEN
100
AcDbSpline
 70
0
 71
1
 72
4
 73
2
 74
0
 40
0.0
 40
0.0
 40
1.0
 40
1.0
 10
-90.0
 20
-5.12
 30
0.0
 10
-82.80000000000001
 20
32.0
 30
0.0
  0
SPLINE
  5
97
330
17
100
AcDbEntity
  8
HIDDEN
100
AcDbSpline
 70
0
 71
1
 72
17
 73
15
 74
0
 40
0.0
 40
0.0
 40
0.07142857142857133
 40
0.14285714285714265
 40
0.214285714285714
 40
0.2857142857142853
 40
0.35714285714285665
 40
0.428571428571428
 40
0.49999999999999933
 40
0.5714285714285706
 40
0.642857142857142
 40
0.7142857142857133
 40
0.7857142857142846
 40
0.857142857142856
 40
0.9285714285714273
 40
1.0
 40
1.0
 10
-82.80000000000001
 20
32.0
 30
0.0
 10
-82.79369220985305
 20
32.0
 30
0.0
 10
-82.77478210215101
 20
32.0
 30
0.0
 10
-82.74330943722421
 20
32.0
 30
0.0
 10
-82.69934038939462
 20
32.0
 30
0.0
 10
-82.64296740783774
 20
32.0
 30
0.0
 10
-82.57430902219947
 20
32.0
 30
0.0
 10
-82.49350959337596
 20
32.0
 30
0.0
 10
-82.40073900998084
 20
32.0
 30
0.0
 10
-82.29619233113812
 20
32.0
 30
0.0
 10
-82.18008937635133
 20
32.0
 30
0.0
 10
-82.0526742633119
 20
32.0
 30
0.0
 10
-81.91421489461803
 20
32.0
 30
0.0
 10
-81.76500239448359
 20
32.0
 30
0.0
 10
-81.60535049662127
 20
32.0
 30
0.0
  0
SPLINE
  5
98
330
17
100
AcDbEntity
  8
HIDDEN
100
AcDbSpline
 70
0
 71
3
 72
38
 73
34
 74
0
 40
0.0
 40
0.0
 40
0.0
 40
0.0
 40
0.0714285714285715
 40
0.0714285714285715
 40
0.0714285714285715
 40
0.142857142857143
 40
0.142857142857143
 40
0.142857142857143
 40
0.2142857142857145
 40
0.2142857142857145
 40
0.2142857142857145
 40
0.285714285714286
 40
0.285714285714286
 40
0.285714285714286
 40
0.3571428571428575
 40
0.3571428571428575
 40
0.3571428571428575
 40
0.428571428571429
 40
0.428571428571429
 40
0.428571428571429
 40
0.5000000000000004
 40
0.5000000000000004
 40
0.5000000000000004
 40
0.571428571428572
 40
0.571428571428572
 40
0.571428571428572
 40
0.6428571428571435
 40
0.6428571428571435
 40
0.6428571428571435
 40
0.714285714285715
 40
0.714285714285715
 40
0.714285714285715
 40
1.0
 40
1.0
 40
1.0
 40
1.0
 10
-55.61976945047328
 20
32.00000000000001
 30
0.0
 10
-55.53685215438924
 20
32.0
 30
0.0
 10
-55.45393485830517
 20
31.999999999999993
 30
0.0
 10
-55.37101756222113
 20
32.0
 30
0.0
 10
-55.28141786383099
 20
31.999999999999993
 30
0.0
 10
-55.19181816544096
 20
32.0
 30
0.0
 10
-55.10221846705082
 20
32.0
 30
0.0
 10
-55.00633056910275
 20
31.999999999999996
 30
0.0
 10
-54.910442671154726
 20
31.999999999999993
 30
0.0
 10
-54.81455477320669
 20
32.00000000000001
 30
0.0
 10
-54.712800544005596
 20
31.999999999999982
 30
0.0
 10
-54.6110463148045
 20
32.00000000000001
 30
0.0
 10
-54.50929208560346
 20
32.00000000000001
 30
0.0
 10
-54.40211920295966
 20
32.0
 30
0.0
 10
-54.294946320315916
 20
32.0
 30
0.0
 10
-54.187773437672156
 20
32.0
 30
0.0
 10
-54.07565341929859
 20
31.999999999999993
 30
0.0
 10
-53.96353340092502
 20
32.0
 30
0.0
 10
-53.851413382551456
 20
32.0
 30
0.0
 10
-53.73483951157462
 20
31.99999999999999
 30
0.0
 10
-53.61826564059786
 20
32.00000000000001
 30
0.0
 10
-53.50169176962105
 20
32.0
 30
0.0
 10
-53.381176924333204
 20
31.999999999999996
 30
0.0
 10
-53.26066207904545
 20
31.999999999999993
 30
0.0
 10
-53.14014723375766
 20
32.00000000000001
 30
0.0
 10
-53.01622163115795
 20
32.0
 30
0.0
 10
-52.89229602855827
 20
31.999999999999993
 30
0.0
 10
-52.76837042595856
 20
32.0
 30
0.0
 10
-52.64157928901066
 20
31.999999999999993
 30
0.0
 10
-52.51478815206282
 20
32.0
 30
0.0
 10
-52.38799701511494
 20
32.0
 30
0.0
 10
-51.87463770122949
 20
31.999999999999982
 30
0.0
 10
-51.34538264064447
 20
32.0
 30
0.0
 10
-50.81441895385202
 20
32.0
 30
0.0
  0
LINE
  5
99
330
17
100
AcDbEntity
  8
HIDDEN
100
AcDbLine
 10
50.814418953852055
 20
32.0
 30
0.0
 11
-50.81441895385202
 21
32.0
 31
0.0
  0
SPLINE
  5
9A
330
17
100
AcDbEntity
  8
HIDDEN
100
AcDbSpline
 70
0
 71
3
 72
38
 73
34
 74
0
 40
0.0
 40
0.0
 40
0.0
 40
0.0
 40
0.2653665551892492
 40
0.2653665551892492
 40
0.2653665551892492
 40
0.3317081939865615
 40
0.3317081939865615
 40
0.3317081939865615
 40
0.3980498327838738
 40
0.3980498327838738
 40
0.3980498327838738
 40
0.4643914715811861
 40
0.4643914715811861
 40
0.4643914715811861
 40
0.5307331103784984
 40
0.5307331103784984
 40
0.5307331103784984
 40
0.5970747491758106
 40
0.5970747491758106
 40
0.5970747491758106
 40
0.6634163879731229
 40
0.6634163879731229
 40
0.6634163879731229
 40
0.7297580267704351
 40
0.7297580267704351
 40
0.7297580267704351
 40
0.7960996655677474
 40
0.7960996655677474
 40
0.7960996655677474
 40
0.8624413043650596
 40
0.8624413043650596
 40
0.8624413043650596
 40
0.9287829431623722
 40
0.9287829431623722
 40
0.9287829431623722
 40
0.9287829431623722
 10
50.814418953852055
 20
32.0
 30
0.0
 10
51.34538264064448
 20
31.99999999999999
 30
0.0
 10
51.87463770122952
 20
32.00000000000001
 30
0.0
 10
52.38799701511497
 20
31.999999999999993
 30
0.0
 10
52.51478815206284
 20
31.999999999999993
 30
0.0
 10
52.64157928901073
 20
32.00000000000001
 30
0.0
 10
52.768370425958594
 20
32.0
 30
0.0
 10
52.8922960285583
 20
32.00000000000001
 30
0.0
 10
53.01622163115797
 20
31.999999999999993
 30
0.0
 10
53.14014723375769
 20
32.0
 30
0.0
 10
53.26066207904549
 20
32.00000000000001
 30
0.0
 10
53.38117692433329
 20
31.999999999999993
 30
0.0
 10
53.50169176962109
 20
32.0
 30
0.0
 10
53.61826564059788
 20
32.0
 30
0.0
 10
53.73483951157473
 20
32.00000000000001
 30
0.0
 10
53.851413382551485
 20
31.999999999999993
 30
0.0
 10
53.96353340092512
 20
32.00000000000002
 30
0.0
 10
54.075653419298604
 20
31.999999999999996
 30
0.0
 10
54.18777343767219
 20
32.0
 30
0.0
 10
54.29494632031601
 20
32.00000000000003
 30
0.0
 10
54.402119202959696
 20
31.999999999999982
 30
0.0
 10
54.509292085603484
 20
32.0
 30
0.0
 10
54.61104631480454
 20
31.999999999999975
 30
0.0
 10
54.712800544005624
 20
32.000000000000014
 30
0.0
 10
54.81455477320672
 20
32.0
 30
0.0
 10
54.91044267115481
 20
32.00000000000003
 30
0.0
 10
55.00633056910281
 20
31.99999999999999
 30
0.0
 10
55.10221846705085
 20
31.999999999999993
 30
0.0
 10
55.19181816544099
 20
32.00000000000002
 30
0.0
 10
55.28141786383105
 20
31.999999999999993
 30
0.0
 10
55.371017562221134
 20
31.999999999999993
 30
0.0
 10
55.45393485830525
 20
32.00000000000003
 30
0.0
 10
55.53685215438924
 20
31.999999999999986
 30
0.0
 10
55.61976945047331
 20
32.0
 30
0.0
  0
LINE
  5
9B
330
17
100
AcDbEntity
  8
HIDDEN
100
AcDbLine
 10
81.60535049662127
 20
32.0
 30
0.0
 11
55.619769450473335
 21
32.0
 31
0.0
  0
SPLINE
  5
9C
330
17
100
AcDbEntity
  8
HIDDEN
100
AcDbSpline
 70
0
 71
1
 72
17
 73
15
 74
0
 40
0.0
 40
0.0
 40
0.0714285714285715
 40
0.14285714285714282
 40
0.21428571428571414
 40
0.2857142857142854
 40
0.35714285714285676
 40
0.4285714285714281
 40
0.4999999999999994
 40
0.5714285714285707
 40
0.642857142857142
 40
0.7142857142857133
 40
0.7857142857142847
 40
0.857142857142856
 40
0.9285714285714273
 40
1.0
 40
1.0
 10
81.60535049662124
 20
32.0
 30
0.0
 10
81.76500239448356
 20
32.0
 30
0.0
 10
81.91421489461801
 20
32.0
 30
0.0
 10
82.05267426331187
 20
32.0
 30
0.0
 10
82.1800893763513
 20
32.0
 30
0.0
 10
82.29619233113809
 20
32.0
 30
0.0
 10
82.40073900998081
 20
32.0
 30
0.0
 10
82.49350959337593
 20
32.0
 30
0.0
 10
82.57430902219946
 20
32.0
 30
0.0
 10
82.64296740783773
 20
32.0
 30
0.0
 10
82.69934038939462
 20
32.0
 30
0.0
 10
82.74330943722421
 20
32.0
 30
0.0
 10
82.774782102151
 20
32.0
 30
0.0
 10
82.79369220985303
 20
32.0
 30
0.0
 10
82.8
 20
32.0
 30
0.0
  0
SPLINE
  5
9D
330
17
100
AcDbEntity
  8
HIDDEN
100
AcDbSpline
 70
0
 71
1
 72
4
 73
2
 74
0
 40
0.0
 40
0.0
 40
1.0
 40
1.0
 10
-80.15190796745443
 20
32.0
 30
0.0
 10
-54.661904132824844
 20
32.0
 30
0.0
  0
SPLINE
  5
9E
330
17
100
AcDbEntity
  8
HIDDEN
100
AcDbSpline
 70
0
 71
3
 72
11
 73
7
 74
0
 40
0.0
 40
0.0
 40
0.0
 40
0.0
 40
0.6099966193074535
 40
0.6099966193074535
 40
0.6099966193074535
 40
1.0
 40
1.0
 40
1.0
 40
1.0
 10
-54.66190413282488
 20
32.0
 30
0.0
 10
-53.98559085995772
 20
31.999999999999982
 30
0.0
 10
-53.04128742613081
 20
32.0
 30
0.0
 10
-51.97553364229834
 20
32.0
 30
0.0
 10
-51.29488947039527
 20
32.0
 30
0.0
 10
-50.56657110876743
 20
32.0
 30
0.0
 10
-49.838009747713386
 20
32.0
 30
0.0
  0
SPLINE
  5
9F
330
17
100
AcDbEntity
  8
HIDDEN
100
AcDbSpline
 70
0
 71
1
 72
4
 73
2
 74
0
 40
0.0
 40
0.0
 40
1.0
 40
1.0
 10
-49.83800974771336
 20
32.0
 30
0.0
 10
49.83800974771336
 20
32.0
 30
0.0
  0
SPLINE
  5
A0
330
17
100
AcDbEntity
  8
HIDDEN
100
AcDbSpline
 70
0
 71
3
 72
11
 73
7
 74
0
 40
0.0
 40
0.0
 40
0.0
 40
0.0
 40
0.6620033652123983
 40
0.6620033652123983
 40
0.6620033652123983
 40
1.0
 40
1.0
 40
1.0
 40
1.0
 10
49.83800974771336
 20
32.0
 30
0.0
 10
51.075275111536754
 20
31.999999999999982
 30
0.0
 10
52.309158678483655
 20
32.0
 30
0.0
 10
53.315894739019406
 20
32.00000000000001
 30
0.0
 10
53.83048363225859
 20
31.99999999999998
 30
0.0
 10
54.286625434953734
 20
32.00000000000001
 30
0.0
 10
54.661904132824844
 20
32.0
 30
0.0
  0
SPLINE
  5
A1
330
17
100
AcDbEntity
  8
HIDDEN
100
AcDbSpline
 70
0
 71
1
 72
4
 73
2
 74
0
 40
0.0
 40
0.0
 40
1.0
 40
1.0
 10
54.661904132824844
 20
32.0
 30
0.0
 10
80.15190796745443
 20
32.0
 30
0.0
  0
SPLINE
  5
A2
330
17
100
AcDbEntity
  8
HIDDEN
100
AcDbSpline
 70
0
 71
3
 72
8
 73
4
 74
0
 40
0.0
 40
0.0
 40
0.0
 40
0.0
 40
1.0
 40
1.0
 40
1.0
 40
1.0
 10
80.15190796745446
 20
32.0
 30
0.0
 10
80.9120222760771
 20
31.999999999999982
 30
0.0
 10
81.33082861364149
 20
32.0
 30
0.0
 10
81.32801358234298
 20
32.0
 30
0.0
  0
SPLINE
  5
A3
330
17
100
AcDbEntity
  8
HIDDEN
100
AcDbSpline
 70
0
 71
3
 72
8
 73
4
 74
0
 40
0.0
 40
0.0
 40
0.0
 40
0.0
 40
1.0
 40
1.0
 40
1.0
 40
1.0
 10
81.32801358234295
 20
32.0
 30
0.0
 10
81.3308286181419
 20
31.999999999999982
 30
0.0
 10
80.91202225173922
 20
32.0
 30
0.0
 10
80.15190796745443
 20
32.0
 30
0.0
  0
SPLINE
  5
A4
330
17
100
AcDbEntity
  8
HIDDEN
100
AcDbSpline
 70
0
 71
1
 72
4
 73
2
 74
0
 40
0.0
 40
0.0
 40
1.0
 40
1.0
 10
80.15190796745446
 20
32.0
 30
0.0
 10
54.66190413282487
 20
32.0
 30
0.0
  0
SPLINE
  5
A5
330
17
100
AcDbEntity
  8
HIDDEN
100
AcDbSpline
 70
0
 71
3
 72
11
 73
7
 74
0
 40
0.0
 40
0.0
 40
0.0
 40
0.0
 40
0.49999713271920865
 40
0.49999713271920865
 40
0.49999713271920865
 40
1.0
 40
1.0
 40
1.0
 40
1.0
 10
54.66190413282485
 20
32.0
 30
0.0
 10
54.10713683950365
 20
31.999999999999982
 30
0.0
 10
53.37371695286437
 20
32.0
 30
0.0
 10
52.53923170778543
 20
32.0
 30
0.0
 10
51.7054842541124
 20
31.99999999999997
 30
0.0
 10
50.7721663541321
 20
32.00000000000002
 30
0.0
 10
49.838009747713365
 20
32.0
 30
0.0
  0
SPLINE
  5
A6
330
17
100
AcDbEntity
  8
HIDDEN
100
AcDbSpline
 70
0
 71
1
 72
4
 73
2
 74
0
 40
0.0
 40
0.0
 40
1.0
 40
1.0
 10
49.83800974771334
 20
32.0
 30
0.0
 10
-49.83800974771336
 20
32.0
 30
0.0
  0
SPLINE
  5
A7
330
17
100
AcDbEntity
  8
HIDDEN
100
AcDbSpline
 70
0
 71
3
 72
11
 73
7
 74
0
 40
0.0
 40
0.0
 40
0.0
 40
0.0
 40
0.5180074972060308
 40
0.5180074972060308
 40
0.5180074972060308
 40
1.0
 40
1.0
 40
1.0
 40
1.0
 10
-49.83800974771336
 20
32.0
 30
0.0
 10
-50.8058218328871
 20
31.999999999999982
 30
0.0
 10
-51.772633619713055
 20
32.0
 30
0.0
 10
-52.62891445895399
 20
32.0
 30
0.0
 10
-53.426376974784716
 20
31.99999999999998
 30
0.0
 10
-54.127057745475845
 20
32.00000000000001
 30
0.0
 10
-54.66190413282485
 20
32.0
 30
0.0
  0
SPLINE
  5
A8
330
17
100
AcDbEntity
  8
HIDDEN
100
AcDbSpline
 70
0
 71
1
 72
4
 73
2
 74
0
 40
0.0
 40
0.0
 40
1.0
 40
1.0
 10
-54.661904132824844
 20
32.0
 30
0.0
 10
-80.15190796745443
 20
32.0
 30
0.0
  0
SPLINE
  5
A9
330
17
100
AcDbEntity
  8
HIDDEN
100
AcDbSpline
 70
0
 71
3
 72
8
 73
4
 74
0
 40
0.0
 40
0.0
 40
0.0
 40
0.0
 40
1.0
 40
1.0
 40
1.0
 40
1.0
 10
-80.15190796745443
 20
32.0
 30
0.0
 10
-80.91202434427957
 20
31.999999999999982
 30
0.0
 10
-81.33082891349824
 20
32.0
 30
0.0
 10
-81.32801358234295
 20
32.0
 30
0.0
  0
SPLINE
  5
AA
330
17
100
AcDbEntity
  8
HIDDEN
100
AcDbSpline
 70
0
 71
3
 72
8
 73
4
 74
0
 40
0.0
 40
0.0
 40
0.0
 40
0.0
 40
1.0
 40
1.0
 40
1.0
 40
1.0
 10
-81.32801358234296
 20
32.0
 30
0.0
 10
-81.33082878671713
 20
31.999999999999982
 30
0.0
 10
-80.91202233017376
 20
32.0
 30
0.0
 10
-80.15190796745445
 20
32.0
 30
0.0
  0
SPLINE
  5
AB
330
17
100
AcDbEntity
  8
HIDDEN
100
AcDbSpline
 70
0
 71
3
 72
11
 73
7
 74
0
 40
0.0
 40
0.0
 40
0.0
 40
0.0
 40
0.37227211848039804
 40
0.37227211848039804
 40
0.37227211848039804
 40
1.0
 40
1.0
 40
1.0
 40
1.0
 10
-89.00689655172414
 20
1.7985612998927536e-14
 30
0.0
 10
-89.17698002850851
 20
-0.8768748136440848
 30
0.0
 10
-89.3389355362148
 20
-1.7118454311518994
 30
0.0
 10
-89.47786880614021
 20
-2.4281236227671346
 30
0.0
 10
-89.71312715028255
 20
-3.641011085900775
 30
0.0
 10
-89.88603733233546
 20
-4.532459135596251
 30
0.0
 10
-90.0
 20
-5.120000000000001
 30
0.0
  0
SPLINE
  5
AC
330
17
100
AcDbEntity
  8
HIDDEN
100
AcDbSpline
 70
0
 71
3
 72
23
 73
19
 74
0
 40
0.0
 40
0.0
 40
0.0
 40
0.0
 40
0.09118261304324203
 40
0.09118261304324203
 40
0.09118261304324203
 40
0.1501742785937102
 40
0.1501742785937102
 40
0.1501742785937102
 40
0.24632822045080852
 40
0.24632822045080852
 40
0.24632822045080852
 40
0.3229233847608222
 40
0.3229233847608222
 40
0.3229233847608222
 40
0.43804183975711497
 40
0.43804183975711497
 40
0.43804183975711497
 40
0.6257909486962921
 40
0.6257909486962921
 40
0.6257909486962921
 40
0.6257909486962921
 10
-90.0
 20
-5.12
 30
0.0
 10
-89.92729566277201
 20
-4.745168750291463
 30
0.0
 10
-89.82779264818362
 20
-4.232175430635441
 30
0.0
 10
-89.70149095623466
 20
-3.5810200410319184
 30
0.0
 10
-89.61921107458464
 20
-3.156821540080739
 30
0.0
 10
-89.52690473504607
 20
-2.680931078460061
 30
0.0
 10
-89.42457193761918
 20
-2.1533486561698814
 30
0.0
 10
-89.25895465107513
 20
-1.2994995344317364
 30
0.0
 10
-89.07110490772988
 20
-0.3310297465182688
 30
0.0
 10
-88.89603152350493
 20
0.5715708121524097
 30
0.0
 10
-88.75628847160887
 20
1.2920238797050898
 30
0.0
 10
-88.62538598054053
 20
1.9668989447689218
 30
0.0
 10
-88.51056836628473
 20
2.5588475338209262
 30
0.0
 10
-88.33773133217151
 20
3.4499184652490147
 30
0.0
 10
-88.19951301545845
 20
4.162510675858831
 30
0.0
 10
-88.09591341614542
 20
4.69662416565037
 30
0.0
 10
-87.92687316265071
 20
5.568120583667186
 30
0.0
 10
-87.84363941814341
 20
5.997236777571698
 30
0.0
 10
-87.84310343990998
 20
6.00000004313084
 30
0.0
  0
SPLINE
  5
AD
330
17
100
AcDbEntity
  8
HIDDEN
100
AcDbSpline
 70
0
 71
3
 72
14
 73
10
 74
0
 40
0.0
 40
0.0
 40
0.0
 40
0.0
 40
0.5603217506450268
 40
0.5603217506450268
 40
0.5603217506450268
 40
0.7591388019759079
 40
0.7591388019759079
 40
0.7591388019759079
 40
1.0
 40
1.0
 40
1.0
 40
1.0
 10
-87.84310343990998
 20
6.000000043130841
 30
0.0
 10
-87.84386308388389
 20
5.996083656421033
 30
0.0
 10
-87.9470088771579
 20
5.464309788874907
 30
0.0
 10
-88.19745810001857
 20
4.173104906570963
 30
0.0
 10
-88.28618301555285
 20
3.7156786753720388
 30
0.0
 10
-88.39416861917167
 20
3.1589528967147693
 30
0.0
 10
-88.51784374160223
 20
2.5213389321840194
 30
0.0
 10
-88.66716744144456
 20
1.7514923018860726
 30
0.0
 10
-88.83957460156293
 20
0.8626376097199849
 30
0.0
 10
-89.00689655172413
 20
1.7763568394002505e-14
 30
0.0
  0
SPLINE
  5
AE
330
17
100
AcDbEntity
  8
HIDDEN
100
AcDbSpline
 70
0
 71
3
 72
11
 73
7
 74
0
 40
0.0
 40
0.0
 40
0.0
 40
0.0
 40
0.4322624012586585
 40
0.4322624012586585
 40
0.4322624012586585
 40
1.0
 40
1.0
 40
1.0
 40
1.0
 10
-89.00689655172414
 20
1.7763568394002505e-14
 30
0.0
 10
-89.1890804825624
 20
-0.9392593767661983
 30
0.0
 10
-89.3760125200601
 20
-1.90299788119863
 30
0.0
 10
-89.53337306457095
 20
-2.7142789106768497
 30
0.0
 10
-89.74171192158857
 20
-3.7883814624122842
 30
0.0
 10
-89.89764656529593
 20
-4.592311181081099
 30
0.0
 10
-90.0
 20
-5.120000000000001
 30
0.0
  0
SPLINE
  5
AF
330
17
100
AcDbEntity
  8
HIDDEN
100
AcDbSpline
 70
0
 71
3
 72
23
 73
19
 74
0
 40
0.0
 40
0.0
 40
0.0
 40
0.0
 40
0.15892147992998898
 40
0.15892147992998898
 40
0.15892147992998898
 40
0.22824690734977307
 40
0.22824690734977307
 40
0.22824690734977307
 40
0.31281364187967575
 40
0.31281364187967575
 40
0.31281364187967575
 40
0.40208634137404586
 40
0.40208634137404586
 40
0.40208634137404586
 40
0.4658674176285056
 40
0.4658674176285056
 40
0.4658674176285056
 40
0.6078754326575335
 40
0.6078754326575335
 40
0.6078754326575335
 40
0.6078754326575335
 10
-89.99999999999999
 20
-5.120000000000001
 30
0.0
 10
-89.88030290372885
 20
-4.502894970335661
 30
0.0
 10
-89.69515427026147
 20
-3.548350904458911
 30
0.0
 10
-89.44145028598508
 20
-2.2403659188563783
 30
0.0
 10
-89.331139550655
 20
-1.6716527944879254
 30
0.0
 10
-89.20787879518531
 20
-1.0361751218445192
 30
0.0
 10
-89.07818709373848
 20
-0.3675423499404832
 30
0.0
 10
-88.92024293621512
 20
0.44674752884612995
 30
0.0
 10
-88.75351577382172
 20
1.3063186771861959
 30
0.0
 10
-88.6035324067262
 20
2.079566258655875
 30
0.0
 10
-88.44463272597012
 20
2.8987823905542482
 30
0.0
 10
-88.30648089310444
 20
3.6110318399951065
 30
0.0
 10
-88.19804331852491
 20
4.1700877800493945
 30
0.0
 10
-88.12045090353963
 20
4.570119786195365
 30
0.0
 10
-88.05641663419806
 20
4.900252019245518
 30
0.0
 10
-88.00594051050003
 20
5.160484479199847
 30
0.0
 10
-87.89326126024588
 20
5.7414086138431815
 30
0.0
 10
-87.84330227502397
 20
5.998974937654334
 30
0.0
 10
-87.84310344740474
 20
6.000000004491192
 30
0.0
  0
SPLINE
  5
B0
330
17
100
AcDbEntity
  8
HIDDEN
100
AcDbSpline
 70
0
 71
3
 72
14
 73
10
 74
0
 40
0.0
 40
0.0
 40
0.0
 40
0.0
 40
0.4652843865069872
 40
0.4652843865069872
 40
0.4652843865069872
 40
0.7464701780438504
 40
0.7464701780438504
 40
0.7464701780438504
 40
1.0
 40
1.0
 40
1.0
 40
1.0
 10
-87.84310344740474
 20
6.000000004491192
 30
0.0
 10
-87.84364458296591
 20
5.997210150042243
 30
0.0
 10
-87.92523725392157
 20
5.576554602004666
 30
0.0
 10
-88.09070952157273
 20
4.7234531332251
 30
0.0
 10
-88.19071887796889
 20
4.207849340249472
 30
0.0
 10
-88.32367617104522
 20
3.5223806292780773
 30
0.0
 10
-88.48958140080177
 20
2.6670470003109115
 30
0.0
 10
-88.63868211021064
 20
1.8983500095807249
 30
0.0
 10
-88.8177122526767
 20
0.9753501639780099
 30
0.0
 10
-89.00689655172414
 20
1.7985612998927536e-14
 30
0.0
  0
SPLINE
  5
B1
330
17
100
AcDbEntity
  8
HIDDEN
100
AcDbSpline
 70
0
 71
3
 72
14
 73
10
 74
0
 40
0.0
 40
0.0
 40
0.0
 40
0.0
 40
0.4054360577046934
 40
0.4054360577046934
 40
0.4054360577046934
 40
0.5697774450926825
 40
0.5697774450926825
 40
0.5697774450926825
 40
1.0
 40
1.0
 40
1.0
 40
1.0
 10
-86.2176570458404
 20
1.7763568394002505e-14
 30
0.0
 10
-86.35422779374932
 20
-0.8937796724265541
 30
0.0
 10
-86.49328080898513
 20
-1.8038044054691929
 30
0.0
 10
-86.61175401495848
 20
-2.5791457201173027
 30
0.0
 10
-86.65999380403846
 20
-2.8948483397630516
 30
0.0
 10
-86.70490201741545
 20
-3.18874764730772
 30
0.0
 10
-86.74647865508933
 20
-3.460843642751299
 30
0.0
 10
-86.85491386596561
 20
-4.170491856152921
 30
0.0
 10
-86.93942098093589
 20
-4.723543975235821
 30
0.0
 10
-87.0
 20
-5.120000000000001
 30
0.0
  0
SPLINE
  5
B2
330
17
100
AcDbEntity
  8
HIDDEN
100
AcDbSpline
 70
0
 71
3
 72
8
 73
4
 74
0
 40
0.0
 40
0.0
 40
0.0
 40
0.0
 40
0.5479224893185525
 40
0.5479224893185525
 40
0.5479224893185525
 40
0.5479224893185525
 10
-87.0
 20
-5.120000000000003
 30
0.0
 10
-86.60388818154388
 20
-5.64550834581838
 30
0.0
 10
-86.33920359185349
 20
-5.996656568141047
 30
0.0
 10
-86.33668338297768
 20
-6.000000045249584
 30
0.0
  0
SPLINE
  5
B3
330
17
100
AcDbEntity
  8
HIDDEN
100
AcDbSpline
 70
0
 71
2
 72
10
 73
7
 74
0
 40
0.0
 40
0.0
 40
0.0
 40
0.09777039796360809
 40
0.09777039796360809
 40
0.5488851989818039
 40
0.5488851989818039
 40
1.0
 40
1.0
 40
1.0
 10
-86.33668338297767
 20
-6.000000045249583
 30
0.0
 10
-86.33665538593232
 20
-6.000037187996466
 30
0.0
 10
-86.34219516208715
 20
-5.992687751631051
 30
0.0
 10
-86.36549846461068
 20
-5.961772036949886
 30
0.0
 10
-86.5261825758807
 20
-5.748597782664923
 30
0.0
 10
-86.68942771832744
 20
-5.532025893685641
 30
0.0
 10
-87.0
 20
-5.120000000000003
 30
0.0
  0
SPLINE
  5
B4
330
17
100
AcDbEntity
  8
HIDDEN
100
AcDbSpline
 70
0
 71
3
 72
23
 73
19
 74
0
 40
0.0
 40
0.0
 40
0.0
 40
0.0
 40
0.15186022974044508
 40
0.15186022974044508
 40
0.15186022974044508
 40
0.2200651082178999
 40
0.2200651082178999
 40
0.2200651082178999
 40
0.30179006148769133
 40
0.30179006148769133
 40
0.30179006148769133
 40
0.3918008476654063
 40
0.3918008476654063
 40
0.3918008476654063
 40
0.4548329096078602
 40
0.4548329096078602
 40
0.4548329096078602
 40
0.6093477559129054
 40
0.6093477559129054
 40
0.6093477559129054
 40
0.6093477559129054
 10
-87.0
 20
-5.120000000000001
 30
0.0
 10
-86.90983356711182
 20
-4.529910789209833
 30
0.0
 10
-86.7720451424056
 20
-3.6281620986321634
 30
0.0
 10
-86.58271568131019
 20
-2.389105958796726
 30
0.0
 10
-86.49795156050911
 20
-1.8343718793315975
 30
0.0
 10
-86.40281997693961
 20
-1.211788515749169
 30
0.0
 10
-86.30219216116267
 20
-0.5532353658312734
 30
0.0
 10
-86.18182549119902
 20
0.23449761870838948
 30
0.0
 10
-86.05413647902638
 20
1.070151265038916
 30
0.0
 10
-85.93783933591193
 20
1.831251457198435
 30
0.0
 10
-85.80928840017408
 20
2.672545914416351
 30
0.0
 10
-85.69644585716597
 20
3.411037668102951
 30
0.0
 10
-85.6071462640644
 20
3.9954538940674342
 30
0.0
 10
-85.54449094549042
 20
4.4054981456236835
 30
0.0
 10
-85.49212690321316
 20
4.748191711194105
 30
0.0
 10
-85.45005413723243
 20
5.023534590778693
 30
0.0
 10
-85.34674830604398
 20
5.699613863778728
 30
0.0
 10
-85.30109008500727
 20
5.998421554785893
 30
0.0
 10
-85.30084889532806
 20
6.000000007241907
 30
0.0
  0
SPLINE
  5
B5
330
17
100
AcDbEntity
  8
HIDDEN
100
AcDbSpline
 70
0
 71
3
 72
17
 73
13
 74
0
 40
0.0
 40
0.0
 40
0.0
 40
0.0
 40
0.35509092158278693
 40
0.35509092158278693
 40
0.35509092158278693
 40
0.5736263544873607
 40
0.5736263544873607
 40
0.5736263544873607
 40
0.7336977271242027
 40
0.7336977271242027
 40
0.7336977271242027
 40
1.0
 40
1.0
 40
1.0
 40
1.0
 10
-85.30084889532806
 20
6.000000007241907
 30
0.0
 10
-85.30087335574659
 20
5.99983992739151
 30
0.0
 10
-85.33817772454759
 20
5.755703558238869
 30
0.0
 10
-85.41276200173081
 20
5.267590899783965
 30
0.0
 10
-85.4586294068673
 20
4.96741421505704
 30
0.0
 10
-85.51972983086326
 20
4.567545884683926
 30
0.0
 10
-85.59606327371849
 20
4.067985908664625
 30
0.0
 10
-85.65211459821923
 20
3.7011611294323803
 30
0.0
 10
-85.71685080405369
 20
3.277498626803962
 30
0.0
 10
-85.79027189122219
 20
2.796998400779386
 30
0.0
 10
-85.9117590368444
 20
2.0019325255400453
 30
0.0
 10
-86.0604953826581
 20
1.028535773493056
 30
0.0
 10
-86.2176570458404
 20
1.7763568394002505e-14
 30
0.0
  0
SPLINE
  5
B6
330
17
100
AcDbEntity
  8
HIDDEN
100
AcDbSpline
 70
0
 71
3
 72
11
 73
7
 74
0
 40
0.0
 40
0.0
 40
0.0
 40
0.0
 40
0.38867843504290883
 40
0.38867843504290883
 40
0.38867843504290883
 40
1.0
 40
1.0
 40
1.0
 40
1.0
 10
-86.2176570458404
 20
1.7763568394002505e-14
 30
0.0
 10
-86.35761227817508
 20
-0.9159292427235695
 30
0.0
 10
-86.49112476272572
 20
-1.7896942805047498
 30
0.0
 10
-86.60406447840086
 20
-2.5288219753120127
 30
0.0
 10
-86.78254208909004
 20
-3.6968587830447746
 30
0.0
 10
-86.91321948501415
 20
-4.552069740814705
 30
0.0
 10
-87.0
 20
-5.120000000000001
 30
0.0
  0
SPLINE
  5
B7
330
17
100
AcDbEntity
  8
HIDDEN
100
AcDbSpline
 70
0
 71
2
 72
8
 73
5
 74
0
 40
0.0
 40
0.0
 40
0.0
 40
0.24107453477378618
 40
0.24107453477378618
 40
0.45266638722073066
 40
0.45266638722073066
 40
0.45266638722073066
 10
-87.0
 20
-5.120000000000004
 30
0.0
 10
-86.63298526229991
 20
-5.606906218682125
 30
0.0
 10
-86.47204507448431
 20
-5.8204202011841355
 30
0.0
 10
-86.33384076451338
 20
-6.003771252412243
 30
0.0
 10
-86.33668342692859
 20
-5.999999986941401
 30
0.0
  0
SPLINE
  5
B8
330
17
100
AcDbEntity
  8
HIDDEN
100
AcDbSpline
 70
0
 71
3
 72
8
 73
4
 74
0
 40
0.0
 40
0.0
 40
0.0
 40
0.0
 40
1.0
 40
1.0
 40
1.0
 40
1.0
 10
-86.33668342692859
 20
-5.999999986941401
 30
0.0
 10
-86.33926976160541
 20
-5.996568782936812
 30
0.0
 10
-86.60376843687943
 20
-5.645667207073341
 30
0.0
 10
-87.0
 20
-5.120000000000004
 30
0.0
  0
SPLINE
  5
B9
330
17
100
AcDbEntity
  8
HIDDEN
100
AcDbSpline
 70
0
 71
3
 72
23
 73
19
 74
0
 40
0.0
 40
0.0
 40
0.0
 40
0.0
 40
0.09904257466778577
 40
0.09904257466778577
 40
0.09904257466778577
 40
0.15834769214313055
 40
0.15834769214313055
 40
0.15834769214313055
 40
0.23750040806201733
 40
0.23750040806201733
 40
0.23750040806201733
 40
0.3280825286790232
 40
0.3280825286790232
 40
0.3280825286790232
 40
0.4430818981219954
 40
0.4430818981219954
 40
0.4430818981219954
 40
0.6238331031658794
 40
0.6238331031658794
 40
0.6238331031658794
 40
0.6238331031658794
 10
-87.00000000000001
 20
-5.119999999999999
 30
0.0
 10
-86.93859995760643
 20
-4.718170833668901
 30
0.0
 10
-86.85260470440276
 20
-4.155379676591238
 30
0.0
 10
-86.74201424038885
 20
-3.4316265287670102
 30
0.0
 10
-86.67528041104748
 20
-2.994890690077662
 30
0.0
 10
-86.60066643850104
 20
-2.50658369196767
 30
0.0
 10
-86.51817232274928
 20
-1.9667055344370294
 30
0.0
 10
-86.40886685072249
 20
-1.2513619452837206
 30
0.0
 10
-86.28803046195054
 20
-0.4605549120987533
 30
0.0
 10
-86.1717260546038
 20
0.30059282042631663
 30
0.0
 10
-86.0382673512565
 20
1.1740058901098638
 30
0.0
 10
-85.91287900977105
 20
1.9946029249431678
 30
0.0
 10
-85.80670937971547
 20
2.6894241705287047
 30
0.0
 10
-85.67163872106656
 20
3.5733865921311123
 30
0.0
 10
-85.56466827513435
 20
4.273448732732101
 30
0.0
 10
-85.48579804191876
 20
4.789610592331671
 30
0.0
 10
-85.36155672191431
 20
5.602701008805001
 30
0.0
 10
-85.30124450014354
 20
5.9974109935055875
 30
0.0
 10
-85.30084889999245
 20
5.999999976715937
 30
0.0
  0
SPLINE
  5
BA
330
17
100
AcDbEntity
  8
HIDDEN
100
AcDbSpline
 70
0
 71
3
 72
14
 73
10
 74
0
 40
0.0
 40
0.0
 40
0.0
 40
0.0
 40
0.58763419287878
 40
0.58763419287878
 40
0.58763419287878
 40
0.7836454987503719
 40
0.7836454987503719
 40
0.7836454987503719
 40
1.0
 40
1.0
 40
1.0
 40
1.0
 10
-85.30084889999246
 20
5.999999976715937
 30
0.0
 10
-85.3015956180474
 20
5.99511312189006
 30
0.0
 10
-85.3907448042547
 20
5.411681225488332
 30
0.0
 10
-85.60741868289514
 20
3.993671064164086
 30
0.0
 10
-85.67962693908838
 20
3.5211081430769644
 30
0.0
 10
-85.7666417998488
 20
2.9516442209898663
 30
0.0
 10
-85.86546273791878
 20
2.304916081842677
 30
0.0
 10
-85.97420364629728
 20
1.5932672481206644
 30
0.0
 10
-86.09724107918461
 20
0.7880556040032676
 30
0.0
 10
-86.21765704584041
 20
1.7763568394002505e-14
 30
0.0
  0
SPLINE
  5
BB
330
17
100
AcDbEntity
  8
HIDDEN
100
AcDbSpline
 70
0
 71
3
 72
8
 73
4
 74
0
 40
0.0
 40
0.0
 40
0.0
 40
0.0
 40
1.0
 40
1.0
 40
1.0
 40
1.0
 10
-52.85
 20
-10.75
 30
0.0
 10
-53.91443348618063
 20
-10.75160380533122
 30
0.0
 10
-54.97315021692263
 20
-10.501873744947323
 30
0.0
 10
-55.905734054711566
 20
-10.047816239529068
 30
0.0
  0
SPLINE
  5
BC
330
17
100
AcDbEntity
  8
HIDDEN
100
AcDbSpline
 70
0
 71
3
 72
20
 73
16
 74
0
 40
0.0
 40
0.0
 40
0.0
 40
0.0
 40
0.21990738448713992
 40
0.21990738448713992
 40
0.21990738448713992
 40
0.3733061526954653
 40
0.3733061526954653
 40
0.3733061526954653
 40
0.5041005235060145
 40
0.5041005235060145
 40
0.5041005235060145
 40
0.7288928840235056
 40
0.7288928840235056
 40
0.7288928840235056
 40
1.0
 40
1.0
 40
1.0
 40
1.0
 10
-55.90573405471156
 20
-10.047816239529073
 30
0.0
 10
-56.316834243662434
 20
-9.848363301709385
 30
0.0
 10
-56.773819140537526
 20
-9.576998846752149
 30
0.0
 10
-57.236681055215286
 20
-9.205000395950067
 30
0.0
 10
-57.558011191942455
 20
-8.94748862571645
 30
0.0
 10
-57.87239325221768
 20
-8.643908687998792
 30
0.0
 10
-58.138033335083655
 20
-8.336578621046867
 30
0.0
 10
-58.36494065014891
 20
-8.07232620106995
 30
0.0
 10
-58.559457665388855
 20
-7.813833924288838
 30
0.0
 10
-58.72158438080354
 20
-7.561101790703571
 30
0.0
 10
-59.00119072458361
 20
-7.129250787614236
 30
0.0
 10
-59.195827922709626
 20
-6.730422318814896
 30
0.0
 10
-59.34526576609284
 20
-6.359889389959353
 30
0.0
 10
-59.52445934991437
 20
-5.912673284138066
 30
0.0
 10
-59.63757438011914
 20
-5.503877724135915
 30
0.0
 10
-59.71462671964033
 20
-5.120000000000003
 30
0.0
  0
SPLINE
  5
BD
330
17
100
AcDbEntity
  8
HIDDEN
100
AcDbSpline
 70
0
 71
3
 72
8
 73
4
 74
0
 40
0.0
 40
0.0
 40
0.0
 40
0.0
 40
1.0
 40
1.0
 40
1.0
 40
1.0
 10
-59.71462671964033
 20
-5.120000000000001
 30
0.0
 10
-59.79512617396781
 20
-4.715644764712902
 30
0.0
 10
-59.84973967987219
 20
-4.260498136353412
 30
0.0
 10
-59.849999999999994
 20
-3.7500000000000013
 30
0.0
  0
SPLINE
  5
BE
330
17
100
AcDbEntity
  8
HIDDEN
100
AcDbSpline
 70
0
 71
3
 72
8
 73
4
 74
0
 40
0.0
 40
0.0
 40
0.0
 40
0.0
 40
1.0
 40
1.0
 40
1.0
 40
1.0
 10
-50.84986161245103
 20
-10.75
 30
0.0
 10
-51.530156709536485
 20
-10.749999999999998
 30
0.0
 10
-52.21026973062432
 20
-10.75
 30
0.0
 10
-52.85
 20
-10.75
 30
0.0
  0
SPLINE
  5
BF
330
17
100
AcDbEntity
  8
HIDDEN
100
AcDbSpline
 70
0
 71
1
 72
4
 73
2
 74
0
 40
0.0
 40
0.0
 40
1.0
 40
1.0
 10
50.849861612451015
 20
-10.75
 30
0.0
 10
-50.84986161245103
 20
-10.75
 30
0.0
  0
SPLINE
  5
C0
330
17
100
AcDbEntity
  8
HIDDEN
100
AcDbSpline
 70
0
 71
3
 72
8
 73
4
 74
0
 40
0.0
 40
0.0
 40
0.0
 40
0.0
 40
1.0
 40
1.0
 40
1.0
 40
1.0
 10
52.85
 20
-10.75
 30
0.0
 10
52.21026942694934
 20
-10.749999999999998
 30
0.0
 10
51.53015808582411
 20
-10.75
 30
0.0
 10
50.849861612451015
 20
-10.75
 30
0.0
  0
SPLINE
  5
C1
330
17
100
AcDbEntity
  8
HIDDEN
100
AcDbSpline
 70
0
 71
3
 72
8
 73
4
 74
0
 40
0.0
 40
0.0
 40
0.0
 40
0.0
 40
1.0
 40
1.0
 40
1.0
 40
1.0
 10
55.90573405471155
 20
-10.047816239529068
 30
0.0
 10
54.973150064707795
 20
-10.501873805047378
 30
0.0
 10
53.91443350935454
 20
-10.75160378132828
 30
0.0
 10
52.85
 20
-10.75
 30
0.0
  0
SPLINE
  5
C2
330
17
100
AcDbEntity
  8
HIDDEN
100
AcDbSpline
 70
0
 71
3
 72
20
 73
16
 74
0
 40
0.0
 40
0.0
 40
0.0
 40
0.0
 40
0.219192695415979
 40
0.219192695415979
 40
0.219192695415979
 40
0.5554189128469357
 40
0.5554189128469357
 40
0.5554189128469357
 40
0.7105535834406519
 40
0.7105535834406519
 40
0.7105535834406519
 40
0.8099703639143787
 40
0.8099703639143787
 40
0.8099703639143787
 40
1.0
 40
1.0
 40
1.0
 40
1.0
 10
59.71462671964035
 20
-5.120000000000004
 30
0.0
 10
59.65491863789506
 20
-5.429234092353511
 30
0.0
 10
59.56376437839677
 20
-5.7583125003307964
 30
0.0
 10
59.441163941145376
 20
-6.107235223931861
 30
0.0
 10
59.24719282966052
 20
-6.642552984377731
 30
0.0
 10
58.97060007807573
 20
-7.240840103465869
 30
0.0
 10
58.47968099837121
 20
-7.9101312306919365
 30
0.0
 10
58.253797644371275
 20
-8.216570567897987
 30
0.0
 10
57.97614048928928
 20
-8.536650029607182
 30
0.0
 10
57.66493414994897
 20
-8.83098505524817
 30
0.0
 10
57.46410386289768
 20
-9.020709058341549
 30
0.0
 10
57.258526184962406
 20
-9.19416361044307
 30
0.0
 10
57.0482011161433
 20
-9.351348711552712
 30
0.0
 10
56.6488961804813
 20
-9.650406049429114
 30
0.0
 10
56.261596446163054
 20
-9.8750376483723
 30
0.0
 10
55.90573405471156
 20
-10.047816239529075
 30
0.0
  0
SPLINE
  5
C3
330
17
100
AcDbEntity
  8
HIDDEN
100
AcDbSpline
 70
0
 71
3
 72
8
 73
4
 74
0
 40
0.0
 40
0.0
 40
0.0
 40
0.0
 40
1.0
 40
1.0
 40
1.0
 40
1.0
 10
59.71462671964035
 20
-5.120000000000001
 30
0.0
 10
59.79512617396777
 20
-4.715644764712871
 30
0.0
 10
59.84973967987219
 20
-4.260498136353391
 30
0.0
 10
59.85
 20
-3.75
 30
0.0
  0
SPLINE
  5
C4
330
17
100
AcDbEntity
  8
HIDDEN
100
AcDbSpline
 70
0
 71
1
 72
4
 73
2
 74
0
 40
0.0
 40
0.0
 40
1.0
 40
1.0
 10
90.0
 20
-5.12
 30
0.0
 10
82.80000000000001
 20
32.0
 30
0.0
  0
SPLINE
  5
C5
330
17
100
AcDbEntity
  8
HIDDEN
100
AcDbSpline
 70
0
 71
3
 72
14
 73
10
 74
0
 40
0.0
 40
0.0
 40
0.0
 40
0.0
 40
0.09948866617271906
 40
0.09948866617271906
 40
0.09948866617271906
 40
0.2103193631662115
 40
0.2103193631662115
 40
0.2103193631662115
 40
0.3919110937805973
 40
0.3919110937805973
 40
0.3919110937805973
 40
0.3919110937805973
 10
89.00689655172413
 20
-2.020605904817785e-14
 30
0.0
 10
88.81751281919075
 20
0.9763783543941025
 30
0.0
 10
88.63831153342886
 20
1.9002605387668636
 30
0.0
 10
88.4891122522185
 20
2.669465721895757
 30
0.0
 10
88.3223651527628
 20
3.5291396568670548
 30
0.0
 10
88.18892068315088
 20
4.217120033533525
 30
0.0
 10
88.08877884338243
 20
4.733406851895159
 30
0.0
 10
87.92457349431774
 20
5.579976651516844
 30
0.0
 10
87.84361023100756
 20
5.997387253472391
 30
0.0
 10
87.84310343990997
 20
6.000000043130824
 30
0.0
  0
SPLINE
  5
C6
330
17
100
AcDbEntity
  8
HIDDEN
100
AcDbSpline
 70
0
 71
3
 72
23
 73
19
 74
0
 40
0.0
 40
0.0
 40
0.0
 40
0.0
 40
0.23502374288899505
 40
0.23502374288899505
 40
0.23502374288899505
 40
0.3382889250105872
 40
0.3382889250105872
 40
0.3382889250105872
 40
0.48379139178639746
 40
0.48379139178639746
 40
0.48379139178639746
 40
0.6245208497581729
 40
0.6245208497581729
 40
0.6245208497581729
 40
0.7387948301138672
 40
0.7387948301138672
 40
0.7387948301138672
 40
1.0
 40
1.0
 40
1.0
 40
1.0
 10
87.84310343990994
 20
6.000000043130822
 30
0.0
 10
87.84333953778665
 20
5.998782827411592
 30
0.0
 10
87.89391781916379
 20
5.738023687866302
 30
0.0
 10
88.00796774686825
 20
5.150032949479324
 30
0.0
 10
88.05799082447304
 20
4.892136193827973
 30
0.0
 10
88.12115427552423
 20
4.566493512852865
 30
0.0
 10
88.19745810002188
 20
4.173104906554005
 30
0.0
 10
88.30481163674354
 20
3.619637783899573
 30
0.0
 10
88.44127810213502
 20
2.9160773401041604
 30
0.0
 10
88.59830233377866
 20
2.1065301902966604
 30
0.0
 10
88.74963582388446
 20
1.326321974640117
 30
0.0
 10
88.91839234560149
 20
0.456288351565617
 30
0.0
 10
89.07817117084997
 20
-0.3674602586042789
 30
0.0
 10
89.208126572579
 20
-1.0374525519630176
 30
0.0
 10
89.331622148698
 20
-1.6741408555093042
 30
0.0
 10
89.44210707597233
 20
-2.243752036124196
 30
0.0
 10
89.69547779491482
 20
-3.5500188537830426
 30
0.0
 10
89.88040482544649
 20
-4.50342043341291
 30
0.0
 10
89.99999999999999
 20
-5.120000000000001
 30
0.0
  0
SPLINE
  5
C7
330
17
100
AcDbEntity
  8
HIDDEN
100
AcDbSpline
 70
0
 71
3
 72
11
 73
7
 74
0
 40
0.0
 40
0.0
 40
0.0
 40
0.0
 40
0.5671432116630463
 40
0.5671432116630463
 40
0.5671432116630463
 40
1.0
 40
1.0
 40
1.0
 40
1.0
 10
90.0
 20
-5.120000000000001
 30
0.0
 10
89.89776003227946
 20
-4.592896166418687
 30
0.0
 10
89.74207044645657
 20
-3.7902298572870805
 30
0.0
 10
89.53407938711949
 20
-2.717920395816066
 30
0.0
 10
89.37661543826242
 20
-1.9061062594857887
 30
0.0
 10
89.18935748471843
 20
-0.9406874767706701
 30
0.0
 10
89.00689655172414
 20
-2.042810365310288e-14
 30
0.0
  0
SPLINE
  5
C8
330
17
100
AcDbEntity
  8
HIDDEN
100
AcDbSpline
 70
0
 71
3
 72
14
 73
10
 74
0
 40
0.0
 40
0.0
 40
0.0
 40
0.0
 40
0.0900065020470606
 40
0.0900065020470606
 40
0.0900065020470606
 40
0.16436914490882926
 40
0.16436914490882926
 40
0.16436914490882926
 40
0.3742071174269642
 40
0.3742071174269642
 40
0.3742071174269642
 40
0.3742071174269642
 10
89.00689655172415
 20
-2.1316282072803006e-14
 30
0.0
 10
88.83980965321561
 20
0.8614257878662223
 30
0.0
 10
88.66764886317172
 20
1.749010305425907
 30
0.0
 10
88.51847318238843
 20
2.518093815241821
 30
0.0
 10
88.39480982704008
 20
3.155647113927026
 30
0.0
 10
88.28680470190717
 20
3.712473536833891
 30
0.0
 10
88.19804331852578
 20
4.170087780044877
 30
0.0
 10
87.94717438744142
 20
5.463456491413186
 30
0.0
 10
87.84386214788074
 20
5.996088482037039
 30
0.0
 10
87.8431034404883
 20
6.000000040149264
 30
0.0
  0
SPLINE
  5
C9
330
17
100
AcDbEntity
  8
HIDDEN
100
AcDbSpline
 70
0
 71
3
 72
23
 73
19
 74
0
 40
0.0
 40
0.0
 40
0.0
 40
0.0
 40
0.2390071516638971
 40
0.2390071516638971
 40
0.2390071516638971
 40
0.48423560724580567
 40
0.48423560724580567
 40
0.48423560724580567
 40
0.6043008806919655
 40
0.6043008806919655
 40
0.6043008806919655
 40
0.760718324793779
 40
0.760718324793779
 40
0.760718324793779
 40
0.8526459248202332
 40
0.8526459248202332
 40
0.8526459248202332
 40
1.0
 40
1.0
 40
1.0
 40
1.0
 10
87.84310344048829
 20
6.000000040149262
 30
0.0
 10
87.84331288905477
 20
5.998920216428439
 30
0.0
 10
87.89673144528302
 20
5.723517882096677
 30
0.0
 10
88.00335910917269
 20
5.173793037153965
 30
0.0
 10
88.11281345069158
 20
4.609495098656837
 30
0.0
 10
88.28029843578744
 20
3.746016953273485
 30
0.0
 10
88.511327761426
 20
2.554932429981636
 30
0.0
 10
88.62403215765177
 20
1.9738786538847493
 30
0.0
 10
88.75216555217854
 20
1.3132798198793216
 30
0.0
 10
88.88897641534581
 20
0.6079438142171403
 30
0.0
 10
89.06685435247284
 20
-0.309115772748689
 30
0.0
 10
89.25843461194555
 20
-1.2968184438080383
 30
0.0
 10
89.42683202623826
 20
-2.1650006686061753
 30
0.0
 10
89.52648032408949
 20
-2.678743004194444
 30
0.0
 10
89.61660425112971
 20
-3.1433819169356307
 30
0.0
 10
89.69720380735924
 20
-3.5589174068297407
 30
0.0
 10
89.82554783001123
 20
-4.220602145835822
 30
0.0
 10
89.92647989422484
 20
-4.740963010225905
 30
0.0
 10
90.0
 20
-5.120000000000001
 30
0.0
  0
SPLINE
  5
CA
330
17
100
AcDbEntity
  8
HIDDEN
100
AcDbSpline
 70
0
 71
3
 72
11
 73
7
 74
0
 40
0.0
 40
0.0
 40
0.0
 40
0.0
 40
0.6278848852295787
 40
0.6278848852295787
 40
0.6278848852295787
 40
1.0
 40
1.0
 40
1.0
 40
1.0
 10
90.0
 20
-5.120000000000001
 30
0.0
 10
89.88600913563262
 20
-4.532313765928207
 30
0.0
 10
89.71303995337911
 20
-3.6405615374212417
 30
0.0
 10
89.47769249986753
 20
-2.427214665983547
 30
0.0
 10
89.33879982742336
 20
-1.7111457769385638
 30
0.0
 10
89.17690786209468
 20
-0.8765027556879456
 30
0.0
 10
89.00689655172413
 20
-2.1316282072803006e-14
 30
0.0
  0
SPLINE
  5
CB
330
17
100
AcDbEntity
  8
HIDDEN
100
AcDbSpline
 70
0
 71
3
 72
14
 73
10
 74
0
 40
0.0
 40
0.0
 40
0.0
 40
0.0
 40
0.10614036339783706
 40
0.10614036339783706
 40
0.10614036339783706
 40
0.21921338715589994
 40
0.21921338715589994
 40
0.21921338715589994
 40
0.37613723979532526
 40
0.37613723979532526
 40
0.37613723979532526
 40
0.37613723979532526
 10
86.2176570458404
 20
-2.042810365310288e-14
 30
0.0
 10
86.0602917069185
 20
1.0298687180554722
 30
0.0
 10
85.89978016025768
 20
2.080327617868913
 30
0.0
 10
85.76999903945455
 20
2.9296729529032097
 30
0.0
 10
85.6308103710638
 20
3.840585460482124
 30
0.0
 10
85.524162070323
 20
4.538539339775276
 30
0.0
 10
85.45005413723186
 20
5.023534590782659
 30
0.0
 10
85.346748306044
 20
5.699613863778582
 30
0.0
 10
85.30109008500732
 20
5.998421554785611
 30
0.0
 10
85.30084889532804
 20
6.000000007241871
 30
0.0
  0
SPLINE
  5
CC
330
17
100
AcDbEntity
  8
HIDDEN
100
AcDbSpline
 70
0
 71
3
 72
23
 73
19
 74
0
 40
0.0
 40
0.0
 40
0.0
 40
0.0
 40
0.22581853098401183
 40
0.22581853098401183
 40
0.22581853098401183
 40
0.4744432809694397
 40
0.4744432809694397
 40
0.4744432809694397
 40
0.5948345868083997
 40
0.5948345868083997
 40
0.5948345868083997
 40
0.7477502455684458
 40
0.7477502455684458
 40
0.7477502455684458
 40
0.8433873939057692
 40
0.8433873939057692
 40
0.8433873939057692
 40
1.0
 40
1.0
 40
1.0
 40
1.0
 10
85.30084889532803
 20
6.000000007241869
 30
0.0
 10
85.30087335574673
 20
5.999839927391477
 30
0.0
 10
85.33817772454795
 20
5.755703558235771
 30
0.0
 10
85.41276200173222
 20
5.267590899774781
 30
0.0
 10
85.49510033267244
 20
4.728732267288323
 30
0.0
 10
85.62452493490031
 20
3.881720148263446
 30
0.0
 10
85.80740731907962
 20
2.684856545134484
 30
0.0
 10
85.89563697581646
 20
2.1074424582673994
 30
0.0
 10
85.99662190312984
 20
1.446552211739588
 30
0.0
 10
86.10500226316252
 20
0.7372629666363674
 30
0.0
 10
86.24237426713789
 20
-0.16176048160221684
 30
0.0
 10
86.39079274107398
 20
-1.1330769388067221
 30
0.0
 10
86.52220371081025
 20
-1.9930887296355557
 30
0.0
 10
86.60498978641617
 20
-2.5348776022128563
 30
0.0
 10
86.67974810117727
 20
-3.024129239926678
 30
0.0
 10
86.74647865509326
 20
-3.4608436427770046
 30
0.0
 10
86.85491386596772
 20
-4.170491856166225
 30
0.0
 10
86.9394209809366
 20
-4.723543975240561
 30
0.0
 10
87.0
 20
-5.12
 30
0.0
  0
SPLINE
  5
CD
330
17
100
AcDbEntity
  8
HIDDEN
100
AcDbSpline
 70
0
 71
3
 72
8
 73
4
 74
0
 40
0.0
 40
0.0
 40
0.0
 40
0.0
 40
0.5479224893177801
 40
0.5479224893177801
 40
0.5479224893177801
 40
0.5479224893177801
 10
87.0
 20
-5.120000000000003
 30
0.0
 10
86.6038881815439
 20
-5.645508345818395
 30
0.0
 10
86.33920359185342
 20
-5.996656568141108
 30
0.0
 10
86.3366833829777
 20
-6.000000045249616
 30
0.0
  0
SPLINE
  5
CE
330
17
100
AcDbEntity
  8
HIDDEN
100
AcDbSpline
 70
0
 71
2
 72
10
 73
7
 74
0
 40
0.0
 40
0.0
 40
0.0
 40
0.09777039796312179
 40
0.09777039796312179
 40
0.5488851989815609
 40
0.5488851989815609
 40
1.0
 40
1.0
 40
1.0
 10
86.3366833829777
 20
-6.000000045249616
 30
0.0
 10
86.33665538593227
 20
-6.0000371879964955
 30
0.0
 10
86.34219516208711
 20
-5.992687751631113
 30
0.0
 10
86.36549846461054
 20
-5.96177203694999
 30
0.0
 10
86.52618257588063
 20
-5.7485977826650405
 30
0.0
 10
86.68942771832735
 20
-5.532025893685717
 30
0.0
 10
87.0
 20
-5.120000000000003
 30
0.0
  0
SPLINE
  5
CF
330
17
100
AcDbEntity
  8
HIDDEN
100
AcDbSpline
 70
0
 71
3
 72
11
 73
7
 74
0
 40
0.0
 40
0.0
 40
0.0
 40
0.0
 40
0.6161322643367593
 40
0.6161322643367593
 40
0.6161322643367593
 40
1.0
 40
1.0
 40
1.0
 40
1.0
 10
87.0
 20
-5.120000000000001
 30
0.0
 10
86.91254494550823
 20
-4.547655254493075
 30
0.0
 10
86.78046729180483
 20
-3.6832803874784377
 30
0.0
 10
86.59985132438895
 20
-2.501249222945257
 30
0.0
 10
86.48784887812307
 20
-1.7682554357171394
 30
0.0
 10
86.35586658028647
 20
-0.9045046198745298
 30
0.0
 10
86.21765704584041
 20
-2.042810365310288e-14
 30
0.0
  0
SPLINE
  5
D0
330
17
100
AcDbEntity
  8
HIDDEN
100
AcDbSpline
 70
0
 71
3
 72
14
 73
10
 74
0
 40
0.0
 40
0.0
 40
0.0
 40
0.0
 40
0.10416198145386699
 40
0.10416198145386699
 40
0.10416198145386699
 40
0.21533085622154086
 40
0.21533085622154086
 40
0.21533085622154086
 40
0.3906069959206963
 40
0.3906069959206963
 40
0.3906069959206963
 40
0.3906069959206963
 10
86.2176570458404
 20
-2.042810365310288e-14
 30
0.0
 10
86.06029506835726
 20
1.0298467193061733
 30
0.0
 10
85.91138834498638
 20
2.0043584978113396
 30
0.0
 10
85.78981075363168
 20
2.80001629012135
 30
0.0
 10
85.65956911170314
 20
3.6523754800761665
 30
0.0
 10
85.55635931856045
 20
4.327826237421102
 30
0.0
 10
85.48018137420364
 20
4.826368562156154
 30
0.0
 10
85.35977147011566
 20
5.614384490021274
 30
0.0
 10
85.30122179033089
 20
5.997559616611999
 30
0.0
 10
85.30084889999246
 20
5.9999999767158965
 30
0.0
  0
SPLINE
  5
D1
330
17
100
AcDbEntity
  8
HIDDEN
100
AcDbSpline
 70
0
 71
3
 72
23
 73
19
 74
0
 40
0.0
 40
0.0
 40
0.0
 40
0.0
 40
0.17676959747964271
 40
0.17676959747964271
 40
0.17676959747964271
 40
0.3571624814953636
 40
0.3571624814953636
 40
0.3571624814953636
 40
0.5034940446630904
 40
0.5034940446630904
 40
0.5034940446630904
 40
0.6403120853653987
 40
0.6403120853653987
 40
0.6403120853653987
 40
0.7502589949546331
 40
0.7502589949546331
 40
0.7502589949546331
 40
1.0
 40
1.0
 40
1.0
 40
1.0
 10
85.30084889999249
 20
5.999999976715896
 30
0.0
 10
85.30091122744638
 20
5.999592078156592
 30
0.0
 10
85.32340631038996
 20
5.852374257559006
 30
0.0
 10
85.37173963509372
 20
5.5360594992200705
 30
0.0
 10
85.42109732720576
 20
5.21304082528643
 30
0.0
 10
85.49781354046704
 20
4.710975829610326
 30
0.0
 10
85.60741868297067
 20
3.993671063669809
 30
0.0
 10
85.69593570303888
 20
3.4143763434448813
 30
0.0
 10
85.80751689163742
 20
2.6841394536178083
 30
0.0
 10
85.93462879360601
 20
1.8522626729560665
 30
0.0
 10
86.0530568372611
 20
1.0772169205906428
 30
0.0
 10
86.18350559599226
 20
0.22350226622899327
 30
0.0
 10
86.30613600260973
 20
-0.5790456170793741
 30
0.0
 10
86.40484909681183
 20
-1.2250679780235025
 30
0.0
 10
86.49817715135568
 20
-1.835848246094621
 30
0.0
 10
86.58153319715255
 20
-2.3813672569204796
 30
0.0
 10
86.77146482594137
 20
-3.624364249772447
 30
0.0
 10
86.90964835252595
 20
-4.5286986626416645
 30
0.0
 10
87.0
 20
-5.120000000000001
 30
0.0
  0
SPLINE
  5
D2
330
17
100
AcDbEntity
  8
HIDDEN
100
AcDbSpline
 70
0
 71
2
 72
8
 73
5
 74
0
 40
0.0
 40
0.0
 40
0.0
 40
0.24107453477375632
 40
0.24107453477375632
 40
0.45266638722077157
 40
0.45266638722077157
 40
0.45266638722077157
 10
87.0
 20
-5.120000000000004
 30
0.0
 10
86.63298526229994
 20
-5.606906218682093
 30
0.0
 10
86.47204507448431
 20
-5.8204202011841195
 30
0.0
 10
86.3338407645134
 20
-6.003771252412286
 30
0.0
 10
86.33668342692854
 20
-5.999999986941442
 30
0.0
  0
SPLINE
  5
D3
330
17
100
AcDbEntity
  8
HIDDEN
100
AcDbSpline
 70
0
 71
3
 72
8
 73
4
 74
0
 40
0.0
 40
0.0
 40
0.0
 40
0.0
 40
1.0
 40
1.0
 40
1.0
 40
1.0
 10
86.3366834269286
 20
-5.999999986941443
 30
0.0
 10
86.33926976160538
 20
-5.996568782936835
 30
0.0
 10
86.60376843687915
 20
-5.645667207073656
 30
0.0
 10
87.00000000000001
 20
-5.120000000000003
 30
0.0
  0
SPLINE
  5
D4
330
17
100
AcDbEntity
  8
HIDDEN
100
AcDbSpline
 70
0
 71
3
 72
14
 73
10
 74
0
 40
0.0
 40
0.0
 40
0.0
 40
0.0
 40
0.43618884033424254
 40
0.43618884033424254
 40
0.43618884033424254
 40
0.6029899409225059
 40
0.6029899409225059
 40
0.6029899409225059
 40
1.0
 40
1.0
 40
1.0
 40
1.0
 10
87.0
 20
-5.12
 30
0.0
 10
86.93859995760644
 20
-4.71817083366888
 30
0.0
 10
86.85260470440271
 20
-4.155379676591199
 30
0.0
 10
86.74201424038887
 20
-3.431626528766955
 30
0.0
 10
86.69956313157728
 20
-3.15380760554449
 30
0.0
 10
86.65370305063263
 20
-2.8536788535849333
 30
0.0
 10
86.6044339975551
 20
-2.531240272888284
 30
0.0
 10
86.48762352595789
 20
-1.7667806309910852
 30
0.0
 10
86.35142137573605
 20
-0.8754132256503429
 30
0.0
 10
86.21765704584041
 20
-2.042810365310288e-14
 30
0.0
  0
SPLINE
  5
D5
330
17
100
AcDbEntity
  8
HIDDEN
100
AcDbSpline
 70
0
 71
1
 72
4
 73
2
 74
0
 40
0.0
 40
0.0
 40
1.0
 40
1.0
 10
88.74924557076311
 20
-5.12
 30
0.0
 10
81.60535049662124
 20
32.0
 30
0.0
  0
SPLINE
  5
D6
330
17
100
AcDbEntity
  8
HIDDEN
100
AcDbSpline
 70
0
 71
1
 72
4
 73
2
 74
0
 40
0.0
 40
0.0
 40
1.0
 40
1.0
 10
60.30144720925264
 20
-5.12
 30
0.0
 10
55.619769450473335
 20
32.0
 30
0.0
  0
SPLINE
  5
D7
330
17
100
AcDbEntity
  8
HIDDEN
100
AcDbSpline
 70
0
 71
1
 72
4
 73
2
 74
0
 40
0.0
 40
0.0
 40
1.0
 40
1.0
 10
-56.47682123008245
 20
13.737166927351836
 30
0.0
 10
-54.661904132824844
 20
32.000000000000014
 30
0.0
  0
SPLINE
  5
D8
330
17
100
AcDbEntity
  8
HIDDEN
100
AcDbSpline
 70
0
 71
1
 72
4
 73
2
 74
0
 40
0.0
 40
0.0
 40
0.7877758913412566
 40
0.7877758913412566
 10
-85.77759328097316
 20
-5.12
 30
0.0
 10
-80.15190796745442
 20
32.000000000000014
 30
0.0
  0
LINE
  5
D9
330
17
100
AcDbEntity
  8
HIDDEN
100
AcDbLine
 10
-59.714626719640336
 20
-5.12
 30
0.0
 11
-85.77759328097316
 21
-5.12
 31
0.0
  0
SPLINE
  5
DA
330
17
100
AcDbEntity
  8
HIDDEN
100
AcDbSpline
 70
0
 71
1
 72
4
 73
2
 74
0
 40
0.0
 40
0.0
 40
1.0
 40
1.0
 10
56.47682123008245
 20
13.73716692735191
 30
0.0
 10
54.66190413282486
 20
32.000000000000014
 30
0.0
  0
SPLINE
  5
DB
330
17
100
AcDbEntity
  8
HIDDEN
100
AcDbSpline
 70
0
 71
1
 72
4
 73
2
 74
0
 40
0.0
 40
0.0
 40
0.7877758913412566
 40
0.7877758913412566
 10
85.77759328097314
 20
-5.12
 30
0.0
 10
80.15190796745443
 20
32.000000000000014
 30
0.0
  0
LINE
  5
DC
330
17
100
AcDbEntity
  8
HIDDEN
100
AcDbLine
 10
85.77759328097315
 20
-5.12
 30
0.0
 11
59.71462671964032
 21
-5.12
 31
0.0
  0
SPLINE
  5
DD
330
17
100
AcDbEntity
  8
HIDDEN
100
AcDbSpline
 70
0
 71
1
 72
4
 73
2
 74
0
 40
0.0
 40
0.0
 40
0.7877758913412566
 40
0.7877758913412566
 10
87.0
 20
-5.12
 30
0.0
 10
81.32801358234293
 20
32.000000000000014
 30
0.0
  0
SPLINE
  5
DE
330
17
100
AcDbEntity
  8
HIDDEN
100
AcDbSpline
 70
0
 71
1
 72
17
 73
15
 74
0
 40
0.0
 40
0.0
 40
0.07142857142857133
 40
0.14285714285714265
 40
0.214285714285714
 40
0.2857142857142853
 40
0.35714285714285665
 40
0.428571428571428
 40
0.49999999999999933
 40
0.5714285714285706
 40
0.642857142857142
 40
0.7142857142857133
 40
0.7857142857142846
 40
0.857142857142856
 40
0.9285714285714273
 40
1.0
 40
1.0
 10
87.0
 20
-5.12
 30
0.0
 10
86.9935402982145
 20
-5.12
 30
0.0
 10
86.97417510210698
 20
-5.12
 30
0.0
 10
86.94194610947478
 20
-5.12
 30
0.0
 10
86.89692271687831
 20
-5.12
 30
0.0
 10
86.83920187021408
 20
-5.12
 30
0.0
 10
86.76890785596748
 20
-5.12
 30
0.0
 10
86.68619203359502
 20
-5.12
 30
0.0
 10
86.5912325096118
 20
-5.12
 30
0.0
 10
86.48423375408673
 20
-5.12
 30
0.0
 10
86.36542616037049
 20
-5.12
 30
0.0
 10
86.23506554900486
 20
-5.12
 30
0.0
 10
86.09343261688115
 20
-5.12
 30
0.0
 10
85.9408323328342
 20
-5.12
 30
0.0
 10
85.77759328097314
 20
-5.12
 30
0.0
  0
SPLINE
  5
DF
330
17
100
AcDbEntity
  8
HIDDEN
100
AcDbSpline
 70
0
 71
1
 72
4
 73
2
 74
0
 40
0.0
 40
0.0
 40
0.7877758913412565
 40
0.7877758913412565
 10
87.0
 20
-5.12
 30
0.0
 10
81.32801358234296
 20
32.000000000000014
 30
0.0
  0
SPLINE
  5
E0
330
17
100
AcDbEntity
  8
HIDDEN
100
AcDbSpline
 70
0
 71
1
 72
4
 73
2
 74
0
 40
0.0
 40
0.0
 40
0.7877758913412566
 40
0.7877758913412566
 10
85.77759328097316
 20
-5.12
 30
0.0
 10
80.15190796745446
 20
32.000000000000014
 30
0.0
  0
SPLINE
  5
E1
330
17
100
AcDbEntity
  8
HIDDEN
100
AcDbSpline
 70
0
 71
1
 72
17
 73
15
 74
0
 40
0.0
 40
0.0
 40
0.07142857142857141
 40
0.14285714285714282
 40
0.21428571428571422
 40
0.28571428571428564
 40
0.35714285714285704
 40
0.42857142857142844
 40
0.49999999999999983
 40
0.5714285714285713
 40
0.6428571428571427
 40
0.7142857142857141
 40
0.7857142857142855
 40
0.8571428571428569
 40
0.9285714285714283
 40
1.0
 40
1.0
 10
85.77759328097315
 20
-5.12
 30
0.0
 10
85.9408323328342
 20
-5.12
 30
0.0
 10
86.09343261688115
 20
-5.12
 30
0.0
 10
86.23506554900487
 20
-5.12
 30
0.0
 10
86.3654261603705
 20
-5.12
 30
0.0
 10
86.48423375408674
 20
-5.12
 30
0.0
 10
86.59123250961181
 20
-5.12
 30
0.0
 10
86.68619203359502
 20
-5.12
 30
0.0
 10
86.7689078559675
 20
-5.12
 30
0.0
 10
86.83920187021407
 20
-5.12
 30
0.0
 10
86.89692271687831
 20
-5.12
 30
0.0
 10
86.94194610947477
 20
-5.12
 30
0.0
 10
86.97417510210698
 20
-5.12
 30
0.0
 10
86.9935402982145
 20
-5.12
 30
0.0
 10
87.0
 20
-5.12
 30
0.0
  0
SPLINE
  5
E2
330
17
100
AcDbEntity
  8
HIDDEN
100
AcDbSpline
 70
0
 71
1
 72
4
 73
2
 74
0
 40
0.0
 40
0.0
 40
1.0
 40
1.0
 10
56.47682123053242
 20
13.737166922824125
 30
0.0
 10
54.66190413282485
 20
32.00000000000001
 30
0.0
  0
LINE
  5
E3
330
17
100
AcDbEntity
  8
HIDDEN
100
AcDbLine
 10
59.71462671964034
 20
-5.12
 30
0.0
 11
85.77759328097316
 21
-5.12
 31
0.0
  0
SPLINE
  5
E4
330
17
100
AcDbEntity
  8
HIDDEN
100
AcDbSpline
 70
0
 71
3
 72
26
 73
22
 74
0
 40
0.0
 40
0.0
 40
0.0
 40
0.0
 40
0.49583845154674205
 40
0.49583845154674205
 40
0.49583845154674205
 40
0.7469971460214054
 40
0.7469971460214054
 40
0.7469971460214054
 40
0.8726196910195548
 40
0.8726196910195548
 40
0.8726196910195548
 40
0.9338309997429943
 40
0.9338309997429943
 40
0.9338309997429943
 40
0.9660493135541327
 40
0.9660493135541327
 40
0.9660493135541327
 40
0.9830246567770664
 40
0.9830246567770664
 40
0.9830246567770664
 40
1.0
 40
1.0
 40
1.0
 40
1.0
 10
59.85000000000001
 20
-3.7500000000000018
 30
0.0
 10
59.849999999999994
 20
-1.843523667062323
 30
0.0
 10
59.849999999999994
 20
0.0629526658753549
 30
0.0
 10
59.85000000000001
 20
1.9694289988130338
 30
0.0
 10
59.84999999999997
 20
2.934481470613469
 30
0.0
 10
59.85000000000002
 20
3.899533942413911
 30
0.0
 10
59.85000000000001
 20
4.8645864142143465
 30
0.0
 10
59.849999999999994
 20
5.347112497944557
 30
0.0
 10
59.85
 20
5.829638581674762
 30
0.0
 10
59.849999999999994
 20
6.312164665404971
 30
0.0
 10
59.84999999999999
 20
6.547241438455522
 30
0.0
 10
59.850000000000016
 20
6.78231821150608
 30
0.0
 10
59.84999999999997
 20
7.017394984556629
 30
0.0
 10
59.84999999999998
 20
7.141119592192802
 30
0.0
 10
59.849999999999994
 20
7.264844199828975
 30
0.0
 10
59.85000000000001
 20
7.388568807465152
 30
0.0
 10
59.85
 20
7.450622344290727
 30
0.0
 10
59.849999999999994
 20
7.512341991433671
 30
0.0
 10
59.85
 20
7.573727748893981
 30
0.0
 10
59.85
 20
7.635870920837105
 30
0.0
 10
59.85
 20
7.704770214787382
 30
0.0
 10
59.85
 20
7.75
 30
0.0
  0
SPLINE
  5
E5
330
17
100
AcDbEntity
  8
HIDDEN
100
AcDbSpline
 70
0
 71
3
 72
20
 73
16
 74
0
 40
0.0
 40
0.0
 40
0.0
 40
0.0
 40
0.24731199677049376
 40
0.24731199677049376
 40
0.24731199677049376
 40
0.5091563132947247
 40
0.5091563132947247
 40
0.5091563132947247
 40
0.7049381390244557
 40
0.7049381390244557
 40
0.7049381390244557
 40
0.8037753594581152
 40
0.8037753594581152
 40
0.8037753594581152
 40
1.0
 40
1.0
 40
1.0
 40
1.0
 10
56.47682123053243
 20
13.737166922824128
 30
0.0
 10
56.80834007924273
 20
13.539264998797886
 30
0.0
 10
57.14160588921465
 20
13.294555089483211
 30
0.0
 10
57.476618660448075
 20
13.003037194880095
 30
0.0
 10
57.83060410304339
 20
12.690247657453432
 30
0.0
 10
58.18691052174719
 20
12.317222757546002
 30
0.0
 10
58.53477280218298
 20
11.834526678522327
 30
0.0
 10
58.793809966587105
 20
11.473100714352043
 30
0.0
 10
59.05020272599993
 20
11.04770977069991
 30
0.0
 10
59.27708627183557
 20
10.52354683652223
 30
0.0
 10
59.3927099752446
 20
10.258389962952549
 30
0.0
 10
59.4952792794492
 20
9.970056303534166
 30
0.0
 10
59.58479418444925
 20
9.6585458582671
 30
0.0
 10
59.76248841372815
 20
9.041773802125286
 30
0.0
 10
59.852905045815824
 20
8.350507330566765
 30
0.0
 10
59.85
 20
7.75
 30
0.0
  0
SPLINE
  5
E6
330
17
100
AcDbEntity
  8
HIDDEN
100
AcDbSpline
 70
0
 71
3
 72
11
 73
7
 74
0
 40
0.0
 40
0.0
 40
0.0
 40
0.0
 40
0.6273926679822213
 40
0.6273926679822213
 40
0.6273926679822213
 40
1.0
 40
1.0
 40
1.0
 40
1.0
 10
56.476821230532416
 20
13.737166922824121
 30
0.0
 10
55.96149939858599
 20
14.04911891253493
 30
0.0
 10
55.291985366612806
 20
14.364598890570997
 30
0.0
 10
54.465260611628615
 20
14.561088984628022
 30
0.0
 10
53.97540379473409
 20
14.677488377499929
 30
0.0
 10
53.42906490703673
 20
14.750177258246914
 30
0.0
 10
52.85
 20
14.75
 30
0.0
  0
SPLINE
  5
E7
330
17
100
AcDbEntity
  8
HIDDEN
100
AcDbSpline
 70
0
 71
2
 72
6
 73
3
 74
0
 40
0.0
 40
0.0
 40
0.0
 40
1.0
 40
1.0
 40
1.0
 10
52.85
 20
14.75
 30
0.0
 10
52.21925942506742
 20
14.75
 30
0.0
 10
51.57379043519233
 20
14.75
 30
0.0
  0
SPLINE
  5
E8
330
17
100
AcDbEntity
  8
HIDDEN
100
AcDbSpline
 70
0
 71
1
 72
4
 73
2
 74
0
 40
0.0
 40
0.0
 40
1.0
 40
1.0
 10
51.573790435192315
 20
14.75
 30
0.0
 10
-51.57379043519233
 20
14.75
 30
0.0
  0
SPLINE
  5
E9
330
17
100
AcDbEntity
  8
HIDDEN
100
AcDbSpline
 70
0
 71
1
 72
4
 73
2
 74
0
 40
0.0
 40
0.0
 40
1.0
 40
1.0
 10
-56.476821230532416
 20
13.737166922824128
 30
0.0
 10
-54.66190413282485
 20
32.00000000000001
 30
0.0
  0
SPLINE
  5
EA
330
17
100
AcDbEntity
  8
HIDDEN
100
AcDbSpline
 70
0
 71
2
 72
6
 73
3
 74
0
 40
0.0
 40
0.0
 40
0.0
 40
1.0
 40
1.0
 40
1.0
 10
-51.57379043519233
 20
14.75
 30
0.0
 10
-52.21925937502522
 20
14.75
 30
0.0
 10
-52.85
 20
14.75
 30
0.0
  0
SPLINE
  5
EB
330
17
100
AcDbEntity
  8
HIDDEN
100
AcDbSpline
 70
0
 71
3
 72
11
 73
7
 74
0
 40
0.0
 40
0.0
 40
0.0
 40
0.0
 40
0.3734739516400547
 40
0.3734739516400547
 40
0.3734739516400547
 40
1.0
 40
1.0
 40
1.0
 40
1.0
 10
-52.85
 20
14.75
 30
0.0
 10
-53.430416077032774
 20
14.750178335141479
 30
0.0
 10
-53.977937459687
 20
14.677148698508898
 30
0.0
 10
-54.468682086778124
 20
14.560276668531436
 30
0.0
 10
-55.293841378836014
 20
14.363722555536786
 30
0.0
 10
-55.96220753704557
 20
14.048690668134956
 30
0.0
 10
-56.47682123053243
 20
13.737166922824121
 30
0.0
  0
SPLINE
  5
EC
330
17
100
AcDbEntity
  8
HIDDEN
100
AcDbSpline
 70
0
 71
1
 72
4
 73
2
 74
0
 40
0.0
 40
0.0
 40
0.7877758913412566
 40
0.7877758913412566
 10
-85.77759328097316
 20
-5.12
 30
0.0
 10
-80.15190796745443
 20
32.000000000000014
 30
0.0
  0
SPLINE
  5
ED
330
17
100
AcDbEntity
  8
HIDDEN
100
AcDbSpline
 70
0
 71
3
 72
20
 73
16
 74
0
 40
0.0
 40
0.0
 40
0.0
 40
0.0
 40
0.2080286432642707
 40
0.2080286432642707
 40
0.2080286432642707
 40
0.34004521244662766
 40
0.34004521244662766
 40
0.34004521244662766
 40
0.4762702706955596
 40
0.4762702706955596
 40
0.4762702706955596
 40
0.7428813536116803
 40
0.7428813536116803
 40
0.7428813536116803
 40
1.0
 40
1.0
 40
1.0
 40
1.0
 10
-59.85000000000001
 20
7.75
 30
0.0
 10
-59.85370309906773
 20
8.38653890049282
 30
0.0
 10
-59.75008968361658
 20
9.125538537061297
 30
0.0
 10
-59.55251361135202
 20
9.768987689323707
 30
0.0
 10
-59.42933285358073
 20
10.177950872731387
 30
0.0
 10
-59.277551922338404
 20
10.54604574265122
 30
0.0
 10
-59.11637838879857
 20
10.869695800618725
 30
0.0
 10
-58.948349477980656
 20
11.202234915717288
 30
0.0
 10
-58.7737282740195
 20
11.496649457039961
 30
0.0
 10
-58.592514776915166
 20
11.752939424586735
 30
0.0
 10
-58.239629606864405
 20
12.257491489941133
 30
0.0
 10
-57.876759893554265
 20
12.644291685038642
 30
0.0
 10
-57.51637018133434
 20
12.967757116880167
 30
0.0
 10
-57.168322080993434
 20
13.27866166912596
 30
0.0
 10
-56.821175977863525
 20
13.528274883319332
 30
0.0
 10
-56.47682123053242
 20
13.737166922824127
 30
0.0
  0
SPLINE
  5
EE
330
17
100
AcDbEntity
  8
HIDDEN
100
AcDbSpline
 70
0
 71
3
 72
26
 73
22
 74
0
 40
0.0
 40
0.0
 40
0.0
 40
0.0
 40
0.49583845154670175
 40
0.49583845154670175
 40
0.49583845154670175
 40
0.746997146021326
 40
0.746997146021326
 40
0.746997146021326
 40
0.8726196910194643
 40
0.8726196910194643
 40
0.8726196910194643
 40
0.933830999742898
 40
0.933830999742898
 40
0.933830999742898
 40
0.9660493135542073
 40
0.9660493135542073
 40
0.9660493135542073
 40
0.9830246567771037
 40
0.9830246567771037
 40
0.9830246567771037
 40
1.0
 40
1.0
 40
1.0
 40
1.0
 10
-59.85
 20
-3.7500000000000018
 30
0.0
 10
-59.849999999999966
 20
-1.8435236670623179
 30
0.0
 10
-59.85000000000001
 20
0.0629526658753645
 30
0.0
 10
-59.85
 20
1.9694289988130487
 30
0.0
 10
-59.849999999999994
 20
2.934481470613427
 30
0.0
 10
-59.85000000000001
 20
3.8995339424138
 30
0.0
 10
-59.85
 20
4.864586414214179
 30
0.0
 10
-59.85000000000001
 20
5.347112497944325
 30
0.0
 10
-59.85000000000001
 20
5.829638581674474
 30
0.0
 10
-59.85
 20
6.312164665404623
 30
0.0
 10
-59.849999999999966
 20
6.547241438455127
 30
0.0
 10
-59.85000000000001
 20
6.782318211505645
 30
0.0
 10
-59.85
 20
7.017394984556152
 30
0.0
 10
-59.84999999999998
 20
7.14111959219242
 30
0.0
 10
-59.84999999999999
 20
7.264844199828688
 30
0.0
 10
-59.850000000000016
 20
7.388568807464963
 30
0.0
 10
-59.85
 20
7.450622344290396
 30
0.0
 10
-59.849999999999994
 20
7.512341991433309
 30
0.0
 10
-59.85
 20
7.573727748893681
 30
0.0
 10
-59.85
 20
7.635870920836808
 30
0.0
 10
-59.85
 20
7.704770214786956
 30
0.0
 10
-59.85
 20
7.750000000000001
 30
0.0
  0
LINE
  5
EF
330
17
100
AcDbEntity
  8
HIDDEN
100
AcDbLine
 10
-85.77759328097315
 20
-5.12
 30
0.0
 11
-59.714626719640236
 21
-5.12
 31
0.0
  0
SPLINE
  5
F0
330
17
100
AcDbEntity
  8
HIDDEN
100
AcDbSpline
 70
0
 71
1
 72
4
 73
2
 74
0
 40
0.0
 40
0.0
 40
0.7877758913412566
 40
0.7877758913412566
 10
-87.0
 20
-5.12
 30
0.0
 10
-81.32801358234295
 20
32.000000000000014
 30
0.0
  0
SPLINE
  5
F1
330
17
100
AcDbEntity
  8
HIDDEN
100
AcDbSpline
 70
0
 71
1
 72
17
 73
15
 74
0
 40
0.0
 40
0.0
 40
0.07142857142857172
 40
0.14285714285714343
 40
0.21428571428571516
 40
0.28571428571428686
 40
0.3571428571428586
 40
0.4285714285714303
 40
0.500000000000002
 40
0.5714285714285737
 40
0.6428571428571455
 40
0.7142857142857172
 40
0.7857142857142889
 40
0.8571428571428606
 40
0.9285714285714324
 40
1.0
 40
1.0
 10
-87.0
 20
-5.12
 30
0.0
 10
-86.9935402982145
 20
-5.12
 30
0.0
 10
-86.97417510210698
 20
-5.12
 30
0.0
 10
-86.94194610947478
 20
-5.12
 30
0.0
 10
-86.89692271687831
 20
-5.12
 30
0.0
 10
-86.83920187021408
 20
-5.12
 30
0.0
 10
-86.76890785596748
 20
-5.12
 30
0.0
 10
-86.68619203359502
 20
-5.12
 30
0.0
 10
-86.5912325096118
 20
-5.12
 30
0.0
 10
-86.48423375408673
 20
-5.12
 30
0.0
 10
-86.36542616037049
 20
-5.12
 30
0.0
 10
-86.23506554900486
 20
-5.12
 30
0.0
 10
-86.09343261688115
 20
-5.12
 30
0.0
 10
-85.94083233283422
 20
-5.12
 30
0.0
 10
-85.77759328097315
 20
-5.12
 30
0.0
  0
SPLINE
  5
F2
330
17
100
AcDbEntity
  8
HIDDEN
100
AcDbSpline
 70
0
 71
1
 72
4
 73
2
 74
0
 40
0.0
 40
0.0
 40
0.7877758913412566
 40
0.7877758913412566
 10
-87.0
 20
-5.12
 30
0.0
 10
-81.32801358234295
 20
32.000000000000014
 30
0.0
  0
SPLINE
  5
F3
330
17
100
AcDbEntity
  8
HIDDEN
100
AcDbSpline
 70
0
 71
1
 72
17
 73
15
 74
0
 40
0.0
 40
0.0
 40
0.07142857142857133
 40
0.14285714285714265
 40
0.214285714285714
 40
0.2857142857142853
 40
0.35714285714285665
 40
0.428571428571428
 40
0.49999999999999933
 40
0.5714285714285706
 40
0.642857142857142
 40
0.7142857142857133
 40
0.7857142857142846
 40
0.857142857142856
 40
0.9285714285714273
 40
1.0
 40
1.0
 10
-85.77759328097312
 20
-5.12
 30
0.0
 10
-85.94083233283419
 20
-5.12
 30
0.0
 10
-86.09343261688113
 20
-5.12
 30
0.0
 10
-86.23506554900484
 20
-5.12
 30
0.0
 10
-86.36542616037049
 20
-5.12
 30
0.0
 10
-86.48423375408673
 20
-5.12
 30
0.0
 10
-86.5912325096118
 20
-5.12
 30
0.0
 10
-86.68619203359503
 20
-5.12
 30
0.0
 10
-86.76890785596748
 20
-5.12
 30
0.0
 10
-86.83920187021407
 20
-5.12
 30
0.0
 10
-86.89692271687831
 20
-5.12
 30
0.0
 10
-86.94194610947477
 20
-5.12
 30
0.0
 10
-86.97417510210698
 20
-5.12
 30
0.0
 10
-86.9935402982145
 20
-5.12
 30
0.0
 10
-87.0
 20
-5.12
 30
0.0
  0
SPLINE
  5
F4
330
17
100
AcDbEntity
  8
HIDDEN
100
AcDbSpline
 70
0
 71
1
 72
4
 73
2
 74
0
 40
0.0
 40
0.0
 40
1.0
 40
1.0
 10
-69.00000000000001
 20
-29.0
 30
0.0
 10
-87.0
 20
-5.12
 30
0.0
  0
SPLINE
  5
F5
330
17
100
AcDbEntity
  8
HIDDEN
100
AcDbSpline
 70
0
 71
1
 72
4
 73
2
 74
0
 40
0.0
 40
0.0
 40
1.0
 40
1.0
 10
-69.0
 20
-29.0
 30
0.0
 10
-87.0
 20
-5.12
 30
0.0
  0
SPLINE
  5
F6
330
17
100
AcDbEntity
  8
HIDDEN
100
AcDbSpline
 70
0
 71
2
 72
26
 73
23
 74
0
 40
0.0
 40
0.0
 40
0.0
 40
0.2142857142857145
 40
0.2142857142857145
 40
0.3571428571428575
 40
0.3571428571428575
 40
0.428571428571429
 40
0.428571428571429
 40
0.5000000000000004
 40
0.5000000000000004
 40
0.571428571428572
 40
0.571428571428572
 40
0.6428571428571435
 40
0.6428571428571435
 40
0.714285714285715
 40
0.714285714285715
 40
0.7857142857142865
 40
0.7857142857142865
 40
0.857142857142858
 40
0.857142857142858
 40
0.9285714285714289
 40
0.9285714285714289
 40
1.0
 40
1.0
 40
1.0
 10
-42.02196083495955
 20
-29.0
 30
0.0
 10
-42.58336602818635
 20
-29.0
 30
0.0
 10
-43.13436082625321
 20
-29.0
 30
0.0
 10
-43.49912737045067
 20
-29.0
 30
0.0
 10
-43.85336375599867
 20
-29.0
 30
0.0
 10
-44.02724033570425
 20
-28.999999999999996
 30
0.0
 10
-44.20111691540983
 20
-29.0
 30
0.0
 10
-44.37001081897945
 20
-29.0
 30
0.0
 10
-44.53890472254907
 20
-29.0
 30
0.0
 10
-44.70204359261891
 20
-28.999999999999996
 30
0.0
 10
-44.86518246268874
 20
-29.0
 30
0.0
 10
-45.021820259852035
 20
-29.0
 30
0.0
 10
-45.17845805701534
 20
-29.0
 30
0.0
 10
-45.32787847148509
 20
-28.999999999999996
 30
0.0
 10
-45.47729888595486
 20
-29.0
 30
0.0
 10
-45.61881861327199
 20
-29.0
 30
0.0
 10
-45.76033834058913
 20
-29.0
 30
0.0
 10
-45.893310206396194
 20
-28.999999999999996
 30
0.0
 10
-46.02628207220326
 20
-29.0
 30
0.0
 10
-46.15009799179401
 20
-29.0
 30
0.0
 10
-46.273913911384774
 20
-29.0
 30
0.0
 10
-46.38800767049551
 20
-28.999999999999996
 30
0.0
 10
-46.50210142960626
 20
-29.0
 30
0.0
  0
SPLINE
  5
F7
330
17
100
AcDbEntity
  8
HIDDEN
100
AcDbSpline
 70
0
 71
1
 72
4
 73
2
 74
0
 40
0.0
 40
0.0
 40
0.793642536033121
 40
0.793642536033121
 10
-46.50210142960627
 20
-29.0
 30
0.0
 10
-55.90573405471155
 20
-10.047816239529071
 30
0.0
  0
SPLINE
  5
F8
330
17
100
AcDbEntity
  8
HIDDEN
100
AcDbSpline
 70
0
 71
1
 72
4
 73
2
 74
0
 40
0.0
 40
0.0
 40
1.0
 40
1.0
 10
-67.9601405946467
 20
-29.0
 30
0.0
 10
-85.77759328097316
 20
-5.12
 30
0.0
  0
LINE
  5
F9
330
17
100
AcDbEntity
  8
HIDDEN
100
AcDbLine
 10
-67.96014059464672
 20
-29.0
 30
0.0
 11
-46.50210142960627
 21
-29.0
 31
0.0
  0
LINE
  5
FA
330
17
100
AcDbEntity
  8
HIDDEN
100
AcDbLine
 10
-42.02196083495955
 20
-29.0
 30
0.0
 11
42.021960834959565
 21
-29.0
 31
0.0
  0
SPLINE
  5
FB
330
17
100
AcDbEntity
  8
HIDDEN
100
AcDbSpline
 70
0
 71
2
 72
26
 73
23
 74
0
 40
0.0
 40
0.0
 40
0.0
 40
0.07142857142857142
 40
0.07142857142857142
 40
0.14285714285714285
 40
0.14285714285714285
 40
0.21428571428571427
 40
0.21428571428571427
 40
0.2857142857142857
 40
0.2857142857142857
 40
0.35714285714285715
 40
0.35714285714285715
 40
0.42857142857142855
 40
0.42857142857142855
 40
0.5
 40
0.5
 40
0.5714285714285714
 40
0.5714285714285714
 40
0.6428571428571429
 40
0.6428571428571429
 40
0.7857142857142857
 40
0.7857142857142857
 40
1.0
 40
1.0
 40
1.0
 10
46.50210142960627
 20
-29.0
 30
0.0
 10
46.388007670495526
 20
-29.0
 30
0.0
 10
46.27391391138478
 20
-29.0
 30
0.0
 10
46.15009799179401
 20
-28.999999999999996
 30
0.0
 10
46.02628207220326
 20
-29.0
 30
0.0
 10
45.8933102063962
 20
-29.0
 30
0.0
 10
45.76033834058913
 20
-29.0
 30
0.0
 10
45.618818613272
 20
-28.999999999999996
 30
0.0
 10
45.477298885954866
 20
-29.0
 30
0.0
 10
45.32787847148511
 20
-29.0
 30
0.0
 10
45.17845805701535
 20
-29.0
 30
0.0
 10
45.02182025985204
 20
-28.999999999999996
 30
0.0
 10
44.86518246268875
 20
-29.0
 30
0.0
 10
44.702043592618914
 20
-29.0
 30
0.0
 10
44.53890472254908
 20
-29.0
 30
0.0
 10
44.37001081897946
 20
-28.999999999999996
 30
0.0
 10
44.20111691540984
 20
-29.0
 30
0.0
 10
44.02724033570427
 20
-29.0
 30
0.0
 10
43.85336375599868
 20
-29.0
 30
0.0
 10
43.499127370450665
 20
-29.0
 30
0.0
 10
43.134360826253214
 20
-29.0
 30
0.0
 10
42.583366028186354
 20
-29.0
 30
0.0
 10
42.02196083495956
 20
-29.0
 30
0.0
  0
SPLINE
  5
FC
330
17
100
AcDbEntity
  8
HIDDEN
100
AcDbSpline
 70
0
 71
1
 72
4
 73
2
 74
0
 40
0.0
 40
0.0
 40
0.7936425360331212
 40
0.7936425360331212
 10
46.502101429606284
 20
-29.0
 30
0.0
 10
55.905734054711566
 20
-10.047816239529066
 30
0.0
  0
SPLINE
  5
FD
330
17
100
AcDbEntity
  8
HIDDEN
100
AcDbSpline
 70
0
 71
1
 72
4
 73
2
 74
0
 40
0.0
 40
0.0
 40
1.0
 40
1.0
 10
67.96014059464673
 20
-29.0
 30
0.0
 10
85.77759328097316
 20
-5.12
 30
0.0
  0
LINE
  5
FE
330
17
100
AcDbEntity
  8
HIDDEN
100
AcDbLine
 10
46.50210142960628
 20
-29.0
 30
0.0
 11
67.96014059464673
 21
-29.0
 31
0.0
  0
SPLINE
  5
FF
330
17
100
AcDbEntity
  8
HIDDEN
100
AcDbSpline
 70
0
 71
1
 72
4
 73
2
 74
0
 40
0.0
 40
0.0
 40
1.0
 40
1.0
 10
69.0
 20
-29.000000000000004
 30
0.0
 10
87.0
 20
-5.12
 30
0.0
  0
SPLINE
  5
100
330
17
100
AcDbEntity
  8
HIDDEN
100
AcDbSpline
 70
0
 71
1
 72
4
 73
2
 74
0
 40
0.0
 40
0.0
 40
1.0
 40
1.0
 10
69.0
 20
-29.0
 30
0.0
 10
87.0
 20
-5.12
 30
0.0
  0
LINE
  5
101
330
17
100
AcDbEntity
  8
HIDDEN
100
AcDbLine
 10
-46.502101429606235
 20
-29.0
 30
0.0
 11
-67.96014059464673
 21
-29.0
 31
0.0
  0
SPLINE
  5
102
330
17
100
AcDbEntity
  8
HIDDEN
100
AcDbSpline
 70
0
 71
1
 72
4
 73
2
 74
0
 40
0.0
 40
0.0
 40
1.0
 40
1.0
 10
-67.96014059464673
 20
-29.0
 30
0.0
 10
-85.77759328097316
 20
-5.12
 30
0.0
  0
SPLINE
  5
103
330
17
100
AcDbEntity
  8
HIDDEN
100
AcDbSpline
 70
0
 71
1
 72
4
 73
2
 74
0
 40
0.0
 40
0.0
 40
0.7936425360334662
 40
0.7936425360334662
 10
-46.502101429606235
 20
-29.0
 30
0.0
 10
-55.905734054715616
 20
-10.047816239520825
 30
0.0
  0
SPLINE
  5
104
330
17
100
AcDbEntity
  8
HIDDEN
100
AcDbSpline
 70
0
 71
2
 72
26
 73
23
 74
0
 40
0.0
 40
0.0
 40
0.0
 40
0.0714285714285713
 40
0.0714285714285713
 40
0.1428571428571426
 40
0.1428571428571426
 40
0.21428571428571389
 40
0.21428571428571389
 40
0.2857142857142852
 40
0.2857142857142852
 40
0.3571428571428565
 40
0.3571428571428565
 40
0.42857142857142777
 40
0.42857142857142777
 40
0.49999999999999906
 40
0.49999999999999906
 40
0.5714285714285704
 40
0.5714285714285704
 40
0.6428571428571417
 40
0.6428571428571417
 40
0.7857142857142843
 40
0.7857142857142843
 40
1.0
 40
1.0
 40
1.0
 10
-46.50210142960623
 20
-29.0
 30
0.0
 10
-46.38800767049548
 20
-29.000000000000004
 30
0.0
 10
-46.273913911384724
 20
-29.0
 30
0.0
 10
-46.15009799179397
 20
-28.999999999999996
 30
0.0
 10
-46.026282072203216
 20
-29.0
 30
0.0
 10
-45.893310206396144
 20
-29.000000000000004
 30
0.0
 10
-45.76033834058909
 20
-29.0
 30
0.0
 10
-45.61881861327196
 20
-28.999999999999996
 30
0.0
 10
-45.47729888595482
 20
-29.0
 30
0.0
 10
-45.327878471485064
 20
-29.000000000000004
 30
0.0
 10
-45.178458057015305
 20
-29.0
 30
0.0
 10
-45.02182025985201
 20
-28.999999999999996
 30
0.0
 10
-44.86518246268871
 20
-29.0
 30
0.0
 10
-44.702043592618864
 20
-29.000000000000004
 30
0.0
 10
-44.538904722549034
 20
-29.0
 30
0.0
 10
-44.370010818979424
 20
-28.999999999999996
 30
0.0
 10
-44.2011169154098
 20
-29.0
 30
0.0
 10
-44.02724033570422
 20
-29.000000000000004
 30
0.0
 10
-43.853363755998636
 20
-29.0
 30
0.0
 10
-43.49912737045065
 20
-29.0
 30
0.0
 10
-43.13436082625318
 20
-29.0
 30
0.0
 10
-42.58336602818632
 20
-29.0
 30
0.0
 10
-42.02196083495952
 20
-29.0
 30
0.0
  0
LINE
  5
105
330
17
100
AcDbEntity
  8
HIDDEN
100
AcDbLine
 10
42.021960834959536
 20
-29.0
 30
0.0
 11
-42.02196083495952
 21
-29.0
 31
0.0
  0
SPLINE
  5
106
330
17
100
AcDbEntity
  8
HIDDEN
100
AcDbSpline
 70
0
 71
3
 72
38
 73
34
 74
0
 40
0.0
 40
0.0
 40
0.0
 40
0.0
 40
0.27054837942813925
 40
0.27054837942813925
 40
0.27054837942813925
 40
0.3381854742851741
 40
0.3381854742851741
 40
0.3381854742851741
 40
0.40582256914220893
 40
0.40582256914220893
 40
0.40582256914220893
 40
0.4734596639992438
 40
0.4734596639992438
 40
0.4734596639992438
 40
0.5410967588562786
 40
0.5410967588562786
 40
0.5410967588562786
 40
0.6087338537133135
 40
0.6087338537133135
 40
0.6087338537133135
 40
0.6763709485703483
 40
0.6763709485703483
 40
0.6763709485703483
 40
0.7440080434273831
 40
0.7440080434273831
 40
0.7440080434273831
 40
0.811645138284418
 40
0.811645138284418
 40
0.811645138284418
 40
0.8792822331414528
 40
0.8792822331414528
 40
0.8792822331414528
 40
0.9469193279984873
 40
0.9469193279984873
 40
0.9469193279984873
 40
0.9469193279984873
 10
42.02196083495954
 20
-29.0
 30
0.0
 10
42.51999484367393
 20
-28.999999999999993
 30
0.0
 10
43.01636186192333
 20
-29.0
 30
0.0
 10
43.49723553092619
 20
-29.0
 30
0.0
 10
43.615944939283665
 20
-28.99999999999999
 30
0.0
 10
43.73465434764117
 20
-29.000000000000007
 30
0.0
 10
43.85336375599866
 20
-29.0
 30
0.0
 10
43.96928147580236
 20
-29.000000000000004
 30
0.0
 10
44.08519919560611
 20
-29.0
 30
0.0
 10
44.2011169154098
 20
-28.999999999999993
 30
0.0
 10
44.313712851122936
 20
-29.000000000000025
 30
0.0
 10
44.426308786835946
 20
-28.99999999999999
 30
0.0
 10
44.53890472254905
 20
-29.0
 30
0.0
 10
44.64766396926229
 20
-28.999999999999996
 30
0.0
 10
44.75642321597547
 20
-28.999999999999993
 30
0.0
 10
44.865182462688736
 20
-29.000000000000007
 30
0.0
 10
44.9696076607976
 20
-29.000000000000018
 30
0.0
 10
45.07403285890645
 20
-28.999999999999982
 30
0.0
 10
45.17845805701532
 20
-29.0
 30
0.0
 10
45.27807166666184
 20
-28.999999999999996
 30
0.0
 10
45.37768527630831
 20
-28.999999999999993
 30
0.0
 10
45.477298885954845
 20
-29.000000000000007
 30
0.0
 10
45.571645370832954
 20
-29.000000000000018
 30
0.0
 10
45.665991855710985
 20
-28.999999999999982
 30
0.0
 10
45.7603383405891
 20
-29.0
 30
0.0
 10
45.84898625112716
 20
-28.999999999999996
 30
0.0
 10
45.93763416166518
 20
-28.999999999999993
 30
0.0
 10
46.026282072203244
 20
-29.000000000000007
 30
0.0
 10
46.1088260185971
 20
-29.000000000000018
 30
0.0
 10
46.19136996499088
 20
-28.999999999999982
 30
0.0
 10
46.27391391138475
 20
-29.0
 30
0.0
 10
46.34997641745859
 20
-28.999999999999993
 30
0.0
 10
46.426038923532396
 20
-29.000000000000004
 30
0.0
 10
46.50210142960624
 20
-29.0
 30
0.0
  0
SPLINE
  5
107
330
17
100
AcDbEntity
  8
HIDDEN
100
AcDbSpline
 70
0
 71
1
 72
4
 73
2
 74
0
 40
0.0
 40
0.0
 40
0.79364253603328
 40
0.79364253603328
 10
46.50210142960624
 20
-29.0
 30
0.0
 10
55.90573405471342
 20
-10.047816239525272
 30
0.0
  0
LINE
  5
108
330
17
100
AcDbEntity
  8
HIDDEN
100
AcDbLine
 10
67.96014059464673
 20
-29.0
 30
0.0
 11
46.50210142960624
 21
-29.0
 31
0.0
  0
SPLINE
  5
109
330
17
100
AcDbEntity
  8
HIDDEN
100
AcDbSpline
 70
0
 71
1
 72
4
 73
2
 74
0
 40
0.0
 40
0.0
 40
1.0
 40
1.0
 10
67.96014059464675
 20
-29.000000000000004
 30
0.0
 10
85.77759328097314
 20
-5.12
 30
0.0
  0
SPLINE
  5
10A
330
17
100
AcDbEntity
  8
HIDDEN
100
AcDbSpline
 70
0
 71
1
 72
17
 73
15
 74
0
 40
0.0
 40
0.0
 40
0.07142857142857136
 40
0.1428571428571427
 40
0.21428571428571425
 40
0.28571428571428575
 40
0.3571428571428573
 40
0.4285714285714288
 40
0.5000000000000003
 40
0.5714285714285718
 40
0.6428571428571435
 40
0.714285714285715
 40
0.7857142857142865
 40
0.857142857142858
 40
0.9285714285714295
 40
1.0
 40
1.0
 10
67.9601405946467
 20
-29.0
 30
0.0
 10
68.09934687825427
 20
-29.0
 30
0.0
 10
68.22938144620498
 20
-29.0
 30
0.0
 10
68.3499861147958
 20
-29.0
 30
0.0
 10
68.46092142339381
 20
-29.0
 30
0.0
 10
68.56196710988542
 20
-29.0
 30
0.0
 10
68.65292254800693
 20
-29.0
 30
0.0
 10
68.7336071456881
 20
-29.0
 30
0.0
 10
68.8038607036178
 20
-29.0
 30
0.0
 10
68.8635437333198
 20
-29.0
 30
0.0
 10
68.91253773410725
 20
-29.0
 30
0.0
 10
68.95074542836579
 20
-29.0
 30
0.0
 10
68.97809095469836
 20
-29.0
 30
0.0
 10
68.99452001854809
 20
-29.0
 30
0.0
 10
69.0
 20
-29.0
 30
0.0
  0
SPLINE
  5
10B
330
17
100
AcDbEntity
  8
HIDDEN
100
AcDbSpline
 70
0
 71
1
 72
17
 73
15
 74
0
 40
0.0
 40
0.0
 40
0.07142857142857154
 40
0.14285714285714307
 40
0.21428571428571458
 40
0.28571428571428614
 40
0.35714285714285765
 40
0.42857142857142916
 40
0.5000000000000007
 40
0.5714285714285723
 40
0.6428571428571438
 40
0.7142857142857153
 40
0.7857142857142868
 40
0.8571428571428583
 40
0.9285714285714299
 40
1.0
 40
1.0
 10
69.0
 20
-29.0
 30
0.0
 10
68.99452001854809
 20
-29.0
 30
0.0
 10
68.97809095469836
 20
-29.0
 30
0.0
 10
68.95074542836579
 20
-29.0
 30
0.0
 10
68.91253773410725
 20
-29.0
 30
0.0
 10
68.8635437333198
 20
-29.0
 30
0.0
 10
68.8038607036178
 20
-29.0
 30
0.0
 10
68.7336071456881
 20
-29.0
 30
0.0
 10
68.65292254800693
 20
-29.0
 30
0.0
 10
68.56196710988542
 20
-29.0
 30
0.0
 10
68.46092142339381
 20
-29.0
 30
0.0
 10
68.34998611479581
 20
-29.0
 30
0.0
 10
68.22938144620497
 20
-29.0
 30
0.0
 10
68.09934687825427
 20
-29.0
 30
0.0
 10
67.96014059464673
 20
-29.0
 30
0.0
  0
SPLINE
  5
10C
330
17
100
AcDbEntity
  8
HIDDEN
100
AcDbSpline
 70
0
 71
1
 72
17
 73
15
 74
0
 40
0.0
 40
0.0
 40
0.07142857142857072
 40
0.14285714285714285
 40
0.214285714285715
 40
0.28571428571428714
 40
0.35714285714285926
 40
0.42857142857143143
 40
0.5000000000000036
 40
0.5714285714285757
 40
0.6428571428571478
 40
0.71428571428572
 40
0.7857142857142921
 40
0.8571428571428643
 40
0.9285714285714364
 40
1.0
 40
1.0
 10
-67.96014059464672
 20
-29.0
 30
0.0
 10
-68.09934687825425
 20
-29.0
 30
0.0
 10
-68.22938144620498
 20
-29.0
 30
0.0
 10
-68.3499861147958
 20
-29.0
 30
0.0
 10
-68.46092142339381
 20
-29.0
 30
0.0
 10
-68.5619671098854
 20
-29.0
 30
0.0
 10
-68.65292254800691
 20
-29.0
 30
0.0
 10
-68.73360714568807
 20
-29.0
 30
0.0
 10
-68.8038607036178
 20
-29.0
 30
0.0
 10
-68.8635437333198
 20
-29.0
 30
0.0
 10
-68.91253773410725
 20
-29.0
 30
0.0
 10
-68.95074542836579
 20
-29.0
 30
0.0
 10
-68.97809095469836
 20
-29.0
 30
0.0
 10
-68.99452001854809
 20
-29.0
 30
0.0
 10
-69.0
 20
-29.0
 30
0.0
  0
SPLINE
  5
10D
330
17
100
AcDbEntity
  8
HIDDEN
100
AcDbSpline
 70
0
 71
1
 72
17
 73
15
 74
0
 40
0.0
 40
0.0
 40
0.07142857142857215
 40
0.1428571428571443
 40
0.2142857142857164
 40
0.2857142857142886
 40
0.3571428571428607
 40
0.4285714285714328
 40
0.500000000000005
 40
0.5714285714285772
 40
0.6428571428571492
 40
0.7142857142857214
 40
0.7857142857142936
 40
0.8571428571428656
 40
0.9285714285714378
 40
1.0
 40
1.0
 10
-69.0
 20
-29.0
 30
0.0
 10
-68.99452001854809
 20
-29.0
 30
0.0
 10
-68.97809095469836
 20
-29.0
 30
0.0
 10
-68.95074542836576
 20
-29.0
 30
0.0
 10
-68.91253773410725
 20
-29.0
 30
0.0
 10
-68.8635437333198
 20
-29.0
 30
0.0
 10
-68.80386070361779
 20
-29.0
 30
0.0
 10
-68.73360714568807
 20
-29.0
 30
0.0
 10
-68.6529225480069
 20
-29.0
 30
0.0
 10
-68.5619671098854
 20
-29.0
 30
0.0
 10
-68.46092142339381
 20
-29.0
 30
0.0
 10
-68.3499861147958
 20
-29.0
 30
0.0
 10
-68.22938144620497
 20
-29.0
 30
0.0
 10
-68.09934687825424
 20
-29.0
 30
0.0
 10
-67.96014059464673
 20
-29.0
 30
0.0
  0
LINE
  5
10E
330
17
100
AcDbEntity
  8
HIDDEN
100
AcDbLine
 10
-85.30084889532806
 20
6.0000000000000195
 30
0.0
 11
-87.84310344740473
 21
6.0000000000000195
 31
0.0
  0
LINE
  5
10F
330
17
100
AcDbEntity
  8
HIDDEN
100
AcDbLine
 10
-86.3366833829777
 20
-5.9999999999999805
 30
0.0
 11
-89.4107142674582
 21
-5.99999999999998
 31
0.0
  0
LINE
  5
110
330
17
100
AcDbEntity
  8
HIDDEN
100
AcDbLine
 10
-85.30084889999247
 20
6.0000000000000195
 30
0.0
 11
-87.84310343990997
 21
6.0000000000000195
 31
0.0
  0
LINE
  5
111
330
17
100
AcDbEntity
  8
HIDDEN
100
AcDbLine
 10
-86.3366834269286
 20
-5.9999999999999805
 30
0.0
 11
-89.41071426533415
 21
-5.99999999999998
 31
0.0
  0
LINE
  5
112
330
17
100
AcDbEntity
  8
HIDDEN
100
AcDbLine
 10
87.84310344048829
 20
5.9999999999999805
 30
0.0
 11
85.30084889532806
 21
5.999999999999981
 31
0.0
  0
LINE
  5
113
330
17
100
AcDbEntity
  8
HIDDEN
100
AcDbLine
 10
89.41071426745819
 20
-6.0000000000000195
 30
0.0
 11
86.33668338297768
 21
-6.000000000000019
 31
0.0
  0
LINE
  5
114
330
17
100
AcDbEntity
  8
HIDDEN
100
AcDbLine
 10
87.84310343990997
 20
5.9999999999999805
 30
0.0
 11
85.30084889999247
 21
5.999999999999981
 31
0.0
  0
LINE
  5
115
330
17
100
AcDbEntity
  8
HIDDEN
100
AcDbLine
 10
89.41071426533412
 20
-6.0000000000000195
 30
0.0
 11
86.33668342692857
 21
-6.000000000000019
 31
0.0
  0
SPLINE
  5
116
330
17
100
AcDbEntity
  8
HIDDEN
100
AcDbSpline
 70
0
 71
1
 72
4
 73
2
 74
0
 40
0.0
 40
0.0
 40
1.0
 40
1.0
 10
-43.88579649452863
 20
-32.0
 30
0.0
 10
-55.55220163848952
 20
-5.12
 30
0.0
  0
SPLINE
  5
117
330
17
100
AcDbEntity
  8
HIDDEN
100
AcDbSpline
 70
0
 71
1
 72
4
 73
2
 74
0
 40
0.0
 40
0.0
 40
1.0
 40
1.0
 10
43.88579649452864
 20
-32.0
 30
0.0
 10
55.55220163848954
 20
-5.12
 30
0.0
  0
SPLINE
  5
118
330
17
100
AcDbEntity
  8
HIDDEN
100
AcDbSpline
 70
0
 71
1
 72
4
 73
2
 74
0
 40
0.0
 40
0.0
 40
1.0
 40
1.0
 10
-55.55220163848952
 20
-5.12
 30
0.0
 10
-50.81441895385202
 20
32.0
 30
0.0
  0
SPLINE
  5
119
330
17
100
AcDbEntity
  8
HIDDEN
100
AcDbSpline
 70
0
 71
1
 72
4
 73
2
 74
0
 40
0.0
 40
0.0
 40
1.0
 40
1.0
 10
55.55220163848954
 20
-5.12
 30
0.0
 10
50.814418953852055
 20
32.0
 30
0.0
  0
SPLINE
  5
11A
330
17
100
AcDbEntity
  8
HIDDEN
100
AcDbSpline
 70
0
 71
1
 72
4
 73
2
 74
0
 40
0.0
 40
0.0
 40
1.0
 40
1.0
 10
-51.57379043519233
 20
14.750000000000002
 30
0.0
 10
-49.83800974771337
 20
32.000000000000014
 30
0.0
  0
SPLINE
  5
11B
330
17
100
AcDbEntity
  8
HIDDEN
100
AcDbSpline
 70
0
 71
1
 72
4
 73
2
 74
0
 40
0.0
 40
0.0
 40
1.0
 40
1.0
 10
51.57379043519232
 20
14.750000000000002
 30
0.0
 10
49.83800974771337
 20
32.000000000000014
 30
0.0
  0
SPLINE
  5
11C
330
17
100
AcDbEntity
  8
HIDDEN
100
AcDbSpline
 70
0
 71
1
 72
4
 73
2
 74
0
 40
0.0
 40
0.0
 40
1.0
 40
1.0
 10
51.573790435192315
 20
14.750000000000002
 30
0.0
 10
49.83800974771335
 20
32.000000000000014
 30
0.0
  0
SPLINE
  5
11D
330
17
100
AcDbEntity
  8
HIDDEN
100
AcDbSpline
 70
0
 71
1
 72
4
 73
2
 74
0
 40
0.0
 40
0.0
 40
1.0
 40
1.0
 10
-51.57379043519233
 20
14.750000000000002
 30
0.0
 10
-49.83800974771335
 20
32.000000000000014
 30
0.0
  0
SPLINE
  5
11E
330
17
100
AcDbEntity
  8
HIDDEN
100
AcDbSpline
 70
0
 71
1
 72
4
 73
2
 74
0
 40
0.0
 40
0.0
 40
0.7642378559463988
 40
0.7642378559463988
 10
-42.02196083495954
 20
-29.0
 30
0.0
 10
-50.84986161245103
 20
-10.749999999999996
 30
0.0
  0
SPLINE
  5
11F
330
17
100
AcDbEntity
  8
HIDDEN
100
AcDbSpline
 70
0
 71
1
 72
4
 73
2
 74
0
 40
0.0
 40
0.0
 40
0.7642378559463988
 40
0.7642378559463988
 10
42.021960834959565
 20
-29.0
 30
0.0
 10
50.849861612451015
 20
-10.749999999999996
 30
0.0
  0
SPLINE
  5
120
330
17
100
AcDbEntity
  8
HIDDEN
100
AcDbSpline
 70
0
 71
1
 72
4
 73
2
 74
0
 40
0.0
 40
0.0
 40
0.7642378559463987
 40
0.7642378559463987
 10
-42.02196083495952
 20
-29.0
 30
0.0
 10
-50.849861612451
 20
-10.75
 30
0.0
  0
SPLINE
  5
121
330
17
100
AcDbEntity
  8
HIDDEN
100
AcDbSpline
 70
0
 71
1
 72
4
 73
2
 74
0
 40
0.0
 40
0.0
 40
0.7642378559463987
 40
0.7642378559463987
 10
42.02196083495954
 20
-29.0
 30
0.0
 10
50.849861612451
 20
-10.75
 30
0.0
  0
ENDSEC
  0
SECTION
  2
OBJECTS
  0
DICTIONARY
  5
A
330
0
100
AcDbDictionary
281
1
  3
ACAD_COLOR
350
B
  3
ACAD_GROUP
350
C
  3
ACAD_LAYOUT
350
D
  3
ACAD_MATERIAL
350
E
  3
ACAD_MLEADERSTYLE
350
F
  3
ACAD_MLINESTYLE
350
10
  3
ACAD_PLOTSETTINGS
350
11
  3
ACAD_PLOTSTYLENAME
350
12
  3
ACAD_SCALELIST
350
14
  3
ACAD_TABLESTYLE
350
15
  3
ACAD_VISUALSTYLE
350
16
  3
EZDXF_META
350
2D
  0
DICTIONARY
  5
B
330
A
100
AcDbDictionary
281
1
  0
DICTIONARY
  5
C
330
A
100
AcDbDictionary
281
1
  0
DICTIONARY
  5
D
330
A
100
AcDbDictionary
281
1
  3
Model
350
1A
  3
Layout1
350
1E
  0
DICTIONARY
  5
E
330
A
100
AcDbDictionary
281
1
  3
ByBlock
350
1F
  3
ByLayer
350
20
  3
Global
350
21
  0
DICTIONARY
  5
F
330
A
100
AcDbDictionary
281
1
  3
Standard
350
2C
  0
DICTIONARY
  5
10
330
A
100
AcDbDictionary
281
1
  3
Standard
350
22
  0
DICTIONARY
  5
11
330
A
100
AcDbDictionary
281
1
  0
ACDBDICTIONARYWDFLT
  5
12
330
A
100
AcDbDictionary
281
1
  3
Normal
350
13
100
AcDbDictionaryWithDefault
340
13
  0
ACDBPLACEHOLDER
  5
13
330
12
  0
DICTIONARY
  5
14
330
A
100
AcDbDictionary
281
1
  0
DICTIONARY
  5
15
330
A
100
AcDbDictionary
281
1
  0
DICTIONARY
  5
16
330
A
100
AcDbDictionary
281
1
  0
LAYOUT
  5
1A
330
D
100
AcDbPlotSettings
  1

  4
A3
  6

 40
7.5
 41
20.0
 42
7.5
 43
20.0
 44
420.0
 45
297.0
 46
0.0
 47
0.0
 48
0.0
 49
0.0
140
0.0
141
0.0
142
1.0
143
1.0
 70
1024
 72
1
 73
0
 74
5
  7

 75
16
 76
0
 77
2
 78
300
147
1.0
148
0.0
149
0.0
100
AcDbLayout
  1
Model
 70
1
 71
0
 10
0.0
 20
0.0
 11
420.0
 21
297.0
 12
0.0
 22
0.0
 32
0.0
 14
1e+20
 24
1e+20
 34
1e+20
 15
-1e+20
 25
-1e+20
 35
-1e+20
146
0.0
 13
0.0
 23
0.0
 33
0.0
 16
1.0
 26
0.0
 36
0.0
 17
0.0
 27
1.0
 37
0.0
 76
1
330
17
  0
LAYOUT
  5
1E
330
D
100
AcDbPlotSettings
  1

  4
A3
  6

 40
7.5
 41
20.0
 42
7.5
 43
20.0
 44
420.0
 45
297.0
 46
0.0
 47
0.0
 48
0.0
 49
0.0
140
0.0
141
0.0
142
1.0
143
1.0
 70
0
 72
1
 73
0
 74
5
  7

 75
16
 76
0
 77
2
 78
300
147
1.0
148
0.0
149
0.0
100
AcDbLayout
  1
Layout1
 70
1
 71
1
 10
0.0
 20
0.0
 11
420.0
 21
297.0
 12
0.0
 22
0.0
 32
0.0
 14
1e+20
 24
1e+20
 34
1e+20
 15
-1e+20
 25
-1e+20
 35
-1e+20
146
0.0
 13
0.0
 23
0.0
 33
0.0
 16
1.0
 26
0.0
 36
0.0
 17
0.0
 27
1.0
 37
0.0
 76
1
330
1B
  0
MATERIAL
  5
1F
102
{ACAD_REACTORS
330
E
102
}
330
E
100
AcDbMaterial
  1
ByBlock
  2

 70
0
 40
1.0
 71
1
 41
1.0
 91
-1023410177
 42
1.0
 72
1
  3

 73
1
 74
1
 75
1
 44
0.5
 73
0
 45
1.0
 46
1.0
 77
1
  4

 78
1
 79
1
170
1
 48
1.0
171
1
  6

172
1
173
1
174
1
140
1.0
141
1.0
175
1
  7

176
1
177
1
178
1
143
1.0
179
1
  8

270
1
271
1
272
1
145
1.0
146
1.0
273
1
  9

274
1
275
1
276
1
 42
1.0
 72
1
  3

 73
1
 74
1
 75
1
 94
63
  0
MATERIAL
  5
20
102
{ACAD_REACTORS
330
E
102
}
330
E
100
AcDbMaterial
  1
ByLayer
  2

 70
0
 40
1.0
 71
1
 41
1.0
 91
-1023410177
 42
1.0
 72
1
  3

 73
1
 74
1
 75
1
 44
0.5
 73
0
 45
1.0
 46
1.0
 77
1
  4

 78
1
 79
1
170
1
 48
1.0
171
1
  6

172
1
173
1
174
1
140
1.0
141
1.0
175
1
  7

176
1
177
1
178
1
143
1.0
179
1
  8

270
1
271
1
272
1
145
1.0
146
1.0
273
1
  9

274
1
275
1
276
1
 42
1.0
 72
1
  3

 73
1
 74
1
 75
1
 94
63
  0
MATERIAL
  5
21
102
{ACAD_REACTORS
330
E
102
}
330
E
100
AcDbMaterial
  1
Global
  2

 70
0
 40
1.0
 71
1
 41
1.0
 91
-1023410177
 42
1.0
 72
1
  3

 73
1
 74
1
 75
1
 44
0.5
 73
0
 45
1.0
 46
1.0
 77
1
  4

 78
1
 79
1
170
1
 48
1.0
171
1
  6

172
1
173
1
174
1
140
1.0
141
1.0
175
1
  7

176
1
177
1
178
1
143
1.0
179
1
  8

270
1
271
1
272
1
145
1.0
146
1.0
273
1
  9

274
1
275
1
276
1
 42
1.0
 72
1
  3

 73
1
 74
1
 75
1
 94
63
  0
MLINESTYLE
  5
22
102
{ACAD_REACTORS
330
10
102
}
330
10
100
AcDbMlineStyle
  2
Standard
 70
0
  3

 62
256
 51
90.0
 52
90.0
 71
2
 49
0.5
 62
256
  6
BYLAYER
 49
-0.5
 62
256
  6
BYLAYER
  0
MLEADERSTYLE
  5
2C
102
{ACAD_REACTORS
330
F
102
}
330
F
100
AcDbMLeaderStyle
179
2
170
2
171
1
172
0
 90
2
 40
0.0
 41
0.0
173
1
 91
-1056964608
 92
-2
290
1
 42
2.0
291
1
 43
8.0
  3
Standard
 44
4.0
300

342
29
174
1
175
1
176
0
178
1
 93
-1056964608
 45
4.0
292
0
297
0
 46
4.0
 94
-1056964608
 47
1.0
 49
1.0
140
1.0
294
1
141
0.0
177
0
142
1.0
295
0
296
0
143
3.75
271
0
272
9
273
9
  0
DICTIONARY
  5
2D
330
A
100
AcDbDictionary
280
1
281
1
  3
CREATED_BY_EZDXF
350
2E
  3
WRITTEN_BY_EZDXF
350
125
  0
DICTIONARYVAR
  5
2E
330
2D
100
DictionaryVariables
280
0
  1
1.4.4 @ 2026-10-05T07:37:17.482828+00:00
  0
DICTIONARYVAR
  5
125
330
2D
100
DictionaryVariables
280
0
  1
1.4.4 @ 2026-10-05T07:37:18.821830+00:00
  0
ENDSEC
  0
EOF
