  0
SECTION
  2
HEADER
  9
$ACADVER
  1
AC1027
  9
$ACADMAINTVER
 70
105
  9
$DWGCODEPAGE
  3
ANSI_1252
  9
$LASTSAVEDBY
  1
ezdxf
  9
$REQUIREDVERSIONS
160
0
  9
$INSBASE
 10
0.0
 20
0.0
 30
0.0
  9
$EXTMIN
 10
1e+20
 20
1e+20
 30
1e+20
  9
$EXTMAX
 10
-1e+20
 20
-1e+20
 30
-1e+20
  9
$LIMMIN
 10
0.0
 20
0.0
  9
$LIMMAX
 10
420.0
 20
297.0
  9
$ORTHOMODE
 70
0
  9
$REGENMODE
 70
1
  9
$FILLMODE
 70
1
  9
$QTEXTMODE
 70
0
  9
$MIRRTEXT
 70
1
  9
$LTSCALE
 40
1.0
  9
$ATTMODE
 70
1
  9
$TEXTSIZE
 40
2.5
  9
$TRACEWID
 40
1.0
  9
$TEXTSTYLE
  7
Standard
  9
$CLAYER
  8
0
  9
$CELTYPE
  6
ByLayer
  9
$CECOLOR
 62
256
  9
$CELTSCALE
 40
1.0
  9
$DISPSILH
 70
0
  9
$DIMSCALE
 40
1.0
  9
$DIMASZ
 40
2.5
  9
$DIMEXO
 40
0.625
  9
$DIMDLI
 40
3.75
  9
$DIMRND
 40
0.0
  9
$DIMDLE
 40
0.0
  9
$DIMEXE
 40
1.25
  9
$DIMTP
 40
0.0
  9
$DIMTM
 40
0.0
  9
$DIMTXT
 40
2.5
  9
$DIMCEN
 40
2.5
  9
$DIMTSZ
 40
0.0
  9
$DIMTOL
 70
0
  9
$DIMLIM
 70
0
  9
$DIMTIH
 70
0
  9
$DIMTOH
 70
0
  9
$DIMSE1
 70
0
  9
$DIMSE2
 70
0
  9
$DIMTAD
 70
1
  9
$DIMZIN
 70
8
  9
$DIMBLK
  1

  9
$DIMASO
 70
1
  9
$DIMSHO
 70
1
  9
$DIMPOST
  1

  9
$DIMAPOST
  1

  9
$DIMALT
 70
0
  9
$DIMALTD
 70
3
  9
$DIMALTF
 40
0.03937007874
  9
$DIMLFAC
 40
1.0
  9
$DIMTOFL
 70
1
  9
$DIMTVP
 40
0.0
  9
$DIMTIX
 70
0
  9
$DIMSOXD
 70
0
  9
$DIMSAH
 70
0
  9
$DIMBLK1
  1

  9
$DIMBLK2
  1

  9
$DIMSTYLE
  2
ISO-25
  9
$DIMCLRD
 70
0
  9
$DIMCLRE
 70
0
  9
$DIMCLRT
 70
0
  9
$DIMTFAC
 40
1.0
  9
$DIMGAP
 40
0.625
  9
$DIMJUST
 70
0
  9
$DIMSD1
 70
0
  9
$DIMSD2
 70
0
  9
$DIMTOLJ
 70
0
  9
$DIMTZIN
 70
8
  9
$DIMALTZ
 70
0
  9
$DIMALTTZ
 70
0
  9
$DIMUPT
 70
0
  9
$DIMDEC
 70
2
  9
$DIMTDEC
 70
2
  9
$DIMALTU
 70
2
  9
$DIMALTTD
 70
3
  9
$DIMTXSTY
  7
Standard
  9
$DIMAUNIT
 70
0
  9
$DIMADEC
 70
0
  9
$DIMALTRND
 40
0.0
  9
$DIMAZIN
 70
0
  9
$DIMDSEP
 70
44
  9
$DIMATFIT
 70
3
  9
$DIMFRAC
 70
0
  9
$DIMLDRBLK
  1

  9
$DIMLUNIT
 70
2
  9
$DIMLWD
 70
-2
  9
$DIMLWE
 70
-2
  9
$DIMTMOVE
 70
0
  9
$DIMFXL
 40
1.0
  9
$DIMFXLON
 70
0
  9
$DIMJOGANG
 40
0.785398163397
  9
$DIMTFILL
 70
0
  9
$DIMTFILLCLR
 70
0
  9
$DIMARCSYM
 70
0
  9
$DIMLTYPE
  6

  9
$DIMLTEX1
  6

  9
$DIMLTEX2
  6

  9
$DIMTXTDIRECTION
 70
0
  9
$LUNITS
 70
2
  9
$LUPREC
 70
4
  9
$SKETCHINC
 40
1.0
  9
$FILLETRAD
 40
10.0
  9
$AUNITS
 70
0
  9
$AUPREC
 70
2
  9
$MENU
  1
.
  9
$ELEVATION
 40
0.0
  9
$PELEVATION
 40
0.0
  9
$THICKNESS
 40
0.0
  9
$LIMCHECK
 70
0
  9
$CHAMFERA
 40
0.0
  9
$CHAMFERB
 40
0.0
  9
$CHAMFERC
 40
0.0
  9
$CHAMFERD
 40
0.0
  9
$SKPOLY
 70
0
  9
$TDCREATE
 40
2461319.6092476854
  9
$TDUCREATE
 40
2458532.153996898
  9
$TDUPDATE
 40
2461319.6092592594
  9
$TDUUPDATE
 40
2458532.1544311
  9
$TDINDWG
 40
0.0
  9
$TDUSRTIMER
 40
0.0
  9
$USRTIMER
 70
1
  9
$ANGBASE
 50
0.0
  9
$ANGDIR
 70
0
  9
$PDMODE
 70
0
  9
$PDSIZE
 40
0.0
  9
$PLINEWID
 40
0.0
  9
$SPLFRAME
 70
0
  9
$SPLINETYPE
 70
6
  9
$SPLINESEGS
 70
8
  9
$HANDSEED
  5
173
  9
$SURFTAB1
 70
6
  9
$SURFTAB2
 70
6
  9
$SURFTYPE
 70
6
  9
$SURFU
 70
6
  9
$SURFV
 70
6
  9
$UCSBASE
  2

  9
$UCSNAME
  2

  9
$UCSORG
 10
0.0
 20
0.0
 30
0.0
  9
$UCSXDIR
 10
1.0
 20
0.0
 30
0.0
  9
$UCSYDIR
 10
0.0
 20
1.0
 30
0.0
  9
$UCSORTHOREF
  2

  9
$UCSORTHOVIEW
 70
0
  9
$UCSORGTOP
 10
0.0
 20
0.0
 30
0.0
  9
$UCSORGBOTTOM
 10
0.0
 20
0.0
 30
0.0
  9
$UCSORGLEFT
 10
0.0
 20
0.0
 30
0.0
  9
$UCSORGRIGHT
 10
0.0
 20
0.0
 30
0.0
  9
$UCSORGFRONT
 10
0.0
 20
0.0
 30
0.0
  9
$UCSORGBACK
 10
0.0
 20
0.0
 30
0.0
  9
$PUCSBASE
  2

  9
$PUCSNAME
  2

  9
$PUCSORG
 10
0.0
 20
0.0
 30
0.0
  9
$PUCSXDIR
 10
1.0
 20
0.0
 30
0.0
  9
$PUCSYDIR
 10
0.0
 20
1.0
 30
0.0
  9
$PUCSORTHOREF
  2

  9
$PUCSORTHOVIEW
 70
0
  9
$PUCSORGTOP
 10
0.0
 20
0.0
 30
0.0
  9
$PUCSORGBOTTOM
 10
0.0
 20
0.0
 30
0.0
  9
$PUCSORGLEFT
 10
0.0
 20
0.0
 30
0.0
  9
$PUCSORGRIGHT
 10
0.0
 20
0.0
 30
0.0
  9
$PUCSORGFRONT
 10
0.0
 20
0.0
 30
0.0
  9
$PUCSORGBACK
 10
0.0
 20
0.0
 30
0.0
  9
$USERI1
 70
0
  9
$USERI2
 70
0
  9
$USERI3
 70
0
  9
$USERI4
 70
0
  9
$USERI5
 70
0
  9
$USERR1
 40
0.0
  9
$USERR2
 40
0.0
  9
$USERR3
 40
0.0
  9
$USERR4
 40
0.0
  9
$USERR5
 40
0.0
  9
$WORLDVIEW
 70
1
  9
$SHADEDGE
 70
3
  9
$SHADEDIF
 70
70
  9
$TILEMODE
 70
1
  9
$MAXACTVP
 70
64
  9
$PINSBASE
 10
0.0
 20
0.0
 30
0.0
  9
$PLIMCHECK
 70
0
  9
$PEXTMIN
 10
1e+20
 20
1e+20
 30
1e+20
  9
$PEXTMAX
 10
-1e+20
 20
-1e+20
 30
-1e+20
  9
$PLIMMIN
 10
0.0
 20
0.0
  9
$PLIMMAX
 10
420.0
 20
297.0
  9
$UNITMODE
 70
0
  9
$VISRETAIN
 70
1
  9
$PLINEGEN
 70
0
  9
$PSLTSCALE
 70
1
  9
$TREEDEPTH
 70
3020
  9
$CMLSTYLE
  2
Standard
  9
$CMLJUST
 70
0
  9
$CMLSCALE
 40
20.0
  9
$PROXYGRAPHICS
 70
1
  9
$MEASUREMENT
 70
1
  9
$CELWEIGHT
370
-1
  9
$ENDCAPS
280
0
  9
$JOINSTYLE
280
0
  9
$LWDISPLAY
290
0
  9
$INSUNITS
 70
4
  9
$HYPERLINKBASE
  1

  9
$STYLESHEET
  1

  9
$XEDIT
290
1
  9
$CEPSNTYPE
380
0
  9
$PSTYLEMODE
290
1
  9
$FINGERPRINTGUID
  2
{BF96A297-70FD-441A-9992-B4B715AF9BAD}
  9
$VERSIONGUID
  2
{9D92B156-4CA5-4792-8498-1545C476E971}
  9
$EXTNAMES
290
1
  9
$PSVPSCALE
 40
0.0
  9
$OLESTARTUP
290
0
  9
$SORTENTS
280
127
  9
$INDEXCTL
280
0
  9
$HIDETEXT
280
1
  9
$XCLIPFRAME
280
1
  9
$HALOGAP
280
0
  9
$OBSCOLOR
 70
257
  9
$OBSLTYPE
280
0
  9
$INTERSECTIONDISPLAY
280
0
  9
$INTERSECTIONCOLOR
 70
257
  9
$DIMASSOC
280
2
  9
$PROJECTNAME
  1

  9
$CAMERADISPLAY
290
0
  9
$LENSLENGTH
 40
50.0
  9
$CAMERAHEIGHT
 40
0.0
  9
$STEPSPERSEC
 40
24.0
  9
$STEPSIZE
 40
100.0
  9
$3DDWFPREC
 40
2.0
  9
$PSOLWIDTH
 40
0.005
  9
$PSOLHEIGHT
 40
0.08
  9
$LOFTANG1
 40
1.570796326795
  9
$LOFTANG2
 40
1.570796326795
  9
$LOFTMAG1
 40
0.0
  9
$LOFTMAG2
 40
0.0
  9
$LOFTPARAM
 70
7
  9
$LOFTNORMALS
280
1
  9
$LATITUDE
 40
37.795
  9
$LONGITUDE
 40
-122.394
  9
$NORTHDIRECTION
 40
0.0
  9
$TIMEZONE
 70
-8000
  9
$LIGHTGLYPHDISPLAY
280
1
  9
$TILEMODELIGHTSYNCH
280
1
  9
$CMATERIAL
347
20
  9
$SOLIDHIST
280
0
  9
$SHOWHIST
280
1
  9
$DWFFRAME
280
2
  9
$DGNFRAME
280
2
  9
$REALWORLDSCALE
290
1
  9
$INTERFERECOLOR
 62
256
  9
$CSHADOW
280
0
  9
$SHADOWPLANELOCATION
 40
0.0
  0
ENDSEC
  0
SECTION
  2
CLASSES
  0
CLASS
  1
ACDBDICTIONARYWDFLT
  2
AcDbDictionaryWithDefault
  3
ObjectDBX Classes
 90
0
 91
0
280
0
281
0
  0
CLASS
  1
SUN
  2
AcDbSun
  3
SCENEOE
 90
1153
 91
0
280
0
281
0
  0
CLASS
  1
VISUALSTYLE
  2
AcDbVisualStyle
  3
ObjectDBX Classes
 90
4095
 91
0
280
0
281
0
  0
CLASS
  1
MATERIAL
  2
AcDbMaterial
  3
ObjectDBX Classes
 90
1153
 91
0
280
0
281
0
  0
CLASS
  1
SCALE
  2
AcDbScale
  3
ObjectDBX Classes
 90
1153
 91
0
280
0
281
0
  0
CLASS
  1
TABLESTYLE
  2
AcDbTableStyle
  3
ObjectDBX Classes
 90
4095
 91
0
280
0
281
0
  0
CLASS
  1
MLEADERSTYLE
  2
AcDbMLeaderStyle
  3
ACDB_MLEADERSTYLE_CLASS
 90
4095
 91
0
280
0
281
0
  0
CLASS
  1
DICTIONARYVAR
  2
AcDbDictionaryVar
  3
ObjectDBX Classes
 90
0
 91
0
280
0
281
0
  0
CLASS
  1
CELLSTYLEMAP
  2
AcDbCellStyleMap
  3
ObjectDBX Classes
 90
1152
 91
0
280
0
281
0
  0
CLASS
  1
MENTALRAYRENDERSETTINGS
  2
AcDbMentalRayRenderSettings
  3
SCENEOE
 90
1024
 91
0
280
0
281
0
  0
CLASS
  1
ACDBDETAILVIEWSTYLE
  2
AcDbDetailViewStyle
  3
ObjectDBX Classes
 90
1025
 91
0
280
0
281
0
  0
CLASS
  1
ACDBSECTIONVIEWSTYLE
  2
AcDbSectionViewStyle
  3
ObjectDBX Classes
 90
1025
 91
0
280
0
281
0
  0
CLASS
  1
RASTERVARIABLES
  2
AcDbRasterVariables
  3
ISM
 90
0
 91
0
280
0
281
0
  0
CLASS
  1
LAYOUT
  2
AcDbLayout
  3
ObjectDBX Classes
 90
0
 91
0
280
0
281
0
  0
CLASS
  1
ACDBPLACEHOLDER
  2
AcDbPlaceHolder
  3
ObjectDBX Classes
 90
0
 91
0
280
0
281
0
  0
ENDSEC
  0
SECTION
  2
TABLES
  0
TABLE
  2
VPORT
  5
8
330
0
100
AcDbSymbolTable
 70
1
  0
VPORT
  5
16F
330
8
100
AcDbSymbolTableRecord
100
AcDbViewportTableRecord
  2
*Active
 70
0
 10
0.0
 20
0.0
 11
1.0
 21
1.0
 12
-0.013354107722136632
 22
5.253080952568482
 13
0.0
 23
0.0
 14
0.5
 24
0.5
 15
0.5
 25
0.5
 16
0.0
 26
0.0
 36
1.0
 17
0.0
 27
0.0
 37
0.0
 40
217.37387057432557
 41
1.34
 42
50.0
 43
0.0
 44
0.0
 50
0.0
 51
0.0
 71
0
 72
1000
 73
1
 74
3
 75
0
 76
0
 77
0
 78
0
281
0
 65
1
110
0.0
120
0.0
130
0.0
111
1.0
121
0.0
131
0.0
112
0.0
122
1.0
132
0.0
 79
0
146
0.0
  0
ENDTAB
  0
TABLE
  2
LTYPE
  5
2
330
0
100
AcDbSymbolTable
 70
4
  0
LTYPE
  5
24
330
2
100
AcDbSymbolTableRecord
100
AcDbLinetypeTableRecord
  2
ByBlock
 70
0
  3

 72
65
 73
0
 40
0.0
  0
LTYPE
  5
25
330
2
100
AcDbSymbolTableRecord
100
AcDbLinetypeTableRecord
  2
ByLayer
 70
0
  3

 72
65
 73
0
 40
0.0
  0
LTYPE
  5
26
330
2
100
AcDbSymbolTableRecord
100
AcDbLinetypeTableRecord
  2
Continuous
 70
0
  3

 72
65
 73
0
 40
0.0
  0
LTYPE
  5
30
330
2
100
AcDbSymbolTableRecord
100
AcDbLinetypeTableRecord
  2
ACAD_ISO02W100
 70
0
  3
ISO dash __ __ __ __ __ __ __ __ __ __ __ __ __
 72
65
 73
2
 40
15.0
 49
12.0
 74
0
 49
-3.0
 74
0
  0
ENDTAB
  0
TABLE
  2
LAYER
  5
1
330
0
100
AcDbSymbolTable
 70
4
  0
LAYER
  5
27
330
1
100
AcDbSymbolTableRecord
100
AcDbLayerTableRecord
  2
0
 70
0
 62
7
  6
Continuous
370
-3
390
13
347
21
  0
LAYER
  5
28
330
1
100
AcDbSymbolTableRecord
100
AcDbLayerTableRecord
  2
Defpoints
 70
0
 62
7
  6
Continuous
290
0
370
-3
390
13
347
21
  0
LAYER
  5
2F
330
1
100
AcDbSymbolTableRecord
100
AcDbLayerTableRecord
  2
VISIBLE
 70
0
 62
7
  6
Continuous
370
25
390
13
347
21
  0
LAYER
  5
31
330
1
100
AcDbSymbolTableRecord
100
AcDbLayerTableRecord
  2
HIDDEN
 70
0
 62
7
  6
ACAD_ISO02W100
370
13
390
13
347
21
  0
ENDTAB
  0
TABLE
  2
STYLE
  5
5
330
0
100
AcDbSymbolTable
 70
1
  0
STYLE
  5
29
330
5
100
AcDbSymbolTableRecord
100
AcDbTextStyleTableRecord
  2
Standard
 70
0
 40
0.0
 41
1.0
 50
0.0
 71
0
 42
2.5
  3
txt
  4

  0
ENDTAB
  0
TABLE
  2
VIEW
  5
7
330
0
100
AcDbSymbolTable
 70
0
  0
ENDTAB
  0
TABLE
  2
UCS
  5
6
330
0
100
AcDbSymbolTable
 70
0
  0
ENDTAB
  0
TABLE
  2
APPID
  5
3
330
0
100
AcDbSymbolTable
 70
3
  0
APPID
  5
2A
330
3
100
AcDbSymbolTableRecord
100
AcDbRegAppTableRecord
  2
ACAD
 70
0
  0
APPID
  5
170
330
3
100
AcDbSymbolTableRecord
100
AcDbRegAppTableRecord
  2
HATCHBACKGROUNDCOLOR
 70
0
  0
APPID
  5
171
330
3
100
AcDbSymbolTableRecord
100
AcDbRegAppTableRecord
  2
EZDXF
 70
0
  0
ENDTAB
  0
TABLE
  2
DIMSTYLE
  5
4
330
0
100
AcDbSymbolTable
 70
1
100
AcDbDimStyleTable
  0
DIMSTYLE
105
2B
330
4
100
AcDbSymbolTableRecord
100
AcDbDimStyleTableRecord
  2
Standard
 70
0
 40
1.0
 41
2.5
 42
0.625
 43
3.75
 44
1.25
 45
0.0
 46
0.0
 47
0.0
 48
0.0
 49
2.5
140
2.5
141
2.5
142
0.0
143
0.03937007874
144
1.0
145
0.0
146
1.0
147
0.625
148
0.0
 69
0
 70
0
 71
0
 72
0
 73
0
 74
0
 75
0
 76
0
 77
1
 78
8
 79
3
170
0
171
3
172
1
173
0
174
0
175
0
176
0
177
0
178
0
179
2
271
2
272
2
273
2
274
3
275
0
276
0
277
2
278
44
279
0
280
0
281
0
282
0
283
0
284
8
285
0
286
0
288
0
289
3
290
0
371
-2
372
-2
  0
ENDTAB
  0
TABLE
  2
BLOCK_RECORD
  5
9
330
0
100
AcDbSymbolTable
 70
2
  0
BLOCK_RECORD
  5
17
330
9
100
AcDbSymbolTableRecord
100
AcDbBlockTableRecord
  2
*Model_Space
340
1A
 70
0
280
1
281
0
  0
BLOCK_RECORD
  5
1B
330
9
100
AcDbSymbolTableRecord
100
AcDbBlockTableRecord
  2
*Paper_Space
340
1E
 70
0
280
1
281
0
  0
ENDTAB
  0
ENDSEC
  0
SECTION
  2
BLOCKS
  0
BLOCK
  5
18
330
17
100
AcDbEntity
  8
0
100
AcDbBlockBegin
  2
*Model_Space
 70
0
 10
0.0
 20
0.0
 30
0.0
  3
*Model_Space
  1

  0
ENDBLK
  5
19
330
17
100
AcDbEntity
  8
0
100
AcDbBlockEnd
  0
BLOCK
  5
1C
330
1B
100
AcDbEntity
  8
0
100
AcDbBlockBegin
  2
*Paper_Space
 70
0
 10
0.0
 20
0.0
 30
0.0
  3
*Paper_Space
  1

  0
ENDBLK
  5
1D
330
1B
100
AcDbEntity
  8
0
100
AcDbBlockEnd
  0
ENDSEC
  0
SECTION
  2
ENTITIES
  0
LINE
  5
32
330
17
100
AcDbEntity
  8
VISIBLE
100
AcDbLine
 10
-161.19782062811683
 20
39.65121716672581
 30
0.0
 11
-155.25892000841398
 21
12.99486119815524
 31
0.0
  0
ELLIPSE
  5
33
330
17
100
AcDbEntity
  8
VISIBLE
100
AcDbEllipse
 10
-122.24340639363108
 20
-9.635360522320056
 30
0.0
 11
-5.76
 21
7.828527850082402e-17
 31
0.0
 40
0.5773502691896258
 41
-5.68291901817209
 42
-5.497787143782138
  0
LINE
  5
34
330
17
100
AcDbEntity
  8
VISIBLE
100
AcDbLine
 10
-126.3163414532656
 20
-11.986870675391904
 30
0.0
 11
24.4929649624027
 21
-99.05666433077876
 31
0.0
  0
ELLIPSE
  5
35
330
17
100
AcDbEntity
  8
VISIBLE
100
AcDbEllipse
 10
28.565900022037205
 20
-96.7051541777069
 30
0.0
 11
-5.76
 21
7.828527850082402e-17
 31
0.0
 40
0.5773502691896258
 41
-5.497787143782138
 42
-4.863764424118716
  0
LINE
  5
36
330
17
100
AcDbEntity
  8
VISIBLE
100
AcDbLine
 10
27.697303601529885
 20
-99.99266287266533
 30
0.0
 11
65.0013725742431
 21
-103.27804640434972
 31
0.0
  0
ELLIPSE
  5
37
330
17
100
AcDbEntity
  8
VISIBLE
100
AcDbEllipse
 10
65.86996899475042
 20
-99.99053770939129
 30
0.0
 11
-5.76
 21
7.828527850082402e-17
 31
0.0
 40
0.5773502691896258
 41
-3.9480249533704015
 42
-3.9269908169872414
  0
ELLIPSE
  5
38
330
17
100
AcDbEntity
  8
VISIBLE
100
AcDbEllipse
 10
65.86996899475042
 20
-99.99053770939129
 30
0.0
 11
-5.76
 21
7.828527850082402e-17
 31
0.0
 40
0.5773502691896258
 41
-4.863764424118716
 42
-3.9480249533704015
  0
ELLIPSE
  5
39
330
17
100
AcDbEntity
  8
VISIBLE
100
AcDbEllipse
 10
-149.30794998330933
 20
13.436809822735917
 30
0.0
 11
-6.0
 21
8.154716510502503e-17
 31
0.0
 40
0.5773502691896258
 41
-5.682913501018697
 42
-5.497787143782138
  0
ELLIPSE
  5
3A
330
17
100
AcDbEntity
  8
VISIBLE
100
AcDbEllipse
 10
-149.30794998330933
 20
13.436809822735917
 30
0.0
 11
-6.0
 21
8.154716510502503e-17
 31
0.0
 40
0.5773502691896258
 41
-6.155257076181608
 42
-5.682913501018697
  0
SPLINE
  5
3B
330
17
100
AcDbEntity
  8
VISIBLE
100
AcDbSpline
 70
0
 71
1
 72
4
 73
2
 74
0
 40
0.0
 40
0.0
 40
1.0
 40
1.0
 10
-155.25892000841398
 20
12.994861198155242
 30
0.0
 10
-145.62380730133927
 20
43.573345269633705
 30
0.0
  0
LINE
  5
3C
330
17
100
AcDbEntity
  8
VISIBLE
100
AcDbLine
 10
-151.8247527113621
 20
68.37060084894073
 30
0.0
 11
-145.62380730133927
 21
43.573345269633705
 31
0.0
  0
SPLINE
  5
3D
330
17
100
AcDbEntity
  8
VISIBLE
100
AcDbSpline
 70
0
 71
1
 72
4
 73
2
 74
0
 40
0.0
 40
0.0
 40
1.0
 40
1.0
 10
-161.19782062811686
 20
39.6512171667258
 30
0.0
 10
-151.82475271136212
 20
68.37060084894073
 30
0.0
  0
ELLIPSE
  5
3E
330
17
100
AcDbEntity
  8
VISIBLE
100
AcDbEllipse
 10
-155.2468506030122
 20
40.09316579130648
 30
0.0
 11
-6.0
 21
8.154716510502503e-17
 31
0.0
 40
0.5773502691896258
 41
-6.468857304189739
 42
-6.155257076181608
  0
LINE
  5
3F
330
17
100
AcDbEntity
  8
VISIBLE
100
AcDbLine
 10
-153.55059067042862
 20
10.987320079952738
 30
0.0
 11
-147.59312166198595
 21
7.547773744239497
 31
0.0
  0
SPLINE
  5
40
330
17
100
AcDbEntity
  8
VISIBLE
100
AcDbSpline
 70
0
 71
3
 72
11
 73
7
 74
0
 40
0.0
 40
0.0
 40
0.0
 40
0.0
 40
0.6246913587741997
 40
0.6246913587741997
 40
0.6246913587741997
 40
1.0
 40
1.0
 40
1.0
 40
1.0
 10
-143.16918676192248
 20
4.993613738810486
 30
0.0
 10
-143.5923665025613
 20
5.072253547660257
 30
0.0
 10
-144.30439731515875
 20
5.38469197550432
 30
0.0
 10
-145.3649141136389
 20
6.030750255527525
 30
0.0
 10
-145.99904975523094
 20
6.417291518596788
 30
0.0
 10
-146.77215564202606
 20
6.937661811723401
 30
0.0
 10
-147.59312166198595
 20
7.547773744239501
 30
0.0
  0
LINE
  5
41
330
17
100
AcDbEntity
  8
VISIBLE
100
AcDbLine
 10
-143.1691867619225
 20
4.993613738810496
 30
0.0
 11
15.8899661483438
 21
-86.83923101100562
 31
0.0
  0
SPLINE
  5
42
330
17
100
AcDbEntity
  8
VISIBLE
100
AcDbSpline
 70
0
 71
3
 72
11
 73
7
 74
0
 40
0.0
 40
0.0
 40
0.0
 40
0.0
 40
0.3774027704841839
 40
0.3774027704841839
 40
0.3774027704841839
 40
1.0
 40
1.0
 40
1.0
 40
1.0
 10
20.313901048407327
 20
-89.39339101643466
 30
0.0
 10
19.968934794824936
 20
-89.3311226817542
 30
0.0
 10
19.451929744291583
 20
-89.10667832803429
 30
0.0
 10
18.885781423258315
 20
-88.79978005396359
 30
0.0
 10
17.946057100663136
 20
-88.28996837506772
 30
0.0
 10
16.89152763625429
 20
-87.58262290270142
 30
0.0
 10
15.88996614834389
 20
-86.83923101100567
 30
0.0
  0
LINE
  5
43
330
17
100
AcDbEntity
  8
VISIBLE
100
AcDbLine
 10
20.313901048407395
 20
-89.39339101643472
 30
0.0
 11
26.27137005685005
 21
-92.83293735214794
 31
0.0
  0
SPLINE
  5
44
330
17
100
AcDbEntity
  8
VISIBLE
100
AcDbSpline
 70
0
 71
1
 72
4
 73
2
 74
0
 40
0.0
 40
0.0
 40
1.0
 40
1.0
 10
27.69730360152989
 20
-99.99266287266533
 30
0.0
 10
29.74853327186042
 20
-93.81924175529828
 30
0.0
  0
ELLIPSE
  5
45
330
17
100
AcDbEntity
  8
VISIBLE
100
AcDbEllipse
 10
30.514010743969322
 20
-90.38344760936472
 30
0.0
 11
-6.0
 21
8.154716510502503e-17
 31
0.0
 40
0.5773502691896258
 41
-5.497787143782138
 42
-4.840317211382666
  0
SPLINE
  5
46
330
17
100
AcDbEntity
  8
VISIBLE
100
AcDbSpline
 70
0
 71
1
 72
4
 73
2
 74
0
 40
0.0
 40
0.0
 40
1.0
 40
1.0
 10
65.0013725742431
 20
-103.27804640434972
 30
0.0
 10
75.9186961540665
 20
-97.24806762677416
 30
0.0
  0
LINE
  5
47
330
17
100
AcDbEntity
  8
VISIBLE
100
AcDbLine
 10
29.74853327186043
 20
-93.81924175529826
 30
0.0
 11
75.91869615406651
 21
-97.24806762677416
 31
0.0
  0
ELLIPSE
  5
48
330
17
100
AcDbEntity
  8
VISIBLE
100
AcDbEllipse
 10
76.68417362617538
 20
-93.81227348084062
 30
0.0
 11
-6.0
 21
8.154716510502503e-17
 31
0.0
 40
0.5773502691896258
 41
-4.840317211382666
 42
-4.693656336024908
  0
SPLINE
  5
49
330
17
100
AcDbEntity
  8
VISIBLE
100
AcDbSpline
 70
0
 71
1
 72
4
 73
2
 74
0
 40
0.0
 40
0.0
 40
0.011080077117888635
 40
0.011080077117888635
 10
78.6282266206492
 20
-97.53417597183245
 30
0.0
 10
78.54124022687537
 20
-97.58338069239015
 30
0.0
  0
SPLINE
  5
4A
330
17
100
AcDbEntity
  8
VISIBLE
100
AcDbSpline
 70
0
 71
3
 72
11
 73
7
 74
0
 40
0.0
 40
0.0
 40
0.0
 40
0.0
 40
0.5319212095020129
 40
0.5319212095020129
 40
0.5319212095020129
 40
1.0
 40
1.0
 40
1.0
 40
1.0
 10
78.54124022687537
 20
-97.58338069239015
 30
0.0
 10
77.9113706571903
 20
-97.93282778281049
 30
0.0
 10
77.27302122381676
 20
-98.11896222343923
 30
0.0
 10
76.76271876028349
 20
-98.17094367593391
 30
0.0
 10
76.3122071637355
 20
-98.21832896197755
 30
0.0
 10
75.9711314784685
 20
-98.16056086408473
 30
0.0
 10
75.80934696329001
 20
-98.06515712486619
 30
0.0
  0
SPLINE
  5
4B
330
17
100
AcDbEntity
  8
VISIBLE
100
AcDbSpline
 70
0
 71
3
 72
11
 73
7
 74
0
 40
0.0
 40
0.0
 40
0.0
 40
0.0
 40
0.38840136747649984
 40
0.38840136747649984
 40
0.38840136747649984
 40
1.0
 40
1.0
 40
1.0
 40
1.0
 10
75.80934696329001
 20
-98.06515712486618
 30
0.0
 10
75.64632693182469
 20
-97.97062589795621
 30
0.0
 10
75.65233540502338
 20
-97.8492437860481
 30
0.0
 10
75.76118137174791
 20
-97.74129363705393
 30
0.0
 10
75.93566196742749
 20
-97.56831756970399
 30
0.0
 10
76.33229548976435
 20
-97.4202612306132
 30
0.0
 10
76.79656291563886
 20
-97.27576731449383
 30
0.0
  0
SPLINE
  5
4C
330
17
100
AcDbEntity
  8
VISIBLE
100
AcDbSpline
 70
0
 71
1
 72
4
 73
2
 74
0
 40
0.0
 40
0.0
 40
1.0
 40
1.0
 10
78.80915524770849
 20
-97.42966954387484
 30
0.0
 10
78.62822662064927
 20
-97.53417597183247
 30
0.0
  0
SPLINE
  5
4D
330
17
100
AcDbEntity
  8
VISIBLE
100
AcDbSpline
 70
0
 71
1
 72
4
 73
2
 74
0
 40
0.0
 40
0.0
 40
1.0
 40
1.0
 10
153.5503420191266
 20
-54.27782524184454
 30
0.0
 10
78.8091552477085
 20
-97.42966954387487
 30
0.0
  0
SPLINE
  5
4E
330
17
100
AcDbEntity
  8
VISIBLE
100
AcDbSpline
 70
0
 71
2
 72
6
 73
3
 74
0
 40
0.0
 40
0.0
 40
0.0
 40
1.0
 40
1.0
 40
1.0
 10
153.73822499606138
 20
-54.169398190955945
 30
0.0
 10
153.64220412287352
 20
-54.22478854264945
 30
0.0
 10
153.5503420191266
 20
-54.277825241844546
 30
0.0
  0
SPLINE
  5
4F
330
17
100
AcDbEntity
  8
VISIBLE
100
AcDbSpline
 70
0
 71
3
 72
17
 73
13
 74
0
 40
0.0
 40
0.0
 40
0.0
 40
0.0
 40
0.3274510730489368
 40
0.3274510730489368
 40
0.3274510730489368
 40
0.4722940257369071
 40
0.4722940257369071
 40
0.4722940257369071
 40
0.7484017942503418
 40
0.7484017942503418
 40
0.7484017942503418
 40
1.0
 40
1.0
 40
1.0
 40
1.0
 10
161.24579789460105
 20
-48.518978766532044
 30
0.0
 10
160.59959160472005
 20
-48.76878067781737
 30
0.0
 10
159.90259250215945
 20
-49.09036360760226
 30
0.0
 10
159.12831680329091
 20
-49.608767392223506
 30
0.0
 10
158.7854840847772
 20
-49.83782100955865
 30
0.0
 10
158.42751252891867
 20
-50.11042958584849
 30
0.0
 10
158.05440213571626
 20
-50.426593121093234
 30
0.0
 10
157.34332415859225
 20
-51.02563508548802
 30
0.0
 10
156.5841172565589
 20
-51.807196639459704
 30
0.0
 10
155.82844990463013
 20
-52.52257269216846
 30
0.0
 10
155.13824343080705
 20
-53.17487416209822
 30
0.0
 10
154.4472454848552
 20
-53.76127213731878
 30
0.0
 10
153.73822499606138
 20
-54.169398190955924
 30
0.0
  0
ELLIPSE
  5
50
330
17
100
AcDbEntity
  8
VISIBLE
100
AcDbEllipse
 10
155.24685060301218
 20
-48.454090780006275
 30
0.0
 11
-6.0
 21
8.154716510502503e-17
 31
0.0
 40
0.5773502691896258
 41
-3.1603252979495693
 42
-3.013664422591816
  0
LINE
  5
51
330
17
100
AcDbEntity
  8
VISIBLE
100
AcDbLine
 10
161.19782062811677
 20
-48.012142155425614
 30
0.0
 11
155.25892000841392
 21
-21.35578618685507
 31
0.0
  0
ELLIPSE
  5
52
330
17
100
AcDbEntity
  8
VISIBLE
100
AcDbEllipse
 10
149.3079499833093
 20
-21.797734811435742
 30
0.0
 11
-6.0
 21
8.154716510502503e-17
 31
0.0
 40
0.5773502691896258
 41
-3.013664422591817
 42
-2.9583806654579616
  0
SPLINE
  5
53
330
17
100
AcDbEntity
  8
VISIBLE
100
AcDbSpline
 70
0
 71
3
 72
14
 73
10
 74
0
 40
0.0
 40
0.0
 40
0.0
 40
0.0
 40
0.31234567938693103
 40
0.31234567938693103
 40
0.31234567938693103
 40
0.6246913587738621
 40
0.6246913587738621
 40
0.6246913587738621
 40
0.886231533234959
 40
0.886231533234959
 40
0.886231533234959
 40
0.886231533234959
 10
143.1691867619224
 20
-13.354538727510269
 30
0.0
 10
143.3808751304706
 20
-13.89823650170941
 30
0.0
 10
143.66456214766362
 20
-14.391996385744132
 30
0.0
 10
144.0280081724079
 20
-14.81026128316562
 30
0.0
 10
144.3914449374526
 20
-15.227684635593581
 30
0.0
 10
144.83480580470868
 20
-15.569567697900762
 30
0.0
 10
145.36491411363838
 20
-15.787541904589599
 30
0.0
 10
145.80819204802992
 20
-15.96986688371577
 30
0.0
 10
146.3147632406857
 20
-16.062287292708067
 30
0.0
 10
146.8622818660426
 20
-16.027082691967326
 30
0.0
  0
SPLINE
  5
54
330
17
100
AcDbEntity
  8
VISIBLE
100
AcDbSpline
 70
0
 71
3
 72
11
 73
7
 74
0
 40
0.0
 40
0.0
 40
0.0
 40
0.0
 40
0.3774027704840148
 40
0.3774027704840148
 40
0.3774027704840148
 40
0.8500644908243253
 40
0.8500644908243253
 40
0.8500644908243253
 40
0.8500644908243253
 10
-20.313901048407423
 20
81.03246602773487
 30
0.0
 10
-19.968934794825003
 20
80.14140965170779
 30
0.0
 10
-19.451929744291668
 20
79.46867075991635
 30
0.0
 10
-18.8857814232584
 20
79.04088748662096
 30
0.0
 10
-18.17432878861316
 20
78.50186400079065
 30
0.0
 10
-17.39034073192292
 20
78.31186972936155
 30
0.0
 10
-16.620805934398454
 20
78.359922062698
 30
0.0
  0
ELLIPSE
  5
55
330
17
100
AcDbEntity
  8
VISIBLE
100
AcDbEllipse
 10
-139.68537928880835
 20
44.06834450868638
 30
0.0
 11
-6.0
 21
8.154716510502503e-17
 31
0.0
 40
0.5773502691896258
 41
-6.139800527414662
 42
-5.497787143782138
  0
ELLIPSE
  5
56
330
17
100
AcDbEntity
  8
VISIBLE
100
AcDbEllipse
 10
-145.88632469883117
 20
68.8656000879934
 30
0.0
 11
-6.0
 21
8.154716510502503e-17
 31
0.0
 40
0.5773502691896258
 41
-6.468845313795732
 42
-6.139800527414662
  0
ELLIPSE
  5
57
330
17
100
AcDbEntity
  8
VISIBLE
100
AcDbEllipse
 10
-145.88632469883117
 20
68.8656000879934
 30
0.0
 11
-6.0
 21
8.154716510502503e-17
 31
0.0
 40
0.5773502691896258
 41
-0.7853981633974483
 42
-0.18566000661614535
  0
LINE
  5
58
330
17
100
AcDbEntity
  8
VISIBLE
100
AcDbLine
 10
-78.26652493730444
 20
112.8048891684258
 30
0.0
 11
-150.12896538595047
 21
71.31508983077657
 31
0.0
  0
LINE
  5
59
330
17
100
AcDbEntity
  8
VISIBLE
100
AcDbLine
 10
-143.9280199759276
 20
41.6188547659032
 30
0.0
 11
26.83113701143533
 21
-56.96899048734437
 31
0.0
  0
ELLIPSE
  5
5A
330
17
100
AcDbEntity
  8
VISIBLE
100
AcDbEllipse
 10
-74.02388425018516
 20
110.35539942564263
 30
0.0
 11
-6.0
 21
8.154716510502503e-17
 31
0.0
 40
0.5773502691896258
 41
-1.7141811065598205
 42
-0.7853981633974483
  0
ELLIPSE
  5
5B
330
17
100
AcDbEntity
  8
VISIBLE
100
AcDbEllipse
 10
31.073777698554608
 20
-54.519500744561185
 30
0.0
 11
-6.0
 21
8.154716510502503e-17
 31
0.0
 40
0.5773502691896258
 41
-5.497787143782138
 42
-4.8557737601496145
  0
LINE
  5
5C
330
17
100
AcDbEntity
  8
VISIBLE
100
AcDbLine
 10
-30.2164138668075
 20
110.20383493553372
 30
0.0
 11
-73.16652041843798
 21
113.78395243724059
 31
0.0
  0
LINE
  5
5D
330
17
100
AcDbEntity
  8
VISIBLE
100
AcDbLine
 10
30.216413866807457
 20
-57.94805375615912
 30
0.0
 11
73.16652041843794
 21
-61.52817125786597
 31
0.0
  0
ELLIPSE
  5
5E
330
17
100
AcDbEntity
  8
VISIBLE
100
AcDbEllipse
 10
-31.073777698554665
 20
106.77528192393578
 30
0.0
 11
-6.0
 21
8.154716510502503e-17
 31
0.0
 40
0.5773502691896258
 41
-2.356194490192345
 42
-1.7141811065598205
  0
ELLIPSE
  5
5F
330
17
100
AcDbEntity
  8
VISIBLE
100
AcDbEllipse
 10
74.02388425018509
 20
-58.09961824626805
 30
0.0
 11
-6.0
 21
8.154716510502503e-17
 31
0.0
 40
0.5773502691896258
 41
-4.8557737601496145
 42
-3.9269908169872414
  0
LINE
  5
60
330
17
100
AcDbEntity
  8
VISIBLE
100
AcDbLine
 10
143.9280199759276
 20
10.636926413471357
 30
0.0
 11
-26.831137011435388
 21
109.22477166671896
 31
0.0
  0
LINE
  5
61
330
17
100
AcDbEntity
  8
VISIBLE
100
AcDbLine
 10
78.26652493730438
 20
-60.549107989051215
 30
0.0
 11
150.12896538595044
 21
-19.059308651401953
 31
0.0
  0
ELLIPSE
  5
62
330
17
100
AcDbEntity
  8
VISIBLE
100
AcDbEllipse
 10
139.68537928880832
 20
8.187436670688175
 30
0.0
 11
-6.0
 21
8.154716510502503e-17
 31
0.0
 40
0.5773502691896258
 41
-2.958403985723696
 42
-2.356194490192345
  0
ELLIPSE
  5
63
330
17
100
AcDbEntity
  8
VISIBLE
100
AcDbEllipse
 10
139.68537928880832
 20
8.187436670688175
 30
0.0
 11
-6.0
 21
8.154716510502503e-17
 31
0.0
 40
0.5773502691896258
 41
-2.9982078738248683
 42
-2.958403985723696
  0
ELLIPSE
  5
64
330
17
100
AcDbEntity
  8
VISIBLE
100
AcDbEllipse
 10
145.88632469883115
 20
-16.60981890861879
 30
0.0
 11
-6.0
 21
8.154716510502503e-17
 31
0.0
 40
0.5773502691896258
 41
-3.926990816987242
 42
-2.9982078738248688
  0
LINE
  5
65
330
17
100
AcDbEntity
  8
VISIBLE
100
AcDbLine
 10
151.82475271136204
 20
-16.11481966956612
 30
0.0
 11
145.6238073013392
 21
8.682435909740851
 31
0.0
  0
SPLINE
  5
66
330
17
100
AcDbEntity
  8
VISIBLE
100
AcDbSpline
 70
0
 71
1
 72
4
 73
2
 74
0
 40
0.0
 40
0.0
 40
1.0
 40
1.0
 10
-143.94773763517878
 20
43.79239685233506
 30
0.0
 10
-150.28388021931377
 20
68.26307145771894
 30
0.0
  0
SPLINE
  5
67
330
17
100
AcDbEntity
  8
VISIBLE
100
AcDbSpline
 70
0
 71
2
 72
6
 73
3
 74
0
 40
0.0
 40
0.0
 40
0.0
 40
0.31470671769465014
 40
0.31470671769465014
 40
0.31470671769465014
 10
-150.28388021931383
 20
68.26307145771894
 30
0.0
 10
-150.41468019792075
 20
68.77022044195172
 30
0.0
 10
-150.2868080625444
 20
69.27761819492463
 30
0.0
  0
SPLINE
  5
68
330
17
100
AcDbEntity
  8
VISIBLE
100
AcDbSpline
 70
0
 71
3
 72
8
 73
4
 74
0
 40
0.0
 40
0.0
 40
0.0
 40
0.0
 40
1.0
 40
1.0
 40
1.0
 40
1.0
 10
-150.2868080625444
 20
69.27761819492463
 30
0.0
 10
-150.10417483210423
 20
70.00959696986718
 30
0.0
 10
-149.50053580501435
 20
70.70365062405457
 30
0.0
 10
-148.59277287561008
 20
71.22540344980303
 30
0.0
  0
SPLINE
  5
69
330
17
100
AcDbEntity
  8
VISIBLE
100
AcDbSpline
 70
0
 71
1
 72
4
 73
2
 74
0
 40
0.0
 40
0.0
 40
1.0
 40
1.0
 10
-148.59277287561008
 20
71.22540344980304
 30
0.0
 10
-78.11118356871133
 20
111.9179680090537
 30
0.0
  0
SPLINE
  5
6A
330
17
100
AcDbEntity
  8
VISIBLE
100
AcDbSpline
 70
0
 71
3
 72
11
 73
7
 74
0
 40
0.0
 40
0.0
 40
0.0
 40
0.0
 40
0.6620033652123983
 40
0.6620033652123983
 40
0.6620033652123983
 40
1.0
 40
1.0
 40
1.0
 40
1.0
 10
-78.11118356871133
 20
111.91796800905368
 30
0.0
 10
-77.23807836455777
 20
112.4241034236669
 30
0.0
 10
-76.08691360855275
 20
112.76693985558074
 30
0.0
 10
-74.86644503199659
 20
112.88429854569273
 30
0.0
 10
-74.2438721569877
 20
112.94501600062937
 30
0.0
 10
-73.604678281516
 20
112.94841546688016
 30
0.0
 10
-72.98027404953497
 20
112.89432928916958
 30
0.0
  0
SPLINE
  5
6B
330
17
100
AcDbEntity
  8
VISIBLE
100
AcDbSpline
 70
0
 71
1
 72
4
 73
2
 74
0
 40
0.0
 40
0.0
 40
1.0
 40
1.0
 10
-72.98027404953498
 20
112.89432928916959
 30
0.0
 10
-30.595822337524595
 20
109.2361556625954
 30
0.0
  0
SPLINE
  5
6C
330
17
100
AcDbEntity
  8
VISIBLE
100
AcDbSpline
 70
0
 71
3
 72
8
 73
4
 74
0
 40
0.0
 40
0.0
 40
0.0
 40
0.0
 40
1.0
 40
1.0
 40
1.0
 40
1.0
 10
-30.595822337524595
 20
109.23615566259542
 30
0.0
 10
-29.335062337665786
 20
109.12888627139804
 30
0.0
 10
-28.140578271918173
 20
108.78120451718814
 30
0.0
 10
-27.241450482462415
 20
108.25979438247954
 30
0.0
  0
SPLINE
  5
6D
330
17
100
AcDbEntity
  8
VISIBLE
100
AcDbSpline
 70
0
 71
1
 72
4
 73
2
 74
0
 40
0.0
 40
0.0
 40
1.0
 40
1.0
 10
-27.241450482462398
 20
108.25979438247948
 30
0.0
 10
142.25663029147495
 20
10.400031820521797
 30
0.0
  0
SPLINE
  5
6E
330
17
100
AcDbEntity
  8
VISIBLE
100
AcDbSpline
 70
0
 71
3
 72
8
 73
4
 74
0
 40
0.0
 40
0.0
 40
0.0
 40
0.0
 40
1.0
 40
1.0
 40
1.0
 40
1.0
 10
142.256630291475
 20
10.4000318205218
 30
0.0
 10
143.15973914701283
 20
9.880920146774537
 30
0.0
 10
143.76194161324045
 20
9.191284424552798
 30
0.0
 10
143.94773763517873
 20
8.463384327039531
 30
0.0
  0
SPLINE
  5
6F
330
17
100
AcDbEntity
  8
VISIBLE
100
AcDbSpline
 70
0
 71
1
 72
4
 73
2
 74
0
 40
0.0
 40
0.0
 40
1.0
 40
1.0
 10
143.94773763517873
 20
8.463384327039538
 30
0.0
 10
150.28388021931377
 20
-16.007290278344357
 30
0.0
  0
SPLINE
  5
70
330
17
100
AcDbEntity
  8
VISIBLE
100
AcDbSpline
 70
0
 71
1
 72
4
 73
2
 74
0
 40
0.0
 40
0.0
 40
0.015356044800063579
 40
0.015356044800063579
 10
150.28388021931377
 20
-16.007290278344392
 30
0.0
 10
150.29601364956838
 20
-16.05647677286813
 30
0.0
  0
SPLINE
  5
71
330
17
100
AcDbEntity
  8
VISIBLE
100
AcDbSpline
 70
0
 71
3
 72
11
 73
7
 74
0
 40
0.0
 40
0.0
 40
0.0
 40
0.0
 40
0.49219932277016465
 40
0.49219932277016465
 40
0.49219932277016465
 40
1.0
 40
1.0
 40
1.0
 40
1.0
 10
150.29601364956838
 20
-16.056476772868134
 30
0.0
 10
150.41797512554263
 20
-16.574468257680824
 30
0.0
 10
150.3326444666784
 20
-17.108210383297816
 30
0.0
 10
150.04852169949416
 20
-17.60456075104471
 30
0.0
 10
149.75689459600056
 20
-18.11694170962092
 30
0.0
 10
149.25390844918118
 20
-18.58859339660864
 30
0.0
 10
148.59277287561005
 20
-18.969622270428474
 30
0.0
  0
SPLINE
  5
72
330
17
100
AcDbEntity
  8
VISIBLE
100
AcDbSpline
 70
0
 71
1
 72
4
 73
2
 74
0
 40
0.0
 40
0.0
 40
1.0
 40
1.0
 10
148.59277287561002
 20
-18.969622270428474
 30
0.0
 10
78.1111835687113
 20
-59.6621868296791
 30
0.0
  0
SPLINE
  5
73
330
17
100
AcDbEntity
  8
VISIBLE
100
AcDbSpline
 70
0
 71
3
 72
11
 73
7
 74
0
 40
0.0
 40
0.0
 40
0.0
 40
0.0
 40
0.5180074972060308
 40
0.5180074972060308
 40
0.5180074972060308
 40
1.0
 40
1.0
 40
1.0
 40
1.0
 10
78.1111835687113
 20
-59.6621868296791
 30
0.0
 10
77.42751227127133
 20
-60.05768428058982
 30
0.0
 10
76.57518639277681
 20
-60.354992223547725
 30
0.0
 10
75.65076545589119
 20
-60.52042792434644
 30
0.0
 10
74.79112793667996
 20
-60.67524138881817
 30
0.0
 10
73.87073156408078
 20
-60.71595374892797
 30
0.0
 10
72.98027404953491
 20
-60.63854810979499
 30
0.0
  0
SPLINE
  5
74
330
17
100
AcDbEntity
  8
VISIBLE
100
AcDbSpline
 70
0
 71
1
 72
4
 73
2
 74
0
 40
0.0
 40
0.0
 40
1.0
 40
1.0
 10
72.98027404953491
 20
-60.638548109794996
 30
0.0
 10
30.59582233752452
 20
-56.980374483220785
 30
0.0
  0
SPLINE
  5
75
330
17
100
AcDbEntity
  8
VISIBLE
100
AcDbSpline
 70
0
 71
3
 72
8
 73
4
 74
0
 40
0.0
 40
0.0
 40
0.0
 40
0.0
 40
1.0
 40
1.0
 40
1.0
 40
1.0
 10
30.59582233752452
 20
-56.980374483220785
 30
0.0
 10
29.335058563125145
 20
-56.87310460147168
 30
0.0
 10
28.14057525271153
 20
-56.52542183950584
 30
0.0
 10
27.241450482462295
 20
-56.004013203104876
 30
0.0
  0
SPLINE
  5
76
330
17
100
AcDbEntity
  8
VISIBLE
100
AcDbSpline
 70
0
 71
1
 72
4
 73
2
 74
0
 40
0.0
 40
0.0
 40
1.0
 40
1.0
 10
27.241450482462326
 20
-56.004013203104904
 30
0.0
 10
-142.2566302914751
 20
41.85574935885279
 30
0.0
  0
SPLINE
  5
77
330
17
100
AcDbEntity
  8
VISIBLE
100
AcDbSpline
 70
0
 71
3
 72
8
 73
4
 74
0
 40
0.0
 40
0.0
 40
0.0
 40
0.0
 40
1.0
 40
1.0
 40
1.0
 40
1.0
 10
-142.2566302914751
 20
41.85574935885279
 30
0.0
 10
-143.1597386125124
 20
42.37486058636498
 30
0.0
 10
-143.7619416925665
 20
43.064496736579116
 30
0.0
 10
-143.9477376351788
 20
43.79239685233506
 30
0.0
  0
SPLINE
  5
78
330
17
100
AcDbEntity
  8
VISIBLE
100
AcDbSpline
 70
0
 71
3
 72
11
 73
7
 74
0
 40
0.0
 40
0.0
 40
0.0
 40
0.0
 40
0.37227211848039804
 40
0.37227211848039804
 40
0.37227211848039804
 40
0.7425433731376687
 40
0.7425433731376687
 40
0.7425433731376687
 40
0.7425433731376687
 10
23.046804468190505
 20
-85.97990547714099
 30
0.0
 10
22.927098964981784
 20
-86.76563133714875
 30
0.0
 10
22.674097335906026
 20
-87.43354755117127
 30
0.0
 10
22.350840713055756
 20
-87.94519248726945
 30
0.0
 10
22.028928286883048
 20
-88.45602109983807
 30
0.0
 10
21.63990371174948
 20
-88.82120645546912
 30
0.0
 10
21.222267221685236
 20
-89.06252628439063
 30
0.0
  0
SPLINE
  5
79
330
17
100
AcDbEntity
  8
VISIBLE
100
AcDbSpline
 70
0
 71
2
 72
6
 73
3
 74
0
 40
0.0
 40
0.0
 40
0.0
 40
1.0
 40
1.0
 40
1.0
 10
21.222267221685236
 20
-89.06252628439063
 30
0.0
 10
20.784449386554158
 20
-89.31254320873454
 30
0.0
 10
20.31390104840735
 20
-89.39339101643466
 30
0.0
  0
SPLINE
  5
7A
330
17
100
AcDbEntity
  8
VISIBLE
100
AcDbSpline
 70
0
 71
3
 72
20
 73
16
 74
0
 40
0.0
 40
0.0
 40
0.0
 40
0.0
 40
0.09118261304324203
 40
0.09118261304324203
 40
0.09118261304324203
 40
0.19416284148475102
 40
0.19416284148475102
 40
0.19416284148475102
 40
0.24632822045080852
 40
0.24632822045080852
 40
0.24632822045080852
 40
0.3229233847608222
 40
0.3229233847608222
 40
0.3229233847608222
 40
0.40806355422729285
 40
0.40806355422729285
 40
0.40806355422729285
 40
0.40806355422729285
 10
15.889966148343849
 20
-86.83923101100564
 30
0.0
 10
15.505929935083888
 20
-86.2505661329429
 30
0.0
 10
15.162861807086038
 20
-85.55545487491432
 30
0.0
 10
14.90887451168991
 20
-84.77249400225965
 30
0.0
 10
14.621233820263638
 20
-83.89266072872202
 30
0.0
 10
14.456969526620604
 20
-82.88971178052338
 30
0.0
 10
14.485327328679421
 20
-81.94049041337489
 30
0.0
 10
14.498420336944882
 20
-81.46078737052632
 30
0.0
 10
14.558691648666155
 20
-80.99952630283576
 30
0.0
 10
14.659210961374429
 20
-80.58011957776161
 30
0.0
 10
14.806566763709116
 20
-79.96284829944902
 30
0.0
 10
15.038761649479083
 20
-79.43899145968251
 30
0.0
 10
15.31765424014718
 20
-79.02293798346366
 30
0.0
 10
15.628216938127743
 20
-78.55925453755505
 30
0.0
 10
15.995188530798266
 20
-78.22410502723382
 30
0.0
 10
16.386060336870376
 20
-77.99830518646642
 30
0.0
  0
SPLINE
  5
7B
330
17
100
AcDbEntity
  8
VISIBLE
100
AcDbSpline
 70
0
 71
3
 72
17
 73
13
 74
0
 40
0.0
 40
0.0
 40
0.0
 40
0.0
 40
0.27898026178423024
 40
0.27898026178423024
 40
0.27898026178423024
 40
0.6139160342238519
 40
0.6139160342238519
 40
0.6139160342238519
 40
0.8037514896904866
 40
0.8037514896904866
 40
0.8037514896904866
 40
1.0
 40
1.0
 40
1.0
 40
1.0
 10
16.38606033687038
 20
-77.9983051864664
 30
0.0
 10
17.146787162904126
 20
-77.56234553730204
 30
0.0
 10
17.993655543443474
 20
-77.52424284692516
 30
0.0
 10
18.83051274111812
 20
-77.79675268513681
 30
0.0
 10
19.833122820579632
 20
-78.12873052634643
 30
0.0
 10
20.844535734929476
 20
-78.91015660297543
 30
0.0
 10
21.687341151490585
 20
-80.1744127166044
 30
0.0
 10
22.161572125394795
 20
-80.88981263179807
 30
0.0
 10
22.57966903967843
 20
-81.77419881365752
 30
0.0
 10
22.84404989214802
 20
-82.78202922084233
 30
0.0
 10
23.120449274437604
 20
-83.8176069174542
 30
0.0
 10
23.20434666154133
 20
-84.9845796319029
 30
0.0
 10
23.046804468190498
 20
-85.97990547714097
 30
0.0
  0
SPLINE
  5
7C
330
17
100
AcDbEntity
  8
VISIBLE
100
AcDbSpline
 70
0
 71
3
 72
11
 73
7
 74
0
 40
0.0
 40
0.0
 40
0.0
 40
0.0
 40
0.3382622021076159
 40
0.3382622021076159
 40
0.3382622021076159
 40
0.7449689427538193
 40
0.7449689427538193
 40
0.7449689427538193
 40
0.7449689427538193
 10
-140.43628334213935
 20
8.407099278104184
 30
0.0
 10
-140.53596606489018
 20
7.748913172621891
 30
0.0
 10
-140.739083813351
 20
7.13320769805975
 30
0.0
 10
-141.01904811095642
 20
6.632967151361312
 30
0.0
 10
-141.35511888159397
 20
6.028178553621718
 30
0.0
 10
-141.79351704750974
 20
5.5931125159104464
 30
0.0
 10
-142.26082056159464
 20
5.324478438907126
 30
0.0
  0
SPLINE
  5
7D
330
17
100
AcDbEntity
  8
VISIBLE
100
AcDbSpline
 70
0
 71
2
 72
6
 73
3
 74
0
 40
0.0
 40
0.0
 40
0.0
 40
1.0
 40
1.0
 40
1.0
 10
-142.26082056159464
 20
5.324478438907126
 30
0.0
 10
-142.70367233287055
 20
5.072653542293693
 30
0.0
 10
-143.16918676192248
 20
4.993613738810484
 30
0.0
  0
SPLINE
  5
7E
330
17
100
AcDbEntity
  8
VISIBLE
100
AcDbSpline
 70
0
 71
3
 72
17
 73
13
 74
0
 40
0.0
 40
0.0
 40
0.0
 40
0.0
 40
0.15892147992998898
 40
0.15892147992998898
 40
0.15892147992998898
 40
0.20444435730127636
 40
0.20444435730127636
 40
0.20444435730127636
 40
0.31281364187967575
 40
0.31281364187967575
 40
0.31281364187967575
 40
0.4059760419166132
 40
0.4059760419166132
 40
0.4059760419166132
 40
0.4059760419166132
 10
-147.59312166198595
 20
7.5477737442395085
 30
0.0
 10
-148.2211371948695
 20
8.511955097851608
 30
0.0
 10
-148.7262583362725
 20
9.734142117136996
 30
0.0
 10
-148.92198196261504
 20
11.122256909871163
 30
0.0
 10
-148.97818359881427
 20
11.520330005021481
 30
0.0
 10
-149.0041980660163
 20
11.924374717888231
 30
0.0
 10
-149.00002536422105
 20
12.334391048471403
 30
0.0
 10
-148.99194433118146
 20
13.305762344943131
 30
0.0
 10
-148.77271398184436
 20
14.280582101761054
 30
0.0
 10
-148.37336355893302
 20
15.016878863114488
 30
0.0
 10
-148.03328347187025
 20
15.654260671164293
 30
0.0
 10
-147.57984344569232
 20
16.111468509393358
 30
0.0
 10
-147.09702746841327
 20
16.38869957620996
 30
0.0
  0
SPLINE
  5
7F
330
17
100
AcDbEntity
  8
VISIBLE
100
AcDbSpline
 70
0
 71
3
 72
20
 73
16
 74
0
 40
0.0
 40
0.0
 40
0.0
 40
0.0
 40
0.24834429376983388
 40
0.24834429376983388
 40
0.24834429376983388
 40
0.4476850492359229
 40
0.4476850492359229
 40
0.4476850492359229
 40
0.6470258047020121
 40
0.6470258047020121
 40
0.6470258047020121
 40
0.83264097282586
 40
0.83264097282586
 40
0.83264097282586
 40
1.0
 40
1.0
 40
1.0
 40
1.0
 10
-147.09702746841327
 20
16.38869957620996
 30
0.0
 10
-146.32785132367272
 20
16.829394261404065
 30
0.0
 10
-145.49410571051635
 20
16.85083336984952
 30
0.0
 10
-144.70887704989434
 20
16.608216756662365
 30
0.0
 10
-144.07678855875926
 20
16.411324925890003
 30
0.0
 10
-143.4693615394746
 20
16.04181804535539
 30
0.0
 10
-142.91014113114062
 20
15.530461681426369
 30
0.0
 10
-142.3514407911055
 20
15.018232244384498
 30
0.0
 10
-141.84072163091292
 20
14.363821605189456
 30
0.0
 10
-141.41488334170361
 20
13.576841162341191
 30
0.0
 10
-141.0195256794701
 20
12.844581851556221
 30
0.0
 10
-140.69646583011402
 20
11.992527979382926
 30
0.0
 10
-140.51267566942732
 20
11.051225217745547
 30
0.0
 10
-140.34701468148126
 20
10.206202117613865
 30
0.0
 10
-140.3016775916001
 20
9.280223019228641
 30
0.0
 10
-140.43628334213932
 20
8.407099278104186
 30
0.0
  0
SPLINE
  5
80
330
17
100
AcDbEntity
  8
VISIBLE
100
AcDbSpline
 70
0
 71
3
 72
14
 73
10
 74
0
 40
0.0
 40
0.0
 40
0.0
 40
0.0
 40
0.5491711366563503
 40
0.5491711366563503
 40
0.5491711366563503
 40
0.774585568328175
 40
0.774585568328175
 40
0.774585568328175
 40
1.0
 40
1.0
 40
1.0
 40
1.0
 10
-141.24110015731662
 20
6.278077956889888
 30
0.0
 10
-141.61419157537176
 20
6.410279479606283
 30
0.0
 10
-142.1826186624921
 20
6.687397014981183
 30
0.0
 10
-143.00409177612804
 20
7.172334682752708
 30
0.0
 10
-143.3426072160872
 20
7.371920335470854
 30
0.0
 10
-143.72125522428004
 20
7.60689070853026
 30
0.0
 10
-144.1400358007066
 20
7.877245801930923
 30
0.0
 10
-144.55667099214088
 20
8.14662676865996
 30
0.0
 10
-145.0095776027161
 20
8.45062015472899
 30
0.0
 10
-145.47180131842632
 20
8.772518615631096
 30
0.0
  0
SPLINE
  5
81
330
17
100
AcDbEntity
  8
VISIBLE
100
AcDbSpline
 70
0
 71
3
 72
17
 73
13
 74
0
 40
0.0
 40
0.0
 40
0.0
 40
0.0
 40
0.15186022974044508
 40
0.15186022974044508
 40
0.15186022974044508
 40
0.2200651082178999
 40
0.2200651082178999
 40
0.2200651082178999
 40
0.2676144812916448
 40
0.2676144812916448
 40
0.2676144812916448
 40
0.34540472237619446
 40
0.34540472237619446
 40
0.34540472237619446
 40
0.34540472237619446
 10
-145.47180131842632
 20
8.772518615631093
 30
0.0
 10
-146.08950197051703
 20
9.684574660614455
 30
0.0
 10
-146.6075653080331
 20
10.832457168363387
 30
0.0
 10
-146.85656661425043
 20
12.142490098942975
 30
0.0
 10
-146.96717964433094
 20
12.728500655662664
 30
0.0
 10
-147.01919865407197
 20
13.344545645369829
 30
0.0
 10
-146.99097609257015
 20
13.948120004684803
 30
0.0
 10
-146.97162662021674
 20
14.368438663143603
 30
0.0
 10
-146.91304017916607
 20
14.781074800812771
 30
0.0
 10
-146.81542161130568
 20
15.16407420908352
 30
0.0
 10
-146.65663133800106
 20
15.792360235665157
 30
0.0
 10
-146.3921494344994
 20
16.332487541305582
 30
0.0
 10
-146.06892545410133
 20
16.737956004553844
 30
0.0
  0
SPLINE
  5
82
330
17
100
AcDbEntity
  8
VISIBLE
100
AcDbSpline
 70
0
 71
3
 72
17
 73
13
 74
0
 40
0.0
 40
0.0
 40
0.0
 40
0.0
 40
0.18434868397735227
 40
0.18434868397735227
 40
0.18434868397735227
 40
0.46774029054260746
 40
0.46774029054260746
 40
0.46774029054260746
 40
0.7511318971078625
 40
0.7511318971078625
 40
0.7511318971078625
 40
1.0
 40
1.0
 40
1.0
 40
1.0
 10
22.24198766054658
 20
-88.10892680367915
 30
0.0
 10
22.065872121134394
 20
-88.04628303571256
 30
0.0
 10
21.860807894324715
 20
-87.95754684997074
 30
0.0
 10
21.626794980117612
 20
-87.84271824645388
 30
0.0
 10
21.270353283570678
 20
-87.66817931660123
 30
0.0
 10
20.86528782617855
 20
-87.44374375652113
 30
0.0
 10
20.445397509637143
 20
-87.1947830052257
 30
0.0
 10
20.024826455505142
 20
-86.94538502085165
 30
0.0
 10
19.589647830334524
 20
-86.67181610670126
 30
0.0
 10
19.154573648711875
 20
-86.38714054402129
 30
0.0
 10
18.771275213646444
 20
-86.13605962889639
 30
0.0
 10
18.39017949471034
 20
-85.87850816076075
 30
0.0
 10
18.011286491903544
 20
-85.61448613961409
 30
0.0
  0
SPLINE
  5
83
330
17
100
AcDbEntity
  8
VISIBLE
100
AcDbSpline
 70
0
 71
3
 72
17
 73
13
 74
0
 40
0.0
 40
0.0
 40
0.0
 40
0.0
 40
0.09904257466778577
 40
0.09904257466778577
 40
0.09904257466778577
 40
0.15834769214313055
 40
0.15834769214313055
 40
0.15834769214313055
 40
0.23750040806201733
 40
0.23750040806201733
 40
0.23750040806201733
 40
0.3408000946040716
 40
0.3408000946040716
 40
0.3408000946040716
 40
0.3408000946040716
 10
18.0112864919035
 20
-85.61448613961404
 30
0.0
 10
17.587253239037043
 20
-84.98924093280883
 30
0.0
 10
17.20533229337199
 20
-84.24341574428857
 30
0.0
 10
16.92545190007036
 20
-83.39838358848242
 30
0.0
 10
16.758243822124324
 20
-82.89353711805103
 30
0.0
 10
16.629274604209062
 20
-82.35390881563833
 30
0.0
 10
16.55571172530515
 20
-81.80604485543083
 30
0.0
 10
16.456191330058317
 20
-81.07526358952637
 30
0.0
 10
16.461149682623784
 20
-80.33377255866172
 30
0.0
 10
16.571619004259556
 20
-79.68111537911228
 30
0.0
 10
16.714010938656433
 20
-78.82465199700623
 30
0.0
 10
17.026327430850568
 20
-78.13554004317922
 30
0.0
 10
17.41416233244062
 20
-77.64904877234501
 30
0.0
  0
SPLINE
  5
84
330
17
100
AcDbEntity
  8
VISIBLE
100
AcDbSpline
 70
0
 71
1
 72
4
 73
2
 74
0
 40
0.0
 40
0.0
 40
1.0
 40
1.0
 10
29.74853327186042
 20
-93.81924175529828
 30
0.0
 10
30.216413866807464
 20
-57.948053756159126
 30
0.0
  0
SPLINE
  5
85
330
17
100
AcDbEntity
  8
VISIBLE
100
AcDbSpline
 70
0
 71
1
 72
4
 73
2
 74
0
 40
0.0
 40
0.0
 40
1.0
 40
1.0
 10
74.62063553842042
 20
-80.40081835006711
 30
0.0
 10
73.16652041843794
 20
-61.52817125786598
 30
0.0
  0
SPLINE
  5
86
330
17
100
AcDbEntity
  8
VISIBLE
100
AcDbSpline
 70
0
 71
3
 72
17
 73
13
 74
0
 40
0.0
 40
0.0
 40
0.0
 40
0.0
 40
0.27877735035685486
 40
0.27877735035685486
 40
0.27877735035685486
 40
0.46480803927605074
 40
0.46480803927605074
 40
0.46480803927605074
 40
0.5790297097601671
 40
0.5790297097601671
 40
0.5790297097601671
 40
1.0
 40
1.0
 40
1.0
 40
1.0
 10
73.0513242675591
 20
-84.7156735968684
 30
0.0
 10
72.91548607349368
 20
-84.24732034031496
 30
0.0
 10
72.84980971787478
 20
-83.72477585880303
 30
0.0
 10
72.899933141651
 20
-83.2157941347373
 30
0.0
 10
72.93205577543111
 20
-82.87690073854331
 30
0.0
 10
73.01363822241207
 20
-82.55046058618183
 30
0.0
 10
73.12989610021009
 20
-82.256564157273
 30
0.0
 10
73.20180702631589
 20
-82.07580017560755
 30
0.0
 10
73.28422626753539
 20
-81.90657569115204
 30
0.0
 10
73.37715382386845
 20
-81.74889070390637
 30
0.0
 10
73.71976348061119
 20
-81.1680547072276
 30
0.0
 10
74.16193962163157
 20
-80.74302988375831
 30
0.0
 10
74.6206355384204
 20
-80.40081835006711
 30
0.0
  0
SPLINE
  5
87
330
17
100
AcDbEntity
  8
VISIBLE
100
AcDbSpline
 70
0
 71
2
 72
6
 73
3
 74
0
 40
0.0
 40
0.0
 40
0.0
 40
1.0
 40
1.0
 40
1.0
 10
75.65330794940152
 20
-93.80365125268749
 30
0.0
 10
74.35490322753881
 20
-89.25644004077611
 30
0.0
 10
73.05132426755912
 20
-84.7156735968684
 30
0.0
  0
SPLINE
  5
88
330
17
100
AcDbEntity
  8
VISIBLE
100
AcDbSpline
 70
0
 71
1
 72
4
 73
2
 74
0
 40
0.0
 40
0.0
 40
0.09642850971664163
 40
0.09642850971664163
 10
75.9186961540665
 20
-97.24806762677416
 30
0.0
 10
75.65330794940154
 20
-93.80365125268746
 30
0.0
  0
SPLINE
  5
89
330
17
100
AcDbEntity
  8
VISIBLE
100
AcDbSpline
 70
0
 71
2
 72
6
 73
3
 74
0
 40
0.0
 40
0.0
 40
0.0
 40
1.0
 40
1.0
 40
1.0
 10
76.25133521847943
 20
-95.95291146146081
 30
0.0
 10
75.96015975660194
 20
-94.87930288312897
 30
0.0
 10
75.65330794940151
 20
-93.80365125268739
 30
0.0
  0
SPLINE
  5
8A
330
17
100
AcDbEntity
  8
VISIBLE
100
AcDbSpline
 70
0
 71
3
 72
8
 73
4
 74
0
 40
0.0
 40
0.0
 40
0.0
 40
0.0
 40
1.0
 40
1.0
 40
1.0
 40
1.0
 10
76.79656291563887
 20
-97.27576731449385
 30
0.0
 10
76.57085141340005
 20
-96.86437686480996
 30
0.0
 10
76.37952965813287
 20
-96.423843307978
 30
0.0
 10
76.25133521847943
 20
-95.95291146146084
 30
0.0
  0
SPLINE
  5
8B
330
17
100
AcDbEntity
  8
VISIBLE
100
AcDbSpline
 70
0
 71
2
 72
6
 73
3
 74
0
 40
0.0
 40
0.0
 40
0.0
 40
0.7624743489588104
 40
0.7624743489588104
 40
0.7624743489588104
 10
77.59606539563103
 20
-95.0961856364107
 30
0.0
 10
77.0424081529331
 20
-95.4154569576547
 30
0.0
 10
76.36395643387988
 20
-95.64058377385464
 30
0.0
  0
SPLINE
  5
8C
330
17
100
AcDbEntity
  8
VISIBLE
100
AcDbSpline
 70
0
 71
1
 72
4
 73
2
 74
0
 40
0.0
 40
0.0
 40
1.0
 40
1.0
 10
76.36395643387988
 20
-95.64058377385464
 30
0.0
 10
76.18205480400235
 20
-95.6984208343832
 30
0.0
  0
SPLINE
  5
8D
330
17
100
AcDbEntity
  8
VISIBLE
100
AcDbSpline
 70
0
 71
1
 72
4
 73
2
 74
0
 40
0.0
 40
0.0
 40
1.0
 40
1.0
 10
149.50862933275428
 20
-53.577447489196395
 30
0.0
 10
77.596065395631
 20
-95.09618563641067
 30
0.0
  0
SPLINE
  5
8E
330
17
100
AcDbEntity
  8
VISIBLE
100
AcDbSpline
 70
0
 71
3
 72
8
 73
4
 74
0
 40
0.0
 40
0.0
 40
0.0
 40
0.0
 40
1.0
 40
1.0
 40
1.0
 40
1.0
 10
150.67527289562662
 20
-52.617903309453034
 30
0.0
 10
150.38654501566072
 20
-52.973544015843004
 30
0.0
 10
149.98984835692923
 20
-53.2998196778166
 30
0.0
 10
149.50862933275434
 20
-53.57744748919642
 30
0.0
  0
SPLINE
  5
8F
330
17
100
AcDbEntity
  8
VISIBLE
100
AcDbSpline
 70
0
 71
2
 72
6
 73
3
 74
0
 40
0.0
 40
0.0
 40
0.0
 40
1.0
 40
1.0
 40
1.0
 10
161.24579789460105
 20
-48.51897876653207
 30
0.0
 10
161.08627963728125
 20
-47.794684990831755
 30
0.0
 10
160.89201692650903
 20
-47.08559109293636
 30
0.0
  0
SPLINE
  5
90
330
17
100
AcDbEntity
  8
VISIBLE
100
AcDbSpline
 70
0
 71
3
 72
8
 73
4
 74
0
 40
0.0
 40
0.0
 40
0.0
 40
0.0
 40
1.0
 40
1.0
 40
1.0
 40
1.0
 10
151.98410062495154
 20
-50.30522830379774
 30
0.0
 10
151.623059929097
 20
-51.22896944991376
 30
0.0
 10
151.15328029769222
 20
-52.02608417266853
 30
0.0
 10
150.6752728956266
 20
-52.617903309453034
 30
0.0
  0
SPLINE
  5
91
330
17
100
AcDbEntity
  8
VISIBLE
100
AcDbSpline
 70
0
 71
3
 72
20
 73
16
 74
0
 40
0.0
 40
0.0
 40
0.0
 40
0.0
 40
0.219192695415979
 40
0.219192695415979
 40
0.219192695415979
 40
0.5554189128469357
 40
0.5554189128469357
 40
0.5554189128469357
 40
0.7105535834406519
 40
0.7105535834406519
 40
0.7105535834406519
 40
0.8099703639143787
 40
0.8099703639143787
 40
0.8099703639143787
 40
1.0
 40
1.0
 40
1.0
 40
1.0
 10
157.36602535465116
 20
-46.278991046197454
 30
0.0
 10
156.98746903514035
 20
-46.361671476936145
 30
0.0
 10
156.5906807093062
 20
-46.47570416639248
 30
0.0
 10
156.17566037714855
 20
-46.62108911456636
 30
0.0
 10
155.5403191275837
 20
-46.849736543542846
 30
0.0
 10
154.8432853510848
 20
-47.161640328173945
 30
0.0
 10
154.1053389636225
 20
-47.68289444984132
 30
0.0
 10
153.7677360565499
 20
-47.92261897788369
 30
0.0
 10
153.42475938749322
 20
-48.21265120958336
 30
0.0
 10
153.12247812906097
 20
-48.53255149777408
 30
0.0
 10
152.92768287623082
 20
-48.73897264868551
 30
0.0
 10
152.75476038021887
 20
-48.94861431895049
 30
0.0
 10
152.60371064102523
 20
-49.16147650856904
 30
0.0
 10
152.31612912467264
 20
-49.56565165128195
 30
0.0
 10
152.1207250820535
 20
-49.95247491604549
 30
0.0
 10
151.98410062495148
 20
-50.30522830379772
 30
0.0
  0
SPLINE
  5
92
330
17
100
AcDbEntity
  8
VISIBLE
100
AcDbSpline
 70
0
 71
3
 72
8
 73
4
 74
0
 40
0.0
 40
0.0
 40
0.0
 40
0.0
 40
1.0
 40
1.0
 40
1.0
 40
1.0
 10
157.36602535465116
 20
-46.278991046197454
 30
0.0
 10
157.2582257935177
 20
-45.820870744241475
 30
0.0
 10
157.1448299314098
 20
-45.339184206008746
 30
0.0
 10
157.03126368339136
 20
-44.85658416874764
 30
0.0
  0
SPLINE
  5
93
330
17
100
AcDbEntity
  8
VISIBLE
100
AcDbSpline
 70
0
 71
2
 72
6
 73
3
 74
0
 40
0.0
 40
0.0
 40
0.0
 40
1.0
 40
1.0
 40
1.0
 10
160.89201692650906
 20
-47.085591092936355
 30
0.0
 10
160.6008414646315
 20
-46.01198251460454
 30
0.0
 10
160.29398965743127
 20
-44.93633088416306
 30
0.0
  0
SPLINE
  5
94
330
17
100
AcDbEntity
  8
VISIBLE
100
AcDbSpline
 70
0
 71
1
 72
4
 73
2
 74
0
 40
0.0
 40
0.0
 40
0.0964285097166431
 40
0.0964285097166431
 10
161.1978206281168
 20
-48.01214215542561
 30
0.0
 10
160.29398965743127
 20
-44.936330884163006
 30
0.0
  0
SPLINE
  5
95
330
17
100
AcDbEntity
  8
VISIBLE
100
AcDbSpline
 70
0
 71
2
 72
6
 73
3
 74
0
 40
0.0
 40
0.0
 40
0.0
 40
1.0
 40
1.0
 40
1.0
 10
157.69200597558887
 20
-35.84835322834399
 30
0.0
 10
158.9955727128671
 20
-40.389077004258965
 30
0.0
 10
160.29398965743127
 20
-44.93633088416312
 30
0.0
  0
SPLINE
  5
96
330
17
100
AcDbEntity
  8
VISIBLE
100
AcDbSpline
 70
0
 71
3
 72
14
 73
10
 74
0
 40
0.0
 40
0.0
 40
0.0
 40
0.0
 40
0.4177145570996358
 40
0.4177145570996358
 40
0.4177145570996358
 40
0.720695123894208
 40
0.720695123894208
 40
0.720695123894208
 40
1.0
 40
1.0
 40
1.0
 40
1.0
 10
156.7770236008745
 20
-32.96780558656189
 30
0.0
 10
156.81033498574214
 20
-33.025328182259315
 30
0.0
 10
156.8664460512835
 20
-33.16077512592207
 30
0.0
 10
156.97286363772676
 20
-33.47611460888214
 30
0.0
 10
157.05028859431079
 20
-33.70422560820542
 30
0.0
 10
157.15687612236434
 20
-34.04191408888662
 30
0.0
 10
157.29262622188782
 20
-34.48918005092599
 30
0.0
 10
157.41644643602197
 20
-34.89823702244752
 30
0.0
 10
157.55715474813593
 20
-35.378471214935054
 30
0.0
 10
157.69200597558884
 20
-35.84835322834398
 30
0.0
  0
SPLINE
  5
97
330
17
100
AcDbEntity
  8
VISIBLE
100
AcDbSpline
 70
0
 71
1
 72
4
 73
2
 74
0
 40
0.0
 40
0.0
 40
1.0
 40
1.0
 10
156.77702360087451
 20
-32.96780558656191
 30
0.0
 10
151.8247527113621
 20
-16.114819669566124
 30
0.0
  0
SPLINE
  5
98
330
17
100
AcDbEntity
  8
VISIBLE
100
AcDbSpline
 70
0
 71
1
 72
4
 73
2
 74
0
 40
0.0
 40
0.0
 40
1.0
 40
1.0
 10
155.25892000841395
 20
-21.35578618685507
 30
0.0
 10
145.62380730133924
 20
8.682435909740846
 30
0.0
  0
SPLINE
  5
99
330
17
100
AcDbEntity
  8
VISIBLE
100
AcDbSpline
 70
0
 71
3
 72
14
 73
10
 74
0
 40
0.0
 40
0.0
 40
0.0
 40
0.0
 40
0.29246036244698437
 40
0.29246036244698437
 40
0.29246036244698437
 40
0.5077942114517421
 40
0.5077942114517421
 40
0.5077942114517421
 40
1.0
 40
1.0
 40
1.0
 40
1.0
 10
-23.03104899351271
 20
87.51382389092956
 30
0.0
 10
-23.170580951135193
 20
87.04210038421348
 30
0.0
 10
-23.155023402839237
 20
86.39856739223949
 30
0.0
 10
-22.988441682167675
 20
85.7043751449661
 30
0.0
 10
-22.867669709900966
 20
85.1937091386769
 30
0.0
 10
-22.672051263876767
 20
84.6617486689049
 30
0.0
 10
-22.43124092262606
 20
84.14784173749352
 30
0.0
 10
-21.87680708297392
 20
82.96805314624845
 30
0.0
 10
-21.1105148792398
 20
81.898177294276
 30
0.0
 10
-20.31390104840743
 20
81.0324660277349
 30
0.0
  0
SPLINE
  5
9A
330
17
100
AcDbEntity
  8
VISIBLE
100
AcDbSpline
 70
0
 71
3
 72
17
 73
13
 74
0
 40
0.0
 40
0.0
 40
0.0
 40
0.0
 40
0.21098926119962633
 40
0.21098926119962633
 40
0.21098926119962633
 40
0.5228803853139682
 40
0.5228803853139682
 40
0.5228803853139682
 40
0.7061809287669218
 40
0.7061809287669218
 40
0.7061809287669218
 40
1.0
 40
1.0
 40
1.0
 40
1.0
 10
140.4520388314928
 20
-6.873180866728623
 30
0.0
 10
140.3628470604892
 20
-7.171849497392891
 30
0.0
 10
140.3370794616842
 20
-7.537943297241837
 30
0.0
 10
140.37473603507829
 20
-7.971462266275483
 30
0.0
 10
140.43177951634206
 20
-8.607935625316527
 30
0.0
 10
140.65962603130149
 20
-9.389514099122762
 30
0.0
 10
141.01904811090606
 20
-10.168398438697926
 30
0.0
 10
141.22885158046512
 20
-10.625919516868306
 30
0.0
 10
141.47939220369298
 20
-11.079790173365494
 30
0.0
 10
141.7513380973194
 20
-11.508556875471397
 30
0.0
 10
142.1880412778597
 20
-12.19719862215324
 30
0.0
 10
142.67643186759918
 20
-12.81955288895914
 30
0.0
 10
143.1691867619224
 20
-13.354538727510272
 30
0.0
  0
SPLINE
  5
9B
330
17
100
AcDbEntity
  8
VISIBLE
100
AcDbSpline
 70
0
 71
3
 72
20
 73
16
 74
0
 40
0.0
 40
0.0
 40
0.0
 40
0.0
 40
0.08003738255879217
 40
0.08003738255879217
 40
0.08003738255879217
 40
0.15519860646397615
 40
0.15519860646397615
 40
0.15519860646397615
 40
0.30772355880286056
 40
0.30772355880286056
 40
0.30772355880286056
 40
0.5170170118403757
 40
0.5170170118403757
 40
0.5170170118403757
 40
0.5933917221877206
 40
0.5933917221877206
 40
0.5933917221877206
 40
0.5933917221877206
 10
146.94927454741403
 20
-14.444781023641731
 30
0.0
 10
146.86679808018334
 20
-13.861056755451223
 30
0.0
 10
146.6692095794389
 20
-13.199268958572887
 30
0.0
 10
146.38881149523877
 20
-12.551240527940974
 30
0.0
 10
146.12621835701705
 20
-11.94170146114226
 30
0.0
 10
145.796392466013
 20
-11.34841159424586
 30
0.0
 10
145.4400874782184
 20
-10.809656985160549
 30
0.0
 10
144.71262460762753
 20
-9.711860992221842
 30
0.0
 10
143.8916965879775
 20
-8.8384177421872
 30
0.0
 10
143.10432758539025
 20
-8.197853656953411
 30
0.0
 10
142.0209693976877
 20
-7.321181791015594
 30
0.0
 10
140.97279654149165
 20
-6.850391981294335
 30
0.0
 10
140.10617151904648
 20
-6.850137740249297
 30
0.0
 10
139.78811663198272
 20
-6.849624857613496
 30
0.0
 10
139.50213604808846
 20
-6.920845132638506
 30
0.0
 10
139.24822976736402
 20
-7.063798565324374
 30
0.0
  0
SPLINE
  5
9C
330
17
100
AcDbEntity
  8
VISIBLE
100
AcDbSpline
 70
0
 71
3
 72
20
 73
16
 74
0
 40
0.0
 40
0.0
 40
0.0
 40
0.0
 40
0.19363357002316198
 40
0.19363357002316198
 40
0.19363357002316198
 40
0.3783510400398793
 40
0.3783510400398793
 40
0.3783510400398793
 40
0.5019229519263778
 40
0.5019229519263778
 40
0.5019229519263778
 40
0.7597078612209118
 40
0.7597078612209118
 40
0.7597078612209118
 40
1.0
 40
1.0
 40
1.0
 40
1.0
 10
139.24822976736405
 20
-7.063798565324374
 30
0.0
 10
138.98933110024134
 20
-7.213377928575518
 30
0.0
 10
138.77162381426083
 20
-7.446539946806299
 30
0.0
 10
138.6223673453632
 20
-7.78003021886361
 30
0.0
 10
138.4801161525269
 20
-8.097318869031453
 30
0.0
 10
138.40174176062882
 20
-8.509230171553357
 30
0.0
 10
138.41648541978867
 20
-9.008382477247329
 30
0.0
 10
138.42589967365538
 20
-9.344422478060782
 30
0.0
 10
138.47766898750658
 20
-9.709547772399603
 30
0.0
 10
138.57179336134263
 20
-10.103758360263802
 30
0.0
 10
138.7666293417538
 20
-10.921975571320363
 30
0.0
 10
139.15118039353635
 20
-11.812103375352633
 30
0.0
 10
139.61483775341816
 20
-12.604227931851131
 30
0.0
 10
140.04757907058377
 20
-13.346556424965891
 30
0.0
 10
140.54334550045448
 20
-14.012159068175576
 30
0.0
 10
141.04786641836276
 20
-14.579283598901858
 30
0.0
  0
SPLINE
  5
9D
330
17
100
AcDbEntity
  8
VISIBLE
100
AcDbSpline
 70
0
 71
3
 72
17
 73
13
 74
0
 40
0.0
 40
0.0
 40
0.0
 40
0.0
 40
0.2960611437236791
 40
0.2960611437236791
 40
0.2960611437236791
 40
0.5921222874473582
 40
0.5921222874473582
 40
0.5921222874473582
 40
0.7960611437236791
 40
0.7960611437236791
 40
0.7960611437236791
 40
1.0
 40
1.0
 40
1.0
 40
1.0
 10
141.04786641836273
 20
-14.579283598901856
 30
0.0
 10
141.2263660136518
 20
-15.09113354751952
 30
0.0
 10
141.47096549999335
 20
-15.56259409805864
 30
0.0
 10
141.79295062937288
 20
-15.970834184110682
 30
0.0
 10
142.1150057490841
 20
-16.37825552135051
 30
0.0
 10
142.51452614674773
 20
-16.72246852747851
 30
0.0
 10
143.00409177612764
 20
-16.958352802300897
 30
0.0
 10
143.34111357773375
 20
-17.12061116156131
 30
0.0
 10
143.72274886263284
 20
-17.230056837245677
 30
0.0
 10
144.14003580070636
 20
-17.26466667128007
 30
0.0
 10
144.55667099214062
 20
-17.29982442032211
 30
0.0
 10
145.00957760271604
 20
-17.258551729877716
 30
0.0
 10
145.47180131842632
 20
-17.133443604330928
 30
0.0
  0
SPLINE
  5
9E
330
17
100
AcDbEntity
  8
VISIBLE
100
AcDbSpline
 70
0
 71
2
 72
6
 73
3
 74
0
 40
0.0
 40
0.0
 40
0.0
 40
0.2587539764195642
 40
0.2587539764195642
 40
0.2587539764195642
 10
145.4718013184263
 20
-17.133443604330928
 30
0.0
 10
145.85281829750141
 20
-17.1040436745161
 30
0.0
 10
146.16503792867402
 20
-16.926783984472046
 30
0.0
  0
SPLINE
  5
9F
330
17
100
AcDbEntity
  8
VISIBLE
100
AcDbSpline
 70
0
 71
3
 72
11
 73
7
 74
0
 40
0.0
 40
0.0
 40
0.0
 40
0.0
 40
0.48213181123178656
 40
0.48213181123178656
 40
0.48213181123178656
 40
1.0
 40
1.0
 40
1.0
 40
1.0
 10
146.16503792867405
 20
-16.92678398447205
 30
0.0
 10
146.45029954666512
 20
-16.76191300840964
 30
0.0
 10
146.68496296523054
 20
-16.496101492108266
 30
0.0
 10
146.83329318362013
 20
-16.10802026893224
 30
0.0
 10
146.99294950871902
 20
-15.693160584524515
 30
0.0
 10
147.04777152470032
 20
-15.12732559722634
 30
0.0
 10
146.94927454741403
 20
-14.444781023641731
 30
0.0
  0
SPLINE
  5
A0
330
17
100
AcDbEntity
  8
VISIBLE
100
AcDbSpline
 70
0
 71
3
 72
20
 73
16
 74
0
 40
0.0
 40
0.0
 40
0.0
 40
0.0
 40
0.10416198145386699
 40
0.10416198145386699
 40
0.10416198145386699
 40
0.16573452018025675
 40
0.16573452018025675
 40
0.16573452018025675
 40
0.3537105844294719
 40
0.3537105844294719
 40
0.3537105844294719
 40
0.4983291519587051
 40
0.4983291519587051
 40
0.4983291519587051
 40
0.595065757971286
 40
0.595065757971286
 40
0.595065757971286
 40
0.595065757971286
 10
-16.533813262915768
 20
79.94222373160343
 30
0.0
 10
-16.643953941185888
 20
80.71819429046157
 30
0.0
 10
-16.9419260922544
 20
81.56433229680572
 30
0.0
 10
-17.32666043458991
 20
82.33684295227077
 30
0.0
 10
-17.556597297981927
 20
82.79671792613354
 30
0.0
 10
-17.809808234958965
 20
83.23190518011913
 30
0.0
 10
-18.086293245521063
 20
83.64240471422737
 30
0.0
 10
-18.927532988797036
 20
84.89302073581428
 30
0.0
 10
-19.903721115634973
 20
85.87818438417483
 30
0.0
 10
-20.861142985945566
 20
86.5549689885549
 30
0.0
 10
-21.59896271897373
 20
87.07398273030725
 30
0.0
 10
-22.336010671800672
 20
87.4148244784543
 30
0.0
 10
-23.010463202171923
 20
87.51100429678365
 30
0.0
 10
-23.460382916289987
 20
87.57406996039545
 30
0.0
 10
-23.88301969513156
 20
87.52572222668306
 30
0.0
 10
-24.234858072650972
 20
87.32320618680045
 30
0.0
  0
SPLINE
  5
A1
330
17
100
AcDbEntity
  8
VISIBLE
100
AcDbSpline
 70
0
 71
3
 72
17
 73
13
 74
0
 40
0.0
 40
0.0
 40
0.0
 40
0.0
 40
0.25279903682591304
 40
0.25279903682591304
 40
0.25279903682591304
 40
0.516309279878245
 40
0.516309279878245
 40
0.516309279878245
 40
0.6241601585879495
 40
0.6241601585879495
 40
0.6241601585879495
 40
1.0
 40
1.0
 40
1.0
 40
1.0
 10
-24.234858072650972
 20
87.32320618680045
 30
0.0
 10
-24.6061880533079
 20
87.11083829873711
 30
0.0
 10
-24.89663787053272
 20
86.71321716721114
 30
0.0
 10
-25.011998569538935
 20
86.1183808398152
 30
0.0
 10
-25.1366465286897
 20
85.50353227097227
 30
0.0
 10
-25.050395035563838
 20
84.68064606096439
 30
0.0
 10
-24.79357765066153
 20
83.85339427633463
 30
0.0
 10
-24.68863107949997
 20
83.51329641833253
 30
0.0
 10
-24.561879439481856
 20
83.17689367757963
 30
0.0
 10
-24.413322730607142
 20
82.84418605407596
 30
0.0
 10
-23.896380002274448
 20
81.68590476146646
 30
0.0
 10
-23.181966798094024
 20
80.64787852659411
 30
0.0
 10
-22.435221391967065
 20
79.8077211563433
 30
0.0
  0
SPLINE
  5
A2
330
17
100
AcDbEntity
  8
VISIBLE
100
AcDbSpline
 70
0
 71
3
 72
14
 73
10
 74
0
 40
0.0
 40
0.0
 40
0.0
 40
0.0
 40
0.24107453477375632
 40
0.24107453477375632
 40
0.24107453477375632
 40
0.7684398503903719
 40
0.7684398503903719
 40
0.7684398503903719
 40
1.0
 40
1.0
 40
1.0
 40
1.0
 10
-22.43522139196706
 20
79.80772115634329
 30
0.0
 10
-22.234169614965463
 20
79.22841295694055
 30
0.0
 10
-21.952625805231825
 20
78.72837261422134
 30
0.0
 10
-21.626794980117808
 20
78.33801185879508
 30
0.0
 10
-20.9092072119289
 20
77.4803101396262
 30
0.0
 10
-20.019881831793608
 20
77.13721179442992
 30
0.0
 10
-19.154573648713068
 20
77.1118125318147
 30
0.0
 10
-18.771275213647304
 20
77.10264625471086
 30
0.0
 10
-18.390179494710775
 20
77.14989579441077
 30
0.0
 10
-18.011286491903512
 20
77.25356115091422
 30
0.0
  0
SPLINE
  5
A3
330
17
100
AcDbEntity
  8
VISIBLE
100
AcDbSpline
 70
0
 71
2
 72
6
 73
3
 74
0
 40
0.0
 40
0.0
 40
0.0
 40
0.2569608920992009
 40
0.2569608920992009
 40
0.2569608920992009
 10
-18.011286491903512
 20
77.25356115091424
 30
0.0
 10
-17.633442215728945
 20
77.28203491574054
 30
0.0
 10
-17.318049855219655
 20
77.46022074085948
 30
0.0
  0
SPLINE
  5
A4
330
17
100
AcDbEntity
  8
VISIBLE
100
AcDbSpline
 70
0
 71
3
 72
11
 73
7
 74
0
 40
0.0
 40
0.0
 40
0.0
 40
0.0
 40
0.46569426177431067
 40
0.46569426177431067
 40
0.46569426177431067
 40
1.0
 40
1.0
 40
1.0
 40
1.0
 10
-17.318049855219652
 20
77.4602207408595
 30
0.0
 10
-17.03763912171366
 20
77.62174537097945
 30
0.0
 10
-16.804007811597295
 20
77.88469933961956
 30
0.0
 10
-16.656350974428808
 20
78.26202394266822
 30
0.0
 10
-16.48524513198433
 20
78.69203927166359
 30
0.0
 10
-16.437343219817343
 20
79.2809729386193
 30
0.0
 10
-16.533813262915753
 20
79.94222373160342
 30
0.0
  0
SPLINE
  5
A5
330
17
100
AcDbEntity
  8
VISIBLE
100
AcDbSpline
 70
0
 71
3
 72
11
 73
7
 74
0
 40
0.0
 40
0.0
 40
0.0
 40
0.0
 40
0.4270658331024816
 40
0.4270658331024816
 40
0.4270658331024816
 40
1.0
 40
1.0
 40
1.0
 40
1.0
 10
79.50292718779588
 20
-77.14700433129272
 30
0.0
 10
78.86016259431364
 20
-77.53929612274167
 30
0.0
 10
78.10913051843724
 20
-78.00758937640867
 30
0.0
 10
77.38136470037776
 20
-78.48424881328374
 30
0.0
 10
76.39933947533757
 20
-79.12635102381284
 30
0.0
 10
75.45736259115819
 20
-79.780682338295
 30
0.0
 10
74.6206355384204
 20
-80.40081835006711
 30
0.0
  0
SPLINE
  5
A6
330
17
100
AcDbEntity
  8
VISIBLE
100
AcDbSpline
 70
0
 71
1
 72
4
 73
2
 74
0
 40
0.0
 40
0.0
 40
1.0
 40
1.0
 10
154.36142938223617
 20
-33.92544393561513
 30
0.0
 10
154.47938508020093
 20
-33.859326184228
 30
0.0
  0
SPLINE
  5
A7
330
17
100
AcDbEntity
  8
VISIBLE
100
AcDbSpline
 70
0
 71
1
 72
4
 73
2
 74
0
 40
0.0
 40
0.0
 40
1.0
 40
1.0
 10
154.36142938223617
 20
-33.925443935615135
 30
0.0
 10
79.62024261081808
 20
-77.07728823764546
 30
0.0
  0
SPLINE
  5
A8
330
17
100
AcDbEntity
  8
VISIBLE
100
AcDbSpline
 70
0
 71
1
 72
4
 73
2
 74
0
 40
0.0
 40
0.0
 40
1.0
 40
1.0
 10
79.50292718779588
 20
-77.1470043312927
 30
0.0
 10
79.62024261081808
 20
-77.07728823764548
 30
0.0
  0
SPLINE
  5
A9
330
17
100
AcDbEntity
  8
VISIBLE
100
AcDbSpline
 70
0
 71
2
 72
6
 73
3
 74
0
 40
0.0
 40
0.0
 40
0.0
 40
0.08451484415243522
 40
0.08451484415243522
 40
0.08451484415243522
 10
156.77702360087451
 20
-32.967805586561916
 30
0.0
 10
156.7637990155766
 20
-32.945098901480215
 30
0.0
 10
156.73913729337863
 20
-32.930786535552
 30
0.0
  0
SPLINE
  5
AA
330
17
100
AcDbEntity
  8
VISIBLE
100
AcDbSpline
 70
0
 71
3
 72
11
 73
7
 74
0
 40
0.0
 40
0.0
 40
0.0
 40
0.0
 40
0.5335107478124284
 40
0.5335107478124284
 40
0.5335107478124284
 40
1.0
 40
1.0
 40
1.0
 40
1.0
 10
156.73913729337863
 20
-32.930786535551995
 30
0.0
 10
156.64361137257546
 20
-32.87596790468186
 30
0.0
 10
156.41860478886417
 20
-32.916114174166225
 30
0.0
 10
156.00518149160072
 20
-33.09076629025534
 30
0.0
 10
155.6460973782257
 20
-33.24160034327694
 30
0.0
 10
155.13052313526788
 20
-33.50458285229028
 30
0.0
 10
154.47938508020098
 20
-33.859326184228024
 30
0.0
  0
LINE
  5
AB
330
17
100
AcDbEntity
  8
VISIBLE
100
AcDbLine
 10
-80.20485341155475
 20
85.86817281310476
 30
0.0
 11
-145.13568452875117
 21
48.38033998888529
 31
0.0
  0
SPLINE
  5
AC
330
17
100
AcDbEntity
  8
VISIBLE
100
AcDbSpline
 70
0
 71
1
 72
4
 73
2
 74
0
 40
0.0
 40
0.0
 40
0.7877758913412566
 40
0.7877758913412566
 10
-75.1505179469209
 20
86.8509394510016
 30
0.0
 10
-72.98027404953496
 20
112.8943292891696
 30
0.0
  0
ELLIPSE
  5
AD
330
17
100
AcDbEntity
  8
VISIBLE
100
AcDbEllipse
 10
-75.96221272443547
 20
83.41868307032159
 30
0.0
 11
6.0
 21
-8.154716510502503e-17
 31
0.0
 40
0.5773502691896258
 41
1.4350977862000711
 42
2.356194490192345
  0
SPLINE
  5
AE
330
17
100
AcDbEntity
  8
VISIBLE
100
AcDbSpline
 70
0
 71
1
 72
4
 73
2
 74
0
 40
0.0
 40
0.0
 40
0.7877758913412566
 40
0.7877758913412566
 10
-30.229809858662886
 20
83.30983799922397
 30
0.0
 10
-30.59582233752458
 20
109.23615566259541
 30
0.0
  0
LINE
  5
AF
330
17
100
AcDbEntity
  8
VISIBLE
100
AcDbLine
 10
-30.229809858662872
 20
83.30983799922399
 30
0.0
 11
-75.1505179469209
 21
86.85093945100158
 31
0.0
  0
ELLIPSE
  5
B0
330
17
100
AcDbEntity
  8
VISIBLE
100
AcDbEllipse
 10
-31.041504636177454
 20
79.87758161854399
 30
0.0
 11
6.0
 21
-8.154716510502503e-17
 31
0.0
 40
0.5773502691896258
 41
0.7853981633974483
 42
1.4350977862000711
  0
LINE
  5
B1
330
17
100
AcDbEntity
  8
VISIBLE
100
AcDbLine
 10
-22.435221391967662
 20
79.80772115634366
 30
0.0
 11
-26.798863949058166
 21
82.32707136132717
 31
0.0
  0
LINE
  5
B2
330
17
100
AcDbEntity
  8
VISIBLE
100
AcDbLine
 10
141.0478664183629
 20
-14.57928359890194
 30
0.0
 11
-18.011286491902908
 21
77.2535611509139
 31
0.0
  0
LINE
  5
B3
330
17
100
AcDbEntity
  8
VISIBLE
100
AcDbLine
 10
148.62236056457513
 20
-18.952419833192813
 30
0.0
 11
145.47180131842615
 21
-17.133443604330836
 31
0.0
  0
SPLINE
  5
B4
330
17
100
AcDbEntity
  8
VISIBLE
100
AcDbSpline
 70
0
 71
1
 72
4
 73
2
 74
0
 40
0.0
 40
0.0
 40
1.0
 40
1.0
 10
146.13824953045477
 20
-0.22287573903620042
 30
0.0
 10
143.94773763517873
 20
8.463384327039552
 30
0.0
  0
SPLINE
  5
B5
330
17
100
AcDbEntity
  8
VISIBLE
100
AcDbSpline
 70
0
 71
1
 72
4
 73
2
 74
0
 40
0.0
 40
0.0
 40
1.0
 40
1.0
 10
150.30689525618962
 20
-16.105621456656348
 30
0.0
 10
150.28388021931377
 20
-16.00729027834436
 30
0.0
  0
LINE
  5
B6
330
17
100
AcDbEntity
  8
VISIBLE
100
AcDbLine
 10
157.36602535465116
 20
-46.278991046197454
 30
0.0
 11
156.81296989776675
 21
-43.940392630455825
 31
0.0
  0
SPLINE
  5
B7
330
17
100
AcDbEntity
  8
VISIBLE
100
AcDbSpline
 70
0
 71
3
 72
26
 73
22
 74
0
 40
0.0
 40
0.0
 40
0.0
 40
0.0
 40
0.49583845154674205
 40
0.49583845154674205
 40
0.49583845154674205
 40
0.7469971460214054
 40
0.7469971460214054
 40
0.7469971460214054
 40
0.8726196910195548
 40
0.8726196910195548
 40
0.8726196910195548
 40
0.9338309997429943
 40
0.9338309997429943
 40
0.9338309997429943
 40
0.9660493135541327
 40
0.9660493135541327
 40
0.9660493135541327
 40
0.9830246567770664
 40
0.9830246567770664
 40
0.9830246567770664
 40
1.0
 40
1.0
 40
1.0
 40
1.0
 10
157.0312636833914
 20
-44.856584168747645
 30
0.0
 10
156.6066637705554
 20
-43.054809887310626
 30
0.0
 10
156.1820638577194
 20
-41.25303560587368
 30
0.0
 10
155.75746394488345
 20
-39.45126132443667
 30
0.0
 10
155.54198282252293
 20
-38.538891196795674
 30
0.0
 10
155.32650170016268
 20
-37.626521069154684
 30
0.0
 10
155.1110205778021
 20
-36.714150941513694
 30
0.0
 10
155.00313871966108
 20
-36.25788442410118
 30
0.0
 10
154.89525686152024
 20
-35.80161790668863
 30
0.0
 10
154.7873750033791
 20
-35.34535138927609
 30
0.0
 10
154.73478271528518
 20
-35.1230478361364
 30
0.0
 10
154.68219042719107
 20
-34.90074428299674
 30
0.0
 10
154.62959813909703
 20
-34.67844072985703
 30
0.0
 10
154.60190887450366
 20
-34.56143360637881
 30
0.0
 10
154.57421960991016
 20
-34.444426482900546
 30
0.0
 10
154.54653034531685
 20
-34.327419359422336
 30
0.0
 10
154.53264133748246
 20
-34.26873403635786
 30
0.0
 10
154.51882627513467
 20
-34.2103640255242
 30
0.0
 10
154.50508515827335
 20
-34.15230932692138
 30
0.0
 10
154.49117455937056
 20
-34.09353835148064
 30
0.0
 10
154.4757505176888
 20
-34.02837723892496
 30
0.0
 10
154.46562475466544
 20
-33.985601161935485
 30
0.0
  0
SPLINE
  5
B8
330
17
100
AcDbEntity
  8
VISIBLE
100
AcDbSpline
 70
0
 71
1
 72
4
 73
2
 74
0
 40
0.0
 40
0.0
 40
1.0
 40
1.0
 10
154.44076093069202
 20
-33.88054079105497
 30
0.0
 10
154.46562475466544
 20
-33.98560116193549
 30
0.0
  0
LINE
  5
B9
330
17
100
AcDbEntity
  8
VISIBLE
100
AcDbLine
 10
75.73700402095336
 20
-94.09784320148688
 30
0.0
 11
128.56754147503474
 21
-63.596118180940394
 31
0.0
  0
ELLIPSE
  5
BA
330
17
100
AcDbEntity
  8
VISIBLE
100
AcDbEllipse
 10
124.66431204288499
 20
-61.34258761757988
 30
0.0
 11
-5.5200000000000005
 21
7.502339189662302e-17
 31
0.0
 40
0.5773502691896258
 41
-3.9269908169872414
 42
-2.9800714889887505
  0
SPLINE
  5
BB
330
17
100
AcDbEntity
  8
VISIBLE
100
AcDbSpline
 70
0
 71
1
 72
4
 73
2
 74
0
 40
0.0
 40
0.0
 40
0.7936425360331212
 40
0.7936425360331212
 10
130.11246257505562
 20
-60.83005931630964
 30
0.0
 10
151.98410062495154
 20
-50.30522830379773
 30
0.0
  0
LINE
  5
BC
330
17
100
AcDbEntity
  8
VISIBLE
100
AcDbLine
 10
130.11246257505562
 20
-60.83005931630965
 30
0.0
 11
126.98081727974346
 21
-49.733647703566014
 31
0.0
  0
LINE
  5
BD
330
17
100
AcDbEntity
  8
VISIBLE
100
AcDbLine
 10
119.00883247165305
 20
-36.04991822634289
 30
0.0
 11
-25.079653650879827
 21
47.13960802362714
 31
0.0
  0
LINE
  5
BE
330
17
100
AcDbEntity
  8
VISIBLE
100
AcDbLine
 10
-69.13951454472397
 20
50.55010383275569
 30
0.0
 11
-113.22760426200634
 21
25.09583336642633
 31
0.0
  0
ELLIPSE
  5
BF
330
17
100
AcDbEntity
  8
VISIBLE
100
AcDbEllipse
 10
-65.23628511257424
 20
48.29657326939516
 30
0.0
 11
-5.5200000000000005
 21
7.502339189662302e-17
 31
0.0
 40
0.5773502691896258
 41
-1.7323174913959356
 42
-0.7853981633974483
  0
SPLINE
  5
C0
330
17
100
AcDbEntity
  8
VISIBLE
100
AcDbSpline
 70
0
 71
1
 72
4
 73
2
 74
0
 40
0.0
 40
0.0
 40
1.0
 40
1.0
 10
-64.34856005445724
 20
51.44206444572949
 30
0.0
 10
-75.1505179469209
 20
86.8509394510016
 30
0.0
  0
LINE
  5
C1
330
17
100
AcDbEntity
  8
VISIBLE
100
AcDbLine
 10
-28.095158024912525
 20
48.03156863660093
 30
0.0
 11
-64.34856005445722
 21
51.4420644457295
 31
0.0
  0
SPLINE
  5
C2
330
17
100
AcDbEntity
  8
VISIBLE
100
AcDbSpline
 70
0
 71
1
 72
4
 73
2
 74
0
 40
0.0
 40
0.0
 40
1.0
 40
1.0
 10
-28.095158024912532
 20
48.031568636600944
 30
0.0
 10
-30.229809858662886
 20
83.30983799922397
 30
0.0
  0
ELLIPSE
  5
C3
330
17
100
AcDbEntity
  8
VISIBLE
100
AcDbEllipse
 10
-28.98288308302955
 20
44.8860774602666
 30
0.0
 11
-5.5200000000000005
 21
7.502339189662302e-17
 31
0.0
 40
0.5773502691896258
 41
-2.3561944901923444
 42
-1.7323174913959396
  0
SPLINE
  5
C4
330
17
100
AcDbEntity
  8
VISIBLE
100
AcDbSpline
 70
0
 71
1
 72
4
 73
2
 74
0
 40
0.0
 40
0.0
 40
1.0
 40
1.0
 10
-126.3163414532656
 20
-11.98687067539192
 30
0.0
 10
-153.55059067042862
 20
10.987320079952735
 30
0.0
  0
SPLINE
  5
C5
330
17
100
AcDbEntity
  8
VISIBLE
100
AcDbSpline
 70
0
 71
1
 72
4
 73
2
 74
0
 40
0.0
 40
0.0
 40
1.0
 40
1.0
 10
24.492964962402706
 20
-99.05666433077876
 30
0.0
 10
26.27137005685005
 20
-92.83293735214791
 30
0.0
  0
SPLINE
  5
C6
330
17
100
AcDbEntity
  8
VISIBLE
100
AcDbSpline
 70
0
 71
1
 72
4
 73
2
 74
0
 40
0.0
 40
0.0
 40
1.0
 40
1.0
 10
-153.55059067042862
 20
10.987320079952735
 30
0.0
 10
-143.92801997592764
 20
41.6188547659032
 30
0.0
  0
SPLINE
  5
C7
330
17
100
AcDbEntity
  8
VISIBLE
100
AcDbSpline
 70
0
 71
1
 72
4
 73
2
 74
0
 40
0.0
 40
0.0
 40
1.0
 40
1.0
 10
26.27137005685005
 20
-92.83293735214791
 30
0.0
 10
26.83113701143533
 20
-56.96899048734436
 30
0.0
  0
LINE
  5
C8
330
17
100
AcDbEntity
  8
VISIBLE
100
AcDbLine
 10
76.25133521847944
 20
-95.95291146146083
 30
0.0
 11
78.80915524770852
 21
-97.42966954387487
 31
0.0
  0
LINE
  5
C9
330
17
100
AcDbEntity
  8
VISIBLE
100
AcDbLine
 10
150.6752728956266
 20
-52.617903309453034
 30
0.0
 11
153.5503420191266
 21
-54.27782524184454
 31
0.0
  0
LINE
  5
CA
330
17
100
AcDbEntity
  8
VISIBLE
100
AcDbLine
 10
157.0312636833914
 20
-44.856584168747645
 30
0.0
 11
160.89201692650906
 21
-47.085591092936355
 31
0.0
  0
SPLINE
  5
CB
330
17
100
AcDbEntity
  8
VISIBLE
100
AcDbSpline
 70
0
 71
1
 72
4
 73
2
 74
0
 40
0.0
 40
0.0
 40
1.0
 40
1.0
 10
79.5029271877959
 20
-77.14700433129272
 30
0.0
 10
78.26652493730438
 20
-60.54910798905124
 30
0.0
  0
SPLINE
  5
CC
330
17
100
AcDbEntity
  8
VISIBLE
100
AcDbSpline
 70
0
 71
1
 72
4
 73
2
 74
0
 40
0.0
 40
0.0
 40
1.0
 40
1.0
 10
154.47938508020096
 20
-33.85932618422801
 30
0.0
 10
150.12896538595044
 20
-19.05930865140197
 30
0.0
  0
SPLINE
  5
CD
330
17
100
AcDbEntity
  8
VISIBLE
100
AcDbSpline
 70
0
 71
1
 72
4
 73
2
 74
0
 40
0.0
 40
0.0
 40
1.0
 40
1.0
 10
-149.80876418148583
 20
66.4281364310675
 30
0.0
 10
-148.59277287561008
 20
71.22540344980304
 30
0.0
  0
SPLINE
  5
CE
330
17
100
AcDbEntity
  8
VISIBLE
100
AcDbSpline
 70
0
 71
1
 72
4
 73
2
 74
0
 40
0.0
 40
0.0
 40
0.7877758913412566
 40
0.7877758913412566
 10
-80.20485341155475
 20
85.86817281310475
 30
0.0
 10
-78.11118356871133
 20
111.9179680090537
 30
0.0
  0
SPLINE
  5
CF
330
17
100
AcDbEntity
  8
VISIBLE
100
AcDbSpline
 70
0
 71
1
 72
4
 73
2
 74
0
 40
0.0
 40
0.0
 40
0.7877758913412566
 40
0.7877758913412566
 10
-26.798863949058163
 20
82.32707136132716
 30
0.0
 10
-27.241450482462376
 20
108.2597943824795
 30
0.0
  0
SPLINE
  5
D0
330
17
100
AcDbEntity
  8
VISIBLE
100
AcDbSpline
 70
0
 71
1
 72
4
 73
2
 74
0
 40
0.0
 40
0.0
 40
1.0
 40
1.0
 10
149.49493249426314
 20
-18.302539042875416
 30
0.0
 10
142.256630291475
 20
10.400031820521818
 30
0.0
  0
SPLINE
  5
D1
330
17
100
AcDbEntity
  8
VISIBLE
100
AcDbSpline
 70
0
 71
1
 72
4
 73
2
 74
0
 40
0.0
 40
0.0
 40
1.0
 40
1.0
 10
76.14891308646149
 20
-95.5771784018036
 30
0.0
 10
77.596065395631
 20
-95.09618563641068
 30
0.0
  0
SPLINE
  5
D2
330
17
100
AcDbEntity
  8
VISIBLE
100
AcDbSpline
 70
0
 71
1
 72
4
 73
2
 74
0
 40
0.0
 40
0.0
 40
0.7642378559463988
 40
0.7642378559463988
 10
128.56754147503474
 20
-63.5961181809404
 30
0.0
 10
149.50862933275425
 20
-53.577447489196395
 30
0.0
  0
LINE
  5
D3
330
17
100
AcDbEntity
  8
VISIBLE
100
AcDbLine
 10
154.46562475466544
 20
-33.9856011619355
 30
0.0
 11
157.69200597558887
 21
-35.848353228343996
 31
0.0
  0
SPLINE
  5
D4
330
17
100
AcDbEntity
  8
VISIBLE
100
AcDbSpline
 70
0
 71
1
 72
4
 73
2
 74
0
 40
0.0
 40
0.0
 40
1.0
 40
1.0
 10
-25.079653650879806
 20
47.139608023627126
 30
0.0
 10
-26.798863949058163
 20
82.32707136132716
 30
0.0
  0
SPLINE
  5
D5
330
17
100
AcDbEntity
  8
VISIBLE
100
AcDbSpline
 70
0
 71
1
 72
4
 73
2
 74
0
 40
0.0
 40
0.0
 40
1.0
 40
1.0
 10
-69.13951454472395
 20
50.55010383275569
 30
0.0
 10
-80.20485341155475
 20
85.86817281310475
 30
0.0
  0
SPLINE
  5
D6
330
17
100
AcDbEntity
  8
VISIBLE
100
AcDbSpline
 70
0
 71
1
 72
4
 73
2
 74
0
 40
0.0
 40
0.0
 40
1.0
 40
1.0
 10
-126.99647330733413
 20
-11.513831079933627
 30
0.0
 10
-154.25904265280477
 20
11.48005388732615
 30
0.0
  0
SPLINE
  5
D7
330
17
100
AcDbEntity
  8
VISIBLE
100
AcDbSpline
 70
0
 71
1
 72
4
 73
2
 74
0
 40
0.0
 40
0.0
 40
1.0
 40
1.0
 10
69.856338728505
 20
-102.3909860239703
 30
0.0
 10
78.54124021902396
 20
-97.5833806908789
 30
0.0
  0
SPLINE
  5
D8
330
17
100
AcDbEntity
  8
VISIBLE
100
AcDbSpline
 70
0
 71
1
 72
4
 73
2
 74
0
 40
0.0
 40
0.0
 40
1.0
 40
1.0
 10
-161.14372510915805
 20
40.73266327558501
 30
0.0
 10
-151.783212485436
 20
69.50505675015064
 30
0.0
  0
SPLINE
  5
D9
330
17
100
AcDbEntity
  8
VISIBLE
100
AcDbSpline
 70
0
 71
1
 72
4
 73
2
 74
0
 40
0.0
 40
0.0
 40
1.0
 40
1.0
 10
155.2075314577707
 20
-21.16661451667113
 30
0.0
 10
145.5849862507872
 20
8.818477537389171
 30
0.0
  0
SPLINE
  5
DA
330
17
100
AcDbEntity
  8
VISIBLE
100
AcDbSpline
 70
0
 71
2
 72
6
 73
3
 74
0
 40
0.0
 40
0.0
 40
0.0
 40
0.38384444229976944
 40
0.38384444229976944
 40
0.38384444229976944
 10
146.1382495304548
 20
-0.22287573903620128
 30
0.0
 10
148.24260922423883
 20
-8.568121669419824
 30
0.0
 10
150.3038175141834
 20
-16.94940436565878
 30
0.0
  0
SPLINE
  5
DB
330
17
100
AcDbEntity
  8
VISIBLE
100
AcDbSpline
 70
0
 71
2
 72
6
 73
3
 74
0
 40
0.0
 40
0.0
 40
0.0
 40
1.0
 40
1.0
 40
1.0
 10
154.41951842227053
 20
-33.8923886514383
 30
0.0
 10
155.62359634776456
 20
-38.91099239572849
 30
0.0
 10
156.81296989776672
 20
-43.94039263045582
 30
0.0
  0
LINE
  5
DC
330
17
100
AcDbEntity
  8
HIDDEN
100
AcDbLine
 10
-133.62798968285097
 20
11.400669363747257
 30
0.0
 11
-127.93753848362354
 21
-10.136844899517106
 31
0.0
  0
SPLINE
  5
DD
330
17
100
AcDbEntity
  8
HIDDEN
100
AcDbSpline
 70
0
 71
1
 72
4
 73
2
 74
0
 40
0.0
 40
0.0
 40
1.0
 40
1.0
 10
-127.93753848362354
 20
-10.1368448995171
 30
0.0
 10
-155.25892000841398
 20
12.994861198155242
 30
0.0
  0
SPLINE
  5
DE
330
17
100
AcDbEntity
  8
HIDDEN
100
AcDbSpline
 70
0
 71
1
 72
4
 73
2
 74
0
 40
0.0
 40
0.0
 40
1.0
 40
1.0
 10
-133.627989682851
 20
11.400669363747255
 30
0.0
 10
-161.19782062811686
 20
39.6512171667258
 30
0.0
  0
ELLIPSE
  5
DF
330
17
100
AcDbEntity
  8
HIDDEN
100
AcDbEllipse
 10
-122.24340639363108
 20
-9.635360522320056
 30
0.0
 11
-5.76
 21
7.828527850082402e-17
 31
0.0
 40
0.5773502691896258
 41
-6.131809863445562
 42
-5.68291901817209
  0
LINE
  5
E0
330
17
100
AcDbEntity
  8
HIDDEN
100
AcDbLine
 10
69.94290405438493
 20
-102.34204786246313
 30
0.0
 11
132.00679265249298
 21
-66.5094450733905
 31
0.0
  0
ELLIPSE
  5
E1
330
17
100
AcDbEntity
  8
HIDDEN
100
AcDbEllipse
 10
127.93385759285847
 20
-64.15793492031865
 30
0.0
 11
-5.76
 21
7.828527850082402e-17
 31
0.0
 40
0.5773502691896258
 41
-3.9269908169872414
 42
-2.990217209855767
  0
LINE
  5
E2
330
17
100
AcDbEntity
  8
HIDDEN
100
AcDbLine
 10
133.6279896828509
 20
-63.65645054312161
 30
0.0
 11
127.93753848362348
 21
-42.118936279857266
 31
0.0
  0
ELLIPSE
  5
E3
330
17
100
AcDbEntity
  8
HIDDEN
100
AcDbEllipse
 10
122.24340639363105
 20
-42.62042065705432
 30
0.0
 11
-5.76
 21
7.828527850082402e-17
 31
0.0
 40
0.5773502691896258
 41
-2.990217209855767
 42
-2.356194490192345
  0
LINE
  5
E4
330
17
100
AcDbEntity
  8
HIDDEN
100
AcDbLine
 10
126.31634145326555
 20
-40.26891050398247
 30
0.0
 11
-24.49296496240273
 21
46.800883151404385
 31
0.0
  0
ELLIPSE
  5
E5
330
17
100
AcDbEntity
  8
HIDDEN
100
AcDbEllipse
 10
-28.565900022037237
 20
44.44937299833252
 30
0.0
 11
-5.76
 21
7.828527850082402e-17
 31
0.0
 40
0.5773502691896258
 41
-2.356194490192345
 42
-1.722171770528921
  0
LINE
  5
E6
330
17
100
AcDbEntity
  8
HIDDEN
100
AcDbLine
 10
-27.697303601529928
 20
47.736881693290975
 30
0.0
 11
-65.00137257424318
 21
51.022265224975364
 31
0.0
  0
ELLIPSE
  5
E7
330
17
100
AcDbEntity
  8
HIDDEN
100
AcDbEllipse
 10
-65.8699689947505
 20
47.734756530016924
 30
0.0
 11
-5.76
 21
7.828527850082402e-17
 31
0.0
 40
0.5773502691896258
 41
-1.722171770528921
 42
-0.7853981633974483
  0
LINE
  5
E8
330
17
100
AcDbEntity
  8
HIDDEN
100
AcDbLine
 10
-69.942904054385
 20
50.08626668308876
 30
0.0
 11
-132.00679265249303
 21
14.25366389401614
 31
0.0
  0
ELLIPSE
  5
E9
330
17
100
AcDbEntity
  8
HIDDEN
100
AcDbEllipse
 10
-127.93385759285852
 20
11.9021537409443
 30
0.0
 11
-5.76
 21
7.828527850082402e-17
 31
0.0
 40
0.5773502691896258
 41
-7.0685834705770345
 42
-6.131809863445562
  0
ELLIPSE
  5
EA
330
17
100
AcDbEntity
  8
HIDDEN
100
AcDbEllipse
 10
-155.2468506030122
 20
40.09316579130648
 30
0.0
 11
-6.0
 21
8.154716510502503e-17
 31
0.0
 40
0.5773502691896258
 41
-0.7853981633974483
 42
-0.1856719970101528
  0
SPLINE
  5
EB
330
17
100
AcDbEntity
  8
HIDDEN
100
AcDbSpline
 70
0
 71
1
 72
4
 73
2
 74
0
 40
0.0
 40
0.0
 40
1.0
 40
1.0
 10
133.62798968285094
 20
-63.65645054312161
 30
0.0
 10
161.1978206281168
 20
-48.01214215542561
 30
0.0
  0
SPLINE
  5
EC
330
17
100
AcDbEntity
  8
HIDDEN
100
AcDbSpline
 70
0
 71
1
 72
4
 73
2
 74
0
 40
0.0
 40
0.0
 40
1.0
 40
1.0
 10
127.93753848362348
 20
-42.11893627985726
 30
0.0
 10
155.25892000841395
 20
-21.35578618685507
 30
0.0
  0
ELLIPSE
  5
ED
330
17
100
AcDbEntity
  8
HIDDEN
100
AcDbEllipse
 10
149.3079499833093
 20
-21.797734811435742
 30
0.0
 11
-6.0
 21
8.154716510502503e-17
 31
0.0
 40
0.5773502691896258
 41
-2.9583806654579616
 42
-2.356194490192345
  0
LINE
  5
EE
330
17
100
AcDbEntity
  8
HIDDEN
100
AcDbLine
 10
153.5505906704286
 20
-19.348245068652563
 30
0.0
 11
147.5931216619859
 21
-15.908698732939303
 31
0.0
  0
SPLINE
  5
EF
330
17
100
AcDbEntity
  8
HIDDEN
100
AcDbSpline
 70
0
 71
2
 72
6
 73
3
 74
0
 40
0.0
 40
0.0
 40
0.0
 40
1.0
 40
1.0
 40
1.0
 10
146.8622818660426
 20
-16.027082691967326
 30
0.0
 10
147.2201429476528
 20
-16.004643735686724
 30
0.0
 10
147.59312166198595
 20
-15.908698732939353
 30
0.0
  0
LINE
  5
F0
330
17
100
AcDbEntity
  8
HIDDEN
100
AcDbLine
 10
143.16918676192245
 20
-13.354538727510304
 30
0.0
 11
-15.889966148343857
 21
78.47830602230582
 31
0.0
  0
SPLINE
  5
F1
330
17
100
AcDbEntity
  8
HIDDEN
100
AcDbSpline
 70
0
 71
2
 72
6
 73
3
 74
0
 40
0.0
 40
0.0
 40
0.0
 40
1.0
 40
1.0
 40
1.0
 10
-16.62080593439845
 20
78.359922062698
 30
0.0
 10
-16.253641262226537
 20
78.3838554466062
 30
0.0
 10
-15.889966148343873
 20
78.47830602230582
 30
0.0
  0
LINE
  5
F2
330
17
100
AcDbEntity
  8
HIDDEN
100
AcDbLine
 10
-20.313901048407452
 20
81.03246602773491
 30
0.0
 11
-26.271370056850056
 21
84.4720123634481
 31
0.0
  0
SPLINE
  5
F3
330
17
100
AcDbEntity
  8
HIDDEN
100
AcDbSpline
 70
0
 71
1
 72
4
 73
2
 74
0
 40
0.0
 40
0.0
 40
1.0
 40
1.0
 10
-27.697303601529924
 20
47.73688169329097
 30
0.0
 10
-29.748533271860424
 20
85.45831676659847
 30
0.0
  0
ELLIPSE
  5
F4
330
17
100
AcDbEntity
  8
HIDDEN
100
AcDbEllipse
 10
-30.514010743969337
 20
82.02252262066492
 30
0.0
 11
-6.0
 21
8.154716510502503e-17
 31
0.0
 40
0.5773502691896258
 41
-2.356194490192345
 42
-1.6987245577928753
  0
SPLINE
  5
F5
330
17
100
AcDbEntity
  8
HIDDEN
100
AcDbSpline
 70
0
 71
1
 72
4
 73
2
 74
0
 40
0.0
 40
0.0
 40
1.0
 40
1.0
 10
-65.00137257424318
 20
51.02226522497536
 30
0.0
 10
-75.91869615406652
 20
88.88714263807437
 30
0.0
  0
LINE
  5
F6
330
17
100
AcDbEntity
  8
HIDDEN
100
AcDbLine
 10
-29.748533271860424
 20
85.45831676659847
 30
0.0
 11
-75.91869615406654
 21
88.88714263807437
 31
0.0
  0
ELLIPSE
  5
F7
330
17
100
AcDbEntity
  8
HIDDEN
100
AcDbEllipse
 10
-76.68417362617544
 20
85.45134849214082
 30
0.0
 11
-6.0
 21
8.154716510502503e-17
 31
0.0
 40
0.5773502691896258
 41
-1.6987245577928753
 42
-0.7853981633974483
  0
LINE
  5
F8
330
17
100
AcDbEntity
  8
HIDDEN
100
AcDbLine
 10
-80.92681431329473
 20
87.900838234924
 30
0.0
 11
-159.4894912901315
 21
42.54265553408966
 31
0.0
  0
SPLINE
  5
F9
330
17
100
AcDbEntity
  8
HIDDEN
100
AcDbSpline
 70
0
 71
3
 72
11
 73
7
 74
0
 40
0.0
 40
0.0
 40
0.0
 40
0.0
 40
0.4054360577046934
 40
0.4054360577046934
 40
0.4054360577046934
 40
0.7430925378426437
 40
0.7430925378426437
 40
0.7430925378426437
 40
0.7430925378426437
 10
-138.46399317317554
 20
9.54580153807548
 30
0.0
 10
-138.55854121330117
 20
8.759111279131945
 30
0.0
 10
-138.80747746718032
 20
8.046266297723507
 30
0.0
 10
-139.15463628114986
 20
7.516902032349348
 30
0.0
 10
-139.4429069683962
 20
7.072960191199577
 30
0.0
 10
-139.79271808010498
 20
6.749115715954658
 30
0.0
 10
-140.16503792101423
 20
6.534479114472966
 30
0.0
  0
SPLINE
  5
FA
330
17
100
AcDbEntity
  8
HIDDEN
100
AcDbSpline
 70
0
 71
2
 72
6
 73
3
 74
0
 40
0.0
 40
0.0
 40
0.0
 40
1.0
 40
1.0
 40
1.0
 10
-140.16503792101423
 20
6.534479114472966
 30
0.0
 10
-140.59297764111236
 20
6.291313803965695
 30
0.0
 10
-141.04786641836284
 20
6.218358610202069
 30
0.0
  0
SPLINE
  5
FB
330
17
100
AcDbEntity
  8
HIDDEN
100
AcDbSpline
 70
0
 71
2
 72
6
 73
3
 74
0
 40
0.0
 40
0.0
 40
0.0
 40
0.09527151938181162
 40
0.09527151938181162
 40
0.09527151938181162
 10
-141.04786641836284
 20
6.218358610202073
 30
0.0
 10
-141.1339161377645
 20
6.240281322193706
 30
0.0
 10
-141.24110015731662
 20
6.278077956889888
 30
0.0
  0
SPLINE
  5
FC
330
17
100
AcDbEntity
  8
HIDDEN
100
AcDbSpline
 70
0
 71
2
 72
6
 73
3
 74
0
 40
0.0
 40
0.0
 40
0.0
 40
1.0
 40
1.0
 40
1.0
 10
-146.06892545410136
 20
16.73795600455385
 30
0.0
 10
-145.69363753804217
 20
17.203587893560655
 30
0.0
 10
-145.24822976432634
 20
17.45610342836166
 30
0.0
  0
SPLINE
  5
FD
330
17
100
AcDbEntity
  8
HIDDEN
100
AcDbSpline
 70
0
 71
3
 72
17
 73
13
 74
0
 40
0.0
 40
0.0
 40
0.0
 40
0.0
 40
0.23035466439364236
 40
0.23035466439364236
 40
0.23035466439364236
 40
0.5766504402497812
 40
0.5766504402497812
 40
0.5766504402497812
 40
0.8251862878730994
 40
0.8251862878730994
 40
0.8251862878730994
 40
1.0
 40
1.0
 40
1.0
 40
1.0
 10
-145.2482297643263
 20
17.456103428361654
 30
0.0
 10
-144.5684212931029
 20
17.846016654766256
 30
0.0
 10
-143.8237958434414
 20
17.88888877115151
 30
0.0
 10
-143.10432758540165
 20
17.7045879802103
 30
0.0
 10
-142.02096939769953
 20
17.42091688707151
 30
0.0
 10
-140.97279654150344
 20
16.632909687390093
 30
0.0
 10
-140.10617151905748
 20
15.452077659048566
 30
0.0
 10
-139.487613538861
 20
14.60358944679832
 30
0.0
 10
-138.95452818349102
 20
13.533057843858797
 30
0.0
 10
-138.6509751781522
 20
12.286453797564103
 30
0.0
 10
-138.43875098339547
 20
11.415563693820275
 30
0.0
 10
-138.3517352132402
 20
10.449107277748327
 30
0.0
 10
-138.4639931731755
 20
9.54580153807548
 30
0.0
  0
SPLINE
  5
FE
330
17
100
AcDbEntity
  8
HIDDEN
100
AcDbSpline
 70
0
 71
3
 72
11
 73
7
 74
0
 40
0.0
 40
0.0
 40
0.0
 40
0.0
 40
0.38867843504290883
 40
0.38867843504290883
 40
0.38867843504290883
 40
0.741246368757696
 40
0.741246368757696
 40
0.741246368757696
 40
0.741246368757696
 10
25.019094637154314
 20
-84.84120321716966
 30
0.0
 10
24.920922744614238
 20
-85.64664971232452
 30
0.0
 10
24.674588399726616
 20
-86.32686716502234
 30
0.0
 10
24.350628215674824
 20
-86.83553879293206
 30
0.0
 10
24.056559898212345
 20
-87.29912666705077
 30
0.0
 10
23.70105432306954
 20
-87.63122838248572
 30
0.0
 10
23.31804986921406
 20
-87.85252561006185
 30
0.0
  0
SPLINE
  5
FF
330
17
100
AcDbEntity
  8
HIDDEN
100
AcDbSpline
 70
0
 71
2
 72
6
 73
3
 74
0
 40
0.0
 40
0.0
 40
0.0
 40
1.0
 40
1.0
 40
1.0
 10
23.31804986921406
 20
-87.85252561006185
 30
0.0
 10
22.894141397406308
 20
-88.09426835961835
 30
0.0
 10
22.435221391966977
 20
-88.16864614504307
 30
0.0
  0
SPLINE
  5
100
330
17
100
AcDbEntity
  8
HIDDEN
100
AcDbSpline
 70
0
 71
2
 72
6
 73
3
 74
0
 40
0.0
 40
0.0
 40
0.0
 40
0.0695466919284157
 40
0.0695466919284157
 40
0.0695466919284157
 10
22.43522139196696
 20
-88.16864614504307
 30
0.0
 10
22.347911803715853
 20
-88.14633323783059
 30
0.0
 10
22.24198766054658
 20
-88.10892680367915
 30
0.0
  0
SPLINE
  5
101
330
17
100
AcDbEntity
  8
HIDDEN
100
AcDbSpline
 70
0
 71
2
 72
6
 73
3
 74
0
 40
0.0
 40
0.0
 40
0.0
 40
1.0
 40
1.0
 40
1.0
 10
17.41416233244061
 20
-77.64904877234503
 30
0.0
 10
17.789168061976156
 20
-77.18361891211757
 30
0.0
 10
18.23485801998393
 20
-76.93090132913493
 30
0.0
  0
SPLINE
  5
102
330
17
100
AcDbEntity
  8
HIDDEN
100
AcDbSpline
 70
0
 71
3
 72
20
 73
16
 74
0
 40
0.0
 40
0.0
 40
0.0
 40
0.0
 40
0.30291227961889994
 40
0.30291227961889994
 40
0.30291227961889994
 40
0.5504345667167408
 40
0.5504345667167408
 40
0.5504345667167408
 40
0.7385858219405154
 40
0.7385858219405154
 40
0.7385858219405154
 40
0.8628447530398287
 40
0.8628447530398287
 40
0.8628447530398287
 40
1.0
 40
1.0
 40
1.0
 40
1.0
 10
18.234858019983932
 20
-76.93090132913491
 30
0.0
 10
19.04261435966749
 20
-76.46936059926409
 30
0.0
 10
19.95919142909361
 20
-76.47992204944977
 30
0.0
 10
20.861142985460482
 20
-76.84211045989613
 30
0.0
 10
21.598962718362714
 20
-77.14149844741176
 30
0.0
 10
22.336010671071072
 20
-77.68227697908667
 30
0.0
 10
23.010463201377462
 20
-78.47065699000153
 30
0.0
 10
23.521398847938034
 20
-79.06968985269064
 30
0.0
 10
23.998494318245097
 20
-79.8177139290946
 30
0.0
 10
24.374232372476758
 20
-80.70981550893217
 30
0.0
 10
24.621565804213134
 20
-81.29741733596214
 30
0.0
 10
24.82239137102815
 20
-81.94937671266955
 30
0.0
 10
24.942594020724002
 20
-82.62751401729038
 30
0.0
 10
25.07657305958851
 20
-83.37471227089789
 30
0.0
 10
25.105583134353534
 20
-84.14937344299626
 30
0.0
 10
25.01909463715431
 20
-84.84120321716968
 30
0.0
  0
SPLINE
  5
103
330
17
100
AcDbEntity
  8
HIDDEN
100
AcDbSpline
 70
0
 71
3
 72
8
 73
4
 74
0
 40
0.0
 40
0.0
 40
0.0
 40
0.0
 40
1.0
 40
1.0
 40
1.0
 40
1.0
 10
75.93408612420849
 20
-95.76974761148334
 30
0.0
 10
74.90675724616423
 20
-96.04703481085913
 30
0.0
 10
73.87928538838189
 20
-96.11435850754714
 30
0.0
 10
72.92145331035503
 20
-95.95206901372447
 30
0.0
  0
SPLINE
  5
104
330
17
100
AcDbEntity
  8
HIDDEN
100
AcDbSpline
 70
0
 71
3
 72
11
 73
7
 74
0
 40
0.0
 40
0.0
 40
0.0
 40
0.0
 40
0.135439103408221
 40
0.135439103408221
 40
0.135439103408221
 40
0.3121419295702343
 40
0.3121419295702343
 40
0.3121419295702343
 40
0.3121419295702343
 10
72.92145331035505
 20
-95.95206901372448
 30
0.0
 10
72.65636099586978
 20
-95.90767286562405
 30
0.0
 10
72.40953872639153
 20
-95.85915266583923
 30
0.0
 10
72.18098650192007
 20
-95.80650841436967
 30
0.0
 10
71.88669680086136
 20
-95.73810269989374
 30
0.0
 10
71.64388673147062
 20
-95.6611970611671
 30
0.0
 10
71.51699731050331
 20
-95.58696789333298
 30
0.0
  0
SPLINE
  5
105
330
17
100
AcDbEntity
  8
HIDDEN
100
AcDbSpline
 70
0
 71
3
 72
14
 73
10
 74
0
 40
0.0
 40
0.0
 40
0.0
 40
0.0
 40
0.2790671538037589
 40
0.2790671538037589
 40
0.2790671538037589
 40
0.6058676526000345
 40
0.6058676526000345
 40
0.6058676526000345
 40
1.0
 40
1.0
 40
1.0
 40
1.0
 10
71.51699731050331
 20
-95.58696789333301
 30
0.0
 10
71.37611314087813
 20
-95.50611168465025
 30
0.0
 10
71.37267818468732
 20
-95.43221634021937
 30
0.0
 10
71.44855240718313
 20
-95.37042759923726
 30
0.0
 10
71.53783520994037
 20
-95.29766780565262
 30
0.0
 10
71.72479823299946
 20
-95.23888948298429
 30
0.0
 10
71.94986592936635
 20
-95.18830899671947
 30
0.0
 10
72.22344610863807
 20
-95.12742111404248
 30
0.0
 10
72.55650203863348
 20
-95.07828890325416
 30
0.0
 10
72.91679037568902
 20
-95.03577959415925
 30
0.0
  0
SPLINE
  5
106
330
17
100
AcDbEntity
  8
HIDDEN
100
AcDbSpline
 70
0
 71
3
 72
8
 73
4
 74
0
 40
0.0
 40
0.0
 40
0.0
 40
0.0
 40
1.0
 40
1.0
 40
1.0
 40
1.0
 10
72.916790375689
 20
-95.03577959415925
 30
0.0
 10
72.6951473944821
 20
-94.64338682142827
 30
0.0
 10
72.50451637163528
 20
-94.20629202403885
 30
0.0
 10
72.39058197536167
 20
-93.72390453727206
 30
0.0
  0
SPLINE
  5
107
330
17
100
AcDbEntity
  8
HIDDEN
100
AcDbSpline
 70
0
 71
2
 72
6
 73
3
 74
0
 40
0.0
 40
0.0
 40
0.0
 40
1.0
 40
1.0
 40
1.0
 10
76.18205480400232
 20
-95.6984208343832
 30
0.0
 10
76.0595241291307
 20
-95.7357691117432
 30
0.0
 10
75.93408612420849
 20
-95.76974761148335
 30
0.0
  0
SPLINE
  5
108
330
17
100
AcDbEntity
  8
HIDDEN
100
AcDbSpline
 70
0
 71
3
 72
23
 73
19
 74
0
 40
0.0
 40
0.0
 40
0.0
 40
0.0
 40
0.09948866617271906
 40
0.09948866617271906
 40
0.09948866617271906
 40
0.16199283113801802
 40
0.16199283113801802
 40
0.16199283113801802
 40
0.34031742235306905
 40
0.34031742235306905
 40
0.34031742235306905
 40
0.43757192344131274
 40
0.43757192344131274
 40
0.43757192344131274
 40
0.5348264245295564
 40
0.5348264245295564
 40
0.5348264245295564
 40
0.593889953147211
 40
0.593889953147211
 40
0.593889953147211
 40
0.593889953147211
 10
-14.561523093951973
 20
81.08092599157473
 30
0.0
 10
-14.694603428147994
 20
81.8003383763045
 30
0.0
 10
-14.993611341448728
 20
82.5810000831364
 30
0.0
 10
-15.370690436033783
 20
83.30493949897237
 30
0.0
 10
-15.610140811315759
 20
83.76258309570086
 30
0.0
 10
-15.873236200017386
 20
84.19760114659479
 30
0.0
 10
-16.159976602138702
 20
84.60999365165428
 30
0.0
 10
-16.974753223134893
 20
85.7838926917446
 30
0.0
 10
-17.910097348836377
 20
86.73844958951398
 30
0.0
 10
-18.83051274111516
 20
87.42663821429056
 30
0.0
 10
-19.33345048897766
 20
87.80157513275215
 30
0.0
 10
-19.83463193168567
 20
88.09749618793754
 30
0.0
 10
-20.318384673590238
 20
88.29886538952185
 30
0.0
 10
-20.801654060717382
 20
88.49955956781282
 30
0.0
 10
-21.267605880586217
 20
88.60578032196194
 30
0.0
 10
-21.687341151508228
 20
88.5843813064611
 30
0.0
 10
-21.944060735408282
 20
88.57288825713496
 30
0.0
 10
-22.176967127019548
 20
88.50829783055671
 30
0.0
 10
-22.386060326341948
 20
88.39061002672635
 30
0.0
  0
SPLINE
  5
109
330
17
100
AcDbEntity
  8
HIDDEN
100
AcDbSpline
 70
0
 71
3
 72
8
 73
4
 74
0
 40
0.0
 40
0.0
 40
0.0
 40
0.0
 40
1.0
 40
1.0
 40
1.0
 40
1.0
 10
-22.386060326341948
 20
88.39061002672636
 30
0.0
 10
-22.6781210471233
 20
88.22282878121912
 30
0.0
 10
-22.910061042086195
 20
87.93387675302488
 30
0.0
 10
-23.03104899351271
 20
87.51382389092957
 30
0.0
  0
SPLINE
  5
10A
330
17
100
AcDbEntity
  8
HIDDEN
100
AcDbSpline
 70
0
 71
2
 72
6
 73
3
 74
0
 40
0.0
 40
0.0
 40
0.0
 40
0.2550536220066266
 40
0.2550536220066266
 40
0.2550536220066266
 10
-15.889966148343863
 20
78.4783060223058
 30
0.0
 10
-15.522316265165193
 20
78.50084348222471
 30
0.0
 10
-15.222267207373282
 20
78.6702214189747
 30
0.0
  0
SPLINE
  5
10B
330
17
100
AcDbEntity
  8
HIDDEN
100
AcDbSpline
 70
0
 71
3
 72
11
 73
7
 74
0
 40
0.0
 40
0.0
 40
0.0
 40
0.0
 40
0.5485982676273492
 40
0.5485982676273492
 40
0.5485982676273492
 40
1.0
 40
1.0
 40
1.0
 40
1.0
 10
-15.222267207373282
 20
78.6702214189747
 30
0.0
 10
-14.904962398814416
 20
78.85222428353302
 30
0.0
 10
-14.659386839817621
 20
79.17777357724253
 30
0.0
 10
-14.548829655284667
 20
79.65642614055619
 30
0.0
 10
-14.456694153451958
 20
80.04802857741235
 30
0.0
 10
-14.460408192458356
 20
80.542120190312
 30
0.0
 10
-14.561523093951973
 20
81.08092599157473
 30
0.0
  0
SPLINE
  5
10C
330
17
100
AcDbEntity
  8
HIDDEN
100
AcDbSpline
 70
0
 71
3
 72
17
 73
13
 74
0
 40
0.0
 40
0.0
 40
0.0
 40
0.0
 40
0.11536474282106086
 40
0.11536474282106086
 40
0.11536474282106086
 40
0.22940227052339046
 40
0.22940227052339046
 40
0.22940227052339046
 40
0.42595723142709174
 40
0.42595723142709174
 40
0.42595723142709174
 40
0.5919268727512941
 40
0.5919268727512941
 40
0.5919268727512941
 40
0.5919268727512941
 10
148.92156471637784
 20
-13.306078763670428
 30
0.0
 10
148.774410827575
 20
-12.492915767966473
 30
0.0
 10
148.38041763221437
 20
-11.51550049893423
 30
0.0
 10
147.8626932443231
 20
-10.627261967576198
 30
0.0
 10
147.35162897694767
 20
-9.744306235903625
 30
0.0
 10
146.7429806699145
 20
-8.952491073816294
 30
0.0
 10
146.13555799847478
 20
-8.301336287249109
 30
0.0
 10
145.08292141277886
 20
-7.176555152222644
 30
0.0
 10
144.0257298066693
 20
-6.433669489718161
 30
0.0
 10
143.09951587274622
 20
-6.061575607670648
 30
0.0
 10
142.31710259926783
 20
-5.750547241061509
 30
0.0
 10
141.6140649539658
 20
-5.70116999363406
 30
0.0
 10
141.09702747347984
 20
-5.9963947273790845
 30
0.0
  0
SPLINE
  5
10D
330
17
100
AcDbEntity
  8
HIDDEN
100
AcDbSpline
 70
0
 71
3
 72
8
 73
4
 74
0
 40
0.0
 40
0.0
 40
0.0
 40
0.0
 40
1.0
 40
1.0
 40
1.0
 40
1.0
 10
141.09702747347987
 20
-5.9963947273790845
 30
0.0
 10
140.80515583395672
 20
-6.165057627412312
 30
0.0
 10
140.57501812971594
 20
-6.448882315169833
 30
0.0
 10
140.45203883149287
 20
-6.873180866728623
 30
0.0
  0
SPLINE
  5
10E
330
17
100
AcDbEntity
  8
HIDDEN
100
AcDbSpline
 70
0
 71
2
 72
6
 73
3
 74
0
 40
0.0
 40
0.0
 40
0.0
 40
0.2574565883708453
 40
0.2574565883708453
 40
0.2574565883708453
 10
147.59312166198595
 20
-15.908698732939346
 30
0.0
 10
147.96447835854264
 20
-15.885119309533131
 30
0.0
 10
148.26082057359213
 20
-15.716783309206264
 30
0.0
  0
SPLINE
  5
10F
330
17
100
AcDbEntity
  8
HIDDEN
100
AcDbSpline
 70
0
 71
3
 72
11
 73
7
 74
0
 40
0.0
 40
0.0
 40
0.0
 40
0.0
 40
0.4988641620912191
 40
0.4988641620912191
 40
0.4988641620912191
 40
1.0
 40
1.0
 40
1.0
 40
1.0
 10
148.26082057359213
 20
-15.716783309206264
 30
0.0
 10
148.54282656562927
 20
-15.553769627257402
 30
0.0
 10
148.76596737129233
 20
-15.284238122334019
 30
0.0
 10
148.891816016449
 20
-14.88631253773794
 30
0.0
 10
149.01845298691
 20
-14.488164019275638
 30
0.0
 10
149.04234194763444
 20
-13.952657380204705
 30
0.0
 10
148.92156471637782
 20
-13.306078763670428
 30
0.0
  0
SPLINE
  5
110
330
17
100
AcDbEntity
  8
HIDDEN
100
AcDbSpline
 70
0
 71
1
 72
4
 73
2
 74
0
 40
0.0
 40
0.0
 40
1.0
 40
1.0
 10
-29.748533271860424
 20
85.45831676659847
 30
0.0
 10
-30.216413866807518
 20
110.2038349355337
 30
0.0
  0
SPLINE
  5
111
330
17
100
AcDbEntity
  8
HIDDEN
100
AcDbSpline
 70
0
 71
1
 72
4
 73
2
 74
0
 40
0.0
 40
0.0
 40
1.0
 40
1.0
 10
-75.91869615406652
 20
88.88714263807437
 30
0.0
 10
-73.16652041843798
 20
113.78395243724057
 30
0.0
  0
SPLINE
  5
112
330
17
100
AcDbEntity
  8
HIDDEN
100
AcDbSpline
 70
0
 71
1
 72
4
 73
2
 74
0
 40
0.0
 40
0.0
 40
0.7877758913412566
 40
0.7877758913412566
 10
-157.6710132535731
 20
39.207709272044674
 30
0.0
 10
-150.2838802193138
 20
68.26307145771895
 30
0.0
  0
SPLINE
  5
113
330
17
100
AcDbEntity
  8
HIDDEN
100
AcDbSpline
 70
0
 71
1
 72
4
 73
2
 74
0
 40
0.0
 40
0.0
 40
0.7877758913412566
 40
0.7877758913412566
 10
-151.5376456243384
 20
13.27272636510029
 30
0.0
 10
-143.94773763517878
 20
43.79239685233508
 30
0.0
  0
LINE
  5
114
330
17
100
AcDbEntity
  8
HIDDEN
100
AcDbLine
 10
-157.67101325357314
 20
39.207709272044674
 30
0.0
 11
-151.5376456243384
 21
13.272726365100286
 31
0.0
  0
ELLIPSE
  5
115
330
17
100
AcDbEntity
  8
HIDDEN
100
AcDbEllipse
 10
-151.7261708176329
 20
39.67634147034252
 30
0.0
 11
6.0
 21
-8.154716510502503e-17
 31
0.0
 40
0.5773502691896258
 41
2.356194490192345
 42
2.9962738191460634
  0
ELLIPSE
  5
116
330
17
100
AcDbEntity
  8
HIDDEN
100
AcDbEllipse
 10
-151.7261708176329
 20
39.67634147034252
 30
0.0
 11
6.0
 21
-8.154716510502503e-17
 31
0.0
 40
0.5773502691896258
 41
2.9962738191460634
 42
3.2772911941846186
  0
LINE
  5
117
330
17
100
AcDbEntity
  8
HIDDEN
100
AcDbLine
 10
-145.13568452875117
 20
48.38033998888529
 30
0.0
 11
-155.96881150475218
 21
42.1258312131257
 31
0.0
  0
LINE
  5
118
330
17
100
AcDbEntity
  8
HIDDEN
100
AcDbLine
 10
149.83544387551743
 20
-19.652793809314797
 30
0.0
 11
148.62236056457513
 21
-18.952419833192813
 31
0.0
  0
SPLINE
  5
119
330
17
100
AcDbEntity
  8
HIDDEN
100
AcDbSpline
 70
0
 71
1
 72
4
 73
2
 74
0
 40
0.0
 40
0.0
 40
0.5489369289454712
 40
0.5489369289454712
 10
151.53764562433835
 20
-21.633651353800097
 30
0.0
 10
146.24885622580223
 20
-0.6614757406656063
 30
0.0
  0
SPLINE
  5
11A
330
17
100
AcDbEntity
  8
HIDDEN
100
AcDbSpline
 70
0
 71
1
 72
4
 73
2
 74
0
 40
0.0
 40
0.0
 40
1.0
 40
1.0
 10
146.24885622580223
 20
-0.6614757406656063
 30
0.0
 10
146.13824953045477
 20
-0.22287573903619828
 30
0.0
  0
ELLIPSE
  5
11B
330
17
100
AcDbEntity
  8
HIDDEN
100
AcDbEllipse
 10
145.59280318839814
 20
-22.10228355209797
 30
0.0
 11
6.0
 21
-8.154716510502503e-17
 31
0.0
 40
0.5773502691896258
 41
0.13569854059482922
 42
0.14459373831099298
  0
ELLIPSE
  5
11C
330
17
100
AcDbEntity
  8
HIDDEN
100
AcDbEllipse
 10
145.59280318839814
 20
-22.10228355209797
 30
0.0
 11
6.0
 21
-8.154716510502503e-17
 31
0.0
 40
0.5773502691896258
 41
0.14459373831099298
 42
0.7853981633974483
  0
SPLINE
  5
11D
330
17
100
AcDbEntity
  8
HIDDEN
100
AcDbSpline
 70
0
 71
1
 72
4
 73
2
 74
0
 40
0.0
 40
0.0
 40
1.0
 40
1.0
 10
153.91830849311683
 20
-31.535295581197346
 30
0.0
 10
150.3068952561896
 20
-16.105621456656348
 30
0.0
  0
LINE
  5
11E
330
17
100
AcDbEntity
  8
HIDDEN
100
AcDbLine
 10
156.81296989776675
 20
-43.940392630455825
 30
0.0
 11
151.53764562433835
 21
-21.633651353800097
 31
0.0
  0
SPLINE
  5
11F
330
17
100
AcDbEntity
  8
HIDDEN
100
AcDbSpline
 70
0
 71
3
 72
8
 73
4
 74
0
 40
0.0
 40
0.0
 40
0.0
 40
0.0
 40
0.32690025203182826
 40
0.32690025203182826
 40
0.32690025203182826
 40
0.32690025203182826
 10
153.9183084931168
 20
-31.535295581197325
 30
0.0
 10
153.874252205325
 20
-31.369668445986747
 30
0.0
 10
153.84347315606374
 20
-31.259922193924318
 30
0.0
 10
153.83792193926752
 20
-31.25576908632689
 30
0.0
  0
SPLINE
  5
120
330
17
100
AcDbEntity
  8
HIDDEN
100
AcDbSpline
 70
0
 71
3
 72
17
 73
13
 74
0
 40
0.0
 40
0.0
 40
0.0
 40
0.0
 40
0.2757081008866695
 40
0.2757081008866695
 40
0.2757081008866695
 40
0.5718773200941845
 40
0.5718773200941845
 40
0.5718773200941845
 40
0.8278397424042834
 40
0.8278397424042834
 40
0.8278397424042834
 40
1.0
 40
1.0
 40
1.0
 40
1.0
 10
153.83792193926752
 20
-31.255769086326886
 30
0.0
 10
153.8350433640362
 20
-31.254356828497485
 30
0.0
 10
153.840126181142
 20
-31.286273407619667
 30
0.0
 10
153.8585664023866
 20
-31.3739923012727
 30
0.0
 10
153.87860439377877
 20
-31.469161345931326
 30
0.0
 10
153.91373202817596
 20
-31.627428734720958
 30
0.0
 10
153.9780599188403
 20
-31.907296063873968
 30
0.0
 10
154.03318346239465
 20
-32.14717505122272
 30
0.0
 10
154.11356890551332
 20
-32.492296923464814
 30
0.0
 10
154.21661155217092
 20
-32.93056166654692
 30
0.0
 10
154.28546067098435
 20
-33.22343673198624
 30
0.0
 10
154.3626387274644
 20
-33.550372042640305
 30
0.0
 10
154.44076093069202
 20
-33.880540791054976
 30
0.0
  0
SPLINE
  5
121
330
17
100
AcDbEntity
  8
HIDDEN
100
AcDbSpline
 70
0
 71
1
 72
4
 73
2
 74
0
 40
0.0
 40
0.0
 40
0.012434126366881147
 40
0.012434126366881147
 10
153.91830849311683
 20
-31.535295581197357
 30
0.0
 10
153.92124374462534
 20
-31.547007310908494
 30
0.0
  0
SPLINE
  5
122
330
17
100
AcDbEntity
  8
HIDDEN
100
AcDbSpline
 70
0
 71
3
 72
11
 73
7
 74
0
 40
0.0
 40
0.0
 40
0.0
 40
0.0
 40
0.622701288120652
 40
0.622701288120652
 40
0.622701288120652
 40
1.0
 40
1.0
 40
1.0
 40
1.0
 10
153.92124374462534
 20
-31.547007310908498
 30
0.0
 10
153.96606476624845
 20
-31.74046634816988
 30
0.0
 10
153.86317838460457
 20
-31.968782413572963
 30
0.0
 10
153.57132012332553
 20
-32.30466457374268
 30
0.0
 10
153.39471234848176
 20
-32.506891948089354
 30
0.0
 10
153.14620903578995
 20
-32.75162168312929
 30
0.0
 10
152.82581018525005
 20
-33.03885377886243
 30
0.0
  0
SPLINE
  5
123
330
17
100
AcDbEntity
  8
HIDDEN
100
AcDbSpline
 70
0
 71
2
 72
6
 73
3
 74
0
 40
0.0
 40
0.0
 40
0.0
 40
1.0
 40
1.0
 40
1.0
 10
152.82581018525005
 20
-33.03885377886244
 30
0.0
 10
152.47675399229428
 20
-33.35232361478198
 30
0.0
 10
152.0204847924393
 20
-33.615919692750644
 30
0.0
  0
SPLINE
  5
124
330
17
100
AcDbEntity
  8
HIDDEN
100
AcDbSpline
 70
0
 71
1
 72
4
 73
2
 74
0
 40
0.0
 40
0.0
 40
1.0
 40
1.0
 10
152.02048479243925
 20
-33.61591969275062
 30
0.0
 10
79.08413089600246
 20
-75.72574324856822
 30
0.0
  0
SPLINE
  5
125
330
17
100
AcDbEntity
  8
HIDDEN
100
AcDbSpline
 70
0
 71
1
 72
4
 73
2
 74
0
 40
0.0
 40
0.0
 40
1.0
 40
1.0
 10
74.04802194917711
 20
-77.64842701759346
 30
0.0
 10
72.98027404953488
 20
-60.63854810979498
 30
0.0
  0
SPLINE
  5
126
330
17
100
AcDbEntity
  8
HIDDEN
100
AcDbSpline
 70
0
 71
2
 72
6
 73
3
 74
0
 40
0.0
 40
0.0
 40
0.0
 40
1.0
 40
1.0
 40
1.0
 10
79.08413089600248
 20
-75.72574324856824
 30
0.0
 10
78.62756913537015
 20
-75.98917037563407
 30
0.0
 10
78.084623413832
 20
-76.1906980808928
 30
0.0
  0
SPLINE
  5
127
330
17
100
AcDbEntity
  8
HIDDEN
100
AcDbSpline
 70
0
 71
3
 72
11
 73
7
 74
0
 40
0.0
 40
0.0
 40
0.0
 40
0.0
 40
0.3734739516400547
 40
0.3734739516400547
 40
0.3734739516400547
 40
1.0
 40
1.0
 40
1.0
 40
1.0
 10
78.08462341383196
 20
-76.19069808089279
 30
0.0
 10
77.58497282992644
 20
-76.37598681415363
 30
0.0
 10
77.05949673689719
 20
-76.57928083592935
 30
0.0
 10
76.5422053134458
 20
-76.77673941636145
 30
0.0
 10
75.6720235245066
 20
-77.10856522818692
 30
0.0
 10
74.8276240411918
 20
-77.42399210112433
 30
0.0
 10
74.04802194917711
 20
-77.64842701759346
 30
0.0
  0
SPLINE
  5
128
330
17
100
AcDbEntity
  8
HIDDEN
100
AcDbSpline
 70
0
 71
1
 72
4
 73
2
 74
0
 40
0.0
 40
0.0
 40
0.7877758913412566
 40
0.7877758913412566
 10
30.229809858662822
 20
-91.67076298792378
 30
0.0
 10
30.59582233752451
 20
-56.98037448322077
 30
0.0
  0
SPLINE
  5
129
330
17
100
AcDbEntity
  8
HIDDEN
100
AcDbSpline
 70
0
 71
3
 72
23
 73
19
 74
0
 40
0.0
 40
0.0
 40
0.0
 40
0.0
 40
0.12914004128124448
 40
0.12914004128124448
 40
0.12914004128124448
 40
0.2080286432642707
 40
0.2080286432642707
 40
0.2080286432642707
 40
0.34004521244662766
 40
0.34004521244662766
 40
0.34004521244662766
 40
0.4762702706955596
 40
0.4762702706955596
 40
0.4762702706955596
 40
0.7428813536116803
 40
0.7428813536116803
 40
0.7428813536116803
 40
1.0
 40
1.0
 40
1.0
 40
1.0
 10
69.82494304663571
 20
-82.85292153045991
 30
0.0
 10
69.73549729801093
 20
-82.47802039540395
 30
0.0
 10
69.69734010543814
 20
-82.0739825571509
 30
0.0
 10
69.73078432500773
 20
-81.67977044691814
 30
0.0
 10
69.75143462008252
 20
-81.43773165581723
 30
0.0
 10
69.79542243681134
 20
-81.20559315224392
 30
0.0
 10
69.8627477751943
 20
-80.98335493619827
 30
0.0
 10
69.974086197796
 20
-80.61314249592448
 30
0.0
 10
70.14176733532481
 20
-80.2854764316588
 30
0.0
 10
70.33496665396993
 20
-80.00116330546696
 30
0.0
 10
70.53487117916727
 20
-79.70727143209488
 30
0.0
 10
70.76206998337832
 20
-79.45666808675747
 30
0.0
 10
71.00093551204235
 20
-79.23676235787562
 30
0.0
 10
71.46993461780536
 20
-78.80744454676916
 30
0.0
 10
71.98202383490576
 20
-78.49099647707192
 30
0.0
 10
72.50435512830228
 20
-78.23419920294458
 30
0.0
 10
73.00913168149755
 20
-77.9875994939822
 30
0.0
 10
73.5262846422985
 20
-77.79892595288159
 30
0.0
 10
74.04802194917713
 20
-77.64842701759349
 30
0.0
  0
SPLINE
  5
12A
330
17
100
AcDbEntity
  8
HIDDEN
100
AcDbSpline
 70
0
 71
3
 72
26
 73
22
 74
0
 40
0.0
 40
0.0
 40
0.0
 40
0.0
 40
0.49583845154670175
 40
0.49583845154670175
 40
0.49583845154670175
 40
0.746997146021326
 40
0.746997146021326
 40
0.746997146021326
 40
0.8726196910194643
 40
0.8726196910194643
 40
0.8726196910194643
 40
0.933830999742898
 40
0.933830999742898
 40
0.933830999742898
 40
0.9660493135542073
 40
0.9660493135542073
 40
0.9660493135542073
 40
0.9830246567771037
 40
0.9830246567771037
 40
0.9830246567771037
 40
1.0
 40
1.0
 40
1.0
 40
1.0
 10
72.39058197536167
 20
-93.72390453727209
 30
0.0
 10
71.96598206252565
 20
-91.92213025583509
 30
0.0
 10
71.5413821496897
 20
-90.12035597439811
 30
0.0
 10
71.11678223685368
 20
-88.31858169296109
 30
0.0
 10
70.90130111449322
 20
-87.40621156532018
 30
0.0
 10
70.6858199921328
 20
-86.4938414376792
 30
0.0
 10
70.47033886977239
 20
-85.58147131003827
 30
0.0
 10
70.36245701163142
 20
-85.12520479262578
 30
0.0
 10
70.25457515349049
 20
-84.66893827521334
 30
0.0
 10
70.14669329534952
 20
-84.21267175780085
 30
0.0
 10
70.09410100725545
 20
-83.99036820466118
 30
0.0
 10
70.0415087191615
 20
-83.76806465152157
 30
0.0
 10
69.98891643106744
 20
-83.54576109838192
 30
0.0
 10
69.96122716647399
 20
-83.42875397490353
 30
0.0
 10
69.93353790188054
 20
-83.31174685142527
 30
0.0
 10
69.90584863728714
 20
-83.19473972794697
 30
0.0
 10
69.89195962945278
 20
-83.13605440488253
 30
0.0
 10
69.87814456710508
 20
-83.07768439404902
 30
0.0
 10
69.86440345024376
 20
-83.01962969544608
 30
0.0
 10
69.85049285134085
 20
-82.96085872000535
 30
0.0
 10
69.83506880965919
 20
-82.89569760744982
 30
0.0
 10
69.8249430466357
 20
-82.85292153045991
 30
0.0
  0
LINE
  5
12B
330
17
100
AcDbEntity
  8
HIDDEN
100
AcDbLine
 10
30.229809858662858
 20
-91.6707629879238
 30
0.0
 11
72.91679037568915
 21
-95.03577959415925
 31
0.0
  0
ELLIPSE
  5
12C
330
17
100
AcDbEntity
  8
HIDDEN
100
AcDbEllipse
 10
31.04150463617745
 20
-88.23850660724379
 30
0.0
 11
6.0
 21
-8.154716510502503e-17
 31
0.0
 40
0.5773502691896258
 41
3.9269908169872414
 42
4.576690439789861
  0
LINE
  5
12D
330
17
100
AcDbEntity
  8
HIDDEN
100
AcDbLine
 10
22.435221391966895
 20
-88.16864614504304
 30
0.0
 11
26.798863949058163
 21
-90.68799635002699
 31
0.0
  0
LINE
  5
12E
330
17
100
AcDbEntity
  8
HIDDEN
100
AcDbLine
 10
-141.047866418363
 20
6.218358610202158
 30
0.0
 11
18.011286491903594
 21
-85.61448613961412
 31
0.0
  0
LINE
  5
12F
330
17
100
AcDbEntity
  8
HIDDEN
100
AcDbLine
 10
-149.83544387551743
 20
11.291868820614969
 30
0.0
 11
-145.47180131842615
 21
8.772518615631007
 31
0.0
  0
ELLIPSE
  5
130
330
17
100
AcDbEntity
  8
HIDDEN
100
AcDbEllipse
 10
-145.59280318839816
 20
13.741358563398151
 30
0.0
 11
6.0
 21
-8.154716510502503e-17
 31
0.0
 40
0.5773502691896258
 41
3.2772911941846186
 42
3.795159008550516
  0
ELLIPSE
  5
131
330
17
100
AcDbEntity
  8
HIDDEN
100
AcDbEllipse
 10
-145.59280318839816
 20
13.741358563398151
 30
0.0
 11
6.0
 21
-8.154716510502503e-17
 31
0.0
 40
0.5773502691896258
 41
3.795159008550516
 42
3.9269908169872414
  0
LINE
  5
132
330
17
100
AcDbEntity
  8
HIDDEN
100
AcDbLine
 10
-122.66038945462337
 20
-9.198656060385979
 30
0.0
 11
25.07965365087977
 21
-94.49640971743514
 31
0.0
  0
ELLIPSE
  5
133
330
17
100
AcDbEntity
  8
HIDDEN
100
AcDbEllipse
 10
65.23628511257415
 20
-95.65337496320316
 30
0.0
 11
-5.5200000000000005
 21
7.502339189662302e-17
 31
0.0
 40
0.5773502691896258
 41
-4.1913336903717315
 42
-3.9269908169872414
  0
ELLIPSE
  5
134
330
17
100
AcDbEntity
  8
HIDDEN
100
AcDbEllipse
 10
65.23628511257415
 20
-95.65337496320316
 30
0.0
 11
-5.5200000000000005
 21
7.502339189662302e-17
 31
0.0
 40
0.5773502691896258
 41
-4.873910144985731
 42
-4.1913336903717315
  0
SPLINE
  5
135
330
17
100
AcDbEntity
  8
HIDDEN
100
AcDbSpline
 70
0
 71
1
 72
4
 73
2
 74
0
 40
0.0
 40
0.0
 40
0.793642536033121
 40
0.793642536033121
 10
64.34856005445715
 20
-98.7988661395375
 30
0.0
 10
72.92145331035502
 20
-95.95206901372444
 30
0.0
  0
SPLINE
  5
136
330
17
100
AcDbEntity
  8
HIDDEN
100
AcDbSpline
 70
0
 71
1
 72
4
 73
2
 74
0
 40
0.0
 40
0.0
 40
1.0
 40
1.0
 10
28.095158024912497
 20
-95.38837033040892
 30
0.0
 10
30.229809858662822
 20
-91.67076298792378
 30
0.0
  0
LINE
  5
137
330
17
100
AcDbEntity
  8
HIDDEN
100
AcDbLine
 10
28.095158024912493
 20
-95.38837033040893
 30
0.0
 11
64.34856005445714
 21
-98.7988661395375
 31
0.0
  0
LINE
  5
138
330
17
100
AcDbEntity
  8
HIDDEN
100
AcDbLine
 10
69.1395145447239
 20
-97.90690552656369
 30
0.0
 11
75.73700402095336
 21
-94.09784320148688
 31
0.0
  0
SPLINE
  5
139
330
17
100
AcDbEntity
  8
HIDDEN
100
AcDbSpline
 70
0
 71
1
 72
4
 73
2
 74
0
 40
0.0
 40
0.0
 40
1.0
 40
1.0
 10
124.20531055464421
 20
-39.89914789551231
 30
0.0
 10
151.53764562433835
 20
-21.633651353800097
 30
0.0
  0
LINE
  5
13A
330
17
100
AcDbEntity
  8
HIDDEN
100
AcDbLine
 10
126.98081727974346
 20
-49.733647703566014
 30
0.0
 11
124.2053105546442
 21
-39.899147895512314
 31
0.0
  0
LINE
  5
13B
330
17
100
AcDbEntity
  8
HIDDEN
100
AcDbLine
 10
122.66038945462331
 20
-38.15814563342203
 30
0.0
 11
119.00883247165305
 21
-36.04991822634289
 31
0.0
  0
LINE
  5
13C
330
17
100
AcDbEntity
  8
HIDDEN
100
AcDbLine
 10
-130.11246257505567
 20
13.473257622501677
 30
0.0
 11
-124.20531055464426
 21
-7.457653798295698
 31
0.0
  0
SPLINE
  5
13D
330
17
100
AcDbEntity
  8
HIDDEN
100
AcDbSpline
 70
0
 71
1
 72
4
 73
2
 74
0
 40
0.0
 40
0.0
 40
1.0
 40
1.0
 10
-124.20531055464427
 20
-7.457653798295698
 30
0.0
 10
-151.5376456243384
 20
13.27272636510029
 30
0.0
  0
SPLINE
  5
13E
330
17
100
AcDbEntity
  8
HIDDEN
100
AcDbSpline
 70
0
 71
1
 72
4
 73
2
 74
0
 40
0.0
 40
0.0
 40
1.0
 40
1.0
 10
-130.11246257505567
 20
13.47325762250167
 30
0.0
 10
-157.6710132535731
 20
39.207709272044674
 30
0.0
  0
ELLIPSE
  5
13F
330
17
100
AcDbEntity
  8
HIDDEN
100
AcDbEllipse
 10
-124.66431204288503
 20
13.985785923771893
 30
0.0
 11
-5.5200000000000005
 21
7.502339189662302e-17
 31
0.0
 40
0.5773502691896258
 41
-7.0685834705770345
 42
-6.121664142578548
  0
LINE
  5
140
330
17
100
AcDbEntity
  8
HIDDEN
100
AcDbLine
 10
-113.22760426200634
 20
25.09583336642633
 30
0.0
 11
-128.56754147503477
 21
16.239316487132413
 31
0.0
  0
ELLIPSE
  5
141
330
17
100
AcDbEntity
  8
HIDDEN
100
AcDbEllipse
 10
118.75716002247357
 20
-40.41167619678255
 30
0.0
 11
-5.5200000000000005
 21
7.502339189662302e-17
 31
0.0
 40
0.5773502691896258
 41
-2.9800714889887496
 42
-2.356194490192345
  0
ELLIPSE
  5
142
330
17
100
AcDbEntity
  8
HIDDEN
100
AcDbEllipse
 10
28.982883083029506
 20
-92.2428791540746
 30
0.0
 11
-5.5200000000000005
 21
7.502339189662302e-17
 31
0.0
 40
0.5773502691896258
 41
-5.497787143782138
 42
-4.873910144985732
  0
ELLIPSE
  5
143
330
17
100
AcDbEntity
  8
HIDDEN
100
AcDbEllipse
 10
-118.75716002247363
 20
-6.945125497025454
 30
0.0
 11
-5.5200000000000005
 21
7.502339189662302e-17
 31
0.0
 40
0.5773502691896258
 41
-5.629622642500163
 42
-5.497787143782138
  0
ELLIPSE
  5
144
330
17
100
AcDbEntity
  8
HIDDEN
100
AcDbEllipse
 10
-118.75716002247363
 20
-6.945125497025454
 30
0.0
 11
-5.5200000000000005
 21
7.502339189662302e-17
 31
0.0
 40
0.5773502691896258
 41
-6.121664142578544
 42
-5.629622642500163
  0
LINE
  5
145
330
17
100
AcDbEntity
  8
HIDDEN
100
AcDbLine
 10
-145.2482297831645
 20
17.456103420894102
 30
0.0
 11
-147.09702747653506
 21
16.388699574949456
 31
0.0
  0
LINE
  5
146
330
17
100
AcDbEntity
  8
HIDDEN
100
AcDbLine
 10
-140.16503793725656
 20
6.534479140920525
 30
0.0
 11
-142.2608205834169
 21
5.32447846599692
 31
0.0
  0
LINE
  5
147
330
17
100
AcDbEntity
  8
HIDDEN
100
AcDbLine
 10
18.234858025182458
 20
-76.93090133549585
 30
0.0
 11
16.38606033233936
 21
-77.99830518113596
 31
0.0
  0
LINE
  5
148
330
17
100
AcDbEntity
  8
HIDDEN
100
AcDbLine
 10
23.31804987526626
 20
-87.85252561305848
 30
0.0
 11
21.222267229210406
 21
-89.06252628792177
 31
0.0
  0
LINE
  5
149
330
17
100
AcDbEntity
  8
HIDDEN
100
AcDbLine
 10
71.51699731181378
 20
-95.58696789877344
 30
0.0
 11
75.8093469625219
 21
-98.06515712506577
 31
0.0
  0
LINE
  5
14A
330
17
100
AcDbEntity
  8
HIDDEN
100
AcDbLine
 10
141.097027477693
 20
-5.996394728867484
 30
0.0
 11
139.24822978586815
 21
-7.06379857391971
 31
0.0
  0
LINE
  5
14B
330
17
100
AcDbEntity
  8
HIDDEN
100
AcDbLine
 10
148.2608205811198
 20
-15.716783312736288
 30
0.0
 11
146.16503793507343
 21
-16.926783987594096
 31
0.0
  0
LINE
  5
14C
330
17
100
AcDbEntity
  8
HIDDEN
100
AcDbLine
 10
-22.38606033366361
 20
88.39061002578484
 30
0.0
 11
-24.23485802129722
 21
87.32320618315242
 31
0.0
  0
LINE
  5
14D
330
17
100
AcDbEntity
  8
HIDDEN
100
AcDbLine
 10
-15.222267227102954
 20
78.67022144372538
 30
0.0
 11
-17.31804987296798
 21
77.46022076897226
 31
0.0
  0
SPLINE
  5
14E
330
17
100
AcDbEntity
  8
HIDDEN
100
AcDbSpline
 70
0
 71
1
 72
4
 73
2
 74
0
 40
0.0
 40
0.0
 40
1.0
 40
1.0
 10
-150.28680806555298
 20
69.27761819530413
 30
0.0
 10
-157.66292954068643
 20
40.17797078933337
 30
0.0
  0
SPLINE
  5
14F
330
17
100
AcDbEntity
  8
HIDDEN
100
AcDbSpline
 70
0
 71
1
 72
4
 73
2
 74
0
 40
0.0
 40
0.0
 40
1.0
 40
1.0
 10
151.53019034448698
 20
-21.603139697813802
 30
0.0
 10
146.24885622580223
 20
-0.6614757406656064
 30
0.0
  0
SPLINE
  5
150
330
17
100
AcDbEntity
  8
HIDDEN
100
AcDbSpline
 70
0
 71
2
 72
6
 73
3
 74
0
 40
0.0
 40
0.0
 40
0.0
 40
1.0
 40
1.0
 40
1.0
 10
150.30381751418338
 20
-16.94940436565878
 30
0.0
 10
152.38311051068095
 20
-25.404218579363633
 30
0.0
 10
154.41951842227053
 20
-33.8923886514383
 30
0.0
  0
SPLINE
  5
151
330
17
100
AcDbEntity
  8
HIDDEN
100
AcDbSpline
 70
0
 71
1
 72
4
 73
2
 74
0
 40
0.0
 40
0.0
 40
1.0
 40
1.0
 10
150.29601364685647
 20
-16.056476750600083
 30
0.0
 10
153.9212437392997
 20
-31.547007310247423
 30
0.0
  0
SPLINE
  5
152
330
17
100
AcDbEntity
  8
HIDDEN
100
AcDbSpline
 70
0
 71
1
 72
4
 73
2
 74
0
 40
0.0
 40
0.0
 40
1.0
 40
1.0
 10
67.98411716811236
 20
-98.41741904472848
 30
0.0
 10
76.36395644088688
 20
-95.64058377457401
 30
0.0
  0
LINE
  5
153
330
17
100
AcDbEntity
  8
HIDDEN
100
AcDbLine
 10
153.83792194915247
 20
-31.255769076040824
 30
0.0
 11
156.7391372934114
 21
-32.93078653602579
 31
0.0
  0
SPLINE
  5
154
330
17
100
AcDbEntity
  8
HIDDEN
100
AcDbSpline
 70
0
 71
1
 72
4
 73
2
 74
0
 40
0.0
 40
0.0
 40
1.0
 40
1.0
 10
-123.13961318311087
 20
-8.882865100408523
 30
0.0
 10
-150.35632576792065
 20
11.635109712463823
 30
0.0
  0
SPLINE
  5
155
330
17
100
AcDbEntity
  8
HIDDEN
100
AcDbSpline
 70
0
 71
1
 72
4
 73
2
 74
0
 40
0.0
 40
0.0
 40
1.0
 40
1.0
 10
-132.00679265249303
 20
14.25366389401615
 30
0.0
 10
-159.4894912901315
 20
42.54265553408966
 30
0.0
  0
SPLINE
  5
156
330
17
100
AcDbEntity
  8
HIDDEN
100
AcDbSpline
 70
0
 71
1
 72
4
 73
2
 74
0
 40
0.0
 40
0.0
 40
0.7907313845011747
 40
0.7907313845011747
 10
69.94290405438491
 20
-102.34204786246315
 30
0.0
 10
78.62822662064929
 20
-97.53417597183248
 30
0.0
  0
SPLINE
  5
157
330
17
100
AcDbEntity
  8
HIDDEN
100
AcDbSpline
 70
0
 71
1
 72
4
 73
2
 74
0
 40
0.0
 40
0.0
 40
0.7907313845011747
 40
0.7907313845011747
 10
132.00679265249298
 20
-66.5094450733905
 30
0.0
 10
153.7382249960614
 20
-54.16939819095593
 30
0.0
  0
SPLINE
  5
158
330
17
100
AcDbEntity
  8
HIDDEN
100
AcDbSpline
 70
0
 71
1
 72
4
 73
2
 74
0
 40
0.0
 40
0.0
 40
1.0
 40
1.0
 10
126.31634145326557
 20
-40.268910503982454
 30
0.0
 10
153.5505906704286
 20
-19.348245068652556
 30
0.0
  0
SPLINE
  5
159
330
17
100
AcDbEntity
  8
HIDDEN
100
AcDbSpline
 70
0
 71
1
 72
4
 73
2
 74
0
 40
0.0
 40
0.0
 40
1.0
 40
1.0
 10
-24.492964962402727
 20
46.80088315140438
 30
0.0
 10
-26.271370056850053
 20
84.47201236344809
 30
0.0
  0
SPLINE
  5
15A
330
17
100
AcDbEntity
  8
HIDDEN
100
AcDbSpline
 70
0
 71
1
 72
4
 73
2
 74
0
 40
0.0
 40
0.0
 40
1.0
 40
1.0
 10
-69.94290405438501
 20
50.08626668308878
 30
0.0
 10
-80.92681431329473
 20
87.900838234924
 30
0.0
  0
SPLINE
  5
15B
330
17
100
AcDbEntity
  8
HIDDEN
100
AcDbSpline
 70
0
 71
1
 72
4
 73
2
 74
0
 40
0.0
 40
0.0
 40
1.0
 40
1.0
 10
-159.4894912901315
 20
42.54265553408966
 30
0.0
 10
-150.12896538595047
 20
71.31508983077657
 30
0.0
  0
LINE
  5
15C
330
17
100
AcDbEntity
  8
HIDDEN
100
AcDbLine
 10
72.39058197536167
 20
-93.72390453727208
 30
0.0
 11
76.25133521847941
 21
-95.95291146146083
 31
0.0
  0
LINE
  5
15D
330
17
100
AcDbEntity
  8
HIDDEN
100
AcDbLine
 10
75.93408612420849
 20
-95.76974761148334
 30
0.0
 11
76.25133521847944
 21
-95.95291146146083
 31
0.0
  0
SPLINE
  5
15E
330
17
100
AcDbEntity
  8
HIDDEN
100
AcDbSpline
 70
0
 71
1
 72
4
 73
2
 74
0
 40
0.0
 40
0.0
 40
1.0
 40
1.0
 10
153.5505906704286
 20
-19.348245068652556
 30
0.0
 10
143.9280199759276
 20
10.636926413471361
 30
0.0
  0
SPLINE
  5
15F
330
17
100
AcDbEntity
  8
HIDDEN
100
AcDbSpline
 70
0
 71
1
 72
4
 73
2
 74
0
 40
0.0
 40
0.0
 40
1.0
 40
1.0
 10
-26.271370056850053
 20
84.47201236344809
 30
0.0
 10
-26.831137011435377
 20
109.22477166671896
 30
0.0
  0
SPLINE
  5
160
330
17
100
AcDbEntity
  8
HIDDEN
100
AcDbSpline
 70
0
 71
1
 72
4
 73
2
 74
0
 40
0.0
 40
0.0
 40
1.0
 40
1.0
 10
-80.92681431329473
 20
87.900838234924
 30
0.0
 10
-78.26652493730447
 20
112.80488916842582
 30
0.0
  0
SPLINE
  5
161
330
17
100
AcDbEntity
  8
HIDDEN
100
AcDbSpline
 70
0
 71
1
 72
4
 73
2
 74
0
 40
0.0
 40
0.0
 40
0.6579055526658618
 40
0.6579055526658618
 10
-155.96881150475218
 20
42.1258312131257
 30
0.0
 10
-149.80876418148583
 20
66.4281364310675
 30
0.0
  0
SPLINE
  5
162
330
17
100
AcDbEntity
  8
HIDDEN
100
AcDbSpline
 70
0
 71
1
 72
4
 73
2
 74
0
 40
0.0
 40
0.0
 40
0.03539428089961396
 40
0.03539428089961396
 10
149.8354438755174
 20
-19.652793809314787
 30
0.0
 10
149.49493249426314
 20
-18.302539042875416
 30
0.0
  0
SPLINE
  5
163
330
17
100
AcDbEntity
  8
HIDDEN
100
AcDbSpline
 70
0
 71
1
 72
4
 73
2
 74
0
 40
0.0
 40
0.0
 40
1.0
 40
1.0
 10
152.02048479243925
 20
-33.61591969275063
 30
0.0
 10
148.59277287561002
 20
-18.969622270428452
 30
0.0
  0
SPLINE
  5
164
330
17
100
AcDbEntity
  8
HIDDEN
100
AcDbSpline
 70
0
 71
1
 72
4
 73
2
 74
0
 40
0.0
 40
0.0
 40
1.0
 40
1.0
 10
79.08413089600246
 20
-75.72574324856822
 30
0.0
 10
78.1111835687113
 20
-59.662186829679094
 30
0.0
  0
SPLINE
  5
165
330
17
100
AcDbEntity
  8
HIDDEN
100
AcDbSpline
 70
0
 71
1
 72
4
 73
2
 74
0
 40
0.0
 40
0.0
 40
0.7877758913412566
 40
0.7877758913412566
 10
26.79886394905817
 20
-90.68799635002698
 30
0.0
 10
27.241450482462305
 20
-56.00401320310488
 30
0.0
  0
SPLINE
  5
166
330
17
100
AcDbEntity
  8
HIDDEN
100
AcDbSpline
 70
0
 71
1
 72
4
 73
2
 74
0
 40
0.0
 40
0.0
 40
0.7877758913412566
 40
0.7877758913412566
 10
-149.83544387551746
 20
11.291868820614972
 30
0.0
 10
-142.2566302914751
 20
41.855749358852805
 30
0.0
  0
SPLINE
  5
167
330
17
100
AcDbEntity
  8
HIDDEN
100
AcDbSpline
 70
0
 71
1
 72
4
 73
2
 74
0
 40
0.0
 40
0.0
 40
1.0
 40
1.0
 10
-122.66038945462338
 20
-9.198656060385986
 30
0.0
 10
-149.83544387551746
 20
11.291868820614972
 30
0.0
  0
SPLINE
  5
168
330
17
100
AcDbEntity
  8
HIDDEN
100
AcDbSpline
 70
0
 71
1
 72
4
 73
2
 74
0
 40
0.0
 40
0.0
 40
1.0
 40
1.0
 10
25.079653650879763
 20
-94.49640971743513
 30
0.0
 10
26.79886394905817
 20
-90.68799635002698
 30
0.0
  0
LINE
  5
169
330
17
100
AcDbEntity
  8
HIDDEN
100
AcDbLine
 10
69.82494304663572
 20
-82.85292153045991
 30
0.0
 11
73.05132426755914
 21
-84.7156735968684
 31
0.0
  0
LINE
  5
16A
330
17
100
AcDbEntity
  8
HIDDEN
100
AcDbLine
 10
78.08462341383198
 20
-76.19069808089277
 30
0.0
 11
79.6202426108181
 21
-77.07728823764546
 31
0.0
  0
SPLINE
  5
16B
330
17
100
AcDbEntity
  8
HIDDEN
100
AcDbSpline
 70
0
 71
1
 72
4
 73
2
 74
0
 40
0.0
 40
0.0
 40
0.6334553894909465
 40
0.6334553894909465
 10
69.1395145447239
 20
-97.90690552656369
 30
0.0
 10
76.14891308646149
 20
-95.5771784018036
 30
0.0
  0
LINE
  5
16C
330
17
100
AcDbEntity
  8
HIDDEN
100
AcDbLine
 10
152.82581018525005
 20
-33.038853778862446
 30
0.0
 11
154.36142938223617
 21
-33.92544393561514
 31
0.0
  0
SPLINE
  5
16D
330
17
100
AcDbEntity
  8
HIDDEN
100
AcDbSpline
 70
0
 71
1
 72
4
 73
2
 74
0
 40
0.0
 40
0.0
 40
1.0
 40
1.0
 10
122.66038945462334
 20
-38.15814563342204
 30
0.0
 10
149.8354438755174
 20
-19.652793809314787
 30
0.0
  0
SPLINE
  5
16E
330
17
100
AcDbEntity
  8
HIDDEN
100
AcDbSpline
 70
0
 71
1
 72
4
 73
2
 74
0
 40
0.0
 40
0.0
 40
1.0
 40
1.0
 10
-128.56754147503477
 20
16.239316487132413
 30
0.0
 10
-155.96881150475218
 20
42.1258312131257
 30
0.0
  0
ENDSEC
  0
SECTION
  2
OBJECTS
  0
DICTIONARY
  5
A
330
0
100
AcDbDictionary
281
1
  3
ACAD_COLOR
350
B
  3
ACAD_GROUP
350
C
  3
ACAD_LAYOUT
350
D
  3
ACAD_MATERIAL
350
E
  3
ACAD_MLEADERSTYLE
350
F
  3
ACAD_MLINESTYLE
350
10
  3
ACAD_PLOTSETTINGS
350
11
  3
ACAD_PLOTSTYLENAME
350
12
  3
ACAD_SCALELIST
350
14
  3
ACAD_TABLESTYLE
350
15
  3
ACAD_VISUALSTYLE
350
16
  3
EZDXF_META
350
2D
  0
DICTIONARY
  5
B
330
A
100
AcDbDictionary
281
1
  0
DICTIONARY
  5
C
330
A
100
AcDbDictionary
281
1
  0
DICTIONARY
  5
D
330
A
100
AcDbDictionary
281
1
  3
Model
350
1A
  3
Layout1
350
1E
  0
DICTIONARY
  5
E
330
A
100
AcDbDictionary
281
1
  3
ByBlock
350
1F
  3
ByLayer
350
20
  3
Global
350
21
  0
DICTIONARY
  5
F
330
A
100
AcDbDictionary
281
1
  3
Standard
350
2C
  0
DICTIONARY
  5
10
330
A
100
AcDbDictionary
281
1
  3
Standard
350
22
  0
DICTIONARY
  5
11
330
A
100
AcDbDictionary
281
1
  0
ACDBDICTIONARYWDFLT
  5
12
330
A
100
AcDbDictionary
281
1
  3
Normal
350
13
100
AcDbDictionaryWithDefault
340
13
  0
ACDBPLACEHOLDER
  5
13
330
12
  0
DICTIONARY
  5
14
330
A
100
AcDbDictionary
281
1
  0
DICTIONARY
  5
15
330
A
100
AcDbDictionary
281
1
  0
DICTIONARY
  5
16
330
A
100
AcDbDictionary
281
1
  0
LAYOUT
  5
1A
330
D
100
AcDbPlotSettings
  1

  4
A3
  6

 40
7.5
 41
20.0
 42
7.5
 43
20.0
 44
420.0
 45
297.0
 46
0.0
 47
0.0
 48
0.0
 49
0.0
140
0.0
141
0.0
142
1.0
143
1.0
 70
1024
 72
1
 73
0
 74
5
  7

 75
16
 76
0
 77
2
 78
300
147
1.0
148
0.0
149
0.0
100
AcDbLayout
  1
Model
 70
1
 71
0
 10
0.0
 20
0.0
 11
420.0
 21
297.0
 12
0.0
 22
0.0
 32
0.0
 14
1e+20
 24
1e+20
 34
1e+20
 15
-1e+20
 25
-1e+20
 35
-1e+20
146
0.0
 13
0.0
 23
0.0
 33
0.0
 16
1.0
 26
0.0
 36
0.0
 17
0.0
 27
1.0
 37
0.0
 76
1
330
17
  0
LAYOUT
  5
1E
330
D
100
AcDbPlotSettings
  1

  4
A3
  6

 40
7.5
 41
20.0
 42
7.5
 43
20.0
 44
420.0
 45
297.0
 46
0.0
 47
0.0
 48
0.0
 49
0.0
140
0.0
141
0.0
142
1.0
143
1.0
 70
0
 72
1
 73
0
 74
5
  7

 75
16
 76
0
 77
2
 78
300
147
1.0
148
0.0
149
0.0
100
AcDbLayout
  1
Layout1
 70
1
 71
1
 10
0.0
 20
0.0
 11
420.0
 21
297.0
 12
0.0
 22
0.0
 32
0.0
 14
1e+20
 24
1e+20
 34
1e+20
 15
-1e+20
 25
-1e+20
 35
-1e+20
146
0.0
 13
0.0
 23
0.0
 33
0.0
 16
1.0
 26
0.0
 36
0.0
 17
0.0
 27
1.0
 37
0.0
 76
1
330
1B
  0
MATERIAL
  5
1F
102
{ACAD_REACTORS
330
E
102
}
330
E
100
AcDbMaterial
  1
ByBlock
  2

 70
0
 40
1.0
 71
1
 41
1.0
 91
-1023410177
 42
1.0
 72
1
  3

 73
1
 74
1
 75
1
 44
0.5
 73
0
 45
1.0
 46
1.0
 77
1
  4

 78
1
 79
1
170
1
 48
1.0
171
1
  6

172
1
173
1
174
1
140
1.0
141
1.0
175
1
  7

176
1
177
1
178
1
143
1.0
179
1
  8

270
1
271
1
272
1
145
1.0
146
1.0
273
1
  9

274
1
275
1
276
1
 42
1.0
 72
1
  3

 73
1
 74
1
 75
1
 94
63
  0
MATERIAL
  5
20
102
{ACAD_REACTORS
330
E
102
}
330
E
100
AcDbMaterial
  1
ByLayer
  2

 70
0
 40
1.0
 71
1
 41
1.0
 91
-1023410177
 42
1.0
 72
1
  3

 73
1
 74
1
 75
1
 44
0.5
 73
0
 45
1.0
 46
1.0
 77
1
  4

 78
1
 79
1
170
1
 48
1.0
171
1
  6

172
1
173
1
174
1
140
1.0
141
1.0
175
1
  7

176
1
177
1
178
1
143
1.0
179
1
  8

270
1
271
1
272
1
145
1.0
146
1.0
273
1
  9

274
1
275
1
276
1
 42
1.0
 72
1
  3

 73
1
 74
1
 75
1
 94
63
  0
MATERIAL
  5
21
102
{ACAD_REACTORS
330
E
102
}
330
E
100
AcDbMaterial
  1
Global
  2

 70
0
 40
1.0
 71
1
 41
1.0
 91
-1023410177
 42
1.0
 72
1
  3

 73
1
 74
1
 75
1
 44
0.5
 73
0
 45
1.0
 46
1.0
 77
1
  4

 78
1
 79
1
170
1
 48
1.0
171
1
  6

172
1
173
1
174
1
140
1.0
141
1.0
175
1
  7

176
1
177
1
178
1
143
1.0
179
1
  8

270
1
271
1
272
1
145
1.0
146
1.0
273
1
  9

274
1
275
1
276
1
 42
1.0
 72
1
  3

 73
1
 74
1
 75
1
 94
63
  0
MLINESTYLE
  5
22
102
{ACAD_REACTORS
330
10
102
}
330
10
100
AcDbMlineStyle
  2
Standard
 70
0
  3

 62
256
 51
90.0
 52
90.0
 71
2
 49
0.5
 62
256
  6
BYLAYER
 49
-0.5
 62
256
  6
BYLAYER
  0
MLEADERSTYLE
  5
2C
102
{ACAD_REACTORS
330
F
102
}
330
F
100
AcDbMLeaderStyle
179
2
170
2
171
1
172
0
 90
2
 40
0.0
 41
0.0
173
1
 91
-1056964608
 92
-2
290
1
 42
2.0
291
1
 43
8.0
  3
Standard
 44
4.0
300

342
29
174
1
175
1
176
0
178
1
 93
-1056964608
 45
4.0
292
0
297
0
 46
4.0
 94
-1056964608
 47
1.0
 49
1.0
140
1.0
294
1
141
0.0
177
0
142
1.0
295
0
296
0
143
3.75
271
0
272
9
273
9
  0
DICTIONARY
  5
2D
330
A
100
AcDbDictionary
280
1
281
1
  3
CREATED_BY_EZDXF
350
2E
  3
WRITTEN_BY_EZDXF
350
172
  0
DICTIONARYVAR
  5
2E
330
2D
100
DictionaryVariables
280
0
  1
1.4.4 @ 2026-10-05T07:37:19.185799+00:00
  0
DICTIONARYVAR
  5
172
330
2D
100
DictionaryVariables
280
0
  1
1.4.4 @ 2026-10-05T07:37:20.467099+00:00
  0
ENDSEC
  0
EOF
