  0
SECTION
  2
HEADER
  9
$ACADVER
  1
AC1027
  9
$ACADMAINTVER
 70
105
  9
$DWGCODEPAGE
  3
ANSI_1252
  9
$LASTSAVEDBY
  1
ezdxf
  9
$REQUIREDVERSIONS
160
0
  9
$INSBASE
 10
0.0
 20
0.0
 30
0.0
  9
$EXTMIN
 10
1e+20
 20
1e+20
 30
1e+20
  9
$EXTMAX
 10
-1e+20
 20
-1e+20
 30
-1e+20
  9
$LIMMIN
 10
0.0
 20
0.0
  9
$LIMMAX
 10
420.0
 20
297.0
  9
$ORTHOMODE
 70
0
  9
$REGENMODE
 70
1
  9
$FILLMODE
 70
1
  9
$QTEXTMODE
 70
0
  9
$MIRRTEXT
 70
1
  9
$LTSCALE
 40
1.0
  9
$ATTMODE
 70
1
  9
$TEXTSIZE
 40
2.5
  9
$TRACEWID
 40
1.0
  9
$TEXTSTYLE
  7
Standard
  9
$CLAYER
  8
0
  9
$CELTYPE
  6
ByLayer
  9
$CECOLOR
 62
256
  9
$CELTSCALE
 40
1.0
  9
$DISPSILH
 70
0
  9
$DIMSCALE
 40
1.0
  9
$DIMASZ
 40
2.5
  9
$DIMEXO
 40
0.625
  9
$DIMDLI
 40
3.75
  9
$DIMRND
 40
0.0
  9
$DIMDLE
 40
0.0
  9
$DIMEXE
 40
1.25
  9
$DIMTP
 40
0.0
  9
$DIMTM
 40
0.0
  9
$DIMTXT
 40
2.5
  9
$DIMCEN
 40
2.5
  9
$DIMTSZ
 40
0.0
  9
$DIMTOL
 70
0
  9
$DIMLIM
 70
0
  9
$DIMTIH
 70
0
  9
$DIMTOH
 70
0
  9
$DIMSE1
 70
0
  9
$DIMSE2
 70
0
  9
$DIMTAD
 70
1
  9
$DIMZIN
 70
8
  9
$DIMBLK
  1

  9
$DIMASO
 70
1
  9
$DIMSHO
 70
1
  9
$DIMPOST
  1

  9
$DIMAPOST
  1

  9
$DIMALT
 70
0
  9
$DIMALTD
 70
3
  9
$DIMALTF
 40
0.03937007874
  9
$DIMLFAC
 40
1.0
  9
$DIMTOFL
 70
1
  9
$DIMTVP
 40
0.0
  9
$DIMTIX
 70
0
  9
$DIMSOXD
 70
0
  9
$DIMSAH
 70
0
  9
$DIMBLK1
  1

  9
$DIMBLK2
  1

  9
$DIMSTYLE
  2
ISO-25
  9
$DIMCLRD
 70
0
  9
$DIMCLRE
 70
0
  9
$DIMCLRT
 70
0
  9
$DIMTFAC
 40
1.0
  9
$DIMGAP
 40
0.625
  9
$DIMJUST
 70
0
  9
$DIMSD1
 70
0
  9
$DIMSD2
 70
0
  9
$DIMTOLJ
 70
0
  9
$DIMTZIN
 70
8
  9
$DIMALTZ
 70
0
  9
$DIMALTTZ
 70
0
  9
$DIMUPT
 70
0
  9
$DIMDEC
 70
2
  9
$DIMTDEC
 70
2
  9
$DIMALTU
 70
2
  9
$DIMALTTD
 70
3
  9
$DIMTXSTY
  7
Standard
  9
$DIMAUNIT
 70
0
  9
$DIMADEC
 70
0
  9
$DIMALTRND
 40
0.0
  9
$DIMAZIN
 70
0
  9
$DIMDSEP
 70
44
  9
$DIMATFIT
 70
3
  9
$DIMFRAC
 70
0
  9
$DIMLDRBLK
  1

  9
$DIMLUNIT
 70
2
  9
$DIMLWD
 70
-2
  9
$DIMLWE
 70
-2
  9
$DIMTMOVE
 70
0
  9
$DIMFXL
 40
1.0
  9
$DIMFXLON
 70
0
  9
$DIMJOGANG
 40
0.785398163397
  9
$DIMTFILL
 70
0
  9
$DIMTFILLCLR
 70
0
  9
$DIMARCSYM
 70
0
  9
$DIMLTYPE
  6

  9
$DIMLTEX1
  6

  9
$DIMLTEX2
  6

  9
$DIMTXTDIRECTION
 70
0
  9
$LUNITS
 70
2
  9
$LUPREC
 70
4
  9
$SKETCHINC
 40
1.0
  9
$FILLETRAD
 40
10.0
  9
$AUNITS
 70
0
  9
$AUPREC
 70
2
  9
$MENU
  1
.
  9
$ELEVATION
 40
0.0
  9
$PELEVATION
 40
0.0
  9
$THICKNESS
 40
0.0
  9
$LIMCHECK
 70
0
  9
$CHAMFERA
 40
0.0
  9
$CHAMFERB
 40
0.0
  9
$CHAMFERC
 40
0.0
  9
$CHAMFERD
 40
0.0
  9
$SKPOLY
 70
0
  9
$TDCREATE
 40
2461319.6094560185
  9
$TDUCREATE
 40
2458532.153996898
  9
$TDUPDATE
 40
2461319.6094675926
  9
$TDUUPDATE
 40
2458532.1544311
  9
$TDINDWG
 40
0.0
  9
$TDUSRTIMER
 40
0.0
  9
$USRTIMER
 70
1
  9
$ANGBASE
 50
0.0
  9
$ANGDIR
 70
0
  9
$PDMODE
 70
0
  9
$PDSIZE
 40
0.0
  9
$PLINEWID
 40
0.0
  9
$SPLFRAME
 70
0
  9
$SPLINETYPE
 70
6
  9
$SPLINESEGS
 70
8
  9
$HANDSEED
  5
70
  9
$SURFTAB1
 70
6
  9
$SURFTAB2
 70
6
  9
$SURFTYPE
 70
6
  9
$SURFU
 70
6
  9
$SURFV
 70
6
  9
$UCSBASE
  2

  9
$UCSNAME
  2

  9
$UCSORG
 10
0.0
 20
0.0
 30
0.0
  9
$UCSXDIR
 10
1.0
 20
0.0
 30
0.0
  9
$UCSYDIR
 10
0.0
 20
1.0
 30
0.0
  9
$UCSORTHOREF
  2

  9
$UCSORTHOVIEW
 70
0
  9
$UCSORGTOP
 10
0.0
 20
0.0
 30
0.0
  9
$UCSORGBOTTOM
 10
0.0
 20
0.0
 30
0.0
  9
$UCSORGLEFT
 10
0.0
 20
0.0
 30
0.0
  9
$UCSORGRIGHT
 10
0.0
 20
0.0
 30
0.0
  9
$UCSORGFRONT
 10
0.0
 20
0.0
 30
0.0
  9
$UCSORGBACK
 10
0.0
 20
0.0
 30
0.0
  9
$PUCSBASE
  2

  9
$PUCSNAME
  2

  9
$PUCSORG
 10
0.0
 20
0.0
 30
0.0
  9
$PUCSXDIR
 10
1.0
 20
0.0
 30
0.0
  9
$PUCSYDIR
 10
0.0
 20
1.0
 30
0.0
  9
$PUCSORTHOREF
  2

  9
$PUCSORTHOVIEW
 70
0
  9
$PUCSORGTOP
 10
0.0
 20
0.0
 30
0.0
  9
$PUCSORGBOTTOM
 10
0.0
 20
0.0
 30
0.0
  9
$PUCSORGLEFT
 10
0.0
 20
0.0
 30
0.0
  9
$PUCSORGRIGHT
 10
0.0
 20
0.0
 30
0.0
  9
$PUCSORGFRONT
 10
0.0
 20
0.0
 30
0.0
  9
$PUCSORGBACK
 10
0.0
 20
0.0
 30
0.0
  9
$USERI1
 70
0
  9
$USERI2
 70
0
  9
$USERI3
 70
0
  9
$USERI4
 70
0
  9
$USERI5
 70
0
  9
$USERR1
 40
0.0
  9
$USERR2
 40
0.0
  9
$USERR3
 40
0.0
  9
$USERR4
 40
0.0
  9
$USERR5
 40
0.0
  9
$WORLDVIEW
 70
1
  9
$SHADEDGE
 70
3
  9
$SHADEDIF
 70
70
  9
$TILEMODE
 70
1
  9
$MAXACTVP
 70
64
  9
$PINSBASE
 10
0.0
 20
0.0
 30
0.0
  9
$PLIMCHECK
 70
0
  9
$PEXTMIN
 10
1e+20
 20
1e+20
 30
1e+20
  9
$PEXTMAX
 10
-1e+20
 20
-1e+20
 30
-1e+20
  9
$PLIMMIN
 10
0.0
 20
0.0
  9
$PLIMMAX
 10
420.0
 20
297.0
  9
$UNITMODE
 70
0
  9
$VISRETAIN
 70
1
  9
$PLINEGEN
 70
0
  9
$PSLTSCALE
 70
1
  9
$TREEDEPTH
 70
3020
  9
$CMLSTYLE
  2
Standard
  9
$CMLJUST
 70
0
  9
$CMLSCALE
 40
20.0
  9
$PROXYGRAPHICS
 70
1
  9
$MEASUREMENT
 70
1
  9
$CELWEIGHT
370
-1
  9
$ENDCAPS
280
0
  9
$JOINSTYLE
280
0
  9
$LWDISPLAY
290
0
  9
$INSUNITS
 70
4
  9
$HYPERLINKBASE
  1

  9
$STYLESHEET
  1

  9
$XEDIT
290
1
  9
$CEPSNTYPE
380
0
  9
$PSTYLEMODE
290
1
  9
$FINGERPRINTGUID
  2
{CA55C9AB-583E-485F-8344-46294F3FCA80}
  9
$VERSIONGUID
  2
{3B51CA90-1385-4A3A-9739-44A724C8D209}
  9
$EXTNAMES
290
1
  9
$PSVPSCALE
 40
0.0
  9
$OLESTARTUP
290
0
  9
$SORTENTS
280
127
  9
$INDEXCTL
280
0
  9
$HIDETEXT
280
1
  9
$XCLIPFRAME
280
1
  9
$HALOGAP
280
0
  9
$OBSCOLOR
 70
257
  9
$OBSLTYPE
280
0
  9
$INTERSECTIONDISPLAY
280
0
  9
$INTERSECTIONCOLOR
 70
257
  9
$DIMASSOC
280
2
  9
$PROJECTNAME
  1

  9
$CAMERADISPLAY
290
0
  9
$LENSLENGTH
 40
50.0
  9
$CAMERAHEIGHT
 40
0.0
  9
$STEPSPERSEC
 40
24.0
  9
$STEPSIZE
 40
100.0
  9
$3DDWFPREC
 40
2.0
  9
$PSOLWIDTH
 40
0.005
  9
$PSOLHEIGHT
 40
0.08
  9
$LOFTANG1
 40
1.570796326795
  9
$LOFTANG2
 40
1.570796326795
  9
$LOFTMAG1
 40
0.0
  9
$LOFTMAG2
 40
0.0
  9
$LOFTPARAM
 70
7
  9
$LOFTNORMALS
280
1
  9
$LATITUDE
 40
37.795
  9
$LONGITUDE
 40
-122.394
  9
$NORTHDIRECTION
 40
0.0
  9
$TIMEZONE
 70
-8000
  9
$LIGHTGLYPHDISPLAY
280
1
  9
$TILEMODELIGHTSYNCH
280
1
  9
$CMATERIAL
347
20
  9
$SOLIDHIST
280
0
  9
$SHOWHIST
280
1
  9
$DWFFRAME
280
2
  9
$DGNFRAME
280
2
  9
$REALWORLDSCALE
290
1
  9
$INTERFERECOLOR
 62
256
  9
$CSHADOW
280
0
  9
$SHADOWPLANELOCATION
 40
0.0
  0
ENDSEC
  0
SECTION
  2
CLASSES
  0
CLASS
  1
ACDBDICTIONARYWDFLT
  2
AcDbDictionaryWithDefault
  3
ObjectDBX Classes
 90
0
 91
0
280
0
281
0
  0
CLASS
  1
SUN
  2
AcDbSun
  3
SCENEOE
 90
1153
 91
0
280
0
281
0
  0
CLASS
  1
VISUALSTYLE
  2
AcDbVisualStyle
  3
ObjectDBX Classes
 90
4095
 91
0
280
0
281
0
  0
CLASS
  1
MATERIAL
  2
AcDbMaterial
  3
ObjectDBX Classes
 90
1153
 91
0
280
0
281
0
  0
CLASS
  1
SCALE
  2
AcDbScale
  3
ObjectDBX Classes
 90
1153
 91
0
280
0
281
0
  0
CLASS
  1
TABLESTYLE
  2
AcDbTableStyle
  3
ObjectDBX Classes
 90
4095
 91
0
280
0
281
0
  0
CLASS
  1
MLEADERSTYLE
  2
AcDbMLeaderStyle
  3
ACDB_MLEADERSTYLE_CLASS
 90
4095
 91
0
280
0
281
0
  0
CLASS
  1
DICTIONARYVAR
  2
AcDbDictionaryVar
  3
ObjectDBX Classes
 90
0
 91
0
280
0
281
0
  0
CLASS
  1
CELLSTYLEMAP
  2
AcDbCellStyleMap
  3
ObjectDBX Classes
 90
1152
 91
0
280
0
281
0
  0
CLASS
  1
MENTALRAYRENDERSETTINGS
  2
AcDbMentalRayRenderSettings
  3
SCENEOE
 90
1024
 91
0
280
0
281
0
  0
CLASS
  1
ACDBDETAILVIEWSTYLE
  2
AcDbDetailViewStyle
  3
ObjectDBX Classes
 90
1025
 91
0
280
0
281
0
  0
CLASS
  1
ACDBSECTIONVIEWSTYLE
  2
AcDbSectionViewStyle
  3
ObjectDBX Classes
 90
1025
 91
0
280
0
281
0
  0
CLASS
  1
RASTERVARIABLES
  2
AcDbRasterVariables
  3
ISM
 90
0
 91
0
280
0
281
0
  0
CLASS
  1
LAYOUT
  2
AcDbLayout
  3
ObjectDBX Classes
 90
0
 91
0
280
0
281
0
  0
CLASS
  1
ACDBPLACEHOLDER
  2
AcDbPlaceHolder
  3
ObjectDBX Classes
 90
0
 91
0
280
0
281
0
  0
ENDSEC
  0
SECTION
  2
TABLES
  0
TABLE
  2
VPORT
  5
8
330
0
100
AcDbSymbolTable
 70
1
  0
VPORT
  5
6C
330
8
100
AcDbSymbolTableRecord
100
AcDbViewportTableRecord
  2
*Active
 70
0
 10
0.0
 20
0.0
 11
1.0
 21
1.0
 12
-2.1976367329179176
 22
-0.0012204697278814791
 13
0.0
 23
0.0
 14
0.5
 24
0.5
 15
0.5
 25
0.5
 16
0.0
 26
0.0
 36
1.0
 17
0.0
 27
0.0
 37
0.0
 40
24.09892817387203
 41
1.34
 42
50.0
 43
0.0
 44
0.0
 50
0.0
 51
0.0
 71
0
 72
1000
 73
1
 74
3
 75
0
 76
0
 77
0
 78
0
281
0
 65
1
110
0.0
120
0.0
130
0.0
111
1.0
121
0.0
131
0.0
112
0.0
122
1.0
132
0.0
 79
0
146
0.0
  0
ENDTAB
  0
TABLE
  2
LTYPE
  5
2
330
0
100
AcDbSymbolTable
 70
4
  0
LTYPE
  5
24
330
2
100
AcDbSymbolTableRecord
100
AcDbLinetypeTableRecord
  2
ByBlock
 70
0
  3

 72
65
 73
0
 40
0.0
  0
LTYPE
  5
25
330
2
100
AcDbSymbolTableRecord
100
AcDbLinetypeTableRecord
  2
ByLayer
 70
0
  3

 72
65
 73
0
 40
0.0
  0
LTYPE
  5
26
330
2
100
AcDbSymbolTableRecord
100
AcDbLinetypeTableRecord
  2
Continuous
 70
0
  3

 72
65
 73
0
 40
0.0
  0
LTYPE
  5
30
330
2
100
AcDbSymbolTableRecord
100
AcDbLinetypeTableRecord
  2
ACAD_ISO02W100
 70
0
  3
ISO dash __ __ __ __ __ __ __ __ __ __ __ __ __
 72
65
 73
2
 40
15.0
 49
12.0
 74
0
 49
-3.0
 74
0
  0
ENDTAB
  0
TABLE
  2
LAYER
  5
1
330
0
100
AcDbSymbolTable
 70
4
  0
LAYER
  5
27
330
1
100
AcDbSymbolTableRecord
100
AcDbLayerTableRecord
  2
0
 70
0
 62
7
  6
Continuous
370
-3
390
13
347
21
  0
LAYER
  5
28
330
1
100
AcDbSymbolTableRecord
100
AcDbLayerTableRecord
  2
Defpoints
 70
0
 62
7
  6
Continuous
290
0
370
-3
390
13
347
21
  0
LAYER
  5
2F
330
1
100
AcDbSymbolTableRecord
100
AcDbLayerTableRecord
  2
VISIBLE
 70
0
 62
7
  6
Continuous
370
25
390
13
347
21
  0
LAYER
  5
31
330
1
100
AcDbSymbolTableRecord
100
AcDbLayerTableRecord
  2
HIDDEN
 70
0
 62
7
  6
ACAD_ISO02W100
370
13
390
13
347
21
  0
ENDTAB
  0
TABLE
  2
STYLE
  5
5
330
0
100
AcDbSymbolTable
 70
1
  0
STYLE
  5
29
330
5
100
AcDbSymbolTableRecord
100
AcDbTextStyleTableRecord
  2
Standard
 70
0
 40
0.0
 41
1.0
 50
0.0
 71
0
 42
2.5
  3
txt
  4

  0
ENDTAB
  0
TABLE
  2
VIEW
  5
7
330
0
100
AcDbSymbolTable
 70
0
  0
ENDTAB
  0
TABLE
  2
UCS
  5
6
330
0
100
AcDbSymbolTable
 70
0
  0
ENDTAB
  0
TABLE
  2
APPID
  5
3
330
0
100
AcDbSymbolTable
 70
3
  0
APPID
  5
2A
330
3
100
AcDbSymbolTableRecord
100
AcDbRegAppTableRecord
  2
ACAD
 70
0
  0
APPID
  5
6D
330
3
100
AcDbSymbolTableRecord
100
AcDbRegAppTableRecord
  2
HATCHBACKGROUNDCOLOR
 70
0
  0
APPID
  5
6E
330
3
100
AcDbSymbolTableRecord
100
AcDbRegAppTableRecord
  2
EZDXF
 70
0
  0
ENDTAB
  0
TABLE
  2
DIMSTYLE
  5
4
330
0
100
AcDbSymbolTable
 70
1
100
AcDbDimStyleTable
  0
DIMSTYLE
105
2B
330
4
100
AcDbSymbolTableRecord
100
AcDbDimStyleTableRecord
  2
Standard
 70
0
 40
1.0
 41
2.5
 42
0.625
 43
3.75
 44
1.25
 45
0.0
 46
0.0
 47
0.0
 48
0.0
 49
2.5
140
2.5
141
2.5
142
0.0
143
0.03937007874
144
1.0
145
0.0
146
1.0
147
0.625
148
0.0
 69
0
 70
0
 71
0
 72
0
 73
0
 74
0
 75
0
 76
0
 77
1
 78
8
 79
3
170
0
171
3
172
1
173
0
174
0
175
0
176
0
177
0
178
0
179
2
271
2
272
2
273
2
274
3
275
0
276
0
277
2
278
44
279
0
280
0
281
0
282
0
283
0
284
8
285
0
286
0
288
0
289
3
290
0
371
-2
372
-2
  0
ENDTAB
  0
TABLE
  2
BLOCK_RECORD
  5
9
330
0
100
AcDbSymbolTable
 70
2
  0
BLOCK_RECORD
  5
17
330
9
100
AcDbSymbolTableRecord
100
AcDbBlockTableRecord
  2
*Model_Space
340
1A
 70
0
280
1
281
0
  0
BLOCK_RECORD
  5
1B
330
9
100
AcDbSymbolTableRecord
100
AcDbBlockTableRecord
  2
*Paper_Space
340
1E
 70
0
280
1
281
0
  0
ENDTAB
  0
ENDSEC
  0
SECTION
  2
BLOCKS
  0
BLOCK
  5
18
330
17
100
AcDbEntity
  8
0
100
AcDbBlockBegin
  2
*Model_Space
 70
0
 10
0.0
 20
0.0
 30
0.0
  3
*Model_Space
  1

  0
ENDBLK
  5
19
330
17
100
AcDbEntity
  8
0
100
AcDbBlockEnd
  0
BLOCK
  5
1C
330
1B
100
AcDbEntity
  8
0
100
AcDbBlockBegin
  2
*Paper_Space
 70
0
 10
0.0
 20
0.0
 30
0.0
  3
*Paper_Space
  1

  0
ENDBLK
  5
1D
330
1B
100
AcDbEntity
  8
0
100
AcDbBlockEnd
  0
ENDSEC
  0
SECTION
  2
ENTITIES
  0
SPLINE
  5
32
330
17
100
AcDbEntity
  8
VISIBLE
100
AcDbSpline
 70
0
 71
3
 72
14
 73
10
 74
0
 40
0.0
 40
0.0
 40
0.0
 40
0.0
 40
0.047004672814018725
 40
0.047004672814018725
 40
0.047004672814018725
 40
0.09400934562803745
 40
0.09400934562803745
 40
0.09400934562803745
 40
0.1880186912560749
 40
0.1880186912560749
 40
0.1880186912560749
 40
0.1880186912560749
 10
21.90079999999999
 20
8.43769498715119e-15
 30
0.0
 10
21.90129144095335
 20
0.9844917067668575
 30
0.0
 10
21.58061049032922
 20
1.9688412599559855
 30
0.0
 10
20.952572152106313
 20
2.910642574841054
 30
0.0
 10
20.325474133291895
 20
3.8525745213982803
 30
0.0
 10
19.391199988724036
 20
4.75168626219801
 30
0.0
 10
18.18999848069444
 20
5.569243865504398
 30
0.0
 10
15.79374934483209
 20
7.207246529187644
 30
0.0
 10
12.309018574904687
 20
8.506568398201495
 30
0.0
 10
8.315086618056373
 20
9.25121802856337
 30
0.0
  0
SPLINE
  5
33
330
17
100
AcDbEntity
  8
VISIBLE
100
AcDbSpline
 70
0
 71
3
 72
29
 73
25
 74
0
 40
0.0
 40
0.0
 40
0.0
 40
0.0
 40
0.12499999999999996
 40
0.12499999999999996
 40
0.12499999999999996
 40
0.25
 40
0.25
 40
0.25
 40
0.37499999999999994
 40
0.37499999999999994
 40
0.37499999999999994
 40
0.4999999999999999
 40
0.4999999999999999
 40
0.4999999999999999
 40
0.6249999999999998
 40
0.6249999999999998
 40
0.6249999999999998
 40
0.7499999999999998
 40
0.7499999999999998
 40
0.7499999999999998
 40
0.875
 40
0.875
 40
0.875
 40
1.0
 40
1.0
 40
1.0
 40
1.0
 10
8.31508661805637
 20
9.251218028563372
 30
0.0
 10
5.00608601204363
 20
9.8731033295801
 30
0.0
 10
1.3599436312319377
 20
10.115209663667212
 30
0.0
 10
-2.199921128959498
 20
9.94942171976004
 30
0.0
 10
-5.760522451617527
 20
9.78696497103213
 30
0.0
 10
-9.227100955351347
 20
9.216970975166102
 30
0.0
 10
-12.197089643939485
 20
8.30563199271719
 30
0.0
 10
-15.171162077909514
 20
7.39707384626959
 30
0.0
 10
-17.642179111033226
 20
6.149150286854097
 30
0.0
 10
-19.32318635370102
 20
4.706780267628365
 30
0.0
 10
-21.010663252769447
 20
3.2659861391850797
 30
0.0
 10
-21.904466334429166
 20
1.6338816849821924
 30
0.0
 10
-21.900799997097803
 20
2.3092638912203256e-14
 30
0.0
 10
-21.904466334429184
 20
-1.6338816849821034
 30
0.0
 10
-21.010663252769433
 20
-3.2659861391849874
 30
0.0
 10
-19.32318635370105
 20
-4.706780267628323
 30
0.0
 10
-17.642179111033244
 20
-6.149150286853991
 30
0.0
 10
-15.171162077909496
 20
-7.397073846269513
 30
0.0
 10
-12.197089643939556
 20
-8.305631992717156
 30
0.0
 10
-9.227100955351354
 20
-9.21697097516602
 30
0.0
 10
-5.760522451617492
 20
-9.786964971032033
 30
0.0
 10
-2.1999211289595895
 20
-9.949421719760037
 30
0.0
 10
1.3599436312319473
 20
-10.11520966366712
 30
0.0
 10
5.006086012043731
 20
-9.87310332958001
 30
0.0
 10
8.31508661805629
 20
-9.251218028563368
 30
0.0
  0
SPLINE
  5
34
330
17
100
AcDbEntity
  8
VISIBLE
100
AcDbSpline
 70
0
 71
3
 72
14
 73
10
 74
0
 40
0.0
 40
0.0
 40
0.0
 40
0.0
 40
0.5
 40
0.5
 40
0.5
 40
0.75
 40
0.75
 40
0.75
 40
1.0
 40
1.0
 40
1.0
 40
1.0
 10
8.315086618056288
 20
-9.251218028563367
 30
0.0
 10
12.309018574904831
 20
-8.506568398201345
 30
0.0
 10
15.793749344832284
 20
-7.2072465291875965
 30
0.0
 10
18.189998480694417
 20
-5.5692438655044985
 30
0.0
 10
19.391199988724455
 20
-4.751686262197986
 30
0.0
 10
20.325474133292165
 20
-3.8525745213981266
 30
0.0
 10
20.952572152106335
 20
-2.910642574840791
 30
0.0
 10
21.58061049032947
 20
-1.9688412599554779
 30
0.0
 10
21.90129144095411
 20
-0.9844917067657032
 30
0.0
 10
21.90079999999998
 20
-1.2656542480726785e-14
 30
0.0
  0
SPLINE
  5
35
330
17
100
AcDbEntity
  8
VISIBLE
100
AcDbSpline
 70
0
 71
3
 72
17
 73
13
 74
0
 40
0.0
 40
0.0
 40
0.0
 40
0.0
 40
0.24997185572979752
 40
0.24997185572979752
 40
0.24997185572979752
 40
0.5154731285409189
 40
0.5154731285409189
 40
0.5154731285409189
 40
0.7809698380529034
 40
0.7809698380529034
 40
0.7809698380529034
 40
1.0
 40
1.0
 40
1.0
 40
1.0
 10
4.425459676658306
 20
9.949443550157339
 30
0.0
 10
3.6241402813085584
 20
10.08649100541314
 30
0.0
 10
2.555269596013439
 20
10.222699120093164
 30
0.0
 10
1.3895045895193845
 20
10.31381804795485
 30
0.0
 10
0.1527350101735156
 20
10.412853141124925
 30
0.0
 10
-1.185444846580841
 20
10.460003884244095
 30
0.0
 10
-2.3605677885494707
 20
10.47222828979787
 30
0.0
 10
-3.537842658111765
 20
10.485550232438346
 30
0.0
 10
-4.544366409816924
 20
10.469698824222407
 30
0.0
 10
-5.185495139588663
 20
10.474482387125184
 30
0.0
 10
-5.7174779821236505
 20
10.477597047261138
 30
0.0
 10
-6.001394531261291
 20
10.496802274718165
 30
0.0
 10
-5.999999972796285
 20
10.536613627016923
 30
0.0
  0
SPLINE
  5
36
330
17
100
AcDbEntity
  8
VISIBLE
100
AcDbSpline
 70
0
 71
3
 72
14
 73
10
 74
0
 40
0.0
 40
0.0
 40
0.0
 40
0.0
 40
0.35694876949066057
 40
0.35694876949066057
 40
0.35694876949066057
 40
0.630907561371458
 40
0.630907561371458
 40
0.630907561371458
 40
1.0
 40
1.0
 40
1.0
 40
1.0
 10
-5.999999972796288
 20
10.536613627016925
 30
0.0
 10
-6.003292166007476
 20
10.585881314076987
 30
0.0
 10
-5.528798766303991
 20
10.669908102470572
 30
0.0
 10
-4.676975401498215
 20
10.721510510291631
 30
0.0
 10
-4.02671828352833
 20
10.760931666727322
 30
0.0
 10
-3.1586203237561086
 20
10.776835244950336
 30
0.0
 10
-2.189232671128236
 20
10.741833303019204
 30
0.0
 10
-0.883553055883486
 20
10.697941254699982
 30
0.0
 10
0.5920185167921121
 20
10.552747356862103
 30
0.0
 10
1.8951081222872432
 20
10.355219086267681
 30
0.0
  0
SPLINE
  5
37
330
17
100
AcDbEntity
  8
VISIBLE
100
AcDbSpline
 70
0
 71
2
 72
6
 73
3
 74
0
 40
0.0
 40
0.0
 40
0.0
 40
1.0
 40
1.0
 40
1.0
 10
1.895108122287243
 20
10.355219086267681
 30
0.0
 10
2.692546718725311
 20
10.234648578138579
 30
0.0
 10
3.3850358689878104
 20
10.10566471466247
 30
0.0
  0
SPLINE
  5
38
330
17
100
AcDbEntity
  8
VISIBLE
100
AcDbSpline
 70
0
 71
2
 72
6
 73
3
 74
0
 40
0.0
 40
0.0
 40
0.0
 40
1.0
 40
1.0
 40
1.0
 10
3.385035608781899
 20
-10.105664749392519
 30
0.0
 10
2.6925543788473876
 20
-10.234647436152615
 30
0.0
 10
1.8951071319883481
 20
-10.355219215957636
 30
0.0
  0
SPLINE
  5
39
330
17
100
AcDbEntity
  8
VISIBLE
100
AcDbSpline
 70
0
 71
3
 72
14
 73
10
 74
0
 40
0.0
 40
0.0
 40
0.0
 40
0.0
 40
0.36211960450160807
 40
0.36211960450160807
 40
0.36211960450160807
 40
0.5923799523244122
 40
0.5923799523244122
 40
0.5923799523244122
 40
1.0
 40
1.0
 40
1.0
 40
1.0
 10
1.8951071319883481
 20
-10.355219215957638
 30
0.0
 10
0.6161827109297376
 20
-10.548929676058265
 30
0.0
 10
-0.8280088417216289
 20
-10.692694157638302
 30
0.0
 10
-2.1153522725199436
 20
-10.739117536508717
 30
0.0
 10
-2.933719106040245
 20
-10.770427098814153
 30
0.0
 10
-3.684389228276216
 20
-10.766102766629846
 30
0.0
 10
-4.2945121795201695
 20
-10.740730938037274
 30
0.0
 10
-5.380827148954521
 20
-10.695268887082147
 30
0.0
 10
-6.005519041561716
 20
-10.592479261303334
 30
0.0
 10
-6.000000012628237
 20
-10.536613652150553
 30
0.0
  0
SPLINE
  5
3A
330
17
100
AcDbEntity
  8
VISIBLE
100
AcDbSpline
 70
0
 71
3
 72
20
 73
16
 74
0
 40
0.0
 40
0.0
 40
0.0
 40
0.0
 40
0.10934204169834755
 40
0.10934204169834755
 40
0.10934204169834755
 40
0.3225344490980128
 40
0.3225344490980128
 40
0.3225344490980128
 40
0.6147573571267141
 40
0.6147573571267141
 40
0.6147573571267141
 40
0.8157585282274787
 40
0.8157585282274787
 40
0.8157585282274787
 40
1.0
 40
1.0
 40
1.0
 40
1.0
 10
-6.000000012628237
 20
-10.536613652150553
 30
0.0
 10
-5.999721279558054
 20
-10.516925354486734
 30
0.0
 10
-5.930916692239927
 20
-10.501972734608135
 30
0.0
 10
-5.793586250673838
 20
-10.491755792514695
 30
0.0
 10
-5.527826172823723
 20
-10.471510478687598
 30
0.0
 10
-5.0012573531121935
 20
-10.471988680606053
 30
0.0
 10
-4.280863159915105
 20
-10.475324999222613
 30
0.0
 10
-3.297000596590013
 20
-10.480014297847301
 30
0.0
 10
-1.9462600789605544
 20
-10.483745760258625
 30
0.0
 10
-0.544898938442206
 20
-10.427176901291892
 30
0.0
 10
0.41789010317998476
 20
-10.389375215720266
 30
0.0
 10
1.3986316750781582
 20
-10.323395859863991
 30
0.0
 10
2.2857661482607377
 20
-10.233348635078785
 30
0.0
 10
3.099633031896747
 20
-10.151485075008406
 30
0.0
 10
3.8342628687985596
 20
-10.050045092738278
 30
0.0
 10
4.4254597359006045
 20
-9.94944354069086
 30
0.0
  0
SPLINE
  5
3B
330
17
100
AcDbEntity
  8
VISIBLE
100
AcDbSpline
 70
0
 71
3
 72
8
 73
4
 74
0
 40
0.0
 40
0.0
 40
0.0
 40
0.0
 40
1.0
 40
1.0
 40
1.0
 40
1.0
 10
8.31508661805636
 20
9.251218028563372
 30
0.0
 10
6.947813421770465
 20
9.507378511624387
 30
0.0
 10
5.661561239699447
 20
9.739686750416805
 30
0.0
 10
4.425459675586871
 20
9.949443550070995
 30
0.0
  0
SPLINE
  5
3C
330
17
100
AcDbEntity
  8
VISIBLE
100
AcDbSpline
 70
0
 71
3
 72
8
 73
4
 74
0
 40
0.0
 40
0.0
 40
0.0
 40
0.0
 40
1.0
 40
1.0
 40
1.0
 40
1.0
 10
8.315086618056311
 20
-9.251218028563382
 30
0.0
 10
6.947813409627362
 20
-9.507378513897601
 30
0.0
 10
5.6615612169045
 20
-9.739686754536864
 30
0.0
 10
4.425459642676371
 20
-9.949443555654039
 30
0.0
  0
SPLINE
  5
3D
330
17
100
AcDbEntity
  8
VISIBLE
100
AcDbSpline
 70
0
 71
3
 72
62
 73
58
 74
0
 40
0.0
 40
0.0
 40
0.0
 40
0.0
 40
0.14285714285714285
 40
0.14285714285714285
 40
0.14285714285714285
 40
0.17857142857142855
 40
0.17857142857142855
 40
0.17857142857142855
 40
0.21428571428571427
 40
0.21428571428571427
 40
0.21428571428571427
 40
0.25
 40
0.25
 40
0.25
 40
0.2857142857142857
 40
0.2857142857142857
 40
0.2857142857142857
 40
0.3571428571428571
 40
0.3571428571428571
 40
0.3571428571428571
 40
0.42857142857142855
 40
0.42857142857142855
 40
0.42857142857142855
 40
0.5
 40
0.5
 40
0.5
 40
0.5357142857142857
 40
0.5357142857142857
 40
0.5357142857142857
 40
0.5714285714285714
 40
0.5714285714285714
 40
0.5714285714285714
 40
0.6071428571428571
 40
0.6071428571428571
 40
0.6071428571428571
 40
0.6428571428571428
 40
0.6428571428571428
 40
0.6428571428571428
 40
0.7142857142857142
 40
0.7142857142857142
 40
0.7142857142857142
 40
0.7499999999999999
 40
0.7499999999999999
 40
0.7499999999999999
 40
0.7857142857142856
 40
0.7857142857142856
 40
0.7857142857142856
 40
0.8214285714285713
 40
0.8214285714285713
 40
0.8214285714285713
 40
0.857142857142857
 40
0.857142857142857
 40
0.857142857142857
 40
0.9285714285714285
 40
0.9285714285714285
 40
0.9285714285714285
 40
1.0
 40
1.0
 40
1.0
 40
1.0
 10
1.895108122076394
 20
10.355219080726538
 30
0.0
 10
0.7009720063641162
 20
10.532840317467093
 30
0.0
 10
-0.4733152687359884
 20
10.691932930258575
 30
0.0
 10
-1.8310911500572544
 20
10.828058856026399
 30
0.0
 10
-2.375254969532673
 20
10.881592382641388
 30
0.0
 10
-2.939307194845157
 20
10.931348582215058
 30
0.0
 10
-3.5753164447502956
 20
10.973134461347529
 30
0.0
 10
-4.211652832834525
 20
11.014546025380401
 30
0.0
 10
-4.916442402393838
 20
11.049669691468255
 30
0.0
 10
-5.755151000753614
 20
11.063913879792047
 30
0.0
 10
-6.594161398331245
 20
11.076962750387008
 30
0.0
 10
-7.570702780728136
 20
11.070952665273072
 30
0.0
 10
-8.762928732924973
 20
10.997905384593837
 30
0.0
 10
-9.952095614533247
 20
10.922777049388337
 30
0.0
 10
-11.367674821096678
 20
10.782570140231662
 30
0.0
 10
-13.006403320671758
 20
10.47111912690073
 30
0.0
 10
-14.83245726279981
 20
10.126256372954403
 30
0.0
 10
-16.84727934356441
 20
9.56513198516102
 30
0.0
 10
-18.78426527801801
 20
8.711214190361416
 30
0.0
 10
-20.719126078639256
 20
7.856074992174773
 30
0.0
 10
-22.57615073294947
 20
6.7081423869819305
 30
0.0
 10
-24.0292312086958
 20
5.156685306786414
 30
0.0
 10
-24.924515488544756
 20
4.195967908211071
 30
0.0
 10
-25.662625381110793
 20
3.047346740287519
 30
0.0
 10
-26.027071768859887
 20
1.7711520779934276
 30
0.0
 10
-26.209537766002395
 20
1.1350432139760027
 30
0.0
 10
-26.296564906789946
 20
0.47038559640700467
 30
0.0
 10
-26.27546653464668
 20
-0.1947132814833885
 30
0.0
 10
-26.255590532225394
 20
-0.8591765912224306
 30
0.0
 10
-26.12612596004384
 20
-1.524323690549357
 30
0.0
 10
-25.9086125137417
 20
-2.144251177996166
 30
0.0
 10
-25.550389729062967
 20
-3.166506009781619
 30
0.0
 10
-24.975956071765133
 20
-4.074575770655215
 30
0.0
 10
-24.277634805685192
 20
-4.880424645505658
 30
0.0
 10
-23.578280206794368
 20
-5.6862676138259625
 30
0.0
 10
-22.75465121964177
 20
-6.3897594260054555
 30
0.0
 10
-21.870137789358616
 20
-7.002698884088987
 30
0.0
 10
-20.09459091100378
 20
-8.22946095795539
 30
0.0
 10
-18.09751324710811
 20
-9.089793395345085
 30
0.0
 10
-16.117002336569392
 20
-9.702432866019235
 30
0.0
 10
-14.497575200844048
 20
-10.203370716610342
 30
0.0
 10
-12.901600536152005
 20
-10.521222688288624
 30
0.0
 10
-11.512198845474153
 20
-10.719293698414898
 30
0.0
 10
-10.115804058463658
 20
-10.917670716595717
 30
0.0
 10
-8.91334231522348
 20
-11.002038402663544
 30
0.0
 10
-7.894996849623734
 20
-11.041345209309174
 30
0.0
 10
-6.8744538882076975
 20
-11.079403689842769
 30
0.0
 10
-6.03020590580618
 20
-11.07326148729241
 30
0.0
 10
-5.293775681636141
 20
-11.053989233014953
 30
0.0
 10
-4.55768482859524
 20
-11.034216552724896
 30
0.0
 10
-3.9264090667778917
 20
-10.997262583945242
 30
0.0
 10
-3.3438429952197843
 20
-10.957261339482919
 30
0.0
 10
-2.287947477797562
 20
-10.881609715666341
 30
0.0
 10
-1.3977653542158166
 20
-10.788660241571574
 30
0.0
 10
-0.550599285450376
 20
-10.68722772549205
 30
0.0
 10
0.29368162442101775
 20
-10.585437893735378
 30
0.0
 10
1.0949464794761143
 20
-10.475165019993971
 30
0.0
 10
1.8951081697058036
 20
-10.355219073601228
 30
0.0
  0
SPLINE
  5
3E
330
17
100
AcDbEntity
  8
HIDDEN
100
AcDbSpline
 70
0
 71
3
 72
17
 73
13
 74
0
 40
0.0
 40
0.0
 40
0.0
 40
0.0
 40
0.4866471348398394
 40
0.4866471348398394
 40
0.4866471348398394
 40
0.6291453986323846
 40
0.6291453986323846
 40
0.6291453986323846
 40
0.8262137648482111
 40
0.8262137648482111
 40
0.8262137648482111
 40
1.0
 40
1.0
 40
1.0
 40
1.0
 10
16.0
 20
-3.5
 30
0.0
 10
15.999999999999991
 20
-3.148120298597066
 30
0.0
 10
16.0
 20
-2.757070630182782
 30
0.0
 10
16.0
 20
-2.226296478951711
 30
0.0
 10
16.0
 20
-2.071351147974959
 30
0.0
 10
16.0
 20
-1.8972099527250146
 30
0.0
 10
15.999999999999996
 20
-1.7038728932018767
 30
0.0
 10
16.000000000000014
 20
-1.4332361594068483
 30
0.0
 10
15.999999999999995
 20
-1.16076522815859
 30
0.0
 10
16.0
 20
-0.8864600994571082
 30
0.0
 10
15.999999999999991
 20
-0.648267952764929
 30
0.0
 10
16.0
 20
-0.34251342638677484
 30
0.0
 10
16.0
 20
-5.417888360170764e-14
 30
0.0
  0
SPLINE
  5
3F
330
17
100
AcDbEntity
  8
HIDDEN
100
AcDbSpline
 70
0
 71
3
 72
14
 73
10
 74
0
 40
0.0
 40
0.0
 40
0.0
 40
0.0
 40
0.2453124813446007
 40
0.2453124813446007
 40
0.2453124813446007
 40
0.4906249626892014
 40
0.4906249626892014
 40
0.4906249626892014
 40
0.5450407898659483
 40
0.5450407898659483
 40
0.5450407898659483
 40
0.5450407898659483
 10
15.999999999999998
 20
-3.5
 30
0.0
 10
14.316787298846773
 20
-3.4999999999999987
 30
0.0
 10
12.993227204179806
 20
-3.4999999999999996
 30
0.0
 10
12.055012510418104
 20
-3.5
 30
0.0
 10
11.115827889152623
 20
-3.5000000000000004
 30
0.0
 10
10.562086826494426
 20
-3.4999999999999987
 30
0.0
 10
10.393789322443512
 20
-3.5
 30
0.0
 10
10.356381558410973
 20
-3.4999999999999987
 30
0.0
 10
10.337696530030055
 20
-3.4999999999999996
 30
0.0
 10
10.337734237300753
 20
-3.5
 30
0.0
  0
SPLINE
  5
40
330
17
100
AcDbEntity
  8
HIDDEN
100
AcDbSpline
 70
0
 71
3
 72
11
 73
7
 74
0
 40
0.0
 40
0.0
 40
0.0
 40
0.0
 40
0.47440734258588035
 40
0.47440734258588035
 40
0.47440734258588035
 40
1.0
 40
1.0
 40
1.0
 40
1.0
 10
10.337734237300747
 20
-3.499999999999999
 30
0.0
 10
10.337312566809153
 20
-3.500000000000002
 30
0.0
 10
10.563964679623739
 20
-3.4999999999999982
 30
0.0
 10
10.996069837894794
 20
-3.500000000000001
 30
0.0
 10
11.471709986636133
 20
-3.499999999999998
 30
0.0
 10
12.209255434172126
 20
-3.500000000000001
 30
0.0
 10
13.100439504036713
 20
-3.5
 30
0.0
  0
SPLINE
  5
41
330
17
100
AcDbEntity
  8
HIDDEN
100
AcDbSpline
 70
0
 71
3
 72
11
 73
7
 74
0
 40
0.0
 40
0.0
 40
0.0
 40
0.0
 40
0.6185389341727888
 40
0.6185389341727888
 40
0.6185389341727888
 40
1.0
 40
1.0
 40
1.0
 40
1.0
 10
13.100439492547018
 20
-3.4999999999999996
 30
0.0
 10
13.632543634654395
 20
-2.938326155942547
 30
0.0
 10
14.049959560125803
 20
-2.298504305429972
 30
0.0
 10
14.307419870607687
 20
-1.5332560538021516
 30
0.0
 10
14.465489473573001
 20
-1.0627139090272
 30
0.0
 10
14.55737653707438
 20
-0.5361578003731851
 30
0.0
 10
14.55675508463056
 20
-5.46229728115577e-14
 30
0.0
  0
SPLINE
  5
42
330
17
100
AcDbEntity
  8
HIDDEN
100
AcDbSpline
 70
0
 71
3
 72
11
 73
7
 74
0
 40
0.0
 40
0.0
 40
0.0
 40
0.0
 40
0.06893517778056409
 40
0.06893517778056409
 40
0.06893517778056409
 40
0.13787035556112817
 40
0.13787035556112817
 40
0.13787035556112817
 40
0.13787035556112817
 10
16.2368
 20
-2.6645352591003757e-15
 30
0.0
 10
16.238467849979788
 20
1.0107754914028924
 30
0.0
 10
15.722973664572418
 20
2.0208785449042916
 30
0.0
 10
14.737419942913442
 20
2.9380125831551576
 30
0.0
 10
13.754893874356425
 20
3.8557502128938923
 30
0.0
 10
12.303617505505983
 20
4.679298262282865
 30
0.0
 10
10.516198949197294
 20
5.3334062608556305
 30
0.0
  0
SPLINE
  5
43
330
17
100
AcDbEntity
  8
HIDDEN
100
AcDbSpline
 70
0
 71
3
 72
29
 73
25
 74
0
 40
0.0
 40
0.0
 40
0.0
 40
0.0
 40
0.12499999999999999
 40
0.12499999999999999
 40
0.12499999999999999
 40
0.25
 40
0.25
 40
0.25
 40
0.375
 40
0.375
 40
0.375
 40
0.5000000000000001
 40
0.5000000000000001
 40
0.5000000000000001
 40
0.6250000000000002
 40
0.6250000000000002
 40
0.6250000000000002
 40
0.7500000000000001
 40
0.7500000000000001
 40
0.7500000000000001
 40
0.8750000000000001
 40
0.8750000000000001
 40
0.8750000000000001
 40
1.0
 40
1.0
 40
1.0
 40
1.0
 10
10.516198949197294
 20
5.3334062608556305
 30
0.0
 10
8.172768842136838
 20
6.194992203410732
 30
0.0
 10
5.248784426618919
 20
6.758109961247197
 30
0.0
 10
2.1965684251065083
 20
6.93564866868648
 30
0.0
 10
-0.8543242158092901
 20
7.117365878031856
 30
0.0
 10
-4.021440294486123
 20
6.912797195324885
 30
0.0
 10
-6.8148461143749035
 20
6.353588128654795
 30
0.0
 10
-9.612357657042837
 20
5.798206892994034
 30
0.0
 10
-12.025158545772706
 20
4.890378271581503
 30
0.0
 10
-13.680003066147748
 20
3.7705378803114895
 30
0.0
 10
-15.343089343709176
 20
2.652969115012869
 30
0.0
 10
-16.241691069637398
 20
1.3277907996215068
 30
0.0
 10
-16.236799997848372
 20
-3.339430493093815e-14
 30
0.0
 10
-16.241691069637366
 20
-1.3277907996215657
 30
0.0
 10
-15.343089343709071
 20
-2.6529691150129233
 30
0.0
 10
-13.680003066147654
 20
-3.7705378803115437
 30
0.0
 10
-12.025158545772545
 20
-4.890378271581542
 30
0.0
 10
-9.612357657042654
 20
-5.7982068929940604
 30
0.0
 10
-6.814846114374754
 20
-6.353588128654819
 30
0.0
 10
-4.021440294485921
 20
-6.912797195324891
 30
0.0
 10
-0.8543242158090669
 20
-7.11736587803184
 30
0.0
 10
2.1965684251066646
 20
-6.935648668686467
 30
0.0
 10
5.248784426619095
 20
-6.758109961247136
 30
0.0
 10
8.172768842137103
 20
-6.194992203410661
 30
0.0
 10
10.51619894919741
 20
-5.3334062608555985
 30
0.0
  0
SPLINE
  5
44
330
17
100
AcDbEntity
  8
HIDDEN
100
AcDbSpline
 70
0
 71
3
 72
11
 73
7
 74
0
 40
0.0
 40
0.0
 40
0.0
 40
0.0
 40
0.5
 40
0.5
 40
0.5
 40
1.0
 40
1.0
 40
1.0
 40
1.0
 10
10.51619894919741
 20
-5.333406260855599
 30
0.0
 10
12.303617505506171
 20
-4.679298262282828
 30
0.0
 10
13.754893874356659
 20
-3.855750212893874
 30
0.0
 10
14.737419942913467
 20
-2.938012583155122
 30
0.0
 10
15.722973664572521
 20
-2.0208785449042383
 30
0.0
 10
16.238467849979923
 20
-1.0107754914022955
 30
0.0
 10
16.236799999999988
 20
-2.6645352591003757e-15
 30
0.0
  0
SPLINE
  5
45
330
17
100
AcDbEntity
  8
HIDDEN
100
AcDbSpline
 70
0
 71
3
 72
11
 73
7
 74
0
 40
0.0
 40
0.0
 40
0.0
 40
0.0
 40
0.386354944955441
 40
0.386354944955441
 40
0.386354944955441
 40
0.9999997797852771
 40
0.9999997797852771
 40
0.9999997797852771
 40
0.9999997797852771
 10
14.556755084630451
 20
5.10702591327572e-15
 30
0.0
 10
14.557395460709406
 20
0.5431013024803161
 30
0.0
 10
14.463100901566051
 20
1.0760786968692009
 30
0.0
 10
14.301318932596915
 20
1.5513947163069683
 30
0.0
 10
14.043268311546207
 20
2.308642256333159
 30
0.0
 10
13.628374814152316
 20
2.94276437021948
 30
0.0
 10
13.100439492546894
 20
3.5000000000000013
 30
0.0
  0
SPLINE
  5
46
330
17
100
AcDbEntity
  8
HIDDEN
100
AcDbSpline
 70
0
 71
3
 72
14
 73
10
 74
0
 40
0.0
 40
0.0
 40
0.0
 40
0.0
 40
0.2453124813442432
 40
0.2453124813442432
 40
0.2453124813442432
 40
0.4906249626884864
 40
0.4906249626884864
 40
0.4906249626884864
 40
0.5450407898625379
 40
0.5450407898625379
 40
0.5450407898625379
 40
0.5450407898625379
 10
16.0
 20
3.5
 30
0.0
 10
14.316787298836942
 20
3.4999999999999987
 30
0.0
 10
12.993227204162135
 20
3.5
 30
0.0
 10
12.055012510400932
 20
3.499999999999999
 30
0.0
 10
11.11582788913395
 20
3.4999999999999982
 30
0.0
 10
10.562086826479366
 20
3.5000000000000018
 30
0.0
 10
10.393789322437163
 20
3.499999999999999
 30
0.0
 10
10.356381558408842
 20
3.5
 30
0.0
 10
10.33769653003002
 20
3.5
 30
0.0
 10
10.337734237300694
 20
3.5
 30
0.0
  0
SPLINE
  5
47
330
17
100
AcDbEntity
  8
HIDDEN
100
AcDbSpline
 70
0
 71
3
 72
11
 73
7
 74
0
 40
0.0
 40
0.0
 40
0.0
 40
0.0
 40
0.47440734259317846
 40
0.47440734259317846
 40
0.47440734259317846
 40
1.0
 40
1.0
 40
1.0
 40
1.0
 10
10.337734237300694
 20
3.5
 30
0.0
 10
10.337312566809059
 20
3.4999999999999996
 30
0.0
 10
10.563964679631043
 20
3.5
 30
0.0
 10
10.996069837915678
 20
3.500000000000001
 30
0.0
 10
11.471709986657416
 20
3.499999999999999
 30
0.0
 10
12.209255434185128
 20
3.5
 30
0.0
 10
13.10043950403662
 20
3.5
 30
0.0
  0
SPLINE
  5
48
330
17
100
AcDbEntity
  8
HIDDEN
100
AcDbSpline
 70
0
 71
3
 72
17
 73
13
 74
0
 40
0.0
 40
0.0
 40
0.0
 40
0.0
 40
0.48664713483999605
 40
0.48664713483999605
 40
0.48664713483999605
 40
0.6291453986325031
 40
0.6291453986325031
 40
0.6291453986325031
 40
0.8262137648483173
 40
0.8262137648483173
 40
0.8262137648483173
 40
1.0
 40
1.0
 40
1.0
 40
1.0
 10
16.0
 20
3.5
 30
0.0
 10
15.999999999999995
 20
3.1481202985969055
 30
0.0
 10
16.000000000000004
 20
2.7570706301826333
 30
0.0
 10
15.999999999999996
 20
2.2262964789516606
 30
0.0
 10
16.00000000000001
 20
2.0713511479749425
 30
0.0
 10
15.999999999999995
 20
1.8972099527250008
 30
0.0
 10
16.0
 20
1.7038728932018434
 30
0.0
 10
16.000000000000004
 20
1.433236159406856
 30
0.0
 10
15.999999999999995
 20
1.1607652281585852
 30
0.0
 10
16.0
 20
0.8864600994570332
 30
0.0
 10
15.999999999999995
 20
0.6482679527647985
 30
0.0
 10
16.000000000000004
 20
0.3425134263866277
 30
0.0
 10
16.0
 20
1.1546319456101628e-14
 30
0.0
  0
SPLINE
  5
49
330
17
100
AcDbEntity
  8
HIDDEN
100
AcDbSpline
 70
0
 71
3
 72
8
 73
4
 74
0
 40
0.0
 40
0.0
 40
0.0
 40
0.0
 40
1.3000984686953485
 40
1.3000984686953485
 40
1.3000984686953485
 40
1.3000984686953485
 10
6.0
 20
9.596811899848646
 30
0.0
 10
6.004503500652931
 20
9.618239711585225
 30
0.0
 10
5.424518212669707
 20
9.780058488767962
 30
0.0
 10
4.425459676658306
 20
9.949443550157342
 30
0.0
  0
SPLINE
  5
4A
330
17
100
AcDbEntity
  8
HIDDEN
100
AcDbSpline
 70
0
 71
3
 72
11
 73
7
 74
0
 40
0.0
 40
0.0
 40
0.0
 40
0.0
 40
0.27797433578571445
 40
0.27797433578571445
 40
0.27797433578571445
 40
1.0
 40
1.0
 40
1.0
 40
1.0
 10
3.3850358689878113
 20
10.10566471466247
 30
0.0
 10
3.8275152397867385
 20
10.02318457450689
 30
0.0
 10
4.223361731876325
 20
9.945645734022472
 30
0.0
 10
4.572575345256558
 20
9.87304819320923
 30
0.0
 10
5.478362828892079
 20
9.684476046534632
 30
0.0
 10
6.0050248989272
 20
9.571161152334481
 30
0.0
 10
5.999999999999999
 20
9.596811899848642
 30
0.0
  0
SPLINE
  5
4B
330
17
100
AcDbEntity
  8
HIDDEN
100
AcDbSpline
 70
0
 71
3
 72
11
 73
7
 74
0
 40
0.0
 40
0.0
 40
0.0
 40
0.0
 40
0.23339203830238853
 40
0.23339203830238853
 40
0.23339203830238853
 40
0.4103340355560964
 40
0.4103340355560964
 40
0.4103340355560964
 40
0.4103340355560964
 10
5.9999999999999964
 20
-9.59681189984865
 30
0.0
 10
6.002182609428909
 20
-9.578019052066795
 30
0.0
 10
5.680275314316582
 20
-9.640780671318627
 30
0.0
 10
5.096105504863718
 20
-9.76415550326761
 30
0.0
 10
4.6549073906691225
 20
-9.856474691048062
 30
0.0
 10
4.068309882428171
 20
-9.97959426461969
 30
0.0
 10
3.3850356087818976
 20
-10.10566474939252
 30
0.0
  0
SPLINE
  5
4C
330
17
100
AcDbEntity
  8
HIDDEN
100
AcDbSpline
 70
0
 71
3
 72
8
 73
4
 74
0
 40
0.0
 40
0.0
 40
0.0
 40
0.0
 40
1.0
 40
1.0
 40
1.0
 40
1.0
 10
4.4254597359006045
 20
-9.94944354069086
 30
0.0
 10
5.424403164277011
 20
-9.780081192431755
 30
0.0
 10
6.00453777605766
 20
-9.618234875342337
 30
0.0
 10
5.999999999999997
 20
-9.59681189984865
 30
0.0
  0
SPLINE
  5
4D
330
17
100
AcDbEntity
  8
HIDDEN
100
AcDbSpline
 70
0
 71
3
 72
23
 73
19
 74
0
 40
0.0
 40
0.0
 40
0.0
 40
0.0
 40
0.3298426937775282
 40
0.3298426937775282
 40
0.3298426937775282
 40
0.6486540656789701
 40
0.6486540656789701
 40
0.6486540656789701
 40
1.0
 40
1.0
 40
1.0
 40
1.5172561866862464
 40
1.5172561866862464
 40
1.5172561866862464
 40
1.7988354222675966
 40
1.7988354222675966
 40
1.7988354222675966
 40
2.179765321877686
 40
2.179765321877686
 40
2.179765321877686
 40
2.179765321877686
 10
6.0
 20
7.04723230235988
 30
0.0
 10
6.001326052885339
 20
7.0617310477516995
 30
0.0
 10
5.761535770156294
 20
7.156433965767899
 30
0.0
 10
5.3262020576583184
 20
7.307141443339154
 30
0.0
 10
4.906457718236285
 20
7.451677926415375
 30
0.0
 10
4.309561076805762
 20
7.643402579120221
 30
0.0
 10
3.5933676246322444
 20
7.8347462993604875
 30
0.0
 10
2.8047039101407383
 20
8.046015549658609
 30
0.0
 10
1.8666077475155358
 20
8.255483477887557
 30
0.0
 10
0.8709434744758069
 20
8.411318610809657
 30
0.0
 10
-0.5929210243397638
 20
8.645969410045023
 30
0.0
 10
-2.1787393663535557
 20
8.744039543765727
 30
0.0
 10
-3.420894096243719
 20
8.698936666619398
 30
0.0
 10
-4.098393640063578
 20
8.677018689496196
 30
0.0
 10
-4.674636968194118
 20
8.619486247489808
 30
0.0
 10
-5.10446098381639
 20
8.54893948027902
 30
0.0
 10
-5.687864131416552
 20
8.453091996270059
 30
0.0
 10
-6.001302428009741
 20
8.336723989779863
 30
0.0
 10
-5.999999998158151
 20
8.247705010683363
 30
0.0
  0
SPLINE
  5
4E
330
17
100
AcDbEntity
  8
HIDDEN
100
AcDbSpline
 70
0
 71
3
 72
26
 73
22
 74
0
 40
0.0
 40
0.0
 40
0.0
 40
0.0
 40
0.042700456322917205
 40
0.042700456322917205
 40
0.042700456322917205
 40
0.164830553517005
 40
0.164830553517005
 40
0.164830553517005
 40
0.28696065071109306
 40
0.28696065071109306
 40
0.28696065071109306
 40
0.4669743890995323
 40
0.4669743890995323
 40
0.4669743890995323
 40
0.6154818846596884
 40
0.6154818846596884
 40
0.6154818846596884
 40
0.8176514330034824
 40
0.8176514330034824
 40
0.8176514330034824
 40
1.0
 40
1.0
 40
1.0
 40
1.0
 10
-5.999999998158152
 20
8.247705010683367
 30
0.0
 10
-5.9999940633519
 20
8.225978497690287
 30
0.0
 10
-5.982035977111679
 20
8.205786161123584
 30
0.0
 10
-5.946125739437472
 20
8.187128000983222
 30
0.0
 10
-5.840994070168326
 20
8.134015458374877
 30
0.0
 10
-5.59570283810851
 20
8.09467225485314
 30
0.0
 10
-5.210252043258016
 20
8.069098390418008
 30
0.0
 10
-4.828450902900761
 20
8.042827107627051
 30
0.0
 10
-4.315209669630604
 20
8.028611669164233
 30
0.0
 10
-3.708671447146437
 20
8.01481839356462
 30
0.0
 10
-2.816026787317586
 20
7.994760405149637
 30
0.0
 10
-1.7186336760266225
 20
7.972759189833466
 30
0.0
 10
-0.5893747770981675
 20
7.91365476944776
 30
0.0
 10
0.34187737039636723
 20
7.865776961061759
 30
0.0
 10
1.291146931302821
 20
7.792314746474659
 30
0.0
 10
2.1570394162100026
 20
7.695536236364145
 30
0.0
 10
3.337803209282411
 20
7.5658578534896535
 30
0.0
 10
4.358013698868662
 20
7.389596341485416
 30
0.0
 10
5.040720529075622
 20
7.2470140477998335
 30
0.0
 10
5.659607670661021
 20
7.118855501340748
 30
0.0
 10
6.002157212500212
 20
7.027110993648519
 30
0.0
 10
6.0
 20
7.04723230235988
 30
0.0
  0
SPLINE
  5
4F
330
17
100
AcDbEntity
  8
HIDDEN
100
AcDbSpline
 70
0
 71
3
 72
23
 73
19
 74
0
 40
0.0
 40
0.0
 40
0.0
 40
0.0
 40
0.08712390733576475
 40
0.08712390733576475
 40
0.08712390733576475
 40
0.1742478146715295
 40
0.1742478146715295
 40
0.1742478146715295
 40
0.2864544352601047
 40
0.2864544352601047
 40
0.2864544352601047
 40
0.4099202940243938
 40
0.4099202940243938
 40
0.4099202940243938
 40
0.5252663064246028
 40
0.5252663064246028
 40
0.5252663064246028
 40
0.6645705983928618
 40
0.6645705983928618
 40
0.6645705983928618
 40
0.6645705983928618
 10
6.000000000000001
 20
-7.047232302359906
 30
0.0
 10
6.000620088749072
 20
-7.033237819881959
 30
0.0
 10
5.825791664225825
 20
-7.075613387267865
 30
0.0
 10
5.495248695731011
 20
-7.149357975711444
 30
0.0
 10
5.165508026649973
 20
-7.22288168920491
 30
0.0
 10
4.681261540575535
 20
-7.325470419595673
 30
0.0
 10
4.083474337329873
 20
-7.427123031668431
 30
0.0
 10
3.314766284828188
 20
-7.558998811172891
 30
0.0
 10
2.3534158667762113
 20
-7.687146405959446
 30
0.0
 10
1.3202293156998857
 20
-7.7797023479785015
 30
0.0
 10
0.184350809393901
 20
-7.883396335881103
 30
0.0
 10
-1.0338250441957484
 20
-7.94341568468308
 30
0.0
 10
-2.129752332605941
 20
-7.975721435142162
 30
0.0
 10
-3.1546298689240215
 20
-8.006833623886138
 30
0.0
 10
-4.068855561084654
 20
-8.017410454603006
 30
0.0
 10
-4.739571452551166
 20
-8.04449929550309
 30
0.0
 10
-5.5543986396771725
 20
-8.07531895740832
 30
0.0
 10
-6.003537759006604
 20
-8.139320496666716
 30
0.0
 10
-5.999999994250153
 20
-8.247704961815554
 30
0.0
  0
SPLINE
  5
50
330
17
100
AcDbEntity
  8
HIDDEN
100
AcDbSpline
 70
0
 71
3
 72
23
 73
19
 74
0
 40
0.0
 40
0.0
 40
0.0
 40
0.0
 40
0.2061227678925506
 40
0.2061227678925506
 40
0.2061227678925506
 40
0.38981799756910573
 40
0.38981799756910573
 40
0.38981799756910573
 40
0.49943086821550237
 40
0.49943086821550237
 40
0.49943086821550237
 40
0.6199487989390525
 40
0.6199487989390525
 40
0.6199487989390525
 40
0.8086953486347713
 40
0.8086953486347713
 40
0.8086953486347713
 40
1.0
 40
1.0
 40
1.0
 40
1.0
 10
-5.999999994250153
 20
-8.247704961815552
 30
0.0
 10
-6.002456713522588
 20
-8.3523139381132
 30
0.0
 10
-5.563581434647919
 20
-8.496384641349533
 30
0.0
 10
-4.766863150634373
 20
-8.59759441878124
 30
0.0
 10
-4.0609534503599765
 20
-8.687932170718245
 30
0.0
 10
-3.0695014707404678
 20
-8.736777783131602
 30
0.0
 10
-1.9607212473263753
 20
-8.692265730395606
 30
0.0
 10
-1.3003008768705029
 20
-8.66659112589421
 30
0.0
 10
-0.6021888922572898
 20
-8.608834206418875
 30
0.0
 10
0.08685171735324371
 20
-8.522123038676327
 30
0.0
 10
0.8448564779261708
 20
-8.427213150530312
 30
0.0
 10
1.5905635084437373
 20
-8.297628836148384
 30
0.0
 10
2.2763976102746506
 20
-8.151034401268994
 30
0.0
 10
3.351272373795765
 20
-7.922181484352673
 30
0.0
 10
4.281024579641488
 20
-7.651236475805735
 30
0.0
 10
4.942378635110869
 20
-7.435625844021117
 30
0.0
 10
5.6151006049650745
 20
-7.215047174644999
 30
0.0
 10
6.002843638506225
 20
-7.064279320445905
 30
0.0
 10
6.0
 20
-7.047232302359907
 30
0.0
  0
LINE
  5
51
330
17
100
AcDbEntity
  8
HIDDEN
100
AcDbLine
 10
6.0
 20
-3.5
 30
0.0
 11
6.0
 21
-7.047232302359905
 31
0.0
  0
SPLINE
  5
52
330
17
100
AcDbEntity
  8
HIDDEN
100
AcDbSpline
 70
0
 71
1
 72
17
 73
15
 74
0
 40
0.0
 40
0.0
 40
0.2243994752564138
 40
0.4487989505128276
 40
0.6731984257692414
 40
0.8975979010256552
 40
1.121997376282069
 40
1.3463968515384828
 40
1.5707963267948966
 40
1.7951958020513104
 40
2.019595277307724
 40
2.243994752564138
 40
2.4683942278205517
 40
2.6927937030769655
 40
2.9171931783333793
 40
3.141592653589793
 40
3.141592653589793
 10
6.0
 20
-3.5
 30
0.0
 10
5.849567473090942
 20
-3.4999999999999996
 30
0.0
 10
5.405813207414514
 20
-3.499999999999999
 30
0.0
 10
4.690988894808179
 20
-3.499999999999999
 30
0.0
 10
3.740938811152401
 20
-3.499999999999999
 30
0.0
 10
2.6033024347053493
 20
-3.4999999999999987
 30
0.0
 10
1.3351256037378865
 20
-3.4999999999999987
 30
0.0
 10
4.440892098500626e-16
 20
-3.4999999999999987
 30
0.0
 10
-1.335125603737886
 20
-3.4999999999999987
 30
0.0
 10
-2.6033024347053484
 20
-3.499999999999999
 30
0.0
 10
-3.7409388111524007
 20
-3.499999999999999
 30
0.0
 10
-4.690988894808179
 20
-3.499999999999999
 30
0.0
 10
-5.405813207414514
 20
-3.4999999999999996
 30
0.0
 10
-5.849567473090943
 20
-3.5
 30
0.0
 10
-6.0
 20
-3.5
 30
0.0
  0
SPLINE
  5
53
330
17
100
AcDbEntity
  8
HIDDEN
100
AcDbSpline
 70
0
 71
1
 72
17
 73
15
 74
0
 40
0.0
 40
0.0
 40
0.07142857142857142
 40
0.14285714285714285
 40
0.21428571428571427
 40
0.2857142857142857
 40
0.35714285714285715
 40
0.42857142857142855
 40
0.5
 40
0.5714285714285714
 40
0.6428571428571429
 40
0.7142857142857143
 40
0.7857142857142857
 40
0.8571428571428571
 40
0.9285714285714286
 40
1.0
 40
1.0
 10
-6.0
 20
-3.5
 30
0.0
 10
-5.849567473090942
 20
-3.5000000000000004
 30
0.0
 10
-5.405813207414515
 20
-3.500000000000001
 30
0.0
 10
-4.6909888948081795
 20
-3.500000000000001
 30
0.0
 10
-3.7409388111524016
 20
-3.500000000000001
 30
0.0
 10
-2.6033024347053497
 20
-3.5000000000000013
 30
0.0
 10
-1.3351256037378876
 20
-3.5000000000000013
 30
0.0
 10
-1.1102230246251565e-15
 20
-3.5000000000000013
 30
0.0
 10
1.3351256037378851
 20
-3.5000000000000013
 30
0.0
 10
2.6033024347053475
 20
-3.500000000000001
 30
0.0
 10
3.7409388111524002
 20
-3.500000000000001
 30
0.0
 10
4.690988894808179
 20
-3.500000000000001
 30
0.0
 10
5.405813207414514
 20
-3.5000000000000004
 30
0.0
 10
5.849567473090941
 20
-3.5
 30
0.0
 10
6.0
 20
-3.5
 30
0.0
  0
SPLINE
  5
54
330
17
100
AcDbEntity
  8
HIDDEN
100
AcDbSpline
 70
0
 71
1
 72
17
 73
15
 74
0
 40
0.0
 40
0.0
 40
0.2243994752564138
 40
0.4487989505128276
 40
0.6731984257692414
 40
0.8975979010256552
 40
1.121997376282069
 40
1.3463968515384828
 40
1.5707963267948966
 40
1.7951958020513104
 40
2.019595277307724
 40
2.243994752564138
 40
2.4683942278205517
 40
2.6927937030769655
 40
2.9171931783333793
 40
3.141592653589793
 40
3.141592653589793
 10
6.0
 20
3.5
 30
0.0
 10
5.849567473090942
 20
3.5000000000000004
 30
0.0
 10
5.405813207414514
 20
3.500000000000001
 30
0.0
 10
4.690988894808179
 20
3.500000000000001
 30
0.0
 10
3.740938811152401
 20
3.500000000000001
 30
0.0
 10
2.6033024347053493
 20
3.5000000000000013
 30
0.0
 10
1.3351256037378865
 20
3.5000000000000013
 30
0.0
 10
4.440892098500626e-16
 20
3.5000000000000013
 30
0.0
 10
-1.335125603737886
 20
3.5000000000000013
 30
0.0
 10
-2.6033024347053484
 20
3.500000000000001
 30
0.0
 10
-3.7409388111524007
 20
3.500000000000001
 30
0.0
 10
-4.690988894808179
 20
3.500000000000001
 30
0.0
 10
-5.405813207414514
 20
3.5000000000000004
 30
0.0
 10
-5.849567473090943
 20
3.5
 30
0.0
 10
-6.0
 20
3.5
 30
0.0
  0
SPLINE
  5
55
330
17
100
AcDbEntity
  8
HIDDEN
100
AcDbSpline
 70
0
 71
1
 72
17
 73
15
 74
0
 40
0.0
 40
0.0
 40
0.07142857142857142
 40
0.14285714285714285
 40
0.21428571428571427
 40
0.2857142857142857
 40
0.35714285714285715
 40
0.42857142857142855
 40
0.5
 40
0.5714285714285714
 40
0.6428571428571429
 40
0.7142857142857143
 40
0.7857142857142857
 40
0.8571428571428571
 40
0.9285714285714286
 40
1.0
 40
1.0
 10
-6.0
 20
3.5
 30
0.0
 10
-5.849567473090942
 20
3.4999999999999996
 30
0.0
 10
-5.405813207414515
 20
3.499999999999999
 30
0.0
 10
-4.6909888948081795
 20
3.499999999999999
 30
0.0
 10
-3.7409388111524016
 20
3.499999999999999
 30
0.0
 10
-2.6033024347053497
 20
3.4999999999999987
 30
0.0
 10
-1.3351256037378876
 20
3.4999999999999987
 30
0.0
 10
-1.1102230246251565e-15
 20
3.4999999999999987
 30
0.0
 10
1.3351256037378851
 20
3.4999999999999987
 30
0.0
 10
2.6033024347053475
 20
3.499999999999999
 30
0.0
 10
3.7409388111524002
 20
3.499999999999999
 30
0.0
 10
4.690988894808179
 20
3.499999999999999
 30
0.0
 10
5.405813207414514
 20
3.4999999999999996
 30
0.0
 10
5.849567473090941
 20
3.5
 30
0.0
 10
6.0
 20
3.5
 30
0.0
  0
LINE
  5
56
330
17
100
AcDbEntity
  8
HIDDEN
100
AcDbLine
 10
6.0
 20
7.047232302359882
 30
0.0
 11
6.0
 21
3.5
 31
0.0
  0
LINE
  5
57
330
17
100
AcDbEntity
  8
HIDDEN
100
AcDbLine
 10
6.0
 20
-3.5
 30
0.0
 11
6.0
 21
-9.59681189984865
 31
0.0
  0
SPLINE
  5
58
330
17
100
AcDbEntity
  8
HIDDEN
100
AcDbSpline
 70
0
 71
1
 72
17
 73
15
 74
0
 40
0.0
 40
0.0
 40
0.2243994752564138
 40
0.4487989505128276
 40
0.6731984257692414
 40
0.8975979010256552
 40
1.121997376282069
 40
1.3463968515384828
 40
1.5707963267948966
 40
1.7951958020513104
 40
2.019595277307724
 40
2.243994752564138
 40
2.4683942278205517
 40
2.6927937030769655
 40
2.9171931783333793
 40
3.141592653589793
 40
3.141592653589793
 10
6.0
 20
-3.5
 30
0.0
 10
5.849567473090942
 20
-3.4999999999999996
 30
0.0
 10
5.405813207414514
 20
-3.499999999999999
 30
0.0
 10
4.690988894808179
 20
-3.499999999999999
 30
0.0
 10
3.740938811152401
 20
-3.499999999999999
 30
0.0
 10
2.6033024347053493
 20
-3.4999999999999987
 30
0.0
 10
1.3351256037378865
 20
-3.4999999999999987
 30
0.0
 10
4.440892098500626e-16
 20
-3.4999999999999987
 30
0.0
 10
-1.335125603737886
 20
-3.4999999999999987
 30
0.0
 10
-2.6033024347053484
 20
-3.499999999999999
 30
0.0
 10
-3.7409388111524007
 20
-3.499999999999999
 30
0.0
 10
-4.690988894808179
 20
-3.499999999999999
 30
0.0
 10
-5.405813207414514
 20
-3.4999999999999996
 30
0.0
 10
-5.849567473090943
 20
-3.5
 30
0.0
 10
-6.0
 20
-3.5
 30
0.0
  0
SPLINE
  5
59
330
17
100
AcDbEntity
  8
HIDDEN
100
AcDbSpline
 70
0
 71
1
 72
17
 73
15
 74
0
 40
0.0
 40
0.0
 40
0.07142857142857142
 40
0.14285714285714285
 40
0.21428571428571427
 40
0.2857142857142857
 40
0.35714285714285715
 40
0.42857142857142855
 40
0.5
 40
0.5714285714285714
 40
0.6428571428571429
 40
0.7142857142857143
 40
0.7857142857142857
 40
0.8571428571428571
 40
0.9285714285714286
 40
1.0
 40
1.0
 10
-6.0
 20
-3.5
 30
0.0
 10
-5.849567473090942
 20
-3.5000000000000004
 30
0.0
 10
-5.405813207414515
 20
-3.500000000000001
 30
0.0
 10
-4.6909888948081795
 20
-3.500000000000001
 30
0.0
 10
-3.7409388111524016
 20
-3.500000000000001
 30
0.0
 10
-2.6033024347053497
 20
-3.5000000000000013
 30
0.0
 10
-1.3351256037378876
 20
-3.5000000000000013
 30
0.0
 10
-1.1102230246251565e-15
 20
-3.5000000000000013
 30
0.0
 10
1.3351256037378851
 20
-3.5000000000000013
 30
0.0
 10
2.6033024347053475
 20
-3.500000000000001
 30
0.0
 10
3.7409388111524002
 20
-3.500000000000001
 30
0.0
 10
4.690988894808179
 20
-3.500000000000001
 30
0.0
 10
5.405813207414514
 20
-3.5000000000000004
 30
0.0
 10
5.849567473090941
 20
-3.5
 30
0.0
 10
6.0
 20
-3.5
 30
0.0
  0
SPLINE
  5
5A
330
17
100
AcDbEntity
  8
HIDDEN
100
AcDbSpline
 70
0
 71
1
 72
17
 73
15
 74
0
 40
0.0
 40
0.0
 40
0.2243994752564138
 40
0.4487989505128276
 40
0.6731984257692414
 40
0.8975979010256552
 40
1.121997376282069
 40
1.3463968515384828
 40
1.5707963267948966
 40
1.7951958020513104
 40
2.019595277307724
 40
2.243994752564138
 40
2.4683942278205517
 40
2.6927937030769655
 40
2.9171931783333793
 40
3.141592653589793
 40
3.141592653589793
 10
6.0
 20
3.5
 30
0.0
 10
5.849567473090942
 20
3.5000000000000004
 30
0.0
 10
5.405813207414514
 20
3.500000000000001
 30
0.0
 10
4.690988894808179
 20
3.500000000000001
 30
0.0
 10
3.740938811152401
 20
3.500000000000001
 30
0.0
 10
2.6033024347053493
 20
3.5000000000000013
 30
0.0
 10
1.3351256037378865
 20
3.5000000000000013
 30
0.0
 10
4.440892098500626e-16
 20
3.5000000000000013
 30
0.0
 10
-1.335125603737886
 20
3.5000000000000013
 30
0.0
 10
-2.6033024347053484
 20
3.500000000000001
 30
0.0
 10
-3.7409388111524007
 20
3.500000000000001
 30
0.0
 10
-4.690988894808179
 20
3.500000000000001
 30
0.0
 10
-5.405813207414514
 20
3.5000000000000004
 30
0.0
 10
-5.849567473090943
 20
3.5
 30
0.0
 10
-6.0
 20
3.5
 30
0.0
  0
SPLINE
  5
5B
330
17
100
AcDbEntity
  8
HIDDEN
100
AcDbSpline
 70
0
 71
1
 72
17
 73
15
 74
0
 40
0.0
 40
0.0
 40
0.07142857142857142
 40
0.14285714285714285
 40
0.21428571428571427
 40
0.2857142857142857
 40
0.35714285714285715
 40
0.42857142857142855
 40
0.5
 40
0.5714285714285714
 40
0.6428571428571429
 40
0.7142857142857143
 40
0.7857142857142857
 40
0.8571428571428571
 40
0.9285714285714286
 40
1.0
 40
1.0
 10
-6.0
 20
3.5
 30
0.0
 10
-5.849567473090942
 20
3.4999999999999996
 30
0.0
 10
-5.405813207414515
 20
3.499999999999999
 30
0.0
 10
-4.6909888948081795
 20
3.499999999999999
 30
0.0
 10
-3.7409388111524016
 20
3.499999999999999
 30
0.0
 10
-2.6033024347053497
 20
3.4999999999999987
 30
0.0
 10
-1.3351256037378876
 20
3.4999999999999987
 30
0.0
 10
-1.1102230246251565e-15
 20
3.4999999999999987
 30
0.0
 10
1.3351256037378851
 20
3.4999999999999987
 30
0.0
 10
2.6033024347053475
 20
3.499999999999999
 30
0.0
 10
3.7409388111524002
 20
3.499999999999999
 30
0.0
 10
4.690988894808179
 20
3.499999999999999
 30
0.0
 10
5.405813207414514
 20
3.4999999999999996
 30
0.0
 10
5.849567473090941
 20
3.5
 30
0.0
 10
6.0
 20
3.5
 30
0.0
  0
LINE
  5
5C
330
17
100
AcDbEntity
  8
HIDDEN
100
AcDbLine
 10
6.0
 20
9.596811899848642
 30
0.0
 11
6.0
 21
3.5
 31
0.0
  0
SPLINE
  5
5D
330
17
100
AcDbEntity
  8
HIDDEN
100
AcDbSpline
 70
0
 71
1
 72
17
 73
15
 74
0
 40
0.0
 40
0.0
 40
0.2243994752564138
 40
0.4487989505128276
 40
0.6731984257692414
 40
0.8975979010256552
 40
1.121997376282069
 40
1.3463968515384828
 40
1.5707963267948966
 40
1.7951958020513104
 40
2.019595277307724
 40
2.243994752564138
 40
2.4683942278205517
 40
2.6927937030769655
 40
2.9171931783333793
 40
3.141592653589793
 40
3.141592653589793
 10
16.0
 20
3.5
 30
0.0
 10
15.598846594909178
 20
3.5
 30
0.0
 10
14.415501886438706
 20
3.5
 30
0.0
 10
12.509303719488475
 20
3.5
 30
0.0
 10
9.975836829739738
 20
3.5
 30
0.0
 10
6.942139825880931
 20
3.5
 30
0.0
 10
3.560334943301031
 20
3.5
 30
0.0
 10
8.881784197001252e-16
 20
3.5
 30
0.0
 10
-3.5603349433010294
 20
3.5
 30
0.0
 10
-6.942139825880928
 20
3.5
 30
0.0
 10
-9.975836829739738
 20
3.5
 30
0.0
 10
-12.509303719488475
 20
3.5
 30
0.0
 10
-14.415501886438705
 20
3.5
 30
0.0
 10
-15.598846594909176
 20
3.5
 30
0.0
 10
-16.0
 20
3.5
 30
0.0
  0
SPLINE
  5
5E
330
17
100
AcDbEntity
  8
HIDDEN
100
AcDbSpline
 70
0
 71
1
 72
17
 73
15
 74
0
 40
0.0
 40
0.0
 40
0.07142857142857148
 40
0.14285714285714296
 40
0.21428571428571444
 40
0.2857142857142859
 40
0.3571428571428574
 40
0.4285714285714289
 40
0.5000000000000003
 40
0.5714285714285718
 40
0.6428571428571433
 40
0.7142857142857147
 40
0.7857142857142863
 40
0.8571428571428578
 40
0.9285714285714293
 40
1.0
 40
1.0
 10
-16.0
 20
3.5
 30
0.0
 10
-15.739433679532763
 20
3.5
 30
0.0
 10
-14.966221569051278
 20
3.5
 30
0.0
 10
-13.705547797876655
 20
3.5
 30
0.0
 10
-11.998473506741956
 20
3.5
 30
0.0
 10
-9.900599453997838
 20
3.5
 30
0.0
 10
-7.480255054985198
 20
3.5
 30
0.0
 10
-4.8162728389933145
 20
3.5
 30
0.0
 10
-1.9954208114985814
 20
3.5
 30
0.0
 10
0.8904236483256429
 20
3.5
 30
0.0
 10
3.747266306437215
 20
3.5
 30
0.0
 10
6.482057540388885
 20
3.5
 30
0.0
 10
9.00572303904605
 20
3.5
 30
0.0
 10
11.236065023274307
 20
3.5
 30
0.0
 10
13.100439492546897
 20
3.5
 30
0.0
  0
LINE
  5
5F
330
17
100
AcDbEntity
  8
HIDDEN
100
AcDbLine
 10
-16.0
 20
3.5
 30
0.0
 11
-16.0
 21
-3.5
 31
0.0
  0
LINE
  5
60
330
17
100
AcDbEntity
  8
HIDDEN
100
AcDbLine
 10
-16.0
 20
3.5
 30
0.0
 11
-16.0
 21
-3.5
 31
0.0
  0
LINE
  5
61
330
17
100
AcDbEntity
  8
HIDDEN
100
AcDbLine
 10
16.0
 20
3.5
 30
0.0
 11
16.0
 21
-3.5
 31
0.0
  0
SPLINE
  5
62
330
17
100
AcDbEntity
  8
HIDDEN
100
AcDbSpline
 70
0
 71
1
 72
17
 73
15
 74
0
 40
0.0
 40
0.0
 40
0.2243994752564138
 40
0.4487989505128276
 40
0.6731984257692414
 40
0.8975979010256552
 40
1.121997376282069
 40
1.3463968515384828
 40
1.5707963267948966
 40
1.7951958020513104
 40
2.019595277307724
 40
2.243994752564138
 40
2.4683942278205517
 40
2.6927937030769655
 40
2.9171931783333793
 40
3.141592653589793
 40
3.141592653589793
 10
16.0
 20
-3.5
 30
0.0
 10
15.598846594909178
 20
-3.5
 30
0.0
 10
14.415501886438706
 20
-3.5
 30
0.0
 10
12.509303719488475
 20
-3.5
 30
0.0
 10
9.975836829739738
 20
-3.5
 30
0.0
 10
6.942139825880931
 20
-3.5
 30
0.0
 10
3.560334943301031
 20
-3.5
 30
0.0
 10
8.881784197001252e-16
 20
-3.5
 30
0.0
 10
-3.5603349433010294
 20
-3.5
 30
0.0
 10
-6.942139825880928
 20
-3.5
 30
0.0
 10
-9.975836829739738
 20
-3.5
 30
0.0
 10
-12.509303719488475
 20
-3.5
 30
0.0
 10
-14.415501886438705
 20
-3.5
 30
0.0
 10
-15.598846594909176
 20
-3.5
 30
0.0
 10
-16.0
 20
-3.5
 30
0.0
  0
SPLINE
  5
63
330
17
100
AcDbEntity
  8
HIDDEN
100
AcDbSpline
 70
0
 71
1
 72
17
 73
15
 74
0
 40
0.0
 40
0.0
 40
0.07142857142857148
 40
0.14285714285714296
 40
0.21428571428571444
 40
0.2857142857142859
 40
0.3571428571428574
 40
0.4285714285714289
 40
0.5000000000000003
 40
0.5714285714285718
 40
0.6428571428571433
 40
0.7142857142857147
 40
0.7857142857142863
 40
0.8571428571428578
 40
0.9285714285714293
 40
1.0
 40
1.0
 10
-16.0
 20
-3.5
 30
0.0
 10
-15.739433679532759
 20
-3.5
 30
0.0
 10
-14.966221569051267
 20
-3.5
 30
0.0
 10
-13.70554779787663
 20
-3.5
 30
0.0
 10
-11.99847350674192
 20
-3.5
 30
0.0
 10
-9.900599453997783
 20
-3.5
 30
0.0
 10
-7.480255054985124
 20
-3.5
 30
0.0
 10
-4.8162728389932195
 20
-3.5
 30
0.0
 10
-1.9954208114984686
 20
-3.5
 30
0.0
 10
0.890423648325771
 20
-3.5
 30
0.0
 10
3.7472663064373526
 20
-3.5
 30
0.0
 10
6.482057540389029
 20
-3.5
 30
0.0
 10
9.005723039046192
 20
-3.5
 30
0.0
 10
11.236065023274438
 20
-3.5
 30
0.0
 10
13.100439492547007
 20
-3.5
 30
0.0
  0
SPLINE
  5
64
330
17
100
AcDbEntity
  8
HIDDEN
100
AcDbSpline
 70
0
 71
3
 72
20
 73
16
 74
0
 40
0.0
 40
0.0
 40
0.0
 40
0.0
 40
0.125
 40
0.125
 40
0.125
 40
0.25
 40
0.25
 40
0.25
 40
0.5
 40
0.5
 40
0.5
 40
0.75
 40
0.75
 40
0.75
 40
1.0
 40
1.0
 40
1.0
 40
1.0
 10
10.337734238802533
 20
-3.5000000019576576
 30
0.0
 10
9.976172732606882
 20
-4.072765418802253
 30
0.0
 10
9.620848078722101
 20
-4.4943451413734445
 30
0.0
 10
9.301515210525423
 20
-4.837528636076361
 30
0.0
 10
8.981194825035022
 20
-5.179276543831489
 30
0.0
 10
8.694991260681624
 20
-5.439928164385846
 30
0.0
 10
8.445547025931273
 20
-5.65302048001833
 30
0.0
 10
7.945604644796533
 20
-6.075792410070804
 30
0.0
 10
7.59087363466186
 20
-6.315029561199811
 30
0.0
 10
7.328042096064146
 20
-6.489048748108345
 30
0.0
 10
7.076517372352168
 20
-6.652786858644601
 30
0.0
 10
6.912110307842368
 20
-6.747592747256634
 30
0.0
 10
6.807414980869435
 20
-6.806594696237408
 30
0.0
 10
6.7031544917368855
 20
-6.864887302220256
 30
0.0
 10
6.658605740141211
 20
-6.8873759685718445
 30
0.0
 10
6.658538263947847
 20
-6.88732737364316
 30
0.0
  0
SPLINE
  5
65
330
17
100
AcDbEntity
  8
HIDDEN
100
AcDbSpline
 70
0
 71
3
 72
14
 73
10
 74
0
 40
0.0
 40
0.0
 40
0.0
 40
0.0
 40
0.25
 40
0.25
 40
0.25
 40
0.5
 40
0.5
 40
0.5
 40
1.0
 40
1.0
 40
1.0
 40
1.0
 10
6.658538263947847
 20
-6.88732737364316
 30
0.0
 10
6.659123735935457
 20
-6.886744839655834
 30
0.0
 10
6.770710535817804
 20
-6.831466337782283
 30
0.0
 10
6.961772179651634
 20
-6.745315476835453
 30
0.0
 10
7.1559626641877365
 20
-6.656974703568947
 30
0.0
 10
7.422948765601263
 20
-6.541917522597613
 30
0.0
 10
7.762730483892213
 20
-6.400143933921442
 30
0.0
 10
8.438822888312302
 20
-6.11901697751455
 30
0.0
 10
9.37230221312637
 20
-5.752480512478504
 30
0.0
 10
10.516198949197411
 20
-5.333406260855551
 30
0.0
  0
SPLINE
  5
66
330
17
100
AcDbEntity
  8
HIDDEN
100
AcDbSpline
 70
0
 71
3
 72
14
 73
10
 74
0
 40
0.0
 40
0.0
 40
0.0
 40
0.0
 40
0.5
 40
0.5
 40
0.5
 40
0.75
 40
0.75
 40
0.75
 40
1.0
 40
1.0
 40
1.0
 40
1.0
 10
10.516198949197292
 20
5.3334062608556305
 30
0.0
 10
9.372301336396088
 20
5.7524812849314815
 30
0.0
 10
8.43882307663637
 20
6.119015993458927
 30
0.0
 10
7.762730271977996
 20
6.400143836298659
 30
0.0
 10
7.422948522541839
 20
6.5419176271031265
 30
0.0
 10
7.155962473496696
 20
6.6569748682262535
 30
0.0
 10
6.961772124842568
 20
6.745315559668036
 30
0.0
 10
6.770710603390354
 20
6.831466342706784
 30
0.0
 10
6.6591239394726776
 20
6.886744596565966
 30
0.0
 10
6.658538263947536
 20
6.887327373643245
 30
0.0
  0
SPLINE
  5
67
330
17
100
AcDbEntity
  8
HIDDEN
100
AcDbSpline
 70
0
 71
3
 72
20
 73
16
 74
0
 40
0.0
 40
0.0
 40
0.0
 40
0.0
 40
0.25
 40
0.25
 40
0.25
 40
0.5
 40
0.5
 40
0.5
 40
0.75
 40
0.75
 40
0.75
 40
0.875
 40
0.875
 40
0.875
 40
1.0
 40
1.0
 40
1.0
 40
1.0
 10
6.658538263947535
 20
6.887327373643245
 30
0.0
 10
6.656170940518792
 20
6.8894899775336675
 30
0.0
 10
6.704429184085337
 20
6.8633473489042505
 30
0.0
 10
6.803312994647149
 20
6.808899487754968
 30
0.0
 10
6.905037880537979
 20
6.751667740309215
 30
0.0
 10
7.064683520624633
 20
6.65976629831055
 30
0.0
 10
7.308301984648947
 20
6.501919067033631
 30
0.0
 10
7.569588552559554
 20
6.329703892817535
 30
0.0
 10
7.923968853786296
 20
6.092163911183423
 30
0.0
 10
8.42662311903158
 20
5.6690951845245845
 30
0.0
 10
8.677429320083444
 20
5.455800303403778
 30
0.0
 10
8.965819022762194
 20
5.194420353255986
 30
0.0
 10
9.289341310539715
 20
4.850539896151535
 30
0.0
 10
9.611846083500998
 20
4.505160599469862
 30
0.0
 10
9.971436044164415
 20
4.080111720442619
 30
0.0
 10
10.337734238802481
 20
3.5000000019576567
 30
0.0
  0
LINE
  5
68
330
17
100
AcDbEntity
  8
HIDDEN
100
AcDbLine
 10
-6.0
 20
-3.5
 30
0.0
 11
-6.0
 21
-8.247705077098608
 31
0.0
  0
LINE
  5
69
330
17
100
AcDbEntity
  8
HIDDEN
100
AcDbLine
 10
-6.0
 20
8.247705086731155
 30
0.0
 11
-6.0
 21
3.5
 31
0.0
  0
LINE
  5
6A
330
17
100
AcDbEntity
  8
HIDDEN
100
AcDbLine
 10
-6.0
 20
-3.5
 30
0.0
 11
-6.0
 21
-10.536613669823634
 31
0.0
  0
LINE
  5
6B
330
17
100
AcDbEntity
  8
HIDDEN
100
AcDbLine
 10
-6.0
 20
10.536613649173882
 30
0.0
 11
-6.0
 21
3.5
 31
0.0
  0
ENDSEC
  0
SECTION
  2
OBJECTS
  0
DICTIONARY
  5
A
330
0
100
AcDbDictionary
281
1
  3
ACAD_COLOR
350
B
  3
ACAD_GROUP
350
C
  3
ACAD_LAYOUT
350
D
  3
ACAD_MATERIAL
350
E
  3
ACAD_MLEADERSTYLE
350
F
  3
ACAD_MLINESTYLE
350
10
  3
ACAD_PLOTSETTINGS
350
11
  3
ACAD_PLOTSTYLENAME
350
12
  3
ACAD_SCALELIST
350
14
  3
ACAD_TABLESTYLE
350
15
  3
ACAD_VISUALSTYLE
350
16
  3
EZDXF_META
350
2D
  0
DICTIONARY
  5
B
330
A
100
AcDbDictionary
281
1
  0
DICTIONARY
  5
C
330
A
100
AcDbDictionary
281
1
  0
DICTIONARY
  5
D
330
A
100
AcDbDictionary
281
1
  3
Model
350
1A
  3
Layout1
350
1E
  0
DICTIONARY
  5
E
330
A
100
AcDbDictionary
281
1
  3
ByBlock
350
1F
  3
ByLayer
350
20
  3
Global
350
21
  0
DICTIONARY
  5
F
330
A
100
AcDbDictionary
281
1
  3
Standard
350
2C
  0
DICTIONARY
  5
10
330
A
100
AcDbDictionary
281
1
  3
Standard
350
22
  0
DICTIONARY
  5
11
330
A
100
AcDbDictionary
281
1
  0
ACDBDICTIONARYWDFLT
  5
12
330
A
100
AcDbDictionary
281
1
  3
Normal
350
13
100
AcDbDictionaryWithDefault
340
13
  0
ACDBPLACEHOLDER
  5
13
330
12
  0
DICTIONARY
  5
14
330
A
100
AcDbDictionary
281
1
  0
DICTIONARY
  5
15
330
A
100
AcDbDictionary
281
1
  0
DICTIONARY
  5
16
330
A
100
AcDbDictionary
281
1
  0
LAYOUT
  5
1A
330
D
100
AcDbPlotSettings
  1

  4
A3
  6

 40
7.5
 41
20.0
 42
7.5
 43
20.0
 44
420.0
 45
297.0
 46
0.0
 47
0.0
 48
0.0
 49
0.0
140
0.0
141
0.0
142
1.0
143
1.0
 70
1024
 72
1
 73
0
 74
5
  7

 75
16
 76
0
 77
2
 78
300
147
1.0
148
0.0
149
0.0
100
AcDbLayout
  1
Model
 70
1
 71
0
 10
0.0
 20
0.0
 11
420.0
 21
297.0
 12
0.0
 22
0.0
 32
0.0
 14
1e+20
 24
1e+20
 34
1e+20
 15
-1e+20
 25
-1e+20
 35
-1e+20
146
0.0
 13
0.0
 23
0.0
 33
0.0
 16
1.0
 26
0.0
 36
0.0
 17
0.0
 27
1.0
 37
0.0
 76
1
330
17
  0
LAYOUT
  5
1E
330
D
100
AcDbPlotSettings
  1

  4
A3
  6

 40
7.5
 41
20.0
 42
7.5
 43
20.0
 44
420.0
 45
297.0
 46
0.0
 47
0.0
 48
0.0
 49
0.0
140
0.0
141
0.0
142
1.0
143
1.0
 70
0
 72
1
 73
0
 74
5
  7

 75
16
 76
0
 77
2
 78
300
147
1.0
148
0.0
149
0.0
100
AcDbLayout
  1
Layout1
 70
1
 71
1
 10
0.0
 20
0.0
 11
420.0
 21
297.0
 12
0.0
 22
0.0
 32
0.0
 14
1e+20
 24
1e+20
 34
1e+20
 15
-1e+20
 25
-1e+20
 35
-1e+20
146
0.0
 13
0.0
 23
0.0
 33
0.0
 16
1.0
 26
0.0
 36
0.0
 17
0.0
 27
1.0
 37
0.0
 76
1
330
1B
  0
MATERIAL
  5
1F
102
{ACAD_REACTORS
330
E
102
}
330
E
100
AcDbMaterial
  1
ByBlock
  2

 70
0
 40
1.0
 71
1
 41
1.0
 91
-1023410177
 42
1.0
 72
1
  3

 73
1
 74
1
 75
1
 44
0.5
 73
0
 45
1.0
 46
1.0
 77
1
  4

 78
1
 79
1
170
1
 48
1.0
171
1
  6

172
1
173
1
174
1
140
1.0
141
1.0
175
1
  7

176
1
177
1
178
1
143
1.0
179
1
  8

270
1
271
1
272
1
145
1.0
146
1.0
273
1
  9

274
1
275
1
276
1
 42
1.0
 72
1
  3

 73
1
 74
1
 75
1
 94
63
  0
MATERIAL
  5
20
102
{ACAD_REACTORS
330
E
102
}
330
E
100
AcDbMaterial
  1
ByLayer
  2

 70
0
 40
1.0
 71
1
 41
1.0
 91
-1023410177
 42
1.0
 72
1
  3

 73
1
 74
1
 75
1
 44
0.5
 73
0
 45
1.0
 46
1.0
 77
1
  4

 78
1
 79
1
170
1
 48
1.0
171
1
  6

172
1
173
1
174
1
140
1.0
141
1.0
175
1
  7

176
1
177
1
178
1
143
1.0
179
1
  8

270
1
271
1
272
1
145
1.0
146
1.0
273
1
  9

274
1
275
1
276
1
 42
1.0
 72
1
  3

 73
1
 74
1
 75
1
 94
63
  0
MATERIAL
  5
21
102
{ACAD_REACTORS
330
E
102
}
330
E
100
AcDbMaterial
  1
Global
  2

 70
0
 40
1.0
 71
1
 41
1.0
 91
-1023410177
 42
1.0
 72
1
  3

 73
1
 74
1
 75
1
 44
0.5
 73
0
 45
1.0
 46
1.0
 77
1
  4

 78
1
 79
1
170
1
 48
1.0
171
1
  6

172
1
173
1
174
1
140
1.0
141
1.0
175
1
  7

176
1
177
1
178
1
143
1.0
179
1
  8

270
1
271
1
272
1
145
1.0
146
1.0
273
1
  9

274
1
275
1
276
1
 42
1.0
 72
1
  3

 73
1
 74
1
 75
1
 94
63
  0
MLINESTYLE
  5
22
102
{ACAD_REACTORS
330
10
102
}
330
10
100
AcDbMlineStyle
  2
Standard
 70
0
  3

 62
256
 51
90.0
 52
90.0
 71
2
 49
0.5
 62
256
  6
BYLAYER
 49
-0.5
 62
256
  6
BYLAYER
  0
MLEADERSTYLE
  5
2C
102
{ACAD_REACTORS
330
F
102
}
330
F
100
AcDbMLeaderStyle
179
2
170
2
171
1
172
0
 90
2
 40
0.0
 41
0.0
173
1
 91
-1056964608
 92
-2
290
1
 42
2.0
291
1
 43
8.0
  3
Standard
 44
4.0
300

342
29
174
1
175
1
176
0
178
1
 93
-1056964608
 45
4.0
292
0
297
0
 46
4.0
 94
-1056964608
 47
1.0
 49
1.0
140
1.0
294
1
141
0.0
177
0
142
1.0
295
0
296
0
143
3.75
271
0
272
9
273
9
  0
DICTIONARY
  5
2D
330
A
100
AcDbDictionary
280
1
281
1
  3
CREATED_BY_EZDXF
350
2E
  3
WRITTEN_BY_EZDXF
350
6F
  0
DICTIONARYVAR
  5
2E
330
2D
100
DictionaryVariables
280
0
  1
1.4.4 @ 2026-10-05T07:37:37.978125+00:00
  0
DICTIONARYVAR
  5
6F
330
2D
100
DictionaryVariables
280
0
  1
1.4.4 @ 2026-10-05T07:37:38.289088+00:00
  0
ENDSEC
  0
EOF
