  0
SECTION
  2
HEADER
  9
$ACADVER
  1
AC1027
  9
$ACADMAINTVER
 70
105
  9
$DWGCODEPAGE
  3
ANSI_1252
  9
$LASTSAVEDBY
  1
ezdxf
  9
$REQUIREDVERSIONS
160
0
  9
$INSBASE
 10
0.0
 20
0.0
 30
0.0
  9
$EXTMIN
 10
1e+20
 20
1e+20
 30
1e+20
  9
$EXTMAX
 10
-1e+20
 20
-1e+20
 30
-1e+20
  9
$LIMMIN
 10
0.0
 20
0.0
  9
$LIMMAX
 10
420.0
 20
297.0
  9
$ORTHOMODE
 70
0
  9
$REGENMODE
 70
1
  9
$FILLMODE
 70
1
  9
$QTEXTMODE
 70
0
  9
$MIRRTEXT
 70
1
  9
$LTSCALE
 40
1.0
  9
$ATTMODE
 70
1
  9
$TEXTSIZE
 40
2.5
  9
$TRACEWID
 40
1.0
  9
$TEXTSTYLE
  7
Standard
  9
$CLAYER
  8
0
  9
$CELTYPE
  6
ByLayer
  9
$CECOLOR
 62
256
  9
$CELTSCALE
 40
1.0
  9
$DISPSILH
 70
0
  9
$DIMSCALE
 40
1.0
  9
$DIMASZ
 40
2.5
  9
$DIMEXO
 40
0.625
  9
$DIMDLI
 40
3.75
  9
$DIMRND
 40
0.0
  9
$DIMDLE
 40
0.0
  9
$DIMEXE
 40
1.25
  9
$DIMTP
 40
0.0
  9
$DIMTM
 40
0.0
  9
$DIMTXT
 40
2.5
  9
$DIMCEN
 40
2.5
  9
$DIMTSZ
 40
0.0
  9
$DIMTOL
 70
0
  9
$DIMLIM
 70
0
  9
$DIMTIH
 70
0
  9
$DIMTOH
 70
0
  9
$DIMSE1
 70
0
  9
$DIMSE2
 70
0
  9
$DIMTAD
 70
1
  9
$DIMZIN
 70
8
  9
$DIMBLK
  1

  9
$DIMASO
 70
1
  9
$DIMSHO
 70
1
  9
$DIMPOST
  1

  9
$DIMAPOST
  1

  9
$DIMALT
 70
0
  9
$DIMALTD
 70
3
  9
$DIMALTF
 40
0.03937007874
  9
$DIMLFAC
 40
1.0
  9
$DIMTOFL
 70
1
  9
$DIMTVP
 40
0.0
  9
$DIMTIX
 70
0
  9
$DIMSOXD
 70
0
  9
$DIMSAH
 70
0
  9
$DIMBLK1
  1

  9
$DIMBLK2
  1

  9
$DIMSTYLE
  2
ISO-25
  9
$DIMCLRD
 70
0
  9
$DIMCLRE
 70
0
  9
$DIMCLRT
 70
0
  9
$DIMTFAC
 40
1.0
  9
$DIMGAP
 40
0.625
  9
$DIMJUST
 70
0
  9
$DIMSD1
 70
0
  9
$DIMSD2
 70
0
  9
$DIMTOLJ
 70
0
  9
$DIMTZIN
 70
8
  9
$DIMALTZ
 70
0
  9
$DIMALTTZ
 70
0
  9
$DIMUPT
 70
0
  9
$DIMDEC
 70
2
  9
$DIMTDEC
 70
2
  9
$DIMALTU
 70
2
  9
$DIMALTTD
 70
3
  9
$DIMTXSTY
  7
Standard
  9
$DIMAUNIT
 70
0
  9
$DIMADEC
 70
0
  9
$DIMALTRND
 40
0.0
  9
$DIMAZIN
 70
0
  9
$DIMDSEP
 70
44
  9
$DIMATFIT
 70
3
  9
$DIMFRAC
 70
0
  9
$DIMLDRBLK
  1

  9
$DIMLUNIT
 70
2
  9
$DIMLWD
 70
-2
  9
$DIMLWE
 70
-2
  9
$DIMTMOVE
 70
0
  9
$DIMFXL
 40
1.0
  9
$DIMFXLON
 70
0
  9
$DIMJOGANG
 40
0.785398163397
  9
$DIMTFILL
 70
0
  9
$DIMTFILLCLR
 70
0
  9
$DIMARCSYM
 70
0
  9
$DIMLTYPE
  6

  9
$DIMLTEX1
  6

  9
$DIMLTEX2
  6

  9
$DIMTXTDIRECTION
 70
0
  9
$LUNITS
 70
2
  9
$LUPREC
 70
4
  9
$SKETCHINC
 40
1.0
  9
$FILLETRAD
 40
10.0
  9
$AUNITS
 70
0
  9
$AUPREC
 70
2
  9
$MENU
  1
.
  9
$ELEVATION
 40
0.0
  9
$PELEVATION
 40
0.0
  9
$THICKNESS
 40
0.0
  9
$LIMCHECK
 70
0
  9
$CHAMFERA
 40
0.0
  9
$CHAMFERB
 40
0.0
  9
$CHAMFERC
 40
0.0
  9
$CHAMFERD
 40
0.0
  9
$SKPOLY
 70
0
  9
$TDCREATE
 40
2461319.609537037
  9
$TDUCREATE
 40
2458532.153996898
  9
$TDUPDATE
 40
2461319.609537037
  9
$TDUUPDATE
 40
2458532.1544311
  9
$TDINDWG
 40
0.0
  9
$TDUSRTIMER
 40
0.0
  9
$USRTIMER
 70
1
  9
$ANGBASE
 50
0.0
  9
$ANGDIR
 70
0
  9
$PDMODE
 70
0
  9
$PDSIZE
 40
0.0
  9
$PLINEWID
 40
0.0
  9
$SPLFRAME
 70
0
  9
$SPLINETYPE
 70
6
  9
$SPLINESEGS
 70
8
  9
$HANDSEED
  5
4C
  9
$SURFTAB1
 70
6
  9
$SURFTAB2
 70
6
  9
$SURFTYPE
 70
6
  9
$SURFU
 70
6
  9
$SURFV
 70
6
  9
$UCSBASE
  2

  9
$UCSNAME
  2

  9
$UCSORG
 10
0.0
 20
0.0
 30
0.0
  9
$UCSXDIR
 10
1.0
 20
0.0
 30
0.0
  9
$UCSYDIR
 10
0.0
 20
1.0
 30
0.0
  9
$UCSORTHOREF
  2

  9
$UCSORTHOVIEW
 70
0
  9
$UCSORGTOP
 10
0.0
 20
0.0
 30
0.0
  9
$UCSORGBOTTOM
 10
0.0
 20
0.0
 30
0.0
  9
$UCSORGLEFT
 10
0.0
 20
0.0
 30
0.0
  9
$UCSORGRIGHT
 10
0.0
 20
0.0
 30
0.0
  9
$UCSORGFRONT
 10
0.0
 20
0.0
 30
0.0
  9
$UCSORGBACK
 10
0.0
 20
0.0
 30
0.0
  9
$PUCSBASE
  2

  9
$PUCSNAME
  2

  9
$PUCSORG
 10
0.0
 20
0.0
 30
0.0
  9
$PUCSXDIR
 10
1.0
 20
0.0
 30
0.0
  9
$PUCSYDIR
 10
0.0
 20
1.0
 30
0.0
  9
$PUCSORTHOREF
  2

  9
$PUCSORTHOVIEW
 70
0
  9
$PUCSORGTOP
 10
0.0
 20
0.0
 30
0.0
  9
$PUCSORGBOTTOM
 10
0.0
 20
0.0
 30
0.0
  9
$PUCSORGLEFT
 10
0.0
 20
0.0
 30
0.0
  9
$PUCSORGRIGHT
 10
0.0
 20
0.0
 30
0.0
  9
$PUCSORGFRONT
 10
0.0
 20
0.0
 30
0.0
  9
$PUCSORGBACK
 10
0.0
 20
0.0
 30
0.0
  9
$USERI1
 70
0
  9
$USERI2
 70
0
  9
$USERI3
 70
0
  9
$USERI4
 70
0
  9
$USERI5
 70
0
  9
$USERR1
 40
0.0
  9
$USERR2
 40
0.0
  9
$USERR3
 40
0.0
  9
$USERR4
 40
0.0
  9
$USERR5
 40
0.0
  9
$WORLDVIEW
 70
1
  9
$SHADEDGE
 70
3
  9
$SHADEDIF
 70
70
  9
$TILEMODE
 70
1
  9
$MAXACTVP
 70
64
  9
$PINSBASE
 10
0.0
 20
0.0
 30
0.0
  9
$PLIMCHECK
 70
0
  9
$PEXTMIN
 10
1e+20
 20
1e+20
 30
1e+20
  9
$PEXTMAX
 10
-1e+20
 20
-1e+20
 30
-1e+20
  9
$PLIMMIN
 10
0.0
 20
0.0
  9
$PLIMMAX
 10
420.0
 20
297.0
  9
$UNITMODE
 70
0
  9
$VISRETAIN
 70
1
  9
$PLINEGEN
 70
0
  9
$PSLTSCALE
 70
1
  9
$TREEDEPTH
 70
3020
  9
$CMLSTYLE
  2
Standard
  9
$CMLJUST
 70
0
  9
$CMLSCALE
 40
20.0
  9
$PROXYGRAPHICS
 70
1
  9
$MEASUREMENT
 70
1
  9
$CELWEIGHT
370
-1
  9
$ENDCAPS
280
0
  9
$JOINSTYLE
280
0
  9
$LWDISPLAY
290
0
  9
$INSUNITS
 70
4
  9
$HYPERLINKBASE
  1

  9
$STYLESHEET
  1

  9
$XEDIT
290
1
  9
$CEPSNTYPE
380
0
  9
$PSTYLEMODE
290
1
  9
$FINGERPRINTGUID
  2
{AEED6C5C-6167-4C9A-AD6B-556D216681AF}
  9
$VERSIONGUID
  2
{C59210C2-8D35-4EA6-A049-57F34541491D}
  9
$EXTNAMES
290
1
  9
$PSVPSCALE
 40
0.0
  9
$OLESTARTUP
290
0
  9
$SORTENTS
280
127
  9
$INDEXCTL
280
0
  9
$HIDETEXT
280
1
  9
$XCLIPFRAME
280
1
  9
$HALOGAP
280
0
  9
$OBSCOLOR
 70
257
  9
$OBSLTYPE
280
0
  9
$INTERSECTIONDISPLAY
280
0
  9
$INTERSECTIONCOLOR
 70
257
  9
$DIMASSOC
280
2
  9
$PROJECTNAME
  1

  9
$CAMERADISPLAY
290
0
  9
$LENSLENGTH
 40
50.0
  9
$CAMERAHEIGHT
 40
0.0
  9
$STEPSPERSEC
 40
24.0
  9
$STEPSIZE
 40
100.0
  9
$3DDWFPREC
 40
2.0
  9
$PSOLWIDTH
 40
0.005
  9
$PSOLHEIGHT
 40
0.08
  9
$LOFTANG1
 40
1.570796326795
  9
$LOFTANG2
 40
1.570796326795
  9
$LOFTMAG1
 40
0.0
  9
$LOFTMAG2
 40
0.0
  9
$LOFTPARAM
 70
7
  9
$LOFTNORMALS
280
1
  9
$LATITUDE
 40
37.795
  9
$LONGITUDE
 40
-122.394
  9
$NORTHDIRECTION
 40
0.0
  9
$TIMEZONE
 70
-8000
  9
$LIGHTGLYPHDISPLAY
280
1
  9
$TILEMODELIGHTSYNCH
280
1
  9
$CMATERIAL
347
20
  9
$SOLIDHIST
280
0
  9
$SHOWHIST
280
1
  9
$DWFFRAME
280
2
  9
$DGNFRAME
280
2
  9
$REALWORLDSCALE
290
1
  9
$INTERFERECOLOR
 62
256
  9
$CSHADOW
280
0
  9
$SHADOWPLANELOCATION
 40
0.0
  0
ENDSEC
  0
SECTION
  2
CLASSES
  0
CLASS
  1
ACDBDICTIONARYWDFLT
  2
AcDbDictionaryWithDefault
  3
ObjectDBX Classes
 90
0
 91
0
280
0
281
0
  0
CLASS
  1
SUN
  2
AcDbSun
  3
SCENEOE
 90
1153
 91
0
280
0
281
0
  0
CLASS
  1
VISUALSTYLE
  2
AcDbVisualStyle
  3
ObjectDBX Classes
 90
4095
 91
0
280
0
281
0
  0
CLASS
  1
MATERIAL
  2
AcDbMaterial
  3
ObjectDBX Classes
 90
1153
 91
0
280
0
281
0
  0
CLASS
  1
SCALE
  2
AcDbScale
  3
ObjectDBX Classes
 90
1153
 91
0
280
0
281
0
  0
CLASS
  1
TABLESTYLE
  2
AcDbTableStyle
  3
ObjectDBX Classes
 90
4095
 91
0
280
0
281
0
  0
CLASS
  1
MLEADERSTYLE
  2
AcDbMLeaderStyle
  3
ACDB_MLEADERSTYLE_CLASS
 90
4095
 91
0
280
0
281
0
  0
CLASS
  1
DICTIONARYVAR
  2
AcDbDictionaryVar
  3
ObjectDBX Classes
 90
0
 91
0
280
0
281
0
  0
CLASS
  1
CELLSTYLEMAP
  2
AcDbCellStyleMap
  3
ObjectDBX Classes
 90
1152
 91
0
280
0
281
0
  0
CLASS
  1
MENTALRAYRENDERSETTINGS
  2
AcDbMentalRayRenderSettings
  3
SCENEOE
 90
1024
 91
0
280
0
281
0
  0
CLASS
  1
ACDBDETAILVIEWSTYLE
  2
AcDbDetailViewStyle
  3
ObjectDBX Classes
 90
1025
 91
0
280
0
281
0
  0
CLASS
  1
ACDBSECTIONVIEWSTYLE
  2
AcDbSectionViewStyle
  3
ObjectDBX Classes
 90
1025
 91
0
280
0
281
0
  0
CLASS
  1
RASTERVARIABLES
  2
AcDbRasterVariables
  3
ISM
 90
0
 91
0
280
0
281
0
  0
CLASS
  1
LAYOUT
  2
AcDbLayout
  3
ObjectDBX Classes
 90
0
 91
0
280
0
281
0
  0
CLASS
  1
ACDBPLACEHOLDER
  2
AcDbPlaceHolder
  3
ObjectDBX Classes
 90
0
 91
0
280
0
281
0
  0
ENDSEC
  0
SECTION
  2
TABLES
  0
TABLE
  2
VPORT
  5
8
330
0
100
AcDbSymbolTable
 70
1
  0
VPORT
  5
48
330
8
100
AcDbSymbolTableRecord
100
AcDbViewportTableRecord
  2
*Active
 70
0
 10
0.0
 20
0.0
 11
1.0
 21
1.0
 12
0.0043042412404119545
 22
-9.097816640313418
 13
0.0
 23
0.0
 14
0.5
 24
0.5
 15
0.5
 25
0.5
 16
0.0
 26
0.0
 36
1.0
 17
0.0
 27
0.0
 37
0.0
 40
65.98110414409999
 41
1.34
 42
50.0
 43
0.0
 44
0.0
 50
0.0
 51
0.0
 71
0
 72
1000
 73
1
 74
3
 75
0
 76
0
 77
0
 78
0
281
0
 65
1
110
0.0
120
0.0
130
0.0
111
1.0
121
0.0
131
0.0
112
0.0
122
1.0
132
0.0
 79
0
146
0.0
  0
ENDTAB
  0
TABLE
  2
LTYPE
  5
2
330
0
100
AcDbSymbolTable
 70
4
  0
LTYPE
  5
24
330
2
100
AcDbSymbolTableRecord
100
AcDbLinetypeTableRecord
  2
ByBlock
 70
0
  3

 72
65
 73
0
 40
0.0
  0
LTYPE
  5
25
330
2
100
AcDbSymbolTableRecord
100
AcDbLinetypeTableRecord
  2
ByLayer
 70
0
  3

 72
65
 73
0
 40
0.0
  0
LTYPE
  5
26
330
2
100
AcDbSymbolTableRecord
100
AcDbLinetypeTableRecord
  2
Continuous
 70
0
  3

 72
65
 73
0
 40
0.0
  0
LTYPE
  5
30
330
2
100
AcDbSymbolTableRecord
100
AcDbLinetypeTableRecord
  2
ACAD_ISO02W100
 70
0
  3
ISO dash __ __ __ __ __ __ __ __ __ __ __ __ __
 72
65
 73
2
 40
15.0
 49
12.0
 74
0
 49
-3.0
 74
0
  0
ENDTAB
  0
TABLE
  2
LAYER
  5
1
330
0
100
AcDbSymbolTable
 70
4
  0
LAYER
  5
27
330
1
100
AcDbSymbolTableRecord
100
AcDbLayerTableRecord
  2
0
 70
0
 62
7
  6
Continuous
370
-3
390
13
347
21
  0
LAYER
  5
28
330
1
100
AcDbSymbolTableRecord
100
AcDbLayerTableRecord
  2
Defpoints
 70
0
 62
7
  6
Continuous
290
0
370
-3
390
13
347
21
  0
LAYER
  5
2F
330
1
100
AcDbSymbolTableRecord
100
AcDbLayerTableRecord
  2
VISIBLE
 70
0
 62
7
  6
Continuous
370
25
390
13
347
21
  0
LAYER
  5
31
330
1
100
AcDbSymbolTableRecord
100
AcDbLayerTableRecord
  2
HIDDEN
 70
0
 62
7
  6
ACAD_ISO02W100
370
13
390
13
347
21
  0
ENDTAB
  0
TABLE
  2
STYLE
  5
5
330
0
100
AcDbSymbolTable
 70
1
  0
STYLE
  5
29
330
5
100
AcDbSymbolTableRecord
100
AcDbTextStyleTableRecord
  2
Standard
 70
0
 40
0.0
 41
1.0
 50
0.0
 71
0
 42
2.5
  3
txt
  4

  0
ENDTAB
  0
TABLE
  2
VIEW
  5
7
330
0
100
AcDbSymbolTable
 70
0
  0
ENDTAB
  0
TABLE
  2
UCS
  5
6
330
0
100
AcDbSymbolTable
 70
0
  0
ENDTAB
  0
TABLE
  2
APPID
  5
3
330
0
100
AcDbSymbolTable
 70
3
  0
APPID
  5
2A
330
3
100
AcDbSymbolTableRecord
100
AcDbRegAppTableRecord
  2
ACAD
 70
0
  0
APPID
  5
49
330
3
100
AcDbSymbolTableRecord
100
AcDbRegAppTableRecord
  2
HATCHBACKGROUNDCOLOR
 70
0
  0
APPID
  5
4A
330
3
100
AcDbSymbolTableRecord
100
AcDbRegAppTableRecord
  2
EZDXF
 70
0
  0
ENDTAB
  0
TABLE
  2
DIMSTYLE
  5
4
330
0
100
AcDbSymbolTable
 70
1
100
AcDbDimStyleTable
  0
DIMSTYLE
105
2B
330
4
100
AcDbSymbolTableRecord
100
AcDbDimStyleTableRecord
  2
Standard
 70
0
 40
1.0
 41
2.5
 42
0.625
 43
3.75
 44
1.25
 45
0.0
 46
0.0
 47
0.0
 48
0.0
 49
2.5
140
2.5
141
2.5
142
0.0
143
0.03937007874
144
1.0
145
0.0
146
1.0
147
0.625
148
0.0
 69
0
 70
0
 71
0
 72
0
 73
0
 74
0
 75
0
 76
0
 77
1
 78
8
 79
3
170
0
171
3
172
1
173
0
174
0
175
0
176
0
177
0
178
0
179
2
271
2
272
2
273
2
274
3
275
0
276
0
277
2
278
44
279
0
280
0
281
0
282
0
283
0
284
8
285
0
286
0
288
0
289
3
290
0
371
-2
372
-2
  0
ENDTAB
  0
TABLE
  2
BLOCK_RECORD
  5
9
330
0
100
AcDbSymbolTable
 70
2
  0
BLOCK_RECORD
  5
17
330
9
100
AcDbSymbolTableRecord
100
AcDbBlockTableRecord
  2
*Model_Space
340
1A
 70
0
280
1
281
0
  0
BLOCK_RECORD
  5
1B
330
9
100
AcDbSymbolTableRecord
100
AcDbBlockTableRecord
  2
*Paper_Space
340
1E
 70
0
280
1
281
0
  0
ENDTAB
  0
ENDSEC
  0
SECTION
  2
BLOCKS
  0
BLOCK
  5
18
330
17
100
AcDbEntity
  8
0
100
AcDbBlockBegin
  2
*Model_Space
 70
0
 10
0.0
 20
0.0
 30
0.0
  3
*Model_Space
  1

  0
ENDBLK
  5
19
330
17
100
AcDbEntity
  8
0
100
AcDbBlockEnd
  0
BLOCK
  5
1C
330
1B
100
AcDbEntity
  8
0
100
AcDbBlockBegin
  2
*Paper_Space
 70
0
 10
0.0
 20
0.0
 30
0.0
  3
*Paper_Space
  1

  0
ENDBLK
  5
1D
330
1B
100
AcDbEntity
  8
0
100
AcDbBlockEnd
  0
ENDSEC
  0
SECTION
  2
ENTITIES
  0
SPLINE
  5
32
330
17
100
AcDbEntity
  8
VISIBLE
100
AcDbSpline
 70
0
 71
3
 72
20
 73
16
 74
0
 40
0.0
 40
0.0
 40
0.0
 40
0.0
 40
0.08507289663659123
 40
0.08507289663659123
 40
0.08507289663659123
 40
0.17014579327318247
 40
0.17014579327318247
 40
0.17014579327318247
 40
0.2552186899097737
 40
0.2552186899097737
 40
0.2552186899097737
 40
0.2977551382280693
 40
0.2977551382280693
 40
0.2977551382280693
 40
0.34029158654636493
 40
0.34029158654636493
 40
0.34029158654636493
 40
0.34029158654636493
 10
22.627416997969494
 20
18.77942136133775
 30
0.0
 10
18.851915251168617
 20
20.965369846958982
 30
0.0
 10
13.974316824216217
 20
22.508313599062895
 30
0.0
 10
8.664330057545762
 20
23.19640213097033
 30
0.0
 10
3.358429741651019
 20
23.892735431736575
 30
0.0
 10
-2.363545999899694
 20
23.732086123682148
 30
0.0
 10
-7.715952845171298
 20
22.736511696393613
 30
0.0
 10
-13.071998872701375
 20
21.748965126377833
 30
0.0
 10
-18.042020887793274
 20
19.929540858434095
 30
0.0
 10
-21.943620339692103
 20
17.528051269747554
 30
0.0
 10
-23.896782294737722
 20
16.329218679198682
 30
0.0
 10
-25.586638746087193
 20
14.988862903213096
 30
0.0
 10
-26.953440860341185
 20
13.55437534435533
 30
0.0
 10
-28.321055517833173
 20
12.120124098447867
 30
0.0
 10
-29.365350859845396
 20
10.592019061883224
 30
0.0
 10
-30.049403376217583
 20
9.024089954469563
 30
0.0
  0
SPLINE
  5
33
330
17
100
AcDbEntity
  8
VISIBLE
100
AcDbSpline
 70
0
 71
3
 72
29
 73
25
 74
0
 40
0.0
 40
0.0
 40
0.0
 40
0.0
 40
0.125
 40
0.125
 40
0.125
 40
0.25
 40
0.25
 40
0.25
 40
0.3750000000000001
 40
0.3750000000000001
 40
0.3750000000000001
 40
0.5
 40
0.5
 40
0.5
 40
0.6249999999999999
 40
0.6249999999999999
 40
0.6249999999999999
 40
0.75
 40
0.75
 40
0.75
 40
0.8750000000000001
 40
0.8750000000000001
 40
0.8750000000000001
 40
1.0
 40
1.0
 40
1.0
 40
1.0
 10
-30.049403376217583
 20
9.024089954469565
 30
0.0
 10
-31.233733086391787
 20
6.320817945504308
 30
0.0
 10
-31.331141611856015
 20
3.5002821652630893
 30
0.0
 10
-30.33158881108116
 20
0.8532034588483834
 30
0.0
 10
-29.339998768775523
 20
-1.7951517100395835
 30
0.0
 10
-27.25314266770731
 20
-4.265541280386058
 30
0.0
 10
-24.28611883064248
 20
-6.303335027224543
 30
0.0
 10
-21.32547067306416
 20
-8.344283996612452
 30
0.0
 10
-17.489701569871528
 20
-9.94916452076518
 30
0.0
 10
-13.174175349743493
 20
-10.952556918497578
 30
0.0
 10
-8.862107664676461
 20
-11.960325067850889
 30
0.0
 10
-4.077628372851937
 20
-12.36489279155177
 30
0.0
 10
0.6861122984308201
 20
-12.12456009236719
 30
0.0
 10
5.450033092349276
 20
-11.888910825888292
 30
0.0
 10
10.1851034253123
 20
-11.008766379734677
 30
0.0
 10
14.403265856453073
 20
-9.574845814280552
 30
0.0
 10
18.625209485588904
 20
-8.144939319631309
 30
0.0
 10
22.323059354247967
 20
-6.163694973205103
 30
0.0
 10
25.115667366072994
 20
-3.8353253963040923
 30
0.0
 10
27.914868832106443
 20
-1.5094631297990984
 30
0.0
 10
29.804067569792338
 20
1.1595617804651992
 30
0.0
 10
30.588538282224032
 20
3.896645222258356
 30
0.0
 10
31.381039214653565
 20
6.63325117588629
 30
0.0
 10
31.067469495910967
 20
9.433255368132393
 30
0.0
 10
29.680149863272337
 20
12.008053145030555
 30
0.0
  0
SPLINE
  5
34
330
17
100
AcDbEntity
  8
VISIBLE
100
AcDbSpline
 70
0
 71
3
 72
8
 73
4
 74
0
 40
0.0
 40
0.0
 40
0.0
 40
0.0
 40
1.0
 40
1.0
 40
1.0
 40
1.0
 10
29.680149863272337
 20
12.008053145030555
 30
0.0
 10
28.307253969914544
 20
14.572001905584166
 30
0.0
 10
25.87351017771055
 20
16.90865294895918
 30
0.0
 10
22.627416997969494
 20
18.779421361337747
 30
0.0
  0
SPLINE
  5
35
330
17
100
AcDbEntity
  8
VISIBLE
100
AcDbSpline
 70
0
 71
3
 72
8
 73
4
 74
0
 40
0.0
 40
0.0
 40
0.0
 40
0.0
 40
0.8790630887813855
 40
0.8790630887813855
 40
0.8790630887813855
 40
0.8790630887813855
 10
17.32411613907039
 20
-36.35722457462454
 30
0.0
 10
19.37580958250513
 20
-35.17272258403116
 30
0.0
 10
21.050246119600025
 20
-33.94815105355005
 30
0.0
 10
22.24401119022097
 20
-32.74613406758477
 30
0.0
  0
SPLINE
  5
36
330
17
100
AcDbEntity
  8
VISIBLE
100
AcDbSpline
 70
0
 71
3
 72
8
 73
4
 74
0
 40
0.0
 40
0.0
 40
0.0
 40
0.0
 40
1.0
 40
1.0
 40
1.0
 40
1.0
 10
9.190325365862346
 20
-40.05656877996311
 30
0.0
 10
12.188394523758586
 20
-38.98872077222432
 30
0.0
 10
14.99332013459273
 20
-37.702959435731906
 30
0.0
 10
17.324116139070387
 20
-36.357224574624546
 30
0.0
  0
SPLINE
  5
37
330
17
100
AcDbEntity
  8
VISIBLE
100
AcDbSpline
 70
0
 71
3
 72
17
 73
13
 74
0
 40
0.0
 40
0.0
 40
0.0
 40
0.0
 40
0.2500000000000001
 40
0.2500000000000001
 40
0.2500000000000001
 40
0.4999999999999998
 40
0.4999999999999998
 40
0.4999999999999998
 40
0.7499999999999999
 40
0.7499999999999999
 40
0.7499999999999999
 40
1.0
 40
1.0
 40
1.0
 40
1.0
 10
-22.586143075699223
 20
-36.37499345171878
 30
0.0
 10
-21.058276230673798
 20
-37.75210800351854
 30
0.0
 10
-19.058924968300406
 20
-38.93177359275783
 30
0.0
 10
-16.709747499073224
 20
-39.84220893345566
 30
0.0
 10
-14.36207572254216
 20
-40.75380647863355
 30
0.0
 10
-11.665942693116278
 20
-41.39564427338335
 30
0.0
 10
-8.785405005896997
 20
-41.72866722374622
 30
0.0
 10
-5.905658960007554
 20
-42.06302236484645
 30
0.0
 10
-2.8431822613413793
 20
-42.08836871236341
 30
0.0
 10
0.21567688342871696
 20
-41.80316396044586
 30
0.0
 10
3.2745554632866747
 20
-41.51929811279379
 30
0.0
 10
6.328038603104818
 20
-40.92504654275789
 30
0.0
 10
9.190325365862304
 20
-40.05656877996312
 30
0.0
  0
ELLIPSE
  5
38
330
17
100
AcDbEntity
  8
VISIBLE
100
AcDbEllipse
 10
-2.220446049250313e-14
 20
5.715476066494137
 30
0.0
 11
24.5
 21
-3.329842575121855e-16
 31
0.0
 40
0.5773502691896258
 41
5.497787143782138
 42
6.283185307179586
  0
ELLIPSE
  5
39
330
17
100
AcDbEntity
  8
VISIBLE
100
AcDbEllipse
 10
-2.220446049250313e-14
 20
5.715476066494137
 30
0.0
 11
24.5
 21
-3.329842575121855e-16
 31
0.0
 40
0.5773502691896258
 41
1.1102230246251565e-16
 42
3.141592653589793
  0
ELLIPSE
  5
3A
330
17
100
AcDbEntity
  8
VISIBLE
100
AcDbEllipse
 10
-2.220446049250313e-14
 20
5.715476066494137
 30
0.0
 11
24.5
 21
-3.329842575121855e-16
 31
0.0
 40
0.5773502691896258
 41
3.141592653589793
 42
5.497787143782138
  0
SPLINE
  5
3B
330
17
100
AcDbEntity
  8
VISIBLE
100
AcDbSpline
 70
0
 71
3
 72
20
 73
16
 74
0
 40
0.0
 40
0.0
 40
0.0
 40
0.0
 40
0.16666666666666666
 40
0.16666666666666666
 40
0.16666666666666666
 40
0.3333333333333333
 40
0.3333333333333333
 40
0.3333333333333333
 40
0.6666666666666666
 40
0.6666666666666666
 40
0.6666666666666666
 40
0.8333333333333333
 40
0.8333333333333333
 40
0.8333333333333333
 40
1.0
 40
1.0
 40
1.0
 40
1.0
 10
-30.04940337621758
 20
9.024089954469563
 30
0.0
 10
-31.4732136773236
 20
5.762334413297368
 30
0.0
 10
-32.60927942341524
 20
2.330608193054306
 30
0.0
 10
-33.334189146920274
 20
-1.1999865559223668
 30
0.0
 10
-34.05981877202033
 20
-4.728851067051825
 30
0.0
 10
-34.374292374533844
 20
-8.356584106914893
 30
0.0
 10
-34.174355731549426
 20
-11.963636865452411
 30
0.0
 10
-34.02844946099838
 20
-14.623211143848513
 30
0.0
 10
-33.60311668782207
 20
-17.269335507575633
 30
0.0
 10
-32.884890082819034
 20
-19.83296613813973
 30
0.0
 10
-31.98814048802738
 20
-23.04480005549803
 30
0.0
 10
-30.623775408595296
 20
-26.12708418078303
 30
0.0
 10
-28.863802406611473
 20
-28.925929083492683
 30
0.0
 10
-27.107606045937498
 20
-31.726604204212812
 30
0.0
 10
-24.955801762711836
 20
-34.24384010235766
 30
0.0
 10
-22.586143075699233
 20
-36.374993451718765
 30
0.0
  0
SPLINE
  5
3C
330
17
100
AcDbEntity
  8
VISIBLE
100
AcDbSpline
 70
0
 71
3
 72
23
 73
19
 74
0
 40
0.0
 40
0.0
 40
0.0
 40
0.0
 40
0.10612460759224165
 40
0.10612460759224165
 40
0.10612460759224165
 40
0.31971638286281
 40
0.31971638286281
 40
0.31971638286281
 40
0.5170777489775896
 40
0.5170777489775896
 40
0.5170777489775896
 40
0.6205259336676066
 40
0.6205259336676066
 40
0.6205259336676066
 40
0.8416182336009401
 40
0.8416182336009401
 40
0.8416182336009401
 40
1.0
 40
1.0
 40
1.0
 40
1.0
 10
29.68014986327247
 20
12.00805314503041
 30
0.0
 10
30.463967893797236
 20
10.548892811718128
 30
0.0
 10
31.17119289309751
 20
9.02527009079609
 30
0.0
 10
31.780160367626102
 20
7.44681770779091
 30
0.0
 10
33.00786788304763
 20
4.271667270595445
 30
0.0
 10
33.82821086402315
 20
0.8677865348135243
 30
0.0
 10
34.11455776908277
 20
-2.608205771879332
 30
0.0
 10
34.38290085701467
 20
-5.819175449850711
 30
0.0
 10
34.19536121752353
 20
-9.083941654153254
 30
0.0
 10
33.560207541011074
 20
-12.26085331442275
 30
0.0
 10
33.226619080311046
 20
-13.928951311560814
 30
0.0
 10
32.77747333207617
 20
-15.565733323329452
 30
0.0
 10
32.21277029630629
 20
-17.171199349728646
 30
0.0
 10
31.010080107179384
 20
-20.598239314165532
 30
0.0
 10
29.301939221536465
 20
-23.841801288289542
 30
0.0
 10
27.223964756291803
 20
-26.80848189255618
 30
0.0
 10
25.735667689817937
 20
-28.934585816536636
 30
0.0
 10
24.058221266829197
 20
-30.92096497487819
 30
0.0
 10
22.24401119021389
 20
-32.746134077510874
 30
0.0
  0
SPLINE
  5
3D
330
17
100
AcDbEntity
  8
HIDDEN
100
AcDbSpline
 70
0
 71
3
 72
17
 73
13
 74
0
 40
0.0
 40
0.0
 40
0.0
 40
0.0
 40
0.24999999999999986
 40
0.24999999999999986
 40
0.24999999999999986
 40
0.5000000000000003
 40
0.5000000000000003
 40
0.5000000000000003
 40
0.7500000000000001
 40
0.7500000000000001
 40
0.7500000000000001
 40
1.0
 40
1.0
 40
1.0
 40
1.0
 10
22.710964731227296
 20
-32.25042401484384
 30
0.0
 10
24.016899756137388
 20
-30.81533890681299
 30
0.0
 10
24.965839419650926
 20
-29.29713575085329
 30
0.0
 10
25.514055189613497
 20
-27.765775542822446
 30
0.0
 10
26.063582503254462
 20
-26.23445755881648
 30
0.0
 10
26.212204280534095
 20
-24.690489299665483
 30
0.0
 10
25.953071860426636
 20
-23.2050190820721
 30
0.0
 10
25.69527354635889
 20
-21.719356641908032
 30
0.0
 10
25.029806593710912
 20
-20.29268388129278
 30
0.0
 10
23.987336648866084
 20
-18.990743928289202
 30
0.0
 10
22.94609977887464
 20
-17.688395126797715
 30
0.0
 10
21.52820459507149
 20
-16.51121001308212
 30
0.0
 10
19.798989873223306
 20
-15.513435037626754
 30
0.0
  0
SPLINE
  5
3E
330
17
100
AcDbEntity
  8
HIDDEN
100
AcDbSpline
 70
0
 71
2
 72
6
 73
3
 74
0
 40
0.0
 40
0.0
 40
0.0
 40
1.0
 40
1.0
 40
1.0
 10
22.244011190220967
 20
-32.746134067584784
 30
0.0
 10
22.49085717688297
 20
-32.497793468357465
 30
0.0
 10
22.7109647312277
 20
-32.250424014843375
 30
0.0
  0
SPLINE
  5
3F
330
17
100
AcDbEntity
  8
HIDDEN
100
AcDbSpline
 70
0
 71
3
 72
11
 73
7
 74
0
 40
0.0
 40
0.0
 40
0.0
 40
0.0
 40
0.5000000000000002
 40
0.5000000000000002
 40
0.5000000000000002
 40
1.0
 40
1.0
 40
1.0
 40
1.0
 10
-22.71096474546118
 20
-21.63835034669381
 30
0.0
 10
-24.931271145674614
 20
-24.07322189764752
 30
0.0
 10
-26.103733214483167
 20
-26.748882287733487
 30
0.0
 10
-26.076505575733535
 20
-29.31880715813618
 30
0.0
 10
-26.060189435944597
 20
-31.889725584701143
 30
0.0
 10
-24.84424291224844
 20
-34.34790725858565
 30
0.0
 10
-22.586143075699212
 20
-36.37499345171877
 30
0.0
  0
SPLINE
  5
40
330
17
100
AcDbEntity
  8
HIDDEN
100
AcDbSpline
 70
0
 71
3
 72
11
 73
7
 74
0
 40
0.0
 40
0.0
 40
0.0
 40
0.0
 40
0.4966662115079927
 40
0.4966662115079927
 40
0.4966662115079927
 40
1.0
 40
1.0
 40
1.0
 40
1.0
 10
-9.1903254010363
 20
-13.832205569484511
 30
0.0
 10
-12.16824950960652
 20
-14.158920012549025
 30
0.0
 10
-14.955787899316178
 20
-14.99097586645792
 30
0.0
 10
-17.277291981973427
 20
-16.32612545104452
 30
0.0
 10
-19.63447252553851
 20
-17.671749322864507
 30
0.0
 10
-21.493385571702206
 20
-19.523816164081644
 30
0.0
 10
-22.71096474546124
 20
-21.63835034669389
 30
0.0
  0
SPLINE
  5
41
330
17
100
AcDbEntity
  8
HIDDEN
100
AcDbSpline
 70
0
 71
3
 72
14
 73
10
 74
0
 40
0.0
 40
0.0
 40
0.0
 40
0.0
 40
0.04863534674682529
 40
0.04863534674682529
 40
0.04863534674682529
 40
0.09727069349365058
 40
0.09727069349365058
 40
0.09727069349365058
 40
0.19454138698730117
 40
0.19454138698730117
 40
0.19454138698730117
 40
0.19454138698730117
 10
19.798989873223327
 20
-15.513435037626753
 30
0.0
 10
18.070792921212245
 20
-14.515072452480261
 30
0.0
 10
16.031848494343983
 20
-13.6964502864292
 30
0.0
 10
13.776114200984853
 20
-13.095291899249808
 30
0.0
 10
11.521088053978833
 20
-12.493421595971437
 30
0.0
 10
9.050018346818883
 20
-12.109214071723443
 30
0.0
 10
6.476775517558263
 20
-11.96037414569994
 30
0.0
 10
1.3307157287918585
 20
-11.655795965829924
 30
0.0
 10
-4.219833371323831
 20
-12.3189494029757
 30
0.0
 10
-9.190325401036375
 20
-13.83220556948453
 30
0.0
  0
ELLIPSE
  5
42
330
17
100
AcDbEntity
  8
HIDDEN
100
AcDbEllipse
 10
-2.220446049250313e-14
 20
-26.94438717061491
 30
0.0
 11
24.5
 21
-3.329842575121855e-16
 31
0.0
 40
0.5773502691896258
 41
5.898664128900953
 42
6.283185307179586
  0
ELLIPSE
  5
43
330
17
100
AcDbEntity
  8
HIDDEN
100
AcDbEllipse
 10
-2.220446049250313e-14
 20
-26.94438717061491
 30
0.0
 11
24.5
 21
-3.329842575121855e-16
 31
0.0
 40
0.5773502691896258
 41
1.1102230246251565e-16
 42
1.9553175050735083
  0
ELLIPSE
  5
44
330
17
100
AcDbEntity
  8
HIDDEN
100
AcDbEllipse
 10
-2.220446049250313e-14
 20
-26.94438717061491
 30
0.0
 11
24.5
 21
-3.329842575121855e-16
 31
0.0
 40
0.5773502691896258
 41
2.757071476859932
 42
3.141592653589793
  0
ELLIPSE
  5
45
330
17
100
AcDbEntity
  8
HIDDEN
100
AcDbEllipse
 10
-2.220446049250313e-14
 20
-26.94438717061491
 30
0.0
 11
24.5
 21
-3.329842575121855e-16
 31
0.0
 40
0.5773502691896258
 41
3.141592653589793
 42
5.096910157114535
  0
LINE
  5
46
330
17
100
AcDbEntity
  8
HIDDEN
100
AcDbLine
 10
24.499999999999982
 20
-26.944387170614903
 30
0.0
 11
24.499999999999982
 21
5.715476066494141
 31
0.0
  0
LINE
  5
47
330
17
100
AcDbEntity
  8
HIDDEN
100
AcDbLine
 10
-24.500000000000025
 20
-26.944387170614903
 30
0.0
 11
-24.500000000000025
 21
5.715476066494141
 31
0.0
  0
ENDSEC
  0
SECTION
  2
OBJECTS
  0
DICTIONARY
  5
A
330
0
100
AcDbDictionary
281
1
  3
ACAD_COLOR
350
B
  3
ACAD_GROUP
350
C
  3
ACAD_LAYOUT
350
D
  3
ACAD_MATERIAL
350
E
  3
ACAD_MLEADERSTYLE
350
F
  3
ACAD_MLINESTYLE
350
10
  3
ACAD_PLOTSETTINGS
350
11
  3
ACAD_PLOTSTYLENAME
350
12
  3
ACAD_SCALELIST
350
14
  3
ACAD_TABLESTYLE
350
15
  3
ACAD_VISUALSTYLE
350
16
  3
EZDXF_META
350
2D
  0
DICTIONARY
  5
B
330
A
100
AcDbDictionary
281
1
  0
DICTIONARY
  5
C
330
A
100
AcDbDictionary
281
1
  0
DICTIONARY
  5
D
330
A
100
AcDbDictionary
281
1
  3
Model
350
1A
  3
Layout1
350
1E
  0
DICTIONARY
  5
E
330
A
100
AcDbDictionary
281
1
  3
ByBlock
350
1F
  3
ByLayer
350
20
  3
Global
350
21
  0
DICTIONARY
  5
F
330
A
100
AcDbDictionary
281
1
  3
Standard
350
2C
  0
DICTIONARY
  5
10
330
A
100
AcDbDictionary
281
1
  3
Standard
350
22
  0
DICTIONARY
  5
11
330
A
100
AcDbDictionary
281
1
  0
ACDBDICTIONARYWDFLT
  5
12
330
A
100
AcDbDictionary
281
1
  3
Normal
350
13
100
AcDbDictionaryWithDefault
340
13
  0
ACDBPLACEHOLDER
  5
13
330
12
  0
DICTIONARY
  5
14
330
A
100
AcDbDictionary
281
1
  0
DICTIONARY
  5
15
330
A
100
AcDbDictionary
281
1
  0
DICTIONARY
  5
16
330
A
100
AcDbDictionary
281
1
  0
LAYOUT
  5
1A
330
D
100
AcDbPlotSettings
  1

  4
A3
  6

 40
7.5
 41
20.0
 42
7.5
 43
20.0
 44
420.0
 45
297.0
 46
0.0
 47
0.0
 48
0.0
 49
0.0
140
0.0
141
0.0
142
1.0
143
1.0
 70
1024
 72
1
 73
0
 74
5
  7

 75
16
 76
0
 77
2
 78
300
147
1.0
148
0.0
149
0.0
100
AcDbLayout
  1
Model
 70
1
 71
0
 10
0.0
 20
0.0
 11
420.0
 21
297.0
 12
0.0
 22
0.0
 32
0.0
 14
1e+20
 24
1e+20
 34
1e+20
 15
-1e+20
 25
-1e+20
 35
-1e+20
146
0.0
 13
0.0
 23
0.0
 33
0.0
 16
1.0
 26
0.0
 36
0.0
 17
0.0
 27
1.0
 37
0.0
 76
1
330
17
  0
LAYOUT
  5
1E
330
D
100
AcDbPlotSettings
  1

  4
A3
  6

 40
7.5
 41
20.0
 42
7.5
 43
20.0
 44
420.0
 45
297.0
 46
0.0
 47
0.0
 48
0.0
 49
0.0
140
0.0
141
0.0
142
1.0
143
1.0
 70
0
 72
1
 73
0
 74
5
  7

 75
16
 76
0
 77
2
 78
300
147
1.0
148
0.0
149
0.0
100
AcDbLayout
  1
Layout1
 70
1
 71
1
 10
0.0
 20
0.0
 11
420.0
 21
297.0
 12
0.0
 22
0.0
 32
0.0
 14
1e+20
 24
1e+20
 34
1e+20
 15
-1e+20
 25
-1e+20
 35
-1e+20
146
0.0
 13
0.0
 23
0.0
 33
0.0
 16
1.0
 26
0.0
 36
0.0
 17
0.0
 27
1.0
 37
0.0
 76
1
330
1B
  0
MATERIAL
  5
1F
102
{ACAD_REACTORS
330
E
102
}
330
E
100
AcDbMaterial
  1
ByBlock
  2

 70
0
 40
1.0
 71
1
 41
1.0
 91
-1023410177
 42
1.0
 72
1
  3

 73
1
 74
1
 75
1
 44
0.5
 73
0
 45
1.0
 46
1.0
 77
1
  4

 78
1
 79
1
170
1
 48
1.0
171
1
  6

172
1
173
1
174
1
140
1.0
141
1.0
175
1
  7

176
1
177
1
178
1
143
1.0
179
1
  8

270
1
271
1
272
1
145
1.0
146
1.0
273
1
  9

274
1
275
1
276
1
 42
1.0
 72
1
  3

 73
1
 74
1
 75
1
 94
63
  0
MATERIAL
  5
20
102
{ACAD_REACTORS
330
E
102
}
330
E
100
AcDbMaterial
  1
ByLayer
  2

 70
0
 40
1.0
 71
1
 41
1.0
 91
-1023410177
 42
1.0
 72
1
  3

 73
1
 74
1
 75
1
 44
0.5
 73
0
 45
1.0
 46
1.0
 77
1
  4

 78
1
 79
1
170
1
 48
1.0
171
1
  6

172
1
173
1
174
1
140
1.0
141
1.0
175
1
  7

176
1
177
1
178
1
143
1.0
179
1
  8

270
1
271
1
272
1
145
1.0
146
1.0
273
1
  9

274
1
275
1
276
1
 42
1.0
 72
1
  3

 73
1
 74
1
 75
1
 94
63
  0
MATERIAL
  5
21
102
{ACAD_REACTORS
330
E
102
}
330
E
100
AcDbMaterial
  1
Global
  2

 70
0
 40
1.0
 71
1
 41
1.0
 91
-1023410177
 42
1.0
 72
1
  3

 73
1
 74
1
 75
1
 44
0.5
 73
0
 45
1.0
 46
1.0
 77
1
  4

 78
1
 79
1
170
1
 48
1.0
171
1
  6

172
1
173
1
174
1
140
1.0
141
1.0
175
1
  7

176
1
177
1
178
1
143
1.0
179
1
  8

270
1
271
1
272
1
145
1.0
146
1.0
273
1
  9

274
1
275
1
276
1
 42
1.0
 72
1
  3

 73
1
 74
1
 75
1
 94
63
  0
MLINESTYLE
  5
22
102
{ACAD_REACTORS
330
10
102
}
330
10
100
AcDbMlineStyle
  2
Standard
 70
0
  3

 62
256
 51
90.0
 52
90.0
 71
2
 49
0.5
 62
256
  6
BYLAYER
 49
-0.5
 62
256
  6
BYLAYER
  0
MLEADERSTYLE
  5
2C
102
{ACAD_REACTORS
330
F
102
}
330
F
100
AcDbMLeaderStyle
179
2
170
2
171
1
172
0
 90
2
 40
0.0
 41
0.0
173
1
 91
-1056964608
 92
-2
290
1
 42
2.0
291
1
 43
8.0
  3
Standard
 44
4.0
300

342
29
174
1
175
1
176
0
178
1
 93
-1056964608
 45
4.0
292
0
297
0
 46
4.0
 94
-1056964608
 47
1.0
 49
1.0
140
1.0
294
1
141
0.0
177
0
142
1.0
295
0
296
0
143
3.75
271
0
272
9
273
9
  0
DICTIONARY
  5
2D
330
A
100
AcDbDictionary
280
1
281
1
  3
CREATED_BY_EZDXF
350
2E
  3
WRITTEN_BY_EZDXF
350
4B
  0
DICTIONARYVAR
  5
2E
330
2D
100
DictionaryVariables
280
0
  1
1.4.4 @ 2026-10-05T07:37:44.042545+00:00
  0
DICTIONARYVAR
  5
4B
330
2D
100
DictionaryVariables
280
0
  1
1.4.4 @ 2026-10-05T07:37:44.131084+00:00
  0
ENDSEC
  0
EOF
