  0
SECTION
  2
HEADER
  9
$ACADVER
  1
AC1027
  9
$ACADMAINTVER
 70
105
  9
$DWGCODEPAGE
  3
ANSI_1252
  9
$LASTSAVEDBY
  1
ezdxf
  9
$REQUIREDVERSIONS
160
0
  9
$INSBASE
 10
0.0
 20
0.0
 30
0.0
  9
$EXTMIN
 10
1e+20
 20
1e+20
 30
1e+20
  9
$EXTMAX
 10
-1e+20
 20
-1e+20
 30
-1e+20
  9
$LIMMIN
 10
0.0
 20
0.0
  9
$LIMMAX
 10
420.0
 20
297.0
  9
$ORTHOMODE
 70
0
  9
$REGENMODE
 70
1
  9
$FILLMODE
 70
1
  9
$QTEXTMODE
 70
0
  9
$MIRRTEXT
 70
1
  9
$LTSCALE
 40
1.0
  9
$ATTMODE
 70
1
  9
$TEXTSIZE
 40
2.5
  9
$TRACEWID
 40
1.0
  9
$TEXTSTYLE
  7
Standard
  9
$CLAYER
  8
0
  9
$CELTYPE
  6
ByLayer
  9
$CECOLOR
 62
256
  9
$CELTSCALE
 40
1.0
  9
$DISPSILH
 70
0
  9
$DIMSCALE
 40
1.0
  9
$DIMASZ
 40
2.5
  9
$DIMEXO
 40
0.625
  9
$DIMDLI
 40
3.75
  9
$DIMRND
 40
0.0
  9
$DIMDLE
 40
0.0
  9
$DIMEXE
 40
1.25
  9
$DIMTP
 40
0.0
  9
$DIMTM
 40
0.0
  9
$DIMTXT
 40
2.5
  9
$DIMCEN
 40
2.5
  9
$DIMTSZ
 40
0.0
  9
$DIMTOL
 70
0
  9
$DIMLIM
 70
0
  9
$DIMTIH
 70
0
  9
$DIMTOH
 70
0
  9
$DIMSE1
 70
0
  9
$DIMSE2
 70
0
  9
$DIMTAD
 70
1
  9
$DIMZIN
 70
8
  9
$DIMBLK
  1

  9
$DIMASO
 70
1
  9
$DIMSHO
 70
1
  9
$DIMPOST
  1

  9
$DIMAPOST
  1

  9
$DIMALT
 70
0
  9
$DIMALTD
 70
3
  9
$DIMALTF
 40
0.03937007874
  9
$DIMLFAC
 40
1.0
  9
$DIMTOFL
 70
1
  9
$DIMTVP
 40
0.0
  9
$DIMTIX
 70
0
  9
$DIMSOXD
 70
0
  9
$DIMSAH
 70
0
  9
$DIMBLK1
  1

  9
$DIMBLK2
  1

  9
$DIMSTYLE
  2
ISO-25
  9
$DIMCLRD
 70
0
  9
$DIMCLRE
 70
0
  9
$DIMCLRT
 70
0
  9
$DIMTFAC
 40
1.0
  9
$DIMGAP
 40
0.625
  9
$DIMJUST
 70
0
  9
$DIMSD1
 70
0
  9
$DIMSD2
 70
0
  9
$DIMTOLJ
 70
0
  9
$DIMTZIN
 70
8
  9
$DIMALTZ
 70
0
  9
$DIMALTTZ
 70
0
  9
$DIMUPT
 70
0
  9
$DIMDEC
 70
2
  9
$DIMTDEC
 70
2
  9
$DIMALTU
 70
2
  9
$DIMALTTD
 70
3
  9
$DIMTXSTY
  7
Standard
  9
$DIMAUNIT
 70
0
  9
$DIMADEC
 70
0
  9
$DIMALTRND
 40
0.0
  9
$DIMAZIN
 70
0
  9
$DIMDSEP
 70
44
  9
$DIMATFIT
 70
3
  9
$DIMFRAC
 70
0
  9
$DIMLDRBLK
  1

  9
$DIMLUNIT
 70
2
  9
$DIMLWD
 70
-2
  9
$DIMLWE
 70
-2
  9
$DIMTMOVE
 70
0
  9
$DIMFXL
 40
1.0
  9
$DIMFXLON
 70
0
  9
$DIMJOGANG
 40
0.785398163397
  9
$DIMTFILL
 70
0
  9
$DIMTFILLCLR
 70
0
  9
$DIMARCSYM
 70
0
  9
$DIMLTYPE
  6

  9
$DIMLTEX1
  6

  9
$DIMLTEX2
  6

  9
$DIMTXTDIRECTION
 70
0
  9
$LUNITS
 70
2
  9
$LUPREC
 70
4
  9
$SKETCHINC
 40
1.0
  9
$FILLETRAD
 40
10.0
  9
$AUNITS
 70
0
  9
$AUPREC
 70
2
  9
$MENU
  1
.
  9
$ELEVATION
 40
0.0
  9
$PELEVATION
 40
0.0
  9
$THICKNESS
 40
0.0
  9
$LIMCHECK
 70
0
  9
$CHAMFERA
 40
0.0
  9
$CHAMFERB
 40
0.0
  9
$CHAMFERC
 40
0.0
  9
$CHAMFERD
 40
0.0
  9
$SKPOLY
 70
0
  9
$TDCREATE
 40
2461319.609513889
  9
$TDUCREATE
 40
2458532.153996898
  9
$TDUPDATE
 40
2461319.609513889
  9
$TDUUPDATE
 40
2458532.1544311
  9
$TDINDWG
 40
0.0
  9
$TDUSRTIMER
 40
0.0
  9
$USRTIMER
 70
1
  9
$ANGBASE
 50
0.0
  9
$ANGDIR
 70
0
  9
$PDMODE
 70
0
  9
$PDSIZE
 40
0.0
  9
$PLINEWID
 40
0.0
  9
$SPLFRAME
 70
0
  9
$SPLINETYPE
 70
6
  9
$SPLINESEGS
 70
8
  9
$HANDSEED
  5
8C
  9
$SURFTAB1
 70
6
  9
$SURFTAB2
 70
6
  9
$SURFTYPE
 70
6
  9
$SURFU
 70
6
  9
$SURFV
 70
6
  9
$UCSBASE
  2

  9
$UCSNAME
  2

  9
$UCSORG
 10
0.0
 20
0.0
 30
0.0
  9
$UCSXDIR
 10
1.0
 20
0.0
 30
0.0
  9
$UCSYDIR
 10
0.0
 20
1.0
 30
0.0
  9
$UCSORTHOREF
  2

  9
$UCSORTHOVIEW
 70
0
  9
$UCSORGTOP
 10
0.0
 20
0.0
 30
0.0
  9
$UCSORGBOTTOM
 10
0.0
 20
0.0
 30
0.0
  9
$UCSORGLEFT
 10
0.0
 20
0.0
 30
0.0
  9
$UCSORGRIGHT
 10
0.0
 20
0.0
 30
0.0
  9
$UCSORGFRONT
 10
0.0
 20
0.0
 30
0.0
  9
$UCSORGBACK
 10
0.0
 20
0.0
 30
0.0
  9
$PUCSBASE
  2

  9
$PUCSNAME
  2

  9
$PUCSORG
 10
0.0
 20
0.0
 30
0.0
  9
$PUCSXDIR
 10
1.0
 20
0.0
 30
0.0
  9
$PUCSYDIR
 10
0.0
 20
1.0
 30
0.0
  9
$PUCSORTHOREF
  2

  9
$PUCSORTHOVIEW
 70
0
  9
$PUCSORGTOP
 10
0.0
 20
0.0
 30
0.0
  9
$PUCSORGBOTTOM
 10
0.0
 20
0.0
 30
0.0
  9
$PUCSORGLEFT
 10
0.0
 20
0.0
 30
0.0
  9
$PUCSORGRIGHT
 10
0.0
 20
0.0
 30
0.0
  9
$PUCSORGFRONT
 10
0.0
 20
0.0
 30
0.0
  9
$PUCSORGBACK
 10
0.0
 20
0.0
 30
0.0
  9
$USERI1
 70
0
  9
$USERI2
 70
0
  9
$USERI3
 70
0
  9
$USERI4
 70
0
  9
$USERI5
 70
0
  9
$USERR1
 40
0.0
  9
$USERR2
 40
0.0
  9
$USERR3
 40
0.0
  9
$USERR4
 40
0.0
  9
$USERR5
 40
0.0
  9
$WORLDVIEW
 70
1
  9
$SHADEDGE
 70
3
  9
$SHADEDIF
 70
70
  9
$TILEMODE
 70
1
  9
$MAXACTVP
 70
64
  9
$PINSBASE
 10
0.0
 20
0.0
 30
0.0
  9
$PLIMCHECK
 70
0
  9
$PEXTMIN
 10
1e+20
 20
1e+20
 30
1e+20
  9
$PEXTMAX
 10
-1e+20
 20
-1e+20
 30
-1e+20
  9
$PLIMMIN
 10
0.0
 20
0.0
  9
$PLIMMAX
 10
420.0
 20
297.0
  9
$UNITMODE
 70
0
  9
$VISRETAIN
 70
1
  9
$PLINEGEN
 70
0
  9
$PSLTSCALE
 70
1
  9
$TREEDEPTH
 70
3020
  9
$CMLSTYLE
  2
Standard
  9
$CMLJUST
 70
0
  9
$CMLSCALE
 40
20.0
  9
$PROXYGRAPHICS
 70
1
  9
$MEASUREMENT
 70
1
  9
$CELWEIGHT
370
-1
  9
$ENDCAPS
280
0
  9
$JOINSTYLE
280
0
  9
$LWDISPLAY
290
0
  9
$INSUNITS
 70
4
  9
$HYPERLINKBASE
  1

  9
$STYLESHEET
  1

  9
$XEDIT
290
1
  9
$CEPSNTYPE
380
0
  9
$PSTYLEMODE
290
1
  9
$FINGERPRINTGUID
  2
{9CAD010E-78CA-4E7B-BACA-D2EFCC88B491}
  9
$VERSIONGUID
  2
{9C6CEB5B-F0A4-4557-8A6F-E6BC425D5749}
  9
$EXTNAMES
290
1
  9
$PSVPSCALE
 40
0.0
  9
$OLESTARTUP
290
0
  9
$SORTENTS
280
127
  9
$INDEXCTL
280
0
  9
$HIDETEXT
280
1
  9
$XCLIPFRAME
280
1
  9
$HALOGAP
280
0
  9
$OBSCOLOR
 70
257
  9
$OBSLTYPE
280
0
  9
$INTERSECTIONDISPLAY
280
0
  9
$INTERSECTIONCOLOR
 70
257
  9
$DIMASSOC
280
2
  9
$PROJECTNAME
  1

  9
$CAMERADISPLAY
290
0
  9
$LENSLENGTH
 40
50.0
  9
$CAMERAHEIGHT
 40
0.0
  9
$STEPSPERSEC
 40
24.0
  9
$STEPSIZE
 40
100.0
  9
$3DDWFPREC
 40
2.0
  9
$PSOLWIDTH
 40
0.005
  9
$PSOLHEIGHT
 40
0.08
  9
$LOFTANG1
 40
1.570796326795
  9
$LOFTANG2
 40
1.570796326795
  9
$LOFTMAG1
 40
0.0
  9
$LOFTMAG2
 40
0.0
  9
$LOFTPARAM
 70
7
  9
$LOFTNORMALS
280
1
  9
$LATITUDE
 40
37.795
  9
$LONGITUDE
 40
-122.394
  9
$NORTHDIRECTION
 40
0.0
  9
$TIMEZONE
 70
-8000
  9
$LIGHTGLYPHDISPLAY
280
1
  9
$TILEMODELIGHTSYNCH
280
1
  9
$CMATERIAL
347
20
  9
$SOLIDHIST
280
0
  9
$SHOWHIST
280
1
  9
$DWFFRAME
280
2
  9
$DGNFRAME
280
2
  9
$REALWORLDSCALE
290
1
  9
$INTERFERECOLOR
 62
256
  9
$CSHADOW
280
0
  9
$SHADOWPLANELOCATION
 40
0.0
  0
ENDSEC
  0
SECTION
  2
CLASSES
  0
CLASS
  1
ACDBDICTIONARYWDFLT
  2
AcDbDictionaryWithDefault
  3
ObjectDBX Classes
 90
0
 91
0
280
0
281
0
  0
CLASS
  1
SUN
  2
AcDbSun
  3
SCENEOE
 90
1153
 91
0
280
0
281
0
  0
CLASS
  1
VISUALSTYLE
  2
AcDbVisualStyle
  3
ObjectDBX Classes
 90
4095
 91
0
280
0
281
0
  0
CLASS
  1
MATERIAL
  2
AcDbMaterial
  3
ObjectDBX Classes
 90
1153
 91
0
280
0
281
0
  0
CLASS
  1
SCALE
  2
AcDbScale
  3
ObjectDBX Classes
 90
1153
 91
0
280
0
281
0
  0
CLASS
  1
TABLESTYLE
  2
AcDbTableStyle
  3
ObjectDBX Classes
 90
4095
 91
0
280
0
281
0
  0
CLASS
  1
MLEADERSTYLE
  2
AcDbMLeaderStyle
  3
ACDB_MLEADERSTYLE_CLASS
 90
4095
 91
0
280
0
281
0
  0
CLASS
  1
DICTIONARYVAR
  2
AcDbDictionaryVar
  3
ObjectDBX Classes
 90
0
 91
0
280
0
281
0
  0
CLASS
  1
CELLSTYLEMAP
  2
AcDbCellStyleMap
  3
ObjectDBX Classes
 90
1152
 91
0
280
0
281
0
  0
CLASS
  1
MENTALRAYRENDERSETTINGS
  2
AcDbMentalRayRenderSettings
  3
SCENEOE
 90
1024
 91
0
280
0
281
0
  0
CLASS
  1
ACDBDETAILVIEWSTYLE
  2
AcDbDetailViewStyle
  3
ObjectDBX Classes
 90
1025
 91
0
280
0
281
0
  0
CLASS
  1
ACDBSECTIONVIEWSTYLE
  2
AcDbSectionViewStyle
  3
ObjectDBX Classes
 90
1025
 91
0
280
0
281
0
  0
CLASS
  1
RASTERVARIABLES
  2
AcDbRasterVariables
  3
ISM
 90
0
 91
0
280
0
281
0
  0
CLASS
  1
LAYOUT
  2
AcDbLayout
  3
ObjectDBX Classes
 90
0
 91
0
280
0
281
0
  0
CLASS
  1
ACDBPLACEHOLDER
  2
AcDbPlaceHolder
  3
ObjectDBX Classes
 90
0
 91
0
280
0
281
0
  0
ENDSEC
  0
SECTION
  2
TABLES
  0
TABLE
  2
VPORT
  5
8
330
0
100
AcDbSymbolTable
 70
1
  0
VPORT
  5
88
330
8
100
AcDbSymbolTableRecord
100
AcDbViewportTableRecord
  2
*Active
 70
0
 10
0.0
 20
0.0
 11
1.0
 21
1.0
 12
-7.394973522423243e-11
 22
-70.00000000000009
 13
0.0
 23
0.0
 14
0.5
 24
0.5
 15
0.5
 25
0.5
 16
0.0
 26
0.0
 36
1.0
 17
0.0
 27
0.0
 37
0.0
 40
176.00000000000017
 41
1.34
 42
50.0
 43
0.0
 44
0.0
 50
0.0
 51
0.0
 71
0
 72
1000
 73
1
 74
3
 75
0
 76
0
 77
0
 78
0
281
0
 65
1
110
0.0
120
0.0
130
0.0
111
1.0
121
0.0
131
0.0
112
0.0
122
1.0
132
0.0
 79
0
146
0.0
  0
ENDTAB
  0
TABLE
  2
LTYPE
  5
2
330
0
100
AcDbSymbolTable
 70
4
  0
LTYPE
  5
24
330
2
100
AcDbSymbolTableRecord
100
AcDbLinetypeTableRecord
  2
ByBlock
 70
0
  3

 72
65
 73
0
 40
0.0
  0
LTYPE
  5
25
330
2
100
AcDbSymbolTableRecord
100
AcDbLinetypeTableRecord
  2
ByLayer
 70
0
  3

 72
65
 73
0
 40
0.0
  0
LTYPE
  5
26
330
2
100
AcDbSymbolTableRecord
100
AcDbLinetypeTableRecord
  2
Continuous
 70
0
  3

 72
65
 73
0
 40
0.0
  0
LTYPE
  5
30
330
2
100
AcDbSymbolTableRecord
100
AcDbLinetypeTableRecord
  2
ACAD_ISO02W100
 70
0
  3
ISO dash __ __ __ __ __ __ __ __ __ __ __ __ __
 72
65
 73
2
 40
15.0
 49
12.0
 74
0
 49
-3.0
 74
0
  0
ENDTAB
  0
TABLE
  2
LAYER
  5
1
330
0
100
AcDbSymbolTable
 70
4
  0
LAYER
  5
27
330
1
100
AcDbSymbolTableRecord
100
AcDbLayerTableRecord
  2
0
 70
0
 62
7
  6
Continuous
370
-3
390
13
347
21
  0
LAYER
  5
28
330
1
100
AcDbSymbolTableRecord
100
AcDbLayerTableRecord
  2
Defpoints
 70
0
 62
7
  6
Continuous
290
0
370
-3
390
13
347
21
  0
LAYER
  5
2F
330
1
100
AcDbSymbolTableRecord
100
AcDbLayerTableRecord
  2
VISIBLE
 70
0
 62
7
  6
Continuous
370
25
390
13
347
21
  0
LAYER
  5
31
330
1
100
AcDbSymbolTableRecord
100
AcDbLayerTableRecord
  2
HIDDEN
 70
0
 62
7
  6
ACAD_ISO02W100
370
13
390
13
347
21
  0
ENDTAB
  0
TABLE
  2
STYLE
  5
5
330
0
100
AcDbSymbolTable
 70
1
  0
STYLE
  5
29
330
5
100
AcDbSymbolTableRecord
100
AcDbTextStyleTableRecord
  2
Standard
 70
0
 40
0.0
 41
1.0
 50
0.0
 71
0
 42
2.5
  3
txt
  4

  0
ENDTAB
  0
TABLE
  2
VIEW
  5
7
330
0
100
AcDbSymbolTable
 70
0
  0
ENDTAB
  0
TABLE
  2
UCS
  5
6
330
0
100
AcDbSymbolTable
 70
0
  0
ENDTAB
  0
TABLE
  2
APPID
  5
3
330
0
100
AcDbSymbolTable
 70
3
  0
APPID
  5
2A
330
3
100
AcDbSymbolTableRecord
100
AcDbRegAppTableRecord
  2
ACAD
 70
0
  0
APPID
  5
89
330
3
100
AcDbSymbolTableRecord
100
AcDbRegAppTableRecord
  2
HATCHBACKGROUNDCOLOR
 70
0
  0
APPID
  5
8A
330
3
100
AcDbSymbolTableRecord
100
AcDbRegAppTableRecord
  2
EZDXF
 70
0
  0
ENDTAB
  0
TABLE
  2
DIMSTYLE
  5
4
330
0
100
AcDbSymbolTable
 70
1
100
AcDbDimStyleTable
  0
DIMSTYLE
105
2B
330
4
100
AcDbSymbolTableRecord
100
AcDbDimStyleTableRecord
  2
Standard
 70
0
 40
1.0
 41
2.5
 42
0.625
 43
3.75
 44
1.25
 45
0.0
 46
0.0
 47
0.0
 48
0.0
 49
2.5
140
2.5
141
2.5
142
0.0
143
0.03937007874
144
1.0
145
0.0
146
1.0
147
0.625
148
0.0
 69
0
 70
0
 71
0
 72
0
 73
0
 74
0
 75
0
 76
0
 77
1
 78
8
 79
3
170
0
171
3
172
1
173
0
174
0
175
0
176
0
177
0
178
0
179
2
271
2
272
2
273
2
274
3
275
0
276
0
277
2
278
44
279
0
280
0
281
0
282
0
283
0
284
8
285
0
286
0
288
0
289
3
290
0
371
-2
372
-2
  0
ENDTAB
  0
TABLE
  2
BLOCK_RECORD
  5
9
330
0
100
AcDbSymbolTable
 70
2
  0
BLOCK_RECORD
  5
17
330
9
100
AcDbSymbolTableRecord
100
AcDbBlockTableRecord
  2
*Model_Space
340
1A
 70
0
280
1
281
0
  0
BLOCK_RECORD
  5
1B
330
9
100
AcDbSymbolTableRecord
100
AcDbBlockTableRecord
  2
*Paper_Space
340
1E
 70
0
280
1
281
0
  0
ENDTAB
  0
ENDSEC
  0
SECTION
  2
BLOCKS
  0
BLOCK
  5
18
330
17
100
AcDbEntity
  8
0
100
AcDbBlockBegin
  2
*Model_Space
 70
0
 10
0.0
 20
0.0
 30
0.0
  3
*Model_Space
  1

  0
ENDBLK
  5
19
330
17
100
AcDbEntity
  8
0
100
AcDbBlockEnd
  0
BLOCK
  5
1C
330
1B
100
AcDbEntity
  8
0
100
AcDbBlockBegin
  2
*Paper_Space
 70
0
 10
0.0
 20
0.0
 30
0.0
  3
*Paper_Space
  1

  0
ENDBLK
  5
1D
330
1B
100
AcDbEntity
  8
0
100
AcDbBlockEnd
  0
ENDSEC
  0
SECTION
  2
ENTITIES
  0
SPLINE
  5
32
330
17
100
AcDbEntity
  8
VISIBLE
100
AcDbSpline
 70
0
 71
3
 72
14
 73
10
 74
0
 40
0.0
 40
0.0
 40
0.0
 40
0.0
 40
0.12500000003142975
 40
0.12500000003142975
 40
0.12500000003142975
 40
0.18750000004714462
 40
0.18750000004714462
 40
0.18750000004714462
 40
0.2500000000628595
 40
0.2500000000628595
 40
0.2500000000628595
 40
0.2500000000628595
 10
8.881784197001252e-15
 20
18.0
 30
0.0
 10
2.6216470310460944
 20
17.999999999999993
 30
0.0
 10
5.224787200711662
 20
18.0
 30
0.0
 10
7.071067813260518
 20
18.0
 30
0.0
 10
7.9972433628115125
 20
17.999999999999993
 30
0.0
 10
8.738462796506191
 20
18.0
 30
0.0
 10
9.238795335568838
 20
18.0
 30
0.0
 10
9.740414859513672
 20
17.999999999999993
 30
0.0
 10
10.000696495009324
 20
18.0
 30
0.0
 10
9.999999985121681
 20
18.0
 30
0.0
  0
SPLINE
  5
33
330
17
100
AcDbEntity
  8
VISIBLE
100
AcDbSpline
 70
0
 71
3
 72
14
 73
10
 74
0
 40
0.0
 40
0.0
 40
0.0
 40
0.0
 40
0.24999999999999978
 40
0.24999999999999978
 40
0.24999999999999978
 40
0.5
 40
0.5
 40
0.5
 40
1.0
 40
1.0
 40
1.0
 40
1.0
 10
-9.999999985121685
 20
18.0
 30
0.0
 10
-10.000696495009258
 20
18.000000000000014
 30
0.0
 10
-9.740414859513544
 20
17.999999999999993
 30
0.0
 10
-9.238795335568836
 20
18.0
 30
0.0
 10
-8.738462796506054
 20
18.0
 30
0.0
 10
-7.9972433628114326
 20
18.0
 30
0.0
 10
-7.071067813260577
 20
17.999999999999996
 30
0.0
 10
-5.224787200712352
 20
17.99999999999999
 30
0.0
 10
-2.621647031044627
 20
18.000000000000007
 30
0.0
 10
-1.2878587085651816e-14
 20
18.0
 30
0.0
  0
SPLINE
  5
34
330
17
100
AcDbEntity
  8
VISIBLE
100
AcDbSpline
 70
0
 71
3
 72
14
 73
10
 74
0
 40
0.0
 40
0.0
 40
0.0
 40
0.0
 40
0.24821479234590813
 40
0.24821479234590813
 40
0.24821479234590813
 40
0.49642958469181625
 40
0.49642958469181625
 40
0.49642958469181625
 40
1.0
 40
1.0
 40
1.0
 40
1.0
 10
-1.7763568394002505e-14
 20
-141.00653911822513
 30
0.0
 10
-0.08815546978304623
 20
-141.00769093023527
 30
0.0
 10
-0.18331932772056392
 20
-140.97854821735262
 30
0.0
 10
-0.2854915738125705
 20
-140.91911097957689
 30
0.0
 10
-0.3865741885330905
 20
-140.85993257432347
 30
0.0
 10
-0.4924371339245621
 20
-140.76931819412584
 30
0.0
 10
-0.5919294788538816
 20
-140.6700368899172
 30
0.0
 10
-0.7929585308040474
 20
-140.468044986698
 30
0.0
 10
-0.9775166053107572
 20
-140.23563510012775
 30
0.0
 10
-1.1589381531858418
 20
-140.0
 30
0.0
  0
SPLINE
  5
35
330
17
100
AcDbEntity
  8
VISIBLE
100
AcDbSpline
 70
0
 71
3
 72
20
 73
16
 74
0
 40
0.0
 40
0.0
 40
0.0
 40
0.0
 40
0.15297733964982088
 40
0.15297733964982088
 40
0.15297733964982088
 40
0.30595467929964176
 40
0.30595467929964176
 40
0.30595467929964176
 40
0.5931650340864003
 40
0.5931650340864003
 40
0.5931650340864003
 40
0.7863291649872652
 40
0.7863291649872652
 40
0.7863291649872652
 40
1.0
 40
1.0
 40
1.0
 40
1.0
 10
-3.5
 20
-133.82726893188396
 30
0.0
 10
-3.424451014738354
 20
-134.12950193809834
 30
0.0
 10
-3.3280940815134974
 20
-134.50225025329829
 30
0.0
 10
-3.232210406980726
 20
-134.85418368471701
 30
0.0
 10
-3.13505643852615
 20
-135.21089639710945
 30
0.0
 10
-3.0394715009049755
 20
-135.54715568797474
 30
0.0
 10
-2.9317095188996483
 20
-135.90559788385423
 30
0.0
 10
-2.7275617957331666
 20
-136.58273362659506
 30
0.0
 10
-2.5051499966529582
 20
-137.25486375871427
 30
0.0
 10
-2.24602821989368
 20
-137.91311086969657
 30
0.0
 10
-2.071499453713159
 20
-138.35527316175734
 30
0.0
 10
-1.8977987193970647
 20
-138.74428798909634
 30
0.0
 10
-1.7249260169453935
 20
-139.08015535171353
 30
0.0
 10
-1.5360427144777158
 20
-139.44827048112836
 30
0.0
 10
-1.3427806744885178
 20
-139.76031991710806
 30
0.0
 10
-1.158938153185833
 20
-140.00000000000003
 30
0.0
  0
SPLINE
  5
36
330
17
100
AcDbEntity
  8
VISIBLE
100
AcDbSpline
 70
0
 71
2
 72
6
 73
3
 74
0
 40
0.0
 40
0.0
 40
0.0
 40
0.6893744251219218
 40
0.6893744251219218
 40
0.6893744251219218
 10
-3.5
 20
-133.82726893188405
 30
0.0
 10
-3.5
 20
-140.66855042122737
 30
0.0
 10
-3.5
 20
-147.47533817617926
 30
0.0
  0
SPLINE
  5
37
330
17
100
AcDbEntity
  8
VISIBLE
100
AcDbSpline
 70
0
 71
3
 72
20
 73
16
 74
0
 40
0.0
 40
0.0
 40
0.0
 40
0.0
 40
0.07240253157113585
 40
0.07240253157113585
 40
0.07240253157113585
 40
0.20018317912527817
 40
0.20018317912527817
 40
0.20018317912527817
 40
0.3503733482658504
 40
0.3503733482658504
 40
0.3503733482658504
 40
0.6122725722676577
 40
0.6122725722676577
 40
0.6122725722676577
 40
0.9999998059069416
 40
0.9999998059069416
 40
0.9999998059069416
 40
0.9999998059069416
 10
-1.734723475976807e-14
 20
-143.0547319194441
 30
0.0
 10
-0.11561990441691727
 20
-143.05434176452317
 30
0.0
 10
-0.2286760875376638
 20
-143.10208042440544
 30
0.0
 10
-0.3316839770013347
 20
-143.17160197717882
 30
0.0
 10
-0.5137571696536752
 20
-143.29574096446427
 30
0.0
 10
-0.6733651827165547
 20
-143.47147883116816
 30
0.0
 10
-0.8269653455419169
 20
-143.65038329156536
 30
0.0
 10
-1.007394802753641
 20
-143.86626065200028
 30
0.0
 10
-1.1859365920793208
 20
-144.09609374222535
 30
0.0
 10
-1.3625907135189546
 20
-144.3398825622401
 30
0.0
 10
-1.669268004140807
 20
-144.762634590067
 30
0.0
 10
-1.9671862201196615
 20
-145.18755187978044
 30
0.0
 10
-2.2563453614555145
 20
-145.61463443138086
 30
0.0
 10
-2.6856032688304547
 20
-146.2466364371412
 30
0.0
 10
-3.100154815011949
 20
-146.86687101894492
 30
0.0
 10
-3.5000000000000013
 20
-147.47533817679258
 30
0.0
  0
SPLINE
  5
38
330
17
100
AcDbEntity
  8
VISIBLE
100
AcDbSpline
 70
0
 71
3
 72
14
 73
10
 74
0
 40
0.0
 40
0.0
 40
0.0
 40
0.0
 40
0.12500000003142986
 40
0.12500000003142986
 40
0.12500000003142986
 40
0.1875000000471448
 40
0.1875000000471448
 40
0.1875000000471448
 40
0.2500000000628597
 40
0.2500000000628597
 40
0.2500000000628597
 40
0.2500000000628597
 10
-3.1086244689504383e-15
 20
-158.0
 30
0.0
 10
1.8351529217320965
 20
-157.99999999999994
 30
0.0
 10
3.657351040498261
 20
-158.00000000000003
 30
0.0
 10
4.949747469282366
 20
-158.0
 30
0.0
 10
5.598070353968058
 20
-157.99999999999997
 30
0.0
 10
6.11692395755433
 20
-158.00000000000006
 30
0.0
 10
6.467156734898184
 20
-158.0
 30
0.0
 10
6.820581764968546
 20
-157.99999999999997
 30
0.0
 10
6.99819618319755
 20
-158.00000000000003
 30
0.0
 10
6.999999989585179
 20
-158.0
 30
0.0
  0
SPLINE
  5
39
330
17
100
AcDbEntity
  8
VISIBLE
100
AcDbSpline
 70
0
 71
3
 72
14
 73
10
 74
0
 40
0.0
 40
0.0
 40
0.0
 40
0.0
 40
0.2500000000000001
 40
0.2500000000000001
 40
0.2500000000000001
 40
0.4999999999999998
 40
0.4999999999999998
 40
0.4999999999999998
 40
1.0
 40
1.0
 40
1.0
 40
1.0
 10
-6.999999989585181
 20
-158.0
 30
0.0
 10
-6.998196183197523
 20
-157.99999999999991
 30
0.0
 10
-6.820581764968522
 20
-158.0
 30
0.0
 10
-6.467156734898173
 20
-158.0
 30
0.0
 10
-6.1169239575543015
 20
-157.99999999999994
 30
0.0
 10
-5.598070353967986
 20
-158.00000000000006
 30
0.0
 10
-4.949747469282384
 20
-158.0
 30
0.0
 10
-3.657351040498581
 20
-157.99999999999994
 30
0.0
 10
-1.8351529217314764
 20
-158.0
 30
0.0
 10
-2.6645352591003757e-15
 20
-158.0
 30
0.0
  0
SPLINE
  5
3A
330
17
100
AcDbEntity
  8
VISIBLE
100
AcDbSpline
 70
0
 71
3
 72
17
 73
13
 74
0
 40
0.0
 40
0.0
 40
0.0
 40
0.0
 40
0.5886770237224892
 40
0.5886770237224892
 40
0.5886770237224892
 40
0.8034892393854798
 40
0.8034892393854798
 40
0.8034892393854798
 40
0.9061656203441806
 40
0.9061656203441806
 40
0.9061656203441806
 40
1.0
 40
1.0
 40
1.0
 40
1.0
 10
3.5000000000000027
 20
-147.47533817679258
 30
0.0
 10
2.891134924211954
 20
-146.5538734478068
 30
0.0
 10
2.2510254079067624
 20
-145.58666112382224
 30
0.0
 10
1.5717094603458734
 20
-144.62938472141946
 30
0.0
 10
1.3226003599930585
 20
-144.28204815419824
 30
0.0
 10
1.069287676570236
 20
-143.9333094616069
 30
0.0
 10
0.7948210693383413
 20
-143.6128463074647
 30
0.0
 10
0.6632307935143433
 20
-143.46076340367543
 30
0.0
 10
0.5306498760333628
 20
-143.32178918392947
 30
0.0
 10
0.39740585774668186
 20
-143.21893468700145
 30
0.0
 10
0.2763157479280781
 20
-143.1248872890362
 30
0.0
 10
0.14085041765148137
 20
-143.05438776149654
 30
0.0
 10
2.498001805406602e-16
 20
-143.05473191944404
 30
0.0
  0
SPLINE
  5
3B
330
17
100
AcDbEntity
  8
VISIBLE
100
AcDbSpline
 70
0
 71
2
 72
6
 73
3
 74
0
 40
0.0
 40
0.0
 40
0.0
 40
0.6893744251219276
 40
0.6893744251219276
 40
0.6893744251219276
 10
3.5
 20
-133.82726893188385
 30
0.0
 10
3.5
 20
-140.66855042122734
 30
0.0
 10
3.5
 20
-147.47533817617935
 30
0.0
  0
SPLINE
  5
3C
330
17
100
AcDbEntity
  8
VISIBLE
100
AcDbSpline
 70
0
 71
3
 72
20
 73
16
 74
0
 40
0.0
 40
0.0
 40
0.0
 40
0.0
 40
0.1529773396416804
 40
0.1529773396416804
 40
0.1529773396416804
 40
0.3059546792833608
 40
0.3059546792833608
 40
0.3059546792833608
 40
0.5931650340727742
 40
0.5931650340727742
 40
0.5931650340727742
 40
0.786329164975389
 40
0.786329164975389
 40
0.786329164975389
 40
1.0
 40
1.0
 40
1.0
 40
1.0
 10
3.5
 20
-133.82726893188388
 30
0.0
 10
3.4244510147120333
 20
-134.12950193820245
 30
0.0
 10
3.328094081497653
 20
-134.5022502533572
 30
0.0
 10
3.232210406965248
 20
-134.8541836847738
 30
0.0
 10
3.1350564385135455
 20
-135.21089639715487
 30
0.0
 10
3.039471500882904
 20
-135.5471556880507
 30
0.0
 10
2.931709518881688
 20
-135.90559788391406
 30
0.0
 10
2.727561795715365
 20
-136.58273362664985
 30
0.0
 10
2.5051499966353963
 20
-137.2548637587643
 30
0.0
 10
2.246028219876089
 20
-137.91311086974133
 30
0.0
 10
2.0714994536956586
 20
-138.35527316179844
 30
0.0
 10
1.8977987193796537
 20
-138.7442879891338
 30
0.0
 10
1.724926016928078
 20
-139.0801553517474
 30
0.0
 10
1.5360427144712252
 20
-139.44827048114428
 30
0.0
 10
1.342780674449339
 20
-139.7603199171628
 30
0.0
 10
1.1589381531859302
 20
-140.0
 30
0.0
  0
SPLINE
  5
3D
330
17
100
AcDbEntity
  8
VISIBLE
100
AcDbSpline
 70
0
 71
3
 72
11
 73
7
 74
0
 40
0.0
 40
0.0
 40
0.0
 40
0.0
 40
0.5275883499886226
 40
0.5275883499886226
 40
0.5275883499886226
 40
1.0
 40
1.0
 40
1.0
 40
1.0
 10
1.1589381531858929
 20
-140.0
 30
0.0
 10
0.9794401971279669
 20
-140.2331924367491
 30
0.0
 10
0.796818643657484
 20
-140.46308524606695
 30
0.0
 10
0.5982857921424185
 20
-140.6636862096575
 30
0.0
 10
0.4217126911915561
 20
-140.8384964895639
 30
0.0
 10
0.22262655096569406
 20
-141.00562398040765
 30
0.0
 10
3.3306690738754696e-16
 20
-141.0065391182249
 30
0.0
  0
SPLINE
  5
3E
330
17
100
AcDbEntity
  8
VISIBLE
100
AcDbSpline
 70
0
 71
3
 72
17
 73
13
 74
0
 40
0.0
 40
0.0
 40
0.0
 40
0.0
 40
1.0
 40
1.0
 40
1.0
 40
5.255902817088844
 40
5.255902817088844
 40
5.255902817088844
 40
9.511805634177689
 40
9.511805634177689
 40
9.511805634177689
 40
11.791255297630414
 40
11.791255297630414
 40
11.791255297630414
 40
11.791255297630414
 10
10.240805375042603
 20
-6.994405055138486e-15
 30
0.0
 10
10.23077331316095
 20
0.21273930522557594
 30
0.0
 10
10.222785920012683
 20
0.4250290041340658
 30
0.0
 10
10.216843195597779
 20
0.6368690967254618
 30
0.0
 10
10.19081478537903
 20
1.5381238770331895
 30
0.0
 10
10.207470485892234
 20
2.4168983391171976
 30
0.0
 10
10.246217604269741
 20
3.1832274917295376
 30
0.0
 10
10.284098435878873
 20
3.9505271798080157
 30
0.0
 10
10.341144506447556
 20
4.605879213384974
 30
0.0
 10
10.372497364936304
 20
5.0855746769260755
 30
0.0
 10
10.390303124320038
 20
5.343912211468395
 30
0.0
 10
10.39754903256855
 20
5.549183721610621
 30
0.0
 10
10.394235089681828
 20
5.701389207352762
 30
0.0
  0
SPLINE
  5
3F
330
17
100
AcDbEntity
  8
VISIBLE
100
AcDbSpline
 70
0
 71
3
 72
11
 73
7
 74
0
 40
0.0
 40
0.0
 40
0.0
 40
0.0
 40
0.25538624443405433
 40
0.25538624443405433
 40
0.25538624443405433
 40
1.0
 40
1.0
 40
1.0
 40
1.0
 10
10.66390323102479
 20
-5.03043989428995
 30
0.0
 10
10.656436952739323
 20
-4.750210129946226
 30
0.0
 10
10.634159528664169
 20
-4.421373035302817
 30
0.0
 10
10.597070958799298
 20
-4.043928610359706
 30
0.0
 10
10.490938098475825
 20
-2.9513836118995767
 30
0.0
 10
10.30738940930519
 20
-1.4882681225167704
 30
0.0
 10
10.240805375042605
 20
-6.661338147750939e-15
 30
0.0
  0
SPLINE
  5
40
330
17
100
AcDbEntity
  8
VISIBLE
100
AcDbSpline
 70
0
 71
3
 72
14
 73
10
 74
0
 40
0.0
 40
0.0
 40
0.0
 40
0.0
 40
0.11707065652763171
 40
0.11707065652763171
 40
0.11707065652763171
 40
0.23414131305526342
 40
0.23414131305526342
 40
0.23414131305526342
 40
0.2655880299263717
 40
0.2655880299263717
 40
0.2655880299263717
 40
0.2655880299263717
 10
-10.240805375042608
 20
0.0
 30
0.0
 10
-10.281662148740509
 20
-0.8800958590464746
 30
0.0
 10
-10.359465455819096
 20
-1.7538881131879627
 30
0.0
 10
-10.441462147363143
 20
-2.5450527413928814
 30
0.0
 10
-10.522935073608863
 20
-3.336677409502068
 30
0.0
 10
-10.606276196370802
 20
-4.04604547787916
 30
0.0
 10
-10.644036078339113
 20
-4.6092462615610685
 30
0.0
 10
-10.65432628388476
 20
-4.760782140064259
 30
0.0
 10
-10.660948667631475
 20
-4.901180004898137
 30
0.0
 10
-10.663903229579212
 20
-5.030439856062695
 30
0.0
  0
SPLINE
  5
41
330
17
100
AcDbEntity
  8
VISIBLE
100
AcDbSpline
 70
0
 71
3
 72
14
 73
10
 74
0
 40
0.0
 40
0.0
 40
0.0
 40
0.0
 40
0.4044489220369803
 40
0.4044489220369803
 40
0.4044489220369803
 40
0.7022244610184901
 40
0.7022244610184901
 40
0.7022244610184901
 40
1.0
 40
1.0
 40
1.0
 40
1.0
 10
-10.39423508795291
 20
5.701389186093894
 30
0.0
 10
-10.403588878576347
 20
5.385958406276896
 30
0.0
 10
-10.351896867314665
 20
4.820469835420737
 30
0.0
 10
-10.30010867126472
 20
4.076816473000846
 30
0.0
 10
-10.261956287563759
 20
3.530017539910296
 30
0.0
 10
-10.22515431686631
 20
2.886546295264423
 30
0.0
 10
-10.211054622303275
 20
2.190446991302152
 30
0.0
 10
-10.196311962727643
 20
1.4947427078107887
 30
0.0
 10
-10.205237153250428
 20
0.7463020768350146
 30
0.0
 10
-10.240805375042608
 20
1.9870573143531574e-16
 30
0.0
  0
SPLINE
  5
42
330
17
100
AcDbEntity
  8
VISIBLE
100
AcDbSpline
 70
0
 71
1
 72
4
 73
2
 74
0
 40
0.0
 40
0.0
 40
1.0
 40
1.0
 10
-3.5
 20
-133.82726893188402
 30
0.0
 10
-3.5
 20
-134.0
 30
0.0
  0
SPLINE
  5
43
330
17
100
AcDbEntity
  8
VISIBLE
100
AcDbSpline
 70
0
 71
1
 72
4
 73
2
 74
0
 40
0.0
 40
0.0
 40
1.0
 40
1.0
 10
-3.5
 20
-146.00000000000006
 30
0.0
 10
-3.5
 20
-147.4753381767925
 30
0.0
  0
SPLINE
  5
44
330
17
100
AcDbEntity
  8
VISIBLE
100
AcDbSpline
 70
0
 71
1
 72
4
 73
2
 74
0
 40
0.0
 40
0.0
 40
1.0
 40
1.0
 10
3.5
 20
-133.82726893188385
 30
0.0
 10
3.5
 20
-134.0
 30
0.0
  0
SPLINE
  5
45
330
17
100
AcDbEntity
  8
VISIBLE
100
AcDbSpline
 70
0
 71
1
 72
4
 73
2
 74
0
 40
0.0
 40
0.0
 40
1.0
 40
1.0
 10
3.5
 20
-145.99999999999997
 30
0.0
 10
3.5
 20
-147.47533817679263
 30
0.0
  0
SPLINE
  5
46
330
17
100
AcDbEntity
  8
VISIBLE
100
AcDbSpline
 70
0
 71
3
 72
11
 73
7
 74
0
 40
0.0
 40
0.0
 40
0.0
 40
0.0
 40
4.5819761730395125
 40
4.5819761730395125
 40
4.5819761730395125
 40
6.265889921634628
 40
6.265889921634628
 40
6.265889921634628
 40
6.265889921634628
 10
7.771805122881267
 20
-139.99999999999997
 30
0.0
 10
7.897297557915865
 20
-138.53202985893253
 30
0.0
 10
8.161175395602388
 20
-137.10437190760834
 30
0.0
 10
8.325912571799245
 20
-136.01558924672614
 30
0.0
 10
8.387867985423899
 20
-135.6123291957191
 30
0.0
 10
8.428149549392941
 20
-135.26207544985056
 30
0.0
 10
8.44675726370639
 20
-134.96482800912054
 30
0.0
  0
SPLINE
  5
47
330
17
100
AcDbEntity
  8
VISIBLE
100
AcDbSpline
 70
0
 71
3
 72
14
 73
10
 74
0
 40
0.0
 40
0.0
 40
0.0
 40
0.0
 40
0.3789155445141943
 40
0.3789155445141943
 40
0.3789155445141943
 40
0.6894577722570971
 40
0.6894577722570971
 40
0.6894577722570971
 40
1.0
 40
1.0
 40
1.0
 40
1.0
 10
7.811703101627297
 20
-145.70318487259672
 30
0.0
 10
7.830526249232594
 20
-145.40825414377184
 30
0.0
 10
7.787798103907745
 20
-144.89360800159236
 30
0.0
 10
7.744416484273296
 20
-144.21741606494396
 30
0.0
 10
7.708829285105788
 20
-143.66393806400032
 30
0.0
 10
7.674768269549237
 20
-143.00058760337612
 30
0.0
 10
7.673359540031677
 20
-142.27813091513613
 30
0.0
 10
7.67094833543351
 20
-141.55621134681493
 30
0.0
 10
7.70299421529413
 20
-140.77502853352146
 30
0.0
 10
7.771805122881267
 20
-140.0
 30
0.0
  0
SPLINE
  5
48
330
17
100
AcDbEntity
  8
VISIBLE
100
AcDbSpline
 70
0
 71
3
 72
14
 73
10
 74
0
 40
0.0
 40
0.0
 40
0.0
 40
0.0
 40
0.13640345491569278
 40
0.13640345491569278
 40
0.13640345491569278
 40
0.27280690983138556
 40
0.27280690983138556
 40
0.27280690983138556
 40
0.4324703701605883
 40
0.4324703701605883
 40
0.4324703701605883
 40
0.4324703701605883
 10
-7.7718051228812755
 20
-140.0
 30
0.0
 10
-7.701883668544967
 20
-140.78717570348195
 30
0.0
 10
-7.670012943904984
 20
-141.58066612469025
 30
0.0
 10
-7.673463438305055
 20
-142.3120187527005
 30
0.0
 10
-7.6758620391420465
 20
-143.04394884034738
 30
0.0
 10
-7.711610573317404
 20
-143.71390995546156
 30
0.0
 10
-7.747741524714098
 20
-144.26919540607562
 30
0.0
 10
-7.789988347684661
 20
-144.9199850354611
 30
0.0
 10
-7.830022226561292
 20
-145.41579502168983
 30
0.0
 10
-7.811703100902854
 20
-145.7031848699263
 30
0.0
  0
SPLINE
  5
49
330
17
100
AcDbEntity
  8
VISIBLE
100
AcDbSpline
 70
0
 71
3
 72
11
 73
7
 74
0
 40
0.0
 40
0.0
 40
0.0
 40
0.0
 40
0.5666457338166666
 40
0.5666457338166666
 40
0.5666457338166666
 40
1.0
 40
1.0
 40
1.0
 40
1.0
 10
-8.446757250195507
 20
-134.96482809625002
 30
0.0
 10
-8.412318928649821
 20
-135.58668556077907
 30
0.0
 10
-8.251236005516798
 20
-136.47632959771738
 30
0.0
 10
-8.09106095193481
 20
-137.49464563190475
 30
0.0
 10
-7.96803303599189
 20
-138.2733468565752
 30
0.0
 10
-7.8475147463899555
 20
-139.13147636303586
 30
0.0
 10
-7.7718051228812755
 20
-140.0
 30
0.0
  0
SPLINE
  5
4A
330
17
100
AcDbEntity
  8
VISIBLE
100
AcDbSpline
 70
0
 71
2
 72
6
 73
3
 74
0
 40
0.0
 40
0.0
 40
0.0
 40
1.0
 40
1.0
 40
1.0
 10
9.999999985121686
 20
18.0
 30
0.0
 10
10.219514888081097
 20
11.861859704619356
 30
0.0
 10
10.394235089822761
 20
5.701389207351107
 30
0.0
  0
SPLINE
  5
4B
330
17
100
AcDbEntity
  8
VISIBLE
100
AcDbSpline
 70
0
 71
2
 72
6
 73
3
 74
0
 40
0.0
 40
0.0
 40
0.0
 40
1.0
 40
1.0
 40
1.0
 10
-9.99999998512166
 20
18.0
 30
0.0
 10
-10.219514889578164
 20
11.861859662773092
 30
0.0
 10
-10.394235092204218
 20
5.701389123364921
 30
0.0
  0
SPLINE
  5
4C
330
17
100
AcDbEntity
  8
VISIBLE
100
AcDbSpline
 70
0
 71
2
 72
6
 73
3
 74
0
 40
0.0
 40
0.0
 40
0.0
 40
1.0
 40
1.0
 40
1.0
 10
6.99999998958518
 20
-157.99999999999997
 30
0.0
 10
7.42761908208681
 20
-151.86333482569336
 30
0.0
 10
7.811703106957945
 20
-145.70318482700577
 30
0.0
  0
SPLINE
  5
4D
330
17
100
AcDbEntity
  8
VISIBLE
100
AcDbSpline
 70
0
 71
2
 72
6
 73
3
 74
0
 40
0.0
 40
0.0
 40
0.0
 40
1.0
 40
1.0
 40
1.0
 10
-6.999999989585196
 20
-158.0
 30
0.0
 10
-7.427619082501812
 20
-151.8633348197393
 30
0.0
 10
-7.811703107703097
 20
-145.70318481505345
 30
0.0
  0
SPLINE
  5
4E
330
17
100
AcDbEntity
  8
VISIBLE
100
AcDbSpline
 70
0
 71
3
 72
11
 73
7
 74
0
 40
0.0
 40
0.0
 40
0.0
 40
0.0
 40
0.439920813103946
 40
0.439920813103946
 40
0.439920813103946
 40
1.0
 40
1.0
 40
1.0
 40
1.0
 10
10.663903230169037
 20
-5.030439789849876
 30
0.0
 10
11.079547083333313
 20
-23.995529482222718
 30
0.0
 10
11.172010475562772
 20
-43.0881007271521
 30
0.0
 10
10.934651950472965
 20
-62.19194642254741
 30
0.0
 10
10.633541076340407
 20
-86.51404923139977
 30
0.0
 10
9.796297891934836
 20
-110.85092035005708
 30
0.0
 10
8.446757261092104
 20
-134.96482806197196
 30
0.0
  0
SPLINE
  5
4F
330
17
100
AcDbEntity
  8
VISIBLE
100
AcDbSpline
 70
0
 71
3
 72
11
 73
7
 74
0
 40
0.0
 40
0.0
 40
0.0
 40
0.0
 40
0.4399208122149593
 40
0.4399208122149593
 40
0.4399208122149593
 40
1.0
 40
1.0
 40
1.0
 40
1.0
 10
-10.663903226874606
 20
-5.030439639426959
 30
0.0
 10
-11.07954708174611
 20
-23.995529331441794
 30
0.0
 10
-11.172010475710671
 20
-43.08810057631124
 30
0.0
 10
-10.934651952341781
 20
-62.19194627196495
 30
0.0
 10
-10.633541079321489
 20
-86.5140491689082
 30
0.0
 10
-9.796297892105095
 20
-110.85092037625934
 30
0.0
 10
-8.446757254776337
 20
-134.96482817488547
 30
0.0
  0
SPLINE
  5
50
330
17
100
AcDbEntity
  8
HIDDEN
100
AcDbSpline
 70
0
 71
3
 72
23
 73
19
 74
0
 40
0.0
 40
0.0
 40
0.0
 40
0.0
 40
0.12499999999999994
 40
0.12499999999999994
 40
0.12499999999999994
 40
0.25
 40
0.25
 40
0.25
 40
0.5
 40
0.5
 40
0.5
 40
0.7500000000000001
 40
0.7500000000000001
 40
0.7500000000000001
 40
0.8750000000000001
 40
0.8750000000000001
 40
0.8750000000000001
 40
1.0
 40
1.0
 40
1.0
 40
1.0
 10
9.999999985121683
 20
18.0
 30
0.0
 10
10.000696495539044
 20
17.999999999999993
 30
0.0
 10
9.74041485805754
 20
18.0
 30
0.0
 10
9.238795331213858
 20
18.0
 30
0.0
 10
8.738462788881336
 20
18.0
 30
0.0
 10
7.997243358881381
 20
18.0
 30
0.0
 10
7.0710678189347895
 20
18.0
 30
0.0
 10
5.224787257654838
 20
18.000000000000007
 30
0.0
 10
2.6216469307425516
 20
18.0
 30
0.0
 10
2.3092638912203256e-14
 20
18.0
 30
0.0
 10
-2.621646930742472
 20
17.999999999999996
 30
0.0
 10
-5.224787257654753
 20
18.000000000000004
 30
0.0
 10
-7.071067818934756
 20
18.0
 30
0.0
 10
-7.997243358881278
 20
17.999999999999993
 30
0.0
 10
-8.738462788881245
 20
18.0
 30
0.0
 10
-9.238795331213835
 20
18.0
 30
0.0
 10
-9.740414858057452
 20
17.999999999999993
 30
0.0
 10
-10.000696495538948
 20
18.0
 30
0.0
 10
-9.999999985121685
 20
18.0
 30
0.0
  0
SPLINE
  5
51
330
17
100
AcDbEntity
  8
HIDDEN
100
AcDbSpline
 70
0
 71
3
 72
23
 73
19
 74
0
 40
0.0
 40
0.0
 40
0.0
 40
0.0
 40
0.12500000000000003
 40
0.12500000000000003
 40
0.12500000000000003
 40
0.25000000000000006
 40
0.25000000000000006
 40
0.25000000000000006
 40
0.5000000000000001
 40
0.5000000000000001
 40
0.5000000000000001
 40
0.7500000000000002
 40
0.7500000000000002
 40
0.7500000000000002
 40
0.875
 40
0.875
 40
0.875
 40
1.0
 40
1.0
 40
1.0
 40
1.0
 10
6.99999998958518
 20
-158.0
 30
0.0
 10
6.9981961833813875
 20
-158.00000000000017
 30
0.0
 10
6.82058176413622
 20
-157.9999999999999
 30
0.0
 10
6.467156731849695
 20
-158.0
 30
0.0
 10
6.116923952216933
 20
-158.00000000000014
 30
0.0
 10
5.598070351216944
 20
-157.99999999999994
 30
0.0
 10
4.949747473254341
 20
-158.0
 30
0.0
 10
3.657351080358363
 20
-158.00000000000014
 30
0.0
 10
1.8351528515197546
 20
-157.9999999999999
 30
0.0
 10
-9.325873406851315e-15
 20
-158.0
 30
0.0
 10
-1.8351528515197626
 20
-158.00000000000017
 30
0.0
 10
-3.657351080358371
 20
-157.9999999999999
 30
0.0
 10
-4.949747473254348
 20
-158.0
 30
0.0
 10
-5.598070351216931
 20
-157.99999999999994
 30
0.0
 10
-6.116923952216926
 20
-158.00000000000003
 30
0.0
 10
-6.4671567318496965
 20
-158.0
 30
0.0
 10
-6.820581764136213
 20
-158.0000000000001
 30
0.0
 10
-6.998196183381365
 20
-157.99999999999997
 30
0.0
 10
-6.999999989585181
 20
-158.0
 30
0.0
  0
SPLINE
  5
52
330
17
100
AcDbEntity
  8
HIDDEN
100
AcDbSpline
 70
0
 71
2
 72
6
 73
3
 74
0
 40
0.0
 40
0.0
 40
0.0
 40
1.0
 40
1.0
 40
1.0
 10
10.394235089681832
 20
5.7013892073527614
 30
0.0
 10
10.387723543766615
 20
5.999615831223467
 30
0.0
 10
10.299554389297972
 20
6.000000000388698
 30
0.0
  0
SPLINE
  5
53
330
17
100
AcDbEntity
  8
HIDDEN
100
AcDbSpline
 70
0
 71
3
 72
26
 73
22
 74
0
 40
0.0
 40
0.0
 40
0.0
 40
0.0
 40
0.18078087296844225
 40
0.18078087296844225
 40
0.18078087296844225
 40
0.35424050617438246
 40
0.35424050617438246
 40
0.35424050617438246
 40
0.4704142347689765
 40
0.4704142347689765
 40
0.4704142347689765
 40
0.5865879633635704
 40
0.5865879633635704
 40
0.5865879633635704
 40
0.695478210203954
 40
0.695478210203954
 40
0.695478210203954
 40
0.8043684570443372
 40
0.8043684570443372
 40
0.8043684570443372
 40
1.0
 40
1.0
 40
1.0
 40
1.0
 10
10.299554389297969
 20
6.000000000388699
 30
0.0
 10
10.189671398117758
 20
6.001889381046611
 30
0.0
 10
9.965330525395421
 20
5.643613242753199
 30
0.0
 10
9.679260242544734
 20
5.031199973238703
 30
0.0
 10
9.407353866025645
 20
4.443843216793615
 30
0.0
 10
9.081313752008642
 20
3.632437365554814
 30
0.0
 10
8.80455405554117
 20
2.6705835840346874
 30
0.0
 10
8.619867009746061
 20
2.0262931862271913
 30
0.0
 10
8.457689899407779
 20
1.3010101198839568
 30
0.0
 10
8.370751630156638
 20
0.5453759833103512
 30
0.0
 10
8.282206914550036
 20
-0.20890143512852777
 30
0.0
 10
8.275013068266949
 20
-0.9947785930407254
 30
0.0
 10
8.358083000154858
 20
-1.7240923511289896
 30
0.0
 10
8.434220471659263
 20
-2.4074897501610932
 30
0.0
 10
8.582422803876282
 20
-3.0314429765583784
 30
0.0
 10
8.763378401367238
 20
-3.5720814185040592
 30
0.0
 10
8.94452810726318
 20
-4.113361196975916
 30
0.0
 10
9.156713363082277
 20
-4.573115539064833
 30
0.0
 10
9.367782200640402
 20
-4.944541836477395
 30
0.0
 10
9.748295961210387
 20
-5.610551060923943
 30
0.0
 10
10.124549203684262
 20
-5.999492487876897
 30
0.0
 10
10.36378711403068
 20
-5.999999997659217
 30
0.0
  0
SPLINE
  5
54
330
17
100
AcDbEntity
  8
HIDDEN
100
AcDbSpline
 70
0
 71
3
 72
8
 73
4
 74
0
 40
0.0
 40
0.0
 40
0.0
 40
0.0
 40
1.0
 40
1.0
 40
1.0
 40
1.0
 10
10.363787114030679
 20
-5.9999999976592155
 30
0.0
 10
10.583419390637049
 20
-6.003966076166696
 30
0.0
 10
10.680750569528511
 20
-5.669288540571002
 30
0.0
 10
10.66390323102479
 20
-5.03043989428995
 30
0.0
  0
SPLINE
  5
55
330
17
100
AcDbEntity
  8
HIDDEN
100
AcDbSpline
 70
0
 71
3
 72
8
 73
4
 74
0
 40
0.0
 40
0.0
 40
0.0
 40
0.0
 40
1.0
 40
1.0
 40
1.0
 40
1.0
 10
-10.66390322957921
 20
-5.030439856062694
 30
0.0
 10
-10.680752662752216
 20
-5.669319614802036
 30
0.0
 10
-10.583405772600539
 20
-6.0039699782801295
 30
0.0
 10
-10.363787101980435
 20
-6.000000001506891
 30
0.0
  0
SPLINE
  5
56
330
17
100
AcDbEntity
  8
HIDDEN
100
AcDbSpline
 70
0
 71
3
 72
26
 73
22
 74
0
 40
0.0
 40
0.0
 40
0.0
 40
0.0
 40
0.1958131622273637
 40
0.1958131622273637
 40
0.1958131622273637
 40
0.3009264422546646
 40
0.3009264422546646
 40
0.3009264422546646
 40
0.4574284930090335
 40
0.4574284930090335
 40
0.4574284930090335
 40
0.5592652010625916
 40
0.5592652010625916
 40
0.5592652010625916
 40
0.6611019091161497
 40
0.6611019091161497
 40
0.6611019091161497
 40
0.8043768861858566
 40
0.8043768861858566
 40
0.8043768861858566
 40
1.0
 40
1.0
 40
1.0
 40
1.0
 10
-10.363787101980433
 20
-6.000000001506891
 30
0.0
 10
-10.124350888258542
 20
-5.999483966477421
 30
0.0
 10
-9.74768438365588
 20
-5.609916043082564
 30
0.0
 10
-9.366900004329318
 20
-4.942990615251631
 30
0.0
 10
-9.163097260634675
 20
-4.5841422932630085
 30
0.0
 10
-8.95848730616155
 20
-4.143203713283802
 30
0.0
 10
-8.78170616629721
 20
-3.6263143676915455
 30
0.0
 10
-8.51750701295898
 20
-2.8601473700183044
 30
0.0
 10
-8.321705434958082
 20
-1.9036913023936028
 30
0.0
 10
-8.301957027871977
 20
-0.876456242381169
 30
0.0
 10
-8.286853288411129
 20
-0.2100749405539762
 30
0.0
 10
-8.343775134812
 20
0.47036692766107085
 30
0.0
 10
-8.450614687564016
 20
1.1139068055853545
 30
0.0
 10
-8.557003137754675
 20
1.7584477692053342
 30
0.0
 10
-8.710254182406294
 20
2.3672579791519754
 30
0.0
 10
-8.877222023167473
 20
2.916787063472068
 30
0.0
 10
-9.112816223396058
 20
3.6899785900663007
 30
0.0
 10
-9.375598491138597
 20
4.356050841682338
 30
0.0
 10
-9.60729178383803
 20
4.873684006877574
 30
0.0
 10
-9.926360423220776
 20
5.581009978866675
 30
0.0
 10
-10.180994609364337
 20
6.002330692419705
 30
0.0
 10
-10.299554397683309
 20
5.999999997745576
 30
0.0
  0
SPLINE
  5
57
330
17
100
AcDbEntity
  8
HIDDEN
100
AcDbSpline
 70
0
 71
2
 72
6
 73
3
 74
0
 40
0.0
 40
0.0
 40
0.0
 40
1.0
 40
1.0
 40
1.0
 10
-10.29955439768331
 20
5.999999997745577
 30
0.0
 10
-10.387723954315195
 20
5.999616338001848
 30
0.0
 10
-10.394235087952914
 20
5.701389186093894
 30
0.0
  0
SPLINE
  5
58
330
17
100
AcDbEntity
  8
HIDDEN
100
AcDbSpline
 70
0
 71
3
 72
8
 73
4
 74
0
 40
0.0
 40
0.0
 40
0.0
 40
0.0
 40
1.0
 40
1.0
 40
1.0
 40
1.0
 10
-3.5
 20
6.927989702782163
 30
0.0
 10
-3.4999999999999987
 20
-39.53594297193556
 30
0.0
 10
-3.4999999999999996
 20
-86.94700210451599
 30
0.0
 10
-3.5
 20
-133.82726893188402
 30
0.0
  0
SPLINE
  5
59
330
17
100
AcDbEntity
  8
HIDDEN
100
AcDbSpline
 70
0
 71
2
 72
6
 73
3
 74
0
 40
0.0
 40
0.0
 40
0.0
 40
1.0
 40
1.0
 40
1.0
 10
-3.5
 20
-134.0
 30
0.0
 10
-3.5
 20
-140.0048081389915
 30
0.0
 10
-3.5
 20
-146.00000000000006
 30
0.0
  0
SPLINE
  5
5A
330
17
100
AcDbEntity
  8
HIDDEN
100
AcDbSpline
 70
0
 71
1
 72
4
 73
2
 74
0
 40
0.0
 40
0.0
 40
1.0
 40
1.0
 10
-3.5
 20
-147.47533817679252
 30
0.0
 10
-3.5
 20
-150.6329608102267
 30
0.0
  0
SPLINE
  5
5B
330
17
100
AcDbEntity
  8
HIDDEN
100
AcDbSpline
 70
0
 71
3
 72
17
 73
13
 74
0
 40
0.0
 40
0.0
 40
0.0
 40
0.0
 40
0.21703211241314863
 40
0.21703211241314863
 40
0.21703211241314863
 40
0.5044883138860075
 40
0.5044883138860075
 40
0.5044883138860075
 40
0.7522441569430037
 40
0.7522441569430037
 40
0.7522441569430037
 40
1.0
 40
1.0
 40
1.0
 40
1.0
 10
-3.5000000000000027
 20
6.92798970356315
 30
0.0
 10
-3.032739482818571
 20
6.622076170656998
 30
0.0
 10
-2.5454852369553396
 20
6.352159083524121
 30
0.0
 10
-2.040369826524625
 20
6.1453804939751695
 30
0.0
 10
-1.3719954074948102
 20
5.870502934532316
 30
0.0
 10
-0.6700070144243964
 20
5.71286350940535
 30
0.0
 10
0.033986289658398894
 20
5.719340100297335
 30
0.0
 10
0.6406327805265004
 20
5.722843507180288
 30
0.0
 10
1.2443005120391966
 20
5.846475725965489
 30
0.0
 10
1.8255628599311744
 20
6.06176596230183
 30
0.0
 10
2.407333591510181
 20
6.276517649469197
 30
0.0
 10
2.967319711094721
 20
6.579226222541575
 30
0.0
 10
3.5000000000000013
 20
6.927989703563147
 30
0.0
  0
SPLINE
  5
5C
330
17
100
AcDbEntity
  8
HIDDEN
100
AcDbSpline
 70
0
 71
3
 72
8
 73
4
 74
0
 40
0.0
 40
0.0
 40
0.0
 40
0.0
 40
1.0
 40
1.0
 40
1.0
 40
1.0
 10
3.5
 20
6.927989702782156
 30
0.0
 10
3.4999999999999987
 20
-39.53594297209806
 30
0.0
 10
3.4999999999999996
 20
-86.94700210448138
 30
0.0
 10
3.5
 20
-133.82726893188385
 30
0.0
  0
SPLINE
  5
5D
330
17
100
AcDbEntity
  8
HIDDEN
100
AcDbSpline
 70
0
 71
2
 72
6
 73
3
 74
0
 40
0.0
 40
0.0
 40
0.0
 40
1.0
 40
1.0
 40
1.0
 10
3.5
 20
-134.00000000000003
 30
0.0
 10
3.5
 20
-140.00480813899145
 30
0.0
 10
3.5
 20
-145.99999999999997
 30
0.0
  0
SPLINE
  5
5E
330
17
100
AcDbEntity
  8
HIDDEN
100
AcDbSpline
 70
0
 71
1
 72
4
 73
2
 74
0
 40
0.0
 40
0.0
 40
1.0
 40
1.0
 10
3.5
 20
-147.47533817679263
 30
0.0
 10
3.5
 20
-150.6329608102266
 30
0.0
  0
SPLINE
  5
5F
330
17
100
AcDbEntity
  8
HIDDEN
100
AcDbSpline
 70
0
 71
3
 72
17
 73
13
 74
0
 40
0.0
 40
0.0
 40
0.0
 40
0.0
 40
0.21980704789969638
 40
0.21980704789969638
 40
0.21980704789969638
 40
0.5026986388687674
 40
0.5026986388687674
 40
0.5026986388687674
 40
0.7805066341735989
 40
0.7805066341735989
 40
0.7805066341735989
 40
1.0
 40
1.0
 40
1.0
 40
1.0
 10
-3.499999999999992
 20
-150.63296081104724
 30
0.0
 10
-3.041921628739361
 20
-150.37546143931203
 30
0.0
 10
-2.551949026795911
 20
-150.1464464024962
 30
0.0
 10
-2.0389534137373806
 20
-149.97330866056632
 30
0.0
 10
-1.3791852294742846
 20
-149.74948456860014
 30
0.0
 10
-0.6801731424649063
 20
-149.6226804700409
 30
0.0
 10
0.020012887962181924
 20
-149.62613892503316
 30
0.0
 10
0.7075901447832904
 20
-149.62744563023753
 30
0.0
 10
1.3932437423876127
 20
-149.75409290653624
 30
0.0
 10
2.0410637654580297
 20
-149.9740215875968
 30
0.0
 10
2.5532939359194553
 20
-150.1470744463454
 30
0.0
 10
3.04254949056928
 20
-150.37581478655673
 30
0.0
 10
3.5000000000000018
 20
-150.63296081104724
 30
0.0
  0
SPLINE
  5
60
330
17
100
AcDbEntity
  8
HIDDEN
100
AcDbSpline
 70
0
 71
2
 72
8
 73
5
 74
0
 40
0.0
 40
0.0
 40
0.0
 40
0.4350110117246179
 40
0.4350110117246179
 40
1.0
 40
1.0
 40
1.0
 10
8.44675726370639
 20
-134.9648280091205
 30
0.0
 10
8.471574629232617
 20
-134.54836403662944
 30
0.0
 10
8.412137489484492
 20
-134.30717146274722
 30
0.0
 10
8.331934156005035
 20
-133.99746381068675
 30
0.0
 10
8.103699131328105
 20
-133.9999999938349
 30
0.0
  0
SPLINE
  5
61
330
17
100
AcDbEntity
  8
HIDDEN
100
AcDbSpline
 70
0
 71
3
 72
29
 73
25
 74
0
 40
0.0
 40
0.0
 40
0.0
 40
0.0
 40
0.11364076426763156
 40
0.11364076426763156
 40
0.11364076426763156
 40
0.2281850194070938
 40
0.2281850194070938
 40
0.2281850194070938
 40
0.34663266454380254
 40
0.34663266454380254
 40
0.34663266454380254
 40
0.4581901825180795
 40
0.4581901825180795
 40
0.4581901825180795
 40
0.5658095247437199
 40
0.5658095247437199
 40
0.5658095247437199
 40
0.713842888601267
 40
0.713842888601267
 40
0.713842888601267
 40
0.862610962637646
 40
0.862610962637646
 40
0.862610962637646
 40
1.0
 40
1.0
 40
1.0
 40
1.0
 10
8.103699131328106
 20
-133.99999999383493
 30
0.0
 10
7.925801505799351
 20
-133.99997716999104
 30
0.0
 10
7.686365223960943
 20
-134.13713004990439
 30
0.0
 10
7.416521164836851
 20
-134.37471213207854
 30
0.0
 10
7.144569830757616
 20
-134.61477606258146
 30
0.0
 10
6.841733883215318
 20
-134.9550462516183
 30
0.0
 10
6.538567159007918
 20
-135.37715638583418
 30
0.0
 10
6.225890602869186
 20
-135.8146005588614
 30
0.0
 10
5.909555793504288
 20
-136.33972463971315
 30
0.0
 10
5.642796193653108
 20
-136.9633793438425
 30
0.0
 10
5.392665219378039
 20
-137.54900756279477
 30
0.0
 10
5.188379417237531
 20
-138.2359995921278
 30
0.0
 10
5.121656784345266
 20
-138.98878947726655
 30
0.0
 10
5.053681668166734
 20
-139.71421093662954
 30
0.0
 10
5.128256469076339
 20
-140.47606699611867
 30
0.0
 10
5.288688464803157
 20
-141.16603889340774
 30
0.0
 10
5.5091391131240295
 20
-142.11777941312286
 30
0.0
 10
5.855558175594602
 20
-142.95328033313763
 30
0.0
 10
6.189208653801852
 20
-143.6663343748396
 30
0.0
 10
6.527769249199402
 20
-144.3819283599222
 30
0.0
 10
6.863657316213262
 20
-144.97921911090563
 30
0.0
 10
7.1331207076921626
 20
-145.3955004785296
 30
0.0
 10
7.383153188021677
 20
-145.7795639164802
 30
0.0
 10
7.574570725697763
 20
-146.0009939050387
 30
0.0
 10
7.684942969926148
 20
-145.99999998377638
 30
0.0
  0
SPLINE
  5
62
330
17
100
AcDbEntity
  8
HIDDEN
100
AcDbSpline
 70
0
 71
2
 72
6
 73
3
 74
0
 40
0.0
 40
0.0
 40
0.0
 40
1.0
 40
1.0
 40
1.0
 10
7.684942969926148
 20
-145.99999998377638
 30
0.0
 10
7.79562440882803
 20
-145.99996582318994
 30
0.0
 10
7.811703101627297
 20
-145.70318487259672
 30
0.0
  0
SPLINE
  5
63
330
17
100
AcDbEntity
  8
HIDDEN
100
AcDbSpline
 70
0
 71
2
 72
6
 73
3
 74
0
 40
0.0
 40
0.0
 40
0.0
 40
1.0
 40
1.0
 40
1.0
 10
-7.811703100902854
 20
-145.7031848699263
 30
0.0
 10
-7.7956246574143
 20
-145.99996533212237
 30
0.0
 10
-7.684942961984605
 20
-145.99999998928448
 30
0.0
  0
SPLINE
  5
64
330
17
100
AcDbEntity
  8
HIDDEN
100
AcDbSpline
 70
0
 71
3
 72
29
 73
25
 74
0
 40
0.0
 40
0.0
 40
0.0
 40
0.0
 40
0.13899883867210008
 40
0.13899883867210008
 40
0.13899883867210008
 40
0.2840671277907869
 40
0.2840671277907869
 40
0.2840671277907869
 40
0.3874922920906589
 40
0.3874922920906589
 40
0.3874922920906589
 40
0.49320792982267103
 40
0.49320792982267103
 40
0.49320792982267103
 40
0.6090831534731046
 40
0.6090831534731046
 40
0.6090831534731046
 40
0.7702577910452127
 40
0.7702577910452127
 40
0.7702577910452127
 40
0.8849829567422479
 40
0.8849829567422479
 40
0.8849829567422479
 40
1.0
 40
1.0
 40
1.0
 40
1.0
 10
-7.684942961984605
 20
-145.99999998928448
 30
0.0
 10
-7.573231168908761
 20
-146.00103183464316
 30
0.0
 10
-7.3783403977798745
 20
-145.77399164899464
 30
0.0
 10
-7.123823125049284
 20
-145.38116466505036
 30
0.0
 10
-6.8594813841792055
 20
-144.9709529379153
 30
0.0
 10
-6.5325757281688706
 20
-144.3891187545435
 30
0.0
 10
-6.20229879245774
 20
-143.69403192840292
 30
0.0
 10
-5.9676743069725156
 20
-143.19749469568058
 30
0.0
 10
-5.730253114066638
 20
-142.64126853405264
 30
0.0
 10
-5.529027290787389
 20
-142.0270747767056
 30
0.0
 10
-5.324273316364116
 20
-141.40085114106753
 30
0.0
 10
-5.1581037496644875
 20
-140.7038717020342
 30
0.0
 10
-5.110847818883932
 20
-139.97827249586743
 30
0.0
 10
-5.0545097896483835
 20
-139.18213497386535
 30
0.0
 10
-5.163724973025465
 20
-138.3811941593407
 30
0.0
 10
-5.374346238972354
 20
-137.69970713588043
 30
0.0
 10
-5.666540580307916
 20
-136.74872207936866
 30
0.0
 10
-6.104626412992129
 20
-135.99052917454603
 30
0.0
 10
-6.527400459268762
 20
-135.39276427409396
 30
0.0
 10
-6.830844293510527
 20
-134.9681843584551
 30
0.0
 10
-7.134346218604769
 20
-134.62553847715162
 30
0.0
 10
-7.407243988744678
 20
-134.38291395621206
 30
0.0
 10
-7.6808771193868415
 20
-134.14027900094018
 30
0.0
 10
-7.923765999838146
 20
-133.99998102163872
 30
0.0
 10
-8.10369913863246
 20
-133.99999999555217
 30
0.0
  0
SPLINE
  5
65
330
17
100
AcDbEntity
  8
HIDDEN
100
AcDbSpline
 70
0
 71
2
 72
8
 73
5
 74
0
 40
0.0
 40
0.0
 40
0.0
 40
0.5777161985965448
 40
0.5777161985965448
 40
1.0
 40
1.0
 40
1.0
 10
-8.10369913863246
 20
-133.99999999555217
 30
0.0
 10
-8.337140400490565
 20
-133.99735738792208
 30
0.0
 10
-8.415610728888575
 20
-134.32132339595566
 30
0.0
 10
-8.470775623874516
 20
-134.56066395762224
 30
0.0
 10
-8.446757250195509
 20
-134.96482809625002
 30
0.0
  0
SPLINE
  5
66
330
17
100
AcDbEntity
  8
HIDDEN
100
AcDbSpline
 70
0
 71
1
 72
17
 73
15
 74
0
 40
0.0
 40
0.0
 40
0.1121997376282069
 40
0.2243994752564138
 40
0.3365992128846207
 40
0.4487989505128276
 40
0.5609986881410345
 40
0.6731984257692414
 40
0.7853981633974483
 40
0.8975979010256552
 40
1.009797638653862
 40
1.121997376282069
 40
1.2341971139102759
 40
1.3463968515384828
 40
1.4585965891666897
 40
1.5707963267948966
 40
1.5707963267948966
 10
-3.5
 20
-140.0
 30
0.0
 10
-3.5
 20
-139.32821314338014
 30
0.0
 10
-3.4999999999999996
 20
-138.66487439626212
 30
0.0
 10
-3.4999999999999996
 20
-138.018325628269
 30
0.0
 10
-3.499999999999999
 20
-137.39669756529466
 30
0.0
 10
-3.499999999999999
 20
-136.807807540908
 30
0.0
 10
-3.499999999999999
 20
-136.2590611888476
 30
0.0
 10
-3.499999999999999
 20
-135.75735931288074
 30
0.0
 10
-3.499999999999999
 20
-135.30901110519181
 30
0.0
 10
-3.4999999999999987
 20
-134.91965480463028
 30
0.0
 10
-3.4999999999999987
 20
-134.59418679258548
 30
0.0
 10
-3.4999999999999987
 20
-134.33670001814983
 30
0.0
 10
-3.4999999999999987
 20
-134.15043252690907
 30
0.0
 10
-3.4999999999999987
 20
-134.03772674064055
 30
0.0
 10
-3.4999999999999987
 20
-134.0
 30
0.0
  0
SPLINE
  5
67
330
17
100
AcDbEntity
  8
HIDDEN
100
AcDbSpline
 70
0
 71
1
 72
17
 73
15
 74
0
 40
0.0
 40
0.0
 40
0.07142857142857142
 40
0.14285714285714285
 40
0.21428571428571427
 40
0.2857142857142857
 40
0.35714285714285715
 40
0.42857142857142855
 40
0.5
 40
0.5714285714285714
 40
0.6428571428571429
 40
0.7142857142857143
 40
0.7857142857142857
 40
0.8571428571428571
 40
0.9285714285714286
 40
1.0
 40
1.0
 10
-3.4999999999999987
 20
-134.0
 30
0.0
 10
-3.4999999999999987
 20
-134.15043252690907
 30
0.0
 10
-3.499999999999999
 20
-134.5941867925855
 30
0.0
 10
-3.499999999999999
 20
-135.30901110519181
 30
0.0
 10
-3.499999999999999
 20
-136.2590611888476
 30
0.0
 10
-3.4999999999999996
 20
-137.39669756529463
 30
0.0
 10
-3.5
 20
-138.66487439626212
 30
0.0
 10
-3.5
 20
-140.0
 30
0.0
 10
-3.5000000000000004
 20
-141.33512560373788
 30
0.0
 10
-3.500000000000001
 20
-142.60330243470534
 30
0.0
 10
-3.500000000000001
 20
-143.74093881115238
 30
0.0
 10
-3.500000000000001
 20
-144.69098889480819
 30
0.0
 10
-3.5000000000000013
 20
-145.40581320741455
 30
0.0
 10
-3.5000000000000013
 20
-145.84956747309093
 30
0.0
 10
-3.5000000000000013
 20
-146.0
 30
0.0
  0
SPLINE
  5
68
330
17
100
AcDbEntity
  8
HIDDEN
100
AcDbSpline
 70
0
 71
1
 72
17
 73
15
 74
0
 40
0.0
 40
0.0
 40
0.07142857142857142
 40
0.14285714285714285
 40
0.21428571428571427
 40
0.2857142857142857
 40
0.35714285714285715
 40
0.42857142857142855
 40
0.5
 40
0.5714285714285714
 40
0.6428571428571429
 40
0.7142857142857143
 40
0.7857142857142857
 40
0.8571428571428571
 40
0.9285714285714286
 40
1.0
 40
1.0
 10
-3.5000000000000013
 20
-146.0
 30
0.0
 10
-3.5000000000000013
 20
-145.96227325935945
 30
0.0
 10
-3.5000000000000013
 20
-145.84956747309093
 30
0.0
 10
-3.5000000000000013
 20
-145.6632999818502
 30
0.0
 10
-3.5000000000000013
 20
-145.4058132074145
 30
0.0
 10
-3.500000000000001
 20
-145.08034519536972
 30
0.0
 10
-3.500000000000001
 20
-144.69098889480819
 30
0.0
 10
-3.500000000000001
 20
-144.2426406871193
 30
0.0
 10
-3.500000000000001
 20
-143.7409388111524
 30
0.0
 10
-3.500000000000001
 20
-143.192192459092
 30
0.0
 10
-3.5000000000000004
 20
-142.6033024347053
 30
0.0
 10
-3.5000000000000004
 20
-141.981674371731
 30
0.0
 10
-3.5
 20
-141.33512560373788
 30
0.0
 10
-3.5
 20
-140.67178685661986
 30
0.0
 10
-3.5
 20
-140.0
 30
0.0
  0
SPLINE
  5
69
330
17
100
AcDbEntity
  8
HIDDEN
100
AcDbSpline
 70
0
 71
1
 72
17
 73
15
 74
0
 40
0.0
 40
0.0
 40
0.1121997376282069
 40
0.2243994752564138
 40
0.3365992128846207
 40
0.4487989505128276
 40
0.5609986881410345
 40
0.6731984257692414
 40
0.7853981633974483
 40
0.8975979010256552
 40
1.009797638653862
 40
1.121997376282069
 40
1.2341971139102759
 40
1.3463968515384828
 40
1.4585965891666897
 40
1.5707963267948966
 40
1.5707963267948966
 10
3.5
 20
-140.0
 30
0.0
 10
3.5
 20
-139.32821314338014
 30
0.0
 10
3.5000000000000004
 20
-138.66487439626212
 30
0.0
 10
3.5000000000000004
 20
-138.018325628269
 30
0.0
 10
3.500000000000001
 20
-137.39669756529466
 30
0.0
 10
3.500000000000001
 20
-136.807807540908
 30
0.0
 10
3.500000000000001
 20
-136.2590611888476
 30
0.0
 10
3.500000000000001
 20
-135.75735931288074
 30
0.0
 10
3.500000000000001
 20
-135.30901110519181
 30
0.0
 10
3.5000000000000013
 20
-134.91965480463028
 30
0.0
 10
3.5000000000000013
 20
-134.59418679258548
 30
0.0
 10
3.5000000000000013
 20
-134.33670001814983
 30
0.0
 10
3.5000000000000013
 20
-134.15043252690907
 30
0.0
 10
3.5000000000000013
 20
-134.03772674064055
 30
0.0
 10
3.5000000000000013
 20
-134.0
 30
0.0
  0
SPLINE
  5
6A
330
17
100
AcDbEntity
  8
HIDDEN
100
AcDbSpline
 70
0
 71
1
 72
17
 73
15
 74
0
 40
0.0
 40
0.0
 40
0.07142857142857142
 40
0.14285714285714285
 40
0.21428571428571427
 40
0.2857142857142857
 40
0.35714285714285715
 40
0.42857142857142855
 40
0.5
 40
0.5714285714285714
 40
0.6428571428571429
 40
0.7142857142857143
 40
0.7857142857142857
 40
0.8571428571428571
 40
0.9285714285714286
 40
1.0
 40
1.0
 10
3.5000000000000013
 20
-134.0
 30
0.0
 10
3.5000000000000013
 20
-134.15043252690907
 30
0.0
 10
3.500000000000001
 20
-134.5941867925855
 30
0.0
 10
3.500000000000001
 20
-135.30901110519181
 30
0.0
 10
3.500000000000001
 20
-136.2590611888476
 30
0.0
 10
3.5000000000000004
 20
-137.39669756529463
 30
0.0
 10
3.5
 20
-138.66487439626212
 30
0.0
 10
3.5
 20
-140.0
 30
0.0
 10
3.4999999999999996
 20
-141.33512560373788
 30
0.0
 10
3.499999999999999
 20
-142.60330243470534
 30
0.0
 10
3.499999999999999
 20
-143.74093881115238
 30
0.0
 10
3.499999999999999
 20
-144.69098889480819
 30
0.0
 10
3.4999999999999987
 20
-145.40581320741455
 30
0.0
 10
3.4999999999999987
 20
-145.84956747309093
 30
0.0
 10
3.4999999999999987
 20
-146.0
 30
0.0
  0
SPLINE
  5
6B
330
17
100
AcDbEntity
  8
HIDDEN
100
AcDbSpline
 70
0
 71
1
 72
17
 73
15
 74
0
 40
0.0
 40
0.0
 40
0.07142857142857142
 40
0.14285714285714285
 40
0.21428571428571427
 40
0.2857142857142857
 40
0.35714285714285715
 40
0.42857142857142855
 40
0.5
 40
0.5714285714285714
 40
0.6428571428571429
 40
0.7142857142857143
 40
0.7857142857142857
 40
0.8571428571428571
 40
0.9285714285714286
 40
1.0
 40
1.0
 10
3.4999999999999987
 20
-146.0
 30
0.0
 10
3.4999999999999987
 20
-145.96227325935945
 30
0.0
 10
3.4999999999999987
 20
-145.84956747309093
 30
0.0
 10
3.4999999999999987
 20
-145.6632999818502
 30
0.0
 10
3.4999999999999987
 20
-145.4058132074145
 30
0.0
 10
3.499999999999999
 20
-145.08034519536972
 30
0.0
 10
3.499999999999999
 20
-144.69098889480819
 30
0.0
 10
3.499999999999999
 20
-144.2426406871193
 30
0.0
 10
3.499999999999999
 20
-143.7409388111524
 30
0.0
 10
3.499999999999999
 20
-143.192192459092
 30
0.0
 10
3.4999999999999996
 20
-142.6033024347053
 30
0.0
 10
3.4999999999999996
 20
-141.981674371731
 30
0.0
 10
3.5
 20
-141.33512560373788
 30
0.0
 10
3.5
 20
-140.67178685661986
 30
0.0
 10
3.5
 20
-140.0
 30
0.0
  0
SPLINE
  5
6C
330
17
100
AcDbEntity
  8
HIDDEN
100
AcDbSpline
 70
0
 71
1
 72
17
 73
15
 74
0
 40
0.0
 40
0.0
 40
0.1121997376282069
 40
0.2243994752564138
 40
0.3365992128846207
 40
0.4487989505128276
 40
0.5609986881410345
 40
0.6731984257692414
 40
0.7853981633974483
 40
0.8975979010256552
 40
1.009797638653862
 40
1.121997376282069
 40
1.2341971139102759
 40
1.3463968515384828
 40
1.4585965891666897
 40
1.5707963267948966
 40
1.5707963267948966
 10
3.5
 20
0.0
 30
0.0
 10
3.5
 20
1.522716875004987
 30
0.0
 10
3.5
 20
3.026284701805875
 30
0.0
 10
3.5
 20
4.491795242590272
 30
0.0
 10
3.5
 20
5.90081885199879
 30
0.0
 10
3.5
 20
7.235636240608578
 30
0.0
 10
3.5
 20
8.479461305278775
 30
0.0
 10
3.5
 20
9.616652224137045
 30
0.0
 10
3.5
 20
10.632908161565204
 30
0.0
 10
3.5
 20
11.515449109504663
 30
0.0
 10
3.5
 20
12.253176603472898
 30
0.0
 10
3.5
 20
12.8368132921938
 30
0.0
 10
3.5
 20
13.259019605672801
 30
0.0
 10
3.5
 20
13.5144860545481
 30
0.0
 10
3.5
 20
13.6
 30
0.0
  0
SPLINE
  5
6D
330
17
100
AcDbEntity
  8
HIDDEN
100
AcDbSpline
 70
0
 71
1
 72
17
 73
15
 74
0
 40
0.0
 40
0.0
 40
0.07142857142857145
 40
0.1428571428571429
 40
0.21428571428571438
 40
0.2857142857142858
 40
0.3571428571428573
 40
0.42857142857142877
 40
0.5
 40
0.5714285714285713
 40
0.6428571428571425
 40
0.7142857142857137
 40
0.785714285714285
 40
0.8571428571428562
 40
0.9285714285714275
 40
1.0
 40
1.0
 10
3.5
 20
13.599999999999998
 30
0.0
 10
3.5
 20
13.562758917902524
 30
0.0
 10
3.5
 20
13.451239627227128
 30
0.0
 10
3.5
 20
13.266052877835499
 30
0.0
 10
3.5
 20
13.008212868983147
 30
0.0
 10
3.5
 20
12.679131694925616
 30
0.0
 10
3.5
 20
12.28061161140111
 30
0.0
 10
3.5
 20
11.814835165343165
 30
0.0
 10
3.5
 20
11.284353241879234
 30
0.0
 10
3.5
 20
10.69207109407741
 30
0.0
 10
3.5
 20
10.041232431951084
 30
0.0
 10
3.5
 20
9.335401657860329
 30
0.0
 10
3.5
 20
8.578444345599975
 30
0.0
 10
3.5
 20
7.774506070083281
 30
0.0
 10
3.5
 20
6.927989703563148
 30
0.0
  0
SPLINE
  5
6E
330
17
100
AcDbEntity
  8
HIDDEN
100
AcDbSpline
 70
0
 71
1
 72
17
 73
15
 74
0
 40
0.0
 40
0.0
 40
0.1121997376282069
 40
0.2243994752564138
 40
0.3365992128846207
 40
0.4487989505128276
 40
0.5609986881410345
 40
0.6731984257692414
 40
0.7853981633974483
 40
0.8975979010256552
 40
1.009797638653862
 40
1.121997376282069
 40
1.2341971139102759
 40
1.3463968515384828
 40
1.4585965891666897
 40
1.5707963267948966
 40
1.5707963267948966
 10
-3.5
 20
0.0
 30
0.0
 10
-3.5
 20
1.522716875004987
 30
0.0
 10
-3.5
 20
3.026284701805875
 30
0.0
 10
-3.5
 20
4.491795242590272
 30
0.0
 10
-3.5
 20
5.90081885199879
 30
0.0
 10
-3.5
 20
7.235636240608578
 30
0.0
 10
-3.5
 20
8.479461305278775
 30
0.0
 10
-3.5
 20
9.616652224137045
 30
0.0
 10
-3.5
 20
10.632908161565204
 30
0.0
 10
-3.5
 20
11.515449109504663
 30
0.0
 10
-3.5
 20
12.253176603472898
 30
0.0
 10
-3.5
 20
12.8368132921938
 30
0.0
 10
-3.5
 20
13.259019605672801
 30
0.0
 10
-3.5
 20
13.5144860545481
 30
0.0
 10
-3.5
 20
13.6
 30
0.0
  0
SPLINE
  5
6F
330
17
100
AcDbEntity
  8
HIDDEN
100
AcDbSpline
 70
0
 71
1
 72
17
 73
15
 74
0
 40
0.0
 40
0.0
 40
0.0714285714285715
 40
0.142857142857143
 40
0.21428571428571447
 40
0.285714285714286
 40
0.35714285714285743
 40
0.42857142857142894
 40
0.5000000000000002
 40
0.5714285714285715
 40
0.6428571428571428
 40
0.7142857142857141
 40
0.7857142857142854
 40
0.8571428571428565
 40
0.9285714285714278
 40
1.0
 40
1.0
 10
-3.5
 20
13.599999999999998
 30
0.0
 10
-3.5
 20
13.562758917902524
 30
0.0
 10
-3.5
 20
13.451239627227128
 30
0.0
 10
-3.5
 20
13.266052877835499
 30
0.0
 10
-3.5
 20
13.008212868983147
 30
0.0
 10
-3.5
 20
12.679131694925616
 30
0.0
 10
-3.5
 20
12.28061161140111
 30
0.0
 10
-3.5
 20
11.814835165343165
 30
0.0
 10
-3.5
 20
11.284353241879234
 30
0.0
 10
-3.5
 20
10.69207109407741
 30
0.0
 10
-3.5
 20
10.041232431951084
 30
0.0
 10
-3.5
 20
9.335401657860329
 30
0.0
 10
-3.5
 20
8.578444345599975
 30
0.0
 10
-3.5
 20
7.77450607008328
 30
0.0
 10
-3.5
 20
6.927989703563153
 30
0.0
  0
SPLINE
  5
70
330
17
100
AcDbEntity
  8
HIDDEN
100
AcDbSpline
 70
0
 71
1
 72
17
 73
15
 74
0
 40
0.0
 40
0.0
 40
0.1121997376282069
 40
0.2243994752564138
 40
0.3365992128846207
 40
0.4487989505128276
 40
0.5609986881410345
 40
0.6731984257692414
 40
0.7853981633974483
 40
0.8975979010256552
 40
1.009797638653862
 40
1.121997376282069
 40
1.2341971139102759
 40
1.3463968515384828
 40
1.4585965891666897
 40
1.5707963267948966
 40
1.5707963267948966
 10
-3.5
 20
7.771561172376096e-16
 30
0.0
 10
-3.5
 20
0.6717868566198479
 30
0.0
 10
-3.4999999999999996
 20
1.3351256037378874
 30
0.0
 10
-3.4999999999999996
 20
1.9816743717310035
 30
0.0
 10
-3.499999999999999
 20
2.6033024347053497
 30
0.0
 10
-3.499999999999999
 20
3.19219245909202
 30
0.0
 10
-3.499999999999999
 20
3.740938811152402
 30
0.0
 10
-3.499999999999999
 20
4.242640687119286
 30
0.0
 10
-3.499999999999999
 20
4.690988894808179
 30
0.0
 10
-3.4999999999999987
 20
5.080345195369706
 30
0.0
 10
-3.4999999999999987
 20
5.405813207414516
 30
0.0
 10
-3.4999999999999987
 20
5.663299981850205
 30
0.0
 10
-3.4999999999999987
 20
5.849567473090943
 30
0.0
 10
-3.4999999999999987
 20
5.962273259359456
 30
0.0
 10
-3.4999999999999987
 20
6.0
 30
0.0
  0
SPLINE
  5
71
330
17
100
AcDbEntity
  8
HIDDEN
100
AcDbSpline
 70
0
 71
1
 72
17
 73
15
 74
0
 40
0.0
 40
0.0
 40
0.07142857142857142
 40
0.14285714285714285
 40
0.21428571428571427
 40
0.2857142857142857
 40
0.35714285714285715
 40
0.42857142857142855
 40
0.5
 40
0.5714285714285714
 40
0.6428571428571429
 40
0.7142857142857143
 40
0.7857142857142857
 40
0.8571428571428571
 40
0.9285714285714286
 40
1.0
 40
1.0
 10
-3.4999999999999987
 20
6.0
 30
0.0
 10
-3.4999999999999987
 20
5.849567473090943
 30
0.0
 10
-3.499999999999999
 20
5.405813207414516
 30
0.0
 10
-3.499999999999999
 20
4.69098889480818
 30
0.0
 10
-3.499999999999999
 20
3.740938811152402
 30
0.0
 10
-3.4999999999999996
 20
2.60330243470535
 30
0.0
 10
-3.5
 20
1.3351256037378878
 30
0.0
 10
-3.5
 20
1.5543122344752192e-15
 30
0.0
 10
-3.5000000000000004
 20
-1.3351256037378847
 30
0.0
 10
-3.500000000000001
 20
-2.6033024347053475
 30
0.0
 10
-3.500000000000001
 20
-3.7409388111523993
 30
0.0
 10
-3.500000000000001
 20
-4.690988894808178
 30
0.0
 10
-3.5000000000000013
 20
-5.405813207414512
 30
0.0
 10
-3.5000000000000013
 20
-5.849567473090941
 30
0.0
 10
-3.5000000000000013
 20
-5.999999999999998
 30
0.0
  0
SPLINE
  5
72
330
17
100
AcDbEntity
  8
HIDDEN
100
AcDbSpline
 70
0
 71
1
 72
17
 73
15
 74
0
 40
0.0
 40
0.0
 40
0.07142857142857142
 40
0.14285714285714285
 40
0.21428571428571427
 40
0.2857142857142857
 40
0.35714285714285715
 40
0.42857142857142855
 40
0.5
 40
0.5714285714285714
 40
0.6428571428571429
 40
0.7142857142857143
 40
0.7857142857142857
 40
0.8571428571428571
 40
0.9285714285714286
 40
1.0
 40
1.0
 10
-3.5000000000000013
 20
-5.999999999999998
 30
0.0
 10
-3.5000000000000013
 20
-5.9622732593594545
 30
0.0
 10
-3.5000000000000013
 20
-5.849567473090941
 30
0.0
 10
-3.5000000000000013
 20
-5.663299981850205
 30
0.0
 10
-3.5000000000000013
 20
-5.405813207414515
 30
0.0
 10
-3.500000000000001
 20
-5.080345195369706
 30
0.0
 10
-3.500000000000001
 20
-4.690988894808179
 30
0.0
 10
-3.500000000000001
 20
-4.242640687119285
 30
0.0
 10
-3.500000000000001
 20
-3.740938811152401
 30
0.0
 10
-3.500000000000001
 20
-3.19219245909202
 30
0.0
 10
-3.5000000000000004
 20
-2.6033024347053493
 30
0.0
 10
-3.5000000000000004
 20
-1.9816743717310032
 30
0.0
 10
-3.5
 20
-1.335125603737887
 30
0.0
 10
-3.5
 20
-0.6717868566198478
 30
0.0
 10
-3.5
 20
-6.661338147750939e-16
 30
0.0
  0
SPLINE
  5
73
330
17
100
AcDbEntity
  8
HIDDEN
100
AcDbSpline
 70
0
 71
1
 72
17
 73
15
 74
0
 40
0.0
 40
0.0
 40
0.1121997376282069
 40
0.2243994752564138
 40
0.3365992128846207
 40
0.4487989505128276
 40
0.5609986881410345
 40
0.6731984257692414
 40
0.7853981633974483
 40
0.8975979010256552
 40
1.009797638653862
 40
1.121997376282069
 40
1.2341971139102759
 40
1.3463968515384828
 40
1.4585965891666897
 40
1.5707963267948966
 40
1.5707963267948966
 10
3.5
 20
-7.771561172376096e-16
 30
0.0
 10
3.5
 20
0.6717868566198465
 30
0.0
 10
3.5000000000000004
 20
1.3351256037378856
 30
0.0
 10
3.5000000000000004
 20
1.9816743717310017
 30
0.0
 10
3.500000000000001
 20
2.603302434705348
 30
0.0
 10
3.500000000000001
 20
3.192192459092018
 30
0.0
 10
3.500000000000001
 20
3.7409388111524002
 30
0.0
 10
3.500000000000001
 20
4.242640687119284
 30
0.0
 10
3.500000000000001
 20
4.690988894808177
 30
0.0
 10
3.5000000000000013
 20
5.080345195369704
 30
0.0
 10
3.5000000000000013
 20
5.405813207414514
 30
0.0
 10
3.5000000000000013
 20
5.663299981850203
 30
0.0
 10
3.5000000000000013
 20
5.849567473090941
 30
0.0
 10
3.5000000000000013
 20
5.9622732593594545
 30
0.0
 10
3.5000000000000013
 20
5.999999999999998
 30
0.0
  0
SPLINE
  5
74
330
17
100
AcDbEntity
  8
HIDDEN
100
AcDbSpline
 70
0
 71
1
 72
17
 73
15
 74
0
 40
0.0
 40
0.0
 40
0.07142857142857142
 40
0.14285714285714285
 40
0.21428571428571427
 40
0.2857142857142857
 40
0.35714285714285715
 40
0.42857142857142855
 40
0.5
 40
0.5714285714285714
 40
0.6428571428571429
 40
0.7142857142857143
 40
0.7857142857142857
 40
0.8571428571428571
 40
0.9285714285714286
 40
1.0
 40
1.0
 10
3.5000000000000013
 20
5.999999999999998
 30
0.0
 10
3.5000000000000013
 20
5.849567473090941
 30
0.0
 10
3.500000000000001
 20
5.405813207414514
 30
0.0
 10
3.500000000000001
 20
4.690988894808179
 30
0.0
 10
3.500000000000001
 20
3.7409388111524002
 30
0.0
 10
3.5000000000000004
 20
2.6033024347053484
 30
0.0
 10
3.5
 20
1.335125603737886
 30
0.0
 10
3.5
 20
0.0
 30
0.0
 10
3.4999999999999996
 20
-1.3351256037378865
 30
0.0
 10
3.499999999999999
 20
-2.6033024347053493
 30
0.0
 10
3.499999999999999
 20
-3.740938811152401
 30
0.0
 10
3.499999999999999
 20
-4.6909888948081795
 30
0.0
 10
3.4999999999999987
 20
-5.405813207414514
 30
0.0
 10
3.4999999999999987
 20
-5.849567473090943
 30
0.0
 10
3.4999999999999987
 20
-6.0
 30
0.0
  0
SPLINE
  5
75
330
17
100
AcDbEntity
  8
HIDDEN
100
AcDbSpline
 70
0
 71
1
 72
17
 73
15
 74
0
 40
0.0
 40
0.0
 40
0.07142857142857142
 40
0.14285714285714285
 40
0.21428571428571427
 40
0.2857142857142857
 40
0.35714285714285715
 40
0.42857142857142855
 40
0.5
 40
0.5714285714285714
 40
0.6428571428571429
 40
0.7142857142857143
 40
0.7857142857142857
 40
0.8571428571428571
 40
0.9285714285714286
 40
1.0
 40
1.0
 10
3.4999999999999987
 20
-6.0
 30
0.0
 10
3.4999999999999987
 20
-5.962273259359456
 30
0.0
 10
3.4999999999999987
 20
-5.849567473090943
 30
0.0
 10
3.4999999999999987
 20
-5.663299981850207
 30
0.0
 10
3.4999999999999987
 20
-5.405813207414517
 30
0.0
 10
3.499999999999999
 20
-5.080345195369707
 30
0.0
 10
3.499999999999999
 20
-4.69098889480818
 30
0.0
 10
3.499999999999999
 20
-4.2426406871192865
 30
0.0
 10
3.499999999999999
 20
-3.740938811152403
 30
0.0
 10
3.499999999999999
 20
-3.1921924590920217
 30
0.0
 10
3.4999999999999996
 20
-2.603302434705351
 30
0.0
 10
3.4999999999999996
 20
-1.9816743717310046
 30
0.0
 10
3.5
 20
-1.3351256037378887
 30
0.0
 10
3.5
 20
-0.6717868566198494
 30
0.0
 10
3.5
 20
-2.220446049250313e-15
 30
0.0
  0
LINE
  5
76
330
17
100
AcDbEntity
  8
HIDDEN
100
AcDbLine
 10
3.5
 20
-133.82726893188385
 30
0.0
 11
3.5
 21
0.0
 31
0.0
  0
SPLINE
  5
77
330
17
100
AcDbEntity
  8
HIDDEN
100
AcDbSpline
 70
0
 71
1
 72
17
 73
15
 74
0
 40
0.0
 40
0.0
 40
0.07142857142857162
 40
0.14285714285714324
 40
0.21428571428571486
 40
0.2857142857142865
 40
0.3571428571428581
 40
0.4285714285714297
 40
0.5000000000000013
 40
0.571428571428573
 40
0.6428571428571446
 40
0.7142857142857162
 40
0.7857142857142878
 40
0.8571428571428594
 40
0.928571428571431
 40
1.0
 40
1.0
 10
3.5
 20
-150.6329608110472
 30
0.0
 10
3.5
 20
-151.02824646420112
 30
0.0
 10
3.5
 20
-151.3980377122811
 30
0.0
 10
3.5
 20
-151.74147969518742
 30
0.0
 10
3.5
 20
-152.05777846539087
 30
0.0
 10
3.5
 20
-152.3462028233306
 30
0.0
 10
3.5
 20
-152.60608600775507
 30
0.0
 10
3.5
 20
-152.8368272370988
 30
0.0
 10
3.5
 20
-153.03789309833118
 30
0.0
 10
3.5
 20
-153.2088187800673
 30
0.0
 10
3.5
 20
-153.34920914708937
 30
0.0
 10
3.5
 20
-153.45873965379567
 30
0.0
 10
3.5
 20
-153.5371570944644
 30
0.0
 10
3.5
 20
-153.5842801885988
 30
0.0
 10
3.5
 20
-153.6
 30
0.0
  0
SPLINE
  5
78
330
17
100
AcDbEntity
  8
HIDDEN
100
AcDbSpline
 70
0
 71
1
 72
17
 73
15
 74
0
 40
0.0
 40
0.0
 40
0.07142857142857162
 40
0.14285714285714324
 40
0.21428571428571486
 40
0.2857142857142865
 40
0.3571428571428581
 40
0.4285714285714297
 40
0.5000000000000013
 40
0.571428571428573
 40
0.6428571428571446
 40
0.7142857142857162
 40
0.7857142857142878
 40
0.8571428571428594
 40
0.928571428571431
 40
1.0
 40
1.0
 10
3.5
 20
-153.60000000000002
 30
0.0
 10
3.5
 20
-153.56609010048862
 30
0.0
 10
3.5
 20
-153.46452950214353
 30
0.0
 10
3.5
 20
-153.29582466227106
 30
0.0
 10
3.5
 20
-153.06081686971947
 30
0.0
 10
3.5
 20
-152.76067804958132
 30
0.0
 10
3.5
 20
-152.39690491909641
 30
0.0
 10
3.5
 20
-151.97131152389701
 30
0.0
 10
3.5
 20
-151.48602019181604
 30
0.0
 10
3.5
 20
-150.94345094936892
 30
0.0
 10
3.5
 20
-150.3463094536864
 30
0.0
 10
3.5
 20
-149.69757350007913
 30
0.0
 10
3.5
 20
-149.0004781725172
 30
0.0
 10
3.5
 20
-148.25849971107527
 30
0.0
 10
3.5
 20
-147.4753381767926
 30
0.0
  0
SPLINE
  5
79
330
17
100
AcDbEntity
  8
HIDDEN
100
AcDbSpline
 70
0
 71
1
 72
17
 73
15
 74
0
 40
0.0
 40
0.0
 40
0.07142857142857162
 40
0.14285714285714324
 40
0.21428571428571486
 40
0.2857142857142865
 40
0.3571428571428581
 40
0.4285714285714297
 40
0.5000000000000013
 40
0.571428571428573
 40
0.6428571428571446
 40
0.7142857142857162
 40
0.7857142857142878
 40
0.8571428571428594
 40
0.928571428571431
 40
1.0
 40
1.0
 10
-3.5
 20
-150.6329608110472
 30
0.0
 10
-3.5
 20
-151.02824646420112
 30
0.0
 10
-3.5
 20
-151.3980377122811
 30
0.0
 10
-3.5
 20
-151.74147969518742
 30
0.0
 10
-3.5
 20
-152.05777846539087
 30
0.0
 10
-3.5
 20
-152.3462028233306
 30
0.0
 10
-3.5
 20
-152.60608600775507
 30
0.0
 10
-3.5
 20
-152.8368272370988
 30
0.0
 10
-3.5
 20
-153.03789309833118
 30
0.0
 10
-3.5
 20
-153.2088187800673
 30
0.0
 10
-3.5
 20
-153.34920914708937
 30
0.0
 10
-3.5
 20
-153.45873965379567
 30
0.0
 10
-3.5
 20
-153.5371570944644
 30
0.0
 10
-3.5
 20
-153.5842801885988
 30
0.0
 10
-3.5
 20
-153.6
 30
0.0
  0
SPLINE
  5
7A
330
17
100
AcDbEntity
  8
HIDDEN
100
AcDbSpline
 70
0
 71
1
 72
17
 73
15
 74
0
 40
0.0
 40
0.0
 40
0.07142857142857181
 40
0.14285714285714363
 40
0.21428571428571544
 40
0.28571428571428725
 40
0.3571428571428591
 40
0.4285714285714309
 40
0.5000000000000027
 40
0.5714285714285745
 40
0.6428571428571463
 40
0.7142857142857182
 40
0.7857142857142899
 40
0.8571428571428618
 40
0.9285714285714336
 40
1.0
 40
1.0
 10
-3.5
 20
-153.60000000000002
 30
0.0
 10
-3.5
 20
-153.56609010048862
 30
0.0
 10
-3.5
 20
-153.46452950214348
 30
0.0
 10
-3.5
 20
-153.29582466227106
 30
0.0
 10
-3.5
 20
-153.06081686971947
 30
0.0
 10
-3.5
 20
-152.76067804958134
 30
0.0
 10
-3.5
 20
-152.39690491909636
 30
0.0
 10
-3.5
 20
-151.971311523897
 30
0.0
 10
-3.5
 20
-151.486020191816
 30
0.0
 10
-3.5
 20
-150.94345094936884
 30
0.0
 10
-3.5
 20
-150.34630945368627
 30
0.0
 10
-3.5
 20
-149.69757350007905
 30
0.0
 10
-3.5
 20
-149.0004781725171
 30
0.0
 10
-3.5
 20
-148.25849971107516
 30
0.0
 10
-3.5
 20
-147.4753381767925
 30
0.0
  0
LINE
  5
7B
330
17
100
AcDbEntity
  8
HIDDEN
100
AcDbLine
 10
-3.5
 20
-133.82726893188396
 30
0.0
 11
-3.5
 21
0.0
 31
0.0
  0
LINE
  5
7C
330
17
100
AcDbEntity
  8
HIDDEN
100
AcDbLine
 10
-3.5
 20
-134.0
 30
0.0
 11
-8.103699117107244
 21
-134.0
 31
0.0
  0
LINE
  5
7D
330
17
100
AcDbEntity
  8
HIDDEN
100
AcDbLine
 10
-3.5
 20
-146.0
 30
0.0
 11
-7.684942920681255
 21
-146.0
 31
0.0
  0
LINE
  5
7E
330
17
100
AcDbEntity
  8
HIDDEN
100
AcDbLine
 10
8.103699100729152
 20
-134.0
 30
0.0
 11
3.5
 21
-134.0
 31
0.0
  0
LINE
  5
7F
330
17
100
AcDbEntity
  8
HIDDEN
100
AcDbLine
 10
7.684942969995484
 20
-146.0
 30
0.0
 11
3.5
 21
-146.0
 31
0.0
  0
LINE
  5
80
330
17
100
AcDbEntity
  8
HIDDEN
100
AcDbLine
 10
-3.5
 20
13.6
 30
0.0
 11
3.5
 21
13.6
 31
0.0
  0
LINE
  5
81
330
17
100
AcDbEntity
  8
HIDDEN
100
AcDbLine
 10
-3.5
 20
6.000000000000001
 30
0.0
 11
-10.299554356062522
 21
6.000000000000003
 31
0.0
  0
LINE
  5
82
330
17
100
AcDbEntity
  8
HIDDEN
100
AcDbLine
 10
-3.5
 20
-5.999999999999999
 30
0.0
 11
-10.363787039004112
 21
-5.999999999999997
 31
0.0
  0
LINE
  5
83
330
17
100
AcDbEntity
  8
HIDDEN
100
AcDbLine
 10
10.299554343943157
 20
5.999999999999997
 30
0.0
 11
3.5
 21
5.999999999999999
 31
0.0
  0
LINE
  5
84
330
17
100
AcDbEntity
  8
HIDDEN
100
AcDbLine
 10
10.363787082081084
 20
-6.000000000000003
 30
0.0
 11
3.5
 21
-6.000000000000001
 31
0.0
  0
LINE
  5
85
330
17
100
AcDbEntity
  8
HIDDEN
100
AcDbLine
 10
-3.5
 20
-153.6
 30
0.0
 11
3.5
 21
-153.6
 31
0.0
  0
LINE
  5
86
330
17
100
AcDbEntity
  8
HIDDEN
100
AcDbLine
 10
3.5
 20
0.0
 30
0.0
 11
-3.5
 21
0.0
 31
0.0
  0
LINE
  5
87
330
17
100
AcDbEntity
  8
HIDDEN
100
AcDbLine
 10
1.1589381531859195
 20
-140.0
 30
0.0
 11
-1.1589381531858525
 21
-140.0
 31
0.0
  0
ENDSEC
  0
SECTION
  2
OBJECTS
  0
DICTIONARY
  5
A
330
0
100
AcDbDictionary
281
1
  3
ACAD_COLOR
350
B
  3
ACAD_GROUP
350
C
  3
ACAD_LAYOUT
350
D
  3
ACAD_MATERIAL
350
E
  3
ACAD_MLEADERSTYLE
350
F
  3
ACAD_MLINESTYLE
350
10
  3
ACAD_PLOTSETTINGS
350
11
  3
ACAD_PLOTSTYLENAME
350
12
  3
ACAD_SCALELIST
350
14
  3
ACAD_TABLESTYLE
350
15
  3
ACAD_VISUALSTYLE
350
16
  3
EZDXF_META
350
2D
  0
DICTIONARY
  5
B
330
A
100
AcDbDictionary
281
1
  0
DICTIONARY
  5
C
330
A
100
AcDbDictionary
281
1
  0
DICTIONARY
  5
D
330
A
100
AcDbDictionary
281
1
  3
Model
350
1A
  3
Layout1
350
1E
  0
DICTIONARY
  5
E
330
A
100
AcDbDictionary
281
1
  3
ByBlock
350
1F
  3
ByLayer
350
20
  3
Global
350
21
  0
DICTIONARY
  5
F
330
A
100
AcDbDictionary
281
1
  3
Standard
350
2C
  0
DICTIONARY
  5
10
330
A
100
AcDbDictionary
281
1
  3
Standard
350
22
  0
DICTIONARY
  5
11
330
A
100
AcDbDictionary
281
1
  0
ACDBDICTIONARYWDFLT
  5
12
330
A
100
AcDbDictionary
281
1
  3
Normal
350
13
100
AcDbDictionaryWithDefault
340
13
  0
ACDBPLACEHOLDER
  5
13
330
12
  0
DICTIONARY
  5
14
330
A
100
AcDbDictionary
281
1
  0
DICTIONARY
  5
15
330
A
100
AcDbDictionary
281
1
  0
DICTIONARY
  5
16
330
A
100
AcDbDictionary
281
1
  0
LAYOUT
  5
1A
330
D
100
AcDbPlotSettings
  1

  4
A3
  6

 40
7.5
 41
20.0
 42
7.5
 43
20.0
 44
420.0
 45
297.0
 46
0.0
 47
0.0
 48
0.0
 49
0.0
140
0.0
141
0.0
142
1.0
143
1.0
 70
1024
 72
1
 73
0
 74
5
  7

 75
16
 76
0
 77
2
 78
300
147
1.0
148
0.0
149
0.0
100
AcDbLayout
  1
Model
 70
1
 71
0
 10
0.0
 20
0.0
 11
420.0
 21
297.0
 12
0.0
 22
0.0
 32
0.0
 14
1e+20
 24
1e+20
 34
1e+20
 15
-1e+20
 25
-1e+20
 35
-1e+20
146
0.0
 13
0.0
 23
0.0
 33
0.0
 16
1.0
 26
0.0
 36
0.0
 17
0.0
 27
1.0
 37
0.0
 76
1
330
17
  0
LAYOUT
  5
1E
330
D
100
AcDbPlotSettings
  1

  4
A3
  6

 40
7.5
 41
20.0
 42
7.5
 43
20.0
 44
420.0
 45
297.0
 46
0.0
 47
0.0
 48
0.0
 49
0.0
140
0.0
141
0.0
142
1.0
143
1.0
 70
0
 72
1
 73
0
 74
5
  7

 75
16
 76
0
 77
2
 78
300
147
1.0
148
0.0
149
0.0
100
AcDbLayout
  1
Layout1
 70
1
 71
1
 10
0.0
 20
0.0
 11
420.0
 21
297.0
 12
0.0
 22
0.0
 32
0.0
 14
1e+20
 24
1e+20
 34
1e+20
 15
-1e+20
 25
-1e+20
 35
-1e+20
146
0.0
 13
0.0
 23
0.0
 33
0.0
 16
1.0
 26
0.0
 36
0.0
 17
0.0
 27
1.0
 37
0.0
 76
1
330
1B
  0
MATERIAL
  5
1F
102
{ACAD_REACTORS
330
E
102
}
330
E
100
AcDbMaterial
  1
ByBlock
  2

 70
0
 40
1.0
 71
1
 41
1.0
 91
-1023410177
 42
1.0
 72
1
  3

 73
1
 74
1
 75
1
 44
0.5
 73
0
 45
1.0
 46
1.0
 77
1
  4

 78
1
 79
1
170
1
 48
1.0
171
1
  6

172
1
173
1
174
1
140
1.0
141
1.0
175
1
  7

176
1
177
1
178
1
143
1.0
179
1
  8

270
1
271
1
272
1
145
1.0
146
1.0
273
1
  9

274
1
275
1
276
1
 42
1.0
 72
1
  3

 73
1
 74
1
 75
1
 94
63
  0
MATERIAL
  5
20
102
{ACAD_REACTORS
330
E
102
}
330
E
100
AcDbMaterial
  1
ByLayer
  2

 70
0
 40
1.0
 71
1
 41
1.0
 91
-1023410177
 42
1.0
 72
1
  3

 73
1
 74
1
 75
1
 44
0.5
 73
0
 45
1.0
 46
1.0
 77
1
  4

 78
1
 79
1
170
1
 48
1.0
171
1
  6

172
1
173
1
174
1
140
1.0
141
1.0
175
1
  7

176
1
177
1
178
1
143
1.0
179
1
  8

270
1
271
1
272
1
145
1.0
146
1.0
273
1
  9

274
1
275
1
276
1
 42
1.0
 72
1
  3

 73
1
 74
1
 75
1
 94
63
  0
MATERIAL
  5
21
102
{ACAD_REACTORS
330
E
102
}
330
E
100
AcDbMaterial
  1
Global
  2

 70
0
 40
1.0
 71
1
 41
1.0
 91
-1023410177
 42
1.0
 72
1
  3

 73
1
 74
1
 75
1
 44
0.5
 73
0
 45
1.0
 46
1.0
 77
1
  4

 78
1
 79
1
170
1
 48
1.0
171
1
  6

172
1
173
1
174
1
140
1.0
141
1.0
175
1
  7

176
1
177
1
178
1
143
1.0
179
1
  8

270
1
271
1
272
1
145
1.0
146
1.0
273
1
  9

274
1
275
1
276
1
 42
1.0
 72
1
  3

 73
1
 74
1
 75
1
 94
63
  0
MLINESTYLE
  5
22
102
{ACAD_REACTORS
330
10
102
}
330
10
100
AcDbMlineStyle
  2
Standard
 70
0
  3

 62
256
 51
90.0
 52
90.0
 71
2
 49
0.5
 62
256
  6
BYLAYER
 49
-0.5
 62
256
  6
BYLAYER
  0
MLEADERSTYLE
  5
2C
102
{ACAD_REACTORS
330
F
102
}
330
F
100
AcDbMLeaderStyle
179
2
170
2
171
1
172
0
 90
2
 40
0.0
 41
0.0
173
1
 91
-1056964608
 92
-2
290
1
 42
2.0
291
1
 43
8.0
  3
Standard
 44
4.0
300

342
29
174
1
175
1
176
0
178
1
 93
-1056964608
 45
4.0
292
0
297
0
 46
4.0
 94
-1056964608
 47
1.0
 49
1.0
140
1.0
294
1
141
0.0
177
0
142
1.0
295
0
296
0
143
3.75
271
0
272
9
273
9
  0
DICTIONARY
  5
2D
330
A
100
AcDbDictionary
280
1
281
1
  3
CREATED_BY_EZDXF
350
2E
  3
WRITTEN_BY_EZDXF
350
8B
  0
DICTIONARYVAR
  5
2E
330
2D
100
DictionaryVariables
280
0
  1
1.4.4 @ 2026-10-05T07:37:42.263225+00:00
  0
DICTIONARYVAR
  5
8B
330
2D
100
DictionaryVariables
280
0
  1
1.4.4 @ 2026-10-05T07:37:42.787823+00:00
  0
ENDSEC
  0
EOF
