  0
SECTION
  2
HEADER
  9
$ACADVER
  1
AC1027
  9
$ACADMAINTVER
 70
105
  9
$DWGCODEPAGE
  3
ANSI_1252
  9
$LASTSAVEDBY
  1
ezdxf
  9
$REQUIREDVERSIONS
160
0
  9
$INSBASE
 10
0.0
 20
0.0
 30
0.0
  9
$EXTMIN
 10
1e+20
 20
1e+20
 30
1e+20
  9
$EXTMAX
 10
-1e+20
 20
-1e+20
 30
-1e+20
  9
$LIMMIN
 10
0.0
 20
0.0
  9
$LIMMAX
 10
420.0
 20
297.0
  9
$ORTHOMODE
 70
0
  9
$REGENMODE
 70
1
  9
$FILLMODE
 70
1
  9
$QTEXTMODE
 70
0
  9
$MIRRTEXT
 70
1
  9
$LTSCALE
 40
1.0
  9
$ATTMODE
 70
1
  9
$TEXTSIZE
 40
2.5
  9
$TRACEWID
 40
1.0
  9
$TEXTSTYLE
  7
Standard
  9
$CLAYER
  8
0
  9
$CELTYPE
  6
ByLayer
  9
$CECOLOR
 62
256
  9
$CELTSCALE
 40
1.0
  9
$DISPSILH
 70
0
  9
$DIMSCALE
 40
1.0
  9
$DIMASZ
 40
2.5
  9
$DIMEXO
 40
0.625
  9
$DIMDLI
 40
3.75
  9
$DIMRND
 40
0.0
  9
$DIMDLE
 40
0.0
  9
$DIMEXE
 40
1.25
  9
$DIMTP
 40
0.0
  9
$DIMTM
 40
0.0
  9
$DIMTXT
 40
2.5
  9
$DIMCEN
 40
2.5
  9
$DIMTSZ
 40
0.0
  9
$DIMTOL
 70
0
  9
$DIMLIM
 70
0
  9
$DIMTIH
 70
0
  9
$DIMTOH
 70
0
  9
$DIMSE1
 70
0
  9
$DIMSE2
 70
0
  9
$DIMTAD
 70
1
  9
$DIMZIN
 70
8
  9
$DIMBLK
  1

  9
$DIMASO
 70
1
  9
$DIMSHO
 70
1
  9
$DIMPOST
  1

  9
$DIMAPOST
  1

  9
$DIMALT
 70
0
  9
$DIMALTD
 70
3
  9
$DIMALTF
 40
0.03937007874
  9
$DIMLFAC
 40
1.0
  9
$DIMTOFL
 70
1
  9
$DIMTVP
 40
0.0
  9
$DIMTIX
 70
0
  9
$DIMSOXD
 70
0
  9
$DIMSAH
 70
0
  9
$DIMBLK1
  1

  9
$DIMBLK2
  1

  9
$DIMSTYLE
  2
ISO-25
  9
$DIMCLRD
 70
0
  9
$DIMCLRE
 70
0
  9
$DIMCLRT
 70
0
  9
$DIMTFAC
 40
1.0
  9
$DIMGAP
 40
0.625
  9
$DIMJUST
 70
0
  9
$DIMSD1
 70
0
  9
$DIMSD2
 70
0
  9
$DIMTOLJ
 70
0
  9
$DIMTZIN
 70
8
  9
$DIMALTZ
 70
0
  9
$DIMALTTZ
 70
0
  9
$DIMUPT
 70
0
  9
$DIMDEC
 70
2
  9
$DIMTDEC
 70
2
  9
$DIMALTU
 70
2
  9
$DIMALTTD
 70
3
  9
$DIMTXSTY
  7
Standard
  9
$DIMAUNIT
 70
0
  9
$DIMADEC
 70
0
  9
$DIMALTRND
 40
0.0
  9
$DIMAZIN
 70
0
  9
$DIMDSEP
 70
44
  9
$DIMATFIT
 70
3
  9
$DIMFRAC
 70
0
  9
$DIMLDRBLK
  1

  9
$DIMLUNIT
 70
2
  9
$DIMLWD
 70
-2
  9
$DIMLWE
 70
-2
  9
$DIMTMOVE
 70
0
  9
$DIMFXL
 40
1.0
  9
$DIMFXLON
 70
0
  9
$DIMJOGANG
 40
0.785398163397
  9
$DIMTFILL
 70
0
  9
$DIMTFILLCLR
 70
0
  9
$DIMARCSYM
 70
0
  9
$DIMLTYPE
  6

  9
$DIMLTEX1
  6

  9
$DIMLTEX2
  6

  9
$DIMTXTDIRECTION
 70
0
  9
$LUNITS
 70
2
  9
$LUPREC
 70
4
  9
$SKETCHINC
 40
1.0
  9
$FILLETRAD
 40
10.0
  9
$AUNITS
 70
0
  9
$AUPREC
 70
2
  9
$MENU
  1
.
  9
$ELEVATION
 40
0.0
  9
$PELEVATION
 40
0.0
  9
$THICKNESS
 40
0.0
  9
$LIMCHECK
 70
0
  9
$CHAMFERA
 40
0.0
  9
$CHAMFERB
 40
0.0
  9
$CHAMFERC
 40
0.0
  9
$CHAMFERD
 40
0.0
  9
$SKPOLY
 70
0
  9
$TDCREATE
 40
2461319.6094907406
  9
$TDUCREATE
 40
2458532.153996898
  9
$TDUPDATE
 40
2461319.6095023146
  9
$TDUUPDATE
 40
2458532.1544311
  9
$TDINDWG
 40
0.0
  9
$TDUSRTIMER
 40
0.0
  9
$USRTIMER
 70
1
  9
$ANGBASE
 50
0.0
  9
$ANGDIR
 70
0
  9
$PDMODE
 70
0
  9
$PDSIZE
 40
0.0
  9
$PLINEWID
 40
0.0
  9
$SPLFRAME
 70
0
  9
$SPLINETYPE
 70
6
  9
$SPLINESEGS
 70
8
  9
$HANDSEED
  5
11C
  9
$SURFTAB1
 70
6
  9
$SURFTAB2
 70
6
  9
$SURFTYPE
 70
6
  9
$SURFU
 70
6
  9
$SURFV
 70
6
  9
$UCSBASE
  2

  9
$UCSNAME
  2

  9
$UCSORG
 10
0.0
 20
0.0
 30
0.0
  9
$UCSXDIR
 10
1.0
 20
0.0
 30
0.0
  9
$UCSYDIR
 10
0.0
 20
1.0
 30
0.0
  9
$UCSORTHOREF
  2

  9
$UCSORTHOVIEW
 70
0
  9
$UCSORGTOP
 10
0.0
 20
0.0
 30
0.0
  9
$UCSORGBOTTOM
 10
0.0
 20
0.0
 30
0.0
  9
$UCSORGLEFT
 10
0.0
 20
0.0
 30
0.0
  9
$UCSORGRIGHT
 10
0.0
 20
0.0
 30
0.0
  9
$UCSORGFRONT
 10
0.0
 20
0.0
 30
0.0
  9
$UCSORGBACK
 10
0.0
 20
0.0
 30
0.0
  9
$PUCSBASE
  2

  9
$PUCSNAME
  2

  9
$PUCSORG
 10
0.0
 20
0.0
 30
0.0
  9
$PUCSXDIR
 10
1.0
 20
0.0
 30
0.0
  9
$PUCSYDIR
 10
0.0
 20
1.0
 30
0.0
  9
$PUCSORTHOREF
  2

  9
$PUCSORTHOVIEW
 70
0
  9
$PUCSORGTOP
 10
0.0
 20
0.0
 30
0.0
  9
$PUCSORGBOTTOM
 10
0.0
 20
0.0
 30
0.0
  9
$PUCSORGLEFT
 10
0.0
 20
0.0
 30
0.0
  9
$PUCSORGRIGHT
 10
0.0
 20
0.0
 30
0.0
  9
$PUCSORGFRONT
 10
0.0
 20
0.0
 30
0.0
  9
$PUCSORGBACK
 10
0.0
 20
0.0
 30
0.0
  9
$USERI1
 70
0
  9
$USERI2
 70
0
  9
$USERI3
 70
0
  9
$USERI4
 70
0
  9
$USERI5
 70
0
  9
$USERR1
 40
0.0
  9
$USERR2
 40
0.0
  9
$USERR3
 40
0.0
  9
$USERR4
 40
0.0
  9
$USERR5
 40
0.0
  9
$WORLDVIEW
 70
1
  9
$SHADEDGE
 70
3
  9
$SHADEDIF
 70
70
  9
$TILEMODE
 70
1
  9
$MAXACTVP
 70
64
  9
$PINSBASE
 10
0.0
 20
0.0
 30
0.0
  9
$PLIMCHECK
 70
0
  9
$PEXTMIN
 10
1e+20
 20
1e+20
 30
1e+20
  9
$PEXTMAX
 10
-1e+20
 20
-1e+20
 30
-1e+20
  9
$PLIMMIN
 10
0.0
 20
0.0
  9
$PLIMMAX
 10
420.0
 20
297.0
  9
$UNITMODE
 70
0
  9
$VISRETAIN
 70
1
  9
$PLINEGEN
 70
0
  9
$PSLTSCALE
 70
1
  9
$TREEDEPTH
 70
3020
  9
$CMLSTYLE
  2
Standard
  9
$CMLJUST
 70
0
  9
$CMLSCALE
 40
20.0
  9
$PROXYGRAPHICS
 70
1
  9
$MEASUREMENT
 70
1
  9
$CELWEIGHT
370
-1
  9
$ENDCAPS
280
0
  9
$JOINSTYLE
280
0
  9
$LWDISPLAY
290
0
  9
$INSUNITS
 70
4
  9
$HYPERLINKBASE
  1

  9
$STYLESHEET
  1

  9
$XEDIT
290
1
  9
$CEPSNTYPE
380
0
  9
$PSTYLEMODE
290
1
  9
$FINGERPRINTGUID
  2
{7CBB80B0-7922-4B6A-A419-6554CF9ED39E}
  9
$VERSIONGUID
  2
{75143478-F916-44E2-8E9E-FA6D13DFCA25}
  9
$EXTNAMES
290
1
  9
$PSVPSCALE
 40
0.0
  9
$OLESTARTUP
290
0
  9
$SORTENTS
280
127
  9
$INDEXCTL
280
0
  9
$HIDETEXT
280
1
  9
$XCLIPFRAME
280
1
  9
$HALOGAP
280
0
  9
$OBSCOLOR
 70
257
  9
$OBSLTYPE
280
0
  9
$INTERSECTIONDISPLAY
280
0
  9
$INTERSECTIONCOLOR
 70
257
  9
$DIMASSOC
280
2
  9
$PROJECTNAME
  1

  9
$CAMERADISPLAY
290
0
  9
$LENSLENGTH
 40
50.0
  9
$CAMERAHEIGHT
 40
0.0
  9
$STEPSPERSEC
 40
24.0
  9
$STEPSIZE
 40
100.0
  9
$3DDWFPREC
 40
2.0
  9
$PSOLWIDTH
 40
0.005
  9
$PSOLHEIGHT
 40
0.08
  9
$LOFTANG1
 40
1.570796326795
  9
$LOFTANG2
 40
1.570796326795
  9
$LOFTMAG1
 40
0.0
  9
$LOFTMAG2
 40
0.0
  9
$LOFTPARAM
 70
7
  9
$LOFTNORMALS
280
1
  9
$LATITUDE
 40
37.795
  9
$LONGITUDE
 40
-122.394
  9
$NORTHDIRECTION
 40
0.0
  9
$TIMEZONE
 70
-8000
  9
$LIGHTGLYPHDISPLAY
280
1
  9
$TILEMODELIGHTSYNCH
280
1
  9
$CMATERIAL
347
20
  9
$SOLIDHIST
280
0
  9
$SHOWHIST
280
1
  9
$DWFFRAME
280
2
  9
$DGNFRAME
280
2
  9
$REALWORLDSCALE
290
1
  9
$INTERFERECOLOR
 62
256
  9
$CSHADOW
280
0
  9
$SHADOWPLANELOCATION
 40
0.0
  0
ENDSEC
  0
SECTION
  2
CLASSES
  0
CLASS
  1
ACDBDICTIONARYWDFLT
  2
AcDbDictionaryWithDefault
  3
ObjectDBX Classes
 90
0
 91
0
280
0
281
0
  0
CLASS
  1
SUN
  2
AcDbSun
  3
SCENEOE
 90
1153
 91
0
280
0
281
0
  0
CLASS
  1
VISUALSTYLE
  2
AcDbVisualStyle
  3
ObjectDBX Classes
 90
4095
 91
0
280
0
281
0
  0
CLASS
  1
MATERIAL
  2
AcDbMaterial
  3
ObjectDBX Classes
 90
1153
 91
0
280
0
281
0
  0
CLASS
  1
SCALE
  2
AcDbScale
  3
ObjectDBX Classes
 90
1153
 91
0
280
0
281
0
  0
CLASS
  1
TABLESTYLE
  2
AcDbTableStyle
  3
ObjectDBX Classes
 90
4095
 91
0
280
0
281
0
  0
CLASS
  1
MLEADERSTYLE
  2
AcDbMLeaderStyle
  3
ACDB_MLEADERSTYLE_CLASS
 90
4095
 91
0
280
0
281
0
  0
CLASS
  1
DICTIONARYVAR
  2
AcDbDictionaryVar
  3
ObjectDBX Classes
 90
0
 91
0
280
0
281
0
  0
CLASS
  1
CELLSTYLEMAP
  2
AcDbCellStyleMap
  3
ObjectDBX Classes
 90
1152
 91
0
280
0
281
0
  0
CLASS
  1
MENTALRAYRENDERSETTINGS
  2
AcDbMentalRayRenderSettings
  3
SCENEOE
 90
1024
 91
0
280
0
281
0
  0
CLASS
  1
ACDBDETAILVIEWSTYLE
  2
AcDbDetailViewStyle
  3
ObjectDBX Classes
 90
1025
 91
0
280
0
281
0
  0
CLASS
  1
ACDBSECTIONVIEWSTYLE
  2
AcDbSectionViewStyle
  3
ObjectDBX Classes
 90
1025
 91
0
280
0
281
0
  0
CLASS
  1
RASTERVARIABLES
  2
AcDbRasterVariables
  3
ISM
 90
0
 91
0
280
0
281
0
  0
CLASS
  1
LAYOUT
  2
AcDbLayout
  3
ObjectDBX Classes
 90
0
 91
0
280
0
281
0
  0
CLASS
  1
ACDBPLACEHOLDER
  2
AcDbPlaceHolder
  3
ObjectDBX Classes
 90
0
 91
0
280
0
281
0
  0
ENDSEC
  0
SECTION
  2
TABLES
  0
TABLE
  2
VPORT
  5
8
330
0
100
AcDbSymbolTable
 70
1
  0
VPORT
  5
118
330
8
100
AcDbSymbolTableRecord
100
AcDbViewportTableRecord
  2
*Active
 70
0
 10
0.0
 20
0.0
 11
1.0
 21
1.0
 12
2.6307104509981514
 22
-70.00000000000001
 13
0.0
 23
0.0
 14
0.5
 24
0.5
 15
0.5
 25
0.5
 16
0.0
 26
0.0
 36
1.0
 17
0.0
 27
0.0
 37
0.0
 40
176.00000000000009
 41
1.34
 42
50.0
 43
0.0
 44
0.0
 50
0.0
 51
0.0
 71
0
 72
1000
 73
1
 74
3
 75
0
 76
0
 77
0
 78
0
281
0
 65
1
110
0.0
120
0.0
130
0.0
111
1.0
121
0.0
131
0.0
112
0.0
122
1.0
132
0.0
 79
0
146
0.0
  0
ENDTAB
  0
TABLE
  2
LTYPE
  5
2
330
0
100
AcDbSymbolTable
 70
4
  0
LTYPE
  5
24
330
2
100
AcDbSymbolTableRecord
100
AcDbLinetypeTableRecord
  2
ByBlock
 70
0
  3

 72
65
 73
0
 40
0.0
  0
LTYPE
  5
25
330
2
100
AcDbSymbolTableRecord
100
AcDbLinetypeTableRecord
  2
ByLayer
 70
0
  3

 72
65
 73
0
 40
0.0
  0
LTYPE
  5
26
330
2
100
AcDbSymbolTableRecord
100
AcDbLinetypeTableRecord
  2
Continuous
 70
0
  3

 72
65
 73
0
 40
0.0
  0
LTYPE
  5
30
330
2
100
AcDbSymbolTableRecord
100
AcDbLinetypeTableRecord
  2
ACAD_ISO02W100
 70
0
  3
ISO dash __ __ __ __ __ __ __ __ __ __ __ __ __
 72
65
 73
2
 40
15.0
 49
12.0
 74
0
 49
-3.0
 74
0
  0
ENDTAB
  0
TABLE
  2
LAYER
  5
1
330
0
100
AcDbSymbolTable
 70
4
  0
LAYER
  5
27
330
1
100
AcDbSymbolTableRecord
100
AcDbLayerTableRecord
  2
0
 70
0
 62
7
  6
Continuous
370
-3
390
13
347
21
  0
LAYER
  5
28
330
1
100
AcDbSymbolTableRecord
100
AcDbLayerTableRecord
  2
Defpoints
 70
0
 62
7
  6
Continuous
290
0
370
-3
390
13
347
21
  0
LAYER
  5
2F
330
1
100
AcDbSymbolTableRecord
100
AcDbLayerTableRecord
  2
VISIBLE
 70
0
 62
7
  6
Continuous
370
25
390
13
347
21
  0
LAYER
  5
31
330
1
100
AcDbSymbolTableRecord
100
AcDbLayerTableRecord
  2
HIDDEN
 70
0
 62
7
  6
ACAD_ISO02W100
370
13
390
13
347
21
  0
ENDTAB
  0
TABLE
  2
STYLE
  5
5
330
0
100
AcDbSymbolTable
 70
1
  0
STYLE
  5
29
330
5
100
AcDbSymbolTableRecord
100
AcDbTextStyleTableRecord
  2
Standard
 70
0
 40
0.0
 41
1.0
 50
0.0
 71
0
 42
2.5
  3
txt
  4

  0
ENDTAB
  0
TABLE
  2
VIEW
  5
7
330
0
100
AcDbSymbolTable
 70
0
  0
ENDTAB
  0
TABLE
  2
UCS
  5
6
330
0
100
AcDbSymbolTable
 70
0
  0
ENDTAB
  0
TABLE
  2
APPID
  5
3
330
0
100
AcDbSymbolTable
 70
3
  0
APPID
  5
2A
330
3
100
AcDbSymbolTableRecord
100
AcDbRegAppTableRecord
  2
ACAD
 70
0
  0
APPID
  5
119
330
3
100
AcDbSymbolTableRecord
100
AcDbRegAppTableRecord
  2
HATCHBACKGROUNDCOLOR
 70
0
  0
APPID
  5
11A
330
3
100
AcDbSymbolTableRecord
100
AcDbRegAppTableRecord
  2
EZDXF
 70
0
  0
ENDTAB
  0
TABLE
  2
DIMSTYLE
  5
4
330
0
100
AcDbSymbolTable
 70
1
100
AcDbDimStyleTable
  0
DIMSTYLE
105
2B
330
4
100
AcDbSymbolTableRecord
100
AcDbDimStyleTableRecord
  2
Standard
 70
0
 40
1.0
 41
2.5
 42
0.625
 43
3.75
 44
1.25
 45
0.0
 46
0.0
 47
0.0
 48
0.0
 49
2.5
140
2.5
141
2.5
142
0.0
143
0.03937007874
144
1.0
145
0.0
146
1.0
147
0.625
148
0.0
 69
0
 70
0
 71
0
 72
0
 73
0
 74
0
 75
0
 76
0
 77
1
 78
8
 79
3
170
0
171
3
172
1
173
0
174
0
175
0
176
0
177
0
178
0
179
2
271
2
272
2
273
2
274
3
275
0
276
0
277
2
278
44
279
0
280
0
281
0
282
0
283
0
284
8
285
0
286
0
288
0
289
3
290
0
371
-2
372
-2
  0
ENDTAB
  0
TABLE
  2
BLOCK_RECORD
  5
9
330
0
100
AcDbSymbolTable
 70
2
  0
BLOCK_RECORD
  5
17
330
9
100
AcDbSymbolTableRecord
100
AcDbBlockTableRecord
  2
*Model_Space
340
1A
 70
0
280
1
281
0
  0
BLOCK_RECORD
  5
1B
330
9
100
AcDbSymbolTableRecord
100
AcDbBlockTableRecord
  2
*Paper_Space
340
1E
 70
0
280
1
281
0
  0
ENDTAB
  0
ENDSEC
  0
SECTION
  2
BLOCKS
  0
BLOCK
  5
18
330
17
100
AcDbEntity
  8
0
100
AcDbBlockBegin
  2
*Model_Space
 70
0
 10
0.0
 20
0.0
 30
0.0
  3
*Model_Space
  1

  0
ENDBLK
  5
19
330
17
100
AcDbEntity
  8
0
100
AcDbBlockEnd
  0
BLOCK
  5
1C
330
1B
100
AcDbEntity
  8
0
100
AcDbBlockBegin
  2
*Paper_Space
 70
0
 10
0.0
 20
0.0
 30
0.0
  3
*Paper_Space
  1

  0
ENDBLK
  5
1D
330
1B
100
AcDbEntity
  8
0
100
AcDbBlockEnd
  0
ENDSEC
  0
SECTION
  2
ENTITIES
  0
SPLINE
  5
32
330
17
100
AcDbEntity
  8
VISIBLE
100
AcDbSpline
 70
0
 71
2
 72
6
 73
3
 74
0
 40
0.0
 40
0.0
 40
0.0
 40
0.9035882238519892
 40
0.9035882238519892
 40
0.9035882238519892
 10
14.513919999999992
 20
18.0
 30
0.0
 10
25.47466533135106
 20
-61.3861722697772
 30
0.0
 10
13.562701758996349
 20
-141.00653911822505
 30
0.0
  0
SPLINE
  5
33
330
17
100
AcDbEntity
  8
VISIBLE
100
AcDbSpline
 70
0
 71
3
 72
29
 73
25
 74
0
 40
0.0
 40
0.0
 40
0.0
 40
0.0
 40
0.1250000000000001
 40
0.1250000000000001
 40
0.1250000000000001
 40
0.2500000000000001
 40
0.2500000000000001
 40
0.2500000000000001
 40
0.3750000000000001
 40
0.3750000000000001
 40
0.3750000000000001
 40
0.5000000000000001
 40
0.5000000000000001
 40
0.5000000000000001
 40
0.6250000000000001
 40
0.6250000000000001
 40
0.6250000000000001
 40
0.7500000000000001
 40
0.7500000000000001
 40
0.7500000000000001
 40
0.8750000000000001
 40
0.8750000000000001
 40
0.8750000000000001
 40
1.0
 40
1.0
 40
1.0
 40
1.0
 10
-14.513919998076684
 20
18.0
 30
0.0
 10
-14.51493090810525
 20
18.000000000000018
 30
0.0
 10
-14.137160204170751
 20
17.999999999999986
 30
0.0
 10
-13.409113625325485
 20
18.0
 30
0.0
 10
-12.68293496480541
 20
18.0
 30
0.0
 10
-11.607135013928648
 20
17.999999999999996
 30
0.0
 10
-10.262891254803835
 20
18.0
 30
0.0
 10
-8.920077138519156
 20
18.0
 30
0.0
 10
-7.310028730201327
 20
17.999999999999996
 30
0.0
 10
-5.554236720691429
 20
18.0
 30
0.0
 10
-3.799218428116019
 20
18.0
 30
0.0
 10
-1.9000368431252848
 20
17.999999999999996
 30
0.0
 10
-1.0150946749831746e-09
 20
18.0
 30
0.0
 10
1.900036841009493
 20
18.0
 30
0.0
 10
3.7992184279377708
 20
17.999999999999996
 30
0.0
 10
5.554236722161433
 20
18.0
 30
0.0
 10
7.310028733407495
 20
18.0
 30
0.0
 10
8.920077141872008
 20
17.999999999999996
 30
0.0
 10
10.262891255114965
 20
18.0
 30
0.0
 10
11.607135011336865
 20
18.0
 30
0.0
 10
12.682934957930915
 20
17.999999999999996
 30
0.0
 10
13.409113622940632
 20
18.0
 30
0.0
 10
14.137160207679559
 20
18.0
 30
0.0
 10
14.514930916114217
 20
17.999999999999996
 30
0.0
 10
14.513919999999999
 20
18.0
 30
0.0
  0
SPLINE
  5
34
330
17
100
AcDbEntity
  8
VISIBLE
100
AcDbSpline
 70
0
 71
3
 72
14
 73
10
 74
0
 40
0.0
 40
0.0
 40
0.0
 40
0.0
 40
0.24821479234590813
 40
0.24821479234590813
 40
0.24821479234590813
 40
0.49642958469181625
 40
0.49642958469181625
 40
0.49642958469181625
 40
1.0
 40
1.0
 40
1.0
 40
1.0
 10
13.562701758996349
 20
-141.00653911822513
 30
0.0
 10
13.562692814096026
 20
-141.00769093023527
 30
0.0
 10
13.564761201035555
 20
-140.97854821735262
 30
0.0
 10
13.568906919814909
 20
-140.91911097957689
 30
0.0
 10
13.572933845958213
 20
-140.85993257432347
 30
0.0
 10
13.578609711478803
 20
-140.76931819412584
 30
0.0
 10
13.583484478076688
 20
-140.6700368899172
 30
0.0
 10
13.593528398789163
 20
-140.468044986698
 30
0.0
 10
13.60009719696719
 20
-140.23563510012775
 30
0.0
 10
13.599999999999996
 20
-140.0
 30
0.0
  0
SPLINE
  5
35
330
17
100
AcDbEntity
  8
VISIBLE
100
AcDbSpline
 70
0
 71
3
 72
20
 73
16
 74
0
 40
0.0
 40
0.0
 40
0.0
 40
0.0
 40
0.15297733964982088
 40
0.15297733964982088
 40
0.15297733964982088
 40
0.30595467929964176
 40
0.30595467929964176
 40
0.30595467929964176
 40
0.5931650340864003
 40
0.5931650340864003
 40
0.5931650340864003
 40
0.7863291649872652
 40
0.7863291649872652
 40
0.7863291649872652
 40
1.0
 40
1.0
 40
1.0
 40
1.0
 10
13.6
 20
-133.82726893188396
 30
0.0
 10
13.599999999999996
 20
-134.12950193809834
 30
0.0
 10
13.600000000000001
 20
-134.50225025329829
 30
0.0
 10
13.6
 20
-134.85418368471701
 30
0.0
 10
13.600000000000001
 20
-135.21089639710945
 30
0.0
 10
13.599999999999998
 20
-135.54715568797474
 30
0.0
 10
13.6
 20
-135.90559788385423
 30
0.0
 10
13.599999999999998
 20
-136.58421319501426
 30
0.0
 10
13.599999999999998
 20
-137.2533841902951
 30
0.0
 10
13.6
 20
-137.91311086969657
 30
0.0
 10
13.599999999999998
 20
-138.35527316175734
 30
0.0
 10
13.6
 20
-138.74428798909634
 30
0.0
 10
13.6
 20
-139.08015535171353
 30
0.0
 10
13.600000000000001
 20
-139.44827048112836
 30
0.0
 10
13.6
 20
-139.76031991710806
 30
0.0
 10
13.6
 20
-140.00000000000003
 30
0.0
  0
SPLINE
  5
36
330
17
100
AcDbEntity
  8
VISIBLE
100
AcDbSpline
 70
0
 71
2
 72
6
 73
3
 74
0
 40
0.0
 40
0.0
 40
0.0
 40
0.6893744251219218
 40
0.6893744251219218
 40
0.6893744251219218
 10
13.599999999999998
 20
-133.82726893188405
 30
0.0
 10
12.585738438467097
 20
-140.66855042122737
 30
0.0
 10
11.36130798215011
 20
-147.47533817617926
 30
0.0
  0
SPLINE
  5
37
330
17
100
AcDbEntity
  8
VISIBLE
100
AcDbSpline
 70
0
 71
3
 72
20
 73
16
 74
0
 40
0.0
 40
0.0
 40
0.0
 40
0.0
 40
0.07240253157113585
 40
0.07240253157113585
 40
0.07240253157113585
 40
0.20018317912527817
 40
0.20018317912527817
 40
0.20018317912527817
 40
0.3503733482658504
 40
0.3503733482658504
 40
0.3503733482658504
 40
0.6122725722676577
 40
0.6122725722676577
 40
0.6122725722676577
 40
0.9999998059069416
 40
0.9999998059069416
 40
0.9999998059069416
 40
0.9999998059069416
 10
13.252494591597843
 20
-143.0547319194441
 30
0.0
 10
13.252571955674918
 20
-143.05434176452317
 30
0.0
 10
13.2416682925621
 20
-143.10208042440544
 30
0.0
 10
13.225011943221645
 20
-143.17160197717882
 30
0.0
 10
13.195334630365839
 20
-143.29574096446427
 30
0.0
 10
13.15092071343902
 20
-143.47147883116816
 30
0.0
 10
13.100942783809883
 20
-143.65038329156536
 30
0.0
 10
13.041227561022497
 20
-143.86626065200028
 30
0.0
 10
12.970568307184472
 20
-144.09609374222535
 30
0.0
 10
12.888965022295801
 20
-144.3398825622401
 30
0.0
 10
12.747193599206618
 20
-144.762634590067
 30
0.0
 10
12.57984651131587
 20
-145.18755187978044
 30
0.0
 10
12.386923758623542
 20
-145.61463443138086
 30
0.0
 10
12.101815357518985
 20
-146.2466364371412
 30
0.0
 10
11.7599434331621
 20
-146.86687101894492
 30
0.0
 10
11.361307985552921
 20
-147.47533817679258
 30
0.0
  0
SPLINE
  5
38
330
17
100
AcDbEntity
  8
VISIBLE
100
AcDbSpline
 70
0
 71
2
 72
6
 73
3
 74
0
 40
0.0
 40
0.0
 40
0.0
 40
1.0
 40
1.0
 40
1.0
 10
13.252494591597841
 20
-143.05473191944398
 30
0.0
 10
12.107108338967448
 20
-150.52633487772485
 30
0.0
 10
10.760319999999998
 20
-158.0
 30
0.0
  0
SPLINE
  5
39
330
17
100
AcDbEntity
  8
VISIBLE
100
AcDbSpline
 70
0
 71
3
 72
23
 73
19
 74
0
 40
0.0
 40
0.0
 40
0.0
 40
0.0
 40
0.125
 40
0.125
 40
0.125
 40
0.25
 40
0.25
 40
0.25
 40
0.5
 40
0.5
 40
0.5
 40
0.75
 40
0.75
 40
0.75
 40
0.875
 40
0.875
 40
0.875
 40
1.0
 40
1.0
 40
1.0
 40
1.0
 10
-10.760319998574106
 20
-158.0
 30
0.0
 10
-10.761069466353893
 20
-157.99999999999994
 30
0.0
 10
-10.48099808240249
 20
-158.00000000000006
 30
0.0
 10
-9.94123941187925
 20
-158.0
 30
0.0
 10
-9.402865577355762
 20
-157.99999999999994
 30
0.0
 10
-8.605289751705744
 20
-158.00000000000006
 30
0.0
 10
-7.608695240630441
 20
-158.0
 30
0.0
 10
-5.622038295027042
 20
-157.99999999999997
 30
0.0
 10
-2.820976014176473
 20
-158.00000000000003
 30
0.0
 10
-7.525731149371495e-10
 20
-158.0
 30
0.0
 10
2.820976012348007
 20
-157.99999999999997
 30
0.0
 10
5.622038300173914
 20
-158.00000000000003
 30
0.0
 10
7.608695240861103
 20
-158.0
 30
0.0
 10
8.605289749784188
 20
-157.99999999999994
 30
0.0
 10
9.402865572259177
 20
-158.00000000000006
 30
0.0
 10
9.941239410111132
 20
-158.0
 30
0.0
 10
10.480998085003854
 20
-157.99999999999994
 30
0.0
 10
10.761069472291126
 20
-158.00000000000006
 30
0.0
 10
10.760319999999995
 20
-158.0
 30
0.0
  0
SPLINE
  5
3A
330
17
100
AcDbEntity
  8
VISIBLE
100
AcDbSpline
 70
0
 71
2
 72
6
 73
3
 74
0
 40
0.0
 40
0.0
 40
0.0
 40
1.0
 40
1.0
 40
1.0
 10
11.361307985552857
 20
-147.47533817679258
 30
0.0
 10
11.957520373418719
 20
-146.56531826801336
 30
0.0
 10
12.384424117434937
 20
-145.62014584237886
 30
0.0
  0
SPLINE
  5
3B
330
17
100
AcDbEntity
  8
VISIBLE
100
AcDbSpline
 70
0
 71
1
 72
4
 73
2
 74
0
 40
0.0
 40
0.0
 40
1.0
 40
1.0
 10
12.385766562262546
 20
-145.6171867227527
 30
0.0
 10
12.418526990482498
 20
-145.54438341921258
 30
0.0
  0
SPLINE
  5
3C
330
17
100
AcDbEntity
  8
VISIBLE
100
AcDbSpline
 70
0
 71
1
 72
4
 73
2
 74
0
 40
0.0
 40
0.0
 40
1.0
 40
1.0
 10
12.551554998844008
 20
-145.23626460503647
 30
0.0
 10
12.553441650633534
 20
-145.23173992364116
 30
0.0
  0
SPLINE
  5
3D
330
17
100
AcDbEntity
  8
VISIBLE
100
AcDbSpline
 70
0
 71
1
 72
4
 73
2
 74
0
 40
0.0
 40
0.0
 40
1.0
 40
1.0
 10
12.590503844709705
 20
-145.14190751761282
 30
0.0
 10
12.656023100199764
 20
-144.978461547262
 30
0.0
  0
SPLINE
  5
3E
330
17
100
AcDbEntity
  8
VISIBLE
100
AcDbSpline
 70
0
 71
1
 72
4
 73
2
 74
0
 40
0.0
 40
0.0
 40
1.0
 40
1.0
 10
12.761872736794952
 20
-144.70048978036485
 30
0.0
 10
12.825950416668803
 20
-144.5227199752076
 30
0.0
  0
SPLINE
  5
3F
330
17
100
AcDbEntity
  8
VISIBLE
100
AcDbSpline
 70
0
 71
1
 72
4
 73
2
 74
0
 40
0.0
 40
0.0
 40
1.0
 40
1.0
 10
12.886956961071762
 20
-144.34584171864793
 30
0.0
 10
12.889221568668772
 20
-144.33912056958337
 30
0.0
  0
SPLINE
  5
40
330
17
100
AcDbEntity
  8
VISIBLE
100
AcDbSpline
 70
0
 71
1
 72
4
 73
2
 74
0
 40
0.0
 40
0.0
 40
1.0
 40
1.0
 10
12.917648620845606
 20
-144.25374589423961
 30
0.0
 10
12.923383912585363
 20
-144.23628944729433
 30
0.0
  0
SPLINE
  5
41
330
17
100
AcDbEntity
  8
VISIBLE
100
AcDbSpline
 70
0
 71
1
 72
4
 73
2
 74
0
 40
0.0
 40
0.0
 40
1.0
 40
1.0
 10
13.013423897931151
 20
-143.95105029507636
 30
0.0
 10
13.025054382322313
 20
-143.91253860608265
 30
0.0
  0
SPLINE
  5
42
330
17
100
AcDbEntity
  8
VISIBLE
100
AcDbSpline
 70
0
 71
1
 72
4
 73
2
 74
0
 40
0.0
 40
0.0
 40
1.0
 40
1.0
 10
13.049596947675747
 20
-143.8298850557219
 30
0.0
 10
13.05226386546826
 20
-143.8207863092859
 30
0.0
  0
SPLINE
  5
43
330
17
100
AcDbEntity
  8
VISIBLE
100
AcDbSpline
 70
0
 71
1
 72
4
 73
2
 74
0
 40
0.0
 40
0.0
 40
1.0
 40
1.0
 10
13.09024838819865
 20
-143.6885494560123
 30
0.0
 10
13.093332909495915
 20
-143.6775852508697
 30
0.0
  0
SPLINE
  5
44
330
17
100
AcDbEntity
  8
VISIBLE
100
AcDbSpline
 70
0
 71
2
 72
6
 73
3
 74
0
 40
0.0
 40
0.0
 40
0.0
 40
1.0
 40
1.0
 40
1.0
 10
13.588184145926258
 20
-140.56679059967422
 30
0.0
 10
13.584714824960725
 20
-140.64944436565486
 30
0.0
 10
13.580673598216732
 20
-140.72477778334783
 30
0.0
  0
SPLINE
  5
45
330
17
100
AcDbEntity
  8
VISIBLE
100
AcDbSpline
 70
0
 71
1
 72
4
 73
2
 74
0
 40
0.0
 40
0.0
 40
1.0
 40
1.0
 10
5.984856969733894
 20
0.4260128910937381
 30
0.0
 10
5.984534241470403
 20
0.43052277125713057
 30
0.0
  0
SPLINE
  5
46
330
17
100
AcDbEntity
  8
VISIBLE
100
AcDbSpline
 70
0
 71
1
 72
4
 73
2
 74
0
 40
0.0
 40
0.0
 40
1.0
 40
1.0
 10
5.984403962693836
 20
0.4323299204078195
 30
0.0
 10
5.984077007625665
 20
0.43683215014204024
 30
0.0
  0
SPLINE
  5
47
330
17
100
AcDbEntity
  8
VISIBLE
100
AcDbSpline
 70
0
 71
1
 72
4
 73
2
 74
0
 40
0.0
 40
0.0
 40
1.0
 40
1.0
 10
5.984052048407575
 20
0.4371739280985565
 30
0.0
 10
5.984051536043127
 20
0.4371809413248122
 30
0.0
  0
SPLINE
  5
48
330
17
100
AcDbEntity
  8
VISIBLE
100
AcDbSpline
 70
0
 71
1
 72
4
 73
2
 74
0
 40
0.0
 40
0.0
 40
1.0
 40
1.0
 10
5.983874619438396
 20
0.4395958442772008
 30
0.0
 10
5.983872462642982
 20
0.43962520214254797
 30
0.0
  0
SPLINE
  5
49
330
17
100
AcDbEntity
  8
VISIBLE
100
AcDbSpline
 70
0
 71
1
 72
4
 73
2
 74
0
 40
0.0
 40
0.0
 40
1.0
 40
1.0
 10
5.98346373311695
 20
0.4451536077343557
 30
0.0
 10
5.983463305598689
 20
0.4451593541313846
 30
0.0
  0
SPLINE
  5
4A
330
17
100
AcDbEntity
  8
VISIBLE
100
AcDbSpline
 70
0
 71
1
 72
4
 73
2
 74
0
 40
0.0
 40
0.0
 40
1.0
 40
1.0
 10
5.983049025550684
 20
0.450693186114967
 30
0.0
 10
5.9830476794954714
 20
0.45071105496240893
 30
0.0
  0
SPLINE
  5
4B
330
17
100
AcDbEntity
  8
VISIBLE
100
AcDbSpline
 70
0
 71
1
 72
4
 73
2
 74
0
 40
0.0
 40
0.0
 40
1.0
 40
1.0
 10
5.982867627882079
 20
0.453094847528958
 30
0.0
 10
5.982867117248926
 20
0.4531015901174378
 30
0.0
  0
SPLINE
  5
4C
330
17
100
AcDbEntity
  8
VISIBLE
100
AcDbSpline
 70
0
 71
1
 72
4
 73
2
 74
0
 40
0.0
 40
0.0
 40
1.0
 40
1.0
 10
5.982686625599234
 20
0.45547857937499353
 30
0.0
 10
5.982685598863858
 20
0.45549206530312764
 30
0.0
  0
SPLINE
  5
4D
330
17
100
AcDbEntity
  8
VISIBLE
100
AcDbSpline
 70
0
 71
1
 72
4
 73
2
 74
0
 40
0.0
 40
0.0
 40
1.0
 40
1.0
 10
5.982504672657896
 20
0.4578622500993817
 30
0.0
 10
5.982503124349387
 20
0.45788248012285965
 30
0.0
  0
SPLINE
  5
4E
330
17
100
AcDbEntity
  8
VISIBLE
100
AcDbSpline
 70
0
 71
1
 72
4
 73
2
 74
0
 40
0.0
 40
0.0
 40
1.0
 40
1.0
 10
5.982344119958469
 20
0.45995524779437613
 30
0.0
 10
5.982343713825433
 20
0.4599605300790838
 30
0.0
  0
SPLINE
  5
4F
330
17
100
AcDbEntity
  8
VISIBLE
100
AcDbSpline
 70
0
 71
1
 72
4
 73
2
 74
0
 40
0.0
 40
0.0
 40
1.0
 40
1.0
 10
5.905965362221842
 20
1.058098673420207
 30
0.0
 10
5.905965068147095
 20
1.0581003148492858
 30
0.0
  0
SPLINE
  5
50
330
17
100
AcDbEntity
  8
VISIBLE
100
AcDbSpline
 70
0
 71
1
 72
4
 73
2
 74
0
 40
0.0
 40
0.0
 40
1.0
 40
1.0
 10
5.905316595266889
 20
1.061713507697406
 30
0.0
 10
5.9053162849243215
 20
1.0617152338407
 30
0.0
  0
SPLINE
  5
51
330
17
100
AcDbEntity
  8
VISIBLE
100
AcDbSpline
 70
0
 71
1
 72
4
 73
2
 74
0
 40
0.0
 40
0.0
 40
1.0
 40
1.0
 10
5.9046656144795175
 20
1.065327951539994
 30
0.0
 10
5.904665287614774
 20
1.0653297632125553
 30
0.0
  0
SPLINE
  5
52
330
17
100
AcDbEntity
  8
VISIBLE
100
AcDbSpline
 70
0
 71
1
 72
4
 73
2
 74
0
 40
0.0
 40
0.0
 40
1.0
 40
1.0
 10
5.904012420107069
 20
1.0689420034975374
 30
0.0
 10
5.904012076473194
 20
1.0689439014648172
 30
0.0
  0
SPLINE
  5
53
330
17
100
AcDbEntity
  8
VISIBLE
100
AcDbSpline
 70
0
 71
1
 72
4
 73
2
 74
0
 40
0.0
 40
0.0
 40
1.0
 40
1.0
 10
5.903357012397881
 20
1.0725556621201056
 30
0.0
 10
5.903356651755387
 20
1.0725576470982252
 30
0.0
  0
SPLINE
  5
54
330
17
100
AcDbEntity
  8
VISIBLE
100
AcDbSpline
 70
0
 71
1
 72
4
 73
2
 74
0
 40
0.0
 40
0.0
 40
1.0
 40
1.0
 10
5.902699391601292
 20
1.0761689259582476
 30
0.0
 10
5.902699013718241
 20
1.0761709986142958
 30
0.0
  0
SPLINE
  5
55
330
17
100
AcDbEntity
  8
VISIBLE
100
AcDbSpline
 70
0
 71
1
 72
4
 73
2
 74
0
 40
0.0
 40
0.0
 40
1.0
 40
1.0
 10
5.9020395579676315
 20
1.0797817935630718
 30
0.0
 10
5.902039162619706
 20
1.07978395451532
 30
0.0
  0
SPLINE
  5
56
330
17
100
AcDbEntity
  8
VISIBLE
100
AcDbSpline
 70
0
 71
1
 72
4
 73
2
 74
0
 40
0.0
 40
0.0
 40
1.0
 40
1.0
 10
5.901377511748224
 20
1.0833942634861906
 30
0.0
 10
5.901377098718816
 20
1.0833965133043615
 30
0.0
  0
SPLINE
  5
57
330
17
100
AcDbEntity
  8
VISIBLE
100
AcDbSpline
 70
0
 71
1
 72
4
 73
2
 74
0
 40
0.0
 40
0.0
 40
1.0
 40
1.0
 10
5.900713253195402
 20
1.0870063342796645
 30
0.0
 10
5.900712822275661
 20
1.0870086734852555
 30
0.0
  0
SPLINE
  5
58
330
17
100
AcDbEntity
  8
VISIBLE
100
AcDbSpline
 70
0
 71
1
 72
4
 73
2
 74
0
 40
0.0
 40
0.0
 40
1.0
 40
1.0
 10
5.900046782562472
 20
1.0906180044961653
 30
0.0
 10
5.9000463335514
 20
1.090620433562611
 30
0.0
  0
SPLINE
  5
59
330
17
100
AcDbEntity
  8
VISIBLE
100
AcDbSpline
 70
0
 71
1
 72
4
 73
2
 74
0
 40
0.0
 40
0.0
 40
1.0
 40
1.0
 10
5.899378100103732
 20
1.0942292726888403
 30
0.0
 10
5.89937763280826
 20
1.0942317920418074
 30
0.0
  0
SPLINE
  5
5A
330
17
100
AcDbEntity
  8
VISIBLE
100
AcDbSpline
 70
0
 71
1
 72
4
 73
2
 74
0
 40
0.0
 40
0.0
 40
1.0
 40
1.0
 10
5.898707206074491
 20
1.0978401374113091
 30
0.0
 10
5.89870672030953
 20
1.097842747428993
 30
0.0
  0
SPLINE
  5
5B
330
17
100
AcDbEntity
  8
VISIBLE
100
AcDbSpline
 70
0
 71
1
 72
4
 73
2
 74
0
 40
0.0
 40
0.0
 40
1.0
 40
1.0
 10
5.898034100731025
 20
1.1014505972178001
 30
0.0
 10
5.898033596319562
 20
1.1014532982310865
 30
0.0
  0
SPLINE
  5
5C
330
17
100
AcDbEntity
  8
VISIBLE
100
AcDbSpline
 70
0
 71
1
 72
4
 73
2
 74
0
 40
0.0
 40
0.0
 40
1.0
 40
1.0
 10
5.897358784330622
 20
1.10506065066293
 30
0.0
 10
5.897358261103767
 20
1.1050634429557749
 30
0.0
  0
SPLINE
  5
5D
330
17
100
AcDbEntity
  8
VISIBLE
100
AcDbSpline
 70
0
 71
1
 72
4
 73
2
 74
0
 40
0.0
 40
0.0
 40
1.0
 40
1.0
 10
5.896681257131537
 20
1.1086702963019248
 30
0.0
 10
5.896680714928619
 20
1.1086731801115146
 30
0.0
  0
SPLINE
  5
5E
330
17
100
AcDbEntity
  8
VISIBLE
100
AcDbSpline
 70
0
 71
1
 72
4
 73
2
 74
0
 40
0.0
 40
0.0
 40
1.0
 40
1.0
 10
5.896001519393021
 20
1.112279532690507
 30
0.0
 10
5.896000958061643
 20
1.1122825082075256
 30
0.0
  0
SPLINE
  5
5F
330
17
100
AcDbEntity
  8
VISIBLE
100
AcDbSpline
 70
0
 71
1
 72
4
 73
2
 74
0
 40
0.0
 40
0.0
 40
1.0
 40
1.0
 10
5.8953195713753175
 20
1.1158883583848676
 30
0.0
 10
5.895318990771422
 20
1.1158914257537953
 30
0.0
  0
SPLINE
  5
60
330
17
100
AcDbEntity
  8
VISIBLE
100
AcDbSpline
 70
0
 71
1
 72
4
 73
2
 74
0
 40
0.0
 40
0.0
 40
1.0
 40
1.0
 10
5.894635413339644
 20
1.1194967719417472
 30
0.0
 10
5.894634813327597
 20
1.1194999312610796
 30
0.0
  0
SPLINE
  5
61
330
17
100
AcDbEntity
  8
VISIBLE
100
AcDbSpline
 70
0
 71
1
 72
4
 73
2
 74
0
 40
0.0
 40
0.0
 40
1.0
 40
1.0
 10
5.893949045548219
 20
1.1231047719183538
 30
0.0
 10
5.893948426000858
 20
1.1231080232408948
 30
0.0
  0
SPLINE
  5
62
330
17
100
AcDbEntity
  8
VISIBLE
100
AcDbSpline
 70
0
 71
1
 72
4
 73
2
 74
0
 40
0.0
 40
0.0
 40
1.0
 40
1.0
 10
5.89326046826422
 20
1.1267123568724988
 30
0.0
 10
5.893259829062943
 20
1.1267157002055226
 30
0.0
  0
SPLINE
  5
63
330
17
100
AcDbEntity
  8
VISIBLE
100
AcDbSpline
 70
0
 71
1
 72
4
 73
2
 74
0
 40
0.0
 40
0.0
 40
1.0
 40
1.0
 10
5.89256968175183
 20
1.1303195253624043
 30
0.0
 10
5.892569022786649
 20
1.1303229606680065
 30
0.0
  0
SPLINE
  5
64
330
17
100
AcDbEntity
  8
VISIBLE
100
AcDbSpline
 70
0
 71
1
 72
4
 73
2
 74
0
 40
0.0
 40
0.0
 40
1.0
 40
1.0
 10
5.8918766862762055
 20
1.1339262759468398
 30
0.0
 10
5.891876007445809
 20
1.1339298031421543
 30
0.0
  0
SPLINE
  5
65
330
17
100
AcDbEntity
  8
VISIBLE
100
AcDbSpline
 70
0
 71
1
 72
4
 73
2
 74
0
 40
0.0
 40
0.0
 40
1.0
 40
1.0
 10
5.891181482103474
 20
1.137532607185117
 30
0.0
 10
5.8911807833153125
 20
1.1375362261425335
 30
0.0
  0
SPLINE
  5
66
330
17
100
AcDbEntity
  8
VISIBLE
100
AcDbSpline
 70
0
 71
1
 72
4
 73
2
 74
0
 40
0.0
 40
0.0
 40
1.0
 40
1.0
 10
5.890484069500765
 20
1.141138517636989
 30
0.0
 10
5.8904833506710865
 20
1.1411422281844734
 30
0.0
  0
SPLINE
  5
67
330
17
100
AcDbEntity
  8
VISIBLE
100
AcDbSpline
 70
0
 71
1
 72
4
 73
2
 74
0
 40
0.0
 40
0.0
 40
1.0
 40
1.0
 10
5.889784448736161
 20
1.1447440058628033
 30
0.0
 10
5.88978370979011
 20
1.1447478077840603
 30
0.0
  0
SPLINE
  5
68
330
17
100
AcDbEntity
  8
VISIBLE
100
AcDbSpline
 70
0
 71
1
 72
4
 73
2
 74
0
 40
0.0
 40
0.0
 40
1.0
 40
1.0
 10
5.8890826200787485
 20
1.1483490704233152
 30
0.0
 10
5.889081860950392
 20
1.1483529634581449
 30
0.0
  0
SPLINE
  5
69
330
17
100
AcDbEntity
  8
VISIBLE
100
AcDbSpline
 70
0
 71
1
 72
4
 73
2
 74
0
 40
0.0
 40
0.0
 40
1.0
 40
1.0
 10
5.888378583798568
 20
1.1519537098799053
 30
0.0
 10
5.888377804430986
 20
1.1519576937243294
 30
0.0
  0
SPLINE
  5
6A
330
17
100
AcDbEntity
  8
VISIBLE
100
AcDbSpline
 70
0
 71
1
 72
4
 73
2
 74
0
 40
0.0
 40
0.0
 40
1.0
 40
1.0
 10
5.887672340166661
 20
1.1555579227943307
 30
0.0
 10
5.8876715405119935
 20
1.1555619971009783
 30
0.0
  0
SPLINE
  5
6B
330
17
100
AcDbEntity
  8
VISIBLE
100
AcDbSpline
 70
0
 71
1
 72
4
 73
2
 74
0
 40
0.0
 40
0.0
 40
1.0
 40
1.0
 10
5.886963889455012
 20
1.1591617077289995
 30
0.0
 10
5.886963069474542
 20
1.1591658721072107
 30
0.0
  0
SPLINE
  5
6C
330
17
100
AcDbEntity
  8
VISIBLE
100
AcDbSpline
 70
0
 71
1
 72
4
 73
2
 74
0
 40
0.0
 40
0.0
 40
1.0
 40
1.0
 10
5.886253231936612
 20
1.1627650632466957
 30
0.0
 10
5.886252391600797
 20
1.1627693172629021
 30
0.0
  0
SPLINE
  5
6D
330
17
100
AcDbEntity
  8
VISIBLE
100
AcDbSpline
 70
0
 71
1
 72
4
 73
2
 74
0
 40
0.0
 40
0.0
 40
1.0
 40
1.0
 10
5.885540367885403
 20
1.1663679879108244
 30
0.0
 10
5.885539507173961
 20
1.1663723310886827
 30
0.0
  0
SPLINE
  5
6E
330
17
100
AcDbEntity
  8
VISIBLE
100
AcDbSpline
 70
0
 71
1
 72
4
 73
2
 74
0
 40
0.0
 40
0.0
 40
1.0
 40
1.0
 10
5.884825297576315
 20
1.1699704802852184
 30
0.0
 10
5.884824416478269
 20
1.1699749121059377
 30
0.0
  0
SPLINE
  5
6F
330
17
100
AcDbEntity
  8
VISIBLE
100
AcDbSpline
 70
0
 71
1
 72
4
 73
2
 74
0
 40
0.0
 40
0.0
 40
1.0
 40
1.0
 10
5.884108021285243
 20
1.1735725389342249
 30
0.0
 10
5.884107119798982
 20
1.1735770588368055
 30
0.0
  0
SPLINE
  5
70
330
17
100
AcDbEntity
  8
VISIBLE
100
AcDbSpline
 70
0
 71
3
 72
41
 73
37
 74
0
 40
0.0
 40
0.0
 40
0.0
 40
0.0
 40
0.10356421329311706
 40
0.10356421329311706
 40
0.10356421329311706
 40
0.1936957710237227
 40
0.1936957710237227
 40
0.1936957710237227
 40
0.3203958770305619
 40
0.3203958770305619
 40
0.3203958770305619
 40
0.4275486690796132
 40
0.4275486690796132
 40
0.4275486690796132
 40
0.4993137198385996
 40
0.4993137198385996
 40
0.4993137198385996
 40
0.5710787705975859
 40
0.5710787705975859
 40
0.5710787705975859
 40
0.6383445301302649
 40
0.6383445301302649
 40
0.6383445301302649
 40
0.7056102896629438
 40
0.7056102896629438
 40
0.7056102896629438
 40
0.76649069111499
 40
0.76649069111499
 40
0.76649069111499
 40
0.8283595191845717
 40
0.8283595191845717
 40
0.8283595191845717
 40
0.8910997073903897
 40
0.8910997073903897
 40
0.8910997073903897
 40
1.0
 40
1.0
 40
1.0
 40
1.0
 10
5.375159678414788
 20
2.6660191734387375
 30
0.0
 10
4.886220587151338
 20
3.655031449086542
 30
0.0
 10
4.119391871223179
 20
4.5015633462040485
 30
0.0
 10
3.183854614364214
 20
5.085574676926076
 30
0.0
 10
2.3713461340336477
 20
5.595808546813238
 30
0.0
 10
1.4303321980257588
 20
5.906327503122561
 30
0.0
 10
0.4767048095161952
 20
5.981032730606315
 30
0.0
 10
-0.867152373704642
 20
6.091568534096666
 30
0.0
 10
-2.206463534778034
 20
5.727057674122228
 30
0.0
 10
-3.2691018383162587
 20
5.031199973238703
 30
0.0
 10
-4.171815736554176
 20
4.443843216793615
 30
0.0
 10
-4.894139485116132
 20
3.632437365554814
 30
0.0
 10
-5.37289338445166
 20
2.6705835840346874
 30
0.0
 10
-5.6937663745621885
 20
2.0262931862271913
 30
0.0
 10
-5.906675616035209
 20
1.3010101198839568
 30
0.0
 10
-5.975162344139311
 20
0.5453759833103512
 30
0.0
 10
-6.045317944145938
 20
-0.20890143512852777
 30
0.0
 10
-5.9670235521982145
 20
-0.9947785930407254
 30
0.0
 10
-5.746956200005225
 20
-1.7240923511289896
 30
0.0
 10
-5.542019030884069
 20
-2.4074897501610932
 30
0.0
 10
-5.221621048558242
 20
-3.0314429765583784
 30
0.0
 10
-4.820812616904804
 20
-3.5720814185040592
 30
0.0
 10
-4.4194657838764755
 20
-4.113361196975916
 30
0.0
 10
-3.9388043093199707
 20
-4.573115539064834
 30
0.0
 10
-3.3987506568333004
 20
-4.944541836477394
 30
0.0
 10
-2.907589599821501
 20
-5.282580110837964
 30
0.0
 10
-2.372406590576169
 20
-5.542989086056061
 30
0.0
 10
-1.7932016290973016
 20
-5.72576876213167
 30
0.0
 10
-1.2071273425761442
 20
-5.9094557527481495
 30
0.0
 10
-0.5809677018972326
 20
-6.0060798870437
 30
0.0
 10
0.0588838858121502
 20
-5.9997110503749775
 30
0.0
 10
0.7072515636041564
 20
-5.99376139263027
 30
0.0
 10
1.3689095301390406
 20
-5.880232856989413
 30
0.0
 10
1.9988135618579503
 20
-5.657273578759708
 30
0.0
 10
3.094776414074694
 20
-5.272969697169647
 30
0.0
 10
4.077729261801534
 20
-4.5544827716092895
 30
0.0
 10
4.7751284310156725
 20
-3.6329256102129857
 30
0.0
  0
SPLINE
  5
71
330
17
100
AcDbEntity
  8
VISIBLE
100
AcDbSpline
 70
0
 71
2
 72
6
 73
3
 74
0
 40
0.0
 40
0.0
 40
0.0
 40
1.0
 40
1.0
 40
1.0
 10
4.990585964033787
 20
-3.3307734411395757
 30
0.0
 10
5.108154601662774
 20
-3.1546088285563485
 30
0.0
 10
5.212953502228285
 20
-2.9707096411044103
 30
0.0
  0
SPLINE
  5
72
330
17
100
AcDbEntity
  8
VISIBLE
100
AcDbSpline
 70
0
 71
1
 72
4
 73
2
 74
0
 40
0.0
 40
0.0
 40
1.0
 40
1.0
 10
5.38584298040497
 20
-2.644370513926775
 30
0.0
 10
5.400458935368192
 20
-2.6143915762113674
 30
0.0
  0
SPLINE
  5
73
330
17
100
AcDbEntity
  8
VISIBLE
100
AcDbSpline
 70
0
 71
1
 72
4
 73
2
 74
0
 40
0.0
 40
0.0
 40
1.0
 40
1.0
 10
5.595448931204987
 20
-2.165860397420747
 30
0.0
 10
5.6064155305968315
 20
-2.1373125408920113
 30
0.0
  0
SPLINE
  5
74
330
17
100
AcDbEntity
  8
VISIBLE
100
AcDbSpline
 70
0
 71
1
 72
4
 73
2
 74
0
 40
0.0
 40
0.0
 40
1.0
 40
1.0
 10
5.680527511844209
 20
-1.9317368253312934
 30
0.0
 10
5.703620087144243
 20
-1.8624494278845765
 30
0.0
  0
SPLINE
  5
75
330
17
100
AcDbEntity
  8
VISIBLE
100
AcDbSpline
 70
0
 71
1
 72
4
 73
2
 74
0
 40
0.0
 40
0.0
 40
1.0
 40
1.0
 10
5.843350732935495
 20
-1.3620764349643564
 30
0.0
 10
5.8723285069731865
 20
-1.231161211300824
 30
0.0
  0
SPLINE
  5
76
330
17
100
AcDbEntity
  8
VISIBLE
100
AcDbSpline
 70
0
 71
3
 72
53
 73
49
 74
0
 40
0.0
 40
0.0
 40
0.0
 40
0.0
 40
0.11707065652763171
 40
0.11707065652763171
 40
0.11707065652763171
 40
0.23414131305526342
 40
0.23414131305526342
 40
0.23414131305526342
 40
0.3923036048789864
 40
0.3923036048789864
 40
0.3923036048789864
 40
0.5053888291452608
 40
0.5053888291452608
 40
0.5053888291452608
 40
0.5920142863117996
 40
0.5920142863117996
 40
0.5920142863117996
 40
0.684182250520692
 40
0.684182250520692
 40
0.684182250520692
 40
0.821410157487352
 40
0.821410157487352
 40
0.821410157487352
 40
0.910705078743676
 40
0.910705078743676
 40
0.910705078743676
 40
1.0
 40
1.0
 40
1.0
 40
1.1256298248438332
 40
1.1256298248438332
 40
1.1256298248438332
 40
1.2276629623126116
 40
1.2276629623126116
 40
1.2276629623126116
 40
1.3190000176375902
 40
1.3190000176375902
 40
1.3190000176375902
 40
1.4131186121855885
 40
1.4131186121855885
 40
1.4131186121855885
 40
1.5167946462543254
 40
1.5167946462543254
 40
1.5167946462543254
 40
1.6162416748511352
 40
1.6162416748511352
 40
1.6162416748511352
 40
1.715688703447945
 40
1.715688703447945
 40
1.715688703447945
 40
1.715688703447945
 10
6.0
 20
0.0
 30
0.0
 10
6.000481752287165
 20
-0.8800958590464746
 30
0.0
 10
5.8046295970043404
 20
-1.7538881131879627
 30
0.0
 10
5.4334801533982855
 20
-2.5450527413928814
 30
0.0
 10
5.0631954304147975
 20
-3.336677409502068
 30
0.0
 10
4.517702553485144
 20
-4.04604547787916
 30
0.0
 10
3.841204095109398
 20
-4.6092462615610685
 30
0.0
 10
2.9300725769052596
 20
-5.373882931885739
 30
0.0
 10
1.7731931098706073
 20
-5.853485888343998
 30
0.0
 10
0.6138978783290594
 20
-5.968511489055122
 30
0.0
 10
-0.21508169372302305
 20
-6.054114243311528
 30
0.0
 10
-1.0378388343839586
 20
-5.9626738607828
 30
0.0
 10
-1.7920015843600772
 20
-5.726144455185439
 30
0.0
 10
-2.3725597348381786
 20
-5.5430650787402325
 30
0.0
 10
-2.90889463637094
 20
-5.282013798762298
 30
0.0
 10
-3.4010062889583628
 20
-4.942990615251631
 30
0.0
 10
-3.925173219597152
 20
-4.5831190445334204
 30
0.0
 10
-4.384888141543261
 20
-4.1442269620133905
 30
0.0
 10
-4.780151054796684
 20
-3.6263143676915455
 30
0.0
 10
-5.364217241808023
 20
-2.8601473700183044
 30
0.0
 10
-5.785648279049261
 20
-1.9036913023936028
 30
0.0
 10
-5.93564018916166
 20
-0.876456242381169
 30
0.0
 10
-6.034562538006285
 20
-0.2100749405539762
 30
0.0
 10
-6.017873200515699
 20
0.47036692766107085
 30
0.0
 10
-5.895694329300183
 20
1.1139068055853545
 30
0.0
 10
-5.773995571301444
 20
1.7584477692053342
 30
0.0
 10
-5.549156879506215
 20
2.3672579791519754
 30
0.0
 10
-5.243315098900883
 20
2.916787063472068
 30
0.0
 10
-4.812864382968737
 20
3.6899785900663016
 30
0.0
 10
-4.219920038830417
 20
4.356050841682337
 30
0.0
 10
-3.499600577366774
 20
4.873684006877575
 30
0.0
 10
-2.9150224919914725
 20
5.293758228088531
 30
0.0
 10
-2.244346240624423
 20
5.614402274241474
 30
0.0
 10
-1.5227938809572366
 20
5.80354191818403
 30
0.0
 10
-0.8775294809542974
 20
5.9732541312607745
 30
0.0
 10
-0.19245919999264077
 20
6.0360815615270065
 30
0.0
 10
0.48861851142101265
 20
5.980071232878157
 30
0.0
 10
1.1904159027568466
 20
5.923146518509245
 30
0.0
 10
1.8861459000797463
 20
5.7399984566726205
 30
0.0
 10
2.527351307873329
 20
5.441736429356994
 30
0.0
 10
3.2341913752664757
 20
5.1138533023910995
 30
0.0
 10
3.874429155615395
 20
4.647291953380657
 30
0.0
 10
4.402223011782681
 20
4.076816473000846
 30
0.0
 10
4.90909847523257
 20
3.530017539910296
 30
0.0
 10
5.313289008561994
 20
2.886546295264423
 30
0.0
 10
5.585869850918343
 20
2.190446991302152
 30
0.0
 10
5.8591616782307145
 20
1.4947427078107887
 30
0.0
 10
6.00043554437101
 20
0.7463020768350146
 30
0.0
 10
5.999999999999998
 20
1.9870573143531574e-16
 30
0.0
  0
SPLINE
  5
77
330
17
100
AcDbEntity
  8
VISIBLE
100
AcDbSpline
 70
0
 71
3
 72
17
 73
13
 74
0
 40
0.0
 40
0.0
 40
0.0
 40
0.0
 40
0.22541718900849594
 40
0.22541718900849594
 40
0.22541718900849594
 40
0.48735954774376006
 40
0.48735954774376006
 40
0.48735954774376006
 40
0.7524930022040028
 40
0.7524930022040028
 40
0.7524930022040028
 40
1.0
 40
1.0
 40
1.0
 40
1.0
 10
-11.703117481278166
 20
6.927989702782169
 30
0.0
 10
-9.81004692272379
 20
-4.799853546511239
 30
0.0
 10
-8.270743323768105
 20
-16.58523127202804
 30
0.0
 10
-7.111376016968794
 20
-28.40832557597462
 30
0.0
 10
-5.763139539395246
 20
-42.146928589336014
 30
0.0
 10
-4.927999172810991
 20
-55.93601279755427
 30
0.0
 10
-4.615282823152615
 20
-69.73712406665497
 30
0.0
 10
-4.297207613517053
 20
-83.70645521777651
 30
0.0
 10
-4.516503587671154
 20
-97.68727215258545
 30
0.0
 10
-5.2420220534833835
 20
-111.64113114664704
 30
0.0
 10
-5.913984086284763
 20
-124.66821671006143
 30
0.0
 10
-7.042474669805835
 20
-137.6688522575688
 30
0.0
 10
-8.479395291931441
 20
-150.63296081022673
 30
0.0
  0
SPLINE
  5
78
330
17
100
AcDbEntity
  8
VISIBLE
100
AcDbSpline
 70
0
 71
3
 72
8
 73
4
 74
0
 40
0.0
 40
0.0
 40
0.0
 40
0.0
 40
1.0
 40
1.0
 40
1.0
 40
1.0
 10
-11.703117476438614
 20
6.92798970356315
 30
0.0
 10
-12.119787955566018
 20
6.221662430235105
 30
0.0
 10
-12.339065031627342
 20
5.712776168078541
 30
0.0
 10
-12.338984161420838
 20
5.719219340202571
 30
0.0
  0
SPLINE
  5
79
330
17
100
AcDbEntity
  8
VISIBLE
100
AcDbSpline
 70
0
 71
3
 72
8
 73
4
 74
0
 40
0.0
 40
0.0
 40
0.0
 40
0.0
 40
1.0
 40
1.0
 40
1.0
 40
1.0
 10
-12.338984161420832
 20
5.719219340202569
 30
0.0
 10
-12.339125677402981
 20
5.713710002075142
 30
0.0
 10
-12.14986193933153
 20
6.150917481911021
 30
0.0
 10
-11.789136891629843
 20
6.780579004640677
 30
0.0
  0
SPLINE
  5
7A
330
17
100
AcDbEntity
  8
VISIBLE
100
AcDbSpline
 70
0
 71
1
 72
4
 73
2
 74
0
 40
0.0
 40
0.0
 40
1.0
 40
1.0
 10
-11.704612155617404
 20
6.925464192884329
 30
0.0
 10
-11.70311747643862
 20
6.9279897035631475
 30
0.0
  0
SPLINE
  5
7B
330
17
100
AcDbEntity
  8
VISIBLE
100
AcDbSpline
 70
0
 71
3
 72
11
 73
7
 74
0
 40
0.0
 40
0.0
 40
0.0
 40
0.0
 40
0.4396122085823428
 40
0.4396122085823428
 40
0.4396122085823428
 40
1.0
 40
1.0
 40
1.0
 40
1.0
 10
-8.479395284496073
 20
-150.63296081104724
 30
0.0
 10
-8.802247557219298
 20
-150.37546143931203
 30
0.0
 10
-9.059427844318144
 20
-150.14644640249617
 30
0.0
 10
-9.246248664246057
 20
-149.97330866056635
 30
0.0
 10
-9.484557423818528
 20
-149.75164837333824
 30
0.0
 10
-9.607422876964037
 20
-149.62505308974156
 30
0.0
 10
-9.607189965365079
 20
-149.62610518031263
 30
0.0
  0
SPLINE
  5
7C
330
17
100
AcDbEntity
  8
VISIBLE
100
AcDbSpline
 70
0
 71
3
 72
8
 73
4
 74
0
 40
0.0
 40
0.0
 40
0.0
 40
0.0
 40
1.0
 40
1.0
 40
1.0
 40
1.0
 10
-9.33881255742265
 20
-149.88668700903082
 30
0.0
 10
-9.170888342089437
 20
-150.04519815134756
 30
0.0
 10
-8.926034956341535
 20
-150.26895248879836
 30
0.0
 10
-8.60975028273494
 20
-150.52768731016803
 30
0.0
  0
SPLINE
  5
7D
330
17
100
AcDbEntity
  8
VISIBLE
100
AcDbSpline
 70
0
 71
1
 72
4
 73
2
 74
0
 40
0.0
 40
0.0
 40
0.1528942514172476
 40
0.1528942514172476
 10
6.000000000000001
 20
-140.0
 30
0.0
 10
5.998209717099214
 20
-139.85344545708858
 30
0.0
  0
SPLINE
  5
7E
330
17
100
AcDbEntity
  8
VISIBLE
100
AcDbSpline
 70
0
 71
1
 72
4
 73
2
 74
0
 40
0.0
 40
0.0
 40
1.0
 40
1.0
 10
5.995458182638338
 20
-139.7665941890264
 30
0.0
 10
5.993844968567173
 20
-139.72830252247226
 30
0.0
  0
SPLINE
  5
7F
330
17
100
AcDbEntity
  8
VISIBLE
100
AcDbSpline
 70
0
 71
1
 72
4
 73
2
 74
0
 40
0.0
 40
0.0
 40
1.0
 40
1.0
 10
5.993728977168292
 20
-139.72575562188635
 30
0.0
 10
5.993728757045133
 20
-139.72575081102602
 30
0.0
  0
SPLINE
  5
80
330
17
100
AcDbEntity
  8
VISIBLE
100
AcDbSpline
 70
0
 71
1
 72
4
 73
2
 74
0
 40
0.0
 40
0.0
 40
1.0
 40
1.0
 10
5.99361168210174
 20
-139.7232039738654
 30
0.0
 10
5.993611461300148
 20
-139.72319919275282
 30
0.0
  0
SPLINE
  5
81
330
17
100
AcDbEntity
  8
VISIBLE
100
AcDbSpline
 70
0
 71
1
 72
4
 73
2
 74
0
 40
0.0
 40
0.0
 40
1.0
 40
1.0
 10
5.993493302813233
 20
-139.72065241839874
 30
0.0
 10
5.993493081408959
 20
-139.72064766811565
 30
0.0
  0
SPLINE
  5
82
330
17
100
AcDbEntity
  8
VISIBLE
100
AcDbSpline
 70
0
 71
1
 72
4
 73
2
 74
0
 40
0.0
 40
0.0
 40
1.0
 40
1.0
 10
5.993373839378851
 20
-139.7181009559613
 30
0.0
 10
5.993373617448462
 20
-139.7180962375773
 30
0.0
  0
SPLINE
  5
83
330
17
100
AcDbEntity
  8
VISIBLE
100
AcDbSpline
 70
0
 71
1
 72
4
 73
2
 74
0
 40
0.0
 40
0.0
 40
1.0
 40
1.0
 10
5.9932532918748525
 20
-139.71554958702777
 30
0.0
 10
5.993253069495713
 20
-139.71554490160045
 30
0.0
  0
SPLINE
  5
84
330
17
100
AcDbEntity
  8
VISIBLE
100
AcDbSpline
 70
0
 71
1
 72
4
 73
2
 74
0
 40
0.0
 40
0.0
 40
1.0
 40
1.0
 10
5.9931316603776725
 20
-139.71299831207267
 30
0.0
 10
5.993131437627921
 20
-139.71299366064756
 30
0.0
  0
SPLINE
  5
85
330
17
100
AcDbEntity
  8
VISIBLE
100
AcDbSpline
 70
0
 71
1
 72
4
 73
2
 74
0
 40
0.0
 40
0.0
 40
1.0
 40
1.0
 10
5.993008944963915
 20
-139.71044713157022
 30
0.0
 10
5.99300872192245
 20
-139.71044251518077
 30
0.0
  0
SPLINE
  5
86
330
17
100
AcDbEntity
  8
VISIBLE
100
AcDbSpline
 70
0
 71
1
 72
4
 73
2
 74
0
 40
0.0
 40
0.0
 40
1.0
 40
1.0
 10
5.992885145710361
 20
-139.70789604599426
 30
0.0
 10
5.992884922456828
 20
-139.70789146566207
 30
0.0
  0
SPLINE
  5
87
330
17
100
AcDbEntity
  8
VISIBLE
100
AcDbSpline
 70
0
 71
1
 72
4
 73
2
 74
0
 40
0.0
 40
0.0
 40
1.0
 40
1.0
 10
5.9927602626939676
 20
-139.70534505581847
 30
0.0
 10
5.9927600393087355
 20
-139.70534051255342
 30
0.0
  0
SPLINE
  5
88
330
17
100
AcDbEntity
  8
VISIBLE
100
AcDbSpline
 70
0
 71
1
 72
4
 73
2
 74
0
 40
0.0
 40
0.0
 40
1.0
 40
1.0
 10
5.992634295991863
 20
-139.7027941615163
 30
0.0
 10
5.9926340725560046
 20
-139.70278965631633
 30
0.0
  0
SPLINE
  5
89
330
17
100
AcDbEntity
  8
VISIBLE
100
AcDbSpline
 70
0
 71
1
 72
4
 73
2
 74
0
 40
0.0
 40
0.0
 40
1.0
 40
1.0
 10
5.9925072456813515
 20
-139.70024336356096
 30
0.0
 10
5.992507022276636
 20
-139.7002388974123
 30
0.0
  0
SPLINE
  5
8A
330
17
100
AcDbEntity
  8
VISIBLE
100
AcDbSpline
 70
0
 71
1
 72
4
 73
2
 74
0
 40
0.0
 40
0.0
 40
1.0
 40
1.0
 10
5.992379111839912
 20
-139.6976926624253
 30
0.0
 10
5.992378888548779
 20
-139.6976882363025
 30
0.0
  0
SPLINE
  5
8B
330
17
100
AcDbEntity
  8
VISIBLE
100
AcDbSpline
 70
0
 71
1
 72
4
 73
2
 74
0
 40
0.0
 40
0.0
 40
1.0
 40
1.0
 10
5.992249894545198
 20
-139.6951420585819
 30
0.0
 10
5.992249671450745
 20
-139.69513767344796
 30
0.0
  0
SPLINE
  5
8C
330
17
100
AcDbEntity
  8
VISIBLE
100
AcDbSpline
 70
0
 71
1
 72
4
 73
2
 74
0
 40
0.0
 40
0.0
 40
1.0
 40
1.0
 10
5.992119593875035
 20
-139.6925915525032
 30
0.0
 10
5.992119371060998
 20
-139.69258720930947
 30
0.0
  0
SPLINE
  5
8D
330
17
100
AcDbEntity
  8
VISIBLE
100
AcDbSpline
 70
0
 71
1
 72
4
 73
2
 74
0
 40
0.0
 40
0.0
 40
1.0
 40
1.0
 10
5.991988209907421
 20
-139.69004114466134
 30
0.0
 10
5.991987987458166
 20
-139.69003684434762
 30
0.0
  0
SPLINE
  5
8E
330
17
100
AcDbEntity
  8
VISIBLE
100
AcDbSpline
 70
0
 71
1
 72
4
 73
2
 74
0
 40
0.0
 40
0.0
 40
1.0
 40
1.0
 10
5.991855742720539
 20
-139.6874908355281
 30
0.0
 10
5.99185552072103
 20
-139.687486579023
 30
0.0
  0
SPLINE
  5
8F
330
17
100
AcDbEntity
  8
VISIBLE
100
AcDbSpline
 70
0
 71
1
 72
4
 73
2
 74
0
 40
0.0
 40
0.0
 40
1.0
 40
1.0
 10
5.991722192392732
 20
-139.68494062557517
 30
0.0
 10
5.9917219709285305
 20
-139.68493641379558
 30
0.0
  0
SPLINE
  5
90
330
17
100
AcDbEntity
  8
VISIBLE
100
AcDbSpline
 70
0
 71
1
 72
4
 73
2
 74
0
 40
0.0
 40
0.0
 40
1.0
 40
1.0
 10
5.99158755900253
 20
-139.6823905152739
 30
0.0
 10
5.991587338159769
 20
-139.6823863491256
 30
0.0
  0
SPLINE
  5
91
330
17
100
AcDbEntity
  8
VISIBLE
100
AcDbSpline
 70
0
 71
1
 72
4
 73
2
 74
0
 40
0.0
 40
0.0
 40
1.0
 40
1.0
 10
5.991451842628628
 20
-139.67984050509534
 30
0.0
 10
5.991451622494001
 20
-139.6798363854728
 30
0.0
  0
SPLINE
  5
92
330
17
100
AcDbEntity
  8
VISIBLE
100
AcDbSpline
 70
0
 71
1
 72
4
 73
2
 74
0
 40
0.0
 40
0.0
 40
1.0
 40
1.0
 10
5.9913150433499
 20
-139.67729059551033
 30
0.0
 10
5.99131482401064
 20
-139.6772865232968
 30
0.0
  0
SPLINE
  5
93
330
17
100
AcDbEntity
  8
VISIBLE
100
AcDbSpline
 70
0
 71
1
 72
4
 73
2
 74
0
 40
0.0
 40
0.0
 40
1.0
 40
1.0
 10
5.991177161245393
 20
-139.6747407869894
 30
0.0
 10
5.991176942789265
 20
-139.67473676305707
 30
0.0
  0
SPLINE
  5
94
330
17
100
AcDbEntity
  8
VISIBLE
100
AcDbSpline
 70
0
 71
1
 72
4
 73
2
 74
0
 40
0.0
 40
0.0
 40
1.0
 40
1.0
 10
5.991038196394328
 20
-139.67219108000293
 30
0.0
 10
5.991037978909606
 20
-139.6721871052127
 30
0.0
  0
SPLINE
  5
95
330
17
100
AcDbEntity
  8
VISIBLE
100
AcDbSpline
 70
0
 71
1
 72
4
 73
2
 74
0
 40
0.0
 40
0.0
 40
1.0
 40
1.0
 10
5.990898148876102
 20
-139.6696414750209
 30
0.0
 10
5.990897932451553
 20
-139.66963755022283
 30
0.0
  0
SPLINE
  5
96
330
17
100
AcDbEntity
  8
VISIBLE
100
AcDbSpline
 70
0
 71
1
 72
4
 73
2
 74
0
 40
0.0
 40
0.0
 40
1.0
 40
1.0
 10
5.990757018770289
 20
-139.66709197251322
 30
0.0
 10
5.990756803495156
 20
-139.6670880985463
 30
0.0
  0
SPLINE
  5
97
330
17
100
AcDbEntity
  8
VISIBLE
100
AcDbSpline
 70
0
 71
1
 72
4
 73
2
 74
0
 40
0.0
 40
0.0
 40
1.0
 40
1.0
 10
5.990614806156625
 20
-139.6645425729493
 30
0.0
 10
5.990614592120629
 20
-139.6645387506416
 30
0.0
  0
SPLINE
  5
98
330
17
100
AcDbEntity
  8
VISIBLE
100
AcDbSpline
 70
0
 71
1
 72
4
 73
2
 74
0
 40
0.0
 40
0.0
 40
1.0
 40
1.0
 10
5.990471511115034
 20
-139.6619932767985
 30
0.0
 10
5.9904712984083375
 20
-139.6619895069673
 30
0.0
  0
SPLINE
  5
99
330
17
100
AcDbEntity
  8
VISIBLE
100
AcDbSpline
 70
0
 71
1
 72
4
 73
2
 74
0
 40
0.0
 40
0.0
 40
1.0
 40
1.0
 10
5.990327133725611
 20
-139.65944408452975
 30
0.0
 10
5.990326922438811
 20
-139.65944036798163
 30
0.0
  0
SPLINE
  5
9A
330
17
100
AcDbEntity
  8
VISIBLE
100
AcDbSpline
 70
0
 71
1
 72
4
 73
2
 74
0
 40
0.0
 40
0.0
 40
1.0
 40
1.0
 10
5.9901816740686185
 20
-139.65689499661192
 30
0.0
 10
5.9901814642927365
 20
-139.65689133414259
 30
0.0
  0
SPLINE
  5
9B
330
17
100
AcDbEntity
  8
VISIBLE
100
AcDbSpline
 70
0
 71
1
 72
4
 73
2
 74
0
 40
0.0
 40
0.0
 40
1.0
 40
1.0
 10
5.990035132224504
 20
-139.65434601351345
 30
0.0
 10
5.99003492405096
 20
-139.6543424059079
 30
0.0
  0
SPLINE
  5
9C
330
17
100
AcDbEntity
  8
VISIBLE
100
AcDbSpline
 70
0
 71
1
 72
4
 73
2
 74
0
 40
0.0
 40
0.0
 40
1.0
 40
1.0
 10
5.98988750827388
 20
-139.65179713570257
 30
0.0
 10
5.98988730179449
 20
-139.65179358373535
 30
0.0
  0
SPLINE
  5
9D
330
17
100
AcDbEntity
  8
VISIBLE
100
AcDbSpline
 70
0
 71
1
 72
4
 73
2
 74
0
 40
0.0
 40
0.0
 40
1.0
 40
1.0
 10
5.989738802297539
 20
-139.64924836364725
 30
0.0
 10
5.989738597604494
 20
-139.64924486808235
 30
0.0
  0
SPLINE
  5
9E
330
17
100
AcDbEntity
  8
VISIBLE
100
AcDbSpline
 70
0
 71
1
 72
4
 73
2
 74
0
 40
0.0
 40
0.0
 40
1.0
 40
1.0
 10
5.989589014376445
 20
-139.64669969781528
 30
0.0
 10
5.9895888115622995
 20
-139.6466962594061
 30
0.0
  0
SPLINE
  5
9F
330
17
100
AcDbEntity
  8
VISIBLE
100
AcDbSpline
 70
0
 71
1
 72
4
 73
2
 74
0
 40
0.0
 40
0.0
 40
1.0
 40
1.0
 10
5.989438144591736
 20
-139.6441511386741
 30
0.0
 10
5.9894379437493885
 20
-139.64414775816368
 30
0.0
  0
SPLINE
  5
A0
330
17
100
AcDbEntity
  8
VISIBLE
100
AcDbSpline
 70
0
 71
1
 72
4
 73
2
 74
0
 40
0.0
 40
0.0
 40
1.0
 40
1.0
 10
5.989286193024727
 20
-139.64160268669087
 30
0.0
 10
5.989285994247414
 20
-139.6415993648119
 30
0.0
  0
SPLINE
  5
A1
330
17
100
AcDbEntity
  8
VISIBLE
100
AcDbSpline
 70
0
 71
3
 72
47
 73
43
 74
0
 40
0.0
 40
0.0
 40
0.0
 40
0.0
 40
0.13640345491569278
 40
0.13640345491569278
 40
0.13640345491569278
 40
0.27280690983138556
 40
0.27280690983138556
 40
0.27280690983138556
 40
0.39480905133960187
 40
0.39480905133960187
 40
0.39480905133960187
 40
0.6031056501055105
 40
0.6031056501055105
 40
0.6031056501055105
 40
0.7061577752630527
 40
0.7061577752630527
 40
0.7061577752630527
 40
0.877700277598585
 40
0.877700277598585
 40
0.877700277598585
 40
1.0
 40
1.0
 40
1.0
 40
1.1250081954003688
 40
1.1250081954003688
 40
1.1250081954003688
 40
1.2620300486561284
 40
1.2620300486561284
 40
1.2620300486561284
 40
1.452618224818609
 40
1.452618224818609
 40
1.452618224818609
 40
1.657818811623577
 40
1.657818811623577
 40
1.657818811623577
 40
1.8405651174123574
 40
1.8405651174123574
 40
1.8405651174123574
 40
1.9718328446637206
 40
1.9718328446637206
 40
1.9718328446637206
 40
2.273371974815232
 40
2.273371974815232
 40
2.273371974815232
 40
2.273371974815232
 10
5.999999999999999
 20
-140.0
 30
0.0
 10
6.0006341042588955
 20
-140.78717570348195
 30
0.0
 10
5.842753394037144
 20
-141.58066612469025
 30
0.0
 10
5.536656871228177
 20
-142.3120187527005
 30
0.0
 10
5.231557166682777
 20
-143.04394884034738
 30
0.0
 10
4.778937386285859
 20
-143.7139099554616
 30
0.0
 10
4.215918711828167
 20
-144.26919540607557
 30
0.0
 10
3.7129647356545092
 20
-144.76624990799115
 30
0.0
 10
3.1208539071961994
 20
-145.17355341486268
 30
0.0
 10
2.4751363317219264
 20
-145.4656838674945
 30
0.0
 10
1.3739879363908063
 20
-145.96889459432185
 30
0.0
 10
0.11413868435805284
 20
-146.11666569862848
 30
0.0
 10
-1.0396218537248298
 20
-145.90924584031308
 30
0.0
 10
-1.6108249499278866
 20
-145.80887989374162
 30
0.0
 10
-2.1555904442864584
 20
-145.62708021207055
 30
0.0
 10
-2.6538777001989766
 20
-145.38116466505036
 30
0.0
 10
-3.484523453634726
 20
-144.9709529379153
 30
0.0
 10
-4.184620141680405
 20
-144.3891187545435
 30
0.0
 10
-4.728015240239763
 20
-143.69403192840292
 30
0.0
 10
-5.117715579546432
 20
-143.19720780681618
 30
0.0
 10
-5.424113451063926
 20
-142.64155542291707
 30
0.0
 10
-5.647208854792246
 20
-142.0270747767056
 30
0.0
 10
-5.872483130444723
 20
-141.40085114106753
 30
0.0
 10
-6.002843416856665
 20
-140.7038717020342
 30
0.0
 10
-5.999960659501379
 20
-139.97827249586743
 30
0.0
 10
-5.999375781955429
 20
-139.18213497386535
 30
0.0
 10
-5.827174033528357
 20
-138.3811941593407
 30
0.0
 10
-5.5415388421701515
 20
-137.69970713588043
 30
0.0
 10
-5.143656444840161
 20
-136.74872207936866
 30
0.0
 10
-4.556519512714232
 20
-135.99052917454605
 30
0.0
 10
-3.843615350933883
 20
-135.3927642740939
 30
0.0
 10
-3.0741419884765695
 20
-134.7522575158452
 30
0.0
 10
-2.1383861074840027
 20
-134.2915253503421
 30
0.0
 10
-1.0694914108646796
 20
-134.096087049923
 30
0.0
 10
-0.12250483268528506
 20
-133.92183481825677
 30
0.0
 10
0.9368852426291726
 20
-133.9779399493865
 30
0.0
 10
1.9371711402660703
 20
-134.3213233959557
 30
0.0
 10
2.6546767322558664
 20
-134.565230549006
 30
0.0
 10
3.3315738617167727
 20
-134.9518469885436
 30
0.0
 10
3.9057218687942856
 20
-135.44529510466134
 30
0.0
 10
5.231025981405898
 20
-136.5769964120487
 30
0.0
 10
6.003537602764521
 20
-138.2592968611783
 30
0.0
 10
5.999999999999999
 20
-140.0
 30
0.0
  0
SPLINE
  5
A2
330
17
100
AcDbEntity
  8
VISIBLE
100
AcDbSpline
 70
0
 71
2
 72
6
 73
3
 74
0
 40
0.0
 40
0.0
 40
0.0
 40
1.0
 40
1.0
 40
1.0
 10
-14.513919998076696
 20
18.0
 30
0.0
 10
-13.356665973562908
 20
11.871967911470726
 30
0.0
 10
-12.338984161344392
 20
5.719219340202583
 30
0.0
  0
SPLINE
  5
A3
330
17
100
AcDbEntity
  8
VISIBLE
100
AcDbSpline
 70
0
 71
2
 72
6
 73
3
 74
0
 40
0.0
 40
0.0
 40
0.0
 40
1.0
 40
1.0
 40
1.0
 10
-10.760319998574108
 20
-158.0
 30
0.0
 10
-10.151214081197278
 20
-153.817533340563
 30
0.0
 10
-9.607189965759078
 20
-149.62610518031238
 30
0.0
  0
SPLINE
  5
A4
330
17
100
AcDbEntity
  8
HIDDEN
100
AcDbSpline
 70
0
 71
3
 72
29
 73
25
 74
0
 40
0.0
 40
0.0
 40
0.0
 40
0.0
 40
0.06249999999999999
 40
0.06249999999999999
 40
0.06249999999999999
 40
0.12499999999999999
 40
0.12499999999999999
 40
0.12499999999999999
 40
0.18749999999999997
 40
0.18749999999999997
 40
0.18749999999999997
 40
0.24999999999999997
 40
0.24999999999999997
 40
0.24999999999999997
 40
0.31249999999999994
 40
0.31249999999999994
 40
0.31249999999999994
 40
0.37499999999999994
 40
0.37499999999999994
 40
0.37499999999999994
 40
0.43749999999999994
 40
0.43749999999999994
 40
0.43749999999999994
 40
0.49999999999999994
 40
0.49999999999999994
 40
0.49999999999999994
 40
0.49999999999999994
 10
14.513919999999993
 20
18.0
 30
0.0
 10
14.514930916114047
 20
17.99999999999999
 30
0.0
 10
14.137160207679576
 20
18.000000000000004
 30
0.0
 10
13.409113622940632
 20
17.999999999999996
 30
0.0
 10
12.682934957930815
 20
18.00000000000002
 30
0.0
 10
11.607135011336764
 20
17.999999999999986
 30
0.0
 10
10.262891255114958
 20
18.0
 30
0.0
 10
8.920077141871877
 20
17.99999999999999
 30
0.0
 10
7.310028733407533
 20
18.000000000000007
 30
0.0
 10
5.554236722161434
 20
18.0
 30
0.0
 10
3.799218427937727
 20
18.0
 30
0.0
 10
1.9000368410095043
 20
17.999999999999996
 30
0.0
 10
-1.0150942473740675e-09
 20
18.0
 30
0.0
 10
-1.9000368431252928
 20
18.000000000000014
 30
0.0
 10
-3.7992184281160255
 20
17.999999999999993
 30
0.0
 10
-5.554236720691435
 20
18.0
 30
0.0
 10
-7.310028730201336
 20
17.999999999999996
 30
0.0
 10
-8.920077138519162
 20
18.000000000000004
 30
0.0
 10
-10.262891254803845
 20
18.0
 30
0.0
 10
-11.60713501392864
 20
17.999999999999996
 30
0.0
 10
-12.68293496480543
 20
18.000000000000004
 30
0.0
 10
-13.409113625325492
 20
18.0
 30
0.0
 10
-14.13716020417077
 20
17.999999999999996
 30
0.0
 10
-14.514930908105223
 20
18.000000000000004
 30
0.0
 10
-14.513919998076684
 20
18.0
 30
0.0
  0
SPLINE
  5
A5
330
17
100
AcDbEntity
  8
HIDDEN
100
AcDbSpline
 70
0
 71
3
 72
23
 73
19
 74
0
 40
0.0
 40
0.0
 40
0.0
 40
0.0
 40
0.0625
 40
0.0625
 40
0.0625
 40
0.125
 40
0.125
 40
0.125
 40
0.25
 40
0.25
 40
0.25
 40
0.375
 40
0.375
 40
0.375
 40
0.4375
 40
0.4375
 40
0.4375
 40
0.5
 40
0.5
 40
0.5
 40
0.5
 10
10.76032
 20
-158.0
 30
0.0
 10
10.76106947229089
 20
-157.99999999999994
 30
0.0
 10
10.48099808500378
 20
-158.00000000000003
 30
0.0
 10
9.941239410111123
 20
-158.0
 30
0.0
 10
9.402865572259099
 20
-157.99999999999997
 30
0.0
 10
8.605289749784182
 20
-158.00000000000006
 30
0.0
 10
7.608695240861103
 20
-158.0
 30
0.0
 10
5.622038300173841
 20
-157.99999999999997
 30
0.0
 10
2.8209760123480514
 20
-158.00000000000006
 30
0.0
 10
-7.525731149371495e-10
 20
-158.0
 30
0.0
 10
-2.8209760141764706
 20
-157.99999999999997
 30
0.0
 10
-5.622038295027037
 20
-158.00000000000006
 30
0.0
 10
-7.608695240630448
 20
-158.0
 30
0.0
 10
-8.605289751705737
 20
-157.99999999999997
 30
0.0
 10
-9.402865577355763
 20
-158.00000000000003
 30
0.0
 10
-9.941239411879254
 20
-158.0
 30
0.0
 10
-10.480998082402483
 20
-157.99999999999997
 30
0.0
 10
-10.7610694663539
 20
-158.00000000000003
 30
0.0
 10
-10.760319998574106
 20
-158.0
 30
0.0
  0
SPLINE
  5
A6
330
17
100
AcDbEntity
  8
HIDDEN
100
AcDbSpline
 70
0
 71
1
 72
4
 73
2
 74
0
 40
0.0
 40
0.0
 40
1.0
 40
1.0
 10
12.384424117434937
 20
-145.62014584237886
 30
0.0
 10
12.385766562262544
 20
-145.6171867227527
 30
0.0
  0
SPLINE
  5
A7
330
17
100
AcDbEntity
  8
HIDDEN
100
AcDbSpline
 70
0
 71
2
 72
6
 73
3
 74
0
 40
0.0
 40
0.0
 40
0.0
 40
1.0
 40
1.0
 40
1.0
 10
12.4185269904825
 20
-145.54438341921255
 30
0.0
 10
12.487256290331175
 20
-145.39041654753368
 30
0.0
 10
12.551554998844011
 20
-145.23626460503644
 30
0.0
  0
SPLINE
  5
A8
330
17
100
AcDbEntity
  8
HIDDEN
100
AcDbSpline
 70
0
 71
1
 72
4
 73
2
 74
0
 40
0.0
 40
0.0
 40
1.0
 40
1.0
 10
12.553441650633534
 20
-145.23173992364116
 30
0.0
 10
12.590503844709705
 20
-145.14190751761282
 30
0.0
  0
SPLINE
  5
A9
330
17
100
AcDbEntity
  8
HIDDEN
100
AcDbSpline
 70
0
 71
1
 72
4
 73
2
 74
0
 40
0.0
 40
0.0
 40
1.0
 40
1.0
 10
12.656023100199764
 20
-144.978461547262
 30
0.0
 10
12.761872736794952
 20
-144.70048978036482
 30
0.0
  0
SPLINE
  5
AA
330
17
100
AcDbEntity
  8
HIDDEN
100
AcDbSpline
 70
0
 71
1
 72
4
 73
2
 74
0
 40
0.0
 40
0.0
 40
1.0
 40
1.0
 10
12.825950416668803
 20
-144.5227199752076
 30
0.0
 10
12.88695696107176
 20
-144.3458417186479
 30
0.0
  0
SPLINE
  5
AB
330
17
100
AcDbEntity
  8
HIDDEN
100
AcDbSpline
 70
0
 71
1
 72
4
 73
2
 74
0
 40
0.0
 40
0.0
 40
1.0
 40
1.0
 10
12.889221568668772
 20
-144.33912056958337
 30
0.0
 10
12.917648620845606
 20
-144.25374589423961
 30
0.0
  0
SPLINE
  5
AC
330
17
100
AcDbEntity
  8
HIDDEN
100
AcDbSpline
 70
0
 71
2
 72
6
 73
3
 74
0
 40
0.0
 40
0.0
 40
0.0
 40
1.0
 40
1.0
 40
1.0
 10
12.923383912585363
 20
-144.23628944729433
 30
0.0
 10
12.970585030145996
 20
-144.09222292146205
 30
0.0
 10
13.013423897931151
 20
-143.95105029507636
 30
0.0
  0
SPLINE
  5
AD
330
17
100
AcDbEntity
  8
HIDDEN
100
AcDbSpline
 70
0
 71
1
 72
4
 73
2
 74
0
 40
0.0
 40
0.0
 40
1.0
 40
1.0
 10
13.025054382322315
 20
-143.91253860608265
 30
0.0
 10
13.049596947675747
 20
-143.8298850557219
 30
0.0
  0
SPLINE
  5
AE
330
17
100
AcDbEntity
  8
HIDDEN
100
AcDbSpline
 70
0
 71
1
 72
4
 73
2
 74
0
 40
0.0
 40
0.0
 40
1.0
 40
1.0
 10
13.05226386546826
 20
-143.8207863092859
 30
0.0
 10
13.09024838819865
 20
-143.68854945601225
 30
0.0
  0
SPLINE
  5
AF
330
17
100
AcDbEntity
  8
HIDDEN
100
AcDbSpline
 70
0
 71
3
 72
11
 73
7
 74
0
 40
0.0
 40
0.0
 40
0.0
 40
0.0
 40
0.5551559509129398
 40
0.5551559509129398
 40
0.5551559509129398
 40
1.0
 40
1.0
 40
1.0
 40
1.0
 10
13.093332909495915
 20
-143.67758525086973
 30
0.0
 10
13.143113814383284
 20
-143.50060918134108
 30
0.0
 10
13.185059987791279
 20
-143.33620718602447
 30
0.0
 10
13.213571034388037
 20
-143.21893468700145
 30
0.0
 10
13.236465442895895
 20
-143.1248872890362
 30
0.0
 10
13.252562119409166
 20
-143.05438776149654
 30
0.0
 10
13.252494591597825
 20
-143.05473191944404
 30
0.0
  0
SPLINE
  5
B0
330
17
100
AcDbEntity
  8
HIDDEN
100
AcDbSpline
 70
0
 71
2
 72
6
 73
3
 74
0
 40
0.0
 40
0.0
 40
0.0
 40
0.6893744251219276
 40
0.6893744251219276
 40
0.6893744251219276
 10
13.6
 20
-133.82726893188385
 30
0.0
 10
12.585738438467082
 20
-140.66855042122734
 30
0.0
 10
11.361307982150047
 20
-147.47533817617935
 30
0.0
  0
SPLINE
  5
B1
330
17
100
AcDbEntity
  8
HIDDEN
100
AcDbSpline
 70
0
 71
3
 72
20
 73
16
 74
0
 40
0.0
 40
0.0
 40
0.0
 40
0.0
 40
0.1529773396416804
 40
0.1529773396416804
 40
0.1529773396416804
 40
0.3059546792833608
 40
0.3059546792833608
 40
0.3059546792833608
 40
0.5931650340727742
 40
0.5931650340727742
 40
0.5931650340727742
 40
0.786329164975389
 40
0.786329164975389
 40
0.786329164975389
 40
1.0
 40
1.0
 40
1.0
 40
1.0
 10
13.6
 20
-133.82726893188388
 30
0.0
 10
13.599999999999996
 20
-134.12950193820245
 30
0.0
 10
13.600000000000001
 20
-134.5022502533572
 30
0.0
 10
13.6
 20
-134.8541836847738
 30
0.0
 10
13.600000000000001
 20
-135.21089639715487
 30
0.0
 10
13.600000000000001
 20
-135.5471556880507
 30
0.0
 10
13.6
 20
-135.90559788391406
 30
0.0
 10
13.599999999999993
 20
-136.58421319506908
 30
0.0
 10
13.600000000000007
 20
-137.25338419034512
 30
0.0
 10
13.599999999999996
 20
-137.91311086974133
 30
0.0
 10
13.6
 20
-138.35527316179844
 30
0.0
 10
13.599999999999996
 20
-138.7442879891338
 30
0.0
 10
13.600000000000003
 20
-139.0801553517474
 30
0.0
 10
13.599999999999994
 20
-139.44827048114428
 30
0.0
 10
13.600000000000003
 20
-139.7603199171628
 30
0.0
 10
13.6
 20
-140.0
 30
0.0
  0
SPLINE
  5
B2
330
17
100
AcDbEntity
  8
HIDDEN
100
AcDbSpline
 70
0
 71
2
 72
6
 73
3
 74
0
 40
0.0
 40
0.0
 40
0.0
 40
0.4443311606380061
 40
0.4443311606380061
 40
0.4443311606380061
 10
13.599999999999998
 20
-140.0
 30
0.0
 10
13.59967803510759
 20
-140.29831299904643
 30
0.0
 10
13.588184145926258
 20
-140.56679059967422
 30
0.0
  0
SPLINE
  5
B3
330
17
100
AcDbEntity
  8
HIDDEN
100
AcDbSpline
 70
0
 71
3
 72
8
 73
4
 74
0
 40
0.0
 40
0.0
 40
0.0
 40
0.0
 40
1.0
 40
1.0
 40
1.0
 40
1.0
 10
13.580673598216736
 20
-140.72477778334786
 30
0.0
 10
13.572818988798677
 20
-140.87379597473867
 30
0.0
 10
13.562680028879752
 20
-141.0066242800733
 30
0.0
 10
13.56270175899637
 20
-141.0065391182249
 30
0.0
  0
SPLINE
  5
B4
330
17
100
AcDbEntity
  8
HIDDEN
100
AcDbSpline
 70
0
 71
2
 72
6
 73
3
 74
0
 40
0.0
 40
0.0
 40
0.0
 40
0.6683726919911327
 40
0.6683726919911327
 40
0.6683726919911327
 10
5.999999999999999
 20
-7.049916206369744e-15
 30
0.0
 10
6.000001370316339
 20
0.21316489418264312
 30
0.0
 10
5.984856969733895
 20
0.4260128910937381
 30
0.0
  0
SPLINE
  5
B5
330
17
100
AcDbEntity
  8
HIDDEN
100
AcDbSpline
 70
0
 71
1
 72
4
 73
2
 74
0
 40
0.0
 40
0.0
 40
1.0
 40
1.0
 10
5.984534241470403
 20
0.43052277125713057
 30
0.0
 10
5.984403962693836
 20
0.4323299204078195
 30
0.0
  0
SPLINE
  5
B6
330
17
100
AcDbEntity
  8
HIDDEN
100
AcDbSpline
 70
0
 71
1
 72
4
 73
2
 74
0
 40
0.0
 40
0.0
 40
1.0
 40
1.0
 10
5.984077007625665
 20
0.43683215014204024
 30
0.0
 10
5.984052048407573
 20
0.4371739280985565
 30
0.0
  0
SPLINE
  5
B7
330
17
100
AcDbEntity
  8
HIDDEN
100
AcDbSpline
 70
0
 71
1
 72
4
 73
2
 74
0
 40
0.0
 40
0.0
 40
1.0
 40
1.0
 10
5.984051536043127
 20
0.4371809413248122
 30
0.0
 10
5.983874619438396
 20
0.4395958442772008
 30
0.0
  0
SPLINE
  5
B8
330
17
100
AcDbEntity
  8
HIDDEN
100
AcDbSpline
 70
0
 71
1
 72
4
 73
2
 74
0
 40
0.0
 40
0.0
 40
1.0
 40
1.0
 10
5.983872462642981
 20
0.43962520214254797
 30
0.0
 10
5.98346373311695
 20
0.44515360773435564
 30
0.0
  0
SPLINE
  5
B9
330
17
100
AcDbEntity
  8
HIDDEN
100
AcDbSpline
 70
0
 71
1
 72
4
 73
2
 74
0
 40
0.0
 40
0.0
 40
1.0
 40
1.0
 10
5.983463305598689
 20
0.4451593541313846
 30
0.0
 10
5.983049025550684
 20
0.45069318611496706
 30
0.0
  0
SPLINE
  5
BA
330
17
100
AcDbEntity
  8
HIDDEN
100
AcDbSpline
 70
0
 71
1
 72
4
 73
2
 74
0
 40
0.0
 40
0.0
 40
1.0
 40
1.0
 10
5.983047679495471
 20
0.45071105496240893
 30
0.0
 10
5.982867627882079
 20
0.453094847528958
 30
0.0
  0
SPLINE
  5
BB
330
17
100
AcDbEntity
  8
HIDDEN
100
AcDbSpline
 70
0
 71
1
 72
4
 73
2
 74
0
 40
0.0
 40
0.0
 40
1.0
 40
1.0
 10
5.982867117248926
 20
0.45310159011743784
 30
0.0
 10
5.982686625599234
 20
0.45547857937499353
 30
0.0
  0
SPLINE
  5
BC
330
17
100
AcDbEntity
  8
HIDDEN
100
AcDbSpline
 70
0
 71
1
 72
4
 73
2
 74
0
 40
0.0
 40
0.0
 40
1.0
 40
1.0
 10
5.982685598863858
 20
0.45549206530312764
 30
0.0
 10
5.982504672657896
 20
0.4578622500993817
 30
0.0
  0
SPLINE
  5
BD
330
17
100
AcDbEntity
  8
HIDDEN
100
AcDbSpline
 70
0
 71
1
 72
4
 73
2
 74
0
 40
0.0
 40
0.0
 40
1.0
 40
1.0
 10
5.982503124349387
 20
0.4578824801228597
 30
0.0
 10
5.982344119958469
 20
0.45995524779437613
 30
0.0
  0
SPLINE
  5
BE
330
17
100
AcDbEntity
  8
HIDDEN
100
AcDbSpline
 70
0
 71
2
 72
6
 73
3
 74
0
 40
0.0
 40
0.0
 40
0.0
 40
1.0
 40
1.0
 40
1.0
 10
5.982343713825432
 20
0.45996053007908383
 30
0.0
 10
5.9592097836726845
 20
0.7608066311123005
 30
0.0
 10
5.905965362221842
 20
1.058098673420207
 30
0.0
  0
SPLINE
  5
BF
330
17
100
AcDbEntity
  8
HIDDEN
100
AcDbSpline
 70
0
 71
1
 72
4
 73
2
 74
0
 40
0.0
 40
0.0
 40
1.0
 40
1.0
 10
5.905965068147095
 20
1.0581003148492858
 30
0.0
 10
5.905316595266887
 20
1.061713507697406
 30
0.0
  0
SPLINE
  5
C0
330
17
100
AcDbEntity
  8
HIDDEN
100
AcDbSpline
 70
0
 71
1
 72
4
 73
2
 74
0
 40
0.0
 40
0.0
 40
1.0
 40
1.0
 10
5.9053162849243215
 20
1.0617152338407
 30
0.0
 10
5.904665614479516
 20
1.0653279515399943
 30
0.0
  0
SPLINE
  5
C1
330
17
100
AcDbEntity
  8
HIDDEN
100
AcDbSpline
 70
0
 71
1
 72
4
 73
2
 74
0
 40
0.0
 40
0.0
 40
1.0
 40
1.0
 10
5.904665287614774
 20
1.0653297632125553
 30
0.0
 10
5.904012420107071
 20
1.0689420034975374
 30
0.0
  0
SPLINE
  5
C2
330
17
100
AcDbEntity
  8
HIDDEN
100
AcDbSpline
 70
0
 71
1
 72
4
 73
2
 74
0
 40
0.0
 40
0.0
 40
1.0
 40
1.0
 10
5.904012076473194
 20
1.0689439014648172
 30
0.0
 10
5.90335701239788
 20
1.0725556621201056
 30
0.0
  0
SPLINE
  5
C3
330
17
100
AcDbEntity
  8
HIDDEN
100
AcDbSpline
 70
0
 71
1
 72
4
 73
2
 74
0
 40
0.0
 40
0.0
 40
1.0
 40
1.0
 10
5.903356651755387
 20
1.0725576470982252
 30
0.0
 10
5.902699391601293
 20
1.0761689259582476
 30
0.0
  0
SPLINE
  5
C4
330
17
100
AcDbEntity
  8
HIDDEN
100
AcDbSpline
 70
0
 71
1
 72
4
 73
2
 74
0
 40
0.0
 40
0.0
 40
1.0
 40
1.0
 10
5.902699013718241
 20
1.0761709986142955
 30
0.0
 10
5.9020395579676315
 20
1.0797817935630718
 30
0.0
  0
SPLINE
  5
C5
330
17
100
AcDbEntity
  8
HIDDEN
100
AcDbSpline
 70
0
 71
1
 72
4
 73
2
 74
0
 40
0.0
 40
0.0
 40
1.0
 40
1.0
 10
5.902039162619706
 20
1.07978395451532
 30
0.0
 10
5.901377511748224
 20
1.0833942634861904
 30
0.0
  0
SPLINE
  5
C6
330
17
100
AcDbEntity
  8
HIDDEN
100
AcDbSpline
 70
0
 71
1
 72
4
 73
2
 74
0
 40
0.0
 40
0.0
 40
1.0
 40
1.0
 10
5.901377098718817
 20
1.0833965133043615
 30
0.0
 10
5.900713253195403
 20
1.0870063342796643
 30
0.0
  0
SPLINE
  5
C7
330
17
100
AcDbEntity
  8
HIDDEN
100
AcDbSpline
 70
0
 71
1
 72
4
 73
2
 74
0
 40
0.0
 40
0.0
 40
1.0
 40
1.0
 10
5.900712822275661
 20
1.0870086734852555
 30
0.0
 10
5.900046782562473
 20
1.0906180044961649
 30
0.0
  0
SPLINE
  5
C8
330
17
100
AcDbEntity
  8
HIDDEN
100
AcDbSpline
 70
0
 71
1
 72
4
 73
2
 74
0
 40
0.0
 40
0.0
 40
1.0
 40
1.0
 10
5.900046333551401
 20
1.090620433562611
 30
0.0
 10
5.899378100103732
 20
1.0942292726888403
 30
0.0
  0
SPLINE
  5
C9
330
17
100
AcDbEntity
  8
HIDDEN
100
AcDbSpline
 70
0
 71
1
 72
4
 73
2
 74
0
 40
0.0
 40
0.0
 40
1.0
 40
1.0
 10
5.89937763280826
 20
1.0942317920418074
 30
0.0
 10
5.898707206074491
 20
1.0978401374113091
 30
0.0
  0
SPLINE
  5
CA
330
17
100
AcDbEntity
  8
HIDDEN
100
AcDbSpline
 70
0
 71
1
 72
4
 73
2
 74
0
 40
0.0
 40
0.0
 40
1.0
 40
1.0
 10
5.898706720309531
 20
1.097842747428993
 30
0.0
 10
5.898034100731025
 20
1.1014505972178
 30
0.0
  0
SPLINE
  5
CB
330
17
100
AcDbEntity
  8
HIDDEN
100
AcDbSpline
 70
0
 71
1
 72
4
 73
2
 74
0
 40
0.0
 40
0.0
 40
1.0
 40
1.0
 10
5.8980335963195625
 20
1.1014532982310865
 30
0.0
 10
5.897358784330622
 20
1.10506065066293
 30
0.0
  0
SPLINE
  5
CC
330
17
100
AcDbEntity
  8
HIDDEN
100
AcDbSpline
 70
0
 71
1
 72
4
 73
2
 74
0
 40
0.0
 40
0.0
 40
1.0
 40
1.0
 10
5.897358261103767
 20
1.105063442955775
 30
0.0
 10
5.896681257131537
 20
1.1086702963019248
 30
0.0
  0
SPLINE
  5
CD
330
17
100
AcDbEntity
  8
HIDDEN
100
AcDbSpline
 70
0
 71
1
 72
4
 73
2
 74
0
 40
0.0
 40
0.0
 40
1.0
 40
1.0
 10
5.896680714928619
 20
1.1086731801115146
 30
0.0
 10
5.896001519393021
 20
1.1122795326905068
 30
0.0
  0
SPLINE
  5
CE
330
17
100
AcDbEntity
  8
HIDDEN
100
AcDbSpline
 70
0
 71
1
 72
4
 73
2
 74
0
 40
0.0
 40
0.0
 40
1.0
 40
1.0
 10
5.896000958061643
 20
1.1122825082075254
 30
0.0
 10
5.8953195713753175
 20
1.1158883583848676
 30
0.0
  0
SPLINE
  5
CF
330
17
100
AcDbEntity
  8
HIDDEN
100
AcDbSpline
 70
0
 71
1
 72
4
 73
2
 74
0
 40
0.0
 40
0.0
 40
1.0
 40
1.0
 10
5.895318990771422
 20
1.1158914257537957
 30
0.0
 10
5.894635413339644
 20
1.1194967719417472
 30
0.0
  0
SPLINE
  5
D0
330
17
100
AcDbEntity
  8
HIDDEN
100
AcDbSpline
 70
0
 71
1
 72
4
 73
2
 74
0
 40
0.0
 40
0.0
 40
1.0
 40
1.0
 10
5.894634813327595
 20
1.1194999312610796
 30
0.0
 10
5.893949045548219
 20
1.1231047719183538
 30
0.0
  0
SPLINE
  5
D1
330
17
100
AcDbEntity
  8
HIDDEN
100
AcDbSpline
 70
0
 71
1
 72
4
 73
2
 74
0
 40
0.0
 40
0.0
 40
1.0
 40
1.0
 10
5.893948426000858
 20
1.123108023240895
 30
0.0
 10
5.89326046826422
 20
1.1267123568724988
 30
0.0
  0
SPLINE
  5
D2
330
17
100
AcDbEntity
  8
HIDDEN
100
AcDbSpline
 70
0
 71
1
 72
4
 73
2
 74
0
 40
0.0
 40
0.0
 40
1.0
 40
1.0
 10
5.893259829062943
 20
1.1267157002055228
 30
0.0
 10
5.89256968175183
 20
1.1303195253624043
 30
0.0
  0
SPLINE
  5
D3
330
17
100
AcDbEntity
  8
HIDDEN
100
AcDbSpline
 70
0
 71
1
 72
4
 73
2
 74
0
 40
0.0
 40
0.0
 40
1.0
 40
1.0
 10
5.892569022786648
 20
1.1303229606680065
 30
0.0
 10
5.891876686276205
 20
1.1339262759468398
 30
0.0
  0
SPLINE
  5
D4
330
17
100
AcDbEntity
  8
HIDDEN
100
AcDbSpline
 70
0
 71
1
 72
4
 73
2
 74
0
 40
0.0
 40
0.0
 40
1.0
 40
1.0
 10
5.891876007445809
 20
1.1339298031421543
 30
0.0
 10
5.891181482103473
 20
1.137532607185117
 30
0.0
  0
SPLINE
  5
D5
330
17
100
AcDbEntity
  8
HIDDEN
100
AcDbSpline
 70
0
 71
1
 72
4
 73
2
 74
0
 40
0.0
 40
0.0
 40
1.0
 40
1.0
 10
5.891180783315313
 20
1.1375362261425335
 30
0.0
 10
5.890484069500765
 20
1.141138517636989
 30
0.0
  0
SPLINE
  5
D6
330
17
100
AcDbEntity
  8
HIDDEN
100
AcDbSpline
 70
0
 71
1
 72
4
 73
2
 74
0
 40
0.0
 40
0.0
 40
1.0
 40
1.0
 10
5.890483350671087
 20
1.141142228184473
 30
0.0
 10
5.889784448736161
 20
1.1447440058628033
 30
0.0
  0
SPLINE
  5
D7
330
17
100
AcDbEntity
  8
HIDDEN
100
AcDbSpline
 70
0
 71
1
 72
4
 73
2
 74
0
 40
0.0
 40
0.0
 40
1.0
 40
1.0
 10
5.88978370979011
 20
1.1447478077840603
 30
0.0
 10
5.8890826200787485
 20
1.1483490704233152
 30
0.0
  0
SPLINE
  5
D8
330
17
100
AcDbEntity
  8
HIDDEN
100
AcDbSpline
 70
0
 71
1
 72
4
 73
2
 74
0
 40
0.0
 40
0.0
 40
1.0
 40
1.0
 10
5.889081860950393
 20
1.1483529634581449
 30
0.0
 10
5.888378583798568
 20
1.1519537098799053
 30
0.0
  0
SPLINE
  5
D9
330
17
100
AcDbEntity
  8
HIDDEN
100
AcDbSpline
 70
0
 71
1
 72
4
 73
2
 74
0
 40
0.0
 40
0.0
 40
1.0
 40
1.0
 10
5.888377804430986
 20
1.1519576937243294
 30
0.0
 10
5.887672340166661
 20
1.1555579227943307
 30
0.0
  0
SPLINE
  5
DA
330
17
100
AcDbEntity
  8
HIDDEN
100
AcDbSpline
 70
0
 71
1
 72
4
 73
2
 74
0
 40
0.0
 40
0.0
 40
1.0
 40
1.0
 10
5.8876715405119935
 20
1.1555619971009778
 30
0.0
 10
5.8869638894550125
 20
1.1591617077289995
 30
0.0
  0
SPLINE
  5
DB
330
17
100
AcDbEntity
  8
HIDDEN
100
AcDbSpline
 70
0
 71
1
 72
4
 73
2
 74
0
 40
0.0
 40
0.0
 40
1.0
 40
1.0
 10
5.886963069474541
 20
1.1591658721072107
 30
0.0
 10
5.886253231936612
 20
1.1627650632466957
 30
0.0
  0
SPLINE
  5
DC
330
17
100
AcDbEntity
  8
HIDDEN
100
AcDbSpline
 70
0
 71
1
 72
4
 73
2
 74
0
 40
0.0
 40
0.0
 40
1.0
 40
1.0
 10
5.886252391600797
 20
1.1627693172629021
 30
0.0
 10
5.885540367885403
 20
1.1663679879108244
 30
0.0
  0
SPLINE
  5
DD
330
17
100
AcDbEntity
  8
HIDDEN
100
AcDbSpline
 70
0
 71
1
 72
4
 73
2
 74
0
 40
0.0
 40
0.0
 40
1.0
 40
1.0
 10
5.885539507173961
 20
1.1663723310886827
 30
0.0
 10
5.884825297576315
 20
1.1699704802852189
 30
0.0
  0
SPLINE
  5
DE
330
17
100
AcDbEntity
  8
HIDDEN
100
AcDbSpline
 70
0
 71
1
 72
4
 73
2
 74
0
 40
0.0
 40
0.0
 40
1.0
 40
1.0
 10
5.884824416478269
 20
1.1699749121059377
 30
0.0
 10
5.884108021285243
 20
1.1735725389342249
 30
0.0
  0
SPLINE
  5
DF
330
17
100
AcDbEntity
  8
HIDDEN
100
AcDbSpline
 70
0
 71
2
 72
6
 73
3
 74
0
 40
0.0
 40
0.0
 40
0.0
 40
1.0
 40
1.0
 40
1.0
 10
5.884107119798982
 20
1.1735770588368055
 30
0.0
 10
5.727919959283066
 20
1.953882766756403
 30
0.0
 10
5.375159678414788
 20
2.666019173438737
 30
0.0
  0
SPLINE
  5
E0
330
17
100
AcDbEntity
  8
HIDDEN
100
AcDbSpline
 70
0
 71
2
 72
6
 73
3
 74
0
 40
0.0
 40
0.0
 40
0.0
 40
1.0
 40
1.0
 40
1.0
 10
4.7751284310156725
 20
-3.6329256102129857
 30
0.0
 10
4.887579328279976
 20
-3.4851131633324735
 30
0.0
 10
4.990585964033787
 20
-3.330773441139576
 30
0.0
  0
SPLINE
  5
E1
330
17
100
AcDbEntity
  8
HIDDEN
100
AcDbSpline
 70
0
 71
2
 72
6
 73
3
 74
0
 40
0.0
 40
0.0
 40
0.0
 40
1.0
 40
1.0
 40
1.0
 10
5.212953502228285
 20
-2.9707096411044103
 30
0.0
 10
5.304428420924694
 20
-2.8101871450188094
 30
0.0
 10
5.385842980404969
 20
-2.644370513926775
 30
0.0
  0
SPLINE
  5
E2
330
17
100
AcDbEntity
  8
HIDDEN
100
AcDbSpline
 70
0
 71
2
 72
6
 73
3
 74
0
 40
0.0
 40
0.0
 40
0.0
 40
1.0
 40
1.0
 40
1.0
 10
5.400458935368192
 20
-2.6143915762113674
 30
0.0
 10
5.507083239022075
 20
-2.3941350567235293
 30
0.0
 10
5.595448931204987
 20
-2.165860397420747
 30
0.0
  0
SPLINE
  5
E3
330
17
100
AcDbEntity
  8
HIDDEN
100
AcDbSpline
 70
0
 71
1
 72
4
 73
2
 74
0
 40
0.0
 40
0.0
 40
1.0
 40
1.0
 10
5.6064155305968315
 20
-2.1373125408920113
 30
0.0
 10
5.68052751184421
 20
-1.9317368253312934
 30
0.0
  0
SPLINE
  5
E4
330
17
100
AcDbEntity
  8
HIDDEN
100
AcDbSpline
 70
0
 71
2
 72
6
 73
3
 74
0
 40
0.0
 40
0.0
 40
0.0
 40
1.0
 40
1.0
 40
1.0
 10
5.703620087144243
 20
-1.8624494278845765
 30
0.0
 10
5.7842804030468224
 20
-1.6154366774201325
 30
0.0
 10
5.843350732935495
 20
-1.3620764349643562
 30
0.0
  0
SPLINE
  5
E5
330
17
100
AcDbEntity
  8
HIDDEN
100
AcDbSpline
 70
0
 71
2
 72
6
 73
3
 74
0
 40
0.0
 40
0.0
 40
0.0
 40
1.0
 40
1.0
 40
1.0
 10
5.872328506973187
 20
-1.231161211300824
 30
0.0
 10
5.999686769484421
 20
-0.6234832293411092
 30
0.0
 10
5.999999999999999
 20
-7.105427357601002e-15
 30
0.0
  0
SPLINE
  5
E6
330
17
100
AcDbEntity
  8
HIDDEN
100
AcDbSpline
 70
0
 71
2
 72
6
 73
3
 74
0
 40
0.0
 40
0.0
 40
0.0
 40
1.0
 40
1.0
 40
1.0
 10
-11.789136891629838
 20
6.7805790046406775
 30
0.0
 10
-11.74834334487732
 20
6.851530108492926
 30
0.0
 10
-11.704612155617403
 20
6.925464192884329
 30
0.0
  0
SPLINE
  5
E7
330
17
100
AcDbEntity
  8
HIDDEN
100
AcDbSpline
 70
0
 71
3
 72
17
 73
13
 74
0
 40
0.0
 40
0.0
 40
0.0
 40
0.0
 40
0.22541718900784943
 40
0.22541718900784943
 40
0.22541718900784943
 40
0.4873595477672315
 40
0.4873595477672315
 40
0.4873595477672315
 40
0.7524930022273675
 40
0.7524930022273675
 40
0.7524930022273675
 40
1.0
 40
1.0
 40
1.0
 40
1.0
 10
-11.703117481278264
 20
6.927989702782149
 30
0.0
 10
-9.810046922723968
 20
-4.799853546508903
 30
0.0
 10
-8.270743323767956
 20
-16.585231272029493
 30
0.0
 10
-7.111376016968796
 20
-28.408325575974594
 30
0.0
 10
-5.763139539273591
 20
-42.146928590572806
 30
0.0
 10
-4.927999172660795
 20
-55.93601280003993
 30
0.0
 10
-4.615282823067943
 20
-69.73712407038515
 30
0.0
 10
-4.29720761352688
 20
-83.70645522151086
 30
0.0
 10
-4.516503587775741
 20
-97.68727215632093
 30
0.0
 10
-5.242022053677154
 20
-111.64113115038006
 30
0.0
 10
-5.913984086498239
 20
-124.66821671254678
 30
0.0
 10
-7.0424746699445295
 20
-137.66885225880895
 30
0.0
 10
-8.479395291931441
 20
-150.63296081022656
 30
0.0
  0
SPLINE
  5
E8
330
17
100
AcDbEntity
  8
HIDDEN
100
AcDbSpline
 70
0
 71
3
 72
8
 73
4
 74
0
 40
0.0
 40
0.0
 40
0.0
 40
0.0
 40
1.0
 40
1.0
 40
1.0
 40
1.0
 10
-9.607189965365077
 20
-149.62610518031263
 30
0.0
 10
-9.60733042135509
 20
-149.6254930440124
 30
0.0
 10
-9.516399168268725
 20
-149.71851063574294
 30
0.0
 10
-9.338812557422644
 20
-149.8866870090308
 30
0.0
  0
SPLINE
  5
E9
330
17
100
AcDbEntity
  8
HIDDEN
100
AcDbSpline
 70
0
 71
2
 72
6
 73
3
 74
0
 40
0.0
 40
0.0
 40
0.0
 40
1.0
 40
1.0
 40
1.0
 10
-8.609750282734938
 20
-150.52768731016803
 30
0.0
 10
-8.546475310762073
 20
-150.57945086955172
 30
0.0
 10
-8.479395284496066
 20
-150.63296081104724
 30
0.0
  0
SPLINE
  5
EA
330
17
100
AcDbEntity
  8
HIDDEN
100
AcDbSpline
 70
0
 71
1
 72
4
 73
2
 74
0
 40
0.0
 40
0.0
 40
1.0
 40
1.0
 10
5.998209717099214
 20
-139.85344545708855
 30
0.0
 10
5.995458182638338
 20
-139.7665941890264
 30
0.0
  0
SPLINE
  5
EB
330
17
100
AcDbEntity
  8
HIDDEN
100
AcDbSpline
 70
0
 71
1
 72
4
 73
2
 74
0
 40
0.0
 40
0.0
 40
1.0
 40
1.0
 10
5.993844968567174
 20
-139.72830252247226
 30
0.0
 10
5.993728977168292
 20
-139.72575562188635
 30
0.0
  0
SPLINE
  5
EC
330
17
100
AcDbEntity
  8
HIDDEN
100
AcDbSpline
 70
0
 71
1
 72
4
 73
2
 74
0
 40
0.0
 40
0.0
 40
1.0
 40
1.0
 10
5.993728757045132
 20
-139.725750811026
 30
0.0
 10
5.993611682101741
 20
-139.7232039738654
 30
0.0
  0
SPLINE
  5
ED
330
17
100
AcDbEntity
  8
HIDDEN
100
AcDbSpline
 70
0
 71
1
 72
4
 73
2
 74
0
 40
0.0
 40
0.0
 40
1.0
 40
1.0
 10
5.993611461300148
 20
-139.72319919275282
 30
0.0
 10
5.993493302813233
 20
-139.72065241839874
 30
0.0
  0
SPLINE
  5
EE
330
17
100
AcDbEntity
  8
HIDDEN
100
AcDbSpline
 70
0
 71
1
 72
4
 73
2
 74
0
 40
0.0
 40
0.0
 40
1.0
 40
1.0
 10
5.9934930814089595
 20
-139.7206476681157
 30
0.0
 10
5.993373839378852
 20
-139.7181009559613
 30
0.0
  0
SPLINE
  5
EF
330
17
100
AcDbEntity
  8
HIDDEN
100
AcDbSpline
 70
0
 71
1
 72
4
 73
2
 74
0
 40
0.0
 40
0.0
 40
1.0
 40
1.0
 10
5.993373617448462
 20
-139.7180962375773
 30
0.0
 10
5.993253291874854
 20
-139.71554958702774
 30
0.0
  0
SPLINE
  5
F0
330
17
100
AcDbEntity
  8
HIDDEN
100
AcDbSpline
 70
0
 71
1
 72
4
 73
2
 74
0
 40
0.0
 40
0.0
 40
1.0
 40
1.0
 10
5.993253069495713
 20
-139.71554490160045
 30
0.0
 10
5.9931316603776725
 20
-139.7129983120727
 30
0.0
  0
SPLINE
  5
F1
330
17
100
AcDbEntity
  8
HIDDEN
100
AcDbSpline
 70
0
 71
1
 72
4
 73
2
 74
0
 40
0.0
 40
0.0
 40
1.0
 40
1.0
 10
5.993131437627921
 20
-139.71299366064756
 30
0.0
 10
5.993008944963915
 20
-139.71044713157022
 30
0.0
  0
SPLINE
  5
F2
330
17
100
AcDbEntity
  8
HIDDEN
100
AcDbSpline
 70
0
 71
1
 72
4
 73
2
 74
0
 40
0.0
 40
0.0
 40
1.0
 40
1.0
 10
5.99300872192245
 20
-139.71044251518074
 30
0.0
 10
5.9928851457103605
 20
-139.70789604599426
 30
0.0
  0
SPLINE
  5
F3
330
17
100
AcDbEntity
  8
HIDDEN
100
AcDbSpline
 70
0
 71
1
 72
4
 73
2
 74
0
 40
0.0
 40
0.0
 40
1.0
 40
1.0
 10
5.992884922456828
 20
-139.70789146566207
 30
0.0
 10
5.9927602626939676
 20
-139.70534505581847
 30
0.0
  0
SPLINE
  5
F4
330
17
100
AcDbEntity
  8
HIDDEN
100
AcDbSpline
 70
0
 71
1
 72
4
 73
2
 74
0
 40
0.0
 40
0.0
 40
1.0
 40
1.0
 10
5.992760039308735
 20
-139.70534051255342
 30
0.0
 10
5.992634295991863
 20
-139.70279416151632
 30
0.0
  0
SPLINE
  5
F5
330
17
100
AcDbEntity
  8
HIDDEN
100
AcDbSpline
 70
0
 71
1
 72
4
 73
2
 74
0
 40
0.0
 40
0.0
 40
1.0
 40
1.0
 10
5.9926340725560046
 20
-139.70278965631633
 30
0.0
 10
5.992507245681352
 20
-139.70024336356096
 30
0.0
  0
SPLINE
  5
F6
330
17
100
AcDbEntity
  8
HIDDEN
100
AcDbSpline
 70
0
 71
1
 72
4
 73
2
 74
0
 40
0.0
 40
0.0
 40
1.0
 40
1.0
 10
5.992507022276636
 20
-139.7002388974123
 30
0.0
 10
5.992379111839912
 20
-139.6976926624253
 30
0.0
  0
SPLINE
  5
F7
330
17
100
AcDbEntity
  8
HIDDEN
100
AcDbSpline
 70
0
 71
1
 72
4
 73
2
 74
0
 40
0.0
 40
0.0
 40
1.0
 40
1.0
 10
5.99237888854878
 20
-139.6976882363025
 30
0.0
 10
5.992249894545198
 20
-139.6951420585819
 30
0.0
  0
SPLINE
  5
F8
330
17
100
AcDbEntity
  8
HIDDEN
100
AcDbSpline
 70
0
 71
1
 72
4
 73
2
 74
0
 40
0.0
 40
0.0
 40
1.0
 40
1.0
 10
5.992249671450744
 20
-139.69513767344796
 30
0.0
 10
5.992119593875034
 20
-139.6925915525032
 30
0.0
  0
SPLINE
  5
F9
330
17
100
AcDbEntity
  8
HIDDEN
100
AcDbSpline
 70
0
 71
1
 72
4
 73
2
 74
0
 40
0.0
 40
0.0
 40
1.0
 40
1.0
 10
5.992119371060998
 20
-139.6925872093094
 30
0.0
 10
5.991988209907422
 20
-139.69004114466134
 30
0.0
  0
SPLINE
  5
FA
330
17
100
AcDbEntity
  8
HIDDEN
100
AcDbSpline
 70
0
 71
1
 72
4
 73
2
 74
0
 40
0.0
 40
0.0
 40
1.0
 40
1.0
 10
5.991987987458167
 20
-139.69003684434762
 30
0.0
 10
5.991855742720539
 20
-139.68749083552808
 30
0.0
  0
SPLINE
  5
FB
330
17
100
AcDbEntity
  8
HIDDEN
100
AcDbSpline
 70
0
 71
1
 72
4
 73
2
 74
0
 40
0.0
 40
0.0
 40
1.0
 40
1.0
 10
5.99185552072103
 20
-139.687486579023
 30
0.0
 10
5.991722192392732
 20
-139.6849406255752
 30
0.0
  0
SPLINE
  5
FC
330
17
100
AcDbEntity
  8
HIDDEN
100
AcDbSpline
 70
0
 71
1
 72
4
 73
2
 74
0
 40
0.0
 40
0.0
 40
1.0
 40
1.0
 10
5.9917219709285305
 20
-139.68493641379558
 30
0.0
 10
5.991587559002529
 20
-139.68239051527388
 30
0.0
  0
SPLINE
  5
FD
330
17
100
AcDbEntity
  8
HIDDEN
100
AcDbSpline
 70
0
 71
1
 72
4
 73
2
 74
0
 40
0.0
 40
0.0
 40
1.0
 40
1.0
 10
5.991587338159768
 20
-139.68238634912558
 30
0.0
 10
5.991451842628628
 20
-139.67984050509534
 30
0.0
  0
SPLINE
  5
FE
330
17
100
AcDbEntity
  8
HIDDEN
100
AcDbSpline
 70
0
 71
1
 72
4
 73
2
 74
0
 40
0.0
 40
0.0
 40
1.0
 40
1.0
 10
5.991451622494001
 20
-139.6798363854728
 30
0.0
 10
5.9913150433499
 20
-139.67729059551033
 30
0.0
  0
SPLINE
  5
FF
330
17
100
AcDbEntity
  8
HIDDEN
100
AcDbSpline
 70
0
 71
1
 72
4
 73
2
 74
0
 40
0.0
 40
0.0
 40
1.0
 40
1.0
 10
5.99131482401064
 20
-139.6772865232968
 30
0.0
 10
5.991177161245393
 20
-139.6747407869894
 30
0.0
  0
SPLINE
  5
100
330
17
100
AcDbEntity
  8
HIDDEN
100
AcDbSpline
 70
0
 71
1
 72
4
 73
2
 74
0
 40
0.0
 40
0.0
 40
1.0
 40
1.0
 10
5.991176942789265
 20
-139.67473676305707
 30
0.0
 10
5.991038196394328
 20
-139.67219108000296
 30
0.0
  0
SPLINE
  5
101
330
17
100
AcDbEntity
  8
HIDDEN
100
AcDbSpline
 70
0
 71
1
 72
4
 73
2
 74
0
 40
0.0
 40
0.0
 40
1.0
 40
1.0
 10
5.991037978909606
 20
-139.6721871052127
 30
0.0
 10
5.990898148876102
 20
-139.66964147502094
 30
0.0
  0
SPLINE
  5
102
330
17
100
AcDbEntity
  8
HIDDEN
100
AcDbSpline
 70
0
 71
1
 72
4
 73
2
 74
0
 40
0.0
 40
0.0
 40
1.0
 40
1.0
 10
5.990897932451553
 20
-139.66963755022283
 30
0.0
 10
5.990757018770289
 20
-139.66709197251322
 30
0.0
  0
SPLINE
  5
103
330
17
100
AcDbEntity
  8
HIDDEN
100
AcDbSpline
 70
0
 71
1
 72
4
 73
2
 74
0
 40
0.0
 40
0.0
 40
1.0
 40
1.0
 10
5.990756803495156
 20
-139.6670880985463
 30
0.0
 10
5.990614806156625
 20
-139.6645425729493
 30
0.0
  0
SPLINE
  5
104
330
17
100
AcDbEntity
  8
HIDDEN
100
AcDbSpline
 70
0
 71
1
 72
4
 73
2
 74
0
 40
0.0
 40
0.0
 40
1.0
 40
1.0
 10
5.990614592120631
 20
-139.66453875064167
 30
0.0
 10
5.990471511115034
 20
-139.6619932767985
 30
0.0
  0
SPLINE
  5
105
330
17
100
AcDbEntity
  8
HIDDEN
100
AcDbSpline
 70
0
 71
1
 72
4
 73
2
 74
0
 40
0.0
 40
0.0
 40
1.0
 40
1.0
 10
5.9904712984083375
 20
-139.66198950696733
 30
0.0
 10
5.990327133725611
 20
-139.65944408452978
 30
0.0
  0
SPLINE
  5
106
330
17
100
AcDbEntity
  8
HIDDEN
100
AcDbSpline
 70
0
 71
1
 72
4
 73
2
 74
0
 40
0.0
 40
0.0
 40
1.0
 40
1.0
 10
5.990326922438811
 20
-139.65944036798163
 30
0.0
 10
5.990181674068619
 20
-139.65689499661192
 30
0.0
  0
SPLINE
  5
107
330
17
100
AcDbEntity
  8
HIDDEN
100
AcDbSpline
 70
0
 71
1
 72
4
 73
2
 74
0
 40
0.0
 40
0.0
 40
1.0
 40
1.0
 10
5.990181464292737
 20
-139.65689133414259
 30
0.0
 10
5.990035132224504
 20
-139.65434601351348
 30
0.0
  0
SPLINE
  5
108
330
17
100
AcDbEntity
  8
HIDDEN
100
AcDbSpline
 70
0
 71
1
 72
4
 73
2
 74
0
 40
0.0
 40
0.0
 40
1.0
 40
1.0
 10
5.99003492405096
 20
-139.6543424059079
 30
0.0
 10
5.989887508273881
 20
-139.65179713570254
 30
0.0
  0
SPLINE
  5
109
330
17
100
AcDbEntity
  8
HIDDEN
100
AcDbSpline
 70
0
 71
1
 72
4
 73
2
 74
0
 40
0.0
 40
0.0
 40
1.0
 40
1.0
 10
5.98988730179449
 20
-139.65179358373535
 30
0.0
 10
5.989738802297539
 20
-139.64924836364725
 30
0.0
  0
SPLINE
  5
10A
330
17
100
AcDbEntity
  8
HIDDEN
100
AcDbSpline
 70
0
 71
1
 72
4
 73
2
 74
0
 40
0.0
 40
0.0
 40
1.0
 40
1.0
 10
5.989738597604494
 20
-139.64924486808235
 30
0.0
 10
5.9895890143764445
 20
-139.64669969781528
 30
0.0
  0
SPLINE
  5
10B
330
17
100
AcDbEntity
  8
HIDDEN
100
AcDbSpline
 70
0
 71
1
 72
4
 73
2
 74
0
 40
0.0
 40
0.0
 40
1.0
 40
1.0
 10
5.9895888115622995
 20
-139.6466962594061
 30
0.0
 10
5.989438144591736
 20
-139.6441511386741
 30
0.0
  0
SPLINE
  5
10C
330
17
100
AcDbEntity
  8
HIDDEN
100
AcDbSpline
 70
0
 71
1
 72
4
 73
2
 74
0
 40
0.0
 40
0.0
 40
1.0
 40
1.0
 10
5.9894379437493885
 20
-139.64414775816368
 30
0.0
 10
5.989286193024727
 20
-139.64160268669087
 30
0.0
  0
SPLINE
  5
10D
330
17
100
AcDbEntity
  8
HIDDEN
100
AcDbSpline
 70
0
 71
3
 72
50
 73
46
 74
0
 40
0.0
 40
0.0
 40
0.0
 40
0.0
 40
0.1036132796058962
 40
0.1036132796058962
 40
0.1036132796058962
 40
0.14637388112495767
 40
0.14637388112495767
 40
0.14637388112495767
 40
0.21971847913752868
 40
0.21971847913752868
 40
0.21971847913752868
 40
0.29402678627611845
 40
0.29402678627611845
 40
0.29402678627611845
 40
0.3541559522429869
 40
0.3541559522429869
 40
0.3541559522429869
 40
0.41633417413755835
 40
0.41633417413755835
 40
0.41633417413755835
 40
0.4748954743525724
 40
0.4748954743525724
 40
0.4748954743525724
 40
0.5313894581150227
 40
0.5313894581150227
 40
0.5313894581150227
 40
0.609098485889369
 40
0.609098485889369
 40
0.609098485889369
 40
0.659547536609698
 40
0.659547536609698
 40
0.659547536609698
 40
0.7329196505690801
 40
0.7329196505690801
 40
0.7329196505690801
 40
0.8237502825185862
 40
0.8237502825185862
 40
0.8237502825185862
 40
0.8806761609421818
 40
0.8806761609421818
 40
0.8806761609421818
 40
0.9403380804710909
 40
0.9403380804710909
 40
0.9403380804710909
 40
1.0
 40
1.0
 40
1.0
 40
1.0
 10
5.989285994247414
 20
-139.64159936481187
 30
0.0
 10
5.910105568732806
 20
-138.3001063105597
 30
0.0
 10
5.376185585978132
 20
-137.01597307778533
 30
0.0
 10
4.4860306451467595
 20
-136.01558924672614
 30
0.0
 10
4.119263186665181
 20
-135.60242620320517
 30
0.0
 10
3.692032598082067
 20
-135.23733326232755
 30
0.0
 10
3.220289161173692
 20
-134.93741788032756
 30
0.0
 10
2.4123511374699587
 20
-134.42066802646832
 30
0.0
 10
1.471197051692521
 20
-134.10744552157644
 30
0.0
 10
0.5492592255389979
 20
-134.02519336688118
 30
0.0
 10
-0.38694050434268945
 20
-133.93888467391844
 30
0.0
 10
-1.291181910419506
 20
-134.0786651333065
 30
0.0
 10
-2.0871359330467474
 20
-134.37471213207854
 30
0.0
 10
-2.7330516613438687
 20
-134.61477606258146
 30
0.0
 10
-3.3141441654962636
 20
-134.9550462516183
 30
0.0
 10
-3.8248290051930924
 20
-135.37715638583418
 30
0.0
 10
-4.352423764681305
 20
-135.8146005588614
 30
0.0
 10
-4.807964943241471
 20
-136.33972463971315
 30
0.0
 10
-5.1748367114912535
 20
-136.9633793438425
 30
0.0
 10
-5.519110280935523
 20
-137.54900756279477
 30
0.0
 10
-5.7857071518882535
 20
-138.2359995921278
 30
0.0
 10
-5.914173930373801
 20
-138.98878947726655
 30
0.0
 10
-6.040010494146255
 20
-139.71421093662954
 30
0.0
 10
-6.024274808864312
 20
-140.47606699611867
 30
0.0
 10
-5.885605601725315
 20
-141.16603889340774
 30
0.0
 10
-5.695284158680454
 20
-142.11777941312286
 30
0.0
 10
-5.298223619598558
 20
-142.95328033313763
 30
0.0
 10
-4.74952547649438
 20
-143.6663343748396
 30
0.0
 10
-4.391157266208614
 20
-144.13145345766685
 30
0.0
 10
-3.9678005882747804
 20
-144.53870417256036
 30
0.0
 10
-3.47945544269289
 20
-144.8880865195202
 30
0.0
 10
-2.772221061383776
 20
-145.39245053146618
 30
0.0
 10
-1.92627436804778
 20
-145.75868289087882
 30
0.0
 10
-1.0080849785865207
 20
-145.9147074886209
 30
0.0
 10
0.1263032509003557
 20
-146.1121750966271
 30
0.0
 10
1.3607205055246383
 20
-145.96716987868774
 30
0.0
 10
2.444436808163372
 20
-145.4794825203568
 30
0.0
 10
3.1244330224164503
 20
-145.17647283384312
 30
0.0
 10
3.745881501056348
 20
-144.74593703627394
 30
0.0
 10
4.267716220082172
 20
-144.21741606494396
 30
0.0
 10
4.815341953549018
 20
-143.66393806400032
 30
0.0
 10
5.2546869987655525
 20
-143.00058760337612
 30
0.0
 10
5.550686403565896
 20
-142.27813091513613
 30
0.0
 10
5.84763216280888
 20
-141.55621134681493
 30
0.0
 10
6.00059746477586
 20
-140.77502853352146
 30
0.0
 10
6.000000000000002
 20
-140.0
 30
0.0
  0
CIRCLE
  5
10E
330
17
100
AcDbEntity
  8
HIDDEN
100
AcDbCircle
 10
0.0
 20
-140.0
 30
0.0
 40
6.0
  0
CIRCLE
  5
10F
330
17
100
AcDbEntity
  8
HIDDEN
100
AcDbCircle
 10
0.0
 20
-140.0
 30
0.0
 40
6.0
  0
ARC
  5
110
330
17
100
AcDbEntity
  8
HIDDEN
100
AcDbCircle
 10
0.0
 20
0.0
 30
0.0
 40
13.6
100
AcDbArc
 50
0.0
 51
149.37539478337848
  0
ARC
  5
111
330
17
100
AcDbEntity
  8
HIDDEN
100
AcDbCircle
 10
0.0
 20
0.0
 30
0.0
 40
13.6
100
AcDbArc
 50
0.0
 51
149.37539478337845
  0
CIRCLE
  5
112
330
17
100
AcDbEntity
  8
HIDDEN
100
AcDbCircle
 10
0.0
 20
7.771561172376096e-16
 30
0.0
 40
6.0
  0
CIRCLE
  5
113
330
17
100
AcDbEntity
  8
HIDDEN
100
AcDbCircle
 10
0.0
 20
-7.771561172376096e-16
 30
0.0
 40
6.0
  0
LINE
  5
114
330
17
100
AcDbEntity
  8
HIDDEN
100
AcDbLine
 10
13.6
 20
-133.82726893188385
 30
0.0
 11
13.6
 21
0.0
 31
0.0
  0
ARC
  5
115
330
17
100
AcDbEntity
  8
HIDDEN
100
AcDbCircle
 10
0.0
 20
-140.0
 30
0.0
 40
13.6
100
AcDbArc
 50
231.42892718287555
 51
326.6565000689034
  0
ARC
  5
116
330
17
100
AcDbEntity
  8
HIDDEN
100
AcDbCircle
 10
0.0
 20
-140.0
 30
0.0
 40
13.6
100
AcDbArc
 50
231.42892718287555
 51
326.656500068904
  0
LINE
  5
117
330
17
100
AcDbEntity
  8
HIDDEN
100
AcDbLine
 10
13.6
 20
-133.82726893188396
 30
0.0
 11
13.6
 21
0.0
 31
0.0
  0
ENDSEC
  0
SECTION
  2
OBJECTS
  0
DICTIONARY
  5
A
330
0
100
AcDbDictionary
281
1
  3
ACAD_COLOR
350
B
  3
ACAD_GROUP
350
C
  3
ACAD_LAYOUT
350
D
  3
ACAD_MATERIAL
350
E
  3
ACAD_MLEADERSTYLE
350
F
  3
ACAD_MLINESTYLE
350
10
  3
ACAD_PLOTSETTINGS
350
11
  3
ACAD_PLOTSTYLENAME
350
12
  3
ACAD_SCALELIST
350
14
  3
ACAD_TABLESTYLE
350
15
  3
ACAD_VISUALSTYLE
350
16
  3
EZDXF_META
350
2D
  0
DICTIONARY
  5
B
330
A
100
AcDbDictionary
281
1
  0
DICTIONARY
  5
C
330
A
100
AcDbDictionary
281
1
  0
DICTIONARY
  5
D
330
A
100
AcDbDictionary
281
1
  3
Model
350
1A
  3
Layout1
350
1E
  0
DICTIONARY
  5
E
330
A
100
AcDbDictionary
281
1
  3
ByBlock
350
1F
  3
ByLayer
350
20
  3
Global
350
21
  0
DICTIONARY
  5
F
330
A
100
AcDbDictionary
281
1
  3
Standard
350
2C
  0
DICTIONARY
  5
10
330
A
100
AcDbDictionary
281
1
  3
Standard
350
22
  0
DICTIONARY
  5
11
330
A
100
AcDbDictionary
281
1
  0
ACDBDICTIONARYWDFLT
  5
12
330
A
100
AcDbDictionary
281
1
  3
Normal
350
13
100
AcDbDictionaryWithDefault
340
13
  0
ACDBPLACEHOLDER
  5
13
330
12
  0
DICTIONARY
  5
14
330
A
100
AcDbDictionary
281
1
  0
DICTIONARY
  5
15
330
A
100
AcDbDictionary
281
1
  0
DICTIONARY
  5
16
330
A
100
AcDbDictionary
281
1
  0
LAYOUT
  5
1A
330
D
100
AcDbPlotSettings
  1

  4
A3
  6

 40
7.5
 41
20.0
 42
7.5
 43
20.0
 44
420.0
 45
297.0
 46
0.0
 47
0.0
 48
0.0
 49
0.0
140
0.0
141
0.0
142
1.0
143
1.0
 70
1024
 72
1
 73
0
 74
5
  7

 75
16
 76
0
 77
2
 78
300
147
1.0
148
0.0
149
0.0
100
AcDbLayout
  1
Model
 70
1
 71
0
 10
0.0
 20
0.0
 11
420.0
 21
297.0
 12
0.0
 22
0.0
 32
0.0
 14
1e+20
 24
1e+20
 34
1e+20
 15
-1e+20
 25
-1e+20
 35
-1e+20
146
0.0
 13
0.0
 23
0.0
 33
0.0
 16
1.0
 26
0.0
 36
0.0
 17
0.0
 27
1.0
 37
0.0
 76
1
330
17
  0
LAYOUT
  5
1E
330
D
100
AcDbPlotSettings
  1

  4
A3
  6

 40
7.5
 41
20.0
 42
7.5
 43
20.0
 44
420.0
 45
297.0
 46
0.0
 47
0.0
 48
0.0
 49
0.0
140
0.0
141
0.0
142
1.0
143
1.0
 70
0
 72
1
 73
0
 74
5
  7

 75
16
 76
0
 77
2
 78
300
147
1.0
148
0.0
149
0.0
100
AcDbLayout
  1
Layout1
 70
1
 71
1
 10
0.0
 20
0.0
 11
420.0
 21
297.0
 12
0.0
 22
0.0
 32
0.0
 14
1e+20
 24
1e+20
 34
1e+20
 15
-1e+20
 25
-1e+20
 35
-1e+20
146
0.0
 13
0.0
 23
0.0
 33
0.0
 16
1.0
 26
0.0
 36
0.0
 17
0.0
 27
1.0
 37
0.0
 76
1
330
1B
  0
MATERIAL
  5
1F
102
{ACAD_REACTORS
330
E
102
}
330
E
100
AcDbMaterial
  1
ByBlock
  2

 70
0
 40
1.0
 71
1
 41
1.0
 91
-1023410177
 42
1.0
 72
1
  3

 73
1
 74
1
 75
1
 44
0.5
 73
0
 45
1.0
 46
1.0
 77
1
  4

 78
1
 79
1
170
1
 48
1.0
171
1
  6

172
1
173
1
174
1
140
1.0
141
1.0
175
1
  7

176
1
177
1
178
1
143
1.0
179
1
  8

270
1
271
1
272
1
145
1.0
146
1.0
273
1
  9

274
1
275
1
276
1
 42
1.0
 72
1
  3

 73
1
 74
1
 75
1
 94
63
  0
MATERIAL
  5
20
102
{ACAD_REACTORS
330
E
102
}
330
E
100
AcDbMaterial
  1
ByLayer
  2

 70
0
 40
1.0
 71
1
 41
1.0
 91
-1023410177
 42
1.0
 72
1
  3

 73
1
 74
1
 75
1
 44
0.5
 73
0
 45
1.0
 46
1.0
 77
1
  4

 78
1
 79
1
170
1
 48
1.0
171
1
  6

172
1
173
1
174
1
140
1.0
141
1.0
175
1
  7

176
1
177
1
178
1
143
1.0
179
1
  8

270
1
271
1
272
1
145
1.0
146
1.0
273
1
  9

274
1
275
1
276
1
 42
1.0
 72
1
  3

 73
1
 74
1
 75
1
 94
63
  0
MATERIAL
  5
21
102
{ACAD_REACTORS
330
E
102
}
330
E
100
AcDbMaterial
  1
Global
  2

 70
0
 40
1.0
 71
1
 41
1.0
 91
-1023410177
 42
1.0
 72
1
  3

 73
1
 74
1
 75
1
 44
0.5
 73
0
 45
1.0
 46
1.0
 77
1
  4

 78
1
 79
1
170
1
 48
1.0
171
1
  6

172
1
173
1
174
1
140
1.0
141
1.0
175
1
  7

176
1
177
1
178
1
143
1.0
179
1
  8

270
1
271
1
272
1
145
1.0
146
1.0
273
1
  9

274
1
275
1
276
1
 42
1.0
 72
1
  3

 73
1
 74
1
 75
1
 94
63
  0
MLINESTYLE
  5
22
102
{ACAD_REACTORS
330
10
102
}
330
10
100
AcDbMlineStyle
  2
Standard
 70
0
  3

 62
256
 51
90.0
 52
90.0
 71
2
 49
0.5
 62
256
  6
BYLAYER
 49
-0.5
 62
256
  6
BYLAYER
  0
MLEADERSTYLE
  5
2C
102
{ACAD_REACTORS
330
F
102
}
330
F
100
AcDbMLeaderStyle
179
2
170
2
171
1
172
0
 90
2
 40
0.0
 41
0.0
173
1
 91
-1056964608
 92
-2
290
1
 42
2.0
291
1
 43
8.0
  3
Standard
 44
4.0
300

342
29
174
1
175
1
176
0
178
1
 93
-1056964608
 45
4.0
292
0
297
0
 46
4.0
 94
-1056964608
 47
1.0
 49
1.0
140
1.0
294
1
141
0.0
177
0
142
1.0
295
0
296
0
143
3.75
271
0
272
9
273
9
  0
DICTIONARY
  5
2D
330
A
100
AcDbDictionary
280
1
281
1
  3
CREATED_BY_EZDXF
350
2E
  3
WRITTEN_BY_EZDXF
350
11B
  0
DICTIONARYVAR
  5
2E
330
2D
100
DictionaryVariables
280
0
  1
1.4.4 @ 2026-10-05T07:37:40.159219+00:00
  0
DICTIONARYVAR
  5
11B
330
2D
100
DictionaryVariables
280
0
  1
1.4.4 @ 2026-10-05T07:37:41.655342+00:00
  0
ENDSEC
  0
EOF
