  0
SECTION
  2
HEADER
  9
$ACADVER
  1
AC1027
  9
$ACADMAINTVER
 70
105
  9
$DWGCODEPAGE
  3
ANSI_1252
  9
$LASTSAVEDBY
  1
ezdxf
  9
$REQUIREDVERSIONS
160
0
  9
$INSBASE
 10
0.0
 20
0.0
 30
0.0
  9
$EXTMIN
 10
1e+20
 20
1e+20
 30
1e+20
  9
$EXTMAX
 10
-1e+20
 20
-1e+20
 30
-1e+20
  9
$LIMMIN
 10
0.0
 20
0.0
  9
$LIMMAX
 10
420.0
 20
297.0
  9
$ORTHOMODE
 70
0
  9
$REGENMODE
 70
1
  9
$FILLMODE
 70
1
  9
$QTEXTMODE
 70
0
  9
$MIRRTEXT
 70
1
  9
$LTSCALE
 40
1.0
  9
$ATTMODE
 70
1
  9
$TEXTSIZE
 40
2.5
  9
$TRACEWID
 40
1.0
  9
$TEXTSTYLE
  7
Standard
  9
$CLAYER
  8
0
  9
$CELTYPE
  6
ByLayer
  9
$CECOLOR
 62
256
  9
$CELTSCALE
 40
1.0
  9
$DISPSILH
 70
0
  9
$DIMSCALE
 40
1.0
  9
$DIMASZ
 40
2.5
  9
$DIMEXO
 40
0.625
  9
$DIMDLI
 40
3.75
  9
$DIMRND
 40
0.0
  9
$DIMDLE
 40
0.0
  9
$DIMEXE
 40
1.25
  9
$DIMTP
 40
0.0
  9
$DIMTM
 40
0.0
  9
$DIMTXT
 40
2.5
  9
$DIMCEN
 40
2.5
  9
$DIMTSZ
 40
0.0
  9
$DIMTOL
 70
0
  9
$DIMLIM
 70
0
  9
$DIMTIH
 70
0
  9
$DIMTOH
 70
0
  9
$DIMSE1
 70
0
  9
$DIMSE2
 70
0
  9
$DIMTAD
 70
1
  9
$DIMZIN
 70
8
  9
$DIMBLK
  1

  9
$DIMASO
 70
1
  9
$DIMSHO
 70
1
  9
$DIMPOST
  1

  9
$DIMAPOST
  1

  9
$DIMALT
 70
0
  9
$DIMALTD
 70
3
  9
$DIMALTF
 40
0.03937007874
  9
$DIMLFAC
 40
1.0
  9
$DIMTOFL
 70
1
  9
$DIMTVP
 40
0.0
  9
$DIMTIX
 70
0
  9
$DIMSOXD
 70
0
  9
$DIMSAH
 70
0
  9
$DIMBLK1
  1

  9
$DIMBLK2
  1

  9
$DIMSTYLE
  2
ISO-25
  9
$DIMCLRD
 70
0
  9
$DIMCLRE
 70
0
  9
$DIMCLRT
 70
0
  9
$DIMTFAC
 40
1.0
  9
$DIMGAP
 40
0.625
  9
$DIMJUST
 70
0
  9
$DIMSD1
 70
0
  9
$DIMSD2
 70
0
  9
$DIMTOLJ
 70
0
  9
$DIMTZIN
 70
8
  9
$DIMALTZ
 70
0
  9
$DIMALTTZ
 70
0
  9
$DIMUPT
 70
0
  9
$DIMDEC
 70
2
  9
$DIMTDEC
 70
2
  9
$DIMALTU
 70
2
  9
$DIMALTTD
 70
3
  9
$DIMTXSTY
  7
Standard
  9
$DIMAUNIT
 70
0
  9
$DIMADEC
 70
0
  9
$DIMALTRND
 40
0.0
  9
$DIMAZIN
 70
0
  9
$DIMDSEP
 70
44
  9
$DIMATFIT
 70
3
  9
$DIMFRAC
 70
0
  9
$DIMLDRBLK
  1

  9
$DIMLUNIT
 70
2
  9
$DIMLWD
 70
-2
  9
$DIMLWE
 70
-2
  9
$DIMTMOVE
 70
0
  9
$DIMFXL
 40
1.0
  9
$DIMFXLON
 70
0
  9
$DIMJOGANG
 40
0.785398163397
  9
$DIMTFILL
 70
0
  9
$DIMTFILLCLR
 70
0
  9
$DIMARCSYM
 70
0
  9
$DIMLTYPE
  6

  9
$DIMLTEX1
  6

  9
$DIMLTEX2
  6

  9
$DIMTXTDIRECTION
 70
0
  9
$LUNITS
 70
2
  9
$LUPREC
 70
4
  9
$SKETCHINC
 40
1.0
  9
$FILLETRAD
 40
10.0
  9
$AUNITS
 70
0
  9
$AUPREC
 70
2
  9
$MENU
  1
.
  9
$ELEVATION
 40
0.0
  9
$PELEVATION
 40
0.0
  9
$THICKNESS
 40
0.0
  9
$LIMCHECK
 70
0
  9
$CHAMFERA
 40
0.0
  9
$CHAMFERB
 40
0.0
  9
$CHAMFERC
 40
0.0
  9
$CHAMFERD
 40
0.0
  9
$SKPOLY
 70
0
  9
$TDCREATE
 40
2461319.609513889
  9
$TDUCREATE
 40
2458532.153996898
  9
$TDUPDATE
 40
2461319.609525463
  9
$TDUUPDATE
 40
2458532.1544311
  9
$TDINDWG
 40
0.0
  9
$TDUSRTIMER
 40
0.0
  9
$USRTIMER
 70
1
  9
$ANGBASE
 50
0.0
  9
$ANGDIR
 70
0
  9
$PDMODE
 70
0
  9
$PDSIZE
 40
0.0
  9
$PLINEWID
 40
0.0
  9
$SPLFRAME
 70
0
  9
$SPLINETYPE
 70
6
  9
$SPLINESEGS
 70
8
  9
$HANDSEED
  5
83
  9
$SURFTAB1
 70
6
  9
$SURFTAB2
 70
6
  9
$SURFTYPE
 70
6
  9
$SURFU
 70
6
  9
$SURFV
 70
6
  9
$UCSBASE
  2

  9
$UCSNAME
  2

  9
$UCSORG
 10
0.0
 20
0.0
 30
0.0
  9
$UCSXDIR
 10
1.0
 20
0.0
 30
0.0
  9
$UCSYDIR
 10
0.0
 20
1.0
 30
0.0
  9
$UCSORTHOREF
  2

  9
$UCSORTHOVIEW
 70
0
  9
$UCSORGTOP
 10
0.0
 20
0.0
 30
0.0
  9
$UCSORGBOTTOM
 10
0.0
 20
0.0
 30
0.0
  9
$UCSORGLEFT
 10
0.0
 20
0.0
 30
0.0
  9
$UCSORGRIGHT
 10
0.0
 20
0.0
 30
0.0
  9
$UCSORGFRONT
 10
0.0
 20
0.0
 30
0.0
  9
$UCSORGBACK
 10
0.0
 20
0.0
 30
0.0
  9
$PUCSBASE
  2

  9
$PUCSNAME
  2

  9
$PUCSORG
 10
0.0
 20
0.0
 30
0.0
  9
$PUCSXDIR
 10
1.0
 20
0.0
 30
0.0
  9
$PUCSYDIR
 10
0.0
 20
1.0
 30
0.0
  9
$PUCSORTHOREF
  2

  9
$PUCSORTHOVIEW
 70
0
  9
$PUCSORGTOP
 10
0.0
 20
0.0
 30
0.0
  9
$PUCSORGBOTTOM
 10
0.0
 20
0.0
 30
0.0
  9
$PUCSORGLEFT
 10
0.0
 20
0.0
 30
0.0
  9
$PUCSORGRIGHT
 10
0.0
 20
0.0
 30
0.0
  9
$PUCSORGFRONT
 10
0.0
 20
0.0
 30
0.0
  9
$PUCSORGBACK
 10
0.0
 20
0.0
 30
0.0
  9
$USERI1
 70
0
  9
$USERI2
 70
0
  9
$USERI3
 70
0
  9
$USERI4
 70
0
  9
$USERI5
 70
0
  9
$USERR1
 40
0.0
  9
$USERR2
 40
0.0
  9
$USERR3
 40
0.0
  9
$USERR4
 40
0.0
  9
$USERR5
 40
0.0
  9
$WORLDVIEW
 70
1
  9
$SHADEDGE
 70
3
  9
$SHADEDIF
 70
70
  9
$TILEMODE
 70
1
  9
$MAXACTVP
 70
64
  9
$PINSBASE
 10
0.0
 20
0.0
 30
0.0
  9
$PLIMCHECK
 70
0
  9
$PEXTMIN
 10
1e+20
 20
1e+20
 30
1e+20
  9
$PEXTMAX
 10
-1e+20
 20
-1e+20
 30
-1e+20
  9
$PLIMMIN
 10
0.0
 20
0.0
  9
$PLIMMAX
 10
420.0
 20
297.0
  9
$UNITMODE
 70
0
  9
$VISRETAIN
 70
1
  9
$PLINEGEN
 70
0
  9
$PSLTSCALE
 70
1
  9
$TREEDEPTH
 70
3020
  9
$CMLSTYLE
  2
Standard
  9
$CMLJUST
 70
0
  9
$CMLSCALE
 40
20.0
  9
$PROXYGRAPHICS
 70
1
  9
$MEASUREMENT
 70
1
  9
$CELWEIGHT
370
-1
  9
$ENDCAPS
280
0
  9
$JOINSTYLE
280
0
  9
$LWDISPLAY
290
0
  9
$INSUNITS
 70
4
  9
$HYPERLINKBASE
  1

  9
$STYLESHEET
  1

  9
$XEDIT
290
1
  9
$CEPSNTYPE
380
0
  9
$PSTYLEMODE
290
1
  9
$FINGERPRINTGUID
  2
{EF3A8189-718E-4DAD-90B5-106BBAD437B8}
  9
$VERSIONGUID
  2
{CEFA8ADD-358C-41EF-8A69-87289A7306EE}
  9
$EXTNAMES
290
1
  9
$PSVPSCALE
 40
0.0
  9
$OLESTARTUP
290
0
  9
$SORTENTS
280
127
  9
$INDEXCTL
280
0
  9
$HIDETEXT
280
1
  9
$XCLIPFRAME
280
1
  9
$HALOGAP
280
0
  9
$OBSCOLOR
 70
257
  9
$OBSLTYPE
280
0
  9
$INTERSECTIONDISPLAY
280
0
  9
$INTERSECTIONCOLOR
 70
257
  9
$DIMASSOC
280
2
  9
$PROJECTNAME
  1

  9
$CAMERADISPLAY
290
0
  9
$LENSLENGTH
 40
50.0
  9
$CAMERAHEIGHT
 40
0.0
  9
$STEPSPERSEC
 40
24.0
  9
$STEPSIZE
 40
100.0
  9
$3DDWFPREC
 40
2.0
  9
$PSOLWIDTH
 40
0.005
  9
$PSOLHEIGHT
 40
0.08
  9
$LOFTANG1
 40
1.570796326795
  9
$LOFTANG2
 40
1.570796326795
  9
$LOFTMAG1
 40
0.0
  9
$LOFTMAG2
 40
0.0
  9
$LOFTPARAM
 70
7
  9
$LOFTNORMALS
280
1
  9
$LATITUDE
 40
37.795
  9
$LONGITUDE
 40
-122.394
  9
$NORTHDIRECTION
 40
0.0
  9
$TIMEZONE
 70
-8000
  9
$LIGHTGLYPHDISPLAY
280
1
  9
$TILEMODELIGHTSYNCH
280
1
  9
$CMATERIAL
347
20
  9
$SOLIDHIST
280
0
  9
$SHOWHIST
280
1
  9
$DWFFRAME
280
2
  9
$DGNFRAME
280
2
  9
$REALWORLDSCALE
290
1
  9
$INTERFERECOLOR
 62
256
  9
$CSHADOW
280
0
  9
$SHADOWPLANELOCATION
 40
0.0
  0
ENDSEC
  0
SECTION
  2
CLASSES
  0
CLASS
  1
ACDBDICTIONARYWDFLT
  2
AcDbDictionaryWithDefault
  3
ObjectDBX Classes
 90
0
 91
0
280
0
281
0
  0
CLASS
  1
SUN
  2
AcDbSun
  3
SCENEOE
 90
1153
 91
0
280
0
281
0
  0
CLASS
  1
VISUALSTYLE
  2
AcDbVisualStyle
  3
ObjectDBX Classes
 90
4095
 91
0
280
0
281
0
  0
CLASS
  1
MATERIAL
  2
AcDbMaterial
  3
ObjectDBX Classes
 90
1153
 91
0
280
0
281
0
  0
CLASS
  1
SCALE
  2
AcDbScale
  3
ObjectDBX Classes
 90
1153
 91
0
280
0
281
0
  0
CLASS
  1
TABLESTYLE
  2
AcDbTableStyle
  3
ObjectDBX Classes
 90
4095
 91
0
280
0
281
0
  0
CLASS
  1
MLEADERSTYLE
  2
AcDbMLeaderStyle
  3
ACDB_MLEADERSTYLE_CLASS
 90
4095
 91
0
280
0
281
0
  0
CLASS
  1
DICTIONARYVAR
  2
AcDbDictionaryVar
  3
ObjectDBX Classes
 90
0
 91
0
280
0
281
0
  0
CLASS
  1
CELLSTYLEMAP
  2
AcDbCellStyleMap
  3
ObjectDBX Classes
 90
1152
 91
0
280
0
281
0
  0
CLASS
  1
MENTALRAYRENDERSETTINGS
  2
AcDbMentalRayRenderSettings
  3
SCENEOE
 90
1024
 91
0
280
0
281
0
  0
CLASS
  1
ACDBDETAILVIEWSTYLE
  2
AcDbDetailViewStyle
  3
ObjectDBX Classes
 90
1025
 91
0
280
0
281
0
  0
CLASS
  1
ACDBSECTIONVIEWSTYLE
  2
AcDbSectionViewStyle
  3
ObjectDBX Classes
 90
1025
 91
0
280
0
281
0
  0
CLASS
  1
RASTERVARIABLES
  2
AcDbRasterVariables
  3
ISM
 90
0
 91
0
280
0
281
0
  0
CLASS
  1
LAYOUT
  2
AcDbLayout
  3
ObjectDBX Classes
 90
0
 91
0
280
0
281
0
  0
CLASS
  1
ACDBPLACEHOLDER
  2
AcDbPlaceHolder
  3
ObjectDBX Classes
 90
0
 91
0
280
0
281
0
  0
ENDSEC
  0
SECTION
  2
TABLES
  0
TABLE
  2
VPORT
  5
8
330
0
100
AcDbSymbolTable
 70
1
  0
VPORT
  5
7F
330
8
100
AcDbSymbolTableRecord
100
AcDbViewportTableRecord
  2
*Active
 70
0
 10
0.0
 20
0.0
 11
1.0
 21
1.0
 12
2.176620708076525
 22
-56.18618576310563
 13
0.0
 23
0.0
 14
0.5
 24
0.5
 15
0.5
 25
0.5
 16
0.0
 26
0.0
 36
1.0
 17
0.0
 27
0.0
 37
0.0
 40
156.27433415209666
 41
1.34
 42
50.0
 43
0.0
 44
0.0
 50
0.0
 51
0.0
 71
0
 72
1000
 73
1
 74
3
 75
0
 76
0
 77
0
 78
0
281
0
 65
1
110
0.0
120
0.0
130
0.0
111
1.0
121
0.0
131
0.0
112
0.0
122
1.0
132
0.0
 79
0
146
0.0
  0
ENDTAB
  0
TABLE
  2
LTYPE
  5
2
330
0
100
AcDbSymbolTable
 70
4
  0
LTYPE
  5
24
330
2
100
AcDbSymbolTableRecord
100
AcDbLinetypeTableRecord
  2
ByBlock
 70
0
  3

 72
65
 73
0
 40
0.0
  0
LTYPE
  5
25
330
2
100
AcDbSymbolTableRecord
100
AcDbLinetypeTableRecord
  2
ByLayer
 70
0
  3

 72
65
 73
0
 40
0.0
  0
LTYPE
  5
26
330
2
100
AcDbSymbolTableRecord
100
AcDbLinetypeTableRecord
  2
Continuous
 70
0
  3

 72
65
 73
0
 40
0.0
  0
LTYPE
  5
30
330
2
100
AcDbSymbolTableRecord
100
AcDbLinetypeTableRecord
  2
ACAD_ISO02W100
 70
0
  3
ISO dash __ __ __ __ __ __ __ __ __ __ __ __ __
 72
65
 73
2
 40
15.0
 49
12.0
 74
0
 49
-3.0
 74
0
  0
ENDTAB
  0
TABLE
  2
LAYER
  5
1
330
0
100
AcDbSymbolTable
 70
4
  0
LAYER
  5
27
330
1
100
AcDbSymbolTableRecord
100
AcDbLayerTableRecord
  2
0
 70
0
 62
7
  6
Continuous
370
-3
390
13
347
21
  0
LAYER
  5
28
330
1
100
AcDbSymbolTableRecord
100
AcDbLayerTableRecord
  2
Defpoints
 70
0
 62
7
  6
Continuous
290
0
370
-3
390
13
347
21
  0
LAYER
  5
2F
330
1
100
AcDbSymbolTableRecord
100
AcDbLayerTableRecord
  2
VISIBLE
 70
0
 62
7
  6
Continuous
370
25
390
13
347
21
  0
LAYER
  5
31
330
1
100
AcDbSymbolTableRecord
100
AcDbLayerTableRecord
  2
HIDDEN
 70
0
 62
7
  6
ACAD_ISO02W100
370
13
390
13
347
21
  0
ENDTAB
  0
TABLE
  2
STYLE
  5
5
330
0
100
AcDbSymbolTable
 70
1
  0
STYLE
  5
29
330
5
100
AcDbSymbolTableRecord
100
AcDbTextStyleTableRecord
  2
Standard
 70
0
 40
0.0
 41
1.0
 50
0.0
 71
0
 42
2.5
  3
txt
  4

  0
ENDTAB
  0
TABLE
  2
VIEW
  5
7
330
0
100
AcDbSymbolTable
 70
0
  0
ENDTAB
  0
TABLE
  2
UCS
  5
6
330
0
100
AcDbSymbolTable
 70
0
  0
ENDTAB
  0
TABLE
  2
APPID
  5
3
330
0
100
AcDbSymbolTable
 70
3
  0
APPID
  5
2A
330
3
100
AcDbSymbolTableRecord
100
AcDbRegAppTableRecord
  2
ACAD
 70
0
  0
APPID
  5
80
330
3
100
AcDbSymbolTableRecord
100
AcDbRegAppTableRecord
  2
HATCHBACKGROUNDCOLOR
 70
0
  0
APPID
  5
81
330
3
100
AcDbSymbolTableRecord
100
AcDbRegAppTableRecord
  2
EZDXF
 70
0
  0
ENDTAB
  0
TABLE
  2
DIMSTYLE
  5
4
330
0
100
AcDbSymbolTable
 70
1
100
AcDbDimStyleTable
  0
DIMSTYLE
105
2B
330
4
100
AcDbSymbolTableRecord
100
AcDbDimStyleTableRecord
  2
Standard
 70
0
 40
1.0
 41
2.5
 42
0.625
 43
3.75
 44
1.25
 45
0.0
 46
0.0
 47
0.0
 48
0.0
 49
2.5
140
2.5
141
2.5
142
0.0
143
0.03937007874
144
1.0
145
0.0
146
1.0
147
0.625
148
0.0
 69
0
 70
0
 71
0
 72
0
 73
0
 74
0
 75
0
 76
0
 77
1
 78
8
 79
3
170
0
171
3
172
1
173
0
174
0
175
0
176
0
177
0
178
0
179
2
271
2
272
2
273
2
274
3
275
0
276
0
277
2
278
44
279
0
280
0
281
0
282
0
283
0
284
8
285
0
286
0
288
0
289
3
290
0
371
-2
372
-2
  0
ENDTAB
  0
TABLE
  2
BLOCK_RECORD
  5
9
330
0
100
AcDbSymbolTable
 70
2
  0
BLOCK_RECORD
  5
17
330
9
100
AcDbSymbolTableRecord
100
AcDbBlockTableRecord
  2
*Model_Space
340
1A
 70
0
280
1
281
0
  0
BLOCK_RECORD
  5
1B
330
9
100
AcDbSymbolTableRecord
100
AcDbBlockTableRecord
  2
*Paper_Space
340
1E
 70
0
280
1
281
0
  0
ENDTAB
  0
ENDSEC
  0
SECTION
  2
BLOCKS
  0
BLOCK
  5
18
330
17
100
AcDbEntity
  8
0
100
AcDbBlockBegin
  2
*Model_Space
 70
0
 10
0.0
 20
0.0
 30
0.0
  3
*Model_Space
  1

  0
ENDBLK
  5
19
330
17
100
AcDbEntity
  8
0
100
AcDbBlockEnd
  0
BLOCK
  5
1C
330
1B
100
AcDbEntity
  8
0
100
AcDbBlockBegin
  2
*Paper_Space
 70
0
 10
0.0
 20
0.0
 30
0.0
  3
*Paper_Space
  1

  0
ENDBLK
  5
1D
330
1B
100
AcDbEntity
  8
0
100
AcDbBlockEnd
  0
ENDSEC
  0
SECTION
  2
ENTITIES
  0
SPLINE
  5
32
330
17
100
AcDbEntity
  8
VISIBLE
100
AcDbSpline
 70
0
 71
3
 72
11
 73
7
 74
0
 40
0.0
 40
0.0
 40
0.0
 40
0.0
 40
0.053988445007471145
 40
0.053988445007471145
 40
0.053988445007471145
 40
0.10797689001494229
 40
0.10797689001494229
 40
0.10797689001494229
 40
0.10797689001494229
 10
10.262891253599033
 20
8.771655428769861
 30
0.0
 10
11.062878410051766
 20
9.233066774937903
 30
0.0
 10
11.663571064352036
 20
9.809309082524365
 30
0.0
 10
12.030962743859831
 20
10.467760079246549
 30
0.0
 10
12.399291379747565
 20
11.125881717889134
 30
0.0
 10
12.534134410250537
 20
11.865881572407053
 30
0.0
 10
12.427858096667588
 20
12.645866743031954
 30
0.0
  0
SPLINE
  5
33
330
17
100
AcDbEntity
  8
VISIBLE
100
AcDbSpline
 70
0
 71
3
 72
29
 73
25
 74
0
 40
0.0
 40
0.0
 40
0.0
 40
0.0
 40
0.125
 40
0.125
 40
0.125
 40
0.24999999999999994
 40
0.24999999999999994
 40
0.24999999999999994
 40
0.375
 40
0.375
 40
0.375
 40
0.49999999999999994
 40
0.49999999999999994
 40
0.49999999999999994
 40
0.6249999999999999
 40
0.6249999999999999
 40
0.6249999999999999
 40
0.7499999999999999
 40
0.7499999999999999
 40
0.7499999999999999
 40
0.8750000000000001
 40
0.8750000000000001
 40
0.8750000000000001
 40
1.0
 40
1.0
 40
1.0
 40
1.0
 10
12.427858096667586
 20
12.645866743031954
 30
0.0
 10
12.30644588043241
 20
13.547119418576973
 30
0.0
 10
11.86184251344483
 20
14.501316958603649
 30
0.0
 10
11.127487627103894
 20
15.436691940589634
 30
0.0
 10
10.39467262014556
 20
16.372169294067646
 30
0.0
 10
9.372762145771178
 20
17.287987543555634
 30
0.0
 10
8.138616482929526
 20
18.115265883179287
 30
0.0
 10
6.905597082090767
 20
18.943017267867447
 30
0.0
 10
5.461445682229758
 20
19.681488699332824
 30
0.0
 10
3.914780250551272
 20
20.275138024035503
 30
0.0
 10
2.368656566105584
 20
20.869559288170706
 30
0.0
 10
0.7214017824745353
 20
21.318627199444865
 30
0.0
 10
-0.903090249802958
 20
21.588566314233454
 30
0.0
 10
-2.5277072557870444
 20
21.859459127640296
 30
0.0
 10
-4.128108673683537
 20
21.95098131294269
 30
0.0
 10
-5.583924588311726
 20
21.856249279614303
 30
0.0
 10
-7.040513235088733
 20
21.76250798776819
 30
0.0
 10
-8.351214099582265
 20
21.48259675401333
 30
0.0
 10
-9.417446331049915
 20
21.0375683520133
 30
0.0
 10
-10.484981796543542
 20
20.59341739827083
 30
0.0
 10
-11.307094520061389
 20
19.984546870533695
 30
0.0
 10
-11.82195150388218
 20
19.256751328747647
 30
0.0
 10
-12.338444468663377
 20
18.5295867971952
 30
0.0
 10
-12.54722052728919
 20
17.684147834306604
 30
0.0
 10
-12.432577140727496
 20
16.784021869245414
 30
0.0
  0
SPLINE
  5
34
330
17
100
AcDbEntity
  8
VISIBLE
100
AcDbSpline
 70
0
 71
3
 72
17
 73
13
 74
0
 40
0.0
 40
0.0
 40
0.0
 40
0.0
 40
0.25
 40
0.25
 40
0.25
 40
0.5
 40
0.5
 40
0.5
 40
0.75
 40
0.75
 40
0.75
 40
1.0
 40
1.0
 40
1.0
 40
1.0
 10
-12.432577140727497
 20
16.784021869245414
 30
0.0
 10
-12.258553826150024
 20
15.36764700864599
 30
0.0
 10
-11.26654198371223
 20
13.817725637250375
 30
0.0
 10
-9.635755668682554
 20
12.4142621645942
 30
0.0
 10
-8.012961559234883
 20
11.008905366982384
 30
0.0
 10
-5.760237800420755
 20
9.757642175103602
 30
0.0
 10
-3.284555079295145
 20
8.886522249531636
 30
0.0
 10
-0.8115966767406461
 20
8.01058297540516
 30
0.0
 10
1.87086794950363
 20
7.519536349822401
 30
0.0
 10
4.278232292118336
 20
7.502093444153764
 30
0.0
 10
6.689145134035252
 20
7.478682900312527
 30
0.0
 10
8.811859242280239
 20
7.928987076789702
 30
0.0
 10
10.262891253599022
 20
8.77165542876985
 30
0.0
  0
SPLINE
  5
35
330
17
100
AcDbEntity
  8
VISIBLE
100
AcDbSpline
 70
0
 71
3
 72
11
 73
7
 74
0
 40
0.0
 40
0.0
 40
0.0
 40
0.0
 40
0.49642958469181625
 40
0.49642958469181625
 40
0.49642958469181625
 40
1.0
 40
1.0
 40
1.0
 40
1.0
 10
9.590278384997
 20
-120.66830688566397
 30
0.0
 10
9.467270579422852
 20
-120.74520603251528
 30
0.0
 10
9.32103373778139
 20
-120.7250237900468
 30
0.0
 10
9.186416638108419
 20
-120.64369267412896
 30
0.0
 10
9.051369756704439
 20
-120.5649371560281
 30
0.0
 10
8.925512332433948
 20
-120.4532024973048
 30
0.0
 10
8.797159197043502
 20
-120.33483259998161
 30
0.0
  0
SPLINE
  5
36
330
17
100
AcDbEntity
  8
VISIBLE
100
AcDbSpline
 70
0
 71
3
 72
20
 73
16
 74
0
 40
0.0
 40
0.0
 40
0.0
 40
0.0
 40
0.15297733964982088
 40
0.15297733964982088
 40
0.15297733964982088
 40
0.30595467929964176
 40
0.30595467929964176
 40
0.30595467929964176
 40
0.5931650340864003
 40
0.5931650340864003
 40
0.5931650340864003
 40
0.7863291649872652
 40
0.7863291649872652
 40
0.7863291649872652
 40
1.0
 40
1.0
 40
1.0
 40
1.0
 10
7.141778489984108
 20
-116.25055328471059
 30
0.0
 10
7.195199689774378
 20
-116.46648275684876
 30
0.0
 10
7.263334330672016
 20
-116.73149292849268
 30
0.0
 10
7.331134327139223
 20
-116.97970102574885
 30
0.0
 10
7.399832557052637
 20
-117.23129279425736
 30
0.0
 10
7.467421314623861
 20
-117.46682496817608
 30
0.0
 10
7.543620542853933
 20
-117.71549815064134
 30
0.0
 10
7.687974782268745
 20
-118.18503421042828
 30
0.0
 10
7.845243673614261
 20
-118.64302692848868
 30
0.0
 10
8.028470439113855
 20
-119.07469742162738
 30
0.0
 10
8.15188091319222
 20
-119.36447035088023
 30
0.0
 10
8.274705880324214
 20
-119.61118659949578
 30
0.0
 10
8.396945340509834
 20
-119.81484616747414
 30
0.0
 10
8.53050600453764
 20
-120.03829962669963
 30
0.0
 10
8.667162903559948
 20
-120.2141880268202
 30
0.0
 10
8.79715919704351
 20
-120.33483259998161
 30
0.0
  0
SPLINE
  5
37
330
17
100
AcDbEntity
  8
VISIBLE
100
AcDbSpline
 70
0
 71
2
 72
6
 73
3
 74
0
 40
0.0
 40
0.0
 40
0.0
 40
0.6893744251219218
 40
0.6893744251219218
 40
0.6893744251219218
 10
7.141778489984108
 20
-116.25055328471062
 30
0.0
 10
6.424587261927336
 20
-121.42236568134459
 30
0.0
 10
5.558784183174257
 20
-126.4802129697802
 30
0.0
  0
SPLINE
  5
38
330
17
100
AcDbEntity
  8
VISIBLE
100
AcDbSpline
 70
0
 71
3
 72
20
 73
16
 74
0
 40
0.0
 40
0.0
 40
0.0
 40
0.0
 40
0.07240253157113585
 40
0.07240253157113585
 40
0.07240253157113585
 40
0.20018317912527817
 40
0.20018317912527817
 40
0.20018317912527817
 40
0.3503733482658504
 40
0.3503733482658504
 40
0.3503733482658504
 40
0.6122725722676577
 40
0.6122725722676577
 40
0.6122725722676577
 40
0.9999998059069416
 40
0.9999998059069416
 40
0.9999998059069416
 40
0.9999998059069416
 10
9.370928793356846
 20
-122.21400775915991
 30
0.0
 10
9.289227879567035
 20
-122.26092241107499
 30
0.0
 10
9.201575031700445
 20
-122.34160445530665
 30
0.0
 10
9.116959636976517
 20
-122.4336214340812
 30
0.0
 10
8.967229418612023
 20
-122.5971958501603
 30
0.0
 10
8.822964128405548
 20
-122.78771301028259
 30
0.0
 10
8.679012678729947
 20
-122.97609149006604
 30
0.0
 10
8.509204747036694
 20
-123.2016359965993
 30
0.0
 10
8.332992999536888
 20
-123.4333367896358
 30
0.0
 10
8.150377436230489
 20
-123.67119386917534
 30
0.0
 10
7.833276309751037
 20
-124.08369199298386
 30
0.0
 10
7.504284058334019
 20
-124.48394094703802
 30
0.0
 10
7.163400681979438
 20
-124.8719407313377
 30
0.0
 10
6.658267421002383
 20
-125.44681699768664
 30
0.0
 10
6.12339525553603
 20
-125.98290774446394
 30
0.0
 10
5.558784185580405
 20
-126.48021297167014
 30
0.0
  0
SPLINE
  5
39
330
17
100
AcDbEntity
  8
VISIBLE
100
AcDbSpline
 70
0
 71
3
 72
8
 73
4
 74
0
 40
0.0
 40
0.0
 40
0.0
 40
0.0
 40
0.07606330949231942
 40
0.07606330949231942
 40
0.07606330949231942
 40
0.07606330949231942
 10
7.608695239737207
 20
-133.3993420314248
 30
0.0
 10
8.398529899696952
 20
-132.944662813313
 30
0.0
 10
8.89137873761963
 20
-132.31941527115205
 30
0.0
 10
9.032720806246747
 20
-131.5927668910276
 30
0.0
  0
SPLINE
  5
3A
330
17
100
AcDbEntity
  8
VISIBLE
100
AcDbSpline
 70
0
 71
3
 72
17
 73
13
 74
0
 40
0.0
 40
0.0
 40
0.0
 40
0.0
 40
0.25000000000000006
 40
0.25000000000000006
 40
0.25000000000000006
 40
0.4999999999999999
 40
0.4999999999999999
 40
0.4999999999999999
 40
0.7499999999999999
 40
0.7499999999999999
 40
0.7499999999999999
 40
1.0
 40
1.0
 40
1.0
 40
1.0
 10
-9.063043704973786
 20
-126.62005597169036
 30
0.0
 10
-9.177805653200133
 20
-127.63831653502079
 30
0.0
 10
-8.616868620964594
 20
-128.83088438441013
 30
0.0
 10
-7.493693661569584
 20
-129.9565380983868
 30
0.0
 10
-6.3783716701376525
 20
-131.08318744090826
 30
0.0
 10
-4.7085234641270235
 20
-132.13516340184012
 30
0.0
 10
-2.8219102448627673
 20
-132.89968219305928
 30
0.0
 10
-0.9382542301469823
 20
-133.66828086303568
 30
0.0
 10
1.1491781378587351
 20
-134.14414070041073
 30
0.0
 10
3.018160657901768
 20
-134.23100925350963
 30
0.0
 10
4.890306038254037
 20
-134.32335283915396
 30
0.0
 10
6.531113203587801
 20
-134.0260878093658
 30
0.0
 10
7.608695239737203
 20
-133.39934203142482
 30
0.0
  0
SPLINE
  5
3B
330
17
100
AcDbEntity
  8
VISIBLE
100
AcDbSpline
 70
0
 71
3
 72
17
 73
13
 74
0
 40
0.0
 40
0.0
 40
0.0
 40
0.0
 40
0.5886770237224892
 40
0.5886770237224892
 40
0.5886770237224892
 40
0.8034892393854798
 40
0.8034892393854798
 40
0.8034892393854798
 40
0.9061656203441806
 40
0.9061656203441806
 40
0.9061656203441806
 40
1.0
 40
1.0
 40
1.0
 40
1.0
 10
10.508531653886196
 20
-123.62247493842312
 30
0.0
 10
10.507059534423677
 20
-123.36638846181992
 30
0.0
 10
10.38929755828261
 20
-123.0313202291127
 30
0.0
 10
10.153733284085424
 20
-122.66836337098184
 30
0.0
 10
10.066625371773677
 20
-122.53786920350888
 30
0.0
 10
9.964882699892003
 20
-122.40121303429225
 30
0.0
 10
9.833143622778291
 20
-122.28759741937111
 30
0.0
 10
9.77013378939947
 20
-122.2313996813574
 30
0.0
 10
9.70055726814065
 20
-122.19218321480517
 30
0.0
 10
9.62441405900184
 20
-122.1699480197143
 30
0.0
 10
9.554979212721637
 20
-122.15194007429051
 30
0.0
 10
9.470572828184483
 20
-122.15625238126863
 30
0.0
 10
9.370928793356846
 20
-122.21400775915986
 30
0.0
  0
SPLINE
  5
3C
330
17
100
AcDbEntity
  8
VISIBLE
100
AcDbSpline
 70
0
 71
2
 72
6
 73
3
 74
0
 40
0.0
 40
0.0
 40
0.0
 40
0.6893744251219276
 40
0.6893744251219276
 40
0.6893744251219276
 10
12.091525958289942
 20
-113.39281525146343
 30
0.0
 10
11.374334730233157
 20
-118.56462764809747
 30
0.0
 10
10.508531651480045
 20
-123.62247493653322
 30
0.0
  0
SPLINE
  5
3D
330
17
100
AcDbEntity
  8
VISIBLE
100
AcDbSpline
 70
0
 71
3
 72
20
 73
16
 74
0
 40
0.0
 40
0.0
 40
0.0
 40
0.0
 40
0.1529773396416804
 40
0.1529773396416804
 40
0.1529773396416804
 40
0.3059546792833608
 40
0.3059546792833608
 40
0.3059546792833608
 40
0.5931650340727742
 40
0.5931650340727742
 40
0.5931650340727742
 40
0.786329164975389
 40
0.786329164975389
 40
0.786329164975389
 40
1.0
 40
1.0
 40
1.0
 40
1.0
 10
12.09152595828994
 20
-113.39281525146345
 30
0.0
 10
12.03810475848105
 20
-113.6704302118562
 30
0.0
 10
11.96997011759083
 20
-114.01411548998564
 30
0.0
 10
11.902170121123884
 20
-114.34061227966276
 30
0.0
 10
11.833471891212499
 20
-114.67152993122754
 30
0.0
 10
11.765883133634583
 20
-114.98510687993105
 30
0.0
 10
11.689683905407417
 20
-115.32176735224263
 30
0.0
 10
11.54750353636331
 20
-115.95794230790699
 30
0.0
 10
11.385886904276772
 20
-116.59762754364657
 30
0.0
 10
11.204834009147755
 20
-117.2408230594607
 30
0.0
 10
11.08142353506945
 20
-117.67309812957043
 30
0.0
 10
10.95859856793752
 20
-118.06164043385671
 30
0.0
 10
10.83635910775197
 20
-118.40644997231969
 30
0.0
 10
10.702798443731819
 20
-118.78412600218523
 30
0.0
 10
10.566141544686399
 20
-119.1178121972253
 30
0.0
 10
10.43614525123061
 20
-119.38856356039864
 30
0.0
  0
SPLINE
  5
3E
330
17
100
AcDbEntity
  8
VISIBLE
100
AcDbSpline
 70
0
 71
3
 72
11
 73
7
 74
0
 40
0.0
 40
0.0
 40
0.0
 40
0.0
 40
0.5275883499886226
 40
0.5275883499886226
 40
0.5275883499886226
 40
1.0
 40
1.0
 40
1.0
 40
1.0
 10
10.436145251230581
 20
-119.38856356039865
 30
0.0
 10
10.310433436881748
 20
-119.65474101250695
 30
0.0
 10
10.174467148050827
 20
-119.90946359134145
 30
0.0
 10
10.028246384737825
 20
-120.1527312969022
 30
0.0
 10
9.897492756301888
 20
-120.36414398339193
 30
0.0
 10
9.747756584131963
 20
-120.57670594173969
 30
0.0
 10
9.59027838499703
 20
-120.66830688566372
 30
0.0
  0
SPLINE
  5
3F
330
17
100
AcDbEntity
  8
VISIBLE
100
AcDbSpline
 70
0
 71
3
 72
11
 73
7
 74
0
 40
0.0
 40
0.0
 40
0.0
 40
0.0
 40
0.10499743476313064
 40
0.10499743476313064
 40
0.10499743476313064
 40
0.20999486952626129
 40
0.20999486952626129
 40
0.20999486952626129
 40
0.20999486952626129
 10
-2.99870223838501
 20
-6.630281030117411
 30
0.0
 10
-3.024477839215252
 20
-7.289855937862682
 30
0.0
 10
-3.1823317315744046
 20
-7.8931259254762525
 30
0.0
 10
-3.4462423279466115
 20
-8.3912714562413
 30
0.0
 10
-3.709469772199135
 20
-8.88972526468499
 30
0.0
 10
-4.077690882561198
 20
-9.28278333118362
 30
0.0
 10
-4.506128961650822
 20
-9.529817997293899
 30
0.0
  0
SPLINE
  5
40
330
17
100
AcDbEntity
  8
VISIBLE
100
AcDbSpline
 70
0
 71
3
 72
29
 73
25
 74
0
 40
0.0
 40
0.0
 40
0.0
 40
0.0
 40
0.13847058439329316
 40
0.13847058439329316
 40
0.13847058439329316
 40
0.20971535189191373
 40
0.20971535189191373
 40
0.20971535189191373
 40
0.33980076746398347
 40
0.33980076746398347
 40
0.33980076746398347
 40
0.545472345444941
 40
0.545472345444941
 40
0.545472345444941
 40
0.7033298323241277
 40
0.7033298323241277
 40
0.7033298323241277
 40
0.8060485297973958
 40
0.8060485297973958
 40
0.8060485297973958
 40
0.9087672272706644
 40
0.9087672272706644
 40
0.9087672272706644
 40
1.0
 40
1.0
 40
1.0
 40
1.0
 10
-4.506128961650822
 20
-9.529817997293899
 30
0.0
 10
-4.996805362179416
 20
-9.814572550179921
 30
0.0
 10
-5.567346442175565
 20
-9.902202717101865
 30
0.0
 10
-6.126762074721248
 20
-9.767930887997348
 30
0.0
 10
-6.416344750878731
 20
-9.698694527354277
 30
0.0
 10
-6.6973575360493545
 20
-9.575561197131439
 30
0.0
 10
-6.969800430233111
 20
-9.398530897328813
 30
0.0
 10
-7.465147427979582
 20
-9.0775549897489
 30
0.0
 10
-7.910419087261732
 20
-8.588193550121016
 30
0.0
 10
-8.283829829633664
 20
-7.994885584970076
 30
0.0
 10
-8.876610029264134
 20
-7.055506730465784
 30
0.0
 10
-9.294418897307347
 20
-5.863623688308236
 30
0.0
 10
-9.589681206519261
 20
-4.5945013160562045
 30
0.0
 10
-9.815861355107547
 20
-3.622625706978886
 30
0.0
 10
-9.975405475771836
 20
-2.5896984379645946
 30
0.0
 10
-10.067501539967227
 20
-1.6816683293362729
 30
0.0
 10
-10.12677024705212
 20
-1.091019319181211
 30
0.0
 10
-10.155218926926732
 20
-0.5654925002462612
 30
0.0
 10
-10.14437239082241
 20
-0.13354077029990874
 30
0.0
 10
-10.134843785945632
 20
0.2990518022010693
 30
0.0
 10
-10.081628840008465
 20
0.642902183995236
 30
0.0
 10
-9.984727553010936
 20
0.8980103750825903
 30
0.0
 10
-9.898417642837494
 20
1.1247327287972761
 30
0.0
 10
-9.771937419166697
 20
1.2862587039355062
 30
0.0
 10
-9.605286881998545
 20
1.3825883004972828
 30
0.0
  0
SPLINE
  5
41
330
17
100
AcDbEntity
  8
VISIBLE
100
AcDbSpline
 70
0
 71
3
 72
20
 73
16
 74
0
 40
0.0
 40
0.0
 40
0.0
 40
0.0
 40
0.23312052465260666
 40
0.23312052465260666
 40
0.23312052465260666
 40
0.5245439465891948
 40
0.5245439465891948
 40
0.5245439465891948
 40
0.6874595797436424
 40
0.6874595797436424
 40
0.6874595797436424
 40
0.8437297898718211
 40
0.8437297898718211
 40
0.8437297898718211
 40
1.0
 40
1.0
 40
1.0
 40
1.0
 10
-9.605286881998543
 20
1.382588300497283
 30
0.0
 10
-9.293883887661785
 20
1.5632920256171334
 30
0.0
 10
-8.824835024342372
 20
1.519823967477441
 30
0.0
 10
-8.213901643444403
 20
1.2396298057875765
 30
0.0
 10
-7.456633873599706
 20
0.8937730592436808
 30
0.0
 10
-6.472027607003156
 20
0.15874217748054226
 30
0.0
 10
-5.560865908184185
 20
-0.8309819418194356
 30
0.0
 10
-5.05264625325576
 20
-1.3824091376398264
 30
0.0
 10
-4.5716591338593355
 20
-2.008408799675255
 30
0.0
 10
-4.170434944482666
 20
-2.673495064161716
 30
0.0
 10
-3.785042057826795
 20
-3.311309919493533
 30
0.0
 10
-3.473213267776957
 20
-3.98668774330268
 30
0.0
 10
-3.270499516087058
 20
-4.660574931677799
 30
0.0
 10
-3.066828377192964
 20
-5.334167356214652
 30
0.0
 10
-2.9732437311827606
 20
-6.006585080545745
 30
0.0
 10
-2.998702238385011
 20
-6.63028103011741
 30
0.0
  0
SPLINE
  5
42
330
17
100
AcDbEntity
  8
VISIBLE
100
AcDbSpline
 70
0
 71
2
 72
6
 73
3
 74
0
 40
0.0
 40
0.0
 40
0.0
 40
1.0
 40
1.0
 40
1.0
 10
-4.059115321843715
 20
-2.862462392829101
 30
0.0
 10
-3.9278053173233007
 20
-4.090442039409859
 30
0.0
 10
-3.801473202792472
 20
-5.3162898636240685
 30
0.0
  0
SPLINE
  5
43
330
17
100
AcDbEntity
  8
VISIBLE
100
AcDbSpline
 70
0
 71
2
 72
6
 73
3
 74
0
 40
0.0
 40
0.0
 40
0.0
 40
1.0
 40
1.0
 40
1.0
 10
-3.2629581475578044
 20
-115.50311847670976
 30
0.0
 10
-3.389696503460882
 20
-116.8035150552971
 30
0.0
 10
-3.5209641771331133
 20
-118.10072982784826
 30
0.0
  0
SPLINE
  5
44
330
17
100
AcDbEntity
  8
VISIBLE
100
AcDbSpline
 70
0
 71
3
 72
8
 73
4
 74
0
 40
0.0
 40
0.0
 40
0.0
 40
0.0
 40
1.0
 40
1.0
 40
1.0
 40
1.0
 10
-5.247555921870993
 20
-117.8456328666172
 30
0.0
 10
-4.7097364871357295
 20
-117.83557995823698
 30
0.0
 10
-4.129797588579978
 20
-117.92975067387816
 30
0.0
 10
-3.5209641718755083
 20
-118.10072983155379
 30
0.0
  0
SPLINE
  5
45
330
17
100
AcDbEntity
  8
VISIBLE
100
AcDbSpline
 70
0
 71
3
 72
11
 73
7
 74
0
 40
0.0
 40
0.0
 40
0.0
 40
0.0
 40
0.1353203610974115
 40
0.1353203610974115
 40
0.1353203610974115
 40
0.270640722194823
 40
0.270640722194823
 40
0.270640722194823
 40
0.270640722194823
 10
-1.2528554173304371
 20
-119.93183722789935
 30
0.0
 10
-1.2033827828882258
 20
-120.54139373349291
 30
0.0
 10
-1.2906234850744214
 20
-121.1076399752225
 30
0.0
 10
-1.505781682714143
 20
-121.57898171931922
 30
0.0
 10
-1.719530449541232
 20
-122.05075603277491
 30
0.0
 10
-2.0593809348861405
 20
-122.42727118227987
 30
0.0
 10
-2.4772720758931026
 20
-122.66797826018428
 30
0.0
  0
SPLINE
  5
46
330
17
100
AcDbEntity
  8
VISIBLE
100
AcDbSpline
 70
0
 71
3
 72
29
 73
25
 74
0
 40
0.0
 40
0.0
 40
0.0
 40
0.0
 40
0.10842921290252276
 40
0.10842921290252276
 40
0.10842921290252276
 40
0.29032290842069075
 40
0.29032290842069075
 40
0.29032290842069075
 40
0.38031252892799383
 40
0.38031252892799383
 40
0.38031252892799383
 40
0.5301109407748933
 40
0.5301109407748933
 40
0.5301109407748933
 40
0.636908404584851
 40
0.636908404584851
 40
0.636908404584851
 40
0.7460710254156614
 40
0.7460710254156614
 40
0.7460710254156614
 40
0.8657244974507381
 40
0.8657244974507381
 40
0.8657244974507381
 40
1.0
 40
1.0
 40
1.0
 40
1.0
 10
-2.4772720758931026
 20
-122.6679782601843
 30
0.0
 10
-2.8601198319181282
 20
-122.88934584551163
 30
0.0
 10
-3.3083860673648813
 20
-122.99711737152727
 30
0.0
 10
-3.776305267669068
 20
-122.97342473513459
 30
0.0
 10
-4.562370462057123
 20
-122.93904562477393
 30
0.0
 10
-5.395967763988716
 20
-122.51231524609699
 30
0.0
 10
-6.057153801837789
 20
-121.78265204334856
 30
0.0
 10
-6.385665630680201
 20
-121.42398460888035
 30
0.0
 10
-6.674090164441228
 20
-120.9972686090389
 30
0.0
 10
-6.9138785579463695
 20
-120.52807145846623
 30
0.0
 10
-7.3143159654447105
 20
-119.74610821317434
 30
0.0
 10
-7.578201874874903
 20
-118.8517706405211
 30
0.0
 10
-7.728899173018906
 20
-117.92755950911243
 30
0.0
 10
-7.836989857573829
 20
-117.26816228026607
 30
0.0
 10
-7.888892741324858
 20
-116.59018578492147
 30
0.0
 10
-7.9027923666815845
 20
-115.91637353287724
 30
0.0
 10
-7.917302410832745
 20
-115.22950577753802
 30
0.0
 10
-7.891981425911911
 20
-114.53936664298611
 30
0.0
 10
-7.856528019531261
 20
-113.92880209983375
 30
0.0
 10
-7.816277446141217
 20
-113.25599740630553
 30
0.0
 10
-7.771739218870714
 20
-112.71691995103735
 30
0.0
 10
-7.718696363528954
 20
-112.36308397676183
 30
0.0
 10
-7.658214122473684
 20
-111.96273826431455
 30
0.0
 10
-7.578406098888219
 20
-111.75788155635372
 30
0.0
 10
-7.441586477466831
 20
-111.67772005772997
 30
0.0
  0
SPLINE
  5
47
330
17
100
AcDbEntity
  8
VISIBLE
100
AcDbSpline
 70
0
 71
3
 72
20
 73
16
 74
0
 40
0.0
 40
0.0
 40
0.0
 40
0.0
 40
0.28221700386235243
 40
0.28221700386235243
 40
0.28221700386235243
 40
0.4953134490532554
 40
0.4953134490532554
 40
0.4953134490532554
 40
0.6483818567828517
 40
0.6483818567828517
 40
0.6483818567828517
 40
0.8242413989474093
 40
0.8242413989474093
 40
0.8242413989474093
 40
1.0
 40
1.0
 40
1.0
 40
1.0
 10
-7.441586477466831
 20
-111.67772005772997
 30
0.0
 10
-7.228028732518046
 20
-111.55724528524388
 30
0.0
 10
-6.868374932424299
 20
-111.74096441567949
 30
0.0
 10
-6.270650130431614
 20
-112.23612205254487
 30
0.0
 10
-5.824211678149115
 20
-112.60930564383642
 30
0.0
 10
-5.2326138602589145
 20
-113.17854450652838
 30
0.0
 10
-4.580948564622383
 20
-113.8994067981128
 30
0.0
 10
-4.115044108149948
 20
-114.41540695393742
 30
0.0
 10
-3.627404834797438
 20
-115.00222348105737
 30
0.0
 10
-3.1801989271109656
 20
-115.61571761427207
 30
0.0
 10
-2.6658114731796325
 20
-116.32099954701654
 30
0.0
 10
-2.2058049148625996
 20
-117.0603527238155
 30
0.0
 10
-1.8661695214147063
 20
-117.79279818210985
 30
0.0
 10
-1.5258263502708695
 20
-118.52465041836817
 30
0.0
 10
-1.3061499353913104
 20
-119.25373769225261
 30
0.0
 10
-1.2528554173304374
 20
-119.93183722789935
 30
0.0
  0
ELLIPSE
  5
48
330
17
100
AcDbEntity
  8
VISIBLE
100
AcDbEllipse
 10
-2.4748737341529385
 20
-115.73839034650513
 30
0.0
 11
-2.999999999999999
 21
5.196152422706633
 31
0.0
 40
0.577350269189626
 41
0.5016873501653016
 42
2.6263787391584748
  0
ELLIPSE
  5
49
330
17
100
AcDbEntity
  8
VISIBLE
100
AcDbEllipse
 10
-2.4748737341529385
 20
-1.4288690166234659
 30
0.0
 11
-2.999999999999999
 21
5.196152422706633
 31
0.0
 40
0.577350269189626
 41
0.9429685487649038
 42
2.228819586239177
  0
ELLIPSE
  5
4A
330
17
100
AcDbEntity
  8
VISIBLE
100
AcDbEllipse
 10
2.474873734152894
 20
-112.88065231325808
 30
0.0
 11
-6.799999999999999
 21
11.777945491468365
 31
0.0
 40
0.5773502691896258
 41
1.6830022735070385
 42
1.952972871842774
  0
ELLIPSE
  5
4B
330
17
100
AcDbEntity
  8
VISIBLE
100
AcDbEllipse
 10
2.474873734152894
 20
-112.88065231325808
 30
0.0
 11
-6.799999999999999
 21
11.777945491468365
 31
0.0
 40
0.5773502691896258
 41
2.7062502162544755
 42
2.820188073682318
  0
SPLINE
  5
4C
330
17
100
AcDbEntity
  8
VISIBLE
100
AcDbSpline
 70
0
 71
3
 72
17
 73
13
 74
0
 40
0.0
 40
0.0
 40
0.0
 40
0.0
 40
0.43345617506494516
 40
0.43345617506494516
 40
0.43345617506494516
 40
0.6501842625974177
 40
0.6501842625974177
 40
0.6501842625974177
 40
0.8669123501298903
 40
0.8669123501298903
 40
0.8669123501298903
 40
1.0
 40
1.0
 40
1.0
 40
1.0
 10
12.427858096667592
 20
12.64586674303196
 30
0.0
 10
15.366212086040909
 20
-8.976377754409695
 30
0.0
 10
16.900461943442238
 20
-30.44058022789608
 30
0.0
 10
16.865027242801574
 20
-51.524712585707796
 30
0.0
 10
16.85019189251908
 20
-62.06630638155347
 30
0.0
 10
16.448079256002526
 20
-72.51257381308231
 30
0.0
 10
15.664998186988111
 20
-82.83060086117057
 30
0.0
 10
14.882792740647123
 20
-93.14810301130622
 30
0.0
 10
13.718929569705566
 20
-103.3385007664227
 30
0.0
 10
12.203964369130754
 20
-113.35460116357437
 30
0.0
 10
11.274110057948034
 20
-119.50487591944092
 30
0.0
 10
10.212440448057553
 20
-125.58968725998993
 30
0.0
 10
9.03272080624674
 20
-131.5927668910276
 30
0.0
  0
SPLINE
  5
4D
330
17
100
AcDbEntity
  8
VISIBLE
100
AcDbSpline
 70
0
 71
3
 72
14
 73
10
 74
0
 40
0.0
 40
0.0
 40
0.0
 40
0.0
 40
0.3707303416398555
 40
0.3707303416398555
 40
0.3707303416398555
 40
0.6853651708199278
 40
0.6853651708199278
 40
0.6853651708199278
 40
1.0
 40
1.0
 40
1.0
 40
1.0
 10
-12.432577140727503
 20
16.784021869245414
 30
0.0
 10
-9.955416893489632
 20
-2.8154601201927276
 30
0.0
 10
-8.253226921306979
 20
-21.908794754273558
 30
0.0
 10
-7.306098519284405
 20
-40.25847523816411
 30
0.0
 10
-6.502725364148929
 20
-55.83369272204546
 30
0.0
 10
-6.24321426062408
 20
-70.87380144059173
 30
0.0
 10
-6.529363964898973
 20
-85.27952930930994
 30
0.0
 10
-6.817362421197076
 20
-99.69056458995298
 30
0.0
 10
-7.644067730275713
 20
-113.45429499427935
 30
0.0
 10
-9.063043704973783
 20
-126.62005597169035
 30
0.0
  0
SPLINE
  5
4E
330
17
100
AcDbEntity
  8
HIDDEN
100
AcDbSpline
 70
0
 71
3
 72
29
 73
25
 74
0
 40
0.0
 40
0.0
 40
0.0
 40
0.0
 40
0.12500000000000003
 40
0.12500000000000003
 40
0.12500000000000003
 40
0.25
 40
0.25
 40
0.25
 40
0.375
 40
0.375
 40
0.375
 40
0.5
 40
0.5
 40
0.5
 40
0.625
 40
0.625
 40
0.625
 40
0.75
 40
0.75
 40
0.75
 40
0.8750000000000001
 40
0.8750000000000001
 40
0.8750000000000001
 40
1.0
 40
1.0
 40
1.0
 40
1.0
 10
9.032720806246745
 20
-131.5927668910276
 30
0.0
 10
9.152254583396038
 20
-130.98803255880313
 30
0.0
 10
9.02934810290392
 20
-130.31418490633183
 30
0.0
 10
8.673527569494572
 20
-129.62345253920898
 30
0.0
 10
8.318982770379337
 20
-128.93281092128765
 30
0.0
 10
7.731861622469771
 20
-128.2259412943184
 30
0.0
 10
6.95767073127367
 20
-127.55763171582187
 30
0.0
 10
6.184503198999904
 20
-126.88910903846946
 30
0.0
 10
5.225001540533169
 20
-126.25978193523252
 30
0.0
 10
4.15353482632172
 20
-125.71842829687075
 30
0.0
 10
3.082679028406405
 20
-125.17659104336666
 30
0.0
 10
1.9008766286680405
 20
-124.72324220335385
 30
0.0
 10
0.6997267742789912
 20
-124.39351994990704
 30
0.0
 10
-0.5013201613428232
 20
-124.06311920861911
 30
0.0
 10
-1.7205725507857952
 20
-123.8566588760283
 30
0.0
 10
-2.8635285575208935
 20
-123.79014128076314
 30
0.0
 10
-4.006905742297519
 20
-123.7228564507206
 30
0.0
 10
-5.072899622666085
 20
-123.79557796638319
 30
0.0
 10
-5.978887126814814
 20
-124.00266932449608
 30
0.0
 10
-6.885754027336949
 20
-124.20902470746762
 30
0.0
 10
-7.6317527240846985
 20
-124.54955338099985
 30
0.0
 10
-8.159062346704886
 20
-124.99786164743199
 30
0.0
 10
-8.687572033068225
 20
-125.44558031487199
 30
0.0
 10
-8.996890711568478
 20
-126.00065260623569
 30
0.0
 10
-9.063043704973786
 20
-126.62005597169038
 30
0.0
  0
SPLINE
  5
4F
330
17
100
AcDbEntity
  8
HIDDEN
100
AcDbSpline
 70
0
 71
3
 72
17
 73
13
 74
0
 40
0.0
 40
0.0
 40
0.0
 40
0.0
 40
9.511805634177689
 40
9.511805634177689
 40
9.511805634177689
 40
14.02447827085702
 40
14.02447827085702
 40
14.02447827085702
 40
16.38318557456358
 40
16.38318557456358
 40
16.38318557456358
 40
22.468501927684464
 40
22.468501927684464
 40
22.468501927684464
 40
22.468501927684464
 10
11.483983612623534
 20
1.7313015445511524
 30
0.0
 10
11.417308191374092
 20
3.3393430756024167
 30
0.0
 10
10.751251614921399
 20
5.4822918823388544
 30
0.0
 10
9.585788412715052
 20
7.087105449439319
 30
0.0
 10
9.035182176410936
 20
7.849227397092732
 30
0.0
 10
8.370871455771086
 20
8.487559751201355
 30
0.0
 10
7.647926505185963
 20
8.909797354386757
 30
0.0
 10
7.268509620178228
 20
9.13187089541735
 30
0.0
 10
6.880817320807838
 20
9.293791646960429
 30
0.0
 10
6.4848496070748
 20
9.395559609015974
 30
0.0
 10
5.467331198935666
 20
9.65931149018667
 30
0.0
 10
4.44583162178274
 20
9.497211717496704
 30
0.0
 10
3.6052868699629945
 20
9.009716574022528
 30
0.0
  0
SPLINE
  5
50
330
17
100
AcDbEntity
  8
HIDDEN
100
AcDbSpline
 70
0
 71
3
 72
29
 73
25
 74
0
 40
0.0
 40
0.0
 40
0.0
 40
0.0
 40
0.10649161560713181
 40
0.10649161560713181
 40
0.10649161560713181
 40
0.22370505326407414
 40
0.22370505326407414
 40
0.22370505326407414
 40
0.3409184909210164
 40
0.3409184909210164
 40
0.3409184909210164
 40
0.45078326253400464
 40
0.45078326253400464
 40
0.45078326253400464
 40
0.5606480341469926
 40
0.5606480341469926
 40
0.5606480341469926
 40
0.7611336327748094
 40
0.7611336327748094
 40
0.7611336327748094
 40
0.8636068152093194
 40
0.8636068152093194
 40
0.8636068152093194
 40
1.0
 40
1.0
 40
1.0
 40
1.0
 10
3.6052868699629945
 20
9.009716574022526
 30
0.0
 10
3.153683257046541
 20
8.748841612112848
 30
0.0
 10
2.7512238661317525
 20
8.396292615044194
 30
0.0
 10
2.4265505312585485
 20
7.968441045964435
 30
0.0
 10
2.069065601572757
 20
7.497977817982027
 30
0.0
 10
1.8038394986764672
 20
6.9264979799153465
 30
0.0
 10
1.693937429080668
 20
6.301992480841015
 30
0.0
 10
1.5817193597341148
 20
5.678620222607851
 30
0.0
 10
1.6319950377196377
 20
5.002053783030843
 30
0.0
 10
1.8463454669237116
 20
4.350642630490716
 30
0.0
 10
2.0450952513296197
 20
3.740068734401804
 30
0.0
 10
2.376445711409022
 20
3.160314478607365
 30
0.0
 10
2.787815001467422
 20
2.6291304955401498
 30
0.0
 10
3.1997022541584745
 20
2.097282306375716
 30
0.0
 10
3.689618875529982
 20
1.6122895006636837
 30
0.0
 10
4.2207426817423865
 20
1.1747137104765375
 30
0.0
 10
5.189245155071752
 20
0.3788405381981113
 30
0.0
 10
6.308883925060643
 20
-0.2747242510939698
 30
0.0
 10
7.377885804433741
 20
-0.6871976953826191
 30
0.0
 10
7.92325711524415
 20
-0.8968595391729047
 30
0.0
 10
8.45172623722138
 20
-1.0392935555717866
 30
0.0
 10
8.92813512001748
 20
-1.0965077586955378
 30
0.0
 10
9.563632205327353
 20
-1.1736675262576046
 30
0.0
 10
10.101633287228537
 20
-1.0973581023575099
 30
0.0
 10
10.50612879090481
 20
-0.8624869017802967
 30
0.0
  0
SPLINE
  5
51
330
17
100
AcDbEntity
  8
HIDDEN
100
AcDbSpline
 70
0
 71
3
 72
8
 73
4
 74
0
 40
0.0
 40
0.0
 40
0.0
 40
0.0
 40
1.0
 40
1.0
 40
1.0
 40
1.0
 10
10.506128790904812
 20
-0.8624869017802972
 30
0.0
 10
11.225560257859247
 20
-0.45240583797820194
 30
0.0
 10
11.536739315723981
 20
0.4675977549819382
 30
0.0
 10
11.483983612623536
 20
1.731301544551154
 30
0.0
  0
SPLINE
  5
52
330
17
100
AcDbEntity
  8
HIDDEN
100
AcDbSpline
 70
0
 71
3
 72
14
 73
10
 74
0
 40
0.0
 40
0.0
 40
0.0
 40
0.0
 40
0.48735954774376006
 40
0.48735954774376006
 40
0.48735954774376006
 40
0.7524930022040028
 40
0.7524930022040028
 40
0.7524930022040028
 40
1.0
 40
1.0
 40
1.0
 40
1.0
 10
-10.75022746618756
 20
9.005588593230222
 30
0.0
 10
-7.851367788768257
 20
-13.369802582345226
 30
0.0
 10
-6.145626320825737
 20
-35.28285758567948
 30
0.0
 10
-5.738371515497946
 20
-56.484811058220615
 30
0.0
 10
-5.51345837783731
 20
-68.0205758415312
 30
0.0
 10
-5.668524048248582
 20
-79.3463378608251
 30
0.0
 10
-6.181543075300469
 20
-90.44342434685619
 30
0.0
 10
-6.65669198539422
 20
-100.8056678176892
 30
0.0
 10
-7.4546553295071405
 20
-110.95993794058937
 30
0.0
 10
-8.470711645438945
 20
-120.95846786109539
 30
0.0
  0
SPLINE
  5
53
330
17
100
AcDbEntity
  8
HIDDEN
100
AcDbSpline
 70
0
 71
3
 72
14
 73
10
 74
0
 40
0.0
 40
0.0
 40
0.0
 40
0.0
 40
0.21703211241314863
 40
0.21703211241314863
 40
0.21703211241314863
 40
0.5044883138860075
 40
0.5044883138860075
 40
0.5044883138860075
 40
1.0
 40
1.0
 40
1.0
 40
1.0
 10
-10.750227462765483
 20
9.005588591892161
 30
0.0
 10
-10.54790225725775
 20
9.020515341032192
 30
0.0
 10
-10.304755510331873
 20
9.057589548253835
 30
0.0
 10
-10.021637430991618
 20
9.137722243149096
 30
0.0
 10
-9.647130074998097
 20
9.242789160811295
 30
0.0
 10
-9.200428398237802
 20
9.429344898643638
 30
0.0
 10
-8.700907858094608
 20
9.72104282042521
 30
0.0
 10
-7.837627575919152
 20
10.218331906496735
 30
0.0
 10
-6.843411468663464
 20
11.026977261943985
 30
0.0
 10
-5.800479994459648
 20
11.8633266251392
 30
0.0
  0
SPLINE
  5
54
330
17
100
AcDbEntity
  8
HIDDEN
100
AcDbSpline
 70
0
 71
2
 72
6
 73
3
 74
0
 40
0.0
 40
0.0
 40
0.0
 40
1.0
 40
1.0
 40
1.0
 10
-5.800479997881796
 20
11.863326626477296
 30
0.0
 10
-4.8431704646542215
 20
4.465070625667142
 30
0.0
 10
-4.059115321843714
 20
-2.8624623928291015
 30
0.0
  0
SPLINE
  5
55
330
17
100
AcDbEntity
  8
HIDDEN
100
AcDbSpline
 70
0
 71
3
 72
14
 73
10
 74
0
 40
0.0
 40
0.0
 40
0.0
 40
0.0
 40
0.4242188735864375
 40
0.4242188735864375
 40
0.4242188735864375
 40
0.7349815082158878
 40
0.7349815082158878
 40
0.7349815082158878
 40
1.0
 40
1.0
 40
1.0
 40
1.0
 10
-3.8014732027924723
 20
-5.316289863624075
 30
0.0
 10
-2.107003423311392
 20
-21.745064660904593
 30
0.0
 10
-1.093276679007011
 20
-37.88101830683668
 30
0.0
 10
-0.7886240471322412
 20
-53.627073028053815
 30
0.0
 10
-0.5637109095384261
 20
-65.16283781132924
 30
0.0
 10
-0.7187765800167039
 20
-76.48859983058537
 30
0.0
 10
-1.2317956071316538
 20
-87.58568631657805
 30
0.0
 10
-1.66670003585907
 20
-97.05128627388737
 30
0.0
 10
-2.3679693628617695
 20
-106.34569419746074
 30
0.0
 10
-3.262958147557805
 20
-115.50311847670976
 30
0.0
  0
SPLINE
  5
56
330
17
100
AcDbEntity
  8
HIDDEN
100
AcDbSpline
 70
0
 71
3
 72
11
 73
7
 74
0
 40
0.0
 40
0.0
 40
0.0
 40
0.0
 40
0.6634978486047134
 40
0.6634978486047134
 40
0.6634978486047134
 40
1.0
 40
1.0
 40
1.0
 40
1.0
 10
-8.470711640181342
 20
-120.95846786480085
 30
0.0
 10
-8.254697505640157
 20
-119.74657098278782
 30
0.0
 10
-7.665007213008055
 20
-118.73682423152127
 30
0.0
 10
-6.779134016675608
 20
-118.23895554571068
 30
0.0
 10
-6.331609457395815
 20
-117.98331104208275
 30
0.0
 10
-5.813095003003214
 20
-117.85540461780703
 30
0.0
 10
-5.247555921870993
 20
-117.8456328666172
 30
0.0
  0
SPLINE
  5
57
330
17
100
AcDbEntity
  8
HIDDEN
100
AcDbSpline
 70
0
 71
3
 72
17
 73
13
 74
0
 40
0.0
 40
0.0
 40
0.0
 40
0.0
 40
4.5819761730395125
 40
4.5819761730395125
 40
4.5819761730395125
 40
7.843268589941296
 40
7.843268589941296
 40
7.843268589941296
 40
11.138935427654882
 40
11.138935427654882
 40
11.138935427654882
 40
15.449282467159984
 40
15.449282467159984
 40
15.449282467159984
 40
15.449282467159984
 10
9.738136791568959
 20
-113.58618491743023
 30
0.0
 10
9.82803656689395
 20
-112.3370318316905
 30
0.0
 10
9.628592875551627
 20
-110.84074977456189
 30
0.0
 10
9.059411928879488
 20
-109.48863834068287
 30
0.0
 10
8.656738703544056
 20
-108.52643498474194
 30
0.0
 10
8.051071201088153
 20
-107.63926307480672
 30
0.0
 10
7.288373348873769
 20
-107.00080910987566
 30
0.0
 10
6.52055777101621
 20
-106.35044342196626
 30
0.0
 10
5.611266094878553
 20
-105.97149639238013
 30
0.0
 10
4.7178369114559615
 20
-105.86343348249729
 30
0.0
 10
3.545610584069584
 20
-105.71974172635186
 30
0.0
 10
2.4030639728739196
 20
-105.99672016554162
 30
0.0
 10
1.4415865182696632
 20
-106.54901772984945
 30
0.0
  0
SPLINE
  5
58
330
17
100
AcDbEntity
  8
HIDDEN
100
AcDbSpline
 70
0
 71
3
 72
29
 73
25
 74
0
 40
0.0
 40
0.0
 40
0.0
 40
0.0
 40
0.08870920994301636
 40
0.08870920994301636
 40
0.08870920994301636
 40
0.2038635695073103
 40
0.2038635695073103
 40
0.2038635695073103
 40
0.3149527785159021
 40
0.3149527785159021
 40
0.3149527785159021
 40
0.4677590395255327
 40
0.4677590395255327
 40
0.4677590395255327
 40
0.5669615521916815
 40
0.5669615521916815
 40
0.5669615521916815
 40
0.7112397489162967
 40
0.7112397489162967
 40
0.7112397489162967
 40
0.8898482021535395
 40
0.8898482021535395
 40
0.8898482021535395
 40
1.0
 40
1.0
 40
1.0
 40
1.0
 10
1.4415865182696632
 20
-106.54901772984947
 30
0.0
 10
1.0330290496992653
 20
-106.78514436282646
 30
0.0
 10
0.655515776414531
 20
-107.07392746155477
 30
0.0
 10
0.33089732315717074
 20
-107.41385080616364
 30
0.0
 10
-0.08941016047486874
 20
-107.85358069109539
 30
0.0
 10
-0.422374491762349
 20
-108.3890689468507
 30
0.0
 10
-0.5603942481634099
 20
-108.97851237233894
 30
0.0
 10
-0.6974398013299065
 20
-109.54719467657645
 30
0.0
 10
-0.6335806441316109
 20
-110.14522657594097
 30
0.0
 10
-0.4220841553241388
 20
-110.69970164977704
 30
0.0
 10
-0.13162442399724966
 20
-111.46449433350786
 30
0.0
 10
0.3940950439343751
 20
-112.167352274315
 30
0.0
 10
1.018009737434285
 20
-112.83735130294379
 30
0.0
 10
1.428084009133407
 20
-113.27296937105471
 30
0.0
 10
1.8772580647068038
 20
-113.6918267054933
 30
0.0
 10
2.3655319041544765
 20
-114.09392330625938
 30
0.0
 10
3.0708170592969943
 20
-114.6759926776327
 30
0.0
 10
3.8448010881485186
 20
-115.21887284226835
 30
0.0
 10
4.613350502815865
 20
-115.65224267856085
 30
0.0
 10
5.565649359777745
 20
-116.18988841474675
 30
0.0
 10
6.495012816464827
 20
-116.54282137602806
 30
0.0
 10
7.255107694159088
 20
-116.59063598894299
 30
0.0
 10
7.726860477897004
 20
-116.62266831399658
 30
0.0
 10
8.13424829394506
 20
-116.54024624593201
 30
0.0
 10
8.477271142303222
 20
-116.34336978474894
 30
0.0
  0
SPLINE
  5
59
330
17
100
AcDbEntity
  8
HIDDEN
100
AcDbSpline
 70
0
 71
3
 72
14
 73
10
 74
0
 40
0.0
 40
0.0
 40
0.0
 40
0.0
 40
0.007557123272117421
 40
0.007557123272117421
 40
0.007557123272117421
 40
0.5037785616360587
 40
0.5037785616360587
 40
0.5037785616360587
 40
1.0
 40
1.0
 40
1.0
 40
1.0
 10
8.47727114230322
 20
-116.34336978474894
 30
0.0
 10
8.482800925456282
 20
-116.34013658581483
 30
0.0
 10
8.488330708609364
 20
-116.33690338688082
 30
0.0
 10
8.493860491762431
 20
-116.33367018794677
 30
0.0
 10
8.856390609487596
 20
-116.11744829694429
 30
0.0
 10
9.142041299380214
 20
-115.77390148556884
 30
0.0
 10
9.350812561440279
 20
-115.30302975382028
 30
0.0
 10
9.559079942323388
 20
-114.83579686330788
 30
0.0
 10
9.689902603589024
 20
-114.24732891453286
 30
0.0
 10
9.738136791568959
 20
-113.58618491743023
 30
0.0
  0
ELLIPSE
  5
5A
330
17
100
AcDbEntity
  8
HIDDEN
100
AcDbEllipse
 10
-2.4748737341529385
 20
-115.73839034650513
 30
0.0
 11
-2.999999999999999
 21
5.196152422706633
 31
0.0
 40
0.577350269189626
 41
3.9269908169872414
 42
6.283185307179586
  0
ELLIPSE
  5
5B
330
17
100
AcDbEntity
  8
HIDDEN
100
AcDbEllipse
 10
-2.4748737341529385
 20
-115.73839034650513
 30
0.0
 11
-2.999999999999999
 21
5.196152422706633
 31
0.0
 40
0.577350269189626
 41
0.0
 42
0.5016873501653016
  0
ELLIPSE
  5
5C
330
17
100
AcDbEntity
  8
HIDDEN
100
AcDbEllipse
 10
-2.4748737341529385
 20
-115.73839034650513
 30
0.0
 11
-2.999999999999999
 21
5.196152422706633
 31
0.0
 40
0.577350269189626
 41
2.6263787391584748
 42
3.141592653589793
  0
ELLIPSE
  5
5D
330
17
100
AcDbEntity
  8
HIDDEN
100
AcDbEllipse
 10
-2.4748737341529385
 20
-115.73839034650513
 30
0.0
 11
-2.999999999999999
 21
5.196152422706633
 31
0.0
 40
0.577350269189626
 41
3.141592653589793
 42
3.9269908169872414
  0
ELLIPSE
  5
5E
330
17
100
AcDbEntity
  8
HIDDEN
100
AcDbEllipse
 10
2.474873734152894
 20
-112.88065231325808
 30
0.0
 11
-2.999999999999999
 21
5.196152422706633
 31
0.0
 40
0.577350269189626
 41
3.9269908169872414
 42
6.283185307179586
  0
ELLIPSE
  5
5F
330
17
100
AcDbEntity
  8
HIDDEN
100
AcDbEllipse
 10
2.474873734152894
 20
-112.88065231325808
 30
0.0
 11
-2.999999999999999
 21
5.196152422706633
 31
0.0
 40
0.577350269189626
 41
0.0
 42
3.141592653589793
  0
ELLIPSE
  5
60
330
17
100
AcDbEntity
  8
HIDDEN
100
AcDbEllipse
 10
2.474873734152894
 20
-112.88065231325808
 30
0.0
 11
-2.999999999999999
 21
5.196152422706633
 31
0.0
 40
0.577350269189626
 41
3.141592653589793
 42
3.9269908169872414
  0
ELLIPSE
  5
61
330
17
100
AcDbEntity
  8
HIDDEN
100
AcDbEllipse
 10
2.474873734152894
 20
1.428869016623575
 30
0.0
 11
-6.799999999999999
 21
11.777945491468365
 31
0.0
 40
0.5773502691896258
 41
3.9269908169872414
 42
6.283185307179586
  0
ELLIPSE
  5
62
330
17
100
AcDbEntity
  8
HIDDEN
100
AcDbEllipse
 10
2.474873734152894
 20
1.428869016623575
 30
0.0
 11
-6.799999999999999
 21
11.777945491468365
 31
0.0
 40
0.5773502691896258
 41
0.0
 42
0.25089797024397154
  0
ELLIPSE
  5
63
330
17
100
AcDbEntity
  8
HIDDEN
100
AcDbEllipse
 10
-2.4748737341529385
 20
-1.4288690166234665
 30
0.0
 11
-6.799999999999999
 21
11.777945491468365
 31
0.0
 40
0.5773502691896258
 41
3.9269908169872414
 42
6.283185307179586
  0
ELLIPSE
  5
64
330
17
100
AcDbEntity
  8
HIDDEN
100
AcDbEllipse
 10
-2.4748737341529385
 20
-1.4288690166234665
 30
0.0
 11
-6.799999999999999
 21
11.777945491468365
 31
0.0
 40
0.5773502691896258
 41
0.0
 42
0.2508979702439711
  0
ELLIPSE
  5
65
330
17
100
AcDbEntity
  8
HIDDEN
100
AcDbEllipse
 10
-2.4748737341529385
 20
-1.4288690166234659
 30
0.0
 11
-2.999999999999999
 21
5.196152422706633
 31
0.0
 40
0.577350269189626
 41
3.9269908169872414
 42
6.283185307179586
  0
ELLIPSE
  5
66
330
17
100
AcDbEntity
  8
HIDDEN
100
AcDbEllipse
 10
-2.4748737341529385
 20
-1.4288690166234659
 30
0.0
 11
-2.999999999999999
 21
5.196152422706633
 31
0.0
 40
0.577350269189626
 41
0.0
 42
0.9429685487649038
  0
ELLIPSE
  5
67
330
17
100
AcDbEntity
  8
HIDDEN
100
AcDbEllipse
 10
-2.4748737341529385
 20
-1.4288690166234659
 30
0.0
 11
-2.999999999999999
 21
5.196152422706633
 31
0.0
 40
0.577350269189626
 41
2.228819586239177
 42
3.141592653589793
  0
ELLIPSE
  5
68
330
17
100
AcDbEntity
  8
HIDDEN
100
AcDbEllipse
 10
-2.4748737341529385
 20
-1.4288690166234659
 30
0.0
 11
-2.999999999999999
 21
5.196152422706633
 31
0.0
 40
0.577350269189626
 41
3.141592653589793
 42
3.9269908169872414
  0
ELLIPSE
  5
69
330
17
100
AcDbEntity
  8
HIDDEN
100
AcDbEllipse
 10
2.474873734152894
 20
1.4288690166235742
 30
0.0
 11
-2.999999999999999
 21
5.196152422706633
 31
0.0
 40
0.577350269189626
 41
3.9269908169872414
 42
6.283185307179586
  0
ELLIPSE
  5
6A
330
17
100
AcDbEntity
  8
HIDDEN
100
AcDbEllipse
 10
2.474873734152894
 20
1.4288690166235742
 30
0.0
 11
-2.999999999999999
 21
5.196152422706633
 31
0.0
 40
0.577350269189626
 41
0.0
 42
3.141592653589793
  0
ELLIPSE
  5
6B
330
17
100
AcDbEntity
  8
HIDDEN
100
AcDbEllipse
 10
2.474873734152894
 20
1.4288690166235742
 30
0.0
 11
-2.999999999999999
 21
5.196152422706633
 31
0.0
 40
0.577350269189626
 41
3.141592653589793
 42
3.9269908169872414
  0
LINE
  5
6C
330
17
100
AcDbEntity
  8
HIDDEN
100
AcDbLine
 10
12.091525958289942
 20
-113.39281525146343
 30
0.0
 11
12.091525958289942
 21
-4.12330773368496
 31
0.0
  0
ELLIPSE
  5
6D
330
17
100
AcDbEntity
  8
HIDDEN
100
AcDbEllipse
 10
2.474873734152894
 20
-112.88065231325808
 30
0.0
 11
-6.799999999999999
 21
11.777945491468365
 31
0.0
 40
0.5773502691896258
 41
1.952972871842774
 42
2.7062502162544755
  0
ELLIPSE
  5
6E
330
17
100
AcDbEntity
  8
HIDDEN
100
AcDbEllipse
 10
2.474873734152894
 20
-112.88065231325808
 30
0.0
 11
-6.799999999999999
 21
11.777945491468365
 31
0.0
 40
0.5773502691896258
 41
2.820188073682318
 42
3.141592653589793
  0
ELLIPSE
  5
6F
330
17
100
AcDbEntity
  8
HIDDEN
100
AcDbEllipse
 10
2.474873734152894
 20
-112.88065231325808
 30
0.0
 11
-6.799999999999999
 21
11.777945491468365
 31
0.0
 40
0.5773502691896258
 41
3.141592653589793
 42
3.3450369590511038
  0
ELLIPSE
  5
70
330
17
100
AcDbEntity
  8
HIDDEN
100
AcDbEllipse
 10
-2.4748737341529385
 20
-115.73839034650513
 30
0.0
 11
-6.799999999999999
 21
11.777945491468365
 31
0.0
 40
0.5773502691896258
 41
1.6830022735070385
 42
3.141592653589793
  0
ELLIPSE
  5
71
330
17
100
AcDbEntity
  8
HIDDEN
100
AcDbEllipse
 10
-2.4748737341529385
 20
-115.73839034650513
 30
0.0
 11
-6.799999999999999
 21
11.777945491468365
 31
0.0
 40
0.5773502691896258
 41
3.141592653589793
 42
3.3450369590511135
  0
LINE
  5
72
330
17
100
AcDbEntity
  8
HIDDEN
100
AcDbLine
 10
7.141778489984108
 20
-116.25055328471058
 30
0.0
 11
7.141778489984108
 21
-6.981045766932006
 31
0.0
  0
LINE
  5
73
330
17
100
AcDbEntity
  8
HIDDEN
100
AcDbLine
 10
-5.47487373415294
 20
-110.5422379237985
 30
0.0
 11
-7.441586476022323
 21
-111.67772005473545
 31
0.0
  0
LINE
  5
74
330
17
100
AcDbEntity
  8
HIDDEN
100
AcDbLine
 10
0.5251262658470602
 20
-120.93454276921176
 30
0.0
 11
-2.4772712934955505
 21
-122.66797780831249
 31
0.0
  0
LINE
  5
75
330
17
100
AcDbEntity
  8
HIDDEN
100
AcDbLine
 10
1.4415864551356692
 20
-106.54901777167338
 30
0.0
 11
-0.5251262658471054
 21
-107.68449989055145
 31
0.0
  0
LINE
  5
76
330
17
100
AcDbEntity
  8
HIDDEN
100
AcDbLine
 10
8.477271293500173
 20
-116.34336969686129
 30
0.0
 11
5.474873734152895
 21
-118.07680473596471
 31
0.0
  0
LINE
  5
77
330
17
100
AcDbEntity
  8
HIDDEN
100
AcDbLine
 10
-9.27487373415294
 20
10.3490764748449
 30
0.0
 11
-4.325126265847107
 21
13.206814508091941
 31
0.0
  0
LINE
  5
78
330
17
100
AcDbEntity
  8
HIDDEN
100
AcDbLine
 10
-5.47487373415294
 20
3.767283406083165
 30
0.0
 11
-9.6052868660204
 21
1.3825882725351226
 31
0.0
  0
LINE
  5
79
330
17
100
AcDbEntity
  8
HIDDEN
100
AcDbLine
 10
0.5251262658470602
 20
-6.6250214393301015
 30
0.0
 11
-4.506128859394644
 21
-9.529817940250084
 31
0.0
  0
LINE
  5
7A
330
17
100
AcDbEntity
  8
HIDDEN
100
AcDbLine
 10
3.605286865049753
 20
9.009716572317872
 30
0.0
 11
-0.5251262658471054
 21
6.625021439330206
 31
0.0
  0
LINE
  5
7B
330
17
100
AcDbEntity
  8
HIDDEN
100
AcDbLine
 10
10.506128850284128
 20
-0.8624869104230117
 30
0.0
 11
5.474873734152895
 21
-3.7672834060830604
 31
0.0
  0
LINE
  5
7C
330
17
100
AcDbEntity
  8
HIDDEN
100
AcDbLine
 10
4.325126265847062
 20
-127.5163358379735
 30
0.0
 11
9.274873734152894
 21
-124.65859780472645
 31
0.0
  0
LINE
  5
7D
330
17
100
AcDbEntity
  8
HIDDEN
100
AcDbLine
 10
12.091525958289942
 20
-4.123307733684963
 30
0.0
 11
7.14177848998411
 21
-6.981045766932005
 31
0.0
  0
LINE
  5
7E
330
17
100
AcDbEntity
  8
HIDDEN
100
AcDbLine
 10
10.436145251230604
 20
-119.38856356039864
 30
0.0
 11
8.797159197043495
 21
-120.33483259998161
 31
0.0
  0
ENDSEC
  0
SECTION
  2
OBJECTS
  0
DICTIONARY
  5
A
330
0
100
AcDbDictionary
281
1
  3
ACAD_COLOR
350
B
  3
ACAD_GROUP
350
C
  3
ACAD_LAYOUT
350
D
  3
ACAD_MATERIAL
350
E
  3
ACAD_MLEADERSTYLE
350
F
  3
ACAD_MLINESTYLE
350
10
  3
ACAD_PLOTSETTINGS
350
11
  3
ACAD_PLOTSTYLENAME
350
12
  3
ACAD_SCALELIST
350
14
  3
ACAD_TABLESTYLE
350
15
  3
ACAD_VISUALSTYLE
350
16
  3
EZDXF_META
350
2D
  0
DICTIONARY
  5
B
330
A
100
AcDbDictionary
281
1
  0
DICTIONARY
  5
C
330
A
100
AcDbDictionary
281
1
  0
DICTIONARY
  5
D
330
A
100
AcDbDictionary
281
1
  3
Model
350
1A
  3
Layout1
350
1E
  0
DICTIONARY
  5
E
330
A
100
AcDbDictionary
281
1
  3
ByBlock
350
1F
  3
ByLayer
350
20
  3
Global
350
21
  0
DICTIONARY
  5
F
330
A
100
AcDbDictionary
281
1
  3
Standard
350
2C
  0
DICTIONARY
  5
10
330
A
100
AcDbDictionary
281
1
  3
Standard
350
22
  0
DICTIONARY
  5
11
330
A
100
AcDbDictionary
281
1
  0
ACDBDICTIONARYWDFLT
  5
12
330
A
100
AcDbDictionary
281
1
  3
Normal
350
13
100
AcDbDictionaryWithDefault
340
13
  0
ACDBPLACEHOLDER
  5
13
330
12
  0
DICTIONARY
  5
14
330
A
100
AcDbDictionary
281
1
  0
DICTIONARY
  5
15
330
A
100
AcDbDictionary
281
1
  0
DICTIONARY
  5
16
330
A
100
AcDbDictionary
281
1
  0
LAYOUT
  5
1A
330
D
100
AcDbPlotSettings
  1

  4
A3
  6

 40
7.5
 41
20.0
 42
7.5
 43
20.0
 44
420.0
 45
297.0
 46
0.0
 47
0.0
 48
0.0
 49
0.0
140
0.0
141
0.0
142
1.0
143
1.0
 70
1024
 72
1
 73
0
 74
5
  7

 75
16
 76
0
 77
2
 78
300
147
1.0
148
0.0
149
0.0
100
AcDbLayout
  1
Model
 70
1
 71
0
 10
0.0
 20
0.0
 11
420.0
 21
297.0
 12
0.0
 22
0.0
 32
0.0
 14
1e+20
 24
1e+20
 34
1e+20
 15
-1e+20
 25
-1e+20
 35
-1e+20
146
0.0
 13
0.0
 23
0.0
 33
0.0
 16
1.0
 26
0.0
 36
0.0
 17
0.0
 27
1.0
 37
0.0
 76
1
330
17
  0
LAYOUT
  5
1E
330
D
100
AcDbPlotSettings
  1

  4
A3
  6

 40
7.5
 41
20.0
 42
7.5
 43
20.0
 44
420.0
 45
297.0
 46
0.0
 47
0.0
 48
0.0
 49
0.0
140
0.0
141
0.0
142
1.0
143
1.0
 70
0
 72
1
 73
0
 74
5
  7

 75
16
 76
0
 77
2
 78
300
147
1.0
148
0.0
149
0.0
100
AcDbLayout
  1
Layout1
 70
1
 71
1
 10
0.0
 20
0.0
 11
420.0
 21
297.0
 12
0.0
 22
0.0
 32
0.0
 14
1e+20
 24
1e+20
 34
1e+20
 15
-1e+20
 25
-1e+20
 35
-1e+20
146
0.0
 13
0.0
 23
0.0
 33
0.0
 16
1.0
 26
0.0
 36
0.0
 17
0.0
 27
1.0
 37
0.0
 76
1
330
1B
  0
MATERIAL
  5
1F
102
{ACAD_REACTORS
330
E
102
}
330
E
100
AcDbMaterial
  1
ByBlock
  2

 70
0
 40
1.0
 71
1
 41
1.0
 91
-1023410177
 42
1.0
 72
1
  3

 73
1
 74
1
 75
1
 44
0.5
 73
0
 45
1.0
 46
1.0
 77
1
  4

 78
1
 79
1
170
1
 48
1.0
171
1
  6

172
1
173
1
174
1
140
1.0
141
1.0
175
1
  7

176
1
177
1
178
1
143
1.0
179
1
  8

270
1
271
1
272
1
145
1.0
146
1.0
273
1
  9

274
1
275
1
276
1
 42
1.0
 72
1
  3

 73
1
 74
1
 75
1
 94
63
  0
MATERIAL
  5
20
102
{ACAD_REACTORS
330
E
102
}
330
E
100
AcDbMaterial
  1
ByLayer
  2

 70
0
 40
1.0
 71
1
 41
1.0
 91
-1023410177
 42
1.0
 72
1
  3

 73
1
 74
1
 75
1
 44
0.5
 73
0
 45
1.0
 46
1.0
 77
1
  4

 78
1
 79
1
170
1
 48
1.0
171
1
  6

172
1
173
1
174
1
140
1.0
141
1.0
175
1
  7

176
1
177
1
178
1
143
1.0
179
1
  8

270
1
271
1
272
1
145
1.0
146
1.0
273
1
  9

274
1
275
1
276
1
 42
1.0
 72
1
  3

 73
1
 74
1
 75
1
 94
63
  0
MATERIAL
  5
21
102
{ACAD_REACTORS
330
E
102
}
330
E
100
AcDbMaterial
  1
Global
  2

 70
0
 40
1.0
 71
1
 41
1.0
 91
-1023410177
 42
1.0
 72
1
  3

 73
1
 74
1
 75
1
 44
0.5
 73
0
 45
1.0
 46
1.0
 77
1
  4

 78
1
 79
1
170
1
 48
1.0
171
1
  6

172
1
173
1
174
1
140
1.0
141
1.0
175
1
  7

176
1
177
1
178
1
143
1.0
179
1
  8

270
1
271
1
272
1
145
1.0
146
1.0
273
1
  9

274
1
275
1
276
1
 42
1.0
 72
1
  3

 73
1
 74
1
 75
1
 94
63
  0
MLINESTYLE
  5
22
102
{ACAD_REACTORS
330
10
102
}
330
10
100
AcDbMlineStyle
  2
Standard
 70
0
  3

 62
256
 51
90.0
 52
90.0
 71
2
 49
0.5
 62
256
  6
BYLAYER
 49
-0.5
 62
256
  6
BYLAYER
  0
MLEADERSTYLE
  5
2C
102
{ACAD_REACTORS
330
F
102
}
330
F
100
AcDbMLeaderStyle
179
2
170
2
171
1
172
0
 90
2
 40
0.0
 41
0.0
173
1
 91
-1056964608
 92
-2
290
1
 42
2.0
291
1
 43
8.0
  3
Standard
 44
4.0
300

342
29
174
1
175
1
176
0
178
1
 93
-1056964608
 45
4.0
292
0
297
0
 46
4.0
 94
-1056964608
 47
1.0
 49
1.0
140
1.0
294
1
141
0.0
177
0
142
1.0
295
0
296
0
143
3.75
271
0
272
9
273
9
  0
DICTIONARY
  5
2D
330
A
100
AcDbDictionary
280
1
281
1
  3
CREATED_BY_EZDXF
350
2E
  3
WRITTEN_BY_EZDXF
350
82
  0
DICTIONARYVAR
  5
2E
330
2D
100
DictionaryVariables
280
0
  1
1.4.4 @ 2026-10-05T07:37:42.879416+00:00
  0
DICTIONARYVAR
  5
82
330
2D
100
DictionaryVariables
280
0
  1
1.4.4 @ 2026-10-05T07:37:43.121455+00:00
  0
ENDSEC
  0
EOF
