  0
SECTION
  2
HEADER
  9
$ACADVER
  1
AC1027
  9
$ACADMAINTVER
 70
105
  9
$DWGCODEPAGE
  3
ANSI_1252
  9
$LASTSAVEDBY
  1
ezdxf
  9
$REQUIREDVERSIONS
160
0
  9
$INSBASE
 10
0.0
 20
0.0
 30
0.0
  9
$EXTMIN
 10
1e+20
 20
1e+20
 30
1e+20
  9
$EXTMAX
 10
-1e+20
 20
-1e+20
 30
-1e+20
  9
$LIMMIN
 10
0.0
 20
0.0
  9
$LIMMAX
 10
420.0
 20
297.0
  9
$ORTHOMODE
 70
0
  9
$REGENMODE
 70
1
  9
$FILLMODE
 70
1
  9
$QTEXTMODE
 70
0
  9
$MIRRTEXT
 70
1
  9
$LTSCALE
 40
1.0
  9
$ATTMODE
 70
1
  9
$TEXTSIZE
 40
2.5
  9
$TRACEWID
 40
1.0
  9
$TEXTSTYLE
  7
Standard
  9
$CLAYER
  8
0
  9
$CELTYPE
  6
ByLayer
  9
$CECOLOR
 62
256
  9
$CELTSCALE
 40
1.0
  9
$DISPSILH
 70
0
  9
$DIMSCALE
 40
1.0
  9
$DIMASZ
 40
2.5
  9
$DIMEXO
 40
0.625
  9
$DIMDLI
 40
3.75
  9
$DIMRND
 40
0.0
  9
$DIMDLE
 40
0.0
  9
$DIMEXE
 40
1.25
  9
$DIMTP
 40
0.0
  9
$DIMTM
 40
0.0
  9
$DIMTXT
 40
2.5
  9
$DIMCEN
 40
2.5
  9
$DIMTSZ
 40
0.0
  9
$DIMTOL
 70
0
  9
$DIMLIM
 70
0
  9
$DIMTIH
 70
0
  9
$DIMTOH
 70
0
  9
$DIMSE1
 70
0
  9
$DIMSE2
 70
0
  9
$DIMTAD
 70
1
  9
$DIMZIN
 70
8
  9
$DIMBLK
  1

  9
$DIMASO
 70
1
  9
$DIMSHO
 70
1
  9
$DIMPOST
  1

  9
$DIMAPOST
  1

  9
$DIMALT
 70
0
  9
$DIMALTD
 70
3
  9
$DIMALTF
 40
0.03937007874
  9
$DIMLFAC
 40
1.0
  9
$DIMTOFL
 70
1
  9
$DIMTVP
 40
0.0
  9
$DIMTIX
 70
0
  9
$DIMSOXD
 70
0
  9
$DIMSAH
 70
0
  9
$DIMBLK1
  1

  9
$DIMBLK2
  1

  9
$DIMSTYLE
  2
ISO-25
  9
$DIMCLRD
 70
0
  9
$DIMCLRE
 70
0
  9
$DIMCLRT
 70
0
  9
$DIMTFAC
 40
1.0
  9
$DIMGAP
 40
0.625
  9
$DIMJUST
 70
0
  9
$DIMSD1
 70
0
  9
$DIMSD2
 70
0
  9
$DIMTOLJ
 70
0
  9
$DIMTZIN
 70
8
  9
$DIMALTZ
 70
0
  9
$DIMALTTZ
 70
0
  9
$DIMUPT
 70
0
  9
$DIMDEC
 70
2
  9
$DIMTDEC
 70
2
  9
$DIMALTU
 70
2
  9
$DIMALTTD
 70
3
  9
$DIMTXSTY
  7
Standard
  9
$DIMAUNIT
 70
0
  9
$DIMADEC
 70
0
  9
$DIMALTRND
 40
0.0
  9
$DIMAZIN
 70
0
  9
$DIMDSEP
 70
44
  9
$DIMATFIT
 70
3
  9
$DIMFRAC
 70
0
  9
$DIMLDRBLK
  1

  9
$DIMLUNIT
 70
2
  9
$DIMLWD
 70
-2
  9
$DIMLWE
 70
-2
  9
$DIMTMOVE
 70
0
  9
$DIMFXL
 40
1.0
  9
$DIMFXLON
 70
0
  9
$DIMJOGANG
 40
0.785398163397
  9
$DIMTFILL
 70
0
  9
$DIMTFILLCLR
 70
0
  9
$DIMARCSYM
 70
0
  9
$DIMLTYPE
  6

  9
$DIMLTEX1
  6

  9
$DIMLTEX2
  6

  9
$DIMTXTDIRECTION
 70
0
  9
$LUNITS
 70
2
  9
$LUPREC
 70
4
  9
$SKETCHINC
 40
1.0
  9
$FILLETRAD
 40
10.0
  9
$AUNITS
 70
0
  9
$AUPREC
 70
2
  9
$MENU
  1
.
  9
$ELEVATION
 40
0.0
  9
$PELEVATION
 40
0.0
  9
$THICKNESS
 40
0.0
  9
$LIMCHECK
 70
0
  9
$CHAMFERA
 40
0.0
  9
$CHAMFERB
 40
0.0
  9
$CHAMFERC
 40
0.0
  9
$CHAMFERD
 40
0.0
  9
$SKPOLY
 70
0
  9
$TDCREATE
 40
2461319.6095023146
  9
$TDUCREATE
 40
2458532.153996898
  9
$TDUPDATE
 40
2461319.609513889
  9
$TDUUPDATE
 40
2458532.1544311
  9
$TDINDWG
 40
0.0
  9
$TDUSRTIMER
 40
0.0
  9
$USRTIMER
 70
1
  9
$ANGBASE
 50
0.0
  9
$ANGDIR
 70
0
  9
$PDMODE
 70
0
  9
$PDSIZE
 40
0.0
  9
$PLINEWID
 40
0.0
  9
$SPLFRAME
 70
0
  9
$SPLINETYPE
 70
6
  9
$SPLINESEGS
 70
8
  9
$HANDSEED
  5
7C
  9
$SURFTAB1
 70
6
  9
$SURFTAB2
 70
6
  9
$SURFTYPE
 70
6
  9
$SURFU
 70
6
  9
$SURFV
 70
6
  9
$UCSBASE
  2

  9
$UCSNAME
  2

  9
$UCSORG
 10
0.0
 20
0.0
 30
0.0
  9
$UCSXDIR
 10
1.0
 20
0.0
 30
0.0
  9
$UCSYDIR
 10
0.0
 20
1.0
 30
0.0
  9
$UCSORTHOREF
  2

  9
$UCSORTHOVIEW
 70
0
  9
$UCSORGTOP
 10
0.0
 20
0.0
 30
0.0
  9
$UCSORGBOTTOM
 10
0.0
 20
0.0
 30
0.0
  9
$UCSORGLEFT
 10
0.0
 20
0.0
 30
0.0
  9
$UCSORGRIGHT
 10
0.0
 20
0.0
 30
0.0
  9
$UCSORGFRONT
 10
0.0
 20
0.0
 30
0.0
  9
$UCSORGBACK
 10
0.0
 20
0.0
 30
0.0
  9
$PUCSBASE
  2

  9
$PUCSNAME
  2

  9
$PUCSORG
 10
0.0
 20
0.0
 30
0.0
  9
$PUCSXDIR
 10
1.0
 20
0.0
 30
0.0
  9
$PUCSYDIR
 10
0.0
 20
1.0
 30
0.0
  9
$PUCSORTHOREF
  2

  9
$PUCSORTHOVIEW
 70
0
  9
$PUCSORGTOP
 10
0.0
 20
0.0
 30
0.0
  9
$PUCSORGBOTTOM
 10
0.0
 20
0.0
 30
0.0
  9
$PUCSORGLEFT
 10
0.0
 20
0.0
 30
0.0
  9
$PUCSORGRIGHT
 10
0.0
 20
0.0
 30
0.0
  9
$PUCSORGFRONT
 10
0.0
 20
0.0
 30
0.0
  9
$PUCSORGBACK
 10
0.0
 20
0.0
 30
0.0
  9
$USERI1
 70
0
  9
$USERI2
 70
0
  9
$USERI3
 70
0
  9
$USERI4
 70
0
  9
$USERI5
 70
0
  9
$USERR1
 40
0.0
  9
$USERR2
 40
0.0
  9
$USERR3
 40
0.0
  9
$USERR4
 40
0.0
  9
$USERR5
 40
0.0
  9
$WORLDVIEW
 70
1
  9
$SHADEDGE
 70
3
  9
$SHADEDIF
 70
70
  9
$TILEMODE
 70
1
  9
$MAXACTVP
 70
64
  9
$PINSBASE
 10
0.0
 20
0.0
 30
0.0
  9
$PLIMCHECK
 70
0
  9
$PEXTMIN
 10
1e+20
 20
1e+20
 30
1e+20
  9
$PEXTMAX
 10
-1e+20
 20
-1e+20
 30
-1e+20
  9
$PLIMMIN
 10
0.0
 20
0.0
  9
$PLIMMAX
 10
420.0
 20
297.0
  9
$UNITMODE
 70
0
  9
$VISRETAIN
 70
1
  9
$PLINEGEN
 70
0
  9
$PSLTSCALE
 70
1
  9
$TREEDEPTH
 70
3020
  9
$CMLSTYLE
  2
Standard
  9
$CMLJUST
 70
0
  9
$CMLSCALE
 40
20.0
  9
$PROXYGRAPHICS
 70
1
  9
$MEASUREMENT
 70
1
  9
$CELWEIGHT
370
-1
  9
$ENDCAPS
280
0
  9
$JOINSTYLE
280
0
  9
$LWDISPLAY
290
0
  9
$INSUNITS
 70
4
  9
$HYPERLINKBASE
  1

  9
$STYLESHEET
  1

  9
$XEDIT
290
1
  9
$CEPSNTYPE
380
0
  9
$PSTYLEMODE
290
1
  9
$FINGERPRINTGUID
  2
{A50CF137-5B3E-4981-9A21-9149BE5A4533}
  9
$VERSIONGUID
  2
{6E483C58-1516-48F3-85FF-42CD1B07496E}
  9
$EXTNAMES
290
1
  9
$PSVPSCALE
 40
0.0
  9
$OLESTARTUP
290
0
  9
$SORTENTS
280
127
  9
$INDEXCTL
280
0
  9
$HIDETEXT
280
1
  9
$XCLIPFRAME
280
1
  9
$HALOGAP
280
0
  9
$OBSCOLOR
 70
257
  9
$OBSLTYPE
280
0
  9
$INTERSECTIONDISPLAY
280
0
  9
$INTERSECTIONCOLOR
 70
257
  9
$DIMASSOC
280
2
  9
$PROJECTNAME
  1

  9
$CAMERADISPLAY
290
0
  9
$LENSLENGTH
 40
50.0
  9
$CAMERAHEIGHT
 40
0.0
  9
$STEPSPERSEC
 40
24.0
  9
$STEPSIZE
 40
100.0
  9
$3DDWFPREC
 40
2.0
  9
$PSOLWIDTH
 40
0.005
  9
$PSOLHEIGHT
 40
0.08
  9
$LOFTANG1
 40
1.570796326795
  9
$LOFTANG2
 40
1.570796326795
  9
$LOFTMAG1
 40
0.0
  9
$LOFTMAG2
 40
0.0
  9
$LOFTPARAM
 70
7
  9
$LOFTNORMALS
280
1
  9
$LATITUDE
 40
37.795
  9
$LONGITUDE
 40
-122.394
  9
$NORTHDIRECTION
 40
0.0
  9
$TIMEZONE
 70
-8000
  9
$LIGHTGLYPHDISPLAY
280
1
  9
$TILEMODELIGHTSYNCH
280
1
  9
$CMATERIAL
347
20
  9
$SOLIDHIST
280
0
  9
$SHOWHIST
280
1
  9
$DWFFRAME
280
2
  9
$DGNFRAME
280
2
  9
$REALWORLDSCALE
290
1
  9
$INTERFERECOLOR
 62
256
  9
$CSHADOW
280
0
  9
$SHADOWPLANELOCATION
 40
0.0
  0
ENDSEC
  0
SECTION
  2
CLASSES
  0
CLASS
  1
ACDBDICTIONARYWDFLT
  2
AcDbDictionaryWithDefault
  3
ObjectDBX Classes
 90
0
 91
0
280
0
281
0
  0
CLASS
  1
SUN
  2
AcDbSun
  3
SCENEOE
 90
1153
 91
0
280
0
281
0
  0
CLASS
  1
VISUALSTYLE
  2
AcDbVisualStyle
  3
ObjectDBX Classes
 90
4095
 91
0
280
0
281
0
  0
CLASS
  1
MATERIAL
  2
AcDbMaterial
  3
ObjectDBX Classes
 90
1153
 91
0
280
0
281
0
  0
CLASS
  1
SCALE
  2
AcDbScale
  3
ObjectDBX Classes
 90
1153
 91
0
280
0
281
0
  0
CLASS
  1
TABLESTYLE
  2
AcDbTableStyle
  3
ObjectDBX Classes
 90
4095
 91
0
280
0
281
0
  0
CLASS
  1
MLEADERSTYLE
  2
AcDbMLeaderStyle
  3
ACDB_MLEADERSTYLE_CLASS
 90
4095
 91
0
280
0
281
0
  0
CLASS
  1
DICTIONARYVAR
  2
AcDbDictionaryVar
  3
ObjectDBX Classes
 90
0
 91
0
280
0
281
0
  0
CLASS
  1
CELLSTYLEMAP
  2
AcDbCellStyleMap
  3
ObjectDBX Classes
 90
1152
 91
0
280
0
281
0
  0
CLASS
  1
MENTALRAYRENDERSETTINGS
  2
AcDbMentalRayRenderSettings
  3
SCENEOE
 90
1024
 91
0
280
0
281
0
  0
CLASS
  1
ACDBDETAILVIEWSTYLE
  2
AcDbDetailViewStyle
  3
ObjectDBX Classes
 90
1025
 91
0
280
0
281
0
  0
CLASS
  1
ACDBSECTIONVIEWSTYLE
  2
AcDbSectionViewStyle
  3
ObjectDBX Classes
 90
1025
 91
0
280
0
281
0
  0
CLASS
  1
RASTERVARIABLES
  2
AcDbRasterVariables
  3
ISM
 90
0
 91
0
280
0
281
0
  0
CLASS
  1
LAYOUT
  2
AcDbLayout
  3
ObjectDBX Classes
 90
0
 91
0
280
0
281
0
  0
CLASS
  1
ACDBPLACEHOLDER
  2
AcDbPlaceHolder
  3
ObjectDBX Classes
 90
0
 91
0
280
0
281
0
  0
ENDSEC
  0
SECTION
  2
TABLES
  0
TABLE
  2
VPORT
  5
8
330
0
100
AcDbSymbolTable
 70
1
  0
VPORT
  5
78
330
8
100
AcDbSymbolTableRecord
100
AcDbViewportTableRecord
  2
*Active
 70
0
 10
0.0
 20
0.0
 11
1.0
 21
1.0
 12
2.6270649775435793
 22
2.1316282072803006e-13
 13
0.0
 23
0.0
 14
0.5
 24
0.5
 15
0.5
 25
0.5
 16
0.0
 26
0.0
 36
1.0
 17
0.0
 27
0.0
 37
0.0
 40
22.136221593488212
 41
1.34
 42
50.0
 43
0.0
 44
0.0
 50
0.0
 51
0.0
 71
0
 72
1000
 73
1
 74
3
 75
0
 76
0
 77
0
 78
0
281
0
 65
1
110
0.0
120
0.0
130
0.0
111
1.0
121
0.0
131
0.0
112
0.0
122
1.0
132
0.0
 79
0
146
0.0
  0
ENDTAB
  0
TABLE
  2
LTYPE
  5
2
330
0
100
AcDbSymbolTable
 70
4
  0
LTYPE
  5
24
330
2
100
AcDbSymbolTableRecord
100
AcDbLinetypeTableRecord
  2
ByBlock
 70
0
  3

 72
65
 73
0
 40
0.0
  0
LTYPE
  5
25
330
2
100
AcDbSymbolTableRecord
100
AcDbLinetypeTableRecord
  2
ByLayer
 70
0
  3

 72
65
 73
0
 40
0.0
  0
LTYPE
  5
26
330
2
100
AcDbSymbolTableRecord
100
AcDbLinetypeTableRecord
  2
Continuous
 70
0
  3

 72
65
 73
0
 40
0.0
  0
LTYPE
  5
30
330
2
100
AcDbSymbolTableRecord
100
AcDbLinetypeTableRecord
  2
ACAD_ISO02W100
 70
0
  3
ISO dash __ __ __ __ __ __ __ __ __ __ __ __ __
 72
65
 73
2
 40
15.0
 49
12.0
 74
0
 49
-3.0
 74
0
  0
ENDTAB
  0
TABLE
  2
LAYER
  5
1
330
0
100
AcDbSymbolTable
 70
4
  0
LAYER
  5
27
330
1
100
AcDbSymbolTableRecord
100
AcDbLayerTableRecord
  2
0
 70
0
 62
7
  6
Continuous
370
-3
390
13
347
21
  0
LAYER
  5
28
330
1
100
AcDbSymbolTableRecord
100
AcDbLayerTableRecord
  2
Defpoints
 70
0
 62
7
  6
Continuous
290
0
370
-3
390
13
347
21
  0
LAYER
  5
2F
330
1
100
AcDbSymbolTableRecord
100
AcDbLayerTableRecord
  2
VISIBLE
 70
0
 62
7
  6
Continuous
370
25
390
13
347
21
  0
LAYER
  5
31
330
1
100
AcDbSymbolTableRecord
100
AcDbLayerTableRecord
  2
HIDDEN
 70
0
 62
7
  6
ACAD_ISO02W100
370
13
390
13
347
21
  0
ENDTAB
  0
TABLE
  2
STYLE
  5
5
330
0
100
AcDbSymbolTable
 70
1
  0
STYLE
  5
29
330
5
100
AcDbSymbolTableRecord
100
AcDbTextStyleTableRecord
  2
Standard
 70
0
 40
0.0
 41
1.0
 50
0.0
 71
0
 42
2.5
  3
txt
  4

  0
ENDTAB
  0
TABLE
  2
VIEW
  5
7
330
0
100
AcDbSymbolTable
 70
0
  0
ENDTAB
  0
TABLE
  2
UCS
  5
6
330
0
100
AcDbSymbolTable
 70
0
  0
ENDTAB
  0
TABLE
  2
APPID
  5
3
330
0
100
AcDbSymbolTable
 70
3
  0
APPID
  5
2A
330
3
100
AcDbSymbolTableRecord
100
AcDbRegAppTableRecord
  2
ACAD
 70
0
  0
APPID
  5
79
330
3
100
AcDbSymbolTableRecord
100
AcDbRegAppTableRecord
  2
HATCHBACKGROUNDCOLOR
 70
0
  0
APPID
  5
7A
330
3
100
AcDbSymbolTableRecord
100
AcDbRegAppTableRecord
  2
EZDXF
 70
0
  0
ENDTAB
  0
TABLE
  2
DIMSTYLE
  5
4
330
0
100
AcDbSymbolTable
 70
1
100
AcDbDimStyleTable
  0
DIMSTYLE
105
2B
330
4
100
AcDbSymbolTableRecord
100
AcDbDimStyleTableRecord
  2
Standard
 70
0
 40
1.0
 41
2.5
 42
0.625
 43
3.75
 44
1.25
 45
0.0
 46
0.0
 47
0.0
 48
0.0
 49
2.5
140
2.5
141
2.5
142
0.0
143
0.03937007874
144
1.0
145
0.0
146
1.0
147
0.625
148
0.0
 69
0
 70
0
 71
0
 72
0
 73
0
 74
0
 75
0
 76
0
 77
1
 78
8
 79
3
170
0
171
3
172
1
173
0
174
0
175
0
176
0
177
0
178
0
179
2
271
2
272
2
273
2
274
3
275
0
276
0
277
2
278
44
279
0
280
0
281
0
282
0
283
0
284
8
285
0
286
0
288
0
289
3
290
0
371
-2
372
-2
  0
ENDTAB
  0
TABLE
  2
BLOCK_RECORD
  5
9
330
0
100
AcDbSymbolTable
 70
2
  0
BLOCK_RECORD
  5
17
330
9
100
AcDbSymbolTableRecord
100
AcDbBlockTableRecord
  2
*Model_Space
340
1A
 70
0
280
1
281
0
  0
BLOCK_RECORD
  5
1B
330
9
100
AcDbSymbolTableRecord
100
AcDbBlockTableRecord
  2
*Paper_Space
340
1E
 70
0
280
1
281
0
  0
ENDTAB
  0
ENDSEC
  0
SECTION
  2
BLOCKS
  0
BLOCK
  5
18
330
17
100
AcDbEntity
  8
0
100
AcDbBlockBegin
  2
*Model_Space
 70
0
 10
0.0
 20
0.0
 30
0.0
  3
*Model_Space
  1

  0
ENDBLK
  5
19
330
17
100
AcDbEntity
  8
0
100
AcDbBlockEnd
  0
BLOCK
  5
1C
330
1B
100
AcDbEntity
  8
0
100
AcDbBlockBegin
  2
*Paper_Space
 70
0
 10
0.0
 20
0.0
 30
0.0
  3
*Paper_Space
  1

  0
ENDBLK
  5
1D
330
1B
100
AcDbEntity
  8
0
100
AcDbBlockEnd
  0
ENDSEC
  0
SECTION
  2
ENTITIES
  0
SPLINE
  5
32
330
17
100
AcDbEntity
  8
VISIBLE
100
AcDbSpline
 70
0
 71
3
 72
17
 73
13
 74
0
 40
0.0
 40
0.0
 40
0.0
 40
0.0
 40
0.073806445977767
 40
0.073806445977767
 40
0.073806445977767
 40
0.147612891955534
 40
0.147612891955534
 40
0.147612891955534
 40
0.221419337933301
 40
0.221419337933301
 40
0.221419337933301
 40
0.295225783911068
 40
0.295225783911068
 40
0.295225783911068
 40
0.295225783911068
 10
14.513919999999992
 20
8.881784197001252e-15
 30
0.0
 10
14.515873464655435
 20
1.546065565694902
 30
0.0
 10
13.986503080257219
 20
3.090781117245891
 30
0.0
 10
12.981047690942276
 20
4.472958509138433
 30
0.0
 10
11.979086591536989
 20
5.856339959584201
 30
0.0
 10
10.50279325515691
 20
7.074768573960075
 30
0.0
 10
8.706216150417958
 20
8.001103493429415
 30
0.0
 10
6.911982619070077
 20
8.929592183000395
 30
0.0
 10
4.8006006238699985
 20
9.564367643993084
 30
0.0
 10
2.5923889843384127
 20
9.839192269655188
 30
0.0
 10
0.3848751737534014
 20
10.1166654459828
 30
0.0
 10
-1.915612711292392
 20
10.033705560183588
 30
0.0
 10
-4.069023014049566
 20
9.59896930902509
 30
0.0
  0
SPLINE
  5
33
330
17
100
AcDbEntity
  8
VISIBLE
100
AcDbSpline
 70
0
 71
3
 72
23
 73
19
 74
0
 40
0.0
 40
0.0
 40
0.0
 40
0.0
 40
0.25000000000000006
 40
0.25000000000000006
 40
0.25000000000000006
 40
0.37500000000000017
 40
0.37500000000000017
 40
0.37500000000000017
 40
0.5000000000000001
 40
0.5000000000000001
 40
0.5000000000000001
 40
0.6250000000000001
 40
0.6250000000000001
 40
0.6250000000000001
 40
0.7500000000000001
 40
0.7500000000000001
 40
0.7500000000000001
 40
1.0
 40
1.0
 40
1.0
 40
1.0
 10
-4.069023014049566
 20
9.598969309025088
 30
0.0
 10
-7.060439303209125
 20
9.002087071822373
 30
0.0
 10
-9.750269822084125
 20
7.718293030581259
 30
0.0
 10
-11.612737583913326
 20
5.998528410753136
 30
0.0
 10
-12.54661749385955
 20
5.140808464055462
 30
0.0
 10
-13.277979600978357
 20
4.178750592506269
 30
0.0
 10
-13.769535540828238
 20
3.161405148428361
 30
0.0
 10
-14.261959478521787
 20
2.1442589912425607
 30
0.0
 10
-14.51437745905434
 20
1.0722383505012687
 30
0.0
 10
-14.513919998076688
 20
-1.1324274851176597e-14
 30
0.0
 10
-14.514377459054344
 20
-1.072238350501247
 30
0.0
 10
-14.261959478521767
 20
-2.1442589912425425
 30
0.0
 10
-13.769535540828223
 20
-3.161405148428381
 30
0.0
 10
-13.277979600978336
 20
-4.178750592506252
 30
0.0
 10
-12.546617493859523
 20
-5.14080846405543
 30
0.0
 10
-11.612737583913294
 20
-5.998528410753151
 30
0.0
 10
-9.750269822084089
 20
-7.718293030581215
 30
0.0
 10
-7.060439303209085
 20
-9.002087071822311
 30
0.0
 10
-4.069023014049532
 20
-9.59896930902509
 30
0.0
  0
SPLINE
  5
34
330
17
100
AcDbEntity
  8
VISIBLE
100
AcDbSpline
 70
0
 71
3
 72
17
 73
13
 74
0
 40
0.0
 40
0.0
 40
0.0
 40
0.0
 40
0.25000000000000017
 40
0.25000000000000017
 40
0.25000000000000017
 40
0.5
 40
0.5
 40
0.5
 40
0.7499999999999998
 40
0.7499999999999998
 40
0.7499999999999998
 40
1.0
 40
1.0
 40
1.0
 40
1.0
 10
-4.069023014049533
 20
-9.59896930902509
 30
0.0
 10
-1.91561271129237
 20
-10.033705560183519
 30
0.0
 10
0.38487517375346647
 20
-10.116665445982706
 30
0.0
 10
2.5923889843384416
 20
-9.839192269655179
 30
0.0
 10
4.8006006238700545
 20
-9.564367643992975
 30
0.0
 10
6.911982619070155
 20
-8.929592183000226
 30
0.0
 10
8.70621615041797
 20
-8.001103493429415
 30
0.0
 10
10.502793255156952
 20
-7.074768573959977
 30
0.0
 10
11.979086591537085
 20
-5.856339959584228
 30
0.0
 10
12.98104769094227
 20
-4.4729585091384525
 30
0.0
 10
13.986503080257425
 20
-3.0907811172458715
 30
0.0
 10
14.515873464655463
 20
-1.546065565693374
 30
0.0
 10
14.513919999999995
 20
-1.2878587085651816e-14
 30
0.0
  0
SPLINE
  5
35
330
17
100
AcDbEntity
  8
VISIBLE
100
AcDbSpline
 70
0
 71
3
 72
20
 73
16
 74
0
 40
0.0
 40
0.0
 40
0.0
 40
0.0
 40
1.0
 40
1.0
 40
1.0
 40
5.255902817088844
 40
5.255902817088844
 40
5.255902817088844
 40
9.511805634177689
 40
9.511805634177689
 40
9.511805634177689
 40
14.02447827085702
 40
14.02447827085702
 40
14.02447827085702
 40
17.467445349730728
 40
17.467445349730728
 40
17.467445349730728
 40
17.467445349730728
 10
5.999999999999999
 20
10.240805375042603
 30
0.0
 10
5.999999564145896
 20
10.23077331316095
 30
0.0
 10
5.988700920241711
 20
10.222785920012683
 30
0.0
 10
5.966104068287448
 20
10.216843195597779
 30
0.0
 10
5.87071579395985
 20
10.19081478537903
 30
0.0
 10
5.566600775610188
 20
10.207470485892234
 30
0.0
 10
5.085967241715304
 20
10.246217604269741
 30
0.0
 10
4.606508173019287
 20
10.284098435878873
 30
0.0
 10
3.9513104628028013
 20
10.341144506447556
 30
0.0
 10
3.183854614364214
 20
10.372497364936306
 30
0.0
 10
2.3713461340336477
 20
10.406331038358392
 30
0.0
 10
1.4303321980257586
 20
10.40786774360756
 30
0.0
 10
0.4767048095161953
 20
10.33909657815049
 30
0.0
 10
-0.250572755260176
 20
10.287559159417306
 30
0.0
 10
-0.981884621617468
 20
10.195766458764703
 30
0.0
 10
-1.6644745054696037
 20
10.067491543353006
 30
0.0
  0
SPLINE
  5
36
330
17
100
AcDbEntity
  8
VISIBLE
100
AcDbSpline
 70
0
 71
2
 72
6
 73
3
 74
0
 40
0.0
 40
0.0
 40
0.0
 40
1.0
 40
1.0
 40
1.0
 10
-0.6393029047422389
 20
10.228469697511567
 30
0.0
 10
-0.1223180459620396
 20
10.347984028146918
 30
0.0
 10
0.4081530826806938
 20
10.437385583947073
 30
0.0
  0
SPLINE
  5
37
330
17
100
AcDbEntity
  8
VISIBLE
100
AcDbSpline
 70
0
 71
3
 72
14
 73
10
 74
0
 40
0.0
 40
0.0
 40
0.0
 40
0.0
 40
0.18208743430674731
 40
0.18208743430674731
 40
0.18208743430674731
 40
0.5077205429234982
 40
0.5077205429234982
 40
0.5077205429234982
 40
1.0
 40
1.0
 40
1.0
 40
1.0
 10
0.40815308268069384
 20
10.437385583947073
 30
0.0
 10
0.943067472296327
 20
10.527433720596377
 30
0.0
 10
1.4817358154998927
 20
10.591369931239484
 30
0.0
 10
1.9988135618579506
 20
10.62747621157034
 30
0.0
 10
2.9248716084590125
 20
10.693371191019203
 30
0.0
 10
3.7733986565457833
 20
10.666612742319336
 30
0.0
 10
4.432453202721287
 20
10.597070958799295
 30
0.0
 10
5.434216852051944
 20
10.490938098475828
 30
0.0
 10
6.003485694763546
 20
10.307389409305188
 30
0.0
 10
5.999999999999999
 20
10.240805375042605
 30
0.0
  0
SPLINE
  5
38
330
17
100
AcDbEntity
  8
VISIBLE
100
AcDbSpline
 70
0
 71
3
 72
14
 73
10
 74
0
 40
0.0
 40
0.0
 40
0.0
 40
0.0
 40
0.11707065652763171
 40
0.11707065652763171
 40
0.11707065652763171
 40
0.23414131305526342
 40
0.23414131305526342
 40
0.23414131305526342
 40
0.4016726702476142
 40
0.4016726702476142
 40
0.4016726702476142
 40
0.4016726702476142
 10
6.0
 20
-10.240805375042608
 30
0.0
 10
6.000481752287165
 20
-10.281662148740509
 30
0.0
 10
5.8046295970043404
 20
-10.359465455819096
 30
0.0
 10
5.4334801533982855
 20
-10.441462147363143
 30
0.0
 10
5.0631954304147975
 20
-10.522935073608863
 30
0.0
 10
4.517702553485143
 20
-10.606276196370802
 30
0.0
 10
3.841204095109399
 20
-10.644036078339113
 30
0.0
 10
2.87632558346867
 20
-10.701792176461936
 30
0.0
 10
1.634855450417011
 20
-10.647362793291755
 30
0.0
 10
0.40815308899814745
 20
-10.437385586570235
 30
0.0
  0
SPLINE
  5
39
330
17
100
AcDbEntity
  8
VISIBLE
100
AcDbSpline
 70
0
 71
2
 72
6
 73
3
 74
0
 40
0.0
 40
0.0
 40
0.0
 40
1.0
 40
1.0
 40
1.0
 10
0.4081530889981473
 20
-10.437385586570237
 30
0.0
 10
-0.12229069521252035
 20
-10.347989457895787
 30
0.0
 10
-0.6393029177933052
 20
-10.228469693991485
 30
0.0
  0
SPLINE
  5
3A
330
17
100
AcDbEntity
  8
VISIBLE
100
AcDbSpline
 70
0
 71
3
 72
17
 73
13
 74
0
 40
0.0
 40
0.0
 40
0.0
 40
0.0
 40
0.3884244399143786
 40
0.3884244399143786
 40
0.3884244399143786
 40
0.5979815985168956
 40
0.5979815985168956
 40
0.5979815985168956
 40
0.7989907992584477
 40
0.7989907992584477
 40
0.7989907992584477
 40
1.0
 40
1.0
 40
1.0
 40
1.0
 10
-1.6644744599698216
 20
-10.067491550118945
 30
0.0
 10
-0.32029050484448723
 20
-10.324739878158098
 30
0.0
 10
1.2185144326994777
 20
-10.418622485894254
 30
0.0
 10
2.527351307873329
 20
-10.391603293765549
 30
0.0
 10
3.2341913752664757
 20
-10.379712232494349
 30
0.0
 10
3.874429155615395
 20
-10.339731505266066
 30
0.0
 10
4.402223011782681
 20
-10.30010867126472
 30
0.0
 10
4.90909847523257
 20
-10.261956287563759
 30
0.0
 10
5.313289008561994
 20
-10.22515431686631
 30
0.0
 10
5.585869850918343
 20
-10.211054622303275
 30
0.0
 10
5.86077691978725
 20
-10.195816099199142
 30
0.0
 10
5.998820302814474
 20
-10.205733016778929
 30
0.0
 10
5.999999999999999
 20
-10.240805375042608
 30
0.0
  0
SPLINE
  5
3B
330
17
100
AcDbEntity
  8
VISIBLE
100
AcDbSpline
 70
0
 71
3
 72
38
 73
34
 74
0
 40
0.0
 40
0.0
 40
0.0
 40
0.0
 40
0.125
 40
0.125
 40
0.125
 40
0.25
 40
0.25
 40
0.25
 40
0.28125
 40
0.28125
 40
0.28125
 40
0.3125
 40
0.3125
 40
0.3125
 40
0.375
 40
0.375
 40
0.375
 40
0.4375
 40
0.4375
 40
0.4375
 40
0.5
 40
0.5
 40
0.5
 40
0.5625
 40
0.5625
 40
0.5625
 40
0.625
 40
0.625
 40
0.625
 40
0.75
 40
0.75
 40
0.75
 40
1.0
 40
1.0
 40
1.0
 40
1.0
 10
19.76637779695423
 20
8.881784197001252e-16
 30
0.0
 10
19.768507414141503
 20
1.4681002077687977
 30
0.0
 10
19.417857456679645
 20
2.932448960324705
 30
0.0
 10
18.77567679674364
 20
4.249171083216897
 30
0.0
 10
18.13700811819999
 20
5.567907558546841
 30
0.0
 10
17.206808737182218
 20
6.739017404213066
 30
0.0
 10
16.14466300485156
 20
7.675027314021952
 30
0.0
 10
15.635818909419896
 20
8.125569217926682
 30
0.0
 10
15.093556072221244
 20
8.52548397244938
 30
0.0
 10
14.555837743931471
 20
8.865261042225084
 30
0.0
 10
14.017607537366416
 20
9.20569746202553
 30
0.0
 10
13.484046035322672
 20
9.487243909192253
 30
0.0
 10
12.978552227308038
 20
9.718495391911382
 30
0.0
 10
11.96389862580308
 20
10.181160054572656
 30
0.0
 10
11.073898801513876
 20
10.446527545739933
 30
0.0
 10
10.339928149910902
 20
10.623175544160869
 30
0.0
 10
9.60281785819377
 20
10.798269201064308
 30
0.0
 10
9.010078392586337
 20
10.886834819091275
 30
0.0
 10
8.507137829920893
 20
10.946357592212758
 30
0.0
 10
8.003723838349012
 20
11.004440657566825
 30
0.0
 10
7.591144381644545
 20
11.031483467283719
 30
0.0
 10
7.214727098486961
 20
11.047241498750484
 30
0.0
 10
6.682344697882385
 20
11.06811079674432
 30
0.0
 10
6.240241861409522
 20
11.065897422216548
 30
0.0
 10
5.838263812380472
 20
11.054776873255094
 30
0.0
 10
5.437201424483378
 20
11.04332923224582
 30
0.0
 10
5.07718664881596
 20
11.022590248626033
 30
0.0
 10
4.733703220385067
 20
10.99757684314482
 30
0.0
 10
4.048344510562599
 20
10.947367412523015
 30
0.0
 10
3.429297077369514
 20
10.878143716580107
 30
0.0
 10
2.8015669813580857
 20
10.797788185984624
 30
0.0
 10
2.023719523796242
 20
10.69723666778372
 30
0.0
 10
1.24041951045544
 20
10.577075733032949
 30
0.0
 10
0.40815306746684854
 20
10.437385583001772
 30
0.0
  0
SPLINE
  5
3C
330
17
100
AcDbEntity
  8
VISIBLE
100
AcDbSpline
 70
0
 71
2
 72
6
 73
3
 74
0
 40
0.0
 40
0.0
 40
0.0
 40
1.0
 40
1.0
 40
1.0
 10
-4.069023014049563
 20
9.59896930902509
 30
0.0
 10
-2.800770096726552
 20
9.85439248701141
 30
0.0
 10
-1.6644744642783604
 20
10.06749155051502
 30
0.0
  0
SPLINE
  5
3D
330
17
100
AcDbEntity
  8
VISIBLE
100
AcDbSpline
 70
0
 71
2
 72
6
 73
3
 74
0
 40
0.0
 40
0.0
 40
0.0
 40
1.0
 40
1.0
 40
1.0
 10
-4.069023014049546
 20
-9.598969309025088
 30
0.0
 10
-2.800770098075596
 20
-9.85439248673924
 30
0.0
 10
-1.664474466704652
 20
-10.067491550060454
 30
0.0
  0
SPLINE
  5
3E
330
17
100
AcDbEntity
  8
VISIBLE
100
AcDbSpline
 70
0
 71
3
 72
38
 73
34
 74
0
 40
0.0
 40
0.0
 40
0.0
 40
0.0
 40
0.125
 40
0.125
 40
0.125
 40
0.25
 40
0.25
 40
0.25
 40
0.28125
 40
0.28125
 40
0.28125
 40
0.3125
 40
0.3125
 40
0.3125
 40
0.375
 40
0.375
 40
0.375
 40
0.4375
 40
0.4375
 40
0.4375
 40
0.5
 40
0.5
 40
0.5
 40
0.5625
 40
0.5625
 40
0.5625
 40
0.625
 40
0.625
 40
0.625
 40
0.75
 40
0.75
 40
0.75
 40
1.0
 40
1.0
 40
1.0
 40
1.0
 10
19.766377796954227
 20
-5.329070518200751e-15
 30
0.0
 10
19.768507414141364
 20
-1.4681002077549552
 30
0.0
 10
19.417857456686285
 20
-2.9324489602972803
 30
0.0
 10
18.77567679676168
 20
-4.24917108317981
 30
0.0
 10
18.13700811822931
 20
-5.567907558500028
 30
0.0
 10
17.206808737227437
 20
-6.7390174041604585
 30
0.0
 10
16.144663004911322
 20
-7.675027313969199
 30
0.0
 10
15.635818909485627
 20
-8.125569217874359
 30
0.0
 10
15.09355607229254
 20
-8.525483972399167
 30
0.0
 10
14.555837744006434
 20
-8.865261042177732
 30
0.0
 10
14.017607537445112
 20
-9.205697461981051
 30
0.0
 10
13.48404603540338
 20
-9.487243909151406
 30
0.0
 10
12.978552227389374
 20
-9.718495391874178
 30
0.0
 10
11.96389862588564
 20
-10.181160054542847
 30
0.0
 10
11.073898801592698
 20
-10.446527545717181
 30
0.0
 10
10.339928149985612
 20
-10.623175544143042
 30
0.0
 10
9.602817858264284
 20
-10.798269201051491
 30
0.0
 10
9.010078392652007
 20
-10.886834819081695
 30
0.0
 10
8.507137829982753
 20
-10.946357592205533
 30
0.0
 10
8.003723838406874
 20
-11.004440657561979
 30
0.0
 10
7.591144381700388
 20
-11.031483467280339
 30
0.0
 10
7.214727098540864
 20
-11.04724149874829
 30
0.0
 10
6.68234469792958
 20
-11.068110796743893
 30
0.0
 10
6.240241861452704
 20
-11.065897422217054
 30
0.0
 10
5.8382638124206965
 20
-11.054776873256259
 30
0.0
 10
5.437201424520679
 20
-11.04332923224764
 30
0.0
 10
5.077186648851438
 20
-11.022590248628216
 30
0.0
 10
4.7337032204191924
 20
-10.997576843147334
 30
0.0
 10
4.04834451059402
 20
-10.947367412526157
 30
0.0
 10
3.4292970774004283
 20
-10.878143716583681
 30
0.0
 10
2.8015669813887145
 20
-10.797788185988592
 30
0.0
 10
2.02371952248728
 20
-10.697236667614268
 30
0.0
 10
1.2404195077735773
 20
-10.577075732623225
 30
0.0
 10
0.40815306319046085
 20
-10.437385582283136
 30
0.0
  0
SPLINE
  5
3F
330
17
100
AcDbEntity
  8
HIDDEN
100
AcDbSpline
 70
0
 71
3
 72
11
 73
7
 74
0
 40
0.0
 40
0.0
 40
0.0
 40
0.0
 40
0.49642958469181625
 40
0.49642958469181625
 40
0.49642958469181625
 40
1.0
 40
1.0
 40
1.0
 40
1.0
 10
13.562701758996349
 20
-1.7819079545233762e-14
 30
0.0
 10
13.561954611633887
 20
-0.17321215955826738
 30
0.0
 10
13.573279771253485
 20
-0.39134744394583104
 30
0.0
 10
13.583484478076688
 20
-0.5919294788538815
 30
0.0
 10
13.594060210890952
 20
-0.7907361223354084
 30
0.0
 10
13.5995653848654
 20
-0.9797390137793963
 30
0.0
 10
13.599999999999996
 20
-1.1589381531858418
 30
0.0
  0
SPLINE
  5
40
330
17
100
AcDbEntity
  8
HIDDEN
100
AcDbSpline
 70
0
 71
3
 72
20
 73
16
 74
0
 40
0.0
 40
0.0
 40
0.0
 40
0.0
 40
0.15297733964982088
 40
0.15297733964982088
 40
0.15297733964982088
 40
0.30595467929964176
 40
0.30595467929964176
 40
0.30595467929964176
 40
0.5931650340864003
 40
0.5931650340864003
 40
0.5931650340864003
 40
0.7863291649872652
 40
0.7863291649872652
 40
0.7863291649872652
 40
1.0
 40
1.0
 40
1.0
 40
1.0
 10
13.6
 20
-3.5
 30
0.0
 10
13.599999999999996
 20
-3.424451014738354
 30
0.0
 10
13.600000000000001
 20
-3.3280940815134974
 30
0.0
 10
13.6
 20
-3.232210406980726
 30
0.0
 10
13.600000000000001
 20
-3.1373474510624093
 30
0.0
 10
13.599999999999998
 20
-3.037180488368717
 30
0.0
 10
13.6
 20
-2.9317095188996483
 30
0.0
 10
13.599999999999998
 20
-2.730636112694059
 30
0.0
 10
13.599999999999998
 20
-2.5020756796920667
 30
0.0
 10
13.6
 20
-2.24602821989368
 30
0.0
 10
13.599999999999998
 20
-2.072327485577584
 30
0.0
 10
13.6
 20
-1.8986267512614896
 30
0.0
 10
13.6
 20
-1.7249260169453935
 30
0.0
 10
13.600000000000001
 20
-1.5360427144777158
 30
0.0
 10
13.6
 20
-1.3427806744885178
 30
0.0
 10
13.6
 20
-1.158938153185833
 30
0.0
  0
SPLINE
  5
41
330
17
100
AcDbEntity
  8
HIDDEN
100
AcDbSpline
 70
0
 71
2
 72
6
 73
3
 74
0
 40
0.0
 40
0.0
 40
0.0
 40
0.6893744251219218
 40
0.6893744251219218
 40
0.6893744251219218
 10
13.599999999999998
 20
-3.5
 30
0.0
 10
12.585738438467097
 20
-3.5
 30
0.0
 10
11.36130798215011
 20
-3.5
 30
0.0
  0
SPLINE
  5
42
330
17
100
AcDbEntity
  8
HIDDEN
100
AcDbSpline
 70
0
 71
2
 72
14
 73
11
 74
0
 40
0.0
 40
0.0
 40
0.0
 40
0.07240253157113585
 40
0.07240253157113585
 40
0.20018317912527817
 40
0.20018317912527817
 40
0.3503733482658504
 40
0.3503733482658504
 40
0.6122725722676577
 40
0.6122725722676577
 40
0.9999998059069416
 40
0.9999998059069416
 40
0.9999998059069416
 10
13.252494591597843
 20
-1.7319479184152442e-14
 30
0.0
 10
13.251303552472894
 20
-0.17530099971559787
 30
0.0
 10
13.225011943221645
 20
-0.3316839770013347
 30
0.0
 10
13.178202826095763
 20
-0.6006794336418599
 30
0.0
 10
13.100942783809883
 20
-0.8269653455419169
 30
0.0
 10
13.011369949628808
 20
-1.0976095313595038
 30
0.0
 10
12.888965022295801
 20
-1.3625907135189546
 30
0.0
 10
12.676307887662032
 20
-1.8226066494517343
 30
0.0
 10
12.386923758623542
 20
-2.2563453614555145
 30
0.0
 10
11.959261156966694
 20
-2.900232222517923
 30
0.0
 10
11.361307985552921
 20
-3.5000000000000013
 30
0.0
  0
SPLINE
  5
43
330
17
100
AcDbEntity
  8
HIDDEN
100
AcDbSpline
 70
0
 71
3
 72
17
 73
13
 74
0
 40
0.0
 40
0.0
 40
0.0
 40
0.0
 40
0.08391374766866541
 40
0.08391374766866541
 40
0.08391374766866541
 40
0.16782749533733082
 40
0.16782749533733082
 40
0.16782749533733082
 40
0.2517412430059962
 40
0.2517412430059962
 40
0.2517412430059962
 40
0.33565499067466165
 40
0.33565499067466165
 40
0.33565499067466165
 40
0.33565499067466165
 10
10.760319999999998
 20
-2.6645352591003757e-15
 30
0.0
 10
10.762723979465912
 20
1.2305938057329142
 30
0.0
 10
10.25290079052913
 20
2.4593969196524395
 30
0.0
 10
9.299027906369119
 20
3.522084522389054
 30
0.0
 10
8.349310030415902
 20
4.586345875963377
 30
0.0
 10
6.958312323510792
 20
5.481396846962619
 30
0.0
 10
5.312049603124102
 20
6.087544319589648
 30
0.0
 10
3.668160422277043
 20
6.6964118418076
 30
0.0
 10
1.773793662771443
 20
7.014607945800469
 30
0.0
 10
-0.11772149774327412
 20
6.999581058903089
 30
0.0
 10
-2.009289258955984
 20
6.987681735132084
 30
0.0
 10
-3.892500743936663
 20
6.642598592868017
 30
0.0
 10
-5.515518547753572
 20
6.010478754112727
 30
0.0
  0
SPLINE
  5
44
330
17
100
AcDbEntity
  8
HIDDEN
100
AcDbSpline
 70
0
 71
3
 72
17
 73
13
 74
0
 40
0.0
 40
0.0
 40
0.0
 40
0.0
 40
0.24999999999999992
 40
0.24999999999999992
 40
0.24999999999999992
 40
0.49999999999999983
 40
0.49999999999999983
 40
0.49999999999999983
 40
0.7499999999999999
 40
0.7499999999999999
 40
0.7499999999999999
 40
1.0
 40
1.0
 40
1.0
 40
1.0
 10
-5.5155185477535715
 20
6.010478754112725
 30
0.0
 10
-7.10716261364822
 20
5.394041058922171
 30
0.0
 10
-8.44517354168686
 20
4.504356362262739
 30
0.0
 10
-9.357703540372482
 20
3.4556915733739393
 30
0.0
 10
-10.274082987846965
 20
2.4084483406428245
 30
0.0
 10
-10.76253321773062
 20
1.2050307318727196
 30
0.0
 10
-10.760319998574106
 20
6.661338147750939e-16
 30
0.0
 10
-10.762533217730608
 20
-1.2050307318727205
 30
0.0
 10
-10.274082987846969
 20
-2.4084483406428157
 30
0.0
 10
-9.357703540372473
 20
-3.45569157337394
 30
0.0
 10
-8.44517354168684
 20
-4.504356362262715
 30
0.0
 10
-7.107162613648251
 20
-5.394041058922158
 30
0.0
 10
-5.515518547753558
 20
-6.010478754112723
 30
0.0
  0
SPLINE
  5
45
330
17
100
AcDbEntity
  8
HIDDEN
100
AcDbSpline
 70
0
 71
3
 72
17
 73
13
 74
0
 40
0.0
 40
0.0
 40
0.0
 40
0.0
 40
0.24999999999999983
 40
0.24999999999999983
 40
0.24999999999999983
 40
0.5
 40
0.5
 40
0.5
 40
0.7500000000000001
 40
0.7500000000000001
 40
0.7500000000000001
 40
1.0
 40
1.0
 40
1.0
 40
1.0
 10
-5.515518547753558
 20
-6.010478754112723
 30
0.0
 10
-3.8925007439366657
 20
-6.6425985928679925
 30
0.0
 10
-2.009289258955996
 20
-6.987681735132074
 30
0.0
 10
-0.11772149774327367
 20
-6.999581058903091
 30
0.0
 10
1.7737936627714328
 20
-7.014607945800452
 30
0.0
 10
3.6681604222770328
 20
-6.6964118418075405
 30
0.0
 10
5.312049603124109
 20
-6.087544319589637
 30
0.0
 10
6.95831232351081
 20
-5.481396846962582
 30
0.0
 10
8.349310030415914
 20
-4.586345875963416
 30
0.0
 10
9.299027906369128
 20
-3.52208452238908
 30
0.0
 10
10.252900790529102
 20
-2.459396919652567
 30
0.0
 10
10.762723979466204
 20
-1.2305938057322388
 30
0.0
 10
10.760319999999995
 20
-2.6645352591003757e-15
 30
0.0
  0
SPLINE
  5
46
330
17
100
AcDbEntity
  8
HIDDEN
100
AcDbSpline
 70
0
 71
2
 72
12
 73
9
 74
0
 40
0.0
 40
0.0
 40
0.0
 40
0.5886770237224892
 40
0.5886770237224892
 40
0.8034892393854798
 40
0.8034892393854798
 40
0.9061656203441806
 40
0.9061656203441806
 40
1.0
 40
1.0
 40
1.0
 10
11.361307985552857
 20
3.5000000000000027
 30
0.0
 10
12.27002699336342
 20
2.588692884002568
 30
0.0
 10
12.787837858726867
 20
1.5717094603458734
 30
0.0
 10
12.977911299508342
 20
1.2022833950014173
 30
0.0
 10
13.111344002757258
 20
0.7948210693383413
 30
0.0
 10
13.175147260315276
 20
0.5973537703895238
 30
0.0
 10
13.213571034388037
 20
0.3974058577466819
 30
0.0
 10
13.25025426523233
 20
0.2135231597479991
 30
0.0
 10
13.252494591597825
 20
2.498001805406602e-16
 30
0.0
  0
SPLINE
  5
47
330
17
100
AcDbEntity
  8
HIDDEN
100
AcDbSpline
 70
0
 71
2
 72
6
 73
3
 74
0
 40
0.0
 40
0.0
 40
0.0
 40
0.6893744251219276
 40
0.6893744251219276
 40
0.6893744251219276
 10
13.6
 20
3.5
 30
0.0
 10
12.585738438467082
 20
3.5
 30
0.0
 10
11.361307982150047
 20
3.5
 30
0.0
  0
SPLINE
  5
48
330
17
100
AcDbEntity
  8
HIDDEN
100
AcDbSpline
 70
0
 71
3
 72
20
 73
16
 74
0
 40
0.0
 40
0.0
 40
0.0
 40
0.0
 40
0.1529773396416804
 40
0.1529773396416804
 40
0.1529773396416804
 40
0.3059546792833608
 40
0.3059546792833608
 40
0.3059546792833608
 40
0.5931650340727742
 40
0.5931650340727742
 40
0.5931650340727742
 40
0.786329164975389
 40
0.786329164975389
 40
0.786329164975389
 40
1.0
 40
1.0
 40
1.0
 40
1.0
 10
13.6
 20
3.5
 30
0.0
 10
13.599999999999996
 20
3.4244510147120333
 30
0.0
 10
13.600000000000001
 20
3.328094081497653
 30
0.0
 10
13.6
 20
3.232210406965248
 30
0.0
 10
13.600000000000001
 20
3.1373474510454846
 30
0.0
 10
13.600000000000001
 20
3.0371804883509657
 30
0.0
 10
13.6
 20
2.931709518881688
 30
0.0
 10
13.599999999999993
 20
2.730636112676312
 30
0.0
 10
13.600000000000007
 20
2.5020756796744497
 30
0.0
 10
13.599999999999996
 20
2.246028219876089
 30
0.0
 10
13.6
 20
2.0723274855600855
 30
0.0
 10
13.599999999999996
 20
1.8986267512440813
 30
0.0
 10
13.600000000000003
 20
1.724926016928078
 30
0.0
 10
13.599999999999994
 20
1.5360427144712252
 30
0.0
 10
13.600000000000003
 20
1.342780674449339
 30
0.0
 10
13.6
 20
1.1589381531859302
 30
0.0
  0
SPLINE
  5
49
330
17
100
AcDbEntity
  8
HIDDEN
100
AcDbSpline
 70
0
 71
2
 72
8
 73
5
 74
0
 40
0.0
 40
0.0
 40
0.0
 40
0.5275883499886226
 40
0.5275883499886226
 40
1.0
 40
1.0
 40
1.0
 10
13.6
 20
1.1589381531858929
 30
0.0
 10
13.599374979724907
 20
0.8928881442570105
 30
0.0
 10
13.5837962519728
 20
0.5982857921424185
 30
0.0
 10
13.567054605721806
 20
0.3336829835823328
 30
0.0
 10
13.562701758996367
 20
3.3306690738754696e-16
 30
0.0
  0
SPLINE
  5
4A
330
17
100
AcDbEntity
  8
HIDDEN
100
AcDbSpline
 70
0
 71
3
 72
14
 73
10
 74
0
 40
0.0
 40
0.0
 40
0.0
 40
0.0
 40
0.22807475518427717
 40
0.22807475518427717
 40
0.22807475518427717
 40
0.6499159193908441
 40
0.6499159193908441
 40
0.6499159193908441
 40
1.0
 40
1.0
 40
1.0
 40
1.0
 10
-1.6644745054696035
 20
10.067491543353006
 30
0.0
 10
-2.2400152863656735
 20
9.959801527930813
 30
0.0
 10
-2.7812098466681143
 20
9.826921628292144
 30
0.0
 10
-3.2691018383162587
 20
9.679260242544734
 30
0.0
 10
-4.1718157365541755
 20
9.407353866025645
 30
0.0
 10
-4.894139485116133
 20
9.081313752008642
 30
0.0
 10
-5.372893384451659
 20
8.80455405554117
 30
0.0
 10
-5.7710125237460055
 20
8.575399046394667
 30
0.0
 10
-6.001203250431258
 20
8.382075347108502
 30
0.0
 10
-5.999999993949349
 20
8.321437712985503
 30
0.0
  0
SPLINE
  5
4B
330
17
100
AcDbEntity
  8
HIDDEN
100
AcDbSpline
 70
0
 71
3
 72
14
 73
10
 74
0
 40
0.0
 40
0.0
 40
0.0
 40
0.0
 40
0.18883698869721802
 40
0.18883698869721802
 40
0.18883698869721802
 40
0.654083170338385
 40
0.654083170338385
 40
0.654083170338385
 40
1.0
 40
1.0
 40
1.0
 40
1.0
 10
-5.99999999394935
 20
8.321437712985503
 30
0.0
 10
-5.999331063718957
 20
8.283214114300042
 30
0.0
 10
-5.914983132404247
 20
8.295429210023173
 30
0.0
 10
-5.746956200005226
 20
8.358083000154856
 30
0.0
 10
-5.333641205463446
 20
8.511647517899789
 30
0.0
 10
-4.474732425632529
 20
8.948007672354516
 30
0.0
 10
-3.3987506568332995
 20
9.367782200640402
 30
0.0
 10
-2.596163902967507
 20
9.682417564222485
 30
0.0
 10
-1.6535322310626186
 20
9.995201469374033
 30
0.0
 10
-0.6393029047422387
 20
10.228469697511567
 30
0.0
  0
SPLINE
  5
4C
330
17
100
AcDbEntity
  8
HIDDEN
100
AcDbSpline
 70
0
 71
3
 72
17
 73
13
 74
0
 40
0.0
 40
0.0
 40
0.0
 40
0.0
 40
0.3462452095601993
 40
0.3462452095601993
 40
0.3462452095601993
 40
0.5707671638400005
 40
0.5707671638400005
 40
0.5707671638400005
 40
0.905055526595317
 40
0.905055526595317
 40
0.905055526595317
 40
1.0
 40
1.0
 40
1.0
 40
1.0
 10
-0.6393029177933052
 20
-10.228469693991485
 30
0.0
 10
-1.6545942221347507
 20
-9.994954941707372
 30
0.0
 10
-2.5979391571700354
 20
-9.681820632335931
 30
0.0
 10
-3.4010062889583628
 20
-9.366900004329318
 30
0.0
 10
-3.9222681930585495
 20
-9.163097260634675
 30
0.0
 10
-4.387793168081863
 20
-8.95848730616155
 30
0.0
 10
-4.780151054796684
 20
-8.78170616629721
 30
0.0
 10
-5.364217241808024
 20
-8.517507012958983
 30
0.0
 10
-5.785648279049259
 20
-8.321705434958076
 30
0.0
 10
-5.935640189161662
 20
-8.30195702787198
 30
0.0
 10
-5.978576957078992
 20
-8.295782631201737
 30
0.0
 10
-6.000030231363291
 20
-8.302276184018371
 30
0.0
 10
-6.00000001201456
 20
-8.321437686321921
 30
0.0
  0
SPLINE
  5
4D
330
17
100
AcDbEntity
  8
HIDDEN
100
AcDbSpline
 70
0
 71
3
 72
14
 73
10
 74
0
 40
0.0
 40
0.0
 40
0.0
 40
0.0
 40
0.3872107306501228
 40
0.3872107306501228
 40
0.3872107306501228
 40
0.7356361834308782
 40
0.7356361834308782
 40
0.7356361834308782
 40
1.0
 40
1.0
 40
1.0
 40
1.0
 10
-6.000000012014557
 20
-8.321437686321916
 30
0.0
 10
-6.000901402867931
 20
-8.388717311673952
 30
0.0
 10
-5.721841345433195
 20
-8.61609174673619
 30
0.0
 10
-5.243315098900883
 20
-8.877222023167473
 30
0.0
 10
-4.812864382968737
 20
-9.112816223396058
 30
0.0
 10
-4.219920038830417
 20
-9.375598491138597
 30
0.0
 10
-3.499600577366774
 20
-9.60729178383803
 30
0.0
 10
-2.9533977844820662
 20
-9.78360156199231
 30
0.0
 10
-2.332364262334209
 20
-9.94260096533917
 30
0.0
 10
-1.664474459969821
 20
-10.067491550118945
 30
0.0
  0
SPLINE
  5
4E
330
17
100
AcDbEntity
  8
HIDDEN
100
AcDbSpline
 70
0
 71
3
 72
11
 73
7
 74
0
 40
0.0
 40
0.0
 40
0.0
 40
0.0
 40
0.39783309074055095
 40
0.39783309074055095
 40
0.39783309074055095
 40
1.0
 40
1.0
 40
1.0
 40
1.0
 10
-11.703117481278166
 20
-3.5
 30
0.0
 10
-9.81004692272379
 20
-3.5000000000000004
 30
0.0
 10
-8.270743323768105
 20
-3.4999999999999982
 30
0.0
 10
-7.111376016968794
 20
-3.5
 30
0.0
 10
-5.35265070394906
 20
-3.499999999999998
 30
0.0
 10
-4.473286103146433
 20
-3.5000000000000018
 30
0.0
 10
-4.4732822145609035
 20
-3.5
 30
0.0
  0
SPLINE
  5
4F
330
17
100
AcDbEntity
  8
HIDDEN
100
AcDbSpline
 70
0
 71
3
 72
11
 73
7
 74
0
 40
0.0
 40
0.0
 40
0.0
 40
0.0
 40
0.42890143586570506
 40
0.42890143586570506
 40
0.42890143586570506
 40
1.0
 40
1.0
 40
1.0
 40
1.0
 10
-4.4732822145609035
 20
-3.5
 30
0.0
 10
-4.475310847447661
 20
-3.499999999999999
 30
0.0
 10
-4.731557460421819
 20
-3.5000000000000013
 30
0.0
 10
-5.2420220534833835
 20
-3.5
 30
0.0
 10
-5.913984086284763
 20
-3.5
 30
0.0
 10
-7.042474669805835
 20
-3.4999999999999996
 30
0.0
 10
-8.479395291931441
 20
-3.5
 30
0.0
  0
SPLINE
  5
50
330
17
100
AcDbEntity
  8
HIDDEN
100
AcDbSpline
 70
0
 71
3
 72
11
 73
7
 74
0
 40
0.0
 40
0.0
 40
0.0
 40
0.0
 40
0.5044883138860075
 40
0.5044883138860075
 40
0.5044883138860075
 40
1.0
 40
1.0
 40
1.0
 40
1.0
 10
-11.703117476438614
 20
-3.500000000000002
 30
0.0
 10
-12.123647288241202
 20
-2.418603141793399
 30
0.0
 10
-12.34310772284093
 20
-1.2060663881182108
 30
0.0
 10
-12.338928187534394
 20
0.03398628965839867
 30
0.0
 10
-12.335021869829683
 20
1.250942655135477
 30
0.0
 10
-12.115960135547324
 20
2.4379148236639097
 30
0.0
 10
-11.703117476438617
 20
3.5000000000000013
 30
0.0
  0
SPLINE
  5
51
330
17
100
AcDbEntity
  8
HIDDEN
100
AcDbSpline
 70
0
 71
3
 72
11
 73
7
 74
0
 40
0.0
 40
0.0
 40
0.0
 40
0.0
 40
0.397833090739535
 40
0.397833090739535
 40
0.397833090739535
 40
1.0
 40
1.0
 40
1.0
 40
1.0
 10
-11.703117481278264
 20
3.5
 30
0.0
 10
-9.810046922723968
 20
3.5000000000000036
 30
0.0
 10
-8.270743323767956
 20
3.499999999999998
 30
0.0
 10
-7.111376016968797
 20
3.5
 30
0.0
 10
-5.352650703950122
 20
3.5000000000000004
 30
0.0
 10
-4.473286103147473
 20
3.4999999999999987
 30
0.0
 10
-4.473282214560859
 20
3.5
 30
0.0
  0
SPLINE
  5
52
330
17
100
AcDbEntity
  8
HIDDEN
100
AcDbSpline
 70
0
 71
3
 72
11
 73
7
 74
0
 40
0.0
 40
0.0
 40
0.0
 40
0.0
 40
0.4289014359198516
 40
0.4289014359198516
 40
0.4289014359198516
 40
1.0
 40
1.0
 40
1.0
 40
1.0
 10
-4.473282214560858
 20
3.5
 30
0.0
 10
-4.4753108474485925
 20
3.4999999999999987
 30
0.0
 10
-4.731557460487361
 20
3.4999999999999996
 30
0.0
 10
-5.242022053677154
 20
3.5
 30
0.0
 10
-5.913984086498239
 20
3.5
 30
0.0
 10
-7.0424746699445295
 20
3.4999999999999996
 30
0.0
 10
-8.479395291931441
 20
3.5
 30
0.0
  0
SPLINE
  5
53
330
17
100
AcDbEntity
  8
HIDDEN
100
AcDbSpline
 70
0
 71
3
 72
11
 73
7
 74
0
 40
0.0
 40
0.0
 40
0.0
 40
0.0
 40
0.5026986388687674
 40
0.5026986388687674
 40
0.5026986388687674
 40
1.0
 40
1.0
 40
1.0
 40
1.0
 10
-8.479395284496073
 20
-3.499999999999992
 30
0.0
 10
-9.217959625563863
 20
-2.4559455401997803
 30
0.0
 10
-9.61247498059539
 20
-1.2274821757281629
 30
0.0
 10
-9.607156155489589
 20
0.020012887962181924
 30
0.0
 10
-9.604024137578055
 20
1.2539820976479503
 30
0.0
 10
-9.210057283521039
 20
2.4669307938666836
 30
0.0
 10
-8.479395284496066
 20
3.500000000000002
 30
0.0
  0
SPLINE
  5
54
330
17
100
AcDbEntity
  8
HIDDEN
100
AcDbSpline
 70
0
 71
3
 72
17
 73
13
 74
0
 40
0.0
 40
0.0
 40
0.0
 40
0.0
 40
4.5819761730395125
 40
4.5819761730395125
 40
4.5819761730395125
 40
6.318442405051315
 40
6.318442405051315
 40
6.318442405051315
 40
9.296894840818288
 40
9.296894840818288
 40
9.296894840818288
 40
12.532813105806536
 40
12.532813105806536
 40
12.532813105806536
 40
12.532813105806536
 10
6.000000000000001
 20
7.771805122881267
 30
0.0
 10
6.0016450464842945
 20
7.897297557915865
 30
0.0
 10
5.455711235571725
 20
8.161175395602388
 30
0.0
 10
4.4860306451467595
 20
8.325912571799245
 30
0.0
 10
4.119263186665181
 20
8.387555607745956
 30
0.0
 10
3.692032598082067
 20
8.433094607673558
 30
0.0
 10
3.220289161173692
 20
8.448218624044618
 30
0.0
 10
2.4123511374699587
 20
8.476137878351164
 30
0.0
 10
1.4711970516925206
 20
8.40554670105455
 30
0.0
 10
0.5492592255389981
 20
8.223447971044365
 30
0.0
 10
-0.45519006538258766
 20
8.028163966110508
 30
0.0
 10
-1.4208877610854014
 20
7.710405730235235
 30
0.0
 10
-2.25881661802503
 20
7.34284867450193
 30
0.0
  0
SPLINE
  5
55
330
17
100
AcDbEntity
  8
HIDDEN
100
AcDbSpline
 70
0
 71
3
 72
17
 73
13
 74
0
 40
0.0
 40
0.0
 40
0.0
 40
0.0
 40
0.2718456560694836
 40
0.2718456560694836
 40
0.2718456560694836
 40
0.5805584800784649
 40
0.5805584800784649
 40
0.5805584800784649
 40
0.8713134070634886
 40
0.8713134070634886
 40
0.8713134070634886
 40
1.0
 40
1.0
 40
1.0
 40
1.0
 10
-2.2588166180250284
 20
7.342848674501928
 30
0.0
 10
-2.8364577489348886
 20
7.090422612320019
 30
0.0
 10
-3.3597735517435
 20
6.8146194412694
 30
0.0
 10
-3.8248290051930924
 20
6.538567159007918
 30
0.0
 10
-4.352423764681305
 20
6.225890602869186
 30
0.0
 10
-4.807964943241471
 20
5.909555793504288
 30
0.0
 10
-5.1748367114912535
 20
5.642796193653108
 30
0.0
 10
-5.519110280935523
 20
5.39266521937804
 30
0.0
 10
-5.785707151888253
 20
5.18837941723753
 30
0.0
 10
-5.914173930373802
 20
5.121656784345267
 30
0.0
 10
-5.971287193730116
 20
5.091844226077258
 30
0.0
 10
-5.9998958850536575
 20
5.088728292811504
 30
0.0
 10
-6.000000004344418
 20
5.112308984547997
 30
0.0
  0
SPLINE
  5
56
330
17
100
AcDbEntity
  8
HIDDEN
100
AcDbSpline
 70
0
 71
3
 72
14
 73
10
 74
0
 40
0.0
 40
0.0
 40
0.0
 40
0.0
 40
0.19404596677096955
 40
0.19404596677096955
 40
0.19404596677096955
 40
0.6872297064462827
 40
0.6872297064462827
 40
0.6872297064462827
 40
1.0
 40
1.0
 40
1.0
 40
1.0
 10
-6.0000000043444155
 20
5.1123089845479965
 30
0.0
 10
-5.999055050136217
 20
5.141895600920715
 30
0.0
 10
-5.960923582596514
 20
5.200688761005766
 30
0.0
 10
-5.885605601725315
 20
5.288688464803157
 30
0.0
 10
-5.695284158680454
 20
5.5091391131240295
 30
0.0
 10
-5.298223619598558
 20
5.855558175594602
 30
0.0
 10
-4.74952547649438
 20
6.189208653801852
 30
0.0
 10
-4.399491802452012
 20
6.4055132321015105
 30
0.0
 10
-3.9873758559964947
 20
6.612766721193888
 30
0.0
 10
-3.5131776371278463
 20
6.810969121079022
 30
0.0
  0
SPLINE
  5
57
330
17
100
AcDbEntity
  8
HIDDEN
100
AcDbSpline
 70
0
 71
3
 72
20
 73
16
 74
0
 40
0.0
 40
0.0
 40
0.0
 40
0.0
 40
0.21819354728154572
 40
0.21819354728154572
 40
0.21819354728154572
 40
0.48407598421083414
 40
0.48407598421083414
 40
0.48407598421083414
 40
0.6507113026573694
 40
0.6507113026573694
 40
0.6507113026573694
 40
0.8253556513286847
 40
0.8253556513286847
 40
0.8253556513286847
 40
1.0
 40
1.0
 40
1.0
 40
1.0
 10
-3.513177637127847
 20
6.810969121079022
 30
0.0
 10
-2.7989768476630386
 20
7.107038972726752
 30
0.0
 10
-1.9409553261176724
 20
7.360984977698529
 30
0.0
 10
-1.008084978586521
 20
7.532347827649484
 30
0.0
 10
0.12630325090035585
 20
7.744713557110492
 30
0.0
 10
1.3607205055246383
 20
7.824614707307031
 30
0.0
 10
2.444436808163372
 20
7.81583488939383
 30
0.0
 10
3.1244330224164503
 20
7.8120378172274965
 30
0.0
 10
3.745881501056348
 20
7.778204422430627
 30
0.0
 10
4.267716220082172
 20
7.744416484273296
 30
0.0
 10
4.815341953549018
 20
7.708829285105788
 30
0.0
 10
5.2546869987655525
 20
7.674768269549237
 30
0.0
 10
5.550686403565896
 20
7.673359540031677
 30
0.0
 10
5.849229214386685
 20
7.670563678222219
 30
0.0
 10
5.999000413198057
 20
7.7033788725054215
 30
0.0
 10
6.000000000000002
 20
7.771805122881267
 30
0.0
  0
SPLINE
  5
58
330
17
100
AcDbEntity
  8
HIDDEN
100
AcDbSpline
 70
0
 71
3
 72
20
 73
16
 74
0
 40
0.0
 40
0.0
 40
0.0
 40
0.0
 40
0.13640345491569278
 40
0.13640345491569278
 40
0.13640345491569278
 40
0.27280690983138556
 40
0.27280690983138556
 40
0.27280690983138556
 40
0.39480905133960187
 40
0.39480905133960187
 40
0.39480905133960187
 40
0.6031056501055105
 40
0.6031056501055105
 40
0.6031056501055105
 40
0.769016542726521
 40
0.769016542726521
 40
0.769016542726521
 40
0.769016542726521
 10
5.999999999999999
 20
-7.7718051228812755
 30
0.0
 10
5.9989176039433225
 20
-7.7023385869876755
 30
0.0
 10
5.844469894352717
 20
-7.669558025462276
 30
0.0
 10
5.536656871228177
 20
-7.673463438305055
 30
0.0
 10
5.231557166682777
 20
-7.6758620391420465
 30
0.0
 10
4.778937386285859
 20
-7.711610573317402
 30
0.0
 10
4.215918711828167
 20
-7.747741524714099
 30
0.0
 10
3.7129647356545092
 20
-7.779893924201415
 30
0.0
 10
3.1208539071961994
 20
-7.811173264231988
 30
0.0
 10
2.4751363317219264
 20
-7.815638456920452
 30
0.0
 10
1.3739879363908063
 20
-7.826154120402366
 30
0.0
 10
0.11413868435805284
 20
-7.745189478318881
 30
0.0
 10
-1.0396218537248298
 20
-7.526487202213894
 30
0.0
 10
-1.960478045817885
 20
-7.355274598129267
 30
0.0
 10
-2.807172501853005
 20
-7.103605471638443
 30
0.0
 10
-3.513177371357985
 20
-6.810969231842943
 30
0.0
  0
SPLINE
  5
59
330
17
100
AcDbEntity
  8
HIDDEN
100
AcDbSpline
 70
0
 71
3
 72
11
 73
7
 74
0
 40
0.0
 40
0.0
 40
0.0
 40
0.0
 40
0.6511346662142746
 40
0.6511346662142746
 40
0.6511346662142746
 40
1.0
 40
1.0
 40
1.0
 40
1.0
 10
-3.513177371357985
 20
-6.810969231842942
 30
0.0
 10
-4.497637837199186
 20
-6.407373887139929
 30
0.0
 10
-5.228226268206522
 20
-5.9127839666459305
 30
0.0
 10
-5.647208854792246
 20
-5.529027290787388
 30
0.0
 10
-5.870221181165945
 20
-5.3263279818711355
 30
0.0
 10
-6.000234742825419
 20
-5.161426794825113
 30
0.0
 10
-5.999999999439523
 20
-5.112309193273508
 30
0.0
  0
SPLINE
  5
5A
330
17
100
AcDbEntity
  8
HIDDEN
100
AcDbSpline
 70
0
 71
3
 72
14
 73
10
 74
0
 40
0.0
 40
0.0
 40
0.0
 40
0.0
 40
0.304604971062142
 40
0.304604971062142
 40
0.304604971062142
 40
0.7244545332323089
 40
0.7244545332323089
 40
0.7244545332323089
 40
1.0
 40
1.0
 40
1.0
 40
1.0
 10
-5.999999999439524
 20
-5.112309193273507
 30
0.0
 10
-6.002399949878447
 20
-5.052734732557781
 30
0.0
 10
-5.829845639155728
 20
-5.161683513153094
 30
0.0
 10
-5.5415388421701515
 20
-5.374346238972354
 30
0.0
 10
-5.143656444840161
 20
-5.666540580307914
 30
0.0
 10
-4.556519512714232
 20
-6.104626412992132
 30
0.0
 10
-3.8436153509338835
 20
-6.52740045926876
 30
0.0
 10
-3.373873416684483
 20
-6.807172987393941
 30
0.0
 10
-2.844250934007817
 20
-7.087020076672394
 30
0.0
 10
-2.258816344954722
 20
-7.3428487932028315
 30
0.0
  0
SPLINE
  5
5B
330
17
100
AcDbEntity
  8
HIDDEN
100
AcDbSpline
 70
0
 71
3
 72
20
 73
16
 74
0
 40
0.0
 40
0.0
 40
0.0
 40
0.0
 40
0.2559865694030599
 40
0.2559865694030599
 40
0.2559865694030599
 40
0.37785746884502863
 40
0.37785746884502863
 40
0.37785746884502863
 40
0.5665495717871597
 40
0.5665495717871597
 40
0.5665495717871597
 40
0.7833370024899791
 40
0.7833370024899791
 40
0.7833370024899791
 40
1.0
 40
1.0
 40
1.0
 40
1.0
 10
-2.258816344954722
 20
-7.342848793202829
 30
0.0
 10
-1.4279635062608176
 20
-7.707258245397753
 30
0.0
 10
-0.4718107975461695
 20
-8.022750245645799
 30
0.0
 10
0.5235962844588513
 20
-8.218404679976052
 30
0.0
 10
0.996080059488444
 20
-8.311890973423246
 30
0.0
 10
1.4741877842949658
 20
-8.378267977367981
 30
0.0
 10
1.9371711402660703
 20
-8.415610728888574
 30
0.0
 10
2.6546767322558655
 20
-8.474227919764989
 30
0.0
 10
3.331573861716774
 20
-8.461498975305012
 30
0.0
 10
3.9057218687942843
 20
-8.403202322558947
 30
0.0
 10
4.566753330565914
 20
-8.336780070666316
 30
0.0
 10
5.0941038878364795
 20
-8.21358311438437
 30
0.0
 10
5.451898705062857
 20
-8.09106095193481
 30
0.0
 10
5.810188717612617
 20
-7.96803303599189
 30
0.0
 10
6.000339793266857
 20
-7.8475147463899555
 30
0.0
 10
6.0
 20
-7.7718051228812755
 30
0.0
  0
LINE
  5
5C
330
17
100
AcDbEntity
  8
HIDDEN
100
AcDbLine
 10
6.0
 20
-3.5
 30
0.0
 11
6.0
 21
-7.771805122881272
 31
0.0
  0
SPLINE
  5
5D
330
17
100
AcDbEntity
  8
HIDDEN
100
AcDbSpline
 70
0
 71
1
 72
17
 73
15
 74
0
 40
0.0
 40
0.0
 40
0.2243994752564138
 40
0.4487989505128276
 40
0.6731984257692414
 40
0.8975979010256552
 40
1.121997376282069
 40
1.3463968515384828
 40
1.5707963267948966
 40
1.7951958020513104
 40
2.019595277307724
 40
2.243994752564138
 40
2.4683942278205517
 40
2.6927937030769655
 40
2.9171931783333793
 40
3.141592653589793
 40
3.141592653589793
 10
6.0
 20
-3.5
 30
0.0
 10
5.849567473090942
 20
-3.4999999999999996
 30
0.0
 10
5.405813207414514
 20
-3.499999999999999
 30
0.0
 10
4.690988894808179
 20
-3.499999999999999
 30
0.0
 10
3.740938811152401
 20
-3.499999999999999
 30
0.0
 10
2.6033024347053493
 20
-3.4999999999999987
 30
0.0
 10
1.3351256037378865
 20
-3.4999999999999987
 30
0.0
 10
4.440892098500626e-16
 20
-3.4999999999999987
 30
0.0
 10
-1.335125603737886
 20
-3.4999999999999987
 30
0.0
 10
-2.6033024347053484
 20
-3.499999999999999
 30
0.0
 10
-3.7409388111524007
 20
-3.499999999999999
 30
0.0
 10
-4.690988894808179
 20
-3.499999999999999
 30
0.0
 10
-5.405813207414514
 20
-3.4999999999999996
 30
0.0
 10
-5.849567473090943
 20
-3.5
 30
0.0
 10
-6.0
 20
-3.5
 30
0.0
  0
SPLINE
  5
5E
330
17
100
AcDbEntity
  8
HIDDEN
100
AcDbSpline
 70
0
 71
1
 72
17
 73
15
 74
0
 40
0.0
 40
0.0
 40
0.07142857142857142
 40
0.14285714285714285
 40
0.21428571428571427
 40
0.2857142857142857
 40
0.35714285714285715
 40
0.42857142857142855
 40
0.5
 40
0.5714285714285714
 40
0.6428571428571429
 40
0.7142857142857143
 40
0.7857142857142857
 40
0.8571428571428571
 40
0.9285714285714286
 40
1.0
 40
1.0
 10
-6.0
 20
-3.5
 30
0.0
 10
-5.849567473090942
 20
-3.5000000000000004
 30
0.0
 10
-5.405813207414515
 20
-3.500000000000001
 30
0.0
 10
-4.6909888948081795
 20
-3.500000000000001
 30
0.0
 10
-3.7409388111524016
 20
-3.500000000000001
 30
0.0
 10
-2.6033024347053497
 20
-3.5000000000000013
 30
0.0
 10
-1.3351256037378876
 20
-3.5000000000000013
 30
0.0
 10
-1.1102230246251565e-15
 20
-3.5000000000000013
 30
0.0
 10
1.3351256037378851
 20
-3.5000000000000013
 30
0.0
 10
2.6033024347053475
 20
-3.500000000000001
 30
0.0
 10
3.7409388111524002
 20
-3.500000000000001
 30
0.0
 10
4.690988894808179
 20
-3.500000000000001
 30
0.0
 10
5.405813207414514
 20
-3.5000000000000004
 30
0.0
 10
5.849567473090941
 20
-3.5
 30
0.0
 10
6.0
 20
-3.5
 30
0.0
  0
SPLINE
  5
5F
330
17
100
AcDbEntity
  8
HIDDEN
100
AcDbSpline
 70
0
 71
1
 72
17
 73
15
 74
0
 40
0.0
 40
0.0
 40
0.2243994752564138
 40
0.4487989505128276
 40
0.6731984257692414
 40
0.8975979010256552
 40
1.121997376282069
 40
1.3463968515384828
 40
1.5707963267948966
 40
1.7951958020513104
 40
2.019595277307724
 40
2.243994752564138
 40
2.4683942278205517
 40
2.6927937030769655
 40
2.9171931783333793
 40
3.141592653589793
 40
3.141592653589793
 10
6.0
 20
3.5
 30
0.0
 10
5.849567473090942
 20
3.5000000000000004
 30
0.0
 10
5.405813207414514
 20
3.500000000000001
 30
0.0
 10
4.690988894808179
 20
3.500000000000001
 30
0.0
 10
3.740938811152401
 20
3.500000000000001
 30
0.0
 10
2.6033024347053493
 20
3.5000000000000013
 30
0.0
 10
1.3351256037378865
 20
3.5000000000000013
 30
0.0
 10
4.440892098500626e-16
 20
3.5000000000000013
 30
0.0
 10
-1.335125603737886
 20
3.5000000000000013
 30
0.0
 10
-2.6033024347053484
 20
3.500000000000001
 30
0.0
 10
-3.7409388111524007
 20
3.500000000000001
 30
0.0
 10
-4.690988894808179
 20
3.500000000000001
 30
0.0
 10
-5.405813207414514
 20
3.5000000000000004
 30
0.0
 10
-5.849567473090943
 20
3.5
 30
0.0
 10
-6.0
 20
3.5
 30
0.0
  0
SPLINE
  5
60
330
17
100
AcDbEntity
  8
HIDDEN
100
AcDbSpline
 70
0
 71
1
 72
17
 73
15
 74
0
 40
0.0
 40
0.0
 40
0.07142857142857142
 40
0.14285714285714285
 40
0.21428571428571427
 40
0.2857142857142857
 40
0.35714285714285715
 40
0.42857142857142855
 40
0.5
 40
0.5714285714285714
 40
0.6428571428571429
 40
0.7142857142857143
 40
0.7857142857142857
 40
0.8571428571428571
 40
0.9285714285714286
 40
1.0
 40
1.0
 10
-6.0
 20
3.5
 30
0.0
 10
-5.849567473090942
 20
3.4999999999999996
 30
0.0
 10
-5.405813207414515
 20
3.499999999999999
 30
0.0
 10
-4.6909888948081795
 20
3.499999999999999
 30
0.0
 10
-3.7409388111524016
 20
3.499999999999999
 30
0.0
 10
-2.6033024347053497
 20
3.4999999999999987
 30
0.0
 10
-1.3351256037378876
 20
3.4999999999999987
 30
0.0
 10
-1.1102230246251565e-15
 20
3.4999999999999987
 30
0.0
 10
1.3351256037378851
 20
3.4999999999999987
 30
0.0
 10
2.6033024347053475
 20
3.499999999999999
 30
0.0
 10
3.7409388111524002
 20
3.499999999999999
 30
0.0
 10
4.690988894808179
 20
3.499999999999999
 30
0.0
 10
5.405813207414514
 20
3.4999999999999996
 30
0.0
 10
5.849567473090941
 20
3.5
 30
0.0
 10
6.0
 20
3.5
 30
0.0
  0
LINE
  5
61
330
17
100
AcDbEntity
  8
HIDDEN
100
AcDbLine
 10
6.0
 20
7.771805122881267
 30
0.0
 11
6.0
 21
3.5
 31
0.0
  0
SPLINE
  5
62
330
17
100
AcDbEntity
  8
HIDDEN
100
AcDbSpline
 70
0
 71
1
 72
17
 73
15
 74
0
 40
0.0
 40
0.0
 40
0.18622089003116546
 40
0.3724417800623309
 40
0.5586626700934963
 40
0.7448835601246618
 40
0.9311044501558273
 40
1.1173253401869927
 40
1.3035462302181582
 40
1.4897671202493237
 40
1.6759880102804892
 40
1.8622089003116546
 40
2.04842979034282
 40
2.2346506803739854
 40
2.4208715704051507
 40
2.6070924604363164
 40
2.6070924604363164
 10
13.599999999999998
 20
3.5
 30
0.0
 10
13.364868778943599
 20
3.5
 30
0.0
 10
12.66760551152667
 20
3.5
 30
0.0
 10
11.532320251200028
 20
3.5
 30
0.0
 10
9.998269028773658
 20
3.5
 30
0.0
 10
8.118496452643475
 20
3.5
 30
0.0
 10
5.958001525917391
 20
3.5
 30
0.0
 10
3.5914901030376516
 20
3.5
 30
0.0
 10
1.1007917017256725
 20
3.5
 30
0.0
 10
-1.4279700079621174
 20
3.5
 30
0.0
 10
-3.9073551982963695
 20
3.5
 30
0.0
 10
-6.2516313887958415
 20
3.5
 30
0.0
 10
-8.379737914289121
 20
3.5
 30
0.0
 10
-10.21808885038249
 20
3.5
 30
0.0
 10
-11.703117476438617
 20
3.5
 30
0.0
  0
SPLINE
  5
63
330
17
100
AcDbEntity
  8
HIDDEN
100
AcDbSpline
 70
0
 71
1
 72
17
 73
15
 74
0
 40
0.0
 40
0.0
 40
0.18622089003116543
 40
0.37244178006233086
 40
0.5586626700934962
 40
0.7448835601246617
 40
0.9311044501558272
 40
1.1173253401869927
 40
1.3035462302181582
 40
1.4897671202493237
 40
1.6759880102804892
 40
1.8622089003116546
 40
2.04842979034282
 40
2.2346506803739854
 40
2.4208715704051507
 40
2.607092460436316
 40
2.607092460436316
 10
13.599999999999998
 20
-3.5
 30
0.0
 10
13.364868778943599
 20
-3.5
 30
0.0
 10
12.66760551152667
 20
-3.5
 30
0.0
 10
11.53232025120003
 20
-3.5
 30
0.0
 10
9.99826902877366
 20
-3.5
 30
0.0
 10
8.118496452643477
 20
-3.5
 30
0.0
 10
5.958001525917391
 20
-3.5
 30
0.0
 10
3.5914901030376516
 20
-3.5
 30
0.0
 10
1.1007917017256725
 20
-3.5
 30
0.0
 10
-1.4279700079621174
 20
-3.5
 30
0.0
 10
-3.9073551982963695
 20
-3.5
 30
0.0
 10
-6.2516313887958415
 20
-3.5
 30
0.0
 10
-8.379737914289121
 20
-3.5
 30
0.0
 10
-10.218088850382488
 20
-3.5
 30
0.0
 10
-11.703117476438615
 20
-3.5
 30
0.0
  0
LINE
  5
64
330
17
100
AcDbEntity
  8
HIDDEN
100
AcDbLine
 10
13.6
 20
3.5
 30
0.0
 11
13.6
 21
-3.5
 31
0.0
  0
LINE
  5
65
330
17
100
AcDbEntity
  8
HIDDEN
100
AcDbLine
 10
6.0
 20
-3.5
 30
0.0
 11
6.0
 21
-10.240805375042605
 31
0.0
  0
SPLINE
  5
66
330
17
100
AcDbEntity
  8
HIDDEN
100
AcDbSpline
 70
0
 71
1
 72
17
 73
15
 74
0
 40
0.0
 40
0.0
 40
0.2243994752564138
 40
0.4487989505128276
 40
0.6731984257692414
 40
0.8975979010256552
 40
1.121997376282069
 40
1.3463968515384828
 40
1.5707963267948966
 40
1.7951958020513104
 40
2.019595277307724
 40
2.243994752564138
 40
2.4683942278205517
 40
2.6927937030769655
 40
2.9171931783333793
 40
3.141592653589793
 40
3.141592653589793
 10
6.0
 20
-3.5
 30
0.0
 10
5.849567473090942
 20
-3.4999999999999996
 30
0.0
 10
5.405813207414514
 20
-3.499999999999999
 30
0.0
 10
4.690988894808179
 20
-3.499999999999999
 30
0.0
 10
3.740938811152401
 20
-3.499999999999999
 30
0.0
 10
2.6033024347053493
 20
-3.4999999999999987
 30
0.0
 10
1.3351256037378865
 20
-3.4999999999999987
 30
0.0
 10
4.440892098500626e-16
 20
-3.4999999999999987
 30
0.0
 10
-1.335125603737886
 20
-3.4999999999999987
 30
0.0
 10
-2.6033024347053484
 20
-3.499999999999999
 30
0.0
 10
-3.7409388111524007
 20
-3.499999999999999
 30
0.0
 10
-4.690988894808179
 20
-3.499999999999999
 30
0.0
 10
-5.405813207414514
 20
-3.4999999999999996
 30
0.0
 10
-5.849567473090943
 20
-3.5
 30
0.0
 10
-6.0
 20
-3.5
 30
0.0
  0
SPLINE
  5
67
330
17
100
AcDbEntity
  8
HIDDEN
100
AcDbSpline
 70
0
 71
1
 72
17
 73
15
 74
0
 40
0.0
 40
0.0
 40
0.07142857142857142
 40
0.14285714285714285
 40
0.21428571428571427
 40
0.2857142857142857
 40
0.35714285714285715
 40
0.42857142857142855
 40
0.5
 40
0.5714285714285714
 40
0.6428571428571429
 40
0.7142857142857143
 40
0.7857142857142857
 40
0.8571428571428571
 40
0.9285714285714286
 40
1.0
 40
1.0
 10
-6.0
 20
-3.5
 30
0.0
 10
-5.849567473090942
 20
-3.5000000000000004
 30
0.0
 10
-5.405813207414515
 20
-3.500000000000001
 30
0.0
 10
-4.6909888948081795
 20
-3.500000000000001
 30
0.0
 10
-3.7409388111524016
 20
-3.500000000000001
 30
0.0
 10
-2.6033024347053497
 20
-3.5000000000000013
 30
0.0
 10
-1.3351256037378876
 20
-3.5000000000000013
 30
0.0
 10
-1.1102230246251565e-15
 20
-3.5000000000000013
 30
0.0
 10
1.3351256037378851
 20
-3.5000000000000013
 30
0.0
 10
2.6033024347053475
 20
-3.500000000000001
 30
0.0
 10
3.7409388111524002
 20
-3.500000000000001
 30
0.0
 10
4.690988894808179
 20
-3.500000000000001
 30
0.0
 10
5.405813207414514
 20
-3.5000000000000004
 30
0.0
 10
5.849567473090941
 20
-3.5
 30
0.0
 10
6.0
 20
-3.5
 30
0.0
  0
SPLINE
  5
68
330
17
100
AcDbEntity
  8
HIDDEN
100
AcDbSpline
 70
0
 71
1
 72
17
 73
15
 74
0
 40
0.0
 40
0.0
 40
0.2243994752564138
 40
0.4487989505128276
 40
0.6731984257692414
 40
0.8975979010256552
 40
1.121997376282069
 40
1.3463968515384828
 40
1.5707963267948966
 40
1.7951958020513104
 40
2.019595277307724
 40
2.243994752564138
 40
2.4683942278205517
 40
2.6927937030769655
 40
2.9171931783333793
 40
3.141592653589793
 40
3.141592653589793
 10
6.0
 20
3.5
 30
0.0
 10
5.849567473090942
 20
3.5000000000000004
 30
0.0
 10
5.405813207414514
 20
3.500000000000001
 30
0.0
 10
4.690988894808179
 20
3.500000000000001
 30
0.0
 10
3.740938811152401
 20
3.500000000000001
 30
0.0
 10
2.6033024347053493
 20
3.5000000000000013
 30
0.0
 10
1.3351256037378865
 20
3.5000000000000013
 30
0.0
 10
4.440892098500626e-16
 20
3.5000000000000013
 30
0.0
 10
-1.335125603737886
 20
3.5000000000000013
 30
0.0
 10
-2.6033024347053484
 20
3.500000000000001
 30
0.0
 10
-3.7409388111524007
 20
3.500000000000001
 30
0.0
 10
-4.690988894808179
 20
3.500000000000001
 30
0.0
 10
-5.405813207414514
 20
3.5000000000000004
 30
0.0
 10
-5.849567473090943
 20
3.5
 30
0.0
 10
-6.0
 20
3.5
 30
0.0
  0
SPLINE
  5
69
330
17
100
AcDbEntity
  8
HIDDEN
100
AcDbSpline
 70
0
 71
1
 72
17
 73
15
 74
0
 40
0.0
 40
0.0
 40
0.07142857142857142
 40
0.14285714285714285
 40
0.21428571428571427
 40
0.2857142857142857
 40
0.35714285714285715
 40
0.42857142857142855
 40
0.5
 40
0.5714285714285714
 40
0.6428571428571429
 40
0.7142857142857143
 40
0.7857142857142857
 40
0.8571428571428571
 40
0.9285714285714286
 40
1.0
 40
1.0
 10
-6.0
 20
3.5
 30
0.0
 10
-5.849567473090942
 20
3.4999999999999996
 30
0.0
 10
-5.405813207414515
 20
3.499999999999999
 30
0.0
 10
-4.6909888948081795
 20
3.499999999999999
 30
0.0
 10
-3.7409388111524016
 20
3.499999999999999
 30
0.0
 10
-2.6033024347053497
 20
3.4999999999999987
 30
0.0
 10
-1.3351256037378876
 20
3.4999999999999987
 30
0.0
 10
-1.1102230246251565e-15
 20
3.4999999999999987
 30
0.0
 10
1.3351256037378851
 20
3.4999999999999987
 30
0.0
 10
2.6033024347053475
 20
3.499999999999999
 30
0.0
 10
3.7409388111524002
 20
3.499999999999999
 30
0.0
 10
4.690988894808179
 20
3.499999999999999
 30
0.0
 10
5.405813207414514
 20
3.4999999999999996
 30
0.0
 10
5.849567473090941
 20
3.5
 30
0.0
 10
6.0
 20
3.5
 30
0.0
  0
LINE
  5
6A
330
17
100
AcDbEntity
  8
HIDDEN
100
AcDbLine
 10
6.0
 20
10.240805375042605
 30
0.0
 11
6.0
 21
3.5
 31
0.0
  0
SPLINE
  5
6B
330
17
100
AcDbEntity
  8
HIDDEN
100
AcDbSpline
 70
0
 71
1
 72
17
 73
15
 74
0
 40
0.0
 40
0.0
 40
0.07142857142857162
 40
0.14285714285714324
 40
0.21428571428571486
 40
0.2857142857142865
 40
0.3571428571428581
 40
0.4285714285714297
 40
0.5000000000000013
 40
0.571428571428573
 40
0.6428571428571446
 40
0.7142857142857162
 40
0.7857142857142878
 40
0.8571428571428594
 40
0.928571428571431
 40
1.0
 40
1.0
 10
-8.479395284496077
 20
3.5
 30
0.0
 10
-7.160364849043002
 20
3.5
 30
0.0
 10
-5.7405370623922165
 20
3.5
 30
0.0
 10
-4.23989901780901
 20
3.5
 30
0.0
 10
-2.679575384662807
 20
3.5
 30
0.0
 10
-1.0815310338153696
 20
3.5
 30
0.0
 10
0.5317381646124645
 20
3.5
 30
0.0
 10
2.137522018416996
 20
3.5
 30
0.0
 10
3.713215707526637
 20
3.5
 30
0.0
 10
5.2366379948801995
 20
3.5
 30
0.0
 10
6.686343474474205
 20
3.5
 30
0.0
 10
8.041924461024372
 20
3.5
 30
0.0
 10
9.284298271502825
 20
3.5
 30
0.0
 10
10.395975854452866
 20
3.5
 30
0.0
 10
11.361307985552854
 20
3.5
 30
0.0
  0
SPLINE
  5
6C
330
17
100
AcDbEntity
  8
HIDDEN
100
AcDbSpline
 70
0
 71
1
 72
17
 73
15
 74
0
 40
0.0
 40
0.0
 40
0.0714285714285712
 40
0.1428571428571424
 40
0.2142857142857136
 40
0.2857142857142848
 40
0.357142857142856
 40
0.4285714285714272
 40
0.4999999999999984
 40
0.5714285714285696
 40
0.6428571428571408
 40
0.714285714285712
 40
0.7857142857142831
 40
0.8571428571428544
 40
0.9285714285714256
 40
1.0
 40
1.0
 10
-8.479395284496077
 20
-3.5
 30
0.0
 10
-7.160364849043002
 20
-3.5
 30
0.0
 10
-5.7405370623922165
 20
-3.5
 30
0.0
 10
-4.23989901780901
 20
-3.5
 30
0.0
 10
-2.679575384662807
 20
-3.5
 30
0.0
 10
-1.0815310338153696
 20
-3.5
 30
0.0
 10
0.5317381646124645
 20
-3.5
 30
0.0
 10
2.137522018416996
 20
-3.5
 30
0.0
 10
3.713215707526637
 20
-3.5
 30
0.0
 10
5.2366379948801995
 20
-3.5
 30
0.0
 10
6.686343474474205
 20
-3.5
 30
0.0
 10
8.041924461024372
 20
-3.5
 30
0.0
 10
9.284298271502825
 20
-3.5
 30
0.0
 10
10.395975854452864
 20
-3.5
 30
0.0
 10
11.361307985552926
 20
-3.5
 30
0.0
  0
LINE
  5
6D
330
17
100
AcDbEntity
  8
HIDDEN
100
AcDbLine
 10
13.6
 20
1.1589381531859195
 30
0.0
 11
13.6
 21
-1.1589381531858525
 31
0.0
  0
SPLINE
  5
6E
330
17
100
AcDbEntity
  8
HIDDEN
100
AcDbSpline
 70
0
 71
2
 72
6
 73
3
 74
0
 40
0.0
 40
0.0
 40
0.0
 40
1.0
 40
1.0
 40
1.0
 10
-5.515518547753569
 20
6.010478754112723
 30
0.0
 10
-4.4018937118217565
 20
6.443502134064953
 30
0.0
 10
-3.5131773718240424
 20
6.810969230415361
 30
0.0
  0
SPLINE
  5
6F
330
17
100
AcDbEntity
  8
HIDDEN
100
AcDbSpline
 70
0
 71
2
 72
6
 73
3
 74
0
 40
0.0
 40
0.0
 40
0.0
 40
1.0
 40
1.0
 40
1.0
 10
-5.515518547753565
 20
-6.0104787541127145
 30
0.0
 10
-4.4018937113790795
 20
-6.44350213423753
 30
0.0
 10
-3.5131773711194394
 20
-6.8109692307062915
 30
0.0
  0
SPLINE
  5
70
330
17
100
AcDbEntity
  8
HIDDEN
100
AcDbSpline
 70
0
 71
3
 72
20
 73
16
 74
0
 40
0.0
 40
0.0
 40
0.0
 40
0.0
 40
0.125
 40
0.125
 40
0.125
 40
0.25
 40
0.25
 40
0.25
 40
0.5
 40
0.5
 40
0.5
 40
0.75
 40
0.75
 40
0.75
 40
1.0
 40
1.0
 40
1.0
 40
1.0
 10
-4.473282220214101
 20
-3.5000000115993526
 30
0.0
 10
-4.161424271757213
 20
-4.266279048168073
 30
0.0
 10
-3.8105397333968964
 20
-4.86095670381686
 30
0.0
 10
-3.4881801707797253
 20
-5.3360004866026784
 30
0.0
 10
-3.1639134626835554
 20
-5.810870241342688
 30
0.0
 10
-2.8652935577184797
 20
-6.167284941404816
 30
0.0
 10
-2.6070517294621007
 20
-6.45180694774013
 30
0.0
 10
-2.0880105316481403
 20
-7.01639476709642
 30
0.0
 10
-1.7280656857009644
 20
-7.3114037604148265
 30
0.0
 10
-1.4549628904770104
 20
-7.532926267314221
 30
0.0
 10
-1.1264182318551266
 20
-7.793038804680622
 30
0.0
 10
-0.9314059547981841
 20
-7.91988717736971
 30
0.0
 10
-0.8079650385125781
 20
-8.000602246476126
 30
0.0
 10
-0.6857859560969598
 20
-8.079183282861583
 30
0.0
 10
-0.6378234434565582
 20
-8.10504396693987
 30
0.0
 10
-0.6374478281574305
 20
-8.105562243618852
 30
0.0
  0
SPLINE
  5
71
330
17
100
AcDbEntity
  8
HIDDEN
100
AcDbSpline
 70
0
 71
3
 72
11
 73
7
 74
0
 40
0.0
 40
0.0
 40
0.0
 40
0.0
 40
0.5
 40
0.5
 40
0.5
 40
1.0
 40
1.0
 40
1.0
 40
1.0
 10
-0.6374478281574307
 20
-8.10556224361885
 30
0.0
 10
-0.6391418213623027
 20
-8.103911658517546
 30
0.0
 10
-0.8149350018892941
 20
-8.008348497431093
 30
0.0
 10
-1.0970486238750854
 20
-7.872787189180356
 30
0.0
 10
-1.3809470857394193
 20
-7.735655364415435
 30
0.0
 10
-1.775624056155471
 20
-7.553954215317877
 30
0.0
 10
-2.2588165117867516
 20
-7.342848714143375
 30
0.0
  0
SPLINE
  5
72
330
17
100
AcDbEntity
  8
HIDDEN
100
AcDbSpline
 70
0
 71
3
 72
20
 73
16
 74
0
 40
0.0
 40
0.0
 40
0.0
 40
0.0
 40
0.125
 40
0.125
 40
0.125
 40
0.25
 40
0.25
 40
0.25
 40
0.5
 40
0.5
 40
0.5
 40
0.75
 40
0.75
 40
0.75
 40
1.0
 40
1.0
 40
1.0
 40
1.0
 10
-4.473282220214103
 20
3.500000011599343
 30
0.0
 10
-4.16142427175717
 20
4.26627904816815
 30
0.0
 10
-3.8105397333969147
 20
4.860956703816831
 30
0.0
 10
-3.4881801707797324
 20
5.336000486602665
 30
0.0
 10
-3.1639134626835617
 20
5.810870241342668
 30
0.0
 10
-2.865293557718463
 20
6.167284941404837
 30
0.0
 10
-2.6070517294620883
 20
6.451806947740147
 30
0.0
 10
-2.088010531648171
 20
7.016394767096389
 30
0.0
 10
-1.7280656857009518
 20
7.311403760414833
 30
0.0
 10
-1.4549628904770167
 20
7.532926267314217
 30
0.0
 10
-1.12641823185511
 20
7.793038804680641
 30
0.0
 10
-0.9314059547982178
 20
7.9198871773696755
 30
0.0
 10
-0.8079650385125898
 20
8.000602246476113
 30
0.0
 10
-0.68578595609695
 20
8.079183282861596
 30
0.0
 10
-0.6378234434565911
 20
8.105043966939837
 30
0.0
 10
-0.6374478281574493
 20
8.10556224361884
 30
0.0
  0
SPLINE
  5
73
330
17
100
AcDbEntity
  8
HIDDEN
100
AcDbSpline
 70
0
 71
3
 72
11
 73
7
 74
0
 40
0.0
 40
0.0
 40
0.0
 40
0.0
 40
0.5
 40
0.5
 40
0.5
 40
1.0
 40
1.0
 40
1.0
 40
1.0
 10
-0.6374478281574492
 20
8.10556224361884
 30
0.0
 10
-0.639141821365769
 20
8.103911658514274
 30
0.0
 10
-0.8149350020943771
 20
8.008348497321283
 30
0.0
 10
-1.0970486243814688
 20
7.872787188935944
 30
0.0
 10
-1.380947086550381
 20
7.735655364033738
 30
0.0
 10
-1.7756240573802073
 20
7.553954214761581
 30
0.0
 10
-2.2588165135144256
 20
7.342848713388187
 30
0.0
  0
LINE
  5
74
330
17
100
AcDbEntity
  8
HIDDEN
100
AcDbLine
 10
-6.0
 20
-3.5
 30
0.0
 11
-6.0
 21
-5.112309176791484
 31
0.0
  0
LINE
  5
75
330
17
100
AcDbEntity
  8
HIDDEN
100
AcDbLine
 10
-6.0
 20
5.112309001886475
 30
0.0
 11
-6.0
 21
3.5
 31
0.0
  0
LINE
  5
76
330
17
100
AcDbEntity
  8
HIDDEN
100
AcDbLine
 10
-6.0
 20
-3.5
 30
0.0
 11
-6.0
 21
-8.321437767265714
 31
0.0
  0
LINE
  5
77
330
17
100
AcDbEntity
  8
HIDDEN
100
AcDbLine
 10
-6.0
 20
8.321437763168555
 30
0.0
 11
-6.0
 21
3.5
 31
0.0
  0
ENDSEC
  0
SECTION
  2
OBJECTS
  0
DICTIONARY
  5
A
330
0
100
AcDbDictionary
281
1
  3
ACAD_COLOR
350
B
  3
ACAD_GROUP
350
C
  3
ACAD_LAYOUT
350
D
  3
ACAD_MATERIAL
350
E
  3
ACAD_MLEADERSTYLE
350
F
  3
ACAD_MLINESTYLE
350
10
  3
ACAD_PLOTSETTINGS
350
11
  3
ACAD_PLOTSTYLENAME
350
12
  3
ACAD_SCALELIST
350
14
  3
ACAD_TABLESTYLE
350
15
  3
ACAD_VISUALSTYLE
350
16
  3
EZDXF_META
350
2D
  0
DICTIONARY
  5
B
330
A
100
AcDbDictionary
281
1
  0
DICTIONARY
  5
C
330
A
100
AcDbDictionary
281
1
  0
DICTIONARY
  5
D
330
A
100
AcDbDictionary
281
1
  3
Model
350
1A
  3
Layout1
350
1E
  0
DICTIONARY
  5
E
330
A
100
AcDbDictionary
281
1
  3
ByBlock
350
1F
  3
ByLayer
350
20
  3
Global
350
21
  0
DICTIONARY
  5
F
330
A
100
AcDbDictionary
281
1
  3
Standard
350
2C
  0
DICTIONARY
  5
10
330
A
100
AcDbDictionary
281
1
  3
Standard
350
22
  0
DICTIONARY
  5
11
330
A
100
AcDbDictionary
281
1
  0
ACDBDICTIONARYWDFLT
  5
12
330
A
100
AcDbDictionary
281
1
  3
Normal
350
13
100
AcDbDictionaryWithDefault
340
13
  0
ACDBPLACEHOLDER
  5
13
330
12
  0
DICTIONARY
  5
14
330
A
100
AcDbDictionary
281
1
  0
DICTIONARY
  5
15
330
A
100
AcDbDictionary
281
1
  0
DICTIONARY
  5
16
330
A
100
AcDbDictionary
281
1
  0
LAYOUT
  5
1A
330
D
100
AcDbPlotSettings
  1

  4
A3
  6

 40
7.5
 41
20.0
 42
7.5
 43
20.0
 44
420.0
 45
297.0
 46
0.0
 47
0.0
 48
0.0
 49
0.0
140
0.0
141
0.0
142
1.0
143
1.0
 70
1024
 72
1
 73
0
 74
5
  7

 75
16
 76
0
 77
2
 78
300
147
1.0
148
0.0
149
0.0
100
AcDbLayout
  1
Model
 70
1
 71
0
 10
0.0
 20
0.0
 11
420.0
 21
297.0
 12
0.0
 22
0.0
 32
0.0
 14
1e+20
 24
1e+20
 34
1e+20
 15
-1e+20
 25
-1e+20
 35
-1e+20
146
0.0
 13
0.0
 23
0.0
 33
0.0
 16
1.0
 26
0.0
 36
0.0
 17
0.0
 27
1.0
 37
0.0
 76
1
330
17
  0
LAYOUT
  5
1E
330
D
100
AcDbPlotSettings
  1

  4
A3
  6

 40
7.5
 41
20.0
 42
7.5
 43
20.0
 44
420.0
 45
297.0
 46
0.0
 47
0.0
 48
0.0
 49
0.0
140
0.0
141
0.0
142
1.0
143
1.0
 70
0
 72
1
 73
0
 74
5
  7

 75
16
 76
0
 77
2
 78
300
147
1.0
148
0.0
149
0.0
100
AcDbLayout
  1
Layout1
 70
1
 71
1
 10
0.0
 20
0.0
 11
420.0
 21
297.0
 12
0.0
 22
0.0
 32
0.0
 14
1e+20
 24
1e+20
 34
1e+20
 15
-1e+20
 25
-1e+20
 35
-1e+20
146
0.0
 13
0.0
 23
0.0
 33
0.0
 16
1.0
 26
0.0
 36
0.0
 17
0.0
 27
1.0
 37
0.0
 76
1
330
1B
  0
MATERIAL
  5
1F
102
{ACAD_REACTORS
330
E
102
}
330
E
100
AcDbMaterial
  1
ByBlock
  2

 70
0
 40
1.0
 71
1
 41
1.0
 91
-1023410177
 42
1.0
 72
1
  3

 73
1
 74
1
 75
1
 44
0.5
 73
0
 45
1.0
 46
1.0
 77
1
  4

 78
1
 79
1
170
1
 48
1.0
171
1
  6

172
1
173
1
174
1
140
1.0
141
1.0
175
1
  7

176
1
177
1
178
1
143
1.0
179
1
  8

270
1
271
1
272
1
145
1.0
146
1.0
273
1
  9

274
1
275
1
276
1
 42
1.0
 72
1
  3

 73
1
 74
1
 75
1
 94
63
  0
MATERIAL
  5
20
102
{ACAD_REACTORS
330
E
102
}
330
E
100
AcDbMaterial
  1
ByLayer
  2

 70
0
 40
1.0
 71
1
 41
1.0
 91
-1023410177
 42
1.0
 72
1
  3

 73
1
 74
1
 75
1
 44
0.5
 73
0
 45
1.0
 46
1.0
 77
1
  4

 78
1
 79
1
170
1
 48
1.0
171
1
  6

172
1
173
1
174
1
140
1.0
141
1.0
175
1
  7

176
1
177
1
178
1
143
1.0
179
1
  8

270
1
271
1
272
1
145
1.0
146
1.0
273
1
  9

274
1
275
1
276
1
 42
1.0
 72
1
  3

 73
1
 74
1
 75
1
 94
63
  0
MATERIAL
  5
21
102
{ACAD_REACTORS
330
E
102
}
330
E
100
AcDbMaterial
  1
Global
  2

 70
0
 40
1.0
 71
1
 41
1.0
 91
-1023410177
 42
1.0
 72
1
  3

 73
1
 74
1
 75
1
 44
0.5
 73
0
 45
1.0
 46
1.0
 77
1
  4

 78
1
 79
1
170
1
 48
1.0
171
1
  6

172
1
173
1
174
1
140
1.0
141
1.0
175
1
  7

176
1
177
1
178
1
143
1.0
179
1
  8

270
1
271
1
272
1
145
1.0
146
1.0
273
1
  9

274
1
275
1
276
1
 42
1.0
 72
1
  3

 73
1
 74
1
 75
1
 94
63
  0
MLINESTYLE
  5
22
102
{ACAD_REACTORS
330
10
102
}
330
10
100
AcDbMlineStyle
  2
Standard
 70
0
  3

 62
256
 51
90.0
 52
90.0
 71
2
 49
0.5
 62
256
  6
BYLAYER
 49
-0.5
 62
256
  6
BYLAYER
  0
MLEADERSTYLE
  5
2C
102
{ACAD_REACTORS
330
F
102
}
330
F
100
AcDbMLeaderStyle
179
2
170
2
171
1
172
0
 90
2
 40
0.0
 41
0.0
173
1
 91
-1056964608
 92
-2
290
1
 42
2.0
291
1
 43
8.0
  3
Standard
 44
4.0
300

342
29
174
1
175
1
176
0
178
1
 93
-1056964608
 45
4.0
292
0
297
0
 46
4.0
 94
-1056964608
 47
1.0
 49
1.0
140
1.0
294
1
141
0.0
177
0
142
1.0
295
0
296
0
143
3.75
271
0
272
9
273
9
  0
DICTIONARY
  5
2D
330
A
100
AcDbDictionary
280
1
281
1
  3
CREATED_BY_EZDXF
350
2E
  3
WRITTEN_BY_EZDXF
350
7B
  0
DICTIONARYVAR
  5
2E
330
2D
100
DictionaryVariables
280
0
  1
1.4.4 @ 2026-10-05T07:37:41.797054+00:00
  0
DICTIONARYVAR
  5
7B
330
2D
100
DictionaryVariables
280
0
  1
1.4.4 @ 2026-10-05T07:37:42.196877+00:00
  0
ENDSEC
  0
EOF
