ISO-10303-21;
HEADER;
FILE_DESCRIPTION(('Open CASCADE Model'),'2;1');
FILE_NAME('Q4-205','2026-10-05T14:37:43',('Author'),('Open CASCADE'),
  'Open CASCADE STEP processor 8.0','build123d','Unknown');
FILE_SCHEMA(('AUTOMOTIVE_DESIGN { 1 0 10303 214 1 1 1 1 }'));
ENDSEC;
DATA;
#1 = APPLICATION_PROTOCOL_DEFINITION('international standard',
  'automotive_design',2000,#2);
#2 = APPLICATION_CONTEXT(
  'core data for automotive mechanical design processes');
#3 = SHAPE_DEFINITION_REPRESENTATION(#4,#10);
#4 = PRODUCT_DEFINITION_SHAPE('','',#5);
#5 = PRODUCT_DEFINITION('design','',#6,#9);
#6 = PRODUCT_DEFINITION_FORMATION('','',#7);
#7 = PRODUCT('Q4-205','Q4-205','',(#8));
#8 = PRODUCT_CONTEXT('',#2,'mechanical');
#9 = PRODUCT_DEFINITION_CONTEXT('part definition',#2,'design');
#10 = ADVANCED_BREP_SHAPE_REPRESENTATION('',(#11,#15),#572);
#11 = AXIS2_PLACEMENT_3D('',#12,#13,#14);
#12 = CARTESIAN_POINT('',(0.,0.,0.));
#13 = DIRECTION('',(0.,0.,1.));
#14 = DIRECTION('',(1.,0.,-0.));
#15 = MANIFOLD_SOLID_BREP('',#16);
#16 = CLOSED_SHELL('',(#17,#446,#480,#511,#567));
#17 = ADVANCED_FACE('',(#18),#32,.T.);
#18 = FACE_BOUND('',#19,.T.);
#19 = EDGE_LOOP('',(#20,#91,#143,#222,#274,#312,#350,#395,#396));
#20 = ORIENTED_EDGE('',*,*,#21,.F.);
#21 = EDGE_CURVE('',#22,#24,#26,.T.);
#22 = VERTEX_POINT('',#23);
#23 = CARTESIAN_POINT('',(3.10862446895E-15,28.,-33.));
#24 = VERTEX_POINT('',#25);
#25 = CARTESIAN_POINT('',(3.552713678801E-15,32.,7.));
#26 = SEAM_CURVE('',#27,(#31,#84),.PCURVE_S1.);
#27 = B_SPLINE_CURVE_WITH_KNOTS('',2,(#28,#29,#30),.UNSPECIFIED.,.F.,.F.
  ,(3,3),(0.,1.),.PIECEWISE_BEZIER_KNOTS.);
#28 = CARTESIAN_POINT('',(2.173573788561E-14,28.,-33.));
#29 = CARTESIAN_POINT('',(5.646692110859E-14,41.834041302864,
    -14.94168410082));
#30 = CARTESIAN_POINT('',(6.6833289942E-15,32.,7.));
#31 = PCURVE('',#32,#78);
#32 = B_SPLINE_SURFACE_WITH_KNOTS('',14,2,(
    (#33,#34,#35)
    ,(#36,#37,#38)
    ,(#39,#40,#41)
    ,(#42,#43,#44)
    ,(#45,#46,#47)
    ,(#48,#49,#50)
    ,(#51,#52,#53)
    ,(#54,#55,#56)
    ,(#57,#58,#59)
    ,(#60,#61,#62)
    ,(#63,#64,#65)
    ,(#66,#67,#68)
    ,(#69,#70,#71)
    ,(#72,#73,#74)
    ,(#75,#76,#77
    )),.UNSPECIFIED.,.T.,.F.,.F.,(15,15),(3,3),(0.,1.),(0.,1.),
  .PIECEWISE_BEZIER_KNOTS.);
#33 = CARTESIAN_POINT('',(2.173573788561E-14,28.,-33.));
#34 = CARTESIAN_POINT('',(5.646692110859E-14,41.834041302864,
    -14.94168410082));
#35 = CARTESIAN_POINT('',(6.6833289942E-15,32.,7.));
#36 = CARTESIAN_POINT('',(-10.77117481231,28.000000000001,-33.));
#37 = CARTESIAN_POINT('',(-16.48539770895,41.83404130287,-14.94168410082
    ));
#38 = CARTESIAN_POINT('',(-13.46396851539,32.000000000007,7.));
#39 = CARTESIAN_POINT('',(-21.54235360051,21.926397886413,-33.));
#40 = CARTESIAN_POINT('',(-32.97080150303,32.759636957243,
    -14.94168410082));
#41 = CARTESIAN_POINT('',(-26.92794200062,25.058740441592,7.));
#42 = CARTESIAN_POINT('',(-29.58766431772,9.779185894715,-33.));
#43 = CARTESIAN_POINT('',(-45.28423519775,14.610816665327,
    -14.94168410082));
#44 = CARTESIAN_POINT('',(-36.9845803972,11.176212451164,7.));
#45 = CARTESIAN_POINT('',(-32.18154229988,-6.625097212619,-33.));
#46 = CARTESIAN_POINT('',(-49.2541930611,-9.898378229676,-14.94168410082
    ));
#47 = CARTESIAN_POINT('',(-40.22692787476,-7.571539671687,7.));
#48 = CARTESIAN_POINT('',(-27.57544466415,-23.65371849139,-33.));
#49 = CARTESIAN_POINT('',(-42.204511598,-35.34037986896,-14.94168410082)
  );
#50 = CARTESIAN_POINT('',(-34.46930583033,-27.03282113284,7.));
#51 = CARTESIAN_POINT('',(-15.98124588645,-36.65316764629,-33.));
#52 = CARTESIAN_POINT('',(-24.45946694885,-54.76250461436,
    -14.94168410082));
#53 = CARTESIAN_POINT('',(-19.97655735788,-41.88933445314,7.));
#54 = CARTESIAN_POINT('',(-2.019608902896E-10,-41.54720085751,-33.));
#55 = CARTESIAN_POINT('',(-3.675604676206E-10,-62.07454702446,
    -14.94168410082));
#56 = CARTESIAN_POINT('',(-4.424161829155E-10,-47.48251526547,7.));
#57 = CARTESIAN_POINT('',(15.981245886828,-36.65316764631,-33.));
#58 = CARTESIAN_POINT('',(24.459466949529,-54.76250461436,
    -14.94168410082));
#59 = CARTESIAN_POINT('',(19.976557358697,-41.88933445314,7.));
#60 = CARTESIAN_POINT('',(27.575444663867,-23.65371849137,-33.));
#61 = CARTESIAN_POINT('',(42.20451159748,-35.34037986895,-14.94168410082
    ));
#62 = CARTESIAN_POINT('',(34.46930582972,-27.03282113283,7.));
#63 = CARTESIAN_POINT('',(32.181542300065,-6.625097212641,-33.));
#64 = CARTESIAN_POINT('',(49.254193061437,-9.898378229678,
    -14.94168410082));
#65 = CARTESIAN_POINT('',(40.226927875147,-7.571539671687,7.));
#66 = CARTESIAN_POINT('',(29.587664317635,9.779185894728,-33.));
#67 = CARTESIAN_POINT('',(45.284235197588,14.610816665326,
    -14.94168410082));
#68 = CARTESIAN_POINT('',(36.984580397014,11.176212451164,7.));
#69 = CARTESIAN_POINT('',(21.542353600546,21.926397886408,-33.));
#70 = CARTESIAN_POINT('',(32.970801503092,32.759636957244,
    -14.94168410082));
#71 = CARTESIAN_POINT('',(26.927942000693,25.058740441592,7.));
#72 = CARTESIAN_POINT('',(10.771174812305,28.000000000003,-33.));
#73 = CARTESIAN_POINT('',(16.485397708939,41.834041302869,
    -14.94168410082));
#74 = CARTESIAN_POINT('',(13.463968515379,32.000000000007,7.));
#75 = CARTESIAN_POINT('',(7.524883391613E-15,28.,-33.));
#76 = CARTESIAN_POINT('',(-5.10381627605E-14,41.834041302864,
    -14.94168410082));
#77 = CARTESIAN_POINT('',(6.683329270703E-15,32.,7.));
#78 = DEFINITIONAL_REPRESENTATION('',(#79),#83);
#79 = LINE('',#80,#81);
#80 = CARTESIAN_POINT('',(0.,0.));
#81 = VECTOR('',#82,1.);
#82 = DIRECTION('',(0.,1.));
#83 = ( GEOMETRIC_REPRESENTATION_CONTEXT(2) 
PARAMETRIC_REPRESENTATION_CONTEXT() REPRESENTATION_CONTEXT('2D SPACE',''
  ) );
#84 = PCURVE('',#32,#85);
#85 = DEFINITIONAL_REPRESENTATION('',(#86),#90);
#86 = LINE('',#87,#88);
#87 = CARTESIAN_POINT('',(1.,0.));
#88 = VECTOR('',#89,1.);
#89 = DIRECTION('',(0.,1.));
#90 = ( GEOMETRIC_REPRESENTATION_CONTEXT(2) 
PARAMETRIC_REPRESENTATION_CONTEXT() REPRESENTATION_CONTEXT('2D SPACE',''
  ) );
#91 = ORIENTED_EDGE('',*,*,#92,.T.);
#92 = EDGE_CURVE('',#22,#93,#95,.T.);
#93 = VERTEX_POINT('',#94);
#94 = CARTESIAN_POINT('',(-22.55761858112,9.560535756356,-33.));
#95 = SURFACE_CURVE('',#96,(#112,#119),.PCURVE_S1.);
#96 = B_SPLINE_CURVE_WITH_KNOTS('',14,(#97,#98,#99,#100,#101,#102,#103,
    #104,#105,#106,#107,#108,#109,#110,#111),.UNSPECIFIED.,.T.,.F.,(15,
    15),(0.,1.),.PIECEWISE_BEZIER_KNOTS.);
#97 = CARTESIAN_POINT('',(2.173573788561E-14,28.,-33.));
#98 = CARTESIAN_POINT('',(-10.77117481231,28.000000000001,-33.));
#99 = CARTESIAN_POINT('',(-21.54235360051,21.926397886413,-33.));
#100 = CARTESIAN_POINT('',(-29.58766431772,9.779185894715,-33.));
#101 = CARTESIAN_POINT('',(-32.18154229988,-6.625097212619,-33.));
#102 = CARTESIAN_POINT('',(-27.57544466415,-23.65371849139,-33.));
#103 = CARTESIAN_POINT('',(-15.98124588645,-36.65316764629,-33.));
#104 = CARTESIAN_POINT('',(-2.019608902896E-10,-41.54720085751,-33.));
#105 = CARTESIAN_POINT('',(15.981245886828,-36.65316764631,-33.));
#106 = CARTESIAN_POINT('',(27.575444663867,-23.65371849137,-33.));
#107 = CARTESIAN_POINT('',(32.181542300065,-6.625097212641,-33.));
#108 = CARTESIAN_POINT('',(29.587664317635,9.779185894728,-33.));
#109 = CARTESIAN_POINT('',(21.542353600546,21.926397886408,-33.));
#110 = CARTESIAN_POINT('',(10.771174812305,28.000000000003,-33.));
#111 = CARTESIAN_POINT('',(7.524883391613E-15,28.,-33.));
#112 = PCURVE('',#32,#113);
#113 = DEFINITIONAL_REPRESENTATION('',(#114),#118);
#114 = LINE('',#115,#116);
#115 = CARTESIAN_POINT('',(0.,0.));
#116 = VECTOR('',#117,1.);
#117 = DIRECTION('',(1.,0.));
#118 = ( GEOMETRIC_REPRESENTATION_CONTEXT(2) 
PARAMETRIC_REPRESENTATION_CONTEXT() REPRESENTATION_CONTEXT('2D SPACE',''
  ) );
#119 = PCURVE('',#120,#125);
#120 = PLANE('',#121);
#121 = AXIS2_PLACEMENT_3D('',#122,#123,#124);
#122 = CARTESIAN_POINT('',(2.173573788561E-14,28.,-33.));
#123 = DIRECTION('',(0.,0.,-1.));
#124 = DIRECTION('',(-5.308811368728E-16,-1.,-0.));
#125 = DEFINITIONAL_REPRESENTATION('',(#126),#142);
#126 = B_SPLINE_CURVE_WITH_KNOTS('',14,(#127,#128,#129,#130,#131,#132,
    #133,#134,#135,#136,#137,#138,#139,#140,#141),.UNSPECIFIED.,.T.,.F.,
  (15,15),(0.,1.),.PIECEWISE_BEZIER_KNOTS.);
#127 = CARTESIAN_POINT('',(0.,0.));
#128 = CARTESIAN_POINT('',(-1.433130826384E-12,10.771174812313));
#129 = CARTESIAN_POINT('',(6.073602113587,21.542353600512));
#130 = CARTESIAN_POINT('',(18.220814105285,29.587664317728));
#131 = CARTESIAN_POINT('',(34.625097212619,32.181542299881));
#132 = CARTESIAN_POINT('',(51.653718491399,27.575444664156));
#133 = CARTESIAN_POINT('',(64.653167646298,15.981245886456));
#134 = CARTESIAN_POINT('',(69.54720085751,2.019457047305E-10));
#135 = CARTESIAN_POINT('',(64.653167646316,-15.98124588682));
#136 = CARTESIAN_POINT('',(51.653718491374,-27.57544466386));
#137 = CARTESIAN_POINT('',(34.625097212641,-32.18154230006));
#138 = CARTESIAN_POINT('',(18.220814105272,-29.58766431763));
#139 = CARTESIAN_POINT('',(6.073602113592,-21.54235360054));
#140 = CARTESIAN_POINT('',(-2.577882916981E-12,-10.7711748123));
#141 = CARTESIAN_POINT('',(1.42108547152E-14,1.421085449399E-14));
#142 = ( GEOMETRIC_REPRESENTATION_CONTEXT(2) 
PARAMETRIC_REPRESENTATION_CONTEXT() REPRESENTATION_CONTEXT('2D SPACE',''
  ) );
#143 = ORIENTED_EDGE('',*,*,#144,.T.);
#144 = EDGE_CURVE('',#93,#145,#147,.T.);
#145 = VERTEX_POINT('',#146);
#146 = CARTESIAN_POINT('',(-22.55761856631,-9.560535791292,-33.));
#147 = SURFACE_CURVE('',#148,(#169,#193),.PCURVE_S1.);
#148 = B_SPLINE_CURVE_WITH_KNOTS('',7,(#149,#150,#151,#152,#153,#154,
    #155,#156,#157,#158,#159,#160,#161,#162,#163,#164,#165,#166,#167,
    #168),.UNSPECIFIED.,.F.,.F.,(8,6,6,8),(0.,0.179579086003,
    0.496666211508,1.),.UNSPECIFIED.);
#149 = CARTESIAN_POINT('',(-22.55761858112,9.560535756356,-33.));
#150 = CARTESIAN_POINT('',(-22.75191082578,9.102112665843,-32.9307294939
    ));
#151 = CARTESIAN_POINT('',(-22.9356686145,8.638293760588,-32.86453865675
    ));
#152 = CARTESIAN_POINT('',(-23.10869620649,8.169353793619,
    -32.80162748528));
#153 = CARTESIAN_POINT('',(-23.27080079644,7.695587475455,
    -32.74218908083));
#154 = CARTESIAN_POINT('',(-23.42179582496,7.217311230188,
    -32.68640701952));
#155 = CARTESIAN_POINT('',(-23.56150428899,6.734864951553,
    -32.63445272248));
#156 = CARTESIAN_POINT('',(-23.91622987967,5.390028294793,
    -32.50178122231));
#157 = CARTESIAN_POINT('',(-24.10701551032,4.519510288416,
    -32.42949519182));
#158 = CARTESIAN_POINT('',(-24.26118017734,3.639162804461,
    -32.37049933273));
#159 = CARTESIAN_POINT('',(-24.37797251965,2.751216266811,-32.3255027028
    ));
#160 = CARTESIAN_POINT('',(-24.45684504336,1.858034105877,
    -32.29501096978));
#161 = CARTESIAN_POINT('',(-24.49749229564,0.962120485429,
    -32.27929399438));
#162 = CARTESIAN_POINT('',(-24.50374972845,-1.356135868724,
    -32.27687442162));
#163 = CARTESIAN_POINT('',(-24.41126358865,-2.779095557241,
    -32.31263586039));
#164 = CARTESIAN_POINT('',(-24.22231828499,-4.191705993733,
    -32.38572008863));
#165 = CARTESIAN_POINT('',(-23.93887766011,-5.584251826843,
    -32.49447105125));
#166 = CARTESIAN_POINT('',(-23.56412142768,-6.948144539877,
    -32.63584338909));
#167 = CARTESIAN_POINT('',(-23.10212591425,-8.275797223346,
    -32.80586822185));
#168 = CARTESIAN_POINT('',(-22.55761856631,-9.560535791292,-33.));
#169 = PCURVE('',#32,#170);
#170 = DEFINITIONAL_REPRESENTATION('',(#171),#192);
#171 = B_SPLINE_CURVE_WITH_KNOTS('',7,(#172,#173,#174,#175,#176,#177,
    #178,#179,#180,#181,#182,#183,#184,#185,#186,#187,#188,#189,#190,
    #191),.UNSPECIFIED.,.F.,.F.,(8,6,6,8),(0.,0.179579086003,
    0.496666211508,1.),.UNSPECIFIED.);
#172 = CARTESIAN_POINT('',(0.194541386987,0.));
#173 = CARTESIAN_POINT('',(0.197423305818,1.917966948967E-03));
#174 = CARTESIAN_POINT('',(0.200297650782,3.749740907854E-03));
#175 = CARTESIAN_POINT('',(0.203165274826,5.489933556414E-03));
#176 = CARTESIAN_POINT('',(0.206026980141,7.133353252999E-03));
#177 = CARTESIAN_POINT('',(0.208883510095,8.675072907398E-03));
#178 = CARTESIAN_POINT('',(0.211735541151,1.01104978537E-02));
#179 = CARTESIAN_POINT('',(0.219612693113,1.377490495922E-02));
#180 = CARTESIAN_POINT('',(0.224629966378,1.577008664303E-02));
#181 = CARTESIAN_POINT('',(0.229638236366,1.739754657499E-02));
#182 = CARTESIAN_POINT('',(0.23464023263,1.863835157297E-02));
#183 = CARTESIAN_POINT('',(0.239638489808,1.947901355444E-02));
#184 = CARTESIAN_POINT('',(0.24463507858,1.991232885333E-02));
#185 = CARTESIAN_POINT('',(0.257562010692,1.997903614963E-02));
#186 = CARTESIAN_POINT('',(0.26549450555,1.899309766688E-02));
#187 = CARTESIAN_POINT('',(0.273431360726,1.697821210658E-02));
#188 = CARTESIAN_POINT('',(0.281382747732,1.397865351842E-02));
#189 = CARTESIAN_POINT('',(0.289361483318,1.007554671425E-02));
#190 = CARTESIAN_POINT('',(0.297381986311,5.375135179495E-03));
#191 = CARTESIAN_POINT('',(0.305458613235,0.));
#192 = ( GEOMETRIC_REPRESENTATION_CONTEXT(2) 
PARAMETRIC_REPRESENTATION_CONTEXT() REPRESENTATION_CONTEXT('2D SPACE',''
  ) );
#193 = PCURVE('',#194,#199);
#194 = CYLINDRICAL_SURFACE('',#195,24.5);
#195 = AXIS2_PLACEMENT_3D('',#196,#197,#198);
#196 = CARTESIAN_POINT('',(0.,0.,-40.));
#197 = DIRECTION('',(0.,0.,1.));
#198 = DIRECTION('',(1.,0.,-0.));
#199 = DEFINITIONAL_REPRESENTATION('',(#200),#221);
#200 = B_SPLINE_CURVE_WITH_KNOTS('',7,(#201,#202,#203,#204,#205,#206,
    #207,#208,#209,#210,#211,#212,#213,#214,#215,#216,#217,#218,#219,
    #220),.UNSPECIFIED.,.F.,.F.,(8,6,6,8),(0.,0.179579086003,
    0.496666211508,1.),.UNSPECIFIED.);
#201 = CARTESIAN_POINT('',(2.740715668471,7.));
#202 = CARTESIAN_POINT('',(2.761037986133,7.069270506097));
#203 = CARTESIAN_POINT('',(2.781395294427,7.135461343244));
#204 = CARTESIAN_POINT('',(2.8017878499,7.198372514711));
#205 = CARTESIAN_POINT('',(2.82221543806,7.257810919164));
#206 = CARTESIAN_POINT('',(2.842677313763,7.313592980474));
#207 = CARTESIAN_POINT('',(2.863172141607,7.365547277514));
#208 = CARTESIAN_POINT('',(2.919940827328,7.498218777683));
#209 = CARTESIAN_POINT('',(2.956283197124,7.570504808175));
#210 = CARTESIAN_POINT('',(2.992710054538,7.629500667267));
#211 = CARTESIAN_POINT('',(3.029205173522,7.674497297194));
#212 = CARTESIAN_POINT('',(3.065750049488,7.704989030216));
#213 = CARTESIAN_POINT('',(3.102322293195,7.720706005617));
#214 = CARTESIAN_POINT('',(3.196945346222,7.723125578371));
#215 = CARTESIAN_POINT('',(3.255014924495,7.687364139607));
#216 = CARTESIAN_POINT('',(3.312971051827,7.614279911361));
#217 = CARTESIAN_POINT('',(3.370737577221,7.505528948742));
#218 = CARTESIAN_POINT('',(3.42826382946,7.364156610903));
#219 = CARTESIAN_POINT('',(3.485515996673,7.194131778144));
#220 = CARTESIAN_POINT('',(3.542469640257,7.));
#221 = ( GEOMETRIC_REPRESENTATION_CONTEXT(2) 
PARAMETRIC_REPRESENTATION_CONTEXT() REPRESENTATION_CONTEXT('2D SPACE',''
  ) );
#222 = ORIENTED_EDGE('',*,*,#223,.T.);
#223 = EDGE_CURVE('',#145,#224,#226,.T.);
#224 = VERTEX_POINT('',#225);
#225 = CARTESIAN_POINT('',(22.557618566316,-9.560535791292,-33.));
#226 = SURFACE_CURVE('',#227,(#243,#250),.PCURVE_S1.);
#227 = B_SPLINE_CURVE_WITH_KNOTS('',14,(#228,#229,#230,#231,#232,#233,
    #234,#235,#236,#237,#238,#239,#240,#241,#242),.UNSPECIFIED.,.T.,.F.,
  (15,15),(0.,1.),.PIECEWISE_BEZIER_KNOTS.);
#228 = CARTESIAN_POINT('',(2.173573788561E-14,28.,-33.));
#229 = CARTESIAN_POINT('',(-10.77117481231,28.000000000001,-33.));
#230 = CARTESIAN_POINT('',(-21.54235360051,21.926397886413,-33.));
#231 = CARTESIAN_POINT('',(-29.58766431772,9.779185894715,-33.));
#232 = CARTESIAN_POINT('',(-32.18154229988,-6.625097212619,-33.));
#233 = CARTESIAN_POINT('',(-27.57544466415,-23.65371849139,-33.));
#234 = CARTESIAN_POINT('',(-15.98124588645,-36.65316764629,-33.));
#235 = CARTESIAN_POINT('',(-2.019608902896E-10,-41.54720085751,-33.));
#236 = CARTESIAN_POINT('',(15.981245886828,-36.65316764631,-33.));
#237 = CARTESIAN_POINT('',(27.575444663867,-23.65371849137,-33.));
#238 = CARTESIAN_POINT('',(32.181542300065,-6.625097212641,-33.));
#239 = CARTESIAN_POINT('',(29.587664317635,9.779185894728,-33.));
#240 = CARTESIAN_POINT('',(21.542353600546,21.926397886408,-33.));
#241 = CARTESIAN_POINT('',(10.771174812305,28.000000000003,-33.));
#242 = CARTESIAN_POINT('',(7.524883391613E-15,28.,-33.));
#243 = PCURVE('',#32,#244);
#244 = DEFINITIONAL_REPRESENTATION('',(#245),#249);
#245 = LINE('',#246,#247);
#246 = CARTESIAN_POINT('',(0.,0.));
#247 = VECTOR('',#248,1.);
#248 = DIRECTION('',(1.,0.));
#249 = ( GEOMETRIC_REPRESENTATION_CONTEXT(2) 
PARAMETRIC_REPRESENTATION_CONTEXT() REPRESENTATION_CONTEXT('2D SPACE',''
  ) );
#250 = PCURVE('',#251,#256);
#251 = PLANE('',#252);
#252 = AXIS2_PLACEMENT_3D('',#253,#254,#255);
#253 = CARTESIAN_POINT('',(2.173573788561E-14,28.,-33.));
#254 = DIRECTION('',(0.,0.,-1.));
#255 = DIRECTION('',(-5.308811368728E-16,-1.,-0.));
#256 = DEFINITIONAL_REPRESENTATION('',(#257),#273);
#257 = B_SPLINE_CURVE_WITH_KNOTS('',14,(#258,#259,#260,#261,#262,#263,
    #264,#265,#266,#267,#268,#269,#270,#271,#272),.UNSPECIFIED.,.T.,.F.,
  (15,15),(0.,1.),.PIECEWISE_BEZIER_KNOTS.);
#258 = CARTESIAN_POINT('',(0.,0.));
#259 = CARTESIAN_POINT('',(-1.433130826384E-12,10.771174812313));
#260 = CARTESIAN_POINT('',(6.073602113587,21.542353600512));
#261 = CARTESIAN_POINT('',(18.220814105285,29.587664317728));
#262 = CARTESIAN_POINT('',(34.625097212619,32.181542299881));
#263 = CARTESIAN_POINT('',(51.653718491399,27.575444664156));
#264 = CARTESIAN_POINT('',(64.653167646298,15.981245886456));
#265 = CARTESIAN_POINT('',(69.54720085751,2.019457047305E-10));
#266 = CARTESIAN_POINT('',(64.653167646316,-15.98124588682));
#267 = CARTESIAN_POINT('',(51.653718491374,-27.57544466386));
#268 = CARTESIAN_POINT('',(34.625097212641,-32.18154230006));
#269 = CARTESIAN_POINT('',(18.220814105272,-29.58766431763));
#270 = CARTESIAN_POINT('',(6.073602113592,-21.54235360054));
#271 = CARTESIAN_POINT('',(-2.577882916981E-12,-10.7711748123));
#272 = CARTESIAN_POINT('',(1.42108547152E-14,1.421085449399E-14));
#273 = ( GEOMETRIC_REPRESENTATION_CONTEXT(2) 
PARAMETRIC_REPRESENTATION_CONTEXT() REPRESENTATION_CONTEXT('2D SPACE',''
  ) );
#274 = ORIENTED_EDGE('',*,*,#275,.T.);
#275 = EDGE_CURVE('',#224,#276,#278,.T.);
#276 = VERTEX_POINT('',#277);
#277 = CARTESIAN_POINT('',(24.5,-6.000769315822E-15,-32.2783243358));
#278 = SURFACE_CURVE('',#279,(#288,#300),.PCURVE_S1.);
#279 = B_SPLINE_CURVE_WITH_KNOTS('',7,(#280,#281,#282,#283,#284,#285,
    #286,#287),.UNSPECIFIED.,.F.,.F.,(8,8),(0.,1.),
  .PIECEWISE_BEZIER_KNOTS.);
#280 = CARTESIAN_POINT('',(22.557618566316,-9.560535791292,-33.));
#281 = CARTESIAN_POINT('',(23.098512054105,-8.284323950356,
    -32.80715666194));
#282 = CARTESIAN_POINT('',(23.557980271759,-6.965777669792,
    -32.63810314244));
#283 = CARTESIAN_POINT('',(23.93139659902,-5.611429602625,
    -32.49729263702));
#284 = CARTESIAN_POINT('',(24.214762821059,-4.228702930532,
    -32.3886183673));
#285 = CARTESIAN_POINT('',(24.404948331917,-2.825999933804,
    -32.31507819893));
#286 = CARTESIAN_POINT('',(24.5,-1.412827294979,-32.27832433663));
#287 = CARTESIAN_POINT('',(24.5,-8.881784197001E-15,-32.2783243358));
#288 = PCURVE('',#32,#289);
#289 = DEFINITIONAL_REPRESENTATION('',(#290),#299);
#290 = B_SPLINE_CURVE_WITH_KNOTS('',7,(#291,#292,#293,#294,#295,#296,
    #297,#298),.UNSPECIFIED.,.F.,.F.,(8,8),(0.,1.),
  .PIECEWISE_BEZIER_KNOTS.);
#291 = CARTESIAN_POINT('',(0.694541386765,0.));
#292 = CARTESIAN_POINT('',(0.702564409637,5.339460754003E-03));
#293 = CARTESIAN_POINT('',(0.710531976047,1.001307439112E-02));
#294 = CARTESIAN_POINT('',(0.718458228871,1.390075239E-02));
#295 = CARTESIAN_POINT('',(0.726357339286,1.689827107965E-02));
#296 = CARTESIAN_POINT('',(0.734241902664,1.892576333689E-02));
#297 = CARTESIAN_POINT('',(0.742121913248,1.993906218736E-02));
#298 = CARTESIAN_POINT('',(0.750000000011,1.99390622102E-02));
#299 = ( GEOMETRIC_REPRESENTATION_CONTEXT(2) 
PARAMETRIC_REPRESENTATION_CONTEXT() REPRESENTATION_CONTEXT('2D SPACE',''
  ) );
#300 = PCURVE('',#194,#301);
#301 = DEFINITIONAL_REPRESENTATION('',(#302),#311);
#302 = B_SPLINE_CURVE_WITH_KNOTS('',7,(#303,#304,#305,#306,#307,#308,
    #309,#310),.UNSPECIFIED.,.F.,.F.,(8,8),(0.,1.),
  .PIECEWISE_BEZIER_KNOTS.);
#303 = CARTESIAN_POINT('',(5.882308320512,7.));
#304 = CARTESIAN_POINT('',(5.938883966438,7.192843338054));
#305 = CARTESIAN_POINT('',(5.995753657561,7.361896857559));
#306 = CARTESIAN_POINT('',(6.052893910571,7.502707362973));
#307 = CARTESIAN_POINT('',(6.110271935007,7.611381632698));
#308 = CARTESIAN_POINT('',(6.167838379056,7.684921801069));
#309 = CARTESIAN_POINT('',(6.225518886976,7.721675663368));
#310 = CARTESIAN_POINT('',(6.28318530718,7.721675664196));
#311 = ( GEOMETRIC_REPRESENTATION_CONTEXT(2) 
PARAMETRIC_REPRESENTATION_CONTEXT() REPRESENTATION_CONTEXT('2D SPACE',''
  ) );
#312 = ORIENTED_EDGE('',*,*,#313,.T.);
#313 = EDGE_CURVE('',#276,#314,#316,.T.);
#314 = VERTEX_POINT('',#315);
#315 = CARTESIAN_POINT('',(22.557618581124,9.560535756355,-33.));
#316 = SURFACE_CURVE('',#317,(#326,#338),.PCURVE_S1.);
#317 = B_SPLINE_CURVE_WITH_KNOTS('',7,(#318,#319,#320,#321,#322,#323,
    #324,#325),.UNSPECIFIED.,.F.,.F.,(8,8),(0.,1.),
  .PIECEWISE_BEZIER_KNOTS.);
#318 = CARTESIAN_POINT('',(24.5,-9.403358041686E-15,-32.2783243358));
#319 = CARTESIAN_POINT('',(24.5,1.412827730353,-32.27832433497));
#320 = CARTESIAN_POINT('',(24.404948277383,2.825998468549,
    -32.31507821784));
#321 = CARTESIAN_POINT('',(24.214763194357,4.228701840467,-32.3886182141
    ));
#322 = CARTESIAN_POINT('',(23.931396688988,5.611429695988,
    -32.49729260991));
#323 = CARTESIAN_POINT('',(23.557980061774,6.965778025628,
    -32.63810321339));
#324 = CARTESIAN_POINT('',(23.098512222952,8.28432354647,-32.80715660381
    ));
#325 = CARTESIAN_POINT('',(22.557618581123,9.560535756356,-33.));
#326 = PCURVE('',#32,#327);
#327 = DEFINITIONAL_REPRESENTATION('',(#328),#337);
#328 = B_SPLINE_CURVE_WITH_KNOTS('',7,(#329,#330,#331,#332,#333,#334,
    #335,#336),.UNSPECIFIED.,.F.,.F.,(8,8),(0.,1.),
  .PIECEWISE_BEZIER_KNOTS.);
#329 = CARTESIAN_POINT('',(0.750000000011,1.99390622102E-02));
#330 = CARTESIAN_POINT('',(0.757878089202,1.993906223304E-02));
#331 = CARTESIAN_POINT('',(0.765758089206,1.892576281652E-02));
#332 = CARTESIAN_POINT('',(0.773642654624,1.689827529798E-02));
#333 = CARTESIAN_POINT('',(0.781541771172,1.390075315248E-02));
#334 = CARTESIAN_POINT('',(0.789468026399,1.001307242277E-02));
#335 = CARTESIAN_POINT('',(0.797435587831,5.33946236367E-03));
#336 = CARTESIAN_POINT('',(0.805458613013,0.));
#337 = ( GEOMETRIC_REPRESENTATION_CONTEXT(2) 
PARAMETRIC_REPRESENTATION_CONTEXT() REPRESENTATION_CONTEXT('2D SPACE',''
  ) );
#338 = PCURVE('',#194,#339);
#339 = DEFINITIONAL_REPRESENTATION('',(#340),#349);
#340 = B_SPLINE_CURVE_WITH_KNOTS('',7,(#341,#342,#343,#344,#345,#346,
    #347,#348),.UNSPECIFIED.,.F.,.F.,(8,8),(0.,1.),
  .PIECEWISE_BEZIER_KNOTS.);
#341 = CARTESIAN_POINT('',(0.,7.721675664196));
#342 = CARTESIAN_POINT('',(5.766643797359E-02,7.721675665025));
#343 = CARTESIAN_POINT('',(0.115346868421,7.684921782156));
#344 = CARTESIAN_POINT('',(0.172913327547,7.611381785896));
#345 = CARTESIAN_POINT('',(0.230291398016,7.502707390083));
#346 = CARTESIAN_POINT('',(0.287431666417,7.36189678661));
#347 = CARTESIAN_POINT('',(0.344301322874,7.19284339619));
#348 = CARTESIAN_POINT('',(0.400876985119,7.));
#349 = ( GEOMETRIC_REPRESENTATION_CONTEXT(2) 
PARAMETRIC_REPRESENTATION_CONTEXT() REPRESENTATION_CONTEXT('2D SPACE',''
  ) );
#350 = ORIENTED_EDGE('',*,*,#351,.T.);
#351 = EDGE_CURVE('',#314,#22,#352,.T.);
#352 = SURFACE_CURVE('',#353,(#369,#376),.PCURVE_S1.);
#353 = B_SPLINE_CURVE_WITH_KNOTS('',14,(#354,#355,#356,#357,#358,#359,
    #360,#361,#362,#363,#364,#365,#366,#367,#368),.UNSPECIFIED.,.T.,.F.,
  (15,15),(0.,1.),.PIECEWISE_BEZIER_KNOTS.);
#354 = CARTESIAN_POINT('',(2.173573788561E-14,28.,-33.));
#355 = CARTESIAN_POINT('',(-10.77117481231,28.000000000001,-33.));
#356 = CARTESIAN_POINT('',(-21.54235360051,21.926397886413,-33.));
#357 = CARTESIAN_POINT('',(-29.58766431772,9.779185894715,-33.));
#358 = CARTESIAN_POINT('',(-32.18154229988,-6.625097212619,-33.));
#359 = CARTESIAN_POINT('',(-27.57544466415,-23.65371849139,-33.));
#360 = CARTESIAN_POINT('',(-15.98124588645,-36.65316764629,-33.));
#361 = CARTESIAN_POINT('',(-2.019608902896E-10,-41.54720085751,-33.));
#362 = CARTESIAN_POINT('',(15.981245886828,-36.65316764631,-33.));
#363 = CARTESIAN_POINT('',(27.575444663867,-23.65371849137,-33.));
#364 = CARTESIAN_POINT('',(32.181542300065,-6.625097212641,-33.));
#365 = CARTESIAN_POINT('',(29.587664317635,9.779185894728,-33.));
#366 = CARTESIAN_POINT('',(21.542353600546,21.926397886408,-33.));
#367 = CARTESIAN_POINT('',(10.771174812305,28.000000000003,-33.));
#368 = CARTESIAN_POINT('',(7.524883391613E-15,28.,-33.));
#369 = PCURVE('',#32,#370);
#370 = DEFINITIONAL_REPRESENTATION('',(#371),#375);
#371 = LINE('',#372,#373);
#372 = CARTESIAN_POINT('',(0.,0.));
#373 = VECTOR('',#374,1.);
#374 = DIRECTION('',(1.,0.));
#375 = ( GEOMETRIC_REPRESENTATION_CONTEXT(2) 
PARAMETRIC_REPRESENTATION_CONTEXT() REPRESENTATION_CONTEXT('2D SPACE',''
  ) );
#376 = PCURVE('',#120,#377);
#377 = DEFINITIONAL_REPRESENTATION('',(#378),#394);
#378 = B_SPLINE_CURVE_WITH_KNOTS('',14,(#379,#380,#381,#382,#383,#384,
    #385,#386,#387,#388,#389,#390,#391,#392,#393),.UNSPECIFIED.,.T.,.F.,
  (15,15),(0.,1.),.PIECEWISE_BEZIER_KNOTS.);
#379 = CARTESIAN_POINT('',(0.,0.));
#380 = CARTESIAN_POINT('',(-1.433130826384E-12,10.771174812313));
#381 = CARTESIAN_POINT('',(6.073602113587,21.542353600512));
#382 = CARTESIAN_POINT('',(18.220814105285,29.587664317728));
#383 = CARTESIAN_POINT('',(34.625097212619,32.181542299881));
#384 = CARTESIAN_POINT('',(51.653718491399,27.575444664156));
#385 = CARTESIAN_POINT('',(64.653167646298,15.981245886456));
#386 = CARTESIAN_POINT('',(69.54720085751,2.019457047305E-10));
#387 = CARTESIAN_POINT('',(64.653167646316,-15.98124588682));
#388 = CARTESIAN_POINT('',(51.653718491374,-27.57544466386));
#389 = CARTESIAN_POINT('',(34.625097212641,-32.18154230006));
#390 = CARTESIAN_POINT('',(18.220814105272,-29.58766431763));
#391 = CARTESIAN_POINT('',(6.073602113592,-21.54235360054));
#392 = CARTESIAN_POINT('',(-2.577882916981E-12,-10.7711748123));
#393 = CARTESIAN_POINT('',(1.42108547152E-14,1.421085449399E-14));
#394 = ( GEOMETRIC_REPRESENTATION_CONTEXT(2) 
PARAMETRIC_REPRESENTATION_CONTEXT() REPRESENTATION_CONTEXT('2D SPACE',''
  ) );
#395 = ORIENTED_EDGE('',*,*,#21,.T.);
#396 = ORIENTED_EDGE('',*,*,#397,.F.);
#397 = EDGE_CURVE('',#24,#24,#398,.T.);
#398 = SURFACE_CURVE('',#399,(#415,#422),.PCURVE_S1.);
#399 = B_SPLINE_CURVE_WITH_KNOTS('',14,(#400,#401,#402,#403,#404,#405,
    #406,#407,#408,#409,#410,#411,#412,#413,#414),.UNSPECIFIED.,.T.,.F.,
  (15,15),(0.,1.),.PIECEWISE_BEZIER_KNOTS.);
#400 = CARTESIAN_POINT('',(6.6833289942E-15,32.,7.));
#401 = CARTESIAN_POINT('',(-13.46396851539,32.000000000007,7.));
#402 = CARTESIAN_POINT('',(-26.92794200062,25.058740441592,7.));
#403 = CARTESIAN_POINT('',(-36.9845803972,11.176212451164,7.));
#404 = CARTESIAN_POINT('',(-40.22692787476,-7.571539671687,7.));
#405 = CARTESIAN_POINT('',(-34.46930583033,-27.03282113284,7.));
#406 = CARTESIAN_POINT('',(-19.97655735788,-41.88933445314,7.));
#407 = CARTESIAN_POINT('',(-4.424161829155E-10,-47.48251526547,7.));
#408 = CARTESIAN_POINT('',(19.976557358697,-41.88933445314,7.));
#409 = CARTESIAN_POINT('',(34.46930582972,-27.03282113283,7.));
#410 = CARTESIAN_POINT('',(40.226927875147,-7.571539671687,7.));
#411 = CARTESIAN_POINT('',(36.984580397014,11.176212451164,7.));
#412 = CARTESIAN_POINT('',(26.927942000693,25.058740441592,7.));
#413 = CARTESIAN_POINT('',(13.463968515379,32.000000000007,7.));
#414 = CARTESIAN_POINT('',(6.683329270703E-15,32.,7.));
#415 = PCURVE('',#32,#416);
#416 = DEFINITIONAL_REPRESENTATION('',(#417),#421);
#417 = LINE('',#418,#419);
#418 = CARTESIAN_POINT('',(0.,1.));
#419 = VECTOR('',#420,1.);
#420 = DIRECTION('',(1.,0.));
#421 = ( GEOMETRIC_REPRESENTATION_CONTEXT(2) 
PARAMETRIC_REPRESENTATION_CONTEXT() REPRESENTATION_CONTEXT('2D SPACE',''
  ) );
#422 = PCURVE('',#423,#428);
#423 = PLANE('',#424);
#424 = AXIS2_PLACEMENT_3D('',#425,#426,#427);
#425 = CARTESIAN_POINT('',(6.6833289942E-15,32.,7.));
#426 = DIRECTION('',(0.,0.,-1.));
#427 = DIRECTION('',(-2.432048936286E-16,-1.,-0.));
#428 = DEFINITIONAL_REPRESENTATION('',(#429),#445);
#429 = B_SPLINE_CURVE_WITH_KNOTS('',14,(#430,#431,#432,#433,#434,#435,
    #436,#437,#438,#439,#440,#441,#442,#443,#444),.UNSPECIFIED.,.T.,.F.,
  (15,15),(0.,1.),.PIECEWISE_BEZIER_KNOTS.);
#430 = CARTESIAN_POINT('',(0.,0.));
#431 = CARTESIAN_POINT('',(-6.71845977726E-12,13.463968515395));
#432 = CARTESIAN_POINT('',(6.941259558408,26.927942000623));
#433 = CARTESIAN_POINT('',(20.823787548836,36.984580397206));
#434 = CARTESIAN_POINT('',(39.571539671687,40.22692787476));
#435 = CARTESIAN_POINT('',(59.03282113284,34.469305830339));
#436 = CARTESIAN_POINT('',(73.889334453149,19.976557357887));
#437 = CARTESIAN_POINT('',(79.482515265478,4.424035357079E-10));
#438 = CARTESIAN_POINT('',(73.889334453149,-19.97655735869));
#439 = CARTESIAN_POINT('',(59.032821132839,-34.46930582972));
#440 = CARTESIAN_POINT('',(39.571539671687,-40.22692787514));
#441 = CARTESIAN_POINT('',(20.823787548836,-36.98458039701));
#442 = CARTESIAN_POINT('',(6.941259558408,-26.92794200069));
#443 = CARTESIAN_POINT('',(-6.568689381454E-12,-13.46396851537));
#444 = CARTESIAN_POINT('',(-6.724704042399E-38,-2.765036485108E-22));
#445 = ( GEOMETRIC_REPRESENTATION_CONTEXT(2) 
PARAMETRIC_REPRESENTATION_CONTEXT() REPRESENTATION_CONTEXT('2D SPACE',''
  ) );
#446 = ADVANCED_FACE('',(#447,#450),#423,.F.);
#447 = FACE_BOUND('',#448,.F.);
#448 = EDGE_LOOP('',(#449));
#449 = ORIENTED_EDGE('',*,*,#397,.F.);
#450 = FACE_BOUND('',#451,.F.);
#451 = EDGE_LOOP('',(#452));
#452 = ORIENTED_EDGE('',*,*,#453,.T.);
#453 = EDGE_CURVE('',#454,#454,#456,.T.);
#454 = VERTEX_POINT('',#455);
#455 = CARTESIAN_POINT('',(24.5,-6.000769315822E-15,7.));
#456 = SURFACE_CURVE('',#457,(#462,#473),.PCURVE_S1.);
#457 = CIRCLE('',#458,24.5);
#458 = AXIS2_PLACEMENT_3D('',#459,#460,#461);
#459 = CARTESIAN_POINT('',(0.,0.,7.));
#460 = DIRECTION('',(0.,0.,1.));
#461 = DIRECTION('',(1.,0.,-0.));
#462 = PCURVE('',#423,#463);
#463 = DEFINITIONAL_REPRESENTATION('',(#464),#472);
#464 = ( BOUNDED_CURVE() B_SPLINE_CURVE(2,(#465,#466,#467,#468,#469,#470
,#471),.UNSPECIFIED.,.T.,.F.) B_SPLINE_CURVE_WITH_KNOTS((1,2,2,2,2,1),(
    -2.094395102393,0.,2.094395102393,4.188790204786,6.28318530718,
8.377580409573),.UNSPECIFIED.) CURVE() GEOMETRIC_REPRESENTATION_ITEM() 
RATIONAL_B_SPLINE_CURVE((1.,0.5,1.,0.5,1.,0.5,1.)) REPRESENTATION_ITEM(
  '') );
#465 = CARTESIAN_POINT('',(32.,-24.5));
#466 = CARTESIAN_POINT('',(-10.43524478543,-24.5));
#467 = CARTESIAN_POINT('',(10.782377607281,12.25));
#468 = CARTESIAN_POINT('',(32.,49.));
#469 = CARTESIAN_POINT('',(53.217622392719,12.25));
#470 = CARTESIAN_POINT('',(74.435244785437,-24.5));
#471 = CARTESIAN_POINT('',(32.,-24.5));
#472 = ( GEOMETRIC_REPRESENTATION_CONTEXT(2) 
PARAMETRIC_REPRESENTATION_CONTEXT() REPRESENTATION_CONTEXT('2D SPACE',''
  ) );
#473 = PCURVE('',#194,#474);
#474 = DEFINITIONAL_REPRESENTATION('',(#475),#479);
#475 = LINE('',#476,#477);
#476 = CARTESIAN_POINT('',(0.,47.));
#477 = VECTOR('',#478,1.);
#478 = DIRECTION('',(1.,0.));
#479 = ( GEOMETRIC_REPRESENTATION_CONTEXT(2) 
PARAMETRIC_REPRESENTATION_CONTEXT() REPRESENTATION_CONTEXT('2D SPACE',''
  ) );
#480 = ADVANCED_FACE('',(#481),#120,.T.);
#481 = FACE_BOUND('',#482,.T.);
#482 = EDGE_LOOP('',(#483,#484,#485));
#483 = ORIENTED_EDGE('',*,*,#92,.F.);
#484 = ORIENTED_EDGE('',*,*,#351,.F.);
#485 = ORIENTED_EDGE('',*,*,#486,.T.);
#486 = EDGE_CURVE('',#314,#93,#487,.T.);
#487 = SURFACE_CURVE('',#488,(#493,#504),.PCURVE_S1.);
#488 = CIRCLE('',#489,24.5);
#489 = AXIS2_PLACEMENT_3D('',#490,#491,#492);
#490 = CARTESIAN_POINT('',(0.,0.,-33.));
#491 = DIRECTION('',(0.,0.,1.));
#492 = DIRECTION('',(1.,0.,-0.));
#493 = PCURVE('',#120,#494);
#494 = DEFINITIONAL_REPRESENTATION('',(#495),#503);
#495 = ( BOUNDED_CURVE() B_SPLINE_CURVE(2,(#496,#497,#498,#499,#500,#501
,#502),.UNSPECIFIED.,.T.,.F.) B_SPLINE_CURVE_WITH_KNOTS((1,2,2,2,2,1),(
    -2.094395102393,0.,2.094395102393,4.188790204786,6.28318530718,
8.377580409573),.UNSPECIFIED.) CURVE() GEOMETRIC_REPRESENTATION_ITEM() 
RATIONAL_B_SPLINE_CURVE((1.,0.5,1.,0.5,1.,0.5,1.)) REPRESENTATION_ITEM(
  '') );
#496 = CARTESIAN_POINT('',(28.,-24.5));
#497 = CARTESIAN_POINT('',(-14.43524478543,-24.5));
#498 = CARTESIAN_POINT('',(6.782377607281,12.25));
#499 = CARTESIAN_POINT('',(28.,49.));
#500 = CARTESIAN_POINT('',(49.217622392719,12.25));
#501 = CARTESIAN_POINT('',(70.435244785437,-24.5));
#502 = CARTESIAN_POINT('',(28.,-24.5));
#503 = ( GEOMETRIC_REPRESENTATION_CONTEXT(2) 
PARAMETRIC_REPRESENTATION_CONTEXT() REPRESENTATION_CONTEXT('2D SPACE',''
  ) );
#504 = PCURVE('',#194,#505);
#505 = DEFINITIONAL_REPRESENTATION('',(#506),#510);
#506 = LINE('',#507,#508);
#507 = CARTESIAN_POINT('',(0.,7.));
#508 = VECTOR('',#509,1.);
#509 = DIRECTION('',(1.,0.));
#510 = ( GEOMETRIC_REPRESENTATION_CONTEXT(2) 
PARAMETRIC_REPRESENTATION_CONTEXT() REPRESENTATION_CONTEXT('2D SPACE',''
  ) );
#511 = ADVANCED_FACE('',(#512),#194,.F.);
#512 = FACE_BOUND('',#513,.F.);
#513 = EDGE_LOOP('',(#514,#515,#536,#537,#538,#539,#565,#566));
#514 = ORIENTED_EDGE('',*,*,#453,.F.);
#515 = ORIENTED_EDGE('',*,*,#516,.F.);
#516 = EDGE_CURVE('',#276,#454,#517,.T.);
#517 = SEAM_CURVE('',#518,(#522,#529),.PCURVE_S1.);
#518 = LINE('',#519,#520);
#519 = CARTESIAN_POINT('',(24.5,-6.000769315822E-15,-40.));
#520 = VECTOR('',#521,1.);
#521 = DIRECTION('',(0.,0.,1.));
#522 = PCURVE('',#194,#523);
#523 = DEFINITIONAL_REPRESENTATION('',(#524),#528);
#524 = LINE('',#525,#526);
#525 = CARTESIAN_POINT('',(6.28318530718,-0.));
#526 = VECTOR('',#527,1.);
#527 = DIRECTION('',(0.,1.));
#528 = ( GEOMETRIC_REPRESENTATION_CONTEXT(2) 
PARAMETRIC_REPRESENTATION_CONTEXT() REPRESENTATION_CONTEXT('2D SPACE',''
  ) );
#529 = PCURVE('',#194,#530);
#530 = DEFINITIONAL_REPRESENTATION('',(#531),#535);
#531 = LINE('',#532,#533);
#532 = CARTESIAN_POINT('',(0.,-0.));
#533 = VECTOR('',#534,1.);
#534 = DIRECTION('',(0.,1.));
#535 = ( GEOMETRIC_REPRESENTATION_CONTEXT(2) 
PARAMETRIC_REPRESENTATION_CONTEXT() REPRESENTATION_CONTEXT('2D SPACE',''
  ) );
#536 = ORIENTED_EDGE('',*,*,#313,.T.);
#537 = ORIENTED_EDGE('',*,*,#486,.T.);
#538 = ORIENTED_EDGE('',*,*,#144,.T.);
#539 = ORIENTED_EDGE('',*,*,#540,.T.);
#540 = EDGE_CURVE('',#145,#224,#541,.T.);
#541 = SURFACE_CURVE('',#542,(#547,#554),.PCURVE_S1.);
#542 = CIRCLE('',#543,24.5);
#543 = AXIS2_PLACEMENT_3D('',#544,#545,#546);
#544 = CARTESIAN_POINT('',(0.,0.,-33.));
#545 = DIRECTION('',(0.,0.,1.));
#546 = DIRECTION('',(1.,0.,-0.));
#547 = PCURVE('',#194,#548);
#548 = DEFINITIONAL_REPRESENTATION('',(#549),#553);
#549 = LINE('',#550,#551);
#550 = CARTESIAN_POINT('',(0.,7.));
#551 = VECTOR('',#552,1.);
#552 = DIRECTION('',(1.,0.));
#553 = ( GEOMETRIC_REPRESENTATION_CONTEXT(2) 
PARAMETRIC_REPRESENTATION_CONTEXT() REPRESENTATION_CONTEXT('2D SPACE',''
  ) );
#554 = PCURVE('',#251,#555);
#555 = DEFINITIONAL_REPRESENTATION('',(#556),#564);
#556 = ( BOUNDED_CURVE() B_SPLINE_CURVE(2,(#557,#558,#559,#560,#561,#562
,#563),.UNSPECIFIED.,.T.,.F.) B_SPLINE_CURVE_WITH_KNOTS((1,2,2,2,2,1),(
    -2.094395102393,0.,2.094395102393,4.188790204786,6.28318530718,
8.377580409573),.UNSPECIFIED.) CURVE() GEOMETRIC_REPRESENTATION_ITEM() 
RATIONAL_B_SPLINE_CURVE((1.,0.5,1.,0.5,1.,0.5,1.)) REPRESENTATION_ITEM(
  '') );
#557 = CARTESIAN_POINT('',(28.,-24.5));
#558 = CARTESIAN_POINT('',(-14.43524478543,-24.5));
#559 = CARTESIAN_POINT('',(6.782377607281,12.25));
#560 = CARTESIAN_POINT('',(28.,49.));
#561 = CARTESIAN_POINT('',(49.217622392719,12.25));
#562 = CARTESIAN_POINT('',(70.435244785437,-24.5));
#563 = CARTESIAN_POINT('',(28.,-24.5));
#564 = ( GEOMETRIC_REPRESENTATION_CONTEXT(2) 
PARAMETRIC_REPRESENTATION_CONTEXT() REPRESENTATION_CONTEXT('2D SPACE',''
  ) );
#565 = ORIENTED_EDGE('',*,*,#275,.T.);
#566 = ORIENTED_EDGE('',*,*,#516,.T.);
#567 = ADVANCED_FACE('',(#568),#251,.T.);
#568 = FACE_BOUND('',#569,.T.);
#569 = EDGE_LOOP('',(#570,#571));
#570 = ORIENTED_EDGE('',*,*,#223,.F.);
#571 = ORIENTED_EDGE('',*,*,#540,.T.);
#572 = ( GEOMETRIC_REPRESENTATION_CONTEXT(3) 
GLOBAL_UNCERTAINTY_ASSIGNED_CONTEXT((#576)) GLOBAL_UNIT_ASSIGNED_CONTEXT
((#573,#574,#575)) REPRESENTATION_CONTEXT('Context #1',
  '3D Context with UNIT and UNCERTAINTY') );
#573 = ( LENGTH_UNIT() NAMED_UNIT(*) SI_UNIT(.MILLI.,.METRE.) );
#574 = ( NAMED_UNIT(*) PLANE_ANGLE_UNIT() SI_UNIT($,.RADIAN.) );
#575 = ( NAMED_UNIT(*) SI_UNIT($,.STERADIAN.) SOLID_ANGLE_UNIT() );
#576 = UNCERTAINTY_MEASURE_WITH_UNIT(LENGTH_MEASURE(2.E-06),#573,
  'distance_accuracy_value','confusion accuracy');
#577 = PRODUCT_RELATED_PRODUCT_CATEGORY('part',$,(#7));
ENDSEC;
END-ISO-10303-21;
