  0
SECTION
  2
HEADER
  9
$ACADVER
  1
AC1027
  9
$ACADMAINTVER
 70
105
  9
$DWGCODEPAGE
  3
ANSI_1252
  9
$LASTSAVEDBY
  1
ezdxf
  9
$REQUIREDVERSIONS
160
0
  9
$INSBASE
 10
0.0
 20
0.0
 30
0.0
  9
$EXTMIN
 10
1e+20
 20
1e+20
 30
1e+20
  9
$EXTMAX
 10
-1e+20
 20
-1e+20
 30
-1e+20
  9
$LIMMIN
 10
0.0
 20
0.0
  9
$LIMMAX
 10
420.0
 20
297.0
  9
$ORTHOMODE
 70
0
  9
$REGENMODE
 70
1
  9
$FILLMODE
 70
1
  9
$QTEXTMODE
 70
0
  9
$MIRRTEXT
 70
1
  9
$LTSCALE
 40
1.0
  9
$ATTMODE
 70
1
  9
$TEXTSIZE
 40
2.5
  9
$TRACEWID
 40
1.0
  9
$TEXTSTYLE
  7
Standard
  9
$CLAYER
  8
0
  9
$CELTYPE
  6
ByLayer
  9
$CECOLOR
 62
256
  9
$CELTSCALE
 40
1.0
  9
$DISPSILH
 70
0
  9
$DIMSCALE
 40
1.0
  9
$DIMASZ
 40
2.5
  9
$DIMEXO
 40
0.625
  9
$DIMDLI
 40
3.75
  9
$DIMRND
 40
0.0
  9
$DIMDLE
 40
0.0
  9
$DIMEXE
 40
1.25
  9
$DIMTP
 40
0.0
  9
$DIMTM
 40
0.0
  9
$DIMTXT
 40
2.5
  9
$DIMCEN
 40
2.5
  9
$DIMTSZ
 40
0.0
  9
$DIMTOL
 70
0
  9
$DIMLIM
 70
0
  9
$DIMTIH
 70
0
  9
$DIMTOH
 70
0
  9
$DIMSE1
 70
0
  9
$DIMSE2
 70
0
  9
$DIMTAD
 70
1
  9
$DIMZIN
 70
8
  9
$DIMBLK
  1

  9
$DIMASO
 70
1
  9
$DIMSHO
 70
1
  9
$DIMPOST
  1

  9
$DIMAPOST
  1

  9
$DIMALT
 70
0
  9
$DIMALTD
 70
3
  9
$DIMALTF
 40
0.03937007874
  9
$DIMLFAC
 40
1.0
  9
$DIMTOFL
 70
1
  9
$DIMTVP
 40
0.0
  9
$DIMTIX
 70
0
  9
$DIMSOXD
 70
0
  9
$DIMSAH
 70
0
  9
$DIMBLK1
  1

  9
$DIMBLK2
  1

  9
$DIMSTYLE
  2
ISO-25
  9
$DIMCLRD
 70
0
  9
$DIMCLRE
 70
0
  9
$DIMCLRT
 70
0
  9
$DIMTFAC
 40
1.0
  9
$DIMGAP
 40
0.625
  9
$DIMJUST
 70
0
  9
$DIMSD1
 70
0
  9
$DIMSD2
 70
0
  9
$DIMTOLJ
 70
0
  9
$DIMTZIN
 70
8
  9
$DIMALTZ
 70
0
  9
$DIMALTTZ
 70
0
  9
$DIMUPT
 70
0
  9
$DIMDEC
 70
2
  9
$DIMTDEC
 70
2
  9
$DIMALTU
 70
2
  9
$DIMALTTD
 70
3
  9
$DIMTXSTY
  7
Standard
  9
$DIMAUNIT
 70
0
  9
$DIMADEC
 70
0
  9
$DIMALTRND
 40
0.0
  9
$DIMAZIN
 70
0
  9
$DIMDSEP
 70
44
  9
$DIMATFIT
 70
3
  9
$DIMFRAC
 70
0
  9
$DIMLDRBLK
  1

  9
$DIMLUNIT
 70
2
  9
$DIMLWD
 70
-2
  9
$DIMLWE
 70
-2
  9
$DIMTMOVE
 70
0
  9
$DIMFXL
 40
1.0
  9
$DIMFXLON
 70
0
  9
$DIMJOGANG
 40
0.785398163397
  9
$DIMTFILL
 70
0
  9
$DIMTFILLCLR
 70
0
  9
$DIMARCSYM
 70
0
  9
$DIMLTYPE
  6

  9
$DIMLTEX1
  6

  9
$DIMLTEX2
  6

  9
$DIMTXTDIRECTION
 70
0
  9
$LUNITS
 70
2
  9
$LUPREC
 70
4
  9
$SKETCHINC
 40
1.0
  9
$FILLETRAD
 40
10.0
  9
$AUNITS
 70
0
  9
$AUPREC
 70
2
  9
$MENU
  1
.
  9
$ELEVATION
 40
0.0
  9
$PELEVATION
 40
0.0
  9
$THICKNESS
 40
0.0
  9
$LIMCHECK
 70
0
  9
$CHAMFERA
 40
0.0
  9
$CHAMFERB
 40
0.0
  9
$CHAMFERC
 40
0.0
  9
$CHAMFERD
 40
0.0
  9
$SKPOLY
 70
0
  9
$TDCREATE
 40
2461321.6974189817
  9
$TDUCREATE
 40
2458532.153996898
  9
$TDUPDATE
 40
2461321.6974305557
  9
$TDUUPDATE
 40
2458532.1544311
  9
$TDINDWG
 40
0.0
  9
$TDUSRTIMER
 40
0.0
  9
$USRTIMER
 70
1
  9
$ANGBASE
 50
0.0
  9
$ANGDIR
 70
0
  9
$PDMODE
 70
0
  9
$PDSIZE
 40
0.0
  9
$PLINEWID
 40
0.0
  9
$SPLFRAME
 70
0
  9
$SPLINETYPE
 70
6
  9
$SPLINESEGS
 70
8
  9
$HANDSEED
  5
146
  9
$SURFTAB1
 70
6
  9
$SURFTAB2
 70
6
  9
$SURFTYPE
 70
6
  9
$SURFU
 70
6
  9
$SURFV
 70
6
  9
$UCSBASE
  2

  9
$UCSNAME
  2

  9
$UCSORG
 10
0.0
 20
0.0
 30
0.0
  9
$UCSXDIR
 10
1.0
 20
0.0
 30
0.0
  9
$UCSYDIR
 10
0.0
 20
1.0
 30
0.0
  9
$UCSORTHOREF
  2

  9
$UCSORTHOVIEW
 70
0
  9
$UCSORGTOP
 10
0.0
 20
0.0
 30
0.0
  9
$UCSORGBOTTOM
 10
0.0
 20
0.0
 30
0.0
  9
$UCSORGLEFT
 10
0.0
 20
0.0
 30
0.0
  9
$UCSORGRIGHT
 10
0.0
 20
0.0
 30
0.0
  9
$UCSORGFRONT
 10
0.0
 20
0.0
 30
0.0
  9
$UCSORGBACK
 10
0.0
 20
0.0
 30
0.0
  9
$PUCSBASE
  2

  9
$PUCSNAME
  2

  9
$PUCSORG
 10
0.0
 20
0.0
 30
0.0
  9
$PUCSXDIR
 10
1.0
 20
0.0
 30
0.0
  9
$PUCSYDIR
 10
0.0
 20
1.0
 30
0.0
  9
$PUCSORTHOREF
  2

  9
$PUCSORTHOVIEW
 70
0
  9
$PUCSORGTOP
 10
0.0
 20
0.0
 30
0.0
  9
$PUCSORGBOTTOM
 10
0.0
 20
0.0
 30
0.0
  9
$PUCSORGLEFT
 10
0.0
 20
0.0
 30
0.0
  9
$PUCSORGRIGHT
 10
0.0
 20
0.0
 30
0.0
  9
$PUCSORGFRONT
 10
0.0
 20
0.0
 30
0.0
  9
$PUCSORGBACK
 10
0.0
 20
0.0
 30
0.0
  9
$USERI1
 70
0
  9
$USERI2
 70
0
  9
$USERI3
 70
0
  9
$USERI4
 70
0
  9
$USERI5
 70
0
  9
$USERR1
 40
0.0
  9
$USERR2
 40
0.0
  9
$USERR3
 40
0.0
  9
$USERR4
 40
0.0
  9
$USERR5
 40
0.0
  9
$WORLDVIEW
 70
1
  9
$SHADEDGE
 70
3
  9
$SHADEDIF
 70
70
  9
$TILEMODE
 70
1
  9
$MAXACTVP
 70
64
  9
$PINSBASE
 10
0.0
 20
0.0
 30
0.0
  9
$PLIMCHECK
 70
0
  9
$PEXTMIN
 10
1e+20
 20
1e+20
 30
1e+20
  9
$PEXTMAX
 10
-1e+20
 20
-1e+20
 30
-1e+20
  9
$PLIMMIN
 10
0.0
 20
0.0
  9
$PLIMMAX
 10
420.0
 20
297.0
  9
$UNITMODE
 70
0
  9
$VISRETAIN
 70
1
  9
$PLINEGEN
 70
0
  9
$PSLTSCALE
 70
1
  9
$TREEDEPTH
 70
3020
  9
$CMLSTYLE
  2
Standard
  9
$CMLJUST
 70
0
  9
$CMLSCALE
 40
20.0
  9
$PROXYGRAPHICS
 70
1
  9
$MEASUREMENT
 70
1
  9
$CELWEIGHT
370
-1
  9
$ENDCAPS
280
0
  9
$JOINSTYLE
280
0
  9
$LWDISPLAY
290
0
  9
$INSUNITS
 70
4
  9
$HYPERLINKBASE
  1

  9
$STYLESHEET
  1

  9
$XEDIT
290
1
  9
$CEPSNTYPE
380
0
  9
$PSTYLEMODE
290
1
  9
$FINGERPRINTGUID
  2
{74559CAB-0239-4801-888E-571B58F6E44E}
  9
$VERSIONGUID
  2
{EB8A1121-34C3-4508-A5CD-4DF4312E1910}
  9
$EXTNAMES
290
1
  9
$PSVPSCALE
 40
0.0
  9
$OLESTARTUP
290
0
  9
$SORTENTS
280
127
  9
$INDEXCTL
280
0
  9
$HIDETEXT
280
1
  9
$XCLIPFRAME
280
1
  9
$HALOGAP
280
0
  9
$OBSCOLOR
 70
257
  9
$OBSLTYPE
280
0
  9
$INTERSECTIONDISPLAY
280
0
  9
$INTERSECTIONCOLOR
 70
257
  9
$DIMASSOC
280
2
  9
$PROJECTNAME
  1

  9
$CAMERADISPLAY
290
0
  9
$LENSLENGTH
 40
50.0
  9
$CAMERAHEIGHT
 40
0.0
  9
$STEPSPERSEC
 40
24.0
  9
$STEPSIZE
 40
100.0
  9
$3DDWFPREC
 40
2.0
  9
$PSOLWIDTH
 40
0.005
  9
$PSOLHEIGHT
 40
0.08
  9
$LOFTANG1
 40
1.570796326795
  9
$LOFTANG2
 40
1.570796326795
  9
$LOFTMAG1
 40
0.0
  9
$LOFTMAG2
 40
0.0
  9
$LOFTPARAM
 70
7
  9
$LOFTNORMALS
280
1
  9
$LATITUDE
 40
37.795
  9
$LONGITUDE
 40
-122.394
  9
$NORTHDIRECTION
 40
0.0
  9
$TIMEZONE
 70
-8000
  9
$LIGHTGLYPHDISPLAY
280
1
  9
$TILEMODELIGHTSYNCH
280
1
  9
$CMATERIAL
347
20
  9
$SOLIDHIST
280
0
  9
$SHOWHIST
280
1
  9
$DWFFRAME
280
2
  9
$DGNFRAME
280
2
  9
$REALWORLDSCALE
290
1
  9
$INTERFERECOLOR
 62
256
  9
$CSHADOW
280
0
  9
$SHADOWPLANELOCATION
 40
0.0
  0
ENDSEC
  0
SECTION
  2
CLASSES
  0
CLASS
  1
ACDBDICTIONARYWDFLT
  2
AcDbDictionaryWithDefault
  3
ObjectDBX Classes
 90
0
 91
0
280
0
281
0
  0
CLASS
  1
SUN
  2
AcDbSun
  3
SCENEOE
 90
1153
 91
0
280
0
281
0
  0
CLASS
  1
VISUALSTYLE
  2
AcDbVisualStyle
  3
ObjectDBX Classes
 90
4095
 91
0
280
0
281
0
  0
CLASS
  1
MATERIAL
  2
AcDbMaterial
  3
ObjectDBX Classes
 90
1153
 91
0
280
0
281
0
  0
CLASS
  1
SCALE
  2
AcDbScale
  3
ObjectDBX Classes
 90
1153
 91
0
280
0
281
0
  0
CLASS
  1
TABLESTYLE
  2
AcDbTableStyle
  3
ObjectDBX Classes
 90
4095
 91
0
280
0
281
0
  0
CLASS
  1
MLEADERSTYLE
  2
AcDbMLeaderStyle
  3
ACDB_MLEADERSTYLE_CLASS
 90
4095
 91
0
280
0
281
0
  0
CLASS
  1
DICTIONARYVAR
  2
AcDbDictionaryVar
  3
ObjectDBX Classes
 90
0
 91
0
280
0
281
0
  0
CLASS
  1
CELLSTYLEMAP
  2
AcDbCellStyleMap
  3
ObjectDBX Classes
 90
1152
 91
0
280
0
281
0
  0
CLASS
  1
MENTALRAYRENDERSETTINGS
  2
AcDbMentalRayRenderSettings
  3
SCENEOE
 90
1024
 91
0
280
0
281
0
  0
CLASS
  1
ACDBDETAILVIEWSTYLE
  2
AcDbDetailViewStyle
  3
ObjectDBX Classes
 90
1025
 91
0
280
0
281
0
  0
CLASS
  1
ACDBSECTIONVIEWSTYLE
  2
AcDbSectionViewStyle
  3
ObjectDBX Classes
 90
1025
 91
0
280
0
281
0
  0
CLASS
  1
RASTERVARIABLES
  2
AcDbRasterVariables
  3
ISM
 90
0
 91
0
280
0
281
0
  0
CLASS
  1
ACDBPLACEHOLDER
  2
AcDbPlaceHolder
  3
ObjectDBX Classes
 90
0
 91
0
280
0
281
0
  0
CLASS
  1
LAYOUT
  2
AcDbLayout
  3
ObjectDBX Classes
 90
0
 91
0
280
0
281
0
  0
ENDSEC
  0
SECTION
  2
TABLES
  0
TABLE
  2
VPORT
  5
8
330
0
100
AcDbSymbolTable
 70
1
  0
VPORT
  5
142
330
8
100
AcDbSymbolTableRecord
100
AcDbViewportTableRecord
  2
*Active
 70
0
 10
0.0
 20
0.0
 11
1.0
 21
1.0
 12
-0.8393162283777542
 22
0.0
 13
0.0
 23
0.0
 14
0.5
 24
0.5
 15
0.5
 25
0.5
 16
0.0
 26
0.0
 36
1.0
 17
0.0
 27
0.0
 37
0.0
 40
180.0
 41
1.34
 42
50.0
 43
0.0
 44
0.0
 50
0.0
 51
0.0
 71
0
 72
1000
 73
1
 74
3
 75
0
 76
0
 77
0
 78
0
281
0
 65
1
110
0.0
120
0.0
130
0.0
111
1.0
121
0.0
131
0.0
112
0.0
122
1.0
132
0.0
 79
0
146
0.0
  0
ENDTAB
  0
TABLE
  2
LTYPE
  5
2
330
0
100
AcDbSymbolTable
 70
4
  0
LTYPE
  5
24
330
2
100
AcDbSymbolTableRecord
100
AcDbLinetypeTableRecord
  2
ByBlock
 70
0
  3

 72
65
 73
0
 40
0.0
  0
LTYPE
  5
25
330
2
100
AcDbSymbolTableRecord
100
AcDbLinetypeTableRecord
  2
ByLayer
 70
0
  3

 72
65
 73
0
 40
0.0
  0
LTYPE
  5
26
330
2
100
AcDbSymbolTableRecord
100
AcDbLinetypeTableRecord
  2
Continuous
 70
0
  3

 72
65
 73
0
 40
0.0
  0
LTYPE
  5
30
330
2
100
AcDbSymbolTableRecord
100
AcDbLinetypeTableRecord
  2
ACAD_ISO02W100
 70
0
  3
ISO dash __ __ __ __ __ __ __ __ __ __ __ __ __
 72
65
 73
2
 40
15.0
 49
12.0
 74
0
 49
-3.0
 74
0
  0
ENDTAB
  0
TABLE
  2
LAYER
  5
1
330
0
100
AcDbSymbolTable
 70
4
  0
LAYER
  5
27
330
1
100
AcDbSymbolTableRecord
100
AcDbLayerTableRecord
  2
0
 70
0
 62
7
  6
Continuous
370
-3
390
13
347
21
  0
LAYER
  5
28
330
1
100
AcDbSymbolTableRecord
100
AcDbLayerTableRecord
  2
Defpoints
 70
0
 62
7
  6
Continuous
290
0
370
-3
390
13
347
21
  0
LAYER
  5
2F
330
1
100
AcDbSymbolTableRecord
100
AcDbLayerTableRecord
  2
VISIBLE
 70
0
 62
7
  6
Continuous
370
25
390
13
347
21
  0
LAYER
  5
31
330
1
100
AcDbSymbolTableRecord
100
AcDbLayerTableRecord
  2
HIDDEN
 70
0
 62
7
  6
ACAD_ISO02W100
370
13
390
13
347
21
  0
ENDTAB
  0
TABLE
  2
STYLE
  5
5
330
0
100
AcDbSymbolTable
 70
1
  0
STYLE
  5
29
330
5
100
AcDbSymbolTableRecord
100
AcDbTextStyleTableRecord
  2
Standard
 70
0
 40
0.0
 41
1.0
 50
0.0
 71
0
 42
2.5
  3
txt
  4

  0
ENDTAB
  0
TABLE
  2
VIEW
  5
7
330
0
100
AcDbSymbolTable
 70
0
  0
ENDTAB
  0
TABLE
  2
UCS
  5
6
330
0
100
AcDbSymbolTable
 70
0
  0
ENDTAB
  0
TABLE
  2
APPID
  5
3
330
0
100
AcDbSymbolTable
 70
3
  0
APPID
  5
2A
330
3
100
AcDbSymbolTableRecord
100
AcDbRegAppTableRecord
  2
ACAD
 70
0
  0
APPID
  5
143
330
3
100
AcDbSymbolTableRecord
100
AcDbRegAppTableRecord
  2
HATCHBACKGROUNDCOLOR
 70
0
  0
APPID
  5
144
330
3
100
AcDbSymbolTableRecord
100
AcDbRegAppTableRecord
  2
EZDXF
 70
0
  0
ENDTAB
  0
TABLE
  2
DIMSTYLE
  5
4
330
0
100
AcDbSymbolTable
 70
1
100
AcDbDimStyleTable
  0
DIMSTYLE
105
2B
330
4
100
AcDbSymbolTableRecord
100
AcDbDimStyleTableRecord
  2
Standard
 70
0
 40
1.0
 41
2.5
 42
0.625
 43
3.75
 44
1.25
 45
0.0
 46
0.0
 47
0.0
 48
0.0
 49
2.5
140
2.5
141
2.5
142
0.0
143
0.03937007874
144
1.0
145
0.0
146
1.0
147
0.625
148
0.0
 69
0
 70
0
 71
0
 72
0
 73
0
 74
0
 75
0
 76
0
 77
1
 78
8
 79
3
170
0
171
3
172
1
173
0
174
0
175
0
176
0
177
0
178
0
179
2
271
2
272
2
273
2
274
3
275
0
276
0
277
2
278
44
279
0
280
0
281
0
282
0
283
0
284
8
285
0
286
0
288
0
289
3
290
0
371
-2
372
-2
  0
ENDTAB
  0
TABLE
  2
BLOCK_RECORD
  5
9
330
0
100
AcDbSymbolTable
 70
2
  0
BLOCK_RECORD
  5
17
330
9
100
AcDbSymbolTableRecord
100
AcDbBlockTableRecord
  2
*Model_Space
340
1A
 70
0
280
1
281
0
  0
BLOCK_RECORD
  5
1B
330
9
100
AcDbSymbolTableRecord
100
AcDbBlockTableRecord
  2
*Paper_Space
340
1E
 70
0
280
1
281
0
  0
ENDTAB
  0
ENDSEC
  0
SECTION
  2
BLOCKS
  0
BLOCK
  5
18
330
17
100
AcDbEntity
  8
0
100
AcDbBlockBegin
  2
*Model_Space
 70
0
 10
0.0
 20
0.0
 30
0.0
  3
*Model_Space
  1

  0
ENDBLK
  5
19
330
17
100
AcDbEntity
  8
0
100
AcDbBlockEnd
  0
BLOCK
  5
1C
330
1B
100
AcDbEntity
  8
0
100
AcDbBlockBegin
  2
*Paper_Space
 70
0
 10
0.0
 20
0.0
 30
0.0
  3
*Paper_Space
  1

  0
ENDBLK
  5
1D
330
1B
100
AcDbEntity
  8
0
100
AcDbBlockEnd
  0
ENDSEC
  0
SECTION
  2
ENTITIES
  0
LINE
  5
32
330
17
100
AcDbEntity
  8
VISIBLE
100
AcDbLine
 10
-167.6666969480156
 20
-60.30144720925264
 30
0.0
 11
-130.82002478453538
 21
-88.74924557076312
 31
0.0
  0
ARC
  5
33
330
17
100
AcDbEntity
  8
VISIBLE
100
AcDbCircle
 10
-127.15332783651974
 20
-84.0
 30
0.0
 40
6.0
100
AcDbArc
 50
-127.6702522832412
 51
-90.0
  0
SPLINE
  5
34
330
17
100
AcDbEntity
  8
VISIBLE
100
AcDbSpline
 70
0
 71
1
 72
4
 73
2
 74
0
 40
0.0
 40
0.0
 40
1.0
 40
1.0
 10
-130.82002478453538
 20
-88.74924557076312
 30
0.0
 10
-124.33781279333881
 20
-81.60535049662128
 30
0.0
  0
LINE
  5
35
330
17
100
AcDbEntity
  8
VISIBLE
100
AcDbLine
 10
-159.0928549378763
 20
-55.6197694504733
 30
0.0
 11
-124.33781279333881
 21
-81.60535049662128
 31
0.0
  0
SPLINE
  5
36
330
17
100
AcDbEntity
  8
VISIBLE
100
AcDbSpline
 70
0
 71
1
 72
4
 73
2
 74
0
 40
0.0
 40
0.0
 40
1.0
 40
1.0
 10
-167.6666969480156
 20
-60.30144720925264
 30
0.0
 10
-159.0928549378763
 20
-55.6197694504733
 30
0.0
  0
ARC
  5
37
330
17
100
AcDbEntity
  8
VISIBLE
100
AcDbCircle
 10
-164.0
 20
-55.55220163848952
 30
0.0
 40
6.0
100
AcDbArc
 50
-180.0
 51
-127.6702522832412
  0
LINE
  5
38
330
17
100
AcDbEntity
  8
VISIBLE
100
AcDbLine
 10
-127.15332783651974
 20
-90.0
 30
0.0
 11
-118.72819436736269
 21
-90.0
 31
0.0
  0
SPLINE
  5
39
330
17
100
AcDbEntity
  8
VISIBLE
100
AcDbSpline
 70
0
 71
3
 72
11
 73
7
 74
0
 40
0.0
 40
0.0
 40
0.0
 40
0.0
 40
0.6246913587741997
 40
0.6246913587741997
 40
0.6246913587741997
 40
1.0
 40
1.0
 40
1.0
 40
1.0
 10
-112.47180563263731
 20
-90.0
 30
0.0
 10
-113.48159559702944
 20
-89.58867656414078
 30
0.0
 10
-114.73347366256026
 20
-89.34376213061294
 30
0.0
 10
-116.14943722916755
 20
-89.42759580354064
 30
0.0
 10
-116.99553879747884
 20
-89.47829745995305
 30
0.0
 10
-117.90512069678223
 20
-89.66205239090569
 30
0.0
 10
-118.7281943673627
 20
-90.0
 30
0.0
  0
LINE
  5
3A
330
17
100
AcDbEntity
  8
VISIBLE
100
AcDbLine
 10
-112.47180563263733
 20
-90.0
 30
0.0
 11
112.47180563263723
 21
-90.0
 31
0.0
  0
SPLINE
  5
3B
330
17
100
AcDbEntity
  8
VISIBLE
100
AcDbSpline
 70
0
 71
3
 72
11
 73
7
 74
0
 40
0.0
 40
0.0
 40
0.0
 40
0.0
 40
0.3774027704841839
 40
0.3774027704841839
 40
0.3774027704841839
 40
1.0
 40
1.0
 40
1.0
 40
1.0
 10
118.7281943673627
 20
-90.0
 30
0.0
 10
117.90047661506911
 20
-89.66013820208364
 30
0.0
 10
116.98548854861008
 20
-89.47630568990432
 30
0.0
 10
116.13526250302876
 20
-89.42673427824296
 30
0.0
 10
114.72501553629212
 20
-89.3454581934123
 30
0.0
 10
113.47825216108315
 20
-89.59002468869235
 30
0.0
 10
112.47180563263733
 20
-90.0
 30
0.0
  0
LINE
  5
3C
330
17
100
AcDbEntity
  8
VISIBLE
100
AcDbLine
 10
118.72819436736282
 20
-90.0
 30
0.0
 11
127.1533278365198
 21
-90.0
 31
0.0
  0
ARC
  5
3D
330
17
100
AcDbEntity
  8
VISIBLE
100
AcDbCircle
 10
127.15332783651978
 20
-84.0
 30
0.0
 40
6.0
100
AcDbArc
 50
-90.0
 51
-52.3297477167587
  0
LINE
  5
3E
330
17
100
AcDbEntity
  8
VISIBLE
100
AcDbLine
 10
130.8200247845354
 20
-88.7492455707631
 30
0.0
 11
167.66669694801564
 21
-60.301447209252636
 31
0.0
  0
ARC
  5
3F
330
17
100
AcDbEntity
  8
VISIBLE
100
AcDbCircle
 10
164.0
 20
-55.55220163848955
 30
0.0
 40
6.0
100
AcDbArc
 50
-52.3297477167587
 51
-43.926698539065
  0
SPLINE
  5
40
330
17
100
AcDbEntity
  8
VISIBLE
100
AcDbSpline
 70
0
 71
3
 72
14
 73
10
 74
0
 40
0.0
 40
0.0
 40
0.0
 40
0.0
 40
0.3000615506503932
 40
0.3000615506503932
 40
0.3000615506503932
 40
0.5135410662197059
 40
0.5135410662197059
 40
0.5135410662197059
 40
1.0
 40
1.0
 40
1.0
 40
1.0
 10
164.59250178974116
 20
-56.638515619946894
 30
0.0
 10
164.73335701364135
 20
-57.27850243345452
 30
0.0
 10
164.96784960972383
 20
-57.81925674473093
 30
0.0
 10
165.29313703110287
 20
-58.23056044235611
 30
0.0
 10
165.52327192453592
 20
-58.5247261689063
 30
0.0
 10
165.79445114214076
 20
-58.75768139480194
 30
0.0
 10
166.08829631076617
 20
-58.94580611343234
 30
0.0
 10
166.7606348380805
 20
-59.37139181596567
 30
0.0
 10
167.5351252446031
 20
-59.58495771590773
 30
0.0
 10
168.32136753857552
 20
-59.714626719640336
 30
0.0
  0
SPLINE
  5
41
330
17
100
AcDbEntity
  8
VISIBLE
100
AcDbSpline
 70
0
 71
3
 72
14
 73
10
 74
0
 40
0.0
 40
0.0
 40
0.0
 40
0.0
 40
0.3274510730489368
 40
0.3274510730489368
 40
0.3274510730489368
 40
0.4722940257369071
 40
0.4722940257369071
 40
0.4722940257369071
 40
0.6746324402064274
 40
0.6746324402064274
 40
0.6746324402064274
 40
0.6746324402064274
 10
168.32136753857552
 20
59.714626719640336
 30
0.0
 10
167.5368538066386
 20
59.58526675233685
 30
0.0
 10
166.76411134804596
 20
59.37230362712636
 30
0.0
 10
166.0927620294869
 20
58.94866175132958
 30
0.0
 10
165.79700602900326
 20
58.759914180440255
 30
0.0
 10
165.52408640707407
 20
58.52591535558204
 30
0.0
 10
165.2926899277157
 20
58.229989165385334
 30
0.0
 10
164.96762901721843
 20
57.8187629925653
 30
0.0
 10
164.7332946093561
 20
57.27820482827997
 30
0.0
 10
164.59250178984698
 20
56.63851561973459
 30
0.0
  0
ARC
  5
42
330
17
100
AcDbEntity
  8
VISIBLE
100
AcDbCircle
 10
164.0
 20
55.55220163848954
 30
0.0
 40
6.0
100
AcDbArc
 50
43.92669853906528
 51
52.32974771675875
  0
LINE
  5
43
330
17
100
AcDbEntity
  8
VISIBLE
100
AcDbLine
 10
167.6666969480156
 20
60.30144720925264
 30
0.0
 11
130.8200247845354
 21
88.74924557076311
 31
0.0
  0
ARC
  5
44
330
17
100
AcDbEntity
  8
VISIBLE
100
AcDbCircle
 10
127.15332783651978
 20
84.0
 30
0.0
 40
6.0
100
AcDbArc
 50
52.3297477167587
 51
90.0
  0
LINE
  5
45
330
17
100
AcDbEntity
  8
VISIBLE
100
AcDbLine
 10
127.15332783651978
 20
90.0
 30
0.0
 11
118.72819436736269
 21
90.0
 31
0.0
  0
SPLINE
  5
46
330
17
100
AcDbEntity
  8
VISIBLE
100
AcDbSpline
 70
0
 71
3
 72
11
 73
7
 74
0
 40
0.0
 40
0.0
 40
0.0
 40
0.0
 40
0.6246913587738621
 40
0.6246913587738621
 40
0.6246913587738621
 40
1.0
 40
1.0
 40
1.0
 40
1.0
 10
112.47180563263724
 20
89.99999999999999
 30
0.0
 10
113.4815955970292
 20
89.58867656414081
 30
0.0
 10
114.73347366255996
 20
89.34376213061299
 30
0.0
 10
116.14943722916699
 20
89.42759580354056
 30
0.0
 10
116.99553879747849
 20
89.47829745995291
 30
0.0
 10
117.90512069678203
 20
89.66205239090561
 30
0.0
 10
118.7281943673628
 20
89.99999999999999
 30
0.0
  0
LINE
  5
47
330
17
100
AcDbEntity
  8
VISIBLE
100
AcDbLine
 10
112.47180563263733
 20
90.0
 30
0.0
 11
-112.47180563263723
 21
90.0
 31
0.0
  0
SPLINE
  5
48
330
17
100
AcDbEntity
  8
VISIBLE
100
AcDbSpline
 70
0
 71
3
 72
11
 73
7
 74
0
 40
0.0
 40
0.0
 40
0.0
 40
0.0
 40
0.3774027704840148
 40
0.3774027704840148
 40
0.3774027704840148
 40
1.0
 40
1.0
 40
1.0
 40
1.0
 10
-118.72819436736278
 20
90.00000000000001
 30
0.0
 10
-117.90047661506918
 20
89.66013820208371
 30
0.0
 10
-116.98548854861008
 20
89.47630568990427
 30
0.0
 10
-116.13526250302876
 20
89.4267342782429
 30
0.0
 10
-114.72501553629205
 20
89.34545819341218
 30
0.0
 10
-113.4782521610831
 20
89.59002468869238
 30
0.0
 10
-112.47180563263724
 20
90.0
 30
0.0
  0
LINE
  5
49
330
17
100
AcDbEntity
  8
VISIBLE
100
AcDbLine
 10
-118.72819436736282
 20
90.0
 30
0.0
 11
-127.15332783651974
 21
90.0
 31
0.0
  0
ARC
  5
4A
330
17
100
AcDbEntity
  8
VISIBLE
100
AcDbCircle
 10
-127.15332783651974
 20
84.0
 30
0.0
 40
6.0
100
AcDbArc
 50
90.0
 51
127.67025228324114
  0
LINE
  5
4B
330
17
100
AcDbEntity
  8
VISIBLE
100
AcDbLine
 10
-130.82002478453538
 20
88.74924557076312
 30
0.0
 11
-167.6666969480156
 21
60.30144720925264
 31
0.0
  0
ARC
  5
4C
330
17
100
AcDbEntity
  8
VISIBLE
100
AcDbCircle
 10
-164.0
 20
55.55220163848954
 30
0.0
 40
6.0
100
AcDbArc
 50
127.67025228324114
 51
180.0
  0
LINE
  5
4D
330
17
100
AcDbEntity
  8
VISIBLE
100
AcDbLine
 10
-170.0
 20
55.55220163848954
 30
0.0
 11
-170.0
 21
-55.55220163848952
 31
0.0
  0
ARC
  5
4E
330
17
100
AcDbEntity
  8
VISIBLE
100
AcDbCircle
 10
-120.74495785546253
 20
-76.80000000000001
 30
0.0
 40
6.0
100
AcDbArc
 50
-126.78465727305705
 51
-90.0
  0
ARC
  5
4F
330
17
100
AcDbEntity
  8
VISIBLE
100
AcDbCircle
 10
-155.5
 20
-50.81441895385202
 30
0.0
 40
6.0
100
AcDbArc
 50
-180.0
 51
-126.78465727305705
  0
LINE
  5
50
330
17
100
AcDbEntity
  8
VISIBLE
100
AcDbLine
 10
-161.5
 20
50.814418953852055
 30
0.0
 11
-161.5
 21
-50.81441895385202
 31
0.0
  0
LINE
  5
51
330
17
100
AcDbEntity
  8
VISIBLE
100
AcDbLine
 10
-120.74495785546253
 20
-82.8
 30
0.0
 11
120.74495785546259
 21
-82.8
 31
0.0
  0
ARC
  5
52
330
17
100
AcDbEntity
  8
VISIBLE
100
AcDbCircle
 10
-155.5
 20
50.814418953852055
 30
0.0
 40
6.0
100
AcDbArc
 50
126.78465727305705
 51
180.0
  0
ARC
  5
53
330
17
100
AcDbEntity
  8
VISIBLE
100
AcDbCircle
 10
120.74495785546259
 20
-76.80000000000001
 30
0.0
 40
6.0
100
AcDbArc
 50
-90.0
 51
-53.215342726943
  0
LINE
  5
54
330
17
100
AcDbEntity
  8
VISIBLE
100
AcDbLine
 10
-124.33781279333886
 20
81.60535049662127
 30
0.0
 11
-159.09285493787627
 21
55.619769450473335
 31
0.0
  0
LINE
  5
55
330
17
100
AcDbEntity
  8
VISIBLE
100
AcDbLine
 10
124.33781279333886
 20
-81.60535049662126
 30
0.0
 11
159.09285493787627
 21
-55.61976945047332
 31
0.0
  0
ARC
  5
56
330
17
100
AcDbEntity
  8
VISIBLE
100
AcDbCircle
 10
-120.74495785546259
 20
76.8
 30
0.0
 40
6.0
100
AcDbArc
 50
90.0
 51
126.78465727305705
  0
ARC
  5
57
330
17
100
AcDbEntity
  8
VISIBLE
100
AcDbCircle
 10
155.5
 20
-50.814418953852076
 30
0.0
 40
6.0
100
AcDbArc
 50
-53.215342726943
 51
0.0
  0
LINE
  5
58
330
17
100
AcDbEntity
  8
VISIBLE
100
AcDbLine
 10
120.74495785546259
 20
82.80000000000001
 30
0.0
 11
-120.7449578554626
 21
82.80000000000001
 31
0.0
  0
LINE
  5
59
330
17
100
AcDbEntity
  8
VISIBLE
100
AcDbLine
 10
161.5
 20
-50.814418953852076
 30
0.0
 11
161.5
 21
50.81441895385206
 31
0.0
  0
ARC
  5
5A
330
17
100
AcDbEntity
  8
VISIBLE
100
AcDbCircle
 10
120.74495785546259
 20
76.8
 30
0.0
 40
6.0
100
AcDbArc
 50
53.215342726943
 51
90.0
  0
ARC
  5
5B
330
17
100
AcDbEntity
  8
VISIBLE
100
AcDbCircle
 10
155.5
 20
50.81441895385206
 30
0.0
 40
6.0
100
AcDbArc
 50
-2.5444437451708134e-14
 51
53.21534272694297
  0
LINE
  5
5C
330
17
100
AcDbEntity
  8
VISIBLE
100
AcDbLine
 10
159.09285493787627
 20
55.61976945047332
 30
0.0
 11
124.33781279333886
 21
81.60535049662126
 31
0.0
  0
SPLINE
  5
5D
330
17
100
AcDbEntity
  8
VISIBLE
100
AcDbSpline
 70
0
 71
1
 72
4
 73
2
 74
0
 40
0.0
 40
0.0
 40
1.0
 40
1.0
 10
-123.42093486913934
 20
-80.15190796745443
 30
0.0
 10
-157.87159747938236
 20
-54.661904132824844
 30
0.0
  0
SPLINE
  5
5E
330
17
100
AcDbEntity
  8
VISIBLE
100
AcDbSpline
 70
0
 71
3
 72
11
 73
7
 74
0
 40
0.0
 40
0.0
 40
0.0
 40
0.0
 40
0.6099966193074535
 40
0.6099966193074535
 40
0.6099966193074535
 40
1.0
 40
1.0
 40
1.0
 40
1.0
 10
-157.8715974793824
 20
-54.66190413282488
 30
0.0
 10
-158.78919464656803
 20
-53.98559085995772
 30
0.0
 10
-159.50580092713705
 20
-53.04128742613081
 30
0.0
 10
-159.91021799870128
 20
-51.97553364229834
 30
0.0
 10
-160.1700742673965
 20
-51.29488947039527
 30
0.0
 10
-160.3042149964486
 20
-50.56657110876743
 30
0.0
 10
-160.3039049235993
 20
-49.838009747713386
 30
0.0
  0
SPLINE
  5
5F
330
17
100
AcDbEntity
  8
VISIBLE
100
AcDbSpline
 70
0
 71
1
 72
4
 73
2
 74
0
 40
0.0
 40
0.0
 40
1.0
 40
1.0
 10
-160.30390492359933
 20
-49.83800974771336
 30
0.0
 10
-160.30390492359933
 20
49.83800974771336
 30
0.0
  0
SPLINE
  5
60
330
17
100
AcDbEntity
  8
VISIBLE
100
AcDbSpline
 70
0
 71
3
 72
11
 73
7
 74
0
 40
0.0
 40
0.0
 40
0.0
 40
0.0
 40
0.6620033652123983
 40
0.6620033652123983
 40
0.6620033652123983
 40
1.0
 40
1.0
 40
1.0
 40
1.0
 10
-160.30390492359933
 20
49.83800974771336
 30
0.0
 10
-160.30641306633015
 20
51.075275111536754
 30
0.0
 10
-159.91230382280895
 20
52.309158678483655
 30
0.0
 10
-159.19303666992877
 20
53.315894739019406
 30
0.0
 10
-158.82717455976476
 20
53.83048363225859
 30
0.0
 10
-158.379359714782
 20
54.286625434953734
 30
0.0
 10
-157.87159747938242
 20
54.661904132824844
 30
0.0
  0
SPLINE
  5
61
330
17
100
AcDbEntity
  8
VISIBLE
100
AcDbSpline
 70
0
 71
1
 72
4
 73
2
 74
0
 40
0.0
 40
0.0
 40
1.0
 40
1.0
 10
-157.87159747938242
 20
54.661904132824844
 30
0.0
 10
-123.42093486913937
 20
80.15190796745443
 30
0.0
  0
SPLINE
  5
62
330
17
100
AcDbEntity
  8
VISIBLE
100
AcDbSpline
 70
0
 71
3
 72
8
 73
4
 74
0
 40
0.0
 40
0.0
 40
0.0
 40
0.0
 40
1.0
 40
1.0
 40
1.0
 40
1.0
 10
-123.4209348691394
 20
80.15190796745446
 30
0.0
 10
-122.39806528706424
 20
80.9120222760771
 30
0.0
 10
-121.12761605880979
 20
81.33082861364149
 30
0.0
 10
-119.85324231335638
 20
81.32801358234298
 30
0.0
  0
SPLINE
  5
63
330
17
100
AcDbEntity
  8
VISIBLE
100
AcDbSpline
 70
0
 71
1
 72
4
 73
2
 74
0
 40
0.0
 40
0.0
 40
1.0
 40
1.0
 10
-119.8532423133563
 20
81.32801358234292
 30
0.0
 10
119.85324231335625
 20
81.32801358234292
 30
0.0
  0
SPLINE
  5
64
330
17
100
AcDbEntity
  8
VISIBLE
100
AcDbSpline
 70
0
 71
3
 72
8
 73
4
 74
0
 40
0.0
 40
0.0
 40
0.0
 40
0.0
 40
1.0
 40
1.0
 40
1.0
 40
1.0
 10
119.85324231335628
 20
81.32801358234295
 30
0.0
 10
121.1276160693581
 20
81.3308286181419
 30
0.0
 10
122.39806533079457
 20
80.91202225173922
 30
0.0
 10
123.42093486913933
 20
80.15190796745443
 30
0.0
  0
SPLINE
  5
65
330
17
100
AcDbEntity
  8
VISIBLE
100
AcDbSpline
 70
0
 71
1
 72
4
 73
2
 74
0
 40
0.0
 40
0.0
 40
1.0
 40
1.0
 10
123.42093486913933
 20
80.15190796745446
 30
0.0
 10
157.8715974793824
 20
54.66190413282487
 30
0.0
  0
SPLINE
  5
66
330
17
100
AcDbEntity
  8
VISIBLE
100
AcDbSpline
 70
0
 71
3
 72
11
 73
7
 74
0
 40
0.0
 40
0.0
 40
0.0
 40
0.0
 40
0.49999713271920865
 40
0.49999713271920865
 40
0.49999713271920865
 40
1.0
 40
1.0
 40
1.0
 40
1.0
 10
157.87159747938242
 20
54.66190413282485
 30
0.0
 10
158.62317252315043
 20
54.10713683950365
 30
0.0
 10
159.24158604247467
 20
53.37371695286437
 30
0.0
 10
159.66142269367288
 20
52.53923170778543
 30
0.0
 10
160.08274714242967
 20
51.7054842541124
 30
0.0
 10
160.30473521189225
 20
50.7721663541321
 30
0.0
 10
160.30390492359933
 20
49.838009747713365
 30
0.0
  0
SPLINE
  5
67
330
17
100
AcDbEntity
  8
VISIBLE
100
AcDbSpline
 70
0
 71
1
 72
4
 73
2
 74
0
 40
0.0
 40
0.0
 40
1.0
 40
1.0
 10
160.30390492359936
 20
49.83800974771334
 30
0.0
 10
160.30390492359936
 20
-49.83800974771336
 30
0.0
  0
SPLINE
  5
68
330
17
100
AcDbEntity
  8
VISIBLE
100
AcDbSpline
 70
0
 71
3
 72
11
 73
7
 74
0
 40
0.0
 40
0.0
 40
0.0
 40
0.0
 40
0.5180074972060308
 40
0.5180074972060308
 40
0.5180074972060308
 40
1.0
 40
1.0
 40
1.0
 40
1.0
 10
160.30390492359936
 20
-49.83800974771336
 30
0.0
 10
160.30485978772828
 20
-50.8058218328871
 30
0.0
 10
160.0663007576258
 20
-51.772633619713055
 30
0.0
 10
159.61525297058137
 20
-52.62891445895399
 30
0.0
 10
159.19700444801884
 20
-53.426376974784716
 30
0.0
 10
158.59604818582113
 20
-54.127057745475845
 30
0.0
 10
157.8715974793824
 20
-54.66190413282485
 30
0.0
  0
SPLINE
  5
69
330
17
100
AcDbEntity
  8
VISIBLE
100
AcDbSpline
 70
0
 71
1
 72
4
 73
2
 74
0
 40
0.0
 40
0.0
 40
1.0
 40
1.0
 10
157.8715974793824
 20
-54.661904132824844
 30
0.0
 10
123.42093486913933
 20
-80.15190796745443
 30
0.0
  0
SPLINE
  5
6A
330
17
100
AcDbEntity
  8
VISIBLE
100
AcDbSpline
 70
0
 71
3
 72
8
 73
4
 74
0
 40
0.0
 40
0.0
 40
0.0
 40
0.0
 40
1.0
 40
1.0
 40
1.0
 40
1.0
 10
123.42093486913933
 20
-80.15190796745443
 30
0.0
 10
122.39806201726014
 20
-80.91202434427957
 30
0.0
 10
121.12761208886366
 20
-81.33082891349824
 30
0.0
 10
119.85324231335625
 20
-81.32801358234295
 30
0.0
  0
SPLINE
  5
6B
330
17
100
AcDbEntity
  8
VISIBLE
100
AcDbSpline
 70
0
 71
1
 72
4
 73
2
 74
0
 40
0.0
 40
0.0
 40
1.0
 40
1.0
 10
119.8532423133563
 20
-81.32801358234296
 30
0.0
 10
-119.8532423133563
 20
-81.32801358234296
 30
0.0
  0
SPLINE
  5
6C
330
17
100
AcDbEntity
  8
VISIBLE
100
AcDbSpline
 70
0
 71
3
 72
8
 73
4
 74
0
 40
0.0
 40
0.0
 40
0.0
 40
0.0
 40
1.0
 40
1.0
 40
1.0
 40
1.0
 10
-119.85324231335632
 20
-81.32801358234296
 30
0.0
 10
-121.12761514488525
 20
-81.33082878671713
 30
0.0
 10
-122.39806536454378
 20
-80.91202233017376
 30
0.0
 10
-123.42093486913939
 20
-80.15190796745445
 30
0.0
  0
SPLINE
  5
6D
330
17
100
AcDbEntity
  8
VISIBLE
100
AcDbSpline
 70
0
 71
3
 72
11
 73
7
 74
0
 40
0.0
 40
0.0
 40
0.0
 40
0.0
 40
0.37227211848039804
 40
0.37227211848039804
 40
0.37227211848039804
 40
1.0
 40
1.0
 40
1.0
 40
1.0
 10
121.60000000000002
 20
-89.00689655172414
 30
0.0
 10
121.6007943306559
 20
-89.17698002850851
 30
0.0
 10
121.4049515032208
 20
-89.3389355362148
 30
0.0
 10
121.08673087298442
 20
-89.47786880614021
 30
0.0
 10
120.54667862091502
 20
-89.71312715028255
 30
0.0
 10
119.68779618324118
 20
-89.88603733233546
 30
0.0
 10
118.72819436736273
 20
-90.0
 30
0.0
  0
SPLINE
  5
6E
330
17
100
AcDbEntity
  8
VISIBLE
100
AcDbSpline
 70
0
 71
3
 72
11
 73
7
 74
0
 40
0.0
 40
0.0
 40
0.0
 40
0.0
 40
0.12832075339185148
 40
0.12832075339185148
 40
0.12832075339185148
 40
0.226278166374295
 40
0.226278166374295
 40
0.226278166374295
 40
0.226278166374295
 10
112.47180563263728
 20
-90.0
 30
0.0
 10
111.60684870448634
 20
-89.89776003227945
 30
0.0
 10
110.79617187261059
 20
-89.74207044645662
 30
0.0
 10
110.25089645622685
 20
-89.53407938711948
 30
0.0
 10
109.83411818583579
 20
-89.37656785890975
 30
0.0
 10
109.59645333940652
 20
-89.1893593807065
 30
0.0
 10
109.60000000259689
 20
-89.00689655112856
 30
0.0
  0
SPLINE
  5
6F
330
17
100
AcDbEntity
  8
VISIBLE
100
AcDbSpline
 70
0
 71
3
 72
23
 73
19
 74
0
 40
0.0
 40
0.0
 40
0.0
 40
0.0
 40
0.20811537447621287
 40
0.20811537447621287
 40
0.20811537447621287
 40
0.44838333025783805
 40
0.44838333025783805
 40
0.44838333025783805
 40
0.704626184063559
 40
0.704626184063559
 40
0.704626184063559
 40
0.8498599359198147
 40
0.8498599359198147
 40
0.8498599359198147
 40
0.9520229990093698
 40
0.9520229990093698
 40
0.9520229990093698
 40
1.0
 40
1.0
 40
1.0
 40
1.0
 10
109.60000000259689
 20
-89.00689655112856
 30
0.0
 10
109.59917180671468
 20
-88.70379555642045
 30
0.0
 10
110.21104740118156
 20
-88.43784087566843
 30
0.0
 10
111.0287301503074
 20
-88.25308426268403
 30
0.0
 10
111.98219919068279
 20
-88.03701069170422
 30
0.0
 10
113.2097478343499
 20
-87.91034687570449
 30
0.0
 10
114.4934335714664
 20
-87.86306706653777
 30
0.0
 10
115.86221780121714
 20
-87.81394652414203
 30
0.0
 10
117.33186472763795
 20
-87.85323958993006
 30
0.0
 10
118.67849973511517
 20
-88.007967746865
 30
0.0
 10
119.43702739993958
 20
-88.09583153669668
 30
0.0
 10
120.15624028418655
 20
-88.22376609437744
 30
0.0
 10
120.70028482119154
 20
-88.39391964418814
 30
0.0
 10
121.08215570418204
 20
-88.51295578595696
 30
0.0
 10
121.36844328015583
 20
-88.65299272799903
 30
0.0
 10
121.5039862042009
 20
-88.79953054904067
 30
0.0
 10
121.56813585031996
 20
-88.868567761513
 30
0.0
 10
121.60014044891977
 20
-88.93768976240759
 30
0.0
 10
121.60000000000002
 20
-89.00689655172414
 30
0.0
  0
SPLINE
  5
70
330
17
100
AcDbEntity
  8
VISIBLE
100
AcDbSpline
 70
0
 71
3
 72
11
 73
7
 74
0
 40
0.0
 40
0.0
 40
0.0
 40
0.0
 40
0.4322624012586585
 40
0.4322624012586585
 40
0.4322624012586585
 40
1.0
 40
1.0
 40
1.0
 40
1.0
 10
-109.60000000000002
 20
-89.00689655172414
 30
0.0
 10
-109.5964695042312
 20
-89.1890804825624
 30
0.0
 10
-109.8333824437174
 20
-89.3760125200601
 30
0.0
 10
-110.2490477487596
 20
-89.53337306457095
 30
0.0
 10
-110.79431466504442
 20
-89.74171192158857
 30
0.0
 10
-111.60587494603772
 20
-89.89764656529593
 30
0.0
 10
-112.4718056326373
 20
-90.0
 30
0.0
  0
SPLINE
  5
71
330
17
100
AcDbEntity
  8
VISIBLE
100
AcDbSpline
 70
0
 71
3
 72
11
 73
7
 74
0
 40
0.0
 40
0.0
 40
0.0
 40
0.0
 40
0.15892147992998898
 40
0.15892147992998898
 40
0.15892147992998898
 40
0.24087988484690961
 40
0.24087988484690961
 40
0.24087988484690961
 40
0.24087988484690961
 10
-118.72819436736272
 20
-89.99999999999999
 30
0.0
 10
-119.73603954761855
 20
-89.88030290372886
 30
0.0
 10
-120.63553734989993
 20
-89.69515427026147
 30
0.0
 10
-121.16603634102644
 20
-89.44145028598507
 30
0.0
 10
-121.43732385535871
 20
-89.31116333181878
 30
0.0
 10
-121.60062892453952
 20
-89.16226456446448
 30
0.0
 10
-121.60000000017094
 20
-89.00689655168257
 30
0.0
  0
SPLINE
  5
72
330
17
100
AcDbEntity
  8
VISIBLE
100
AcDbSpline
 70
0
 71
3
 72
23
 73
19
 74
0
 40
0.0
 40
0.0
 40
0.0
 40
0.0
 40
0.09475938734446443
 40
0.09475938734446443
 40
0.09475938734446443
 40
0.21235961649445428
 40
0.21235961649445428
 40
0.21235961649445428
 40
0.4118170644960955
 40
0.4118170644960955
 40
0.4118170644960955
 40
0.7237918948440402
 40
0.7237918948440402
 40
0.7237918948440402
 40
0.8690388124902753
 40
0.8690388124902753
 40
0.8690388124902753
 40
1.0
 40
1.0
 40
1.0
 40
1.0
 10
-121.60000000017094
 20
-89.00689655168259
 30
0.0
 10
-121.60124129100475
 20
-88.87081315636223
 30
0.0
 10
-121.47243319103934
 20
-88.7311044629559
 30
0.0
 10
-121.22809063323078
 20
-88.6035324067262
 30
0.0
 10
-120.9262474451103
 20
-88.44463272597012
 30
0.0
 10
-120.45599420206229
 20
-88.30648089310445
 30
0.0
 10
-119.91397356351229
 20
-88.1980433185249
 30
0.0
 10
-118.98852400902955
 20
-88.01326141097873
 30
0.0
 10
-117.87963454750758
 20
-87.90898688899604
 30
0.0
 10
-116.78329623675027
 20
-87.86596028299093
 30
0.0
 10
-115.06550456191341
 20
-87.80052152635835
 30
0.0
 10
-113.32329735918104
 20
-87.8767862089489
 30
0.0
 10
-111.90013642167358
 20
-88.09070952157273
 30
0.0
 10
-111.24073761182203
 20
-88.19098816350561
 30
0.0
 10
-110.65144326940135
 20
-88.3234068855085
 30
0.0
 10
-110.22535021623432
 20
-88.48958140080177
 30
0.0
 10
-109.84196949091613
 20
-88.63868211021064
 30
0.0
 10
-109.59882302106145
 20
-88.8177122526767
 30
0.0
 10
-109.60000000000002
 20
-89.00689655172414
 30
0.0
  0
SPLINE
  5
73
330
17
100
AcDbEntity
  8
VISIBLE
100
AcDbSpline
 70
0
 71
1
 72
4
 73
2
 74
0
 40
0.0
 40
0.0
 40
1.0
 40
1.0
 10
130.8200247845354
 20
-88.74924557076311
 30
0.0
 10
124.33781279333887
 20
-81.60535049662127
 30
0.0
  0
SPLINE
  5
74
330
17
100
AcDbEntity
  8
VISIBLE
100
AcDbSpline
 70
0
 71
1
 72
4
 73
2
 74
0
 40
0.0
 40
0.0
 40
1.0
 40
1.0
 10
163.62285392808877
 20
-58.0933391167548
 30
0.0
 10
159.09285493787627
 20
-55.61976945047332
 30
0.0
  0
SPLINE
  5
75
330
17
100
AcDbEntity
  8
VISIBLE
100
AcDbSpline
 70
0
 71
3
 72
17
 73
13
 74
0
 40
0.0
 40
0.0
 40
0.0
 40
0.0
 40
0.27877735035685486
 40
0.27877735035685486
 40
0.27877735035685486
 40
0.46480803927605074
 40
0.46480803927605074
 40
0.46480803927605074
 40
0.5790297097601671
 40
0.5790297097601671
 40
0.5790297097601671
 40
1.0
 40
1.0
 40
1.0
 40
1.0
 10
163.16017352849693
 20
-59.85000000000001
 30
0.0
 10
162.9689342394616
 20
-59.85086492730018
 30
0.0
 10
162.82318012601903
 20
-59.797991206701255
 30
0.0
 10
162.7711695406258
 20
-59.67509539561107
 30
0.0
 10
162.73689027236173
 20
-59.59190315064964
 30
0.0
 10
162.739846136948
 20
-59.48645343695663
 30
0.0
 10
162.78003713438451
 20
-59.35874625453203
 30
0.0
 10
162.8042541536641
 20
-59.281265866829926
 30
0.0
 10
162.83884433099553
 20
-59.19929763542838
 30
0.0
 10
162.883807666379
 20
-59.11284156032736
 30
0.0
 10
163.04967415986573
 20
-58.79418483064859
 30
0.0
 10
163.3222482558754
 20
-58.441427431069336
 30
0.0
 10
163.62285392808874
 20
-58.0933391167548
 30
0.0
  0
SPLINE
  5
76
330
17
100
AcDbEntity
  8
VISIBLE
100
AcDbSpline
 70
0
 71
2
 72
6
 73
3
 74
0
 40
0.0
 40
0.0
 40
0.0
 40
1.0
 40
1.0
 40
1.0
 10
166.83993414043195
 20
-59.85
 30
0.0
 10
165.00371257332446
 20
-59.85000000000001
 30
0.0
 10
163.16017352849695
 20
-59.85
 30
0.0
  0
SPLINE
  5
77
330
17
100
AcDbEntity
  8
VISIBLE
100
AcDbSpline
 70
0
 71
1
 72
4
 73
2
 74
0
 40
0.0
 40
0.0
 40
0.09642850971664163
 40
0.09642850971664163
 10
167.66669694801564
 20
-60.301447209252636
 30
0.0
 10
166.83993414043198
 20
-59.85
 30
0.0
  0
SPLINE
  5
78
330
17
100
AcDbEntity
  8
VISIBLE
100
AcDbSpline
 70
0
 71
2
 72
6
 73
3
 74
0
 40
0.0
 40
0.0
 40
0.0
 40
1.0
 40
1.0
 40
1.0
 10
167.68567241503087
 20
-59.85
 30
0.0
 10
167.27388812781345
 20
-59.85000000000001
 30
0.0
 10
166.83993414043192
 20
-59.85
 30
0.0
  0
SPLINE
  5
79
330
17
100
AcDbEntity
  8
VISIBLE
100
AcDbSpline
 70
0
 71
3
 72
8
 73
4
 74
0
 40
0.0
 40
0.0
 40
0.0
 40
0.0
 40
1.0
 40
1.0
 40
1.0
 40
1.0
 10
168.32136753857554
 20
-59.714626719640336
 30
0.0
 10
168.08773199563572
 20
-59.800195444350294
 30
0.0
 10
167.86673167416504
 20
-59.849764943955364
 30
0.0
 10
167.68567241503087
 20
-59.85
 30
0.0
  0
SPLINE
  5
7A
330
17
100
AcDbEntity
  8
VISIBLE
100
AcDbSpline
 70
0
 71
1
 72
4
 73
2
 74
0
 40
0.0
 40
0.0
 40
1.0
 40
1.0
 10
162.78894796223204
 20
-59.70859873512428
 30
0.0
 10
162.83454059365573
 20
-59.71462671964032
 30
0.0
  0
SPLINE
  5
7B
330
17
100
AcDbEntity
  8
VISIBLE
100
AcDbSpline
 70
0
 71
1
 72
4
 73
2
 74
0
 40
0.0
 40
0.0
 40
0.047783740983430294
 40
0.047783740983430294
 10
162.83454059365573
 20
-59.71462671964032
 30
0.0
 10
162.80120466787133
 20
-59.726021108176056
 30
0.0
  0
SPLINE
  5
7C
330
17
100
AcDbEntity
  8
VISIBLE
100
AcDbSpline
 70
0
 71
3
 72
8
 73
4
 74
0
 40
0.0
 40
0.0
 40
0.0
 40
0.0
 40
1.0
 40
1.0
 40
1.0
 40
1.0
 10
168.3213675385756
 20
59.714626719640336
 30
0.0
 10
168.08773199563575
 20
59.800195444350294
 30
0.0
 10
167.86673167416484
 20
59.849764943955364
 30
0.0
 10
167.68567241503072
 20
59.85
 30
0.0
  0
SPLINE
  5
7D
330
17
100
AcDbEntity
  8
VISIBLE
100
AcDbSpline
 70
0
 71
1
 72
4
 73
2
 74
0
 40
0.0
 40
0.0
 40
0.007019763238587238
 40
0.007019763238587238
 10
162.83454059365567
 20
59.71462671964035
 30
0.0
 10
162.788947949239
 20
59.708598728150946
 30
0.0
  0
SPLINE
  5
7E
330
17
100
AcDbEntity
  8
VISIBLE
100
AcDbSpline
 70
0
 71
1
 72
4
 73
2
 74
0
 40
0.0
 40
0.0
 40
0.04778374186436252
 40
0.04778374186436252
 10
162.83454059365567
 20
59.71462671964036
 30
0.0
 10
162.80120466725953
 20
59.72602110838255
 30
0.0
  0
SPLINE
  5
7F
330
17
100
AcDbEntity
  8
VISIBLE
100
AcDbSpline
 70
0
 71
2
 72
6
 73
3
 74
0
 40
0.0
 40
0.0
 40
0.0
 40
1.0
 40
1.0
 40
1.0
 10
167.6856724150307
 20
59.85
 30
0.0
 10
167.27388812781317
 20
59.85000000000001
 30
0.0
 10
166.83993414043195
 20
59.85
 30
0.0
  0
SPLINE
  5
80
330
17
100
AcDbEntity
  8
VISIBLE
100
AcDbSpline
 70
0
 71
1
 72
4
 73
2
 74
0
 40
0.0
 40
0.0
 40
0.0964285097166431
 40
0.0964285097166431
 10
167.6666969480156
 20
60.30144720925264
 30
0.0
 10
166.83993414043192
 20
59.85
 30
0.0
  0
SPLINE
  5
81
330
17
100
AcDbEntity
  8
VISIBLE
100
AcDbSpline
 70
0
 71
2
 72
6
 73
3
 74
0
 40
0.0
 40
0.0
 40
0.0
 40
1.0
 40
1.0
 40
1.0
 10
163.16017352849695
 20
59.85
 30
0.0
 10
165.00369528781437
 20
59.85000000000001
 30
0.0
 10
166.83993414043195
 20
59.85
 30
0.0
  0
SPLINE
  5
82
330
17
100
AcDbEntity
  8
VISIBLE
100
AcDbSpline
 70
0
 71
3
 72
14
 73
10
 74
0
 40
0.0
 40
0.0
 40
0.0
 40
0.0
 40
0.4177145570996358
 40
0.4177145570996358
 40
0.4177145570996358
 40
0.720695123894208
 40
0.720695123894208
 40
0.720695123894208
 40
1.0
 40
1.0
 40
1.0
 40
1.0
 10
163.62285392808874
 20
58.09333911675479
 30
0.0
 10
163.32449446406218
 20
58.43880799304274
 30
0.0
 10
163.05392343194683
 20
58.78873205504566
 30
0.0
 10
162.887576829209
 20
59.10557585180666
 30
0.0
 10
162.76764040663207
 20
59.33395357888711
 30
0.0
 10
162.7122402208105
 20
59.54219953078946
 30
0.0
 10
162.7708977761803
 20
59.67446748809535
 30
0.0
 10
162.8226717474387
 20
59.79780174296145
 30
0.0
 10
162.96860194071954
 20
59.850863153010835
 30
0.0
 10
163.16017352849693
 20
59.849999999999994
 30
0.0
  0
SPLINE
  5
83
330
17
100
AcDbEntity
  8
VISIBLE
100
AcDbSpline
 70
0
 71
1
 72
4
 73
2
 74
0
 40
0.0
 40
0.0
 40
1.0
 40
1.0
 10
163.62285392808877
 20
58.09333911675481
 30
0.0
 10
159.0928549378763
 20
55.619769450473335
 30
0.0
  0
SPLINE
  5
84
330
17
100
AcDbEntity
  8
VISIBLE
100
AcDbSpline
 70
0
 71
1
 72
4
 73
2
 74
0
 40
0.0
 40
0.0
 40
1.0
 40
1.0
 10
130.8200247845354
 20
88.74924557076311
 30
0.0
 10
124.33781279333886
 20
81.60535049662126
 30
0.0
  0
SPLINE
  5
85
330
17
100
AcDbEntity
  8
VISIBLE
100
AcDbSpline
 70
0
 71
3
 72
23
 73
19
 74
0
 40
0.0
 40
0.0
 40
0.0
 40
0.0
 40
0.16199283113801802
 40
0.16199283113801802
 40
0.16199283113801802
 40
0.34031742235306905
 40
0.34031742235306905
 40
0.34031742235306905
 40
0.5348264245295564
 40
0.5348264245295564
 40
0.5348264245295564
 40
0.6450705610425946
 40
0.6450705610425946
 40
0.6450705610425946
 40
0.6860992720503503
 40
0.6860992720503503
 40
0.6860992720503503
 40
0.7590409450125822
 40
0.7590409450125822
 40
0.7590409450125822
 40
0.7590409450125822
 10
-109.60000000000002
 20
89.00689655172414
 30
0.0
 10
-109.59939306569015
 20
88.69575827296804
 30
0.0
 10
-110.24269532444771
 20
88.4245005041696
 30
0.0
 10
-111.09244308406223
 20
88.2387850056858
 30
0.0
 10
-112.03737607682731
 20
88.03144985073352
 30
0.0
 10
-113.23797850994158
 20
87.90927593579487
 30
0.0
 10
-114.49343357146235
 20
87.86306706653792
 30
0.0
 10
-115.86221780122362
 20
87.81394652414158
 30
0.0
 10
-117.33186472765735
 20
87.85323958993048
 30
0.0
 10
-118.67849973514328
 20
88.00796774686823
 30
0.0
 10
-119.43702739996199
 20
88.09583153670043
 30
0.0
 10
-120.15624028420277
 20
88.22376609438118
 30
0.0
 10
-120.70028482120213
 20
88.39391964419146
 30
0.0
 10
-120.90357510630514
 20
88.45729307023107
 30
0.0
 10
-121.07616482694796
 20
88.5254206334268
 30
0.0
 10
-121.21805398313052
 20
88.59830233377865
 30
0.0
 10
-121.46879622922553
 20
88.72728838579745
 30
0.0
 10
-121.60130850932768
 20
88.86894968441497
 30
0.0
 10
-121.6000000001566
 20
89.00689655168622
 30
0.0
  0
SPLINE
  5
86
330
17
100
AcDbEntity
  8
VISIBLE
100
AcDbSpline
 70
0
 71
3
 72
11
 73
7
 74
0
 40
0.0
 40
0.0
 40
0.0
 40
0.0
 40
0.34081760877089357
 40
0.34081760877089357
 40
0.34081760877089357
 40
1.0
 40
1.0
 40
1.0
 40
1.0
 10
-121.6000000001566
 20
89.00689655168622
 30
0.0
 10
-121.60063172568762
 20
89.16252633746137
 30
0.0
 10
-121.43677299959887
 20
89.31165995850024
 30
0.0
 10
-121.16467220960845
 20
89.44210707597233
 30
0.0
 10
-120.63395507307627
 20
89.69547779491482
 30
0.0
 10
-119.73518127634637
 20
89.88040482544649
 30
0.0
 10
-118.72819436736278
 20
89.99999999999999
 30
0.0
  0
SPLINE
  5
87
330
17
100
AcDbEntity
  8
VISIBLE
100
AcDbSpline
 70
0
 71
3
 72
11
 73
7
 74
0
 40
0.0
 40
0.0
 40
0.0
 40
0.0
 40
0.5671432116630463
 40
0.5671432116630463
 40
0.5671432116630463
 40
1.0
 40
1.0
 40
1.0
 40
1.0
 10
-112.47180563263723
 20
90.0
 30
0.0
 10
-111.6068487044863
 20
89.89776003227946
 30
0.0
 10
-110.79617187261047
 20
89.74207044645657
 30
0.0
 10
-110.25089645622684
 20
89.53407938711949
 30
0.0
 10
-109.83421656721886
 20
89.37661543826242
 30
0.0
 10
-109.59642142353187
 20
89.18935748471843
 30
0.0
 10
-109.60000000000002
 20
89.00689655172414
 30
0.0
  0
SPLINE
  5
88
330
17
100
AcDbEntity
  8
VISIBLE
100
AcDbSpline
 70
0
 71
3
 72
23
 73
19
 74
0
 40
0.0
 40
0.0
 40
0.0
 40
0.0
 40
0.03756531532855595
 40
0.03756531532855595
 40
0.03756531532855595
 40
0.11536474282106086
 40
0.11536474282106086
 40
0.11536474282106086
 40
0.22940227052339046
 40
0.22940227052339046
 40
0.22940227052339046
 40
0.42595723142709174
 40
0.42595723142709174
 40
0.42595723142709174
 40
0.611913974054001
 40
0.611913974054001
 40
0.611913974054001
 40
0.7737168292600901
 40
0.7737168292600901
 40
0.7737168292600901
 40
0.7737168292600901
 10
121.60000000000001
 20
89.00689655172414
 30
0.0
 10
121.60014185797661
 20
88.93685290197514
 30
0.0
 10
121.56736505864193
 20
88.86690879693731
 30
0.0
 10
121.50166960199597
 20
88.79706423661067
 30
0.0
 10
121.366623212005
 20
88.65290704387688
 30
0.0
 10
121.0858378629637
 20
88.51511732150533
 30
0.0
 10
120.71186616509671
 20
88.3975599900377
 30
0.0
 10
120.16237862967174
 20
88.22429350729603
 30
0.0
 10
119.43142020445376
 20
88.09449324199234
 30
0.0
 10
118.66094755590221
 20
88.00594051050089
 30
0.0
 10
117.3246794096854
 20
87.85355572097633
 30
0.0
 10
115.86864038313794
 20
87.81450004013666
 30
0.0
 10
114.51083734034606
 20
87.86243877591568
 30
0.0
 10
113.22598013984954
 20
87.90899631433678
 30
0.0
 10
111.99677495343903
 20
88.0350213051985
 30
0.0
 10
111.04062258350129
 20
88.25037937243914
 30
0.0
 10
110.21687228225464
 20
88.43534822782395
 30
0.0
 10
109.59921890819946
 20
88.70229259915101
 30
0.0
 10
109.60000000309823
 20
89.00689655102143
 30
0.0
  0
SPLINE
  5
89
330
17
100
AcDbEntity
  8
VISIBLE
100
AcDbSpline
 70
0
 71
3
 72
11
 73
7
 74
0
 40
0.0
 40
0.0
 40
0.0
 40
0.0
 40
0.4322599664807666
 40
0.4322599664807666
 40
0.4322599664807666
 40
1.0
 40
1.0
 40
1.0
 40
1.0
 10
109.60000000309822
 20
89.00689655102141
 30
0.0
 10
109.59647212498794
 20
89.18908605172359
 30
0.0
 10
109.83338786570714
 20
89.37601399242874
 30
0.0
 10
110.24904774869721
 20
89.53337306454708
 30
0.0
 10
110.79431466498133
 20
89.74171192157644
 30
0.0
 10
111.60587494600472
 20
89.89764656529202
 30
0.0
 10
112.47180563263724
 20
90.0
 30
0.0
  0
SPLINE
  5
8A
330
17
100
AcDbEntity
  8
VISIBLE
100
AcDbSpline
 70
0
 71
3
 72
11
 73
7
 74
0
 40
0.0
 40
0.0
 40
0.0
 40
0.0
 40
0.6278848852295787
 40
0.6278848852295787
 40
0.6278848852295787
 40
1.0
 40
1.0
 40
1.0
 40
1.0
 10
118.72819436736279
 20
90.0
 30
0.0
 10
119.68803324498717
 20
89.88600913563262
 30
0.0
 10
120.54711440730861
 20
89.71303995337911
 30
0.0
 10
121.08713303695426
 20
89.47769249986753
 30
0.0
 10
121.40511743052234
 20
89.33879982742336
 30
0.0
 10
121.60079348809835
 20
89.17690786209468
 30
0.0
 10
121.60000000000001
 20
89.00689655172413
 30
0.0
  0
SPLINE
  5
8B
330
17
100
AcDbEntity
  8
VISIBLE
100
AcDbSpline
 70
0
 71
1
 72
4
 73
2
 74
0
 40
0.0
 40
0.0
 40
1.0
 40
1.0
 10
-130.82002478453535
 20
88.74924557076311
 30
0.0
 10
-124.33781279333886
 20
81.60535049662124
 30
0.0
  0
SPLINE
  5
8C
330
17
100
AcDbEntity
  8
VISIBLE
100
AcDbSpline
 70
0
 71
1
 72
4
 73
2
 74
0
 40
0.0
 40
0.0
 40
1.0
 40
1.0
 10
-167.6666969480156
 20
60.30144720925264
 30
0.0
 10
-159.09285493787627
 20
55.619769450473335
 30
0.0
  0
SPLINE
  5
8D
330
17
100
AcDbEntity
  8
VISIBLE
100
AcDbSpline
 70
0
 71
3
 72
11
 73
7
 74
0
 40
0.0
 40
0.0
 40
0.0
 40
0.0
 40
0.4270658331024816
 40
0.4270658331024816
 40
0.4270658331024816
 40
1.0
 40
1.0
 40
1.0
 40
1.0
 10
165.45047968240888
 20
-53.01636180506725
 30
0.0
 10
165.45640264998386
 20
-53.93129117815805
 30
0.0
 10
165.2899101409062
 20
-54.82691841656199
 30
0.0
 10
165.02921279846433
 20
-55.5954373642514
 30
0.0
 10
164.67757398539172
 20
-56.632591943023236
 30
0.0
 10
164.17157557332868
 20
-57.45875001600848
 30
0.0
 10
163.62285392808874
 20
-58.09333911675481
 30
0.0
  0
SPLINE
  5
8E
330
17
100
AcDbEntity
  8
VISIBLE
100
AcDbSpline
 70
0
 71
1
 72
4
 73
2
 74
0
 40
0.0
 40
0.0
 40
1.0
 40
1.0
 10
165.45002693965517
 20
52.85000000000001
 30
0.0
 10
165.4504796824089
 20
53.016361805067234
 30
0.0
  0
SPLINE
  5
8F
330
17
100
AcDbEntity
  8
VISIBLE
100
AcDbSpline
 70
0
 71
1
 72
4
 73
2
 74
0
 40
0.0
 40
0.0
 40
1.0
 40
1.0
 10
165.45002693965517
 20
52.85
 30
0.0
 10
165.45002693965517
 20
-52.85
 30
0.0
  0
SPLINE
  5
90
330
17
100
AcDbEntity
  8
VISIBLE
100
AcDbSpline
 70
0
 71
1
 72
4
 73
2
 74
0
 40
0.0
 40
0.0
 40
1.0
 40
1.0
 10
165.4504796824089
 20
-53.01636180506726
 30
0.0
 10
165.45002693965517
 20
-52.85000000000001
 30
0.0
  0
SPLINE
  5
91
330
17
100
AcDbEntity
  8
VISIBLE
100
AcDbSpline
 70
0
 71
3
 72
11
 73
7
 74
0
 40
0.0
 40
0.0
 40
0.0
 40
0.0
 40
0.572936014259847
 40
0.572936014259847
 40
0.572936014259847
 40
1.0
 40
1.0
 40
1.0
 40
1.0
 10
163.62285392808877
 20
58.093339116754805
 30
0.0
 10
164.17157733711514
 20
57.45874796842083
 30
0.0
 10
164.67757731950968
 20
56.63258653164543
 30
0.0
 10
165.02921620909584
 20
55.595427256802125
 30
0.0
 10
165.2899117421846
 20
54.826910100545724
 30
0.0
 10
165.45640258584515
 20
53.931287170083856
 30
0.0
 10
165.45047968240897
 20
53.01636180506725
 30
0.0
  0
LINE
  5
92
330
17
100
AcDbEntity
  8
VISIBLE
100
AcDbLine
 10
-104.4679863326941
 20
-69.0
 30
0.0
 11
104.4679863326941
 21
-69.0
 31
0.0
  0
ARC
  5
93
330
17
100
AcDbEntity
  8
VISIBLE
100
AcDbCircle
 10
134.27999999999997
 20
-42.02196083495955
 30
0.0
 40
5.5200000000000005
100
AcDbArc
 50
-54.254481033677564
 51
0.0
  0
SPLINE
  5
94
330
17
100
AcDbEntity
  8
VISIBLE
100
AcDbSpline
 70
0
 71
1
 72
4
 73
2
 74
0
 40
0.0
 40
0.0
 40
0.7277687083644722
 40
0.7277687083644722
 10
137.50470777779918
 20
-46.50210142960627
 30
0.0
 10
157.2454163367389
 20
-55.12521480721545
 30
0.0
  0
SPLINE
  5
95
330
17
100
AcDbEntity
  8
VISIBLE
100
AcDbSpline
 70
0
 71
1
 72
4
 73
2
 74
0
 40
0.0
 40
0.0
 40
0.7138561905160824
 40
0.7138561905160824
 10
107.69269411049328
 20
-67.9601405946467
 30
0.0
 10
122.56682032208359
 20
-80.67923949400826
 30
0.0
  0
LINE
  5
96
330
17
100
AcDbEntity
  8
VISIBLE
100
AcDbLine
 10
107.69269411049329
 20
-67.96014059464672
 30
0.0
 11
137.50470777779918
 21
-46.50210142960627
 31
0.0
  0
LINE
  5
97
330
17
100
AcDbEntity
  8
VISIBLE
100
AcDbLine
 10
139.79999999999998
 20
-42.02196083495955
 30
0.0
 11
139.79999999999998
 21
42.021960834959565
 31
0.0
  0
ARC
  5
98
330
17
100
AcDbEntity
  8
VISIBLE
100
AcDbCircle
 10
134.27999999999997
 20
42.02196083495956
 30
0.0
 40
5.5200000000000005
100
AcDbArc
 50
0.0
 51
54.254481033677614
  0
SPLINE
  5
99
330
17
100
AcDbEntity
  8
VISIBLE
100
AcDbSpline
 70
0
 71
1
 72
4
 73
2
 74
0
 40
0.0
 40
0.0
 40
0.7277687083644724
 40
0.7277687083644724
 10
137.50470777779915
 20
46.502101429606284
 30
0.0
 10
157.24541633673894
 20
55.125214807215464
 30
0.0
  0
SPLINE
  5
9A
330
17
100
AcDbEntity
  8
VISIBLE
100
AcDbSpline
 70
0
 71
1
 72
4
 73
2
 74
0
 40
0.0
 40
0.0
 40
0.7138561894392439
 40
0.7138561894392439
 10
107.69269411049328
 20
67.96014059464673
 30
0.0
 10
122.56682029964627
 20
80.67923947482174
 30
0.0
  0
LINE
  5
9B
330
17
100
AcDbEntity
  8
VISIBLE
100
AcDbLine
 10
137.50470777779915
 20
46.50210142960628
 30
0.0
 11
107.69269411049328
 21
67.96014059464673
 31
0.0
  0
LINE
  5
9C
330
17
100
AcDbEntity
  8
VISIBLE
100
AcDbLine
 10
104.4679863326941
 20
69.0
 30
0.0
 11
-104.4679863326941
 21
69.0
 31
0.0
  0
LINE
  5
9D
330
17
100
AcDbEntity
  8
VISIBLE
100
AcDbLine
 10
-137.5047077777992
 20
-46.502101429606235
 30
0.0
 11
-107.69269411049328
 21
-67.96014059464673
 31
0.0
  0
SPLINE
  5
9E
330
17
100
AcDbEntity
  8
VISIBLE
100
AcDbSpline
 70
0
 71
1
 72
4
 73
2
 74
0
 40
0.0
 40
0.0
 40
0.7138561894122752
 40
0.7138561894122752
 10
-107.69269411049328
 20
-67.96014059464673
 30
0.0
 10
-122.56682029908433
 20
-80.67923947434123
 30
0.0
  0
SPLINE
  5
9F
330
17
100
AcDbEntity
  8
VISIBLE
100
AcDbSpline
 70
0
 71
1
 72
4
 73
2
 74
0
 40
0.0
 40
0.0
 40
0.7277687083644716
 40
0.7277687083644716
 10
-137.5047077777992
 20
-46.502101429606235
 30
0.0
 10
-157.2454163367389
 20
-55.125214807215414
 30
0.0
  0
ARC
  5
A0
330
17
100
AcDbEntity
  8
VISIBLE
100
AcDbCircle
 10
-134.28
 20
-42.02196083495952
 30
0.0
 40
5.5200000000000005
100
AcDbArc
 50
-180.0
 51
-125.74551896632263
  0
LINE
  5
A1
330
17
100
AcDbEntity
  8
VISIBLE
100
AcDbLine
 10
-139.79999999999998
 20
42.021960834959536
 30
0.0
 11
-139.79999999999998
 21
-42.02196083495952
 31
0.0
  0
ARC
  5
A2
330
17
100
AcDbEntity
  8
VISIBLE
100
AcDbCircle
 10
-134.28
 20
42.021960834959536
 30
0.0
 40
5.5200000000000005
100
AcDbArc
 50
125.74551896632259
 51
180.0
  0
SPLINE
  5
A3
330
17
100
AcDbEntity
  8
VISIBLE
100
AcDbSpline
 70
0
 71
1
 72
4
 73
2
 74
0
 40
0.0
 40
0.0
 40
0.7277687083644727
 40
0.7277687083644727
 10
-137.5047077777992
 20
46.50210142960624
 30
0.0
 10
-157.24541633673894
 20
55.125214807215436
 30
0.0
  0
LINE
  5
A4
330
17
100
AcDbEntity
  8
VISIBLE
100
AcDbLine
 10
-107.69269411049328
 20
67.96014059464673
 30
0.0
 11
-137.5047077777992
 21
46.50210142960624
 31
0.0
  0
SPLINE
  5
A5
330
17
100
AcDbEntity
  8
VISIBLE
100
AcDbSpline
 70
0
 71
1
 72
4
 73
2
 74
0
 40
0.0
 40
0.0
 40
0.7138561894392439
 40
0.7138561894392439
 10
-107.6926941104933
 20
67.96014059464675
 30
0.0
 10
-122.56682029964627
 20
80.67923947482173
 30
0.0
  0
ARC
  5
A6
330
17
100
AcDbEntity
  8
VISIBLE
100
AcDbCircle
 10
-104.4679863326941
 20
63.480000000000004
 30
0.0
 40
5.5200000000000005
100
AcDbArc
 50
90.00000000000003
 51
125.74551896632236
  0
ARC
  5
A7
330
17
100
AcDbEntity
  8
VISIBLE
100
AcDbCircle
 10
104.4679863326941
 20
63.480000000000004
 30
0.0
 40
5.5200000000000005
100
AcDbArc
 50
54.25448103367766
 51
90.0
  0
ARC
  5
A8
330
17
100
AcDbEntity
  8
VISIBLE
100
AcDbCircle
 10
104.4679863326941
 20
-63.48
 30
0.0
 40
5.5200000000000005
100
AcDbArc
 50
-90.0
 51
-54.254481033677614
  0
ARC
  5
A9
330
17
100
AcDbEntity
  8
VISIBLE
100
AcDbCircle
 10
-104.4679863326941
 20
-63.48
 30
0.0
 40
5.5200000000000005
100
AcDbArc
 50
-125.74551896632238
 51
-90.0
  0
SPLINE
  5
AA
330
17
100
AcDbEntity
  8
VISIBLE
100
AcDbSpline
 70
0
 71
1
 72
4
 73
2
 74
0
 40
0.0
 40
0.0
 40
1.0
 40
1.0
 10
-127.15332783651974
 20
-90.0
 30
0.0
 10
-120.74495785546253
 20
-82.80000000000001
 30
0.0
  0
SPLINE
  5
AB
330
17
100
AcDbEntity
  8
VISIBLE
100
AcDbSpline
 70
0
 71
1
 72
4
 73
2
 74
0
 40
0.0
 40
0.0
 40
1.0
 40
1.0
 10
-170.0
 20
-55.55220163848952
 30
0.0
 10
-161.5
 20
-50.81441895385202
 30
0.0
  0
SPLINE
  5
AC
330
17
100
AcDbEntity
  8
VISIBLE
100
AcDbSpline
 70
0
 71
1
 72
4
 73
2
 74
0
 40
0.0
 40
0.0
 40
1.0
 40
1.0
 10
127.1533278365198
 20
-90.0
 30
0.0
 10
120.74495785546259
 20
-82.8
 30
0.0
  0
SPLINE
  5
AD
330
17
100
AcDbEntity
  8
VISIBLE
100
AcDbSpline
 70
0
 71
1
 72
4
 73
2
 74
0
 40
0.0
 40
0.0
 40
1.0
 40
1.0
 10
127.15332783651976
 20
90.0
 30
0.0
 10
120.74495785546259
 20
82.8
 30
0.0
  0
SPLINE
  5
AE
330
17
100
AcDbEntity
  8
VISIBLE
100
AcDbSpline
 70
0
 71
1
 72
4
 73
2
 74
0
 40
0.0
 40
0.0
 40
1.0
 40
1.0
 10
-127.15332783651974
 20
90.0
 30
0.0
 10
-120.7449578554626
 20
82.80000000000001
 30
0.0
  0
SPLINE
  5
AF
330
17
100
AcDbEntity
  8
VISIBLE
100
AcDbSpline
 70
0
 71
1
 72
4
 73
2
 74
0
 40
0.0
 40
0.0
 40
1.0
 40
1.0
 10
-170.0
 20
55.55220163848954
 30
0.0
 10
-161.50000000000003
 20
50.814418953852055
 30
0.0
  0
SPLINE
  5
B0
330
17
100
AcDbEntity
  8
VISIBLE
100
AcDbSpline
 70
0
 71
1
 72
4
 73
2
 74
0
 40
0.0
 40
0.0
 40
1.0
 40
1.0
 10
165.45047968240894
 20
-53.016361805067255
 30
0.0
 10
161.50000000000003
 20
-50.81441895385208
 30
0.0
  0
SPLINE
  5
B1
330
17
100
AcDbEntity
  8
VISIBLE
100
AcDbSpline
 70
0
 71
1
 72
4
 73
2
 74
0
 40
0.0
 40
0.0
 40
1.0
 40
1.0
 10
165.45047968240888
 20
53.01636180506725
 30
0.0
 10
161.5
 20
50.81441895385206
 30
0.0
  0
SPLINE
  5
B2
330
17
100
AcDbEntity
  8
VISIBLE
100
AcDbSpline
 70
0
 71
1
 72
4
 73
2
 74
0
 40
0.0
 40
0.0
 40
0.6848896434634978
 40
0.6848896434634978
 10
-104.4679863326941
 20
-69.00000000000001
 30
0.0
 10
-118.46119300819664
 20
-81.32801358234296
 30
0.0
  0
SPLINE
  5
B3
330
17
100
AcDbEntity
  8
VISIBLE
100
AcDbSpline
 70
0
 71
1
 72
4
 73
2
 74
0
 40
0.0
 40
0.0
 40
0.6848896434634978
 40
0.6848896434634978
 10
104.4679863326941
 20
-69.0
 30
0.0
 10
118.4611930081967
 20
-81.32801358234296
 30
0.0
  0
SPLINE
  5
B4
330
17
100
AcDbEntity
  8
VISIBLE
100
AcDbSpline
 70
0
 71
1
 72
4
 73
2
 74
0
 40
0.0
 40
0.0
 40
0.7515160610454471
 40
0.7515160610454471
 10
139.79999999999998
 20
-42.02196083495954
 30
0.0
 10
160.24123686043615
 20
-50.70290900833261
 30
0.0
  0
SPLINE
  5
B5
330
17
100
AcDbEntity
  8
VISIBLE
100
AcDbSpline
 70
0
 71
1
 72
4
 73
2
 74
0
 40
0.0
 40
0.0
 40
0.7515160610454501
 40
0.7515160610454501
 10
139.79999999999998
 20
42.021960834959565
 30
0.0
 10
160.24123686043623
 20
50.70290900833263
 30
0.0
  0
SPLINE
  5
B6
330
17
100
AcDbEntity
  8
VISIBLE
100
AcDbSpline
 70
0
 71
1
 72
4
 73
2
 74
0
 40
0.0
 40
0.0
 40
0.6848896434634955
 40
0.6848896434634955
 10
104.46798633269412
 20
69.0
 30
0.0
 10
118.46119300819662
 20
81.32801358234292
 30
0.0
  0
SPLINE
  5
B7
330
17
100
AcDbEntity
  8
VISIBLE
100
AcDbSpline
 70
0
 71
1
 72
4
 73
2
 74
0
 40
0.0
 40
0.0
 40
0.6848896434634955
 40
0.6848896434634955
 10
-104.4679863326941
 20
69.0
 30
0.0
 10
-118.4611930081966
 20
81.32801358234292
 30
0.0
  0
SPLINE
  5
B8
330
17
100
AcDbEntity
  8
VISIBLE
100
AcDbSpline
 70
0
 71
1
 72
4
 73
2
 74
0
 40
0.0
 40
0.0
 40
0.7515160610454462
 40
0.7515160610454462
 10
-139.79999999999998
 20
-42.02196083495952
 30
0.0
 10
-160.24123686043612
 20
-50.70290900833258
 30
0.0
  0
SPLINE
  5
B9
330
17
100
AcDbEntity
  8
VISIBLE
100
AcDbSpline
 70
0
 71
1
 72
4
 73
2
 74
0
 40
0.0
 40
0.0
 40
0.7515160610454289
 40
0.7515160610454289
 10
-139.79999999999998
 20
42.02196083495954
 30
0.0
 10
-160.24123686043563
 20
50.70290900833238
 30
0.0
  0
LINE
  5
BA
330
17
100
AcDbEntity
  8
HIDDEN
100
AcDbLine
 10
-140.4521689947505
 20
-48.52634632738932
 30
0.0
 11
-110.05045222730945
 21
-70.8805498328607
 31
0.0
  0
SPLINE
  5
BB
330
17
100
AcDbEntity
  8
HIDDEN
100
AcDbSpline
 70
0
 71
1
 72
4
 73
2
 74
0
 40
0.0
 40
0.0
 40
1.0
 40
1.0
 10
-110.05045222730945
 20
-70.8805498328607
 30
0.0
 10
-130.82002478453538
 20
-88.74924557076312
 30
0.0
  0
SPLINE
  5
BC
330
17
100
AcDbEntity
  8
HIDDEN
100
AcDbSpline
 70
0
 71
1
 72
4
 73
2
 74
0
 40
0.0
 40
0.0
 40
1.0
 40
1.0
 10
-140.4521689947505
 20
-48.52634632738932
 30
0.0
 10
-167.6666969480156
 20
-60.30144720925264
 30
0.0
  0
ARC
  5
BD
330
17
100
AcDbEntity
  8
HIDDEN
100
AcDbCircle
 10
-106.63828323255893
 20
-66.24000000000001
 30
0.0
 40
5.76
100
AcDbArc
 50
-126.32682595212033
 51
-90.0
  0
LINE
  5
BE
330
17
100
AcDbEntity
  8
HIDDEN
100
AcDbLine
 10
-106.63828323255893
 20
-72.0
 30
0.0
 11
106.63828323255896
 21
-72.0
 31
0.0
  0
ARC
  5
BF
330
17
100
AcDbEntity
  8
HIDDEN
100
AcDbCircle
 10
106.63828323255895
 20
-66.24000000000001
 30
0.0
 40
5.76
100
AcDbArc
 50
-90.0
 51
-53.67317404787977
  0
LINE
  5
C0
330
17
100
AcDbEntity
  8
HIDDEN
100
AcDbLine
 10
110.05045222730945
 20
-70.8805498328607
 30
0.0
 11
140.4521689947505
 21
-48.526346327389334
 31
0.0
  0
ARC
  5
C1
330
17
100
AcDbEntity
  8
HIDDEN
100
AcDbCircle
 10
137.04
 20
-43.885796494528655
 30
0.0
 40
5.76
100
AcDbArc
 50
-53.67317404787977
 51
0.0
  0
LINE
  5
C2
330
17
100
AcDbEntity
  8
HIDDEN
100
AcDbLine
 10
142.79999999999998
 20
-43.885796494528655
 30
0.0
 11
142.79999999999998
 21
43.885796494528655
 31
0.0
  0
ARC
  5
C3
330
17
100
AcDbEntity
  8
HIDDEN
100
AcDbCircle
 10
137.04
 20
43.885796494528655
 30
0.0
 40
5.76
100
AcDbArc
 50
0.0
 51
53.67317404787977
  0
LINE
  5
C4
330
17
100
AcDbEntity
  8
HIDDEN
100
AcDbLine
 10
140.45216899475048
 20
48.52634632738934
 30
0.0
 11
110.05045222730945
 21
70.8805498328607
 31
0.0
  0
ARC
  5
C5
330
17
100
AcDbEntity
  8
HIDDEN
100
AcDbCircle
 10
106.63828323255896
 20
66.24000000000001
 30
0.0
 40
5.76
100
AcDbArc
 50
53.67317404787977
 51
90.0
  0
LINE
  5
C6
330
17
100
AcDbEntity
  8
HIDDEN
100
AcDbLine
 10
106.63828323255896
 20
72.0
 30
0.0
 11
-106.63828323255893
 21
72.0
 31
0.0
  0
ARC
  5
C7
330
17
100
AcDbEntity
  8
HIDDEN
100
AcDbCircle
 10
-106.63828323255893
 20
66.24000000000001
 30
0.0
 40
5.76
100
AcDbArc
 50
90.0
 51
126.32682595212033
  0
LINE
  5
C8
330
17
100
AcDbEntity
  8
HIDDEN
100
AcDbLine
 10
-110.05045222730945
 20
70.8805498328607
 30
0.0
 11
-140.4521689947505
 21
48.52634632738931
 31
0.0
  0
ARC
  5
C9
330
17
100
AcDbEntity
  8
HIDDEN
100
AcDbCircle
 10
-137.04
 20
43.885796494528634
 30
0.0
 40
5.76
100
AcDbArc
 50
126.32682595212033
 51
180.0
  0
LINE
  5
CA
330
17
100
AcDbEntity
  8
HIDDEN
100
AcDbLine
 10
-142.79999999999998
 20
43.885796494528634
 30
0.0
 11
-142.79999999999998
 21
-43.88579649452863
 31
0.0
  0
ARC
  5
CB
330
17
100
AcDbEntity
  8
HIDDEN
100
AcDbCircle
 10
-137.04
 20
-43.88579649452863
 30
0.0
 40
5.76
100
AcDbArc
 50
-180.0
 51
-126.32682595212033
  0
SPLINE
  5
CC
330
17
100
AcDbEntity
  8
HIDDEN
100
AcDbSpline
 70
0
 71
1
 72
4
 73
2
 74
0
 40
0.0
 40
0.0
 40
1.0
 40
1.0
 10
110.05045222730946
 20
-70.8805498328607
 30
0.0
 10
130.8200247845354
 20
-88.74924557076311
 30
0.0
  0
SPLINE
  5
CD
330
17
100
AcDbEntity
  8
HIDDEN
100
AcDbSpline
 70
0
 71
1
 72
4
 73
2
 74
0
 40
0.0
 40
0.0
 40
1.0
 40
1.0
 10
140.4521689947505
 20
-48.526346327389334
 30
0.0
 10
167.66669694801564
 20
-60.301447209252636
 30
0.0
  0
SPLINE
  5
CE
330
17
100
AcDbEntity
  8
HIDDEN
100
AcDbSpline
 70
0
 71
3
 72
8
 73
4
 74
0
 40
0.0
 40
0.0
 40
0.0
 40
0.0
 40
0.32536711996497475
 40
0.32536711996497475
 40
0.32536711996497475
 40
0.32536711996497475
 10
164.30789365843188
 20
-53.11078918616449
 30
0.0
 10
164.3546622767387
 20
-54.35943554219129
 30
0.0
 10
164.36216493408756
 20
-55.61014232651003
 30
0.0
 10
164.59250178974114
 20
-56.63851561994689
 30
0.0
  0
SPLINE
  5
CF
330
17
100
AcDbEntity
  8
HIDDEN
100
AcDbSpline
 70
0
 71
2
 72
6
 73
3
 74
0
 40
0.0
 40
0.0
 40
0.0
 40
1.0
 40
1.0
 40
1.0
 10
164.30297619047616
 20
-52.85
 30
0.0
 10
164.30296651645222
 20
-52.979913819446075
 30
0.0
 10
164.30789365843194
 20
-53.11078918616447
 30
0.0
  0
SPLINE
  5
D0
330
17
100
AcDbEntity
  8
HIDDEN
100
AcDbSpline
 70
0
 71
1
 72
4
 73
2
 74
0
 40
0.0
 40
0.0
 40
1.0
 40
1.0
 10
164.3029761904762
 20
52.85
 30
0.0
 10
164.3029761904762
 20
-52.85
 30
0.0
  0
SPLINE
  5
D1
330
17
100
AcDbEntity
  8
HIDDEN
100
AcDbSpline
 70
0
 71
2
 72
6
 73
3
 74
0
 40
0.0
 40
0.0
 40
0.0
 40
1.0
 40
1.0
 40
1.0
 10
164.30789365843194
 20
53.11078918616446
 30
0.0
 10
164.3029669389727
 20
52.979921884490345
 30
0.0
 10
164.3029761904762
 20
52.85000000000001
 30
0.0
  0
SPLINE
  5
D2
330
17
100
AcDbEntity
  8
HIDDEN
100
AcDbSpline
 70
0
 71
3
 72
8
 73
4
 74
0
 40
0.0
 40
0.0
 40
0.0
 40
0.0
 40
1.0
 40
1.0
 40
1.0
 40
1.0
 10
164.59250178984692
 20
56.638515619734555
 30
0.0
 10
164.36216495888934
 20
55.610142469289286
 30
0.0
 10
164.35466225765822
 20
54.359435406148165
 30
0.0
 10
164.30789365843194
 20
53.11078918616447
 30
0.0
  0
SPLINE
  5
D3
330
17
100
AcDbEntity
  8
HIDDEN
100
AcDbSpline
 70
0
 71
1
 72
4
 73
2
 74
0
 40
0.0
 40
0.0
 40
1.0
 40
1.0
 10
140.4521689947505
 20
48.52634632738935
 30
0.0
 10
167.6666969480156
 20
60.30144720925264
 30
0.0
  0
SPLINE
  5
D4
330
17
100
AcDbEntity
  8
HIDDEN
100
AcDbSpline
 70
0
 71
1
 72
4
 73
2
 74
0
 40
0.0
 40
0.0
 40
1.0
 40
1.0
 10
110.05045222730945
 20
70.8805498328607
 30
0.0
 10
130.8200247845354
 20
88.74924557076311
 30
0.0
  0
SPLINE
  5
D5
330
17
100
AcDbEntity
  8
HIDDEN
100
AcDbSpline
 70
0
 71
1
 72
4
 73
2
 74
0
 40
0.0
 40
0.0
 40
1.0
 40
1.0
 10
-110.05045222730945
 20
70.8805498328607
 30
0.0
 10
-130.82002478453535
 20
88.74924557076311
 30
0.0
  0
SPLINE
  5
D6
330
17
100
AcDbEntity
  8
HIDDEN
100
AcDbSpline
 70
0
 71
1
 72
4
 73
2
 74
0
 40
0.0
 40
0.0
 40
1.0
 40
1.0
 10
-140.4521689947505
 20
48.52634632738931
 30
0.0
 10
-167.6666969480156
 20
60.30144720925264
 30
0.0
  0
LINE
  5
D7
330
17
100
AcDbEntity
  8
HIDDEN
100
AcDbLine
 10
-109.60000000000001
 20
-86.21765704584041
 30
0.0
 11
-109.60000000000001
 21
-89.00689655172413
 31
0.0
  0
SPLINE
  5
D8
330
17
100
AcDbEntity
  8
HIDDEN
100
AcDbSpline
 70
0
 71
3
 72
14
 73
10
 74
0
 40
0.0
 40
0.0
 40
0.0
 40
0.0
 40
0.4054360577046934
 40
0.4054360577046934
 40
0.4054360577046934
 40
0.5697774450926825
 40
0.5697774450926825
 40
0.5697774450926825
 40
1.0
 40
1.0
 40
1.0
 40
1.0
 10
-109.60000000000002
 20
-86.2176570458404
 30
0.0
 10
-109.59714037273243
 20
-86.35422779374932
 30
0.0
 10
-109.81013638389909
 20
-86.49328080898513
 30
0.0
 10
-110.18261988093872
 20
-86.61175401495848
 30
0.0
 10
-110.33376897845935
 20
-86.65999380403846
 30
0.0
 10
-110.50580181957719
 20
-86.70490201741545
 30
0.0
 10
-110.69871840429181
 20
-86.74647865508933
 30
0.0
 10
-111.2019191030545
 20
-86.85526659606647
 30
0.0
 10
-111.81923705718702
 20
-86.93906825083506
 30
0.0
 10
-112.4718056326373
 20
-87.0
 30
0.0
  0
SPLINE
  5
D9
330
17
100
AcDbEntity
  8
HIDDEN
100
AcDbSpline
 70
0
 71
3
 72
11
 73
7
 74
0
 40
0.0
 40
0.0
 40
0.0
 40
0.0
 40
0.5921222874482749
 40
0.5921222874482749
 40
0.5921222874482749
 40
1.0
 40
1.0
 40
1.0
 40
1.0
 10
-112.4718056326373
 20
-86.99999999999999
 30
0.0
 10
-113.4044988554756
 20
-86.57265273228427
 30
0.0
 10
-114.55805335761485
 20
-86.29597447161599
 30
0.0
 10
-115.8961309025599
 20
-86.34219516208714
 30
0.0
 10
-116.81222519007909
 20
-86.37326274296089
 30
0.0
 10
-117.83046807209223
 20
-86.58373266225729
 30
0.0
 10
-118.72819436736273
 20
-86.99999999999999
 30
0.0
  0
SPLINE
  5
DA
330
17
100
AcDbEntity
  8
HIDDEN
100
AcDbSpline
 70
0
 71
3
 72
11
 73
7
 74
0
 40
0.0
 40
0.0
 40
0.0
 40
0.0
 40
0.15186022974044508
 40
0.15186022974044508
 40
0.15186022974044508
 40
0.23898340940341317
 40
0.23898340940341317
 40
0.23898340940341317
 40
0.23898340940341317
 10
-118.72819436736272
 20
-87.0
 30
0.0
 10
-119.69192143992431
 20
-86.90983356711185
 30
0.0
 10
-120.56236206271402
 20
-86.77204514240556
 30
0.0
 10
-121.10383254811066
 20
-86.58271568131023
 30
0.0
 10
-121.41228826554669
 20
-86.47461942108804
 30
0.0
 10
-121.60094083868414
 20
-86.34885102225427
 30
0.0
 10
-121.59999999848654
 20
-86.21765704612008
 30
0.0
  0
SPLINE
  5
DB
330
17
100
AcDbEntity
  8
HIDDEN
100
AcDbSpline
 70
0
 71
3
 72
23
 73
19
 74
0
 40
0.0
 40
0.0
 40
0.0
 40
0.0
 40
0.08252993805961822
 40
0.08252993805961822
 40
0.08252993805961822
 40
0.2008069733961967
 40
0.2008069733961967
 40
0.2008069733961967
 40
0.3981528358800884
 40
0.3981528358800884
 40
0.3981528358800884
 40
0.6689491637517077
 40
0.6689491637517077
 40
0.6689491637517077
 40
0.8632991950637106
 40
0.8632991950637106
 40
0.8632991950637106
 40
1.0
 40
1.0
 40
1.0
 40
1.0
 10
-121.59999999848654
 20
-86.21765704612008
 30
0.0
 10
-121.59907509260438
 20
-86.12190352483032
 30
0.0
 10
-121.50364614719348
 20
-86.02863095476097
 30
0.0
 10
-121.31371316225349
 20
-85.93783933591193
 30
0.0
 10
-121.04494983166138
 20
-85.8092884001741
 30
0.0
 10
-120.59947791158446
 20
-85.69644585716595
 30
0.0
 10
-120.07619796036565
 20
-85.60714626406441
 30
0.0
 10
-119.1971322419349
 20
-85.45742412478685
 30
0.0
 10
-118.12440823673275
 20
-85.36918059087215
 30
0.0
 10
-117.05198172860227
 20
-85.32809917695486
 30
0.0
 10
-115.57536976353056
 20
-85.27261130007045
 30
0.0
 10
-114.06334703836232
 20
-85.3022937562946
 30
0.0
 10
-112.7272859326913
 20
-85.41276200173081
 30
0.0
 10
-111.77274620002571
 20
-85.49252864968834
 30
0.0
 10
-110.89502612026938
 20
-85.61635218997806
 30
0.0
 10
-110.29181764197598
 20
-85.79027189122219
 30
0.0
 10
-109.87020016186501
 20
-85.9117590368444
 30
0.0
 10
-109.5984049337574
 20
-86.0604953826581
 30
0.0
 10
-109.60000000000002
 20
-86.2176570458404
 30
0.0
  0
LINE
  5
DC
330
17
100
AcDbEntity
  8
HIDDEN
100
AcDbLine
 10
121.60000000000001
 20
-86.21765704584041
 30
0.0
 11
121.60000000000001
 21
-89.00689655172414
 31
0.0
  0
SPLINE
  5
DD
330
17
100
AcDbEntity
  8
HIDDEN
100
AcDbSpline
 70
0
 71
3
 72
11
 73
7
 74
0
 40
0.0
 40
0.0
 40
0.0
 40
0.0
 40
0.38867843504290883
 40
0.38867843504290883
 40
0.38867843504290883
 40
1.0
 40
1.0
 40
1.0
 40
1.0
 10
121.60000000000002
 20
-86.2176570458404
 30
0.0
 10
121.60111921046068
 20
-86.35761227817508
 30
0.0
 10
121.38626232359296
 20
-86.49112476272572
 30
0.0
 10
121.04105315331319
 20
-86.60406447840086
 30
0.0
 10
120.49508419557847
 20
-86.78254208909004
 30
0.0
 10
119.65577191495818
 20
-86.91321948501415
 30
0.0
 10
118.72819436736273
 20
-87.0
 30
0.0
  0
SPLINE
  5
DE
330
17
100
AcDbEntity
  8
HIDDEN
100
AcDbSpline
 70
0
 71
3
 72
17
 73
13
 74
0
 40
0.0
 40
0.0
 40
0.0
 40
0.0
 40
0.24107453477378618
 40
0.24107453477378618
 40
0.24107453477378618
 40
0.5047571925821488
 40
0.5047571925821488
 40
0.5047571925821488
 40
0.7684398503905113
 40
0.7684398503905113
 40
0.7684398503905113
 40
1.0
 40
1.0
 40
1.0
 40
1.0
 10
118.72819436736269
 20
-87.0
 30
0.0
 10
118.20002195199204
 20
-86.75615773440424
 30
0.0
 10
117.62420545028398
 20
-86.5785043068237
 30
0.0
 10
117.05695184602904
 20
-86.47204507448431
 30
0.0
 10
116.43569364968671
 20
-86.35487155959402
 30
0.0
 10
115.8274928599279
 20
-86.31951983332783
 30
0.0
 10
115.25818678919595
 20
-86.34402834295804
 30
0.0
 10
114.68747194432426
 20
-86.3715584418743
 30
0.0
 10
114.15693669676006
 20
-86.44952339789522
 30
0.0
 10
113.66658104650341
 20
-86.57792321102076
 30
0.0
 10
113.23617991686248
 20
-86.68958792668569
 30
0.0
 10
112.83792144557381
 20
-86.83028018967885
 30
0.0
 10
112.47180563263736
 20
-87.0
 30
0.0
  0
SPLINE
  5
DF
330
17
100
AcDbEntity
  8
HIDDEN
100
AcDbSpline
 70
0
 71
3
 72
14
 73
10
 74
0
 40
0.0
 40
0.0
 40
0.0
 40
0.0
 40
0.09904257466778577
 40
0.09904257466778577
 40
0.09904257466778577
 40
0.15834769214313055
 40
0.15834769214313055
 40
0.15834769214313055
 40
0.22712413883081622
 40
0.22712413883081622
 40
0.22712413883081622
 40
0.22712413883081622
 10
112.47180563263727
 20
-87.00000000000001
 30
0.0
 10
111.81037415205154
 20
-86.93824209651522
 30
0.0
 10
111.18497683991646
 20
-86.85296256549397
 30
0.0
 10
110.67821786676187
 20
-86.74201424038885
 30
0.0
 10
110.37546617322685
 20
-86.67573047842347
 30
0.0
 10
110.11756204882403
 20
-86.60021637112501
 30
0.0
 10
109.93148437941514
 20
-86.5181723227493
 30
0.0
 10
109.71473457184939
 20
-86.42318267997304
 30
0.0
 10
109.59901210573662
 20
-86.3195330898274
 30
0.0
 10
109.60000000706577
 20
-86.2176570450812
 30
0.0
  0
SPLINE
  5
E0
330
17
100
AcDbEntity
  8
HIDDEN
100
AcDbSpline
 70
0
 71
3
 72
23
 73
19
 74
0
 40
0.0
 40
0.0
 40
0.0
 40
0.0
 40
0.21506512690651702
 40
0.21506512690651702
 40
0.21506512690651702
 40
0.46480533929134465
 40
0.46480533929134465
 40
0.46480533929134465
 40
0.6548425506608637
 40
0.6548425506608637
 40
0.6548425506608637
 40
0.7992971784749127
 40
0.7992971784749127
 40
0.7992971784749127
 40
0.8946979645242783
 40
0.8946979645242783
 40
0.8946979645242783
 40
1.0
 40
1.0
 40
1.0
 40
1.0
 10
109.60000000706574
 20
-86.21765704508118
 30
0.0
 10
109.59865645508872
 20
-85.96802623023042
 30
0.0
 10
110.26928804702216
 20
-85.75025396493568
 30
0.0
 10
111.14269679874543
 20
-85.60392704416341
 30
0.0
 10
112.16817686621789
 20
-85.43136944614854
 30
0.0
 10
113.46986804129014
 20
-85.33652036200576
 30
0.0
 10
114.81092319553927
 20
-85.30881185889668
 30
0.0
 10
115.83380719229207
 20
-85.2882611827926
 30
0.0
 10
116.89485875586011
 20
-85.30696953552129
 30
0.0
 10
117.91344877089215
 20
-85.37173963501708
 30
0.0
 10
118.68537858385608
 20
-85.42109732711518
 30
0.0
 10
119.43680968177082
 20
-85.49781354037495
 30
0.0
 10
120.07778867648514
 20
-85.60741868289514
 30
0.0
 10
120.4997792262682
 20
-85.67962693908838
 30
0.0
 10
120.8708043272897
 20
-85.7666417998488
 30
0.0
 10
121.13961748279274
 20
-85.86546273791878
 30
0.0
 10
121.43783336500722
 20
-85.97420364629728
 30
0.0
 10
121.60189723907264
 20
-86.09724107918461
 30
0.0
 10
121.60000000000002
 20
-86.21765704584041
 30
0.0
  0
LINE
  5
E1
330
17
100
AcDbEntity
  8
HIDDEN
100
AcDbLine
 10
162.2257428176378
 20
-59.85
 30
0.0
 11
167.68567241503084
 21
-59.85
 31
0.0
  0
SPLINE
  5
E2
330
17
100
AcDbEntity
  8
HIDDEN
100
AcDbSpline
 70
0
 71
3
 72
8
 73
4
 74
0
 40
0.0
 40
0.0
 40
0.0
 40
0.0
 40
1.0
 40
1.0
 40
1.0
 40
1.0
 10
160.23701444326232
 20
-52.85
 30
0.0
 10
159.84858549709526
 20
-53.91443348618063
 30
0.0
 10
159.45423759160474
 20
-54.97315021692263
 30
0.0
 10
159.03224231417212
 20
-55.905734054711566
 30
0.0
  0
SPLINE
  5
E3
330
17
100
AcDbEntity
  8
HIDDEN
100
AcDbSpline
 70
0
 71
3
 72
20
 73
16
 74
0
 40
0.0
 40
0.0
 40
0.0
 40
0.0
 40
0.21990738448713992
 40
0.21990738448713992
 40
0.21990738448713992
 40
0.3733061526954653
 40
0.3733061526954653
 40
0.3733061526954653
 40
0.5041005235060145
 40
0.5041005235060145
 40
0.5041005235060145
 40
0.7288928840235056
 40
0.7288928840235056
 40
0.7288928840235056
 40
0.9929796973568064
 40
0.9929796973568064
 40
0.9929796973568064
 40
0.9929796973568064
 10
159.03224231417212
 20
-55.90573405471156
 30
0.0
 10
158.844085555204
 20
-56.316834243662434
 30
0.0
 10
158.72457618151037
 20
-56.773819140537526
 30
0.0
 10
158.77888765594844
 20
-57.236681055215286
 30
0.0
 10
158.815251517868
 20
-57.558011191942455
 30
0.0
 10
158.94401865094716
 20
-57.87239325221768
 30
0.0
 10
159.14436704839346
 20
-58.138033335083655
 30
0.0
 10
159.3142328613582
 20
-58.365503081018595
 30
0.0
 10
159.52995972260842
 20
-58.55889523451917
 30
0.0
 10
159.7650962069668
 20
-58.72158438080354
 30
0.0
 10
160.17096750129284
 20
-59.00119072458361
 30
0.0
 10
160.63001034229134
 20
-59.195827922709626
 30
0.0
 10
161.0977419743286
 20
-59.34526576609284
 30
0.0
 10
161.64914443913452
 20
-59.5198539052883
 30
0.0
 10
162.2177806735095
 20
-59.631612061405924
 30
0.0
 10
162.78894796223207
 20
-59.70859873512428
 30
0.0
  0
SPLINE
  5
E4
330
17
100
AcDbEntity
  8
HIDDEN
100
AcDbSpline
 70
0
 71
3
 72
8
 73
4
 74
0
 40
0.0
 40
0.0
 40
0.0
 40
0.0
 40
1.0
 40
1.0
 40
1.0
 40
1.0
 10
162.80120466787133
 20
-59.726021108176056
 30
0.0
 10
162.5813080479701
 20
-59.800150820550165
 30
0.0
 10
162.37884028389337
 20
-59.849793799998096
 30
0.0
 10
162.2257428176378
 20
-59.849999999999994
 30
0.0
  0
SPLINE
  5
E5
330
17
100
AcDbEntity
  8
HIDDEN
100
AcDbSpline
 70
0
 71
3
 72
8
 73
4
 74
0
 40
0.0
 40
0.0
 40
0.0
 40
0.0
 40
1.0
 40
1.0
 40
1.0
 40
1.0
 10
160.58726968174204
 20
-50.84986161245103
 30
0.0
 10
160.587519772465
 20
-51.530156709536485
 30
0.0
 10
160.46842217760474
 20
-52.21026973062432
 30
0.0
 10
160.23701444326232
 20
-52.85
 30
0.0
  0
SPLINE
  5
E6
330
17
100
AcDbEntity
  8
HIDDEN
100
AcDbSpline
 70
0
 71
1
 72
4
 73
2
 74
0
 40
0.0
 40
0.0
 40
1.0
 40
1.0
 10
160.58726968174204
 20
50.849861612451015
 30
0.0
 10
160.58726968174201
 20
-50.84986161245103
 30
0.0
  0
SPLINE
  5
E7
330
17
100
AcDbEntity
  8
HIDDEN
100
AcDbSpline
 70
0
 71
3
 72
8
 73
4
 74
0
 40
0.0
 40
0.0
 40
0.0
 40
0.0
 40
1.0
 40
1.0
 40
1.0
 40
1.0
 10
160.23701444326235
 20
52.85
 30
0.0
 10
160.46842213263014
 20
52.21026942694934
 30
0.0
 10
160.58751967882904
 20
51.53015808582411
 30
0.0
 10
160.5872696817421
 20
50.849861612451015
 30
0.0
  0
LINE
  5
E8
330
17
100
AcDbEntity
  8
HIDDEN
100
AcDbLine
 10
162.22574281763778
 20
59.85
 30
0.0
 11
167.6856724150307
 21
59.85
 31
0.0
  0
SPLINE
  5
E9
330
17
100
AcDbEntity
  8
HIDDEN
100
AcDbSpline
 70
0
 71
3
 72
8
 73
4
 74
0
 40
0.0
 40
0.0
 40
0.0
 40
0.0
 40
1.0
 40
1.0
 40
1.0
 40
1.0
 10
159.03224231417212
 20
55.90573405471155
 30
0.0
 10
159.4542376555297
 20
54.973150064707795
 30
0.0
 10
159.8485854848239
 20
53.91443350935454
 30
0.0
 10
160.23701444326235
 20
52.85
 30
0.0
  0
SPLINE
  5
EA
330
17
100
AcDbEntity
  8
HIDDEN
100
AcDbSpline
 70
0
 71
3
 72
23
 73
19
 74
0
 40
0.0
 40
0.0
 40
0.0
 40
0.0
 40
0.2136728651009107
 40
0.2136728651009107
 40
0.2136728651009107
 40
0.40850105121657093
 40
0.40850105121657093
 40
0.40850105121657093
 40
0.5522759963450455
 40
0.5522759963450455
 40
0.5522759963450455
 40
0.7085073742218955
 40
0.7085073742218955
 40
0.7085073742218955
 40
0.8086269705574408
 40
0.8086269705574408
 40
0.8086269705574408
 40
1.0
 40
1.0
 40
1.0
 40
1.0
 10
162.788947949239
 20
59.708598728150946
 30
0.0
 10
162.32875743020537
 20
59.64912122580779
 30
0.0
 10
161.87396580605653
 20
59.559976296805964
 30
0.0
 10
161.42457307679257
 20
59.441163941145376
 30
0.0
 10
161.01633995429626
 20
59.33042371889047
 30
0.0
 10
160.61408829054776
 20
59.189935411931764
 30
0.0
 10
160.23526474356737
 20
58.99903144427759
 30
0.0
 10
159.95640832900455
 20
58.858000847927364
 30
0.0
 10
159.68988188752266
 20
58.68862361911285
 30
0.0
 10
159.45817939808668
 20
58.479680998371215
 30
0.0
 10
159.20662014220798
 20
58.25379764437125
 30
0.0
 10
158.99923504033248
 20
57.9761404892893
 30
0.0
 10
158.88295112434673
 20
57.66493414994897
 30
0.0
 10
158.8082993229597
 20
57.46410386289768
 30
0.0
 10
158.76932766179547
 20
57.258526184962406
 30
0.0
 10
158.766036140854
 20
57.0482011161433
 30
0.0
 10
158.75863939580242
 20
56.6488961804813
 30
0.0
 10
158.86959608290607
 20
56.261596446163054
 30
0.0
 10
159.03224231417204
 20
55.90573405471156
 30
0.0
  0
SPLINE
  5
EB
330
17
100
AcDbEntity
  8
HIDDEN
100
AcDbSpline
 70
0
 71
3
 72
8
 73
4
 74
0
 40
0.0
 40
0.0
 40
0.0
 40
0.0
 40
1.0
 40
1.0
 40
1.0
 40
1.0
 10
162.80120466725953
 20
59.72602110838254
 30
0.0
 10
162.58130804759807
 20
59.80015082064073
 30
0.0
 10
162.37884028375015
 20
59.84979379999898
 30
0.0
 10
162.22574281763778
 20
59.85
 30
0.0
  0
SPLINE
  5
EC
330
17
100
AcDbEntity
  8
HIDDEN
100
AcDbSpline
 70
0
 71
3
 72
23
 73
19
 74
0
 40
0.0
 40
0.0
 40
0.0
 40
0.0
 40
0.08003738255879217
 40
0.08003738255879217
 40
0.08003738255879217
 40
0.15519860646397615
 40
0.15519860646397615
 40
0.15519860646397615
 40
0.30772355880286056
 40
0.30772355880286056
 40
0.30772355880286056
 40
0.5170170118403757
 40
0.5170170118403757
 40
0.5170170118403757
 40
0.6721247346214819
 40
0.6721247346214819
 40
0.6721247346214819
 40
0.7728832752555054
 40
0.7728832752555054
 40
0.7728832752555054
 40
0.7728832752555054
 10
121.60000000000001
 20
86.21765704584038
 30
0.0
 10
121.60178436308013
 20
86.0992333442261
 30
0.0
 10
121.4433389067755
 20
85.97824646300886
 30
0.0
 10
121.15418256593101
 20
85.87086003031419
 30
0.0
 10
120.8839748208404
 20
85.76970499794538
 30
0.0
 10
120.50652174246699
 20
85.68071382803936
 30
0.0
 10
120.07619796036205
 20
85.60714626406377
 30
0.0
 10
119.19713224192755
 20
85.45742412478587
 30
0.0
 10
118.12440823672098
 20
85.36918059087131
 30
0.0
 10
117.05198172858687
 20
85.32809917695427
 30
0.0
 10
115.57536976351389
 20
85.27261130007052
 30
0.0
 10
114.06334703834503
 20
85.30229375629513
 30
0.0
 10
112.72728593267453
 20
85.41276200173222
 30
0.0
 10
111.7420899699207
 20
85.49510033267244
 30
0.0
 10
110.83703696738871
 20
85.62452493490031
 30
0.0
 10
110.2342246289983
 20
85.80740731907963
 30
0.0
 10
109.8454480475193
 20
85.92543240297026
 30
0.0
 10
109.5985636001009
 20
86.06785957244765
 30
0.0
 10
109.59999999974481
 20
86.21765704588414
 30
0.0
  0
SPLINE
  5
ED
330
17
100
AcDbEntity
  8
HIDDEN
100
AcDbSpline
 70
0
 71
3
 72
14
 73
10
 74
0
 40
0.0
 40
0.0
 40
0.0
 40
0.0
 40
0.3070997821157357
 40
0.3070997821157357
 40
0.3070997821157357
 40
0.5698037085084257
 40
0.5698037085084257
 40
0.5698037085084257
 40
1.0
 40
1.0
 40
1.0
 40
1.0
 10
109.59999999974481
 20
86.21765704588414
 30
0.0
 10
109.59895930362069
 20
86.32098003398018
 30
0.0
 10
109.71810706886532
 20
86.42611216904587
 30
0.0
 10
109.94070699505676
 20
86.52220371081025
 30
0.0
 10
110.1302780485889
 20
86.60454486819357
 30
0.0
 10
110.39210667965835
 20
86.6801930193999
 30
0.0
 10
110.69871840430994
 20
86.74647865509326
 30
0.0
 10
111.20191910306944
 20
86.85526659606853
 30
0.0
 10
111.81923705719475
 20
86.93906825083576
 30
0.0
 10
112.47180563263724
 20
87.0
 30
0.0
  0
SPLINE
  5
EE
330
17
100
AcDbEntity
  8
HIDDEN
100
AcDbSpline
 70
0
 71
3
 72
11
 73
7
 74
0
 40
0.0
 40
0.0
 40
0.0
 40
0.0
 40
0.5921222874473582
 40
0.5921222874473582
 40
0.5921222874473582
 40
1.0
 40
1.0
 40
1.0
 40
1.0
 10
112.47180563263724
 20
87.0
 30
0.0
 10
113.40449885547542
 20
86.5726527322843
 30
0.0
 10
114.55805335761458
 20
86.295974471616
 30
0.0
 10
115.89613090255943
 20
86.34219516208711
 30
0.0
 10
116.81222519007869
 20
86.37326274296076
 30
0.0
 10
117.83046807209213
 20
86.58373266225719
 30
0.0
 10
118.7281943673628
 20
87.0
 30
0.0
  0
SPLINE
  5
EF
330
17
100
AcDbEntity
  8
HIDDEN
100
AcDbSpline
 70
0
 71
3
 72
11
 73
7
 74
0
 40
0.0
 40
0.0
 40
0.0
 40
0.0
 40
0.6161322643367593
 40
0.6161322643367593
 40
0.6161322643367593
 40
1.0
 40
1.0
 40
1.0
 40
1.0
 10
118.72819436736278
 20
87.0
 30
0.0
 10
119.66297030368915
 20
86.91254494550823
 30
0.0
 10
120.50847012219154
 20
86.78046729180483
 30
0.0
 10
121.05378330379159
 20
86.59985132438895
 30
0.0
 10
121.39157389033103
 20
86.48784887812307
 30
0.0
 10
121.60108622668484
 20
86.35586658028647
 30
0.0
 10
121.60000000000001
 20
86.21765704584041
 30
0.0
  0
LINE
  5
F0
330
17
100
AcDbEntity
  8
HIDDEN
100
AcDbLine
 10
121.60000000000001
 20
89.00689655172414
 30
0.0
 11
121.60000000000001
 21
86.21765704584041
 31
0.0
  0
SPLINE
  5
F1
330
17
100
AcDbEntity
  8
HIDDEN
100
AcDbSpline
 70
0
 71
3
 72
23
 73
19
 74
0
 40
0.0
 40
0.0
 40
0.0
 40
0.0
 40
0.16573452018025675
 40
0.16573452018025675
 40
0.16573452018025675
 40
0.3537105844294719
 40
0.3537105844294719
 40
0.3537105844294719
 40
0.4983291519587051
 40
0.4983291519587051
 40
0.4983291519587051
 40
0.6082593134635746
 40
0.6082593134635746
 40
0.6082593134635746
 40
0.6974327443339761
 40
0.6974327443339761
 40
0.6974327443339761
 40
0.7609962942657813
 40
0.7609962942657813
 40
0.7609962942657813
 40
0.7609962942657813
 10
-109.60000000000001
 20
86.2176570458404
 30
0.0
 10
-109.59881853283288
 20
85.96474863732385
 30
0.0
 10
-110.286105857163
 20
85.7449216220034
 30
0.0
 10
-111.17617798569123
 20
85.59829678481846
 30
0.0
 10
-112.19690164018002
 20
85.42932778515916
 30
0.0
 10
-113.48431900765014
 20
85.33620666422738
 30
0.0
 10
-114.81092319621158
 20
85.30881185888305
 30
0.0
 10
-115.83380719315674
 20
85.28826118279316
 30
0.0
 10
-116.89485875692019
 20
85.30696953554957
 30
0.0
 10
-117.91344877209227
 20
85.37173963509372
 30
0.0
 10
-118.68537858480548
 20
85.42109732720576
 30
0.0
 10
-119.43680968245229
 20
85.49781354046704
 30
0.0
 10
-120.07778867692596
 20
85.60741868297067
 30
0.0
 10
-120.59600641012665
 20
85.69593570303888
 30
0.0
 10
-121.03777192560855
 20
85.8075168916374
 30
0.0
 10
-121.3069363927044
 20
85.93462879360602
 30
0.0
 10
-121.50132034886957
 20
86.0263801499846
 30
0.0
 10
-121.599008217381
 20
86.12072290083876
 30
0.0
 10
-121.59999999823856
 20
86.21765704616831
 30
0.0
  0
SPLINE
  5
F2
330
17
100
AcDbEntity
  8
HIDDEN
100
AcDbSpline
 70
0
 71
3
 72
11
 73
7
 74
0
 40
0.0
 40
0.0
 40
0.0
 40
0.0
 40
0.36322986775936306
 40
0.36322986775936306
 40
0.36322986775936306
 40
1.0
 40
1.0
 40
1.0
 40
1.0
 10
-121.59999999823856
 20
86.2176570461683
 30
0.0
 10
-121.60093152036409
 20
86.34837197234239
 30
0.0
 10
-121.41366497838084
 20
86.47371174726447
 30
0.0
 10
-121.1071853053685
 20
86.58153319715255
 30
0.0
 10
-120.56604951677903
 20
86.77146482594137
 30
0.0
 10
-119.6939002008733
 20
86.90964835252595
 30
0.0
 10
-118.72819436736279
 20
87.0
 30
0.0
  0
SPLINE
  5
F3
330
17
100
AcDbEntity
  8
HIDDEN
100
AcDbSpline
 70
0
 71
3
 72
17
 73
13
 74
0
 40
0.0
 40
0.0
 40
0.0
 40
0.0
 40
0.24107453477375632
 40
0.24107453477375632
 40
0.24107453477375632
 40
0.5047571925820641
 40
0.5047571925820641
 40
0.5047571925820641
 40
0.7684398503903719
 40
0.7684398503903719
 40
0.7684398503903719
 40
1.0
 40
1.0
 40
1.0
 40
1.0
 10
-118.72819436736278
 20
87.0
 30
0.0
 10
-118.20002195199207
 20
86.75615773440424
 30
0.0
 10
-117.62420545028417
 20
86.57850430682376
 30
0.0
 10
-117.05695184602928
 20
86.47204507448433
 30
0.0
 10
-116.4356936496873
 20
86.35487155959407
 30
0.0
 10
-115.82749285992844
 20
86.31951983332782
 30
0.0
 10
-115.25818678919684
 20
86.34402834295794
 30
0.0
 10
-114.68747194432531
 20
86.3715584418742
 30
0.0
 10
-114.15693669676119
 20
86.44952339789498
 30
0.0
 10
-113.66658104650469
 20
86.57792321102042
 30
0.0
 10
-113.23617991686325
 20
86.68958792668539
 30
0.0
 10
-112.83792144557414
 20
86.83028018967865
 30
0.0
 10
-112.47180563263723
 20
87.0
 30
0.0
  0
SPLINE
  5
F4
330
17
100
AcDbEntity
  8
HIDDEN
100
AcDbSpline
 70
0
 71
3
 72
14
 73
10
 74
0
 40
0.0
 40
0.0
 40
0.0
 40
0.0
 40
0.43618884033424254
 40
0.43618884033424254
 40
0.43618884033424254
 40
0.6029899409225059
 40
0.6029899409225059
 40
0.6029899409225059
 40
1.0
 40
1.0
 40
1.0
 40
1.0
 10
-112.47180563263726
 20
87.0
 30
0.0
 10
-111.81037415205145
 20
86.9382420965152
 30
0.0
 10
-111.18497683991636
 20
86.85296256549395
 30
0.0
 10
-110.67821786676183
 20
86.74201424038887
 30
0.0
 10
-110.48370010293736
 20
86.69956313157728
 30
0.0
 10
-110.31098462909625
 20
86.65370305063263
 30
0.0
 10
-110.1600714452386
 20
86.6044339975551
 30
0.0
 10
-109.80128077065507
 20
86.48762352595789
 30
0.0
 10
-109.59733508658323
 20
86.35142137573605
 30
0.0
 10
-109.6
 20
86.21765704584041
 30
0.0
  0
LINE
  5
F5
330
17
100
AcDbEntity
  8
HIDDEN
100
AcDbLine
 10
-109.60000000000001
 20
89.00689655172414
 30
0.0
 11
-109.60000000000001
 21
86.21765704584041
 31
0.0
  0
SPLINE
  5
F6
330
17
100
AcDbEntity
  8
HIDDEN
100
AcDbSpline
 70
0
 71
1
 72
4
 73
2
 74
0
 40
0.0
 40
0.0
 40
0.7877758913412566
 40
0.7877758913412566
 10
-164.62968351810463
 20
-58.35080181820644
 30
0.0
 10
-157.8715974793824
 20
-54.661904132824844
 30
0.0
  0
SPLINE
  5
F7
330
17
100
AcDbEntity
  8
HIDDEN
100
AcDbSpline
 70
0
 71
1
 72
4
 73
2
 74
0
 40
0.0
 40
0.0
 40
0.7877758913412566
 40
0.7877758913412566
 10
-128.52900037105405
 20
-85.77759328097316
 30
0.0
 10
-123.42093486913936
 20
-80.15190796745442
 30
0.0
  0
LINE
  5
F8
330
17
100
AcDbEntity
  8
HIDDEN
100
AcDbLine
 10
-164.62968351810463
 20
-58.35080181820644
 30
0.0
 11
-128.52900037105405
 21
-85.77759328097316
 31
0.0
  0
ARC
  5
F9
330
17
100
AcDbEntity
  8
HIDDEN
100
AcDbCircle
 10
-161.0
 20
-53.573208537233306
 30
0.0
 40
6.0
100
AcDbArc
 50
180.0
 51
232.77495366216817
  0
LINE
  5
FA
330
17
100
AcDbEntity
  8
HIDDEN
100
AcDbLine
 10
-167.0
 20
53.5732085372333
 30
0.0
 11
-167.0
 21
-53.573208537233306
 31
0.0
  0
SPLINE
  5
FB
330
17
100
AcDbEntity
  8
HIDDEN
100
AcDbSpline
 70
0
 71
1
 72
4
 73
2
 74
0
 40
0.0
 40
0.0
 40
0.7877758913412566
 40
0.7877758913412566
 10
-164.62968351810463
 20
58.35080181820645
 30
0.0
 10
-157.8715974793824
 20
54.66190413282485
 30
0.0
  0
ARC
  5
FC
330
17
100
AcDbEntity
  8
HIDDEN
100
AcDbCircle
 10
-161.0
 20
53.5732085372333
 30
0.0
 40
6.0
100
AcDbArc
 50
127.22504633783183
 51
180.0
  0
SPLINE
  5
FD
330
17
100
AcDbEntity
  8
HIDDEN
100
AcDbSpline
 70
0
 71
1
 72
4
 73
2
 74
0
 40
0.0
 40
0.0
 40
0.7877758913412566
 40
0.7877758913412566
 10
-128.52900037105405
 20
85.77759328097314
 30
0.0
 10
-123.42093486913937
 20
80.15190796745443
 30
0.0
  0
LINE
  5
FE
330
17
100
AcDbEntity
  8
HIDDEN
100
AcDbLine
 10
-128.52900037105405
 20
85.77759328097316
 30
0.0
 11
-164.62968351810463
 21
58.35080181820645
 31
0.0
  0
ARC
  5
FF
330
17
100
AcDbEntity
  8
HIDDEN
100
AcDbCircle
 10
-124.89931685294943
 20
81.0
 30
0.0
 40
6.0
100
AcDbArc
 50
90.0
 51
127.22504633783183
  0
LINE
  5
100
330
17
100
AcDbEntity
  8
HIDDEN
100
AcDbLine
 10
-118.72819436736364
 20
87.0
 30
0.0
 11
-124.89931685294943
 21
87.0
 31
0.0
  0
LINE
  5
101
330
17
100
AcDbEntity
  8
HIDDEN
100
AcDbLine
 10
112.47180563263746
 20
87.0
 30
0.0
 11
-112.4718056326364
 21
87.0
 31
0.0
  0
LINE
  5
102
330
17
100
AcDbEntity
  8
HIDDEN
100
AcDbLine
 10
124.89931685294947
 20
87.0
 30
0.0
 11
118.72819436736256
 21
87.0
 31
0.0
  0
SPLINE
  5
103
330
17
100
AcDbEntity
  8
HIDDEN
100
AcDbSpline
 70
0
 71
1
 72
4
 73
2
 74
0
 40
0.0
 40
0.0
 40
0.7877758913412566
 40
0.7877758913412566
 10
128.52900037105405
 20
85.77759328097316
 30
0.0
 10
123.42093486913932
 20
80.15190796745446
 30
0.0
  0
ARC
  5
104
330
17
100
AcDbEntity
  8
HIDDEN
100
AcDbCircle
 10
124.89931685294945
 20
81.0
 30
0.0
 40
6.0
100
AcDbArc
 50
52.774953662168386
 51
90.0
  0
SPLINE
  5
105
330
17
100
AcDbEntity
  8
HIDDEN
100
AcDbSpline
 70
0
 71
1
 72
4
 73
2
 74
0
 40
0.0
 40
0.0
 40
1.0
 40
1.0
 10
161.19653813795938
 20
56.47682123053242
 30
0.0
 10
157.8715974793824
 20
54.66190413282485
 30
0.0
  0
LINE
  5
106
330
17
100
AcDbEntity
  8
HIDDEN
100
AcDbLine
 10
162.83454059365567
 20
59.71462671964034
 30
0.0
 11
128.52900037105405
 21
85.77759328097316
 31
0.0
  0
SPLINE
  5
107
330
17
100
AcDbEntity
  8
HIDDEN
100
AcDbSpline
 70
0
 71
3
 72
23
 73
19
 74
0
 40
0.0
 40
0.0
 40
0.0
 40
0.0
 40
0.49583845154674205
 40
0.49583845154674205
 40
0.49583845154674205
 40
0.7469971460214054
 40
0.7469971460214054
 40
0.7469971460214054
 40
0.8726196910195548
 40
0.8726196910195548
 40
0.8726196910195548
 40
0.9338309997429943
 40
0.9338309997429943
 40
0.9338309997429943
 40
0.9660493135541327
 40
0.9660493135541327
 40
0.9660493135541327
 40
1.0
 40
1.0
 40
1.0
 40
1.0
 10
162.22574281763775
 20
59.85000000000001
 30
0.0
 10
161.62526786232263
 20
59.849999999999994
 30
0.0
 10
161.02479290700765
 20
59.849999999999994
 30
0.0
 10
160.4243179516925
 20
59.85000000000001
 30
0.0
 10
160.1195816260149
 20
59.84999999999997
 30
0.0
 10
159.81484530033754
 20
59.85000000000002
 30
0.0
 10
159.51010897465997
 20
59.85000000000001
 30
0.0
 10
159.3575409877429
 20
59.849999999999994
 30
0.0
 10
159.20497300082607
 20
59.85
 30
0.0
 10
159.05240501390904
 20
59.849999999999994
 30
0.0
 10
158.97802828681023
 20
59.84999999999999
 30
0.0
 10
158.90365155971142
 20
59.850000000000016
 30
0.0
 10
158.82927483261255
 20
59.84999999999997
 30
0.0
 10
158.79011629909235
 20
59.84999999999996
 30
0.0
 10
158.75095776557237
 20
59.850000000000016
 30
0.0
 10
158.71179923205207
 20
59.84999999999999
 30
0.0
 10
158.67454698982877
 20
59.849999999999994
 30
0.0
 10
158.62954916757363
 20
59.85
 30
0.0
 10
158.59738144848117
 20
59.85
 30
0.0
  0
SPLINE
  5
108
330
17
100
AcDbEntity
  8
HIDDEN
100
AcDbSpline
 70
0
 71
3
 72
20
 73
16
 74
0
 40
0.0
 40
0.0
 40
0.0
 40
0.0
 40
0.24731199677049376
 40
0.24731199677049376
 40
0.24731199677049376
 40
0.5091563132947247
 40
0.5091563132947247
 40
0.5091563132947247
 40
0.7049381390244557
 40
0.7049381390244557
 40
0.7049381390244557
 40
0.8037753594581152
 40
0.8037753594581152
 40
0.8037753594581152
 40
1.0
 40
1.0
 40
1.0
 40
1.0
 10
161.19653813795932
 20
56.47682123053243
 30
0.0
 10
160.8166839832737
 20
56.80834007924273
 30
0.0
 10
160.4494601060914
 20
57.14160588921465
 30
0.0
 10
160.09486650641222
 20
57.476618660448075
 30
0.0
 10
159.72171487529943
 20
57.83060410304339
 30
0.0
 10
159.36474586523235
 20
58.18691052174719
 30
0.0
 10
159.05409849135364
 20
58.53477280218298
 30
0.0
 10
158.82339932613905
 20
58.793809966587105
 30
0.0
 10
158.61668454370476
 20
59.05020272599993
 30
0.0
 10
158.48077437328553
 20
59.27708627183557
 30
0.0
 10
158.41089245304093
 20
59.3927099752446
 30
0.0
 10
158.3657723082391
 20
59.4952792794492
 30
0.0
 10
158.34541393887966
 20
59.58479418444925
 30
0.0
 10
158.30448649273097
 20
59.76248841372815
 30
0.0
 10
158.40340274067816
 20
59.852905045815824
 30
0.0
 10
158.59738144848117
 20
59.85
 30
0.0
  0
SPLINE
  5
109
330
17
100
AcDbEntity
  8
HIDDEN
100
AcDbSpline
 70
0
 71
3
 72
11
 73
7
 74
0
 40
0.0
 40
0.0
 40
0.0
 40
0.0
 40
0.6273926679822213
 40
0.6273926679822213
 40
0.6273926679822213
 40
1.0
 40
1.0
 40
1.0
 40
1.0
 10
161.19653813795938
 20
56.476821230532416
 30
0.0
 10
161.78525571858998
 20
55.96149939858599
 30
0.0
 10
162.31170820903856
 20
55.291985366612806
 30
0.0
 10
162.7173830983186
 20
54.465260611628615
 30
0.0
 10
162.9574296292681
 20
53.97540379473409
 30
0.0
 10
163.15243011294302
 20
53.42906490703673
 30
0.0
 10
163.27833344463693
 20
52.85
 30
0.0
  0
SPLINE
  5
10A
330
17
100
AcDbEntity
  8
HIDDEN
100
AcDbSpline
 70
0
 71
2
 72
6
 73
3
 74
0
 40
0.0
 40
0.0
 40
0.0
 40
1.0
 40
1.0
 40
1.0
 10
163.27833344463696
 20
52.85
 30
0.0
 10
163.41543401746117
 20
52.21925942506742
 30
0.0
 10
163.41564091680823
 20
51.57379043519233
 30
0.0
  0
SPLINE
  5
10B
330
17
100
AcDbEntity
  8
HIDDEN
100
AcDbSpline
 70
0
 71
1
 72
4
 73
2
 74
0
 40
0.0
 40
0.0
 40
1.0
 40
1.0
 10
163.41564091680814
 20
51.573790435192315
 30
0.0
 10
163.41564091680814
 20
-51.57379043519233
 30
0.0
  0
SPLINE
  5
10C
330
17
100
AcDbEntity
  8
HIDDEN
100
AcDbSpline
 70
0
 71
1
 72
4
 73
2
 74
0
 40
0.0
 40
0.0
 40
1.0
 40
1.0
 10
161.19653813795935
 20
-56.476821230532416
 30
0.0
 10
157.87159747938236
 20
-54.66190413282485
 30
0.0
  0
SPLINE
  5
10D
330
17
100
AcDbEntity
  8
HIDDEN
100
AcDbSpline
 70
0
 71
2
 72
6
 73
3
 74
0
 40
0.0
 40
0.0
 40
0.0
 40
1.0
 40
1.0
 40
1.0
 10
163.41564091680817
 20
-51.57379043519233
 30
0.0
 10
163.41543402269383
 20
-52.21925937502522
 30
0.0
 10
163.27833344463698
 20
-52.85
 30
0.0
  0
SPLINE
  5
10E
330
17
100
AcDbEntity
  8
HIDDEN
100
AcDbSpline
 70
0
 71
3
 72
11
 73
7
 74
0
 40
0.0
 40
0.0
 40
0.0
 40
0.0
 40
0.3734739516400547
 40
0.3734739516400547
 40
0.3734739516400547
 40
1.0
 40
1.0
 40
1.0
 40
1.0
 10
163.2783334446369
 20
-52.85
 30
0.0
 10
163.1521368894628
 20
-53.430416077032774
 30
0.0
 10
162.95652285465232
 20
-53.977937459687
 30
0.0
 10
162.7157069349992
 20
-54.468682086778124
 30
0.0
 10
162.3102433394091
 20
-55.293841378836014
 30
0.0
 10
161.78444829625425
 20
-55.96220753704557
 30
0.0
 10
161.19653813795935
 20
-56.47682123053243
 30
0.0
  0
SPLINE
  5
10F
330
17
100
AcDbEntity
  8
HIDDEN
100
AcDbSpline
 70
0
 71
1
 72
4
 73
2
 74
0
 40
0.0
 40
0.0
 40
0.7877758913412566
 40
0.7877758913412566
 10
128.52900037105405
 20
-85.77759328097316
 30
0.0
 10
123.42093486913932
 20
-80.15190796745443
 30
0.0
  0
SPLINE
  5
110
330
17
100
AcDbEntity
  8
HIDDEN
100
AcDbSpline
 70
0
 71
3
 72
20
 73
16
 74
0
 40
0.0
 40
0.0
 40
0.0
 40
0.0
 40
0.12914004128124448
 40
0.12914004128124448
 40
0.12914004128124448
 40
0.2080286432642707
 40
0.2080286432642707
 40
0.2080286432642707
 40
0.4762702706955596
 40
0.4762702706955596
 40
0.4762702706955596
 40
0.7428813536116803
 40
0.7428813536116803
 40
0.7428813536116803
 40
1.0
 40
1.0
 40
1.0
 40
1.0
 10
158.5973814484812
 20
-59.850000000000016
 30
0.0
 10
158.4713209256013
 20
-59.850434867921926
 30
0.0
 10
158.38173086681644
 20
-59.8148072283755
 30
0.0
 10
158.3505211165188
 20
-59.7363002091796
 30
0.0
 10
158.33144985711428
 20
-59.68802502241341
 30
0.0
 10
158.33239582483557
 20
-59.62676282313752
 30
0.0
 10
158.35335901968267
 20
-59.55251361135204
 30
0.0
 10
158.4259827301608
 20
-59.29883972349298
 30
0.0
 10
158.6951704734551
 20
-58.94379081150744
 30
0.0
 10
159.003000719223
 20
-58.592514776915166
 30
0.0
 10
159.3133804452831
 20
-58.239629606864405
 30
0.0
 10
159.6747142479414
 20
-57.876759893554265
 30
0.0
 10
160.0530125348947
 20
-57.51637018133434
 30
0.0
 10
160.42034799546778
 20
-57.16800718789545
 30
0.0
 10
160.80152319648954
 20
-56.82149087096151
 30
0.0
 10
161.19653813795935
 20
-56.47682123053242
 30
0.0
  0
SPLINE
  5
111
330
17
100
AcDbEntity
  8
HIDDEN
100
AcDbSpline
 70
0
 71
3
 72
23
 73
19
 74
0
 40
0.0
 40
0.0
 40
0.0
 40
0.0
 40
0.49583845154670175
 40
0.49583845154670175
 40
0.49583845154670175
 40
0.746997146021326
 40
0.746997146021326
 40
0.746997146021326
 40
0.8726196910194643
 40
0.8726196910194643
 40
0.8726196910194643
 40
0.933830999742898
 40
0.933830999742898
 40
0.933830999742898
 40
0.9660493135542073
 40
0.9660493135542073
 40
0.9660493135542073
 40
1.0
 40
1.0
 40
1.0
 40
1.0
 10
162.22574281763784
 20
-59.85
 30
0.0
 10
161.62526786232272
 20
-59.849999999999966
 30
0.0
 10
161.02479290700757
 20
-59.85000000000001
 30
0.0
 10
160.42431795169253
 20
-59.85
 30
0.0
 10
160.11958162601505
 20
-59.849999999999994
 30
0.0
 10
159.8148453003375
 20
-59.85000000000001
 30
0.0
 10
159.51010897466003
 20
-59.85
 30
0.0
 10
159.35754098774308
 20
-59.85000000000001
 30
0.0
 10
159.2049730008261
 20
-59.85000000000001
 30
0.0
 10
159.05240501390918
 20
-59.85
 30
0.0
 10
158.9780282868103
 20
-59.849999999999966
 30
0.0
 10
158.9036515597116
 20
-59.85000000000001
 30
0.0
 10
158.82927483261273
 20
-59.85
 30
0.0
 10
158.79011629909255
 20
-59.84999999999997
 30
0.0
 10
158.7509577655724
 20
-59.85000000000001
 30
0.0
 10
158.7117992320522
 20
-59.849999999999994
 30
0.0
 10
158.67454698982885
 20
-59.84999999999996
 30
0.0
 10
158.62954916757383
 20
-59.85000000000002
 30
0.0
 10
158.5973814484812
 20
-59.85
 30
0.0
  0
LINE
  5
112
330
17
100
AcDbEntity
  8
HIDDEN
100
AcDbLine
 10
128.52900037105408
 20
-85.77759328097315
 30
0.0
 11
162.83454059365582
 21
-59.71462671964024
 31
0.0
  0
ARC
  5
113
330
17
100
AcDbEntity
  8
HIDDEN
100
AcDbCircle
 10
124.89931685294948
 20
-81.0
 30
0.0
 40
6.0
100
AcDbArc
 50
270.0
 51
307.2250463378316
  0
LINE
  5
114
330
17
100
AcDbEntity
  8
HIDDEN
100
AcDbLine
 10
118.7281943673626
 20
-87.0
 30
0.0
 11
124.8993168529495
 21
-87.0
 31
0.0
  0
LINE
  5
115
330
17
100
AcDbEntity
  8
HIDDEN
100
AcDbLine
 10
-112.47180563263751
 20
-87.0
 30
0.0
 11
112.47180563263741
 21
-87.0
 31
0.0
  0
LINE
  5
116
330
17
100
AcDbEntity
  8
HIDDEN
100
AcDbLine
 10
-124.89931685294941
 20
-87.0
 30
0.0
 11
-118.7281943673625
 21
-87.0
 31
0.0
  0
ARC
  5
117
330
17
100
AcDbEntity
  8
HIDDEN
100
AcDbCircle
 10
-124.89931685294943
 20
-81.0
 30
0.0
 40
6.0
100
AcDbArc
 50
232.77495366216817
 51
270.0
  0
LINE
  5
118
330
17
100
AcDbEntity
  8
HIDDEN
100
AcDbLine
 10
158.5973814484812
 20
-59.85
 30
0.0
 11
163.16017352849695
 21
-59.85
 31
0.0
  0
SPLINE
  5
119
330
17
100
AcDbEntity
  8
HIDDEN
100
AcDbSpline
 70
0
 71
1
 72
4
 73
2
 74
0
 40
0.0
 40
0.0
 40
1.0
 40
1.0
 10
157.2454163367389
 20
-55.12521480721545
 30
0.0
 10
159.03224231417207
 20
-55.90573405471155
 30
0.0
  0
SPLINE
  5
11A
330
17
100
AcDbEntity
  8
HIDDEN
100
AcDbSpline
 70
0
 71
1
 72
4
 73
2
 74
0
 40
0.0
 40
0.0
 40
1.0
 40
1.0
 10
122.56682032208359
 20
-80.67923949400826
 30
0.0
 10
128.52900037105405
 20
-85.77759328097316
 30
0.0
  0
SPLINE
  5
11B
330
17
100
AcDbEntity
  8
HIDDEN
100
AcDbSpline
 70
0
 71
1
 72
4
 73
2
 74
0
 40
0.0
 40
0.0
 40
1.0
 40
1.0
 10
157.24541633673894
 20
55.125214807215464
 30
0.0
 10
159.0322423141721
 20
55.905734054711566
 30
0.0
  0
LINE
  5
11C
330
17
100
AcDbEntity
  8
HIDDEN
100
AcDbLine
 10
158.59738144848117
 20
59.85
 30
0.0
 11
163.16017352849695
 21
59.85
 31
0.0
  0
SPLINE
  5
11D
330
17
100
AcDbEntity
  8
HIDDEN
100
AcDbSpline
 70
0
 71
1
 72
4
 73
2
 74
0
 40
0.0
 40
0.0
 40
1.0
 40
1.0
 10
122.56682029964627
 20
80.67923947482174
 30
0.0
 10
128.52900037105405
 20
85.77759328097316
 30
0.0
  0
SPLINE
  5
11E
330
17
100
AcDbEntity
  8
HIDDEN
100
AcDbSpline
 70
0
 71
1
 72
4
 73
2
 74
0
 40
0.0
 40
0.0
 40
1.0
 40
1.0
 10
-122.56682029908433
 20
-80.67923947434123
 30
0.0
 10
-128.52900037105405
 20
-85.77759328097316
 30
0.0
  0
SPLINE
  5
11F
330
17
100
AcDbEntity
  8
HIDDEN
100
AcDbSpline
 70
0
 71
1
 72
4
 73
2
 74
0
 40
0.0
 40
0.0
 40
1.0
 40
1.0
 10
-157.2454163367389
 20
-55.125214807215414
 30
0.0
 10
-164.62968351810463
 20
-58.35080181820644
 30
0.0
  0
SPLINE
  5
120
330
17
100
AcDbEntity
  8
HIDDEN
100
AcDbSpline
 70
0
 71
1
 72
4
 73
2
 74
0
 40
0.0
 40
0.0
 40
1.0
 40
1.0
 10
-157.24541633673894
 20
55.125214807215436
 30
0.0
 10
-164.62968351810463
 20
58.35080181820645
 30
0.0
  0
SPLINE
  5
121
330
17
100
AcDbEntity
  8
HIDDEN
100
AcDbSpline
 70
0
 71
1
 72
4
 73
2
 74
0
 40
0.0
 40
0.0
 40
1.0
 40
1.0
 10
-122.56682029964627
 20
80.67923947482173
 30
0.0
 10
-128.52900037105405
 20
85.77759328097314
 30
0.0
  0
LINE
  5
122
330
17
100
AcDbEntity
  8
HIDDEN
100
AcDbLine
 10
-121.60000000000001
 20
-86.21765704612008
 30
0.0
 11
-121.60000000000001
 21
-89.00689655168256
 31
0.0
  0
LINE
  5
123
330
17
100
AcDbEntity
  8
HIDDEN
100
AcDbLine
 10
109.60000000000001
 20
-86.2176570450812
 30
0.0
 11
109.60000000000001
 21
-89.00689655112855
 31
0.0
  0
LINE
  5
124
330
17
100
AcDbEntity
  8
HIDDEN
100
AcDbLine
 10
109.60000000000001
 20
89.0068965510214
 30
0.0
 11
109.60000000000001
 21
86.21765704588411
 31
0.0
  0
LINE
  5
125
330
17
100
AcDbEntity
  8
HIDDEN
100
AcDbLine
 10
-121.60000000000001
 20
89.00689655168627
 30
0.0
 11
-121.60000000000001
 21
86.21765704616834
 31
0.0
  0
SPLINE
  5
126
330
17
100
AcDbEntity
  8
HIDDEN
100
AcDbSpline
 70
0
 71
1
 72
4
 73
2
 74
0
 40
0.0
 40
0.0
 40
1.0
 40
1.0
 10
-106.63828323255892
 20
-72.00000000000001
 30
0.0
 10
-127.15332783651974
 20
-90.0
 30
0.0
  0
SPLINE
  5
127
330
17
100
AcDbEntity
  8
HIDDEN
100
AcDbSpline
 70
0
 71
1
 72
4
 73
2
 74
0
 40
0.0
 40
0.0
 40
1.0
 40
1.0
 10
-142.79999999999998
 20
-43.88579649452863
 30
0.0
 10
-170.0
 20
-55.55220163848952
 30
0.0
  0
SPLINE
  5
128
330
17
100
AcDbEntity
  8
HIDDEN
100
AcDbSpline
 70
0
 71
1
 72
4
 73
2
 74
0
 40
0.0
 40
0.0
 40
1.0
 40
1.0
 10
106.63828323255896
 20
-72.0
 30
0.0
 10
127.1533278365198
 20
-90.0
 30
0.0
  0
SPLINE
  5
129
330
17
100
AcDbEntity
  8
HIDDEN
100
AcDbSpline
 70
0
 71
1
 72
4
 73
2
 74
0
 40
0.0
 40
0.0
 40
0.7907313845011747
 40
0.7907313845011747
 10
142.79999999999998
 20
-43.88579649452866
 30
0.0
 10
164.307893658432
 20
-53.11078918616448
 30
0.0
  0
SPLINE
  5
12A
330
17
100
AcDbEntity
  8
HIDDEN
100
AcDbSpline
 70
0
 71
1
 72
4
 73
2
 74
0
 40
0.0
 40
0.0
 40
0.7907313845011747
 40
0.7907313845011747
 10
142.79999999999998
 20
43.885796494528655
 30
0.0
 10
164.30789365843196
 20
53.11078918616448
 30
0.0
  0
SPLINE
  5
12B
330
17
100
AcDbEntity
  8
HIDDEN
100
AcDbSpline
 70
0
 71
1
 72
4
 73
2
 74
0
 40
0.0
 40
0.0
 40
1.0
 40
1.0
 10
106.63828323255895
 20
72.00000000000003
 30
0.0
 10
127.15332783651976
 20
90.0
 30
0.0
  0
SPLINE
  5
12C
330
17
100
AcDbEntity
  8
HIDDEN
100
AcDbSpline
 70
0
 71
1
 72
4
 73
2
 74
0
 40
0.0
 40
0.0
 40
1.0
 40
1.0
 10
-106.63828323255893
 20
72.0
 30
0.0
 10
-127.15332783651974
 20
90.0
 30
0.0
  0
SPLINE
  5
12D
330
17
100
AcDbEntity
  8
HIDDEN
100
AcDbSpline
 70
0
 71
1
 72
4
 73
2
 74
0
 40
0.0
 40
0.0
 40
1.0
 40
1.0
 10
-142.8
 20
43.88579649452864
 30
0.0
 10
-170.0
 20
55.55220163848954
 30
0.0
  0
LINE
  5
12E
330
17
100
AcDbEntity
  8
HIDDEN
100
AcDbLine
 10
160.23701444326232
 20
-52.85
 30
0.0
 11
164.3029761904762
 21
-52.85
 31
0.0
  0
LINE
  5
12F
330
17
100
AcDbEntity
  8
HIDDEN
100
AcDbLine
 10
160.23701444326235
 20
52.85
 30
0.0
 11
164.3029761904762
 21
52.85
 31
0.0
  0
SPLINE
  5
130
330
17
100
AcDbEntity
  8
HIDDEN
100
AcDbSpline
 70
0
 71
1
 72
4
 73
2
 74
0
 40
0.0
 40
0.0
 40
0.7877758913412566
 40
0.7877758913412566
 10
-167.0
 20
-53.573208537233306
 30
0.0
 10
-160.30390492359933
 20
-49.83800974771337
 30
0.0
  0
SPLINE
  5
131
330
17
100
AcDbEntity
  8
HIDDEN
100
AcDbSpline
 70
0
 71
1
 72
4
 73
2
 74
0
 40
0.0
 40
0.0
 40
0.7877758913412566
 40
0.7877758913412566
 10
-166.99999999999997
 20
53.5732085372333
 30
0.0
 10
-160.30390492359933
 20
49.83800974771337
 30
0.0
  0
SPLINE
  5
132
330
17
100
AcDbEntity
  8
HIDDEN
100
AcDbSpline
 70
0
 71
1
 72
4
 73
2
 74
0
 40
0.0
 40
0.0
 40
0.7877758913412566
 40
0.7877758913412566
 10
-124.89931685294943
 20
87.0
 30
0.0
 10
-119.85324231335629
 20
81.32801358234293
 30
0.0
  0
SPLINE
  5
133
330
17
100
AcDbEntity
  8
HIDDEN
100
AcDbSpline
 70
0
 71
1
 72
4
 73
2
 74
0
 40
0.0
 40
0.0
 40
0.7877758913412565
 40
0.7877758913412565
 10
124.89931685294944
 20
87.0
 30
0.0
 10
119.85324231335626
 20
81.32801358234296
 30
0.0
  0
SPLINE
  5
134
330
17
100
AcDbEntity
  8
HIDDEN
100
AcDbSpline
 70
0
 71
1
 72
4
 73
2
 74
0
 40
0.0
 40
0.0
 40
1.0
 40
1.0
 10
163.41564091680814
 20
51.573790435192315
 30
0.0
 10
160.30390492359933
 20
49.83800974771335
 30
0.0
  0
SPLINE
  5
135
330
17
100
AcDbEntity
  8
HIDDEN
100
AcDbSpline
 70
0
 71
1
 72
4
 73
2
 74
0
 40
0.0
 40
0.0
 40
1.0
 40
1.0
 10
163.41564091680817
 20
-51.57379043519233
 30
0.0
 10
160.30390492359936
 20
-49.83800974771335
 30
0.0
  0
SPLINE
  5
136
330
17
100
AcDbEntity
  8
HIDDEN
100
AcDbSpline
 70
0
 71
1
 72
4
 73
2
 74
0
 40
0.0
 40
0.0
 40
0.7877758913412566
 40
0.7877758913412566
 10
124.8993168529495
 20
-87.0
 30
0.0
 10
119.85324231335626
 20
-81.32801358234295
 30
0.0
  0
SPLINE
  5
137
330
17
100
AcDbEntity
  8
HIDDEN
100
AcDbSpline
 70
0
 71
1
 72
4
 73
2
 74
0
 40
0.0
 40
0.0
 40
0.7877758913412566
 40
0.7877758913412566
 10
-124.89931685294943
 20
-87.0
 30
0.0
 10
-119.85324231335629
 20
-81.32801358234295
 30
0.0
  0
SPLINE
  5
138
330
17
100
AcDbEntity
  8
HIDDEN
100
AcDbSpline
 70
0
 71
1
 72
4
 73
2
 74
0
 40
0.0
 40
0.0
 40
1.0
 40
1.0
 10
-118.46119300819664
 20
-81.32801358234296
 30
0.0
 10
-124.89931685294943
 20
-87.0
 30
0.0
  0
SPLINE
  5
139
330
17
100
AcDbEntity
  8
HIDDEN
100
AcDbSpline
 70
0
 71
1
 72
4
 73
2
 74
0
 40
0.0
 40
0.0
 40
1.0
 40
1.0
 10
118.4611930081967
 20
-81.32801358234296
 30
0.0
 10
124.8993168529495
 20
-87.0
 30
0.0
  0
LINE
  5
13A
330
17
100
AcDbEntity
  8
HIDDEN
100
AcDbLine
 10
163.27833344463693
 20
-52.85
 30
0.0
 11
165.45002693965517
 21
-52.85
 31
0.0
  0
SPLINE
  5
13B
330
17
100
AcDbEntity
  8
HIDDEN
100
AcDbSpline
 70
0
 71
1
 72
4
 73
2
 74
0
 40
0.0
 40
0.0
 40
1.0
 40
1.0
 10
160.24123686043615
 20
-50.70290900833261
 30
0.0
 10
160.58726968174204
 20
-50.84986161245103
 30
0.0
  0
SPLINE
  5
13C
330
17
100
AcDbEntity
  8
HIDDEN
100
AcDbSpline
 70
0
 71
1
 72
4
 73
2
 74
0
 40
0.0
 40
0.0
 40
1.0
 40
1.0
 10
160.24123686043623
 20
50.70290900833263
 30
0.0
 10
160.58726968174204
 20
50.849861612451015
 30
0.0
  0
LINE
  5
13D
330
17
100
AcDbEntity
  8
HIDDEN
100
AcDbLine
 10
163.27833344463693
 20
52.85
 30
0.0
 11
165.45002693965517
 21
52.85
 31
0.0
  0
SPLINE
  5
13E
330
17
100
AcDbEntity
  8
HIDDEN
100
AcDbSpline
 70
0
 71
1
 72
4
 73
2
 74
0
 40
0.0
 40
0.0
 40
1.0
 40
1.0
 10
118.46119300819662
 20
81.32801358234292
 30
0.0
 10
124.89931685294944
 20
87.0
 30
0.0
  0
SPLINE
  5
13F
330
17
100
AcDbEntity
  8
HIDDEN
100
AcDbSpline
 70
0
 71
1
 72
4
 73
2
 74
0
 40
0.0
 40
0.0
 40
1.0
 40
1.0
 10
-118.4611930081966
 20
81.32801358234292
 30
0.0
 10
-124.89931685294943
 20
87.0
 30
0.0
  0
SPLINE
  5
140
330
17
100
AcDbEntity
  8
HIDDEN
100
AcDbSpline
 70
0
 71
1
 72
4
 73
2
 74
0
 40
0.0
 40
0.0
 40
1.0
 40
1.0
 10
-160.24123686043612
 20
-50.70290900833258
 30
0.0
 10
-167.0
 20
-53.573208537233306
 30
0.0
  0
SPLINE
  5
141
330
17
100
AcDbEntity
  8
HIDDEN
100
AcDbSpline
 70
0
 71
1
 72
4
 73
2
 74
0
 40
0.0
 40
0.0
 40
1.0
 40
1.0
 10
-160.24123686043563
 20
50.70290900833238
 30
0.0
 10
-166.99999999999997
 20
53.5732085372333
 30
0.0
  0
ENDSEC
  0
SECTION
  2
OBJECTS
  0
DICTIONARY
  5
A
330
0
100
AcDbDictionary
281
1
  3
ACAD_COLOR
350
B
  3
ACAD_GROUP
350
C
  3
ACAD_LAYOUT
350
D
  3
ACAD_MATERIAL
350
E
  3
ACAD_MLEADERSTYLE
350
F
  3
ACAD_MLINESTYLE
350
10
  3
ACAD_PLOTSETTINGS
350
11
  3
ACAD_PLOTSTYLENAME
350
12
  3
ACAD_SCALELIST
350
14
  3
ACAD_TABLESTYLE
350
15
  3
ACAD_VISUALSTYLE
350
16
  3
EZDXF_META
350
2D
  0
DICTIONARY
  5
B
330
A
100
AcDbDictionary
281
1
  0
DICTIONARY
  5
C
330
A
100
AcDbDictionary
281
1
  0
DICTIONARY
  5
D
330
A
100
AcDbDictionary
281
1
  3
Model
350
1A
  3
Layout1
350
1E
  0
DICTIONARY
  5
E
330
A
100
AcDbDictionary
281
1
  3
ByBlock
350
1F
  3
ByLayer
350
20
  3
Global
350
21
  0
DICTIONARY
  5
F
330
A
100
AcDbDictionary
281
1
  3
Standard
350
2C
  0
DICTIONARY
  5
10
330
A
100
AcDbDictionary
281
1
  3
Standard
350
22
  0
DICTIONARY
  5
11
330
A
100
AcDbDictionary
281
1
  0
ACDBDICTIONARYWDFLT
  5
12
330
A
100
AcDbDictionary
281
1
  3
Normal
350
13
100
AcDbDictionaryWithDefault
340
13
  0
ACDBPLACEHOLDER
  5
13
330
12
  0
DICTIONARY
  5
14
330
A
100
AcDbDictionary
281
1
  0
DICTIONARY
  5
15
330
A
100
AcDbDictionary
281
1
  0
DICTIONARY
  5
16
330
A
100
AcDbDictionary
281
1
  0
LAYOUT
  5
1A
330
D
100
AcDbPlotSettings
  1

  4
A3
  6

 40
7.5
 41
20.0
 42
7.5
 43
20.0
 44
420.0
 45
297.0
 46
0.0
 47
0.0
 48
0.0
 49
0.0
140
0.0
141
0.0
142
1.0
143
1.0
 70
1024
 72
1
 73
0
 74
5
  7

 75
16
 76
0
 77
2
 78
300
147
1.0
148
0.0
149
0.0
100
AcDbLayout
  1
Model
 70
1
 71
0
 10
0.0
 20
0.0
 11
420.0
 21
297.0
 12
0.0
 22
0.0
 32
0.0
 14
1e+20
 24
1e+20
 34
1e+20
 15
-1e+20
 25
-1e+20
 35
-1e+20
146
0.0
 13
0.0
 23
0.0
 33
0.0
 16
1.0
 26
0.0
 36
0.0
 17
0.0
 27
1.0
 37
0.0
 76
1
330
17
  0
LAYOUT
  5
1E
330
D
100
AcDbPlotSettings
  1

  4
A3
  6

 40
7.5
 41
20.0
 42
7.5
 43
20.0
 44
420.0
 45
297.0
 46
0.0
 47
0.0
 48
0.0
 49
0.0
140
0.0
141
0.0
142
1.0
143
1.0
 70
0
 72
1
 73
0
 74
5
  7

 75
16
 76
0
 77
2
 78
300
147
1.0
148
0.0
149
0.0
100
AcDbLayout
  1
Layout1
 70
1
 71
1
 10
0.0
 20
0.0
 11
420.0
 21
297.0
 12
0.0
 22
0.0
 32
0.0
 14
1e+20
 24
1e+20
 34
1e+20
 15
-1e+20
 25
-1e+20
 35
-1e+20
146
0.0
 13
0.0
 23
0.0
 33
0.0
 16
1.0
 26
0.0
 36
0.0
 17
0.0
 27
1.0
 37
0.0
 76
1
330
1B
  0
MATERIAL
  5
1F
102
{ACAD_REACTORS
330
E
102
}
330
E
100
AcDbMaterial
  1
ByBlock
  2

 70
0
 40
1.0
 71
1
 41
1.0
 91
-1023410177
 42
1.0
 72
1
  3

 73
1
 74
1
 75
1
 44
0.5
 73
0
 45
1.0
 46
1.0
 77
1
  4

 78
1
 79
1
170
1
 48
1.0
171
1
  6

172
1
173
1
174
1
140
1.0
141
1.0
175
1
  7

176
1
177
1
178
1
143
1.0
179
1
  8

270
1
271
1
272
1
145
1.0
146
1.0
273
1
  9

274
1
275
1
276
1
 42
1.0
 72
1
  3

 73
1
 74
1
 75
1
 94
63
  0
MATERIAL
  5
20
102
{ACAD_REACTORS
330
E
102
}
330
E
100
AcDbMaterial
  1
ByLayer
  2

 70
0
 40
1.0
 71
1
 41
1.0
 91
-1023410177
 42
1.0
 72
1
  3

 73
1
 74
1
 75
1
 44
0.5
 73
0
 45
1.0
 46
1.0
 77
1
  4

 78
1
 79
1
170
1
 48
1.0
171
1
  6

172
1
173
1
174
1
140
1.0
141
1.0
175
1
  7

176
1
177
1
178
1
143
1.0
179
1
  8

270
1
271
1
272
1
145
1.0
146
1.0
273
1
  9

274
1
275
1
276
1
 42
1.0
 72
1
  3

 73
1
 74
1
 75
1
 94
63
  0
MATERIAL
  5
21
102
{ACAD_REACTORS
330
E
102
}
330
E
100
AcDbMaterial
  1
Global
  2

 70
0
 40
1.0
 71
1
 41
1.0
 91
-1023410177
 42
1.0
 72
1
  3

 73
1
 74
1
 75
1
 44
0.5
 73
0
 45
1.0
 46
1.0
 77
1
  4

 78
1
 79
1
170
1
 48
1.0
171
1
  6

172
1
173
1
174
1
140
1.0
141
1.0
175
1
  7

176
1
177
1
178
1
143
1.0
179
1
  8

270
1
271
1
272
1
145
1.0
146
1.0
273
1
  9

274
1
275
1
276
1
 42
1.0
 72
1
  3

 73
1
 74
1
 75
1
 94
63
  0
MLINESTYLE
  5
22
102
{ACAD_REACTORS
330
10
102
}
330
10
100
AcDbMlineStyle
  2
Standard
 70
0
  3

 62
256
 51
90.0
 52
90.0
 71
2
 49
0.5
 62
256
  6
BYLAYER
 49
-0.5
 62
256
  6
BYLAYER
  0
MLEADERSTYLE
  5
2C
102
{ACAD_REACTORS
330
F
102
}
330
F
100
AcDbMLeaderStyle
179
2
170
2
171
1
172
0
 90
2
 40
0.0
 41
0.0
173
1
 91
-1056964608
 92
-2
290
1
 42
2.0
291
1
 43
8.0
  3
Standard
 44
4.0
300

342
29
174
1
175
1
176
0
178
1
 93
-1056964608
 45
4.0
292
0
297
0
 46
4.0
 94
-1056964608
 47
1.0
 49
1.0
140
1.0
294
1
141
0.0
177
0
142
1.0
295
0
296
0
143
3.75
271
0
272
9
273
9
  0
DICTIONARY
  5
2D
330
A
100
AcDbDictionary
280
1
281
1
  3
CREATED_BY_EZDXF
350
2E
  3
WRITTEN_BY_EZDXF
350
145
  0
DICTIONARYVAR
  5
2E
330
2D
100
DictionaryVariables
280
0
  1
1.4.4 @ 2026-10-07T09:44:17.104878+00:00
  0
DICTIONARYVAR
  5
145
330
2D
100
DictionaryVariables
280
0
  1
1.4.4 @ 2026-10-07T09:44:18.194305+00:00
  0
ENDSEC
  0
EOF
