  0
SECTION
  2
HEADER
  9
$ACADVER
  1
AC1027
  9
$ACADMAINTVER
 70
105
  9
$DWGCODEPAGE
  3
ANSI_1252
  9
$LASTSAVEDBY
  1
ezdxf
  9
$REQUIREDVERSIONS
160
0
  9
$INSBASE
 10
0.0
 20
0.0
 30
0.0
  9
$EXTMIN
 10
1e+20
 20
1e+20
 30
1e+20
  9
$EXTMAX
 10
-1e+20
 20
-1e+20
 30
-1e+20
  9
$LIMMIN
 10
0.0
 20
0.0
  9
$LIMMAX
 10
420.0
 20
297.0
  9
$ORTHOMODE
 70
0
  9
$REGENMODE
 70
1
  9
$FILLMODE
 70
1
  9
$QTEXTMODE
 70
0
  9
$MIRRTEXT
 70
1
  9
$LTSCALE
 40
1.0
  9
$ATTMODE
 70
1
  9
$TEXTSIZE
 40
2.5
  9
$TRACEWID
 40
1.0
  9
$TEXTSTYLE
  7
Standard
  9
$CLAYER
  8
0
  9
$CELTYPE
  6
ByLayer
  9
$CECOLOR
 62
256
  9
$CELTSCALE
 40
1.0
  9
$DISPSILH
 70
0
  9
$DIMSCALE
 40
1.0
  9
$DIMASZ
 40
2.5
  9
$DIMEXO
 40
0.625
  9
$DIMDLI
 40
3.75
  9
$DIMRND
 40
0.0
  9
$DIMDLE
 40
0.0
  9
$DIMEXE
 40
1.25
  9
$DIMTP
 40
0.0
  9
$DIMTM
 40
0.0
  9
$DIMTXT
 40
2.5
  9
$DIMCEN
 40
2.5
  9
$DIMTSZ
 40
0.0
  9
$DIMTOL
 70
0
  9
$DIMLIM
 70
0
  9
$DIMTIH
 70
0
  9
$DIMTOH
 70
0
  9
$DIMSE1
 70
0
  9
$DIMSE2
 70
0
  9
$DIMTAD
 70
1
  9
$DIMZIN
 70
8
  9
$DIMBLK
  1

  9
$DIMASO
 70
1
  9
$DIMSHO
 70
1
  9
$DIMPOST
  1

  9
$DIMAPOST
  1

  9
$DIMALT
 70
0
  9
$DIMALTD
 70
3
  9
$DIMALTF
 40
0.03937007874
  9
$DIMLFAC
 40
1.0
  9
$DIMTOFL
 70
1
  9
$DIMTVP
 40
0.0
  9
$DIMTIX
 70
0
  9
$DIMSOXD
 70
0
  9
$DIMSAH
 70
0
  9
$DIMBLK1
  1

  9
$DIMBLK2
  1

  9
$DIMSTYLE
  2
ISO-25
  9
$DIMCLRD
 70
0
  9
$DIMCLRE
 70
0
  9
$DIMCLRT
 70
0
  9
$DIMTFAC
 40
1.0
  9
$DIMGAP
 40
0.625
  9
$DIMJUST
 70
0
  9
$DIMSD1
 70
0
  9
$DIMSD2
 70
0
  9
$DIMTOLJ
 70
0
  9
$DIMTZIN
 70
8
  9
$DIMALTZ
 70
0
  9
$DIMALTTZ
 70
0
  9
$DIMUPT
 70
0
  9
$DIMDEC
 70
2
  9
$DIMTDEC
 70
2
  9
$DIMALTU
 70
2
  9
$DIMALTTD
 70
3
  9
$DIMTXSTY
  7
Standard
  9
$DIMAUNIT
 70
0
  9
$DIMADEC
 70
0
  9
$DIMALTRND
 40
0.0
  9
$DIMAZIN
 70
0
  9
$DIMDSEP
 70
44
  9
$DIMATFIT
 70
3
  9
$DIMFRAC
 70
0
  9
$DIMLDRBLK
  1

  9
$DIMLUNIT
 70
2
  9
$DIMLWD
 70
-2
  9
$DIMLWE
 70
-2
  9
$DIMTMOVE
 70
0
  9
$DIMFXL
 40
1.0
  9
$DIMFXLON
 70
0
  9
$DIMJOGANG
 40
0.785398163397
  9
$DIMTFILL
 70
0
  9
$DIMTFILLCLR
 70
0
  9
$DIMARCSYM
 70
0
  9
$DIMLTYPE
  6

  9
$DIMLTEX1
  6

  9
$DIMLTEX2
  6

  9
$DIMTXTDIRECTION
 70
0
  9
$LUNITS
 70
2
  9
$LUPREC
 70
4
  9
$SKETCHINC
 40
1.0
  9
$FILLETRAD
 40
10.0
  9
$AUNITS
 70
0
  9
$AUPREC
 70
2
  9
$MENU
  1
.
  9
$ELEVATION
 40
0.0
  9
$PELEVATION
 40
0.0
  9
$THICKNESS
 40
0.0
  9
$LIMCHECK
 70
0
  9
$CHAMFERA
 40
0.0
  9
$CHAMFERB
 40
0.0
  9
$CHAMFERC
 40
0.0
  9
$CHAMFERD
 40
0.0
  9
$SKPOLY
 70
0
  9
$TDCREATE
 40
2461322.559664352
  9
$TDUCREATE
 40
2458532.153996898
  9
$TDUPDATE
 40
2461322.559664352
  9
$TDUUPDATE
 40
2458532.1544311
  9
$TDINDWG
 40
0.0
  9
$TDUSRTIMER
 40
0.0
  9
$USRTIMER
 70
1
  9
$ANGBASE
 50
0.0
  9
$ANGDIR
 70
0
  9
$PDMODE
 70
0
  9
$PDSIZE
 40
0.0
  9
$PLINEWID
 40
0.0
  9
$SPLFRAME
 70
0
  9
$SPLINETYPE
 70
6
  9
$SPLINESEGS
 70
8
  9
$HANDSEED
  5
DA
  9
$SURFTAB1
 70
6
  9
$SURFTAB2
 70
6
  9
$SURFTYPE
 70
6
  9
$SURFU
 70
6
  9
$SURFV
 70
6
  9
$UCSBASE
  2

  9
$UCSNAME
  2

  9
$UCSORG
 10
0.0
 20
0.0
 30
0.0
  9
$UCSXDIR
 10
1.0
 20
0.0
 30
0.0
  9
$UCSYDIR
 10
0.0
 20
1.0
 30
0.0
  9
$UCSORTHOREF
  2

  9
$UCSORTHOVIEW
 70
0
  9
$UCSORGTOP
 10
0.0
 20
0.0
 30
0.0
  9
$UCSORGBOTTOM
 10
0.0
 20
0.0
 30
0.0
  9
$UCSORGLEFT
 10
0.0
 20
0.0
 30
0.0
  9
$UCSORGRIGHT
 10
0.0
 20
0.0
 30
0.0
  9
$UCSORGFRONT
 10
0.0
 20
0.0
 30
0.0
  9
$UCSORGBACK
 10
0.0
 20
0.0
 30
0.0
  9
$PUCSBASE
  2

  9
$PUCSNAME
  2

  9
$PUCSORG
 10
0.0
 20
0.0
 30
0.0
  9
$PUCSXDIR
 10
1.0
 20
0.0
 30
0.0
  9
$PUCSYDIR
 10
0.0
 20
1.0
 30
0.0
  9
$PUCSORTHOREF
  2

  9
$PUCSORTHOVIEW
 70
0
  9
$PUCSORGTOP
 10
0.0
 20
0.0
 30
0.0
  9
$PUCSORGBOTTOM
 10
0.0
 20
0.0
 30
0.0
  9
$PUCSORGLEFT
 10
0.0
 20
0.0
 30
0.0
  9
$PUCSORGRIGHT
 10
0.0
 20
0.0
 30
0.0
  9
$PUCSORGFRONT
 10
0.0
 20
0.0
 30
0.0
  9
$PUCSORGBACK
 10
0.0
 20
0.0
 30
0.0
  9
$USERI1
 70
0
  9
$USERI2
 70
0
  9
$USERI3
 70
0
  9
$USERI4
 70
0
  9
$USERI5
 70
0
  9
$USERR1
 40
0.0
  9
$USERR2
 40
0.0
  9
$USERR3
 40
0.0
  9
$USERR4
 40
0.0
  9
$USERR5
 40
0.0
  9
$WORLDVIEW
 70
1
  9
$SHADEDGE
 70
3
  9
$SHADEDIF
 70
70
  9
$TILEMODE
 70
1
  9
$MAXACTVP
 70
64
  9
$PINSBASE
 10
0.0
 20
0.0
 30
0.0
  9
$PLIMCHECK
 70
0
  9
$PEXTMIN
 10
1e+20
 20
1e+20
 30
1e+20
  9
$PEXTMAX
 10
-1e+20
 20
-1e+20
 30
-1e+20
  9
$PLIMMIN
 10
0.0
 20
0.0
  9
$PLIMMAX
 10
420.0
 20
297.0
  9
$UNITMODE
 70
0
  9
$VISRETAIN
 70
1
  9
$PLINEGEN
 70
0
  9
$PSLTSCALE
 70
1
  9
$TREEDEPTH
 70
3020
  9
$CMLSTYLE
  2
Standard
  9
$CMLJUST
 70
0
  9
$CMLSCALE
 40
20.0
  9
$PROXYGRAPHICS
 70
1
  9
$MEASUREMENT
 70
1
  9
$CELWEIGHT
370
-1
  9
$ENDCAPS
280
0
  9
$JOINSTYLE
280
0
  9
$LWDISPLAY
290
0
  9
$INSUNITS
 70
4
  9
$HYPERLINKBASE
  1

  9
$STYLESHEET
  1

  9
$XEDIT
290
1
  9
$CEPSNTYPE
380
0
  9
$PSTYLEMODE
290
1
  9
$FINGERPRINTGUID
  2
{A74114BC-6FA0-4521-B2E0-6FC2E0D3854D}
  9
$VERSIONGUID
  2
{1B61A0B4-A8E4-4167-A8B7-8A76E156061B}
  9
$EXTNAMES
290
1
  9
$PSVPSCALE
 40
0.0
  9
$OLESTARTUP
290
0
  9
$SORTENTS
280
127
  9
$INDEXCTL
280
0
  9
$HIDETEXT
280
1
  9
$XCLIPFRAME
280
1
  9
$HALOGAP
280
0
  9
$OBSCOLOR
 70
257
  9
$OBSLTYPE
280
0
  9
$INTERSECTIONDISPLAY
280
0
  9
$INTERSECTIONCOLOR
 70
257
  9
$DIMASSOC
280
2
  9
$PROJECTNAME
  1

  9
$CAMERADISPLAY
290
0
  9
$LENSLENGTH
 40
50.0
  9
$CAMERAHEIGHT
 40
0.0
  9
$STEPSPERSEC
 40
24.0
  9
$STEPSIZE
 40
100.0
  9
$3DDWFPREC
 40
2.0
  9
$PSOLWIDTH
 40
0.005
  9
$PSOLHEIGHT
 40
0.08
  9
$LOFTANG1
 40
1.570796326795
  9
$LOFTANG2
 40
1.570796326795
  9
$LOFTMAG1
 40
0.0
  9
$LOFTMAG2
 40
0.0
  9
$LOFTPARAM
 70
7
  9
$LOFTNORMALS
280
1
  9
$LATITUDE
 40
37.795
  9
$LONGITUDE
 40
-122.394
  9
$NORTHDIRECTION
 40
0.0
  9
$TIMEZONE
 70
-8000
  9
$LIGHTGLYPHDISPLAY
280
1
  9
$TILEMODELIGHTSYNCH
280
1
  9
$CMATERIAL
347
20
  9
$SOLIDHIST
280
0
  9
$SHOWHIST
280
1
  9
$DWFFRAME
280
2
  9
$DGNFRAME
280
2
  9
$REALWORLDSCALE
290
1
  9
$INTERFERECOLOR
 62
256
  9
$CSHADOW
280
0
  9
$SHADOWPLANELOCATION
 40
0.0
  0
ENDSEC
  0
SECTION
  2
CLASSES
  0
CLASS
  1
ACDBDICTIONARYWDFLT
  2
AcDbDictionaryWithDefault
  3
ObjectDBX Classes
 90
0
 91
0
280
0
281
0
  0
CLASS
  1
SUN
  2
AcDbSun
  3
SCENEOE
 90
1153
 91
0
280
0
281
0
  0
CLASS
  1
VISUALSTYLE
  2
AcDbVisualStyle
  3
ObjectDBX Classes
 90
4095
 91
0
280
0
281
0
  0
CLASS
  1
MATERIAL
  2
AcDbMaterial
  3
ObjectDBX Classes
 90
1153
 91
0
280
0
281
0
  0
CLASS
  1
SCALE
  2
AcDbScale
  3
ObjectDBX Classes
 90
1153
 91
0
280
0
281
0
  0
CLASS
  1
TABLESTYLE
  2
AcDbTableStyle
  3
ObjectDBX Classes
 90
4095
 91
0
280
0
281
0
  0
CLASS
  1
MLEADERSTYLE
  2
AcDbMLeaderStyle
  3
ACDB_MLEADERSTYLE_CLASS
 90
4095
 91
0
280
0
281
0
  0
CLASS
  1
DICTIONARYVAR
  2
AcDbDictionaryVar
  3
ObjectDBX Classes
 90
0
 91
0
280
0
281
0
  0
CLASS
  1
CELLSTYLEMAP
  2
AcDbCellStyleMap
  3
ObjectDBX Classes
 90
1152
 91
0
280
0
281
0
  0
CLASS
  1
MENTALRAYRENDERSETTINGS
  2
AcDbMentalRayRenderSettings
  3
SCENEOE
 90
1024
 91
0
280
0
281
0
  0
CLASS
  1
ACDBDETAILVIEWSTYLE
  2
AcDbDetailViewStyle
  3
ObjectDBX Classes
 90
1025
 91
0
280
0
281
0
  0
CLASS
  1
ACDBSECTIONVIEWSTYLE
  2
AcDbSectionViewStyle
  3
ObjectDBX Classes
 90
1025
 91
0
280
0
281
0
  0
CLASS
  1
RASTERVARIABLES
  2
AcDbRasterVariables
  3
ISM
 90
0
 91
0
280
0
281
0
  0
CLASS
  1
ACDBPLACEHOLDER
  2
AcDbPlaceHolder
  3
ObjectDBX Classes
 90
0
 91
0
280
0
281
0
  0
CLASS
  1
LAYOUT
  2
AcDbLayout
  3
ObjectDBX Classes
 90
0
 91
0
280
0
281
0
  0
ENDSEC
  0
SECTION
  2
TABLES
  0
TABLE
  2
VPORT
  5
8
330
0
100
AcDbSymbolTable
 70
1
  0
VPORT
  5
D6
330
8
100
AcDbSymbolTableRecord
100
AcDbViewportTableRecord
  2
*Active
 70
0
 10
0.0
 20
0.0
 11
1.0
 21
1.0
 12
0.04467693971159292
 22
-0.5879566136215004
 13
0.0
 23
0.0
 14
0.5
 24
0.5
 15
0.5
 25
0.5
 16
0.0
 26
0.0
 36
1.0
 17
0.0
 27
0.0
 37
0.0
 40
176.89782781562803
 41
1.34
 42
50.0
 43
0.0
 44
0.0
 50
0.0
 51
0.0
 71
0
 72
1000
 73
1
 74
3
 75
0
 76
0
 77
0
 78
0
281
0
 65
1
110
0.0
120
0.0
130
0.0
111
1.0
121
0.0
131
0.0
112
0.0
122
1.0
132
0.0
 79
0
146
0.0
  0
ENDTAB
  0
TABLE
  2
LTYPE
  5
2
330
0
100
AcDbSymbolTable
 70
4
  0
LTYPE
  5
24
330
2
100
AcDbSymbolTableRecord
100
AcDbLinetypeTableRecord
  2
ByBlock
 70
0
  3

 72
65
 73
0
 40
0.0
  0
LTYPE
  5
25
330
2
100
AcDbSymbolTableRecord
100
AcDbLinetypeTableRecord
  2
ByLayer
 70
0
  3

 72
65
 73
0
 40
0.0
  0
LTYPE
  5
26
330
2
100
AcDbSymbolTableRecord
100
AcDbLinetypeTableRecord
  2
Continuous
 70
0
  3

 72
65
 73
0
 40
0.0
  0
LTYPE
  5
30
330
2
100
AcDbSymbolTableRecord
100
AcDbLinetypeTableRecord
  2
ACAD_ISO02W100
 70
0
  3
ISO dash __ __ __ __ __ __ __ __ __ __ __ __ __
 72
65
 73
2
 40
15.0
 49
12.0
 74
0
 49
-3.0
 74
0
  0
ENDTAB
  0
TABLE
  2
LAYER
  5
1
330
0
100
AcDbSymbolTable
 70
4
  0
LAYER
  5
27
330
1
100
AcDbSymbolTableRecord
100
AcDbLayerTableRecord
  2
0
 70
0
 62
7
  6
Continuous
370
-3
390
13
347
21
  0
LAYER
  5
28
330
1
100
AcDbSymbolTableRecord
100
AcDbLayerTableRecord
  2
Defpoints
 70
0
 62
7
  6
Continuous
290
0
370
-3
390
13
347
21
  0
LAYER
  5
2F
330
1
100
AcDbSymbolTableRecord
100
AcDbLayerTableRecord
  2
VISIBLE
 70
0
 62
7
  6
Continuous
370
25
390
13
347
21
  0
LAYER
  5
31
330
1
100
AcDbSymbolTableRecord
100
AcDbLayerTableRecord
  2
HIDDEN
 70
0
 62
7
  6
ACAD_ISO02W100
370
13
390
13
347
21
  0
ENDTAB
  0
TABLE
  2
STYLE
  5
5
330
0
100
AcDbSymbolTable
 70
1
  0
STYLE
  5
29
330
5
100
AcDbSymbolTableRecord
100
AcDbTextStyleTableRecord
  2
Standard
 70
0
 40
0.0
 41
1.0
 50
0.0
 71
0
 42
2.5
  3
txt
  4

  0
ENDTAB
  0
TABLE
  2
VIEW
  5
7
330
0
100
AcDbSymbolTable
 70
0
  0
ENDTAB
  0
TABLE
  2
UCS
  5
6
330
0
100
AcDbSymbolTable
 70
0
  0
ENDTAB
  0
TABLE
  2
APPID
  5
3
330
0
100
AcDbSymbolTable
 70
3
  0
APPID
  5
2A
330
3
100
AcDbSymbolTableRecord
100
AcDbRegAppTableRecord
  2
ACAD
 70
0
  0
APPID
  5
D7
330
3
100
AcDbSymbolTableRecord
100
AcDbRegAppTableRecord
  2
HATCHBACKGROUNDCOLOR
 70
0
  0
APPID
  5
D8
330
3
100
AcDbSymbolTableRecord
100
AcDbRegAppTableRecord
  2
EZDXF
 70
0
  0
ENDTAB
  0
TABLE
  2
DIMSTYLE
  5
4
330
0
100
AcDbSymbolTable
 70
1
100
AcDbDimStyleTable
  0
DIMSTYLE
105
2B
330
4
100
AcDbSymbolTableRecord
100
AcDbDimStyleTableRecord
  2
Standard
 70
0
 40
1.0
 41
2.5
 42
0.625
 43
3.75
 44
1.25
 45
0.0
 46
0.0
 47
0.0
 48
0.0
 49
2.5
140
2.5
141
2.5
142
0.0
143
0.03937007874
144
1.0
145
0.0
146
1.0
147
0.625
148
0.0
 69
0
 70
0
 71
0
 72
0
 73
0
 74
0
 75
0
 76
0
 77
1
 78
8
 79
3
170
0
171
3
172
1
173
0
174
0
175
0
176
0
177
0
178
0
179
2
271
2
272
2
273
2
274
3
275
0
276
0
277
2
278
44
279
0
280
0
281
0
282
0
283
0
284
8
285
0
286
0
288
0
289
3
290
0
371
-2
372
-2
  0
ENDTAB
  0
TABLE
  2
BLOCK_RECORD
  5
9
330
0
100
AcDbSymbolTable
 70
2
  0
BLOCK_RECORD
  5
17
330
9
100
AcDbSymbolTableRecord
100
AcDbBlockTableRecord
  2
*Model_Space
340
1A
 70
0
280
1
281
0
  0
BLOCK_RECORD
  5
1B
330
9
100
AcDbSymbolTableRecord
100
AcDbBlockTableRecord
  2
*Paper_Space
340
1E
 70
0
280
1
281
0
  0
ENDTAB
  0
ENDSEC
  0
SECTION
  2
BLOCKS
  0
BLOCK
  5
18
330
17
100
AcDbEntity
  8
0
100
AcDbBlockBegin
  2
*Model_Space
 70
0
 10
0.0
 20
0.0
 30
0.0
  3
*Model_Space
  1

  0
ENDBLK
  5
19
330
17
100
AcDbEntity
  8
0
100
AcDbBlockEnd
  0
BLOCK
  5
1C
330
1B
100
AcDbEntity
  8
0
100
AcDbBlockBegin
  2
*Paper_Space
 70
0
 10
0.0
 20
0.0
 30
0.0
  3
*Paper_Space
  1

  0
ENDBLK
  5
1D
330
1B
100
AcDbEntity
  8
0
100
AcDbBlockEnd
  0
ENDSEC
  0
SECTION
  2
ENTITIES
  0
LINE
  5
32
330
17
100
AcDbEntity
  8
VISIBLE
100
AcDbLine
 10
-151.8247527113621
 20
41.0179653878619
 30
0.0
 11
-145.62380730133927
 21
16.220709808554883
 31
0.0
  0
SPLINE
  5
33
330
17
100
AcDbEntity
  8
VISIBLE
100
AcDbSpline
 70
0
 71
1
 72
4
 73
2
 74
0
 40
0.0
 40
0.0
 40
1.0
 40
1.0
 10
-145.62380730133927
 20
16.220709808554876
 30
0.0
 10
-143.44551006730012
 20
18.86630363209786
 30
0.0
  0
LINE
  5
34
330
17
100
AcDbEntity
  8
VISIBLE
100
AcDbLine
 10
-149.77608930178735
 20
43.240753774194786
 30
0.0
 11
-143.44551006730012
 21
18.86630363209786
 31
0.0
  0
SPLINE
  5
35
330
17
100
AcDbEntity
  8
VISIBLE
100
AcDbSpline
 70
0
 71
1
 72
4
 73
2
 74
0
 40
0.0
 40
0.0
 40
1.0
 40
1.0
 10
-151.82475271136212
 20
41.017965387861906
 30
0.0
 10
-149.77608930178735
 20
43.240753774194786
 30
0.0
  0
ELLIPSE
  5
36
330
17
100
AcDbEntity
  8
VISIBLE
100
AcDbEllipse
 10
-145.88632469883117
 20
41.512964626914574
 30
0.0
 11
-6.0
 21
8.154716510502503e-17
 31
0.0
 40
0.5773502691896258
 41
-6.767774639608706
 42
-6.139800527414662
  0
ELLIPSE
  5
37
330
17
100
AcDbEntity
  8
VISIBLE
100
AcDbEllipse
 10
-139.68537928880835
 20
16.715709047607547
 30
0.0
 11
-6.0
 21
8.154716510502503e-17
 31
0.0
 40
0.5773502691896258
 41
-6.139800527414662
 42
-5.497787143782138
  0
LINE
  5
38
330
17
100
AcDbEntity
  8
VISIBLE
100
AcDbLine
 10
-143.9280199759276
 20
14.266219304824372
 30
0.0
 11
26.83113701143533
 21
-84.3216259484232
 31
0.0
  0
ELLIPSE
  5
39
330
17
100
AcDbEntity
  8
VISIBLE
100
AcDbEllipse
 10
31.073777698554608
 20
-81.87213620564002
 30
0.0
 11
-6.0
 21
8.154716510502503e-17
 31
0.0
 40
0.5773502691896258
 41
-5.497787143782138
 42
-4.8557737601496145
  0
LINE
  5
3A
330
17
100
AcDbEntity
  8
VISIBLE
100
AcDbLine
 10
30.216413866807457
 20
-85.30068921723795
 30
0.0
 11
73.16652041843794
 21
-88.88080671894481
 31
0.0
  0
ELLIPSE
  5
3B
330
17
100
AcDbEntity
  8
VISIBLE
100
AcDbEllipse
 10
74.02388425018509
 20
-85.45225370734688
 30
0.0
 11
-6.0
 21
8.154716510502503e-17
 31
0.0
 40
0.5773502691896258
 41
-4.8557737601496145
 42
-3.9269908169872414
  0
LINE
  5
3C
330
17
100
AcDbEntity
  8
VISIBLE
100
AcDbLine
 10
78.26652493730438
 20
-87.90174345013004
 30
0.0
 11
150.12896538595044
 21
-46.41194411248079
 31
0.0
  0
ELLIPSE
  5
3D
330
17
100
AcDbEntity
  8
VISIBLE
100
AcDbEllipse
 10
139.68537928880832
 20
-19.16519879039065
 30
0.0
 11
-6.0
 21
8.154716510502503e-17
 31
0.0
 40
0.5773502691896258
 41
-2.9982078738248683
 42
-2.6299210089862064
  0
ELLIPSE
  5
3E
330
17
100
AcDbEntity
  8
VISIBLE
100
AcDbEllipse
 10
145.88632469883115
 20
-43.96245436969761
 30
0.0
 11
-6.0
 21
8.154716510502503e-17
 31
0.0
 40
0.5773502691896258
 41
-3.926990816987242
 42
-2.9982078738248688
  0
LINE
  5
3F
330
17
100
AcDbEntity
  8
VISIBLE
100
AcDbLine
 10
151.82475271136204
 20
-43.467455130644936
 30
0.0
 11
145.6238073013392
 21
-18.67019955133797
 31
0.0
  0
LINE
  5
40
330
17
100
AcDbEntity
  8
VISIBLE
100
AcDbLine
 10
-15.909902576697347
 20
24.127473966414364
 30
0.0
 11
-41.79001076812499
 21
9.185586535436974
 31
0.0
  0
LINE
  5
41
330
17
100
AcDbEntity
  8
VISIBLE
100
AcDbLine
 10
-23.122391744800137
 20
28.29160652914577
 30
0.0
 11
-49.00249993622778
 21
13.34971909816838
 31
0.0
  0
LINE
  5
42
330
17
100
AcDbEntity
  8
VISIBLE
100
AcDbLine
 10
-30.334880912902914
 20
32.45573909187717
 30
0.0
 11
-56.21498910433056
 21
17.51385166089978
 31
0.0
  0
LINE
  5
43
330
17
100
AcDbEntity
  8
VISIBLE
100
AcDbLine
 10
-37.547370081005695
 20
36.61987165460857
 30
0.0
 11
-63.42747827243334
 21
21.67798422363118
 31
0.0
  0
LINE
  5
44
330
17
100
AcDbEntity
  8
VISIBLE
100
AcDbLine
 10
-44.75985924910849
 20
40.78400421733998
 30
0.0
 11
-70.63996744053613
 21
25.842116786362585
 31
0.0
  0
LINE
  5
45
330
17
100
AcDbEntity
  8
VISIBLE
100
AcDbLine
 10
-51.97234841721128
 20
44.94813678007139
 30
0.0
 11
-77.85245660863893
 21
30.00624934909399
 31
0.0
  0
ELLIPSE
  5
46
330
17
100
AcDbEntity
  8
VISIBLE
100
AcDbEllipse
 10
-137.51184889190532
 20
19.38000427631685
 30
0.0
 11
-6.0
 21
8.154716510502503e-17
 31
0.0
 40
0.5773502691896258
 41
-6.13434374503506
 42
-5.497787143782138
  0
ELLIPSE
  5
47
330
17
100
AcDbEntity
  8
VISIBLE
100
AcDbEllipse
 10
-143.84242812639258
 20
43.75445441841377
 30
0.0
 11
-6.0
 21
8.154716510502503e-17
 31
0.0
 40
0.5773502691896258
 41
-6.767770393046728
 42
-6.13434374503506
  0
ELLIPSE
  5
48
330
17
100
AcDbEntity
  8
VISIBLE
100
AcDbEllipse
 10
-143.84242812639258
 20
43.75445441841377
 30
0.0
 11
-6.0
 21
8.154716510502503e-17
 31
0.0
 40
0.5773502691896258
 41
-0.7853981633974483
 42
-0.4845850858671419
  0
LINE
  5
49
330
17
100
AcDbEntity
  8
VISIBLE
100
AcDbLine
 10
-77.90625845370876
 20
86.72169921383698
 30
0.0
 11
-148.08506881351187
 21
46.20394416119696
 31
0.0
  0
LINE
  5
4A
330
17
100
AcDbEntity
  8
VISIBLE
100
AcDbLine
 10
-141.7544895790246
 20
16.93051453353367
 30
0.0
 11
27.20319102680388
 21
-80.61724784589623
 31
0.0
  0
ELLIPSE
  5
4B
330
17
100
AcDbEntity
  8
VISIBLE
100
AcDbEllipse
 10
-73.66361776658947
 20
84.2722094710538
 30
0.0
 11
-6.0
 21
8.154716510502503e-17
 31
0.0
 40
0.5773502691896258
 41
-1.7196378889394222
 42
-0.7853981633974483
  0
ELLIPSE
  5
4C
330
17
100
AcDbEntity
  8
VISIBLE
100
AcDbEllipse
 10
31.44583171392317
 20
-78.16775810311304
 30
0.0
 11
-6.0
 21
8.154716510502503e-17
 31
0.0
 40
0.5773502691896258
 41
-5.497787143782138
 42
-4.861230542529218
  0
LINE
  5
4D
330
17
100
AcDbEntity
  8
VISIBLE
100
AcDbLine
 10
-30.556076098255076
 20
84.04304872279054
 30
0.0
 11
-72.77386215092132
 21
87.698010347948
 31
0.0
  0
LINE
  5
4E
330
17
100
AcDbEntity
  8
VISIBLE
100
AcDbLine
 10
30.556076098255
 20
-81.59355898000723
 30
0.0
 11
72.77386215092125
 21
-85.24852060516469
 31
0.0
  0
ELLIPSE
  5
4F
330
17
100
AcDbEntity
  8
VISIBLE
100
AcDbEllipse
 10
-31.445831713923223
 20
80.61724784589634
 30
0.0
 11
-6.0
 21
8.154716510502503e-17
 31
0.0
 40
0.5773502691896258
 41
-2.3561944901923444
 42
-1.7196378889394226
  0
ELLIPSE
  5
50
330
17
100
AcDbEntity
  8
VISIBLE
100
AcDbEllipse
 10
73.66361776658941
 20
-81.8227197282705
 30
0.0
 11
-6.0
 21
8.154716510502503e-17
 31
0.0
 40
0.5773502691896258
 41
-4.861230542529218
 42
-3.9269908169872414
  0
LINE
  5
51
330
17
100
AcDbEntity
  8
VISIBLE
100
AcDbLine
 10
141.7544895790246
 20
-14.48102479075041
 30
0.0
 11
-27.203191026803935
 21
83.06673758867953
 31
0.0
  0
LINE
  5
52
330
17
100
AcDbEntity
  8
VISIBLE
100
AcDbLine
 10
77.9062584537087
 20
-84.27220947105369
 30
0.0
 11
148.08506881351184
 21
-43.754454418413644
 31
0.0
  0
ELLIPSE
  5
53
330
17
100
AcDbEntity
  8
VISIBLE
100
AcDbEllipse
 10
137.51184889190532
 20
-16.93051453353359
 30
0.0
 11
-6.0
 21
8.154716510502503e-17
 31
0.0
 40
0.5773502691896258
 41
-2.62992838818385
 42
-2.356194490192345
  0
ELLIPSE
  5
54
330
17
100
AcDbEntity
  8
VISIBLE
100
AcDbEllipse
 10
137.51184889190532
 20
-16.93051453353359
 30
0.0
 11
-6.0
 21
8.154716510502503e-17
 31
0.0
 40
0.5773502691896258
 41
-2.992751091445265
 42
-2.62992838818385
  0
ELLIPSE
  5
55
330
17
100
AcDbEntity
  8
VISIBLE
100
AcDbEllipse
 10
143.84242812639255
 20
-41.30496467563047
 30
0.0
 11
-6.0
 21
8.154716510502503e-17
 31
0.0
 40
0.5773502691896258
 41
-3.926990816987241
 42
-2.9927510914452644
  0
LINE
  5
56
330
17
100
AcDbEntity
  8
VISIBLE
100
AcDbLine
 10
149.7760893017873
 20
-40.79126403141147
 30
0.0
 11
143.44551006730006
 21
-16.41681388931459
 31
0.0
  0
ELLIPSE
  5
57
330
17
100
AcDbEntity
  8
VISIBLE
100
AcDbEllipse
 10
52.891587232753736
 20
-79.28181800808215
 30
0.0
 11
2.1
 21
-2.854150778675876e-17
 31
0.0
 40
0.5773502691896258
 41
5.497787143782138
 42
6.283185307179586
  0
ELLIPSE
  5
58
330
17
100
AcDbEntity
  8
VISIBLE
100
AcDbEllipse
 10
52.891587232753736
 20
-79.28181800808215
 30
0.0
 11
2.1
 21
-2.854150778675876e-17
 31
0.0
 40
0.5773502691896258
 41
1.1102230246251565e-16
 42
3.141592653589793
  0
ELLIPSE
  5
59
330
17
100
AcDbEntity
  8
VISIBLE
100
AcDbEllipse
 10
52.891587232753736
 20
-79.28181800808215
 30
0.0
 11
2.1
 21
-2.854150778675876e-17
 31
0.0
 40
0.5773502691896258
 41
3.141592653589793
 42
5.497787143782138
  0
ELLIPSE
  5
5A
330
17
100
AcDbEntity
  8
VISIBLE
100
AcDbEllipse
 10
-139.44145724998722
 20
31.7617169980886
 30
0.0
 11
2.1
 21
-2.854150778675876e-17
 31
0.0
 40
0.5773502691896258
 41
5.497787143782138
 42
6.283185307179586
  0
ELLIPSE
  5
5B
330
17
100
AcDbEntity
  8
VISIBLE
100
AcDbEllipse
 10
-139.44145724998722
 20
31.7617169980886
 30
0.0
 11
2.1
 21
-2.854150778675876e-17
 31
0.0
 40
0.5773502691896258
 41
1.1102230246251565e-16
 42
3.141592653589793
  0
ELLIPSE
  5
5C
330
17
100
AcDbEntity
  8
VISIBLE
100
AcDbEllipse
 10
-139.44145724998722
 20
31.7617169980886
 30
0.0
 11
2.1
 21
-2.854150778675876e-17
 31
0.0
 40
0.5773502691896258
 41
3.141592653589793
 42
5.497787143782138
  0
ELLIPSE
  5
5D
330
17
100
AcDbEntity
  8
VISIBLE
100
AcDbEllipse
 10
139.44145724998717
 20
-29.312227255305313
 30
0.0
 11
2.1
 21
-2.854150778675876e-17
 31
0.0
 40
0.5773502691896258
 41
5.497787143782138
 42
6.283185307179586
  0
ELLIPSE
  5
5E
330
17
100
AcDbEntity
  8
VISIBLE
100
AcDbEllipse
 10
139.44145724998717
 20
-29.312227255305313
 30
0.0
 11
2.1
 21
-2.854150778675876e-17
 31
0.0
 40
0.5773502691896258
 41
1.1102230246251565e-16
 42
3.141592653589793
  0
ELLIPSE
  5
5F
330
17
100
AcDbEntity
  8
VISIBLE
100
AcDbEllipse
 10
139.44145724998717
 20
-29.312227255305313
 30
0.0
 11
2.1
 21
-2.854150778675876e-17
 31
0.0
 40
0.5773502691896258
 41
3.141592653589793
 42
5.497787143782138
  0
LINE
  5
60
330
17
100
AcDbEntity
  8
VISIBLE
100
AcDbLine
 10
-15.90990257669734
 20
26.576963709197535
 30
0.0
 11
-13.7885822331377
 21
25.352218837805946
 31
0.0
  0
LINE
  5
61
330
17
100
AcDbEntity
  8
VISIBLE
100
AcDbLine
 10
-13.788582233137692
 20
25.352218837805953
 30
0.0
 11
-41.79001076812498
 21
9.185586535436975
 31
0.0
  0
LINE
  5
62
330
17
100
AcDbEntity
  8
VISIBLE
100
AcDbLine
 10
-43.91133111168463
 20
10.41033140682856
 30
0.0
 11
-41.790010768124986
 21
9.185586535436972
 31
0.0
  0
LINE
  5
63
330
17
100
AcDbEntity
  8
VISIBLE
100
AcDbLine
 10
-15.909902576697338
 20
26.576963709197543
 30
0.0
 11
-43.911331111684625
 21
10.410331406828563
 31
0.0
  0
LINE
  5
64
330
17
100
AcDbEntity
  8
VISIBLE
100
AcDbLine
 10
-23.12239174480013
 20
30.74109627192894
 30
0.0
 11
-21.001071401240488
 21
29.51635140053735
 31
0.0
  0
LINE
  5
65
330
17
100
AcDbEntity
  8
VISIBLE
100
AcDbLine
 10
-23.12239174480013
 20
30.74109627192895
 30
0.0
 11
-51.12382027978742
 21
14.574463969559968
 31
0.0
  0
LINE
  5
66
330
17
100
AcDbEntity
  8
VISIBLE
100
AcDbLine
 10
-21.001071401240484
 20
29.51635140053736
 30
0.0
 11
-49.00249993622777
 21
13.349719098168379
 31
0.0
  0
LINE
  5
67
330
17
100
AcDbEntity
  8
VISIBLE
100
AcDbLine
 10
-51.12382027978741
 20
14.574463969559963
 30
0.0
 11
-49.00249993622777
 21
13.349719098168375
 31
0.0
  0
LINE
  5
68
330
17
100
AcDbEntity
  8
VISIBLE
100
AcDbLine
 10
-30.334880912902914
 20
34.90522883466034
 30
0.0
 11
-28.21356056934327
 21
33.68048396326875
 31
0.0
  0
LINE
  5
69
330
17
100
AcDbEntity
  8
VISIBLE
100
AcDbLine
 10
-30.334880912902907
 20
34.90522883466035
 30
0.0
 11
-58.336309447890194
 21
18.73859653229137
 31
0.0
  0
LINE
  5
6A
330
17
100
AcDbEntity
  8
VISIBLE
100
AcDbLine
 10
-28.213560569343276
 20
33.68048396326876
 30
0.0
 11
-56.21498910433056
 21
17.513851660899782
 31
0.0
  0
LINE
  5
6B
330
17
100
AcDbEntity
  8
VISIBLE
100
AcDbLine
 10
-58.3363094478902
 20
18.738596532291368
 30
0.0
 11
-56.21498910433056
 21
17.51385166089978
 31
0.0
  0
LINE
  5
6C
330
17
100
AcDbEntity
  8
VISIBLE
100
AcDbLine
 10
-37.547370081005695
 20
39.06936139739174
 30
0.0
 11
-35.42604973744605
 21
37.84461652600015
 31
0.0
  0
LINE
  5
6D
330
17
100
AcDbEntity
  8
VISIBLE
100
AcDbLine
 10
-37.547370081005695
 20
39.06936139739175
 30
0.0
 11
-65.54879861599298
 21
22.90272909502277
 31
0.0
  0
LINE
  5
6E
330
17
100
AcDbEntity
  8
VISIBLE
100
AcDbLine
 10
-35.42604973744605
 20
37.84461652600016
 30
0.0
 11
-63.42747827243334
 21
21.67798422363118
 31
0.0
  0
LINE
  5
6F
330
17
100
AcDbEntity
  8
VISIBLE
100
AcDbLine
 10
-65.54879861599298
 20
22.902729095022774
 30
0.0
 11
-63.42747827243334
 21
21.677984223631185
 31
0.0
  0
LINE
  5
70
330
17
100
AcDbEntity
  8
VISIBLE
100
AcDbLine
 10
-44.75985924910848
 20
43.23349396012315
 30
0.0
 11
-42.638538905548835
 21
42.00874908873156
 31
0.0
  0
LINE
  5
71
330
17
100
AcDbEntity
  8
VISIBLE
100
AcDbLine
 10
-44.75985924910847
 20
43.233493960123155
 30
0.0
 11
-72.76128778409576
 21
27.066861657754174
 31
0.0
  0
LINE
  5
72
330
17
100
AcDbEntity
  8
VISIBLE
100
AcDbLine
 10
-42.63853890554884
 20
42.00874908873156
 30
0.0
 11
-70.63996744053613
 21
25.842116786362585
 31
0.0
  0
LINE
  5
73
330
17
100
AcDbEntity
  8
VISIBLE
100
AcDbLine
 10
-72.76128778409576
 20
27.066861657754178
 30
0.0
 11
-70.63996744053613
 21
25.84211678636259
 31
0.0
  0
LINE
  5
74
330
17
100
AcDbEntity
  8
VISIBLE
100
AcDbLine
 10
-51.97234841721128
 20
47.39762652285456
 30
0.0
 11
-49.85102807365164
 21
46.17288165146297
 31
0.0
  0
LINE
  5
75
330
17
100
AcDbEntity
  8
VISIBLE
100
AcDbLine
 10
-51.97234841721128
 20
47.397626522854566
 30
0.0
 11
-79.97377695219856
 21
31.230994220485584
 31
0.0
  0
LINE
  5
76
330
17
100
AcDbEntity
  8
VISIBLE
100
AcDbLine
 10
-49.851028073651634
 20
46.17288165146297
 30
0.0
 11
-77.85245660863892
 21
30.006249349093995
 31
0.0
  0
LINE
  5
77
330
17
100
AcDbEntity
  8
VISIBLE
100
AcDbLine
 10
-79.97377695219858
 20
31.230994220485588
 30
0.0
 11
-77.85245660863893
 21
30.006249349094
 31
0.0
  0
ELLIPSE
  5
78
330
17
100
AcDbEntity
  8
VISIBLE
100
AcDbEllipse
 10
-52.89158723275378
 20
81.73130775086545
 30
0.0
 11
2.1
 21
-2.854150778675876e-17
 31
0.0
 40
0.5773502691896258
 41
5.497787143782138
 42
6.283185307179586
  0
ELLIPSE
  5
79
330
17
100
AcDbEntity
  8
VISIBLE
100
AcDbEllipse
 10
-52.89158723275378
 20
81.73130775086545
 30
0.0
 11
2.1
 21
-2.854150778675876e-17
 31
0.0
 40
0.5773502691896258
 41
1.1102230246251565e-16
 42
3.141592653589793
  0
ELLIPSE
  5
7A
330
17
100
AcDbEntity
  8
VISIBLE
100
AcDbEllipse
 10
-52.89158723275378
 20
81.73130775086545
 30
0.0
 11
2.1
 21
-2.854150778675876e-17
 31
0.0
 40
0.5773502691896258
 41
3.141592653589793
 42
5.497787143782138
  0
SPLINE
  5
7B
330
17
100
AcDbEntity
  8
VISIBLE
100
AcDbSpline
 70
0
 71
1
 72
4
 73
2
 74
0
 40
0.0
 40
0.0
 40
1.0
 40
1.0
 10
30.216413866807464
 20
-85.30068921723796
 30
0.0
 10
30.556076098255012
 20
-81.59355898000723
 30
0.0
  0
SPLINE
  5
7C
330
17
100
AcDbEntity
  8
VISIBLE
100
AcDbSpline
 70
0
 71
1
 72
4
 73
2
 74
0
 40
0.0
 40
0.0
 40
1.0
 40
1.0
 10
73.16652041843794
 20
-88.88080671894481
 30
0.0
 10
72.77386215092123
 20
-85.24852060516469
 30
0.0
  0
SPLINE
  5
7D
330
17
100
AcDbEntity
  8
VISIBLE
100
AcDbSpline
 70
0
 71
1
 72
4
 73
2
 74
0
 40
0.0
 40
0.0
 40
1.0
 40
1.0
 10
145.62380730133924
 20
-18.67019955133798
 30
0.0
 10
143.44551006730006
 20
-16.416813889314593
 30
0.0
  0
SPLINE
  5
7E
330
17
100
AcDbEntity
  8
VISIBLE
100
AcDbSpline
 70
0
 71
1
 72
4
 73
2
 74
0
 40
0.0
 40
0.0
 40
1.0
 40
1.0
 10
151.8247527113621
 20
-43.46745513064494
 30
0.0
 10
149.7760893017873
 20
-40.79126403141147
 30
0.0
  0
LINE
  5
7F
330
17
100
AcDbEntity
  8
VISIBLE
100
AcDbLine
 10
-15.909902576697341
 20
24.12747396641436
 30
0.0
 11
-15.909902576697341
 21
26.57696370919754
 31
0.0
  0
LINE
  5
80
330
17
100
AcDbEntity
  8
VISIBLE
100
AcDbLine
 10
-23.122391744800126
 20
28.291606529145763
 30
0.0
 11
-23.122391744800126
 21
30.741096271928942
 31
0.0
  0
LINE
  5
81
330
17
100
AcDbEntity
  8
VISIBLE
100
AcDbLine
 10
-30.33488091290291
 20
32.45573909187716
 30
0.0
 11
-30.33488091290291
 21
34.90522883466034
 31
0.0
  0
LINE
  5
82
330
17
100
AcDbEntity
  8
VISIBLE
100
AcDbLine
 10
-37.54737008100569
 20
36.619871654608566
 30
0.0
 11
-37.54737008100569
 21
39.069361397391745
 31
0.0
  0
LINE
  5
83
330
17
100
AcDbEntity
  8
VISIBLE
100
AcDbLine
 10
-44.75985924910848
 20
40.78400421733997
 30
0.0
 11
-44.75985924910848
 21
43.23349396012315
 31
0.0
  0
LINE
  5
84
330
17
100
AcDbEntity
  8
VISIBLE
100
AcDbLine
 10
-51.97234841721128
 20
44.94813678007138
 30
0.0
 11
-51.97234841721128
 21
47.39762652285456
 31
0.0
  0
SPLINE
  5
85
330
17
100
AcDbEntity
  8
VISIBLE
100
AcDbSpline
 70
0
 71
1
 72
4
 73
2
 74
0
 40
0.0
 40
0.0
 40
1.0
 40
1.0
 10
-143.92801997592764
 20
14.266219304824372
 30
0.0
 10
-141.7544895790246
 20
16.930514533533657
 30
0.0
  0
SPLINE
  5
86
330
17
100
AcDbEntity
  8
VISIBLE
100
AcDbSpline
 70
0
 71
1
 72
4
 73
2
 74
0
 40
0.0
 40
0.0
 40
1.0
 40
1.0
 10
26.83113701143533
 20
-84.32162594842319
 30
0.0
 10
27.203191026803896
 20
-80.61724784589622
 30
0.0
  0
SPLINE
  5
87
330
17
100
AcDbEntity
  8
VISIBLE
100
AcDbSpline
 70
0
 71
1
 72
4
 73
2
 74
0
 40
0.0
 40
0.0
 40
1.0
 40
1.0
 10
78.26652493730438
 20
-87.90174345013007
 30
0.0
 10
77.9062584537087
 20
-84.27220947105369
 30
0.0
  0
SPLINE
  5
88
330
17
100
AcDbEntity
  8
VISIBLE
100
AcDbSpline
 70
0
 71
1
 72
4
 73
2
 74
0
 40
0.0
 40
0.0
 40
1.0
 40
1.0
 10
150.12896538595044
 20
-46.41194411248079
 30
0.0
 10
148.08506881351184
 20
-43.75445441841365
 30
0.0
  0
SPLINE
  5
89
330
17
100
AcDbEntity
  8
VISIBLE
100
AcDbSpline
 70
0
 71
1
 72
4
 73
2
 74
0
 40
0.0
 40
0.0
 40
1.0
 40
1.0
 10
-151.19552269017385
 20
43.126699089116585
 30
0.0
 10
-149.15163798740758
 20
45.36817586380377
 30
0.0
  0
SPLINE
  5
8A
330
17
100
AcDbEntity
  8
VISIBLE
100
AcDbSpline
 70
0
 71
1
 72
4
 73
2
 74
0
 40
0.0
 40
0.0
 40
1.0
 40
1.0
 10
144.91694267282054
 20
-17.469051730068333
 30
0.0
 10
142.74343395399495
 20
-15.234389761125104
 30
0.0
  0
ELLIPSE
  5
8B
330
17
100
AcDbEntity
  8
HIDDEN
100
AcDbEllipse
 10
-145.88632469883117
 20
41.512964626914574
 30
0.0
 11
-6.0
 21
8.154716510502503e-17
 31
0.0
 40
0.5773502691896258
 41
-0.7853981633974483
 42
-0.4845893324291195
  0
LINE
  5
8C
330
17
100
AcDbEntity
  8
HIDDEN
100
AcDbLine
 10
-78.26652493730444
 20
85.45225370734697
 30
0.0
 11
-150.12896538595047
 21
43.96245436969774
 31
0.0
  0
ELLIPSE
  5
8D
330
17
100
AcDbEntity
  8
HIDDEN
100
AcDbEllipse
 10
-74.02388425018516
 20
83.0027639645638
 30
0.0
 11
-6.0
 21
8.154716510502503e-17
 31
0.0
 40
0.5773502691896258
 41
-1.7141811065598205
 42
-0.7853981633974483
  0
LINE
  5
8E
330
17
100
AcDbEntity
  8
HIDDEN
100
AcDbLine
 10
-30.2164138668075
 20
82.85119947445489
 30
0.0
 11
-73.16652041843798
 21
86.43131697616175
 31
0.0
  0
ELLIPSE
  5
8F
330
17
100
AcDbEntity
  8
HIDDEN
100
AcDbEllipse
 10
-31.073777698554665
 20
79.42264646285695
 30
0.0
 11
-6.0
 21
8.154716510502503e-17
 31
0.0
 40
0.5773502691896258
 41
-2.356194490192345
 42
-1.7141811065598205
  0
LINE
  5
90
330
17
100
AcDbEntity
  8
HIDDEN
100
AcDbLine
 10
143.9280199759276
 20
-16.71570904760747
 30
0.0
 11
-26.831137011435388
 21
81.87213620564013
 31
0.0
  0
ELLIPSE
  5
91
330
17
100
AcDbEntity
  8
HIDDEN
100
AcDbEllipse
 10
139.68537928880832
 20
-19.16519879039065
 30
0.0
 11
-6.0
 21
8.154716510502503e-17
 31
0.0
 40
0.5773502691896258
 41
-2.6299210089862064
 42
-2.356194490192345
  0
ELLIPSE
  5
92
330
17
100
AcDbEntity
  8
HIDDEN
100
AcDbEllipse
 10
52.891587232753736
 20
-81.73130775086534
 30
0.0
 11
2.1
 21
-2.854150778675876e-17
 31
0.0
 40
0.5773502691896258
 41
5.497787143782138
 42
6.283185307179586
  0
ELLIPSE
  5
93
330
17
100
AcDbEntity
  8
HIDDEN
100
AcDbEllipse
 10
52.891587232753736
 20
-81.73130775086534
 30
0.0
 11
2.1
 21
-2.854150778675876e-17
 31
0.0
 40
0.5773502691896258
 41
1.1102230246251565e-16
 42
3.141592653589793
  0
ELLIPSE
  5
94
330
17
100
AcDbEntity
  8
HIDDEN
100
AcDbEllipse
 10
52.891587232753736
 20
-81.73130775086534
 30
0.0
 11
2.1
 21
-2.854150778675876e-17
 31
0.0
 40
0.5773502691896258
 41
3.141592653589793
 42
5.497787143782138
  0
ELLIPSE
  5
95
330
17
100
AcDbEntity
  8
HIDDEN
100
AcDbEllipse
 10
-139.44145724998722
 20
29.31222725530542
 30
0.0
 11
2.1
 21
-2.854150778675876e-17
 31
0.0
 40
0.5773502691896258
 41
5.497787143782138
 42
6.283185307179586
  0
ELLIPSE
  5
96
330
17
100
AcDbEntity
  8
HIDDEN
100
AcDbEllipse
 10
-139.44145724998722
 20
29.31222725530542
 30
0.0
 11
2.1
 21
-2.854150778675876e-17
 31
0.0
 40
0.5773502691896258
 41
1.1102230246251565e-16
 42
3.141592653589793
  0
ELLIPSE
  5
97
330
17
100
AcDbEntity
  8
HIDDEN
100
AcDbEllipse
 10
-139.44145724998722
 20
29.31222725530542
 30
0.0
 11
2.1
 21
-2.854150778675876e-17
 31
0.0
 40
0.5773502691896258
 41
3.141592653589793
 42
5.497787143782138
  0
ELLIPSE
  5
98
330
17
100
AcDbEntity
  8
HIDDEN
100
AcDbEllipse
 10
139.44145724998717
 20
-31.76171699808849
 30
0.0
 11
2.1
 21
-2.854150778675876e-17
 31
0.0
 40
0.5773502691896258
 41
5.497787143782138
 42
6.283185307179586
  0
ELLIPSE
  5
99
330
17
100
AcDbEntity
  8
HIDDEN
100
AcDbEllipse
 10
139.44145724998717
 20
-31.76171699808849
 30
0.0
 11
2.1
 21
-2.854150778675876e-17
 31
0.0
 40
0.5773502691896258
 41
1.1102230246251565e-16
 42
3.141592653589793
  0
ELLIPSE
  5
9A
330
17
100
AcDbEntity
  8
HIDDEN
100
AcDbEllipse
 10
139.44145724998717
 20
-31.76171699808849
 30
0.0
 11
2.1
 21
-2.854150778675876e-17
 31
0.0
 40
0.5773502691896258
 41
3.141592653589793
 42
5.497787143782138
  0
LINE
  5
9B
330
17
100
AcDbEntity
  8
HIDDEN
100
AcDbLine
 10
-15.909902576697347
 20
24.127473966414367
 30
0.0
 11
-13.788582233137703
 21
22.902729095022778
 31
0.0
  0
LINE
  5
9C
330
17
100
AcDbEntity
  8
HIDDEN
100
AcDbLine
 10
-13.788582233137694
 20
22.902729095022774
 30
0.0
 11
-41.79001076812498
 21
6.736096792653795
 31
0.0
  0
LINE
  5
9D
330
17
100
AcDbEntity
  8
HIDDEN
100
AcDbLine
 10
-43.91133111168463
 20
7.9608416640453825
 30
0.0
 11
-41.790010768124986
 21
6.736096792653793
 31
0.0
  0
LINE
  5
9E
330
17
100
AcDbEntity
  8
HIDDEN
100
AcDbLine
 10
-41.79001076812499
 20
9.185586535436974
 30
0.0
 11
-43.91133111168463
 21
7.960841664045383
 31
0.0
  0
LINE
  5
9F
330
17
100
AcDbEntity
  8
HIDDEN
100
AcDbLine
 10
-23.122391744800126
 20
28.29160652914577
 30
0.0
 11
-21.001071401240484
 21
27.06686165775418
 31
0.0
  0
LINE
  5
A0
330
17
100
AcDbEntity
  8
HIDDEN
100
AcDbLine
 10
-49.00249993622778
 20
13.34971909816838
 30
0.0
 11
-51.123820279787424
 21
12.124974226776787
 31
0.0
  0
LINE
  5
A1
330
17
100
AcDbEntity
  8
HIDDEN
100
AcDbLine
 10
-21.00107140124049
 20
27.06686165775418
 30
0.0
 11
-49.00249993622778
 21
10.900229355385198
 31
0.0
  0
LINE
  5
A2
330
17
100
AcDbEntity
  8
HIDDEN
100
AcDbLine
 10
-51.12382027978741
 20
12.124974226776786
 30
0.0
 11
-49.002499936227764
 21
10.900229355385196
 31
0.0
  0
LINE
  5
A3
330
17
100
AcDbEntity
  8
HIDDEN
100
AcDbLine
 10
-30.334880912902907
 20
32.45573909187717
 30
0.0
 11
-28.213560569343265
 21
31.23099422048558
 31
0.0
  0
LINE
  5
A4
330
17
100
AcDbEntity
  8
HIDDEN
100
AcDbLine
 10
-56.21498910433056
 20
17.51385166089978
 30
0.0
 11
-58.3363094478902
 21
16.28910678950819
 31
0.0
  0
LINE
  5
A5
330
17
100
AcDbEntity
  8
HIDDEN
100
AcDbLine
 10
-28.21356056934327
 20
31.23099422048558
 30
0.0
 11
-56.214989104330556
 21
15.0643619181166
 31
0.0
  0
LINE
  5
A6
330
17
100
AcDbEntity
  8
HIDDEN
100
AcDbLine
 10
-58.3363094478902
 20
16.28910678950819
 30
0.0
 11
-56.214989104330556
 21
15.0643619181166
 31
0.0
  0
LINE
  5
A7
330
17
100
AcDbEntity
  8
HIDDEN
100
AcDbLine
 10
-37.54737008100569
 20
36.61987165460857
 30
0.0
 11
-35.42604973744605
 21
35.39512678321698
 31
0.0
  0
LINE
  5
A8
330
17
100
AcDbEntity
  8
HIDDEN
100
AcDbLine
 10
-63.42747827243334
 20
21.67798422363118
 30
0.0
 11
-65.54879861599298
 21
20.453239352239592
 31
0.0
  0
LINE
  5
A9
330
17
100
AcDbEntity
  8
HIDDEN
100
AcDbLine
 10
-35.42604973744605
 20
35.39512678321698
 30
0.0
 11
-63.42747827243333
 21
19.228494480848003
 31
0.0
  0
LINE
  5
AA
330
17
100
AcDbEntity
  8
HIDDEN
100
AcDbLine
 10
-65.54879861599298
 20
20.45323935223959
 30
0.0
 11
-63.42747827243333
 21
19.228494480848
 31
0.0
  0
LINE
  5
AB
330
17
100
AcDbEntity
  8
HIDDEN
100
AcDbLine
 10
-44.75985924910848
 20
40.78400421733998
 30
0.0
 11
-42.63853890554884
 21
39.559259345948384
 31
0.0
  0
LINE
  5
AC
330
17
100
AcDbEntity
  8
HIDDEN
100
AcDbLine
 10
-70.63996744053613
 20
25.842116786362585
 30
0.0
 11
-72.76128778409577
 21
24.617371914970995
 31
0.0
  0
LINE
  5
AD
330
17
100
AcDbEntity
  8
HIDDEN
100
AcDbLine
 10
-42.63853890554884
 20
39.559259345948384
 30
0.0
 11
-70.63996744053613
 21
23.392627043579406
 31
0.0
  0
LINE
  5
AE
330
17
100
AcDbEntity
  8
HIDDEN
100
AcDbLine
 10
-72.76128778409577
 20
24.617371914971002
 30
0.0
 11
-70.63996744053613
 21
23.392627043579413
 31
0.0
  0
LINE
  5
AF
330
17
100
AcDbEntity
  8
HIDDEN
100
AcDbLine
 10
-51.97234841721128
 20
44.94813678007139
 30
0.0
 11
-49.851028073651634
 21
43.723391908679794
 31
0.0
  0
LINE
  5
B0
330
17
100
AcDbEntity
  8
HIDDEN
100
AcDbLine
 10
-77.85245660863893
 20
30.00624934909399
 30
0.0
 11
-79.97377695219856
 21
28.781504477702406
 31
0.0
  0
LINE
  5
B1
330
17
100
AcDbEntity
  8
HIDDEN
100
AcDbLine
 10
-49.851028073651634
 20
43.723391908679794
 30
0.0
 11
-77.85245660863892
 21
27.556759606310816
 31
0.0
  0
LINE
  5
B2
330
17
100
AcDbEntity
  8
HIDDEN
100
AcDbLine
 10
-79.97377695219856
 20
28.781504477702413
 30
0.0
 11
-77.85245660863892
 21
27.556759606310823
 31
0.0
  0
ELLIPSE
  5
B3
330
17
100
AcDbEntity
  8
HIDDEN
100
AcDbEllipse
 10
-52.89158723275378
 20
79.28181800808227
 30
0.0
 11
2.1
 21
-2.854150778675876e-17
 31
0.0
 40
0.5773502691896258
 41
5.497787143782138
 42
6.283185307179586
  0
ELLIPSE
  5
B4
330
17
100
AcDbEntity
  8
HIDDEN
100
AcDbEllipse
 10
-52.89158723275378
 20
79.28181800808227
 30
0.0
 11
2.1
 21
-2.854150778675876e-17
 31
0.0
 40
0.5773502691896258
 41
1.1102230246251565e-16
 42
3.141592653589793
  0
ELLIPSE
  5
B5
330
17
100
AcDbEntity
  8
HIDDEN
100
AcDbEllipse
 10
-52.89158723275378
 20
79.28181800808227
 30
0.0
 11
2.1
 21
-2.854150778675876e-17
 31
0.0
 40
0.5773502691896258
 41
3.141592653589793
 42
5.497787143782138
  0
SPLINE
  5
B6
330
17
100
AcDbEntity
  8
HIDDEN
100
AcDbSpline
 70
0
 71
1
 72
4
 73
2
 74
0
 40
0.0
 40
0.0
 40
1.0
 40
1.0
 10
-73.16652041843798
 20
86.43131697616174
 30
0.0
 10
-72.77386215092132
 20
87.698010347948
 30
0.0
  0
SPLINE
  5
B7
330
17
100
AcDbEntity
  8
HIDDEN
100
AcDbSpline
 70
0
 71
1
 72
4
 73
2
 74
0
 40
0.0
 40
0.0
 40
1.0
 40
1.0
 10
-30.216413866807518
 20
82.85119947445487
 30
0.0
 10
-30.55607609825508
 20
84.04304872279053
 30
0.0
  0
LINE
  5
B8
330
17
100
AcDbEntity
  8
HIDDEN
100
AcDbLine
 10
-13.7885822331377
 20
22.90272909502277
 30
0.0
 11
-13.7885822331377
 21
25.35221883780595
 31
0.0
  0
LINE
  5
B9
330
17
100
AcDbEntity
  8
HIDDEN
100
AcDbLine
 10
-41.79001076812498
 20
6.736096792653793
 30
0.0
 11
-41.79001076812498
 21
9.185586535436972
 31
0.0
  0
LINE
  5
BA
330
17
100
AcDbEntity
  8
HIDDEN
100
AcDbLine
 10
-43.911331111684625
 20
7.960841664045384
 30
0.0
 11
-43.911331111684625
 21
10.410331406828561
 31
0.0
  0
LINE
  5
BB
330
17
100
AcDbEntity
  8
HIDDEN
100
AcDbLine
 10
-21.001071401240484
 20
27.066861657754174
 30
0.0
 11
-21.001071401240484
 21
29.516351400537353
 31
0.0
  0
LINE
  5
BC
330
17
100
AcDbEntity
  8
HIDDEN
100
AcDbLine
 10
-51.12382027978741
 20
12.124974226776786
 30
0.0
 11
-51.12382027978741
 21
14.574463969559964
 31
0.0
  0
LINE
  5
BD
330
17
100
AcDbEntity
  8
HIDDEN
100
AcDbLine
 10
-49.00249993622777
 20
10.900229355385198
 30
0.0
 11
-49.00249993622777
 21
13.349719098168375
 31
0.0
  0
LINE
  5
BE
330
17
100
AcDbEntity
  8
HIDDEN
100
AcDbLine
 10
-28.213560569343265
 20
31.230994220485577
 30
0.0
 11
-28.213560569343265
 21
33.680483963268756
 31
0.0
  0
LINE
  5
BF
330
17
100
AcDbEntity
  8
HIDDEN
100
AcDbLine
 10
-58.336309447890194
 20
16.28910678950819
 30
0.0
 11
-58.336309447890194
 21
18.738596532291368
 31
0.0
  0
LINE
  5
C0
330
17
100
AcDbEntity
  8
HIDDEN
100
AcDbLine
 10
-56.21498910433055
 20
15.0643619181166
 30
0.0
 11
-56.21498910433055
 21
17.51385166089978
 31
0.0
  0
LINE
  5
C1
330
17
100
AcDbEntity
  8
HIDDEN
100
AcDbLine
 10
-35.42604973744605
 20
35.39512678321698
 30
0.0
 11
-35.42604973744605
 21
37.84461652600016
 31
0.0
  0
LINE
  5
C2
330
17
100
AcDbEntity
  8
HIDDEN
100
AcDbLine
 10
-65.54879861599298
 20
20.45323935223959
 30
0.0
 11
-65.54879861599298
 21
22.902729095022767
 31
0.0
  0
LINE
  5
C3
330
17
100
AcDbEntity
  8
HIDDEN
100
AcDbLine
 10
-63.42747827243333
 20
19.228494480848
 30
0.0
 11
-63.42747827243333
 21
21.677984223631178
 31
0.0
  0
LINE
  5
C4
330
17
100
AcDbEntity
  8
HIDDEN
100
AcDbLine
 10
-42.638538905548835
 20
39.559259345948384
 30
0.0
 11
-42.638538905548835
 21
42.00874908873156
 31
0.0
  0
LINE
  5
C5
330
17
100
AcDbEntity
  8
HIDDEN
100
AcDbLine
 10
-72.76128778409577
 20
24.617371914970995
 30
0.0
 11
-72.76128778409577
 21
27.066861657754174
 31
0.0
  0
LINE
  5
C6
330
17
100
AcDbEntity
  8
HIDDEN
100
AcDbLine
 10
-70.63996744053613
 20
23.392627043579406
 30
0.0
 11
-70.63996744053613
 21
25.842116786362585
 31
0.0
  0
LINE
  5
C7
330
17
100
AcDbEntity
  8
HIDDEN
100
AcDbLine
 10
-49.851028073651634
 20
43.723391908679794
 30
0.0
 11
-49.851028073651634
 21
46.17288165146297
 31
0.0
  0
LINE
  5
C8
330
17
100
AcDbEntity
  8
HIDDEN
100
AcDbLine
 10
-79.97377695219856
 20
28.781504477702406
 30
0.0
 11
-79.97377695219856
 21
31.230994220485584
 31
0.0
  0
LINE
  5
C9
330
17
100
AcDbEntity
  8
HIDDEN
100
AcDbLine
 10
-77.85245660863892
 20
27.556759606310816
 30
0.0
 11
-77.85245660863892
 21
30.006249349093995
 31
0.0
  0
LINE
  5
CA
330
17
100
AcDbEntity
  8
HIDDEN
100
AcDbLine
 10
54.99158723275374
 20
-81.73130775086534
 30
0.0
 11
54.99158723275374
 21
-79.28181800808215
 31
0.0
  0
LINE
  5
CB
330
17
100
AcDbEntity
  8
HIDDEN
100
AcDbLine
 10
50.791587232753734
 20
-81.73130775086534
 30
0.0
 11
50.791587232753734
 21
-79.28181800808215
 31
0.0
  0
LINE
  5
CC
330
17
100
AcDbEntity
  8
HIDDEN
100
AcDbLine
 10
-137.3414572499872
 20
29.31222725530542
 30
0.0
 11
-137.3414572499872
 21
31.7617169980886
 31
0.0
  0
LINE
  5
CD
330
17
100
AcDbEntity
  8
HIDDEN
100
AcDbLine
 10
-141.54145724998722
 20
29.31222725530542
 30
0.0
 11
-141.54145724998722
 21
31.7617169980886
 31
0.0
  0
LINE
  5
CE
330
17
100
AcDbEntity
  8
HIDDEN
100
AcDbLine
 10
141.54145724998716
 20
-31.761716998088485
 30
0.0
 11
141.54145724998716
 21
-29.312227255305306
 31
0.0
  0
LINE
  5
CF
330
17
100
AcDbEntity
  8
HIDDEN
100
AcDbLine
 10
137.34145724998714
 20
-31.761716998088485
 30
0.0
 11
137.34145724998714
 21
-29.312227255305306
 31
0.0
  0
LINE
  5
D0
330
17
100
AcDbEntity
  8
HIDDEN
100
AcDbLine
 10
-50.79158723275378
 20
79.28181800808227
 30
0.0
 11
-50.79158723275378
 21
81.73130775086545
 31
0.0
  0
LINE
  5
D1
330
17
100
AcDbEntity
  8
HIDDEN
100
AcDbLine
 10
-54.99158723275378
 20
79.28181800808227
 30
0.0
 11
-54.99158723275378
 21
81.73130775086545
 31
0.0
  0
SPLINE
  5
D2
330
17
100
AcDbEntity
  8
HIDDEN
100
AcDbSpline
 70
0
 71
1
 72
4
 73
2
 74
0
 40
0.0
 40
0.0
 40
1.0
 40
1.0
 10
-150.12896538595047
 20
43.962454369697745
 30
0.0
 10
-148.08506881351187
 20
46.20394416119695
 30
0.0
  0
SPLINE
  5
D3
330
17
100
AcDbEntity
  8
HIDDEN
100
AcDbSpline
 70
0
 71
1
 72
4
 73
2
 74
0
 40
0.0
 40
0.0
 40
1.0
 40
1.0
 10
-78.26652493730447
 20
85.45225370734698
 30
0.0
 10
-77.90625845370876
 20
86.72169921383698
 30
0.0
  0
SPLINE
  5
D4
330
17
100
AcDbEntity
  8
HIDDEN
100
AcDbSpline
 70
0
 71
1
 72
4
 73
2
 74
0
 40
0.0
 40
0.0
 40
1.0
 40
1.0
 10
-26.831137011435377
 20
81.87213620564013
 30
0.0
 10
-27.20319102680395
 20
83.06673758867953
 30
0.0
  0
SPLINE
  5
D5
330
17
100
AcDbEntity
  8
HIDDEN
100
AcDbSpline
 70
0
 71
1
 72
4
 73
2
 74
0
 40
0.0
 40
0.0
 40
1.0
 40
1.0
 10
143.9280199759276
 20
-16.715709047607465
 30
0.0
 10
141.75448957902458
 20
-14.481024790750403
 30
0.0
  0
ENDSEC
  0
SECTION
  2
OBJECTS
  0
DICTIONARY
  5
A
330
0
100
AcDbDictionary
281
1
  3
ACAD_COLOR
350
B
  3
ACAD_GROUP
350
C
  3
ACAD_LAYOUT
350
D
  3
ACAD_MATERIAL
350
E
  3
ACAD_MLEADERSTYLE
350
F
  3
ACAD_MLINESTYLE
350
10
  3
ACAD_PLOTSETTINGS
350
11
  3
ACAD_PLOTSTYLENAME
350
12
  3
ACAD_SCALELIST
350
14
  3
ACAD_TABLESTYLE
350
15
  3
ACAD_VISUALSTYLE
350
16
  3
EZDXF_META
350
2D
  0
DICTIONARY
  5
B
330
A
100
AcDbDictionary
281
1
  0
DICTIONARY
  5
C
330
A
100
AcDbDictionary
281
1
  0
DICTIONARY
  5
D
330
A
100
AcDbDictionary
281
1
  3
Model
350
1A
  3
Layout1
350
1E
  0
DICTIONARY
  5
E
330
A
100
AcDbDictionary
281
1
  3
ByBlock
350
1F
  3
ByLayer
350
20
  3
Global
350
21
  0
DICTIONARY
  5
F
330
A
100
AcDbDictionary
281
1
  3
Standard
350
2C
  0
DICTIONARY
  5
10
330
A
100
AcDbDictionary
281
1
  3
Standard
350
22
  0
DICTIONARY
  5
11
330
A
100
AcDbDictionary
281
1
  0
ACDBDICTIONARYWDFLT
  5
12
330
A
100
AcDbDictionary
281
1
  3
Normal
350
13
100
AcDbDictionaryWithDefault
340
13
  0
ACDBPLACEHOLDER
  5
13
330
12
  0
DICTIONARY
  5
14
330
A
100
AcDbDictionary
281
1
  0
DICTIONARY
  5
15
330
A
100
AcDbDictionary
281
1
  0
DICTIONARY
  5
16
330
A
100
AcDbDictionary
281
1
  0
LAYOUT
  5
1A
330
D
100
AcDbPlotSettings
  1

  4
A3
  6

 40
7.5
 41
20.0
 42
7.5
 43
20.0
 44
420.0
 45
297.0
 46
0.0
 47
0.0
 48
0.0
 49
0.0
140
0.0
141
0.0
142
1.0
143
1.0
 70
1024
 72
1
 73
0
 74
5
  7

 75
16
 76
0
 77
2
 78
300
147
1.0
148
0.0
149
0.0
100
AcDbLayout
  1
Model
 70
1
 71
0
 10
0.0
 20
0.0
 11
420.0
 21
297.0
 12
0.0
 22
0.0
 32
0.0
 14
1e+20
 24
1e+20
 34
1e+20
 15
-1e+20
 25
-1e+20
 35
-1e+20
146
0.0
 13
0.0
 23
0.0
 33
0.0
 16
1.0
 26
0.0
 36
0.0
 17
0.0
 27
1.0
 37
0.0
 76
1
330
17
  0
LAYOUT
  5
1E
330
D
100
AcDbPlotSettings
  1

  4
A3
  6

 40
7.5
 41
20.0
 42
7.5
 43
20.0
 44
420.0
 45
297.0
 46
0.0
 47
0.0
 48
0.0
 49
0.0
140
0.0
141
0.0
142
1.0
143
1.0
 70
0
 72
1
 73
0
 74
5
  7

 75
16
 76
0
 77
2
 78
300
147
1.0
148
0.0
149
0.0
100
AcDbLayout
  1
Layout1
 70
1
 71
1
 10
0.0
 20
0.0
 11
420.0
 21
297.0
 12
0.0
 22
0.0
 32
0.0
 14
1e+20
 24
1e+20
 34
1e+20
 15
-1e+20
 25
-1e+20
 35
-1e+20
146
0.0
 13
0.0
 23
0.0
 33
0.0
 16
1.0
 26
0.0
 36
0.0
 17
0.0
 27
1.0
 37
0.0
 76
1
330
1B
  0
MATERIAL
  5
1F
102
{ACAD_REACTORS
330
E
102
}
330
E
100
AcDbMaterial
  1
ByBlock
  2

 70
0
 40
1.0
 71
1
 41
1.0
 91
-1023410177
 42
1.0
 72
1
  3

 73
1
 74
1
 75
1
 44
0.5
 73
0
 45
1.0
 46
1.0
 77
1
  4

 78
1
 79
1
170
1
 48
1.0
171
1
  6

172
1
173
1
174
1
140
1.0
141
1.0
175
1
  7

176
1
177
1
178
1
143
1.0
179
1
  8

270
1
271
1
272
1
145
1.0
146
1.0
273
1
  9

274
1
275
1
276
1
 42
1.0
 72
1
  3

 73
1
 74
1
 75
1
 94
63
  0
MATERIAL
  5
20
102
{ACAD_REACTORS
330
E
102
}
330
E
100
AcDbMaterial
  1
ByLayer
  2

 70
0
 40
1.0
 71
1
 41
1.0
 91
-1023410177
 42
1.0
 72
1
  3

 73
1
 74
1
 75
1
 44
0.5
 73
0
 45
1.0
 46
1.0
 77
1
  4

 78
1
 79
1
170
1
 48
1.0
171
1
  6

172
1
173
1
174
1
140
1.0
141
1.0
175
1
  7

176
1
177
1
178
1
143
1.0
179
1
  8

270
1
271
1
272
1
145
1.0
146
1.0
273
1
  9

274
1
275
1
276
1
 42
1.0
 72
1
  3

 73
1
 74
1
 75
1
 94
63
  0
MATERIAL
  5
21
102
{ACAD_REACTORS
330
E
102
}
330
E
100
AcDbMaterial
  1
Global
  2

 70
0
 40
1.0
 71
1
 41
1.0
 91
-1023410177
 42
1.0
 72
1
  3

 73
1
 74
1
 75
1
 44
0.5
 73
0
 45
1.0
 46
1.0
 77
1
  4

 78
1
 79
1
170
1
 48
1.0
171
1
  6

172
1
173
1
174
1
140
1.0
141
1.0
175
1
  7

176
1
177
1
178
1
143
1.0
179
1
  8

270
1
271
1
272
1
145
1.0
146
1.0
273
1
  9

274
1
275
1
276
1
 42
1.0
 72
1
  3

 73
1
 74
1
 75
1
 94
63
  0
MLINESTYLE
  5
22
102
{ACAD_REACTORS
330
10
102
}
330
10
100
AcDbMlineStyle
  2
Standard
 70
0
  3

 62
256
 51
90.0
 52
90.0
 71
2
 49
0.5
 62
256
  6
BYLAYER
 49
-0.5
 62
256
  6
BYLAYER
  0
MLEADERSTYLE
  5
2C
102
{ACAD_REACTORS
330
F
102
}
330
F
100
AcDbMLeaderStyle
179
2
170
2
171
1
172
0
 90
2
 40
0.0
 41
0.0
173
1
 91
-1056964608
 92
-2
290
1
 42
2.0
291
1
 43
8.0
  3
Standard
 44
4.0
300

342
29
174
1
175
1
176
0
178
1
 93
-1056964608
 45
4.0
292
0
297
0
 46
4.0
 94
-1056964608
 47
1.0
 49
1.0
140
1.0
294
1
141
0.0
177
0
142
1.0
295
0
296
0
143
3.75
271
0
272
9
273
9
  0
DICTIONARY
  5
2D
330
A
100
AcDbDictionary
280
1
281
1
  3
CREATED_BY_EZDXF
350
2E
  3
WRITTEN_BY_EZDXF
350
D9
  0
DICTIONARYVAR
  5
2E
330
2D
100
DictionaryVariables
280
0
  1
1.4.4 @ 2026-10-08T06:25:55.211876+00:00
  0
DICTIONARYVAR
  5
D9
330
2D
100
DictionaryVariables
280
0
  1
1.4.4 @ 2026-10-08T06:25:55.343964+00:00
  0
ENDSEC
  0
EOF
