  0
SECTION
  2
HEADER
  9
$ACADVER
  1
AC1027
  9
$ACADMAINTVER
 70
105
  9
$DWGCODEPAGE
  3
ANSI_1252
  9
$LASTSAVEDBY
  1
ezdxf
  9
$REQUIREDVERSIONS
160
0
  9
$INSBASE
 10
0.0
 20
0.0
 30
0.0
  9
$EXTMIN
 10
1e+20
 20
1e+20
 30
1e+20
  9
$EXTMAX
 10
-1e+20
 20
-1e+20
 30
-1e+20
  9
$LIMMIN
 10
0.0
 20
0.0
  9
$LIMMAX
 10
420.0
 20
297.0
  9
$ORTHOMODE
 70
0
  9
$REGENMODE
 70
1
  9
$FILLMODE
 70
1
  9
$QTEXTMODE
 70
0
  9
$MIRRTEXT
 70
1
  9
$LTSCALE
 40
1.0
  9
$ATTMODE
 70
1
  9
$TEXTSIZE
 40
2.5
  9
$TRACEWID
 40
1.0
  9
$TEXTSTYLE
  7
Standard
  9
$CLAYER
  8
0
  9
$CELTYPE
  6
ByLayer
  9
$CECOLOR
 62
256
  9
$CELTSCALE
 40
1.0
  9
$DISPSILH
 70
0
  9
$DIMSCALE
 40
1.0
  9
$DIMASZ
 40
2.5
  9
$DIMEXO
 40
0.625
  9
$DIMDLI
 40
3.75
  9
$DIMRND
 40
0.0
  9
$DIMDLE
 40
0.0
  9
$DIMEXE
 40
1.25
  9
$DIMTP
 40
0.0
  9
$DIMTM
 40
0.0
  9
$DIMTXT
 40
2.5
  9
$DIMCEN
 40
2.5
  9
$DIMTSZ
 40
0.0
  9
$DIMTOL
 70
0
  9
$DIMLIM
 70
0
  9
$DIMTIH
 70
0
  9
$DIMTOH
 70
0
  9
$DIMSE1
 70
0
  9
$DIMSE2
 70
0
  9
$DIMTAD
 70
1
  9
$DIMZIN
 70
8
  9
$DIMBLK
  1

  9
$DIMASO
 70
1
  9
$DIMSHO
 70
1
  9
$DIMPOST
  1

  9
$DIMAPOST
  1

  9
$DIMALT
 70
0
  9
$DIMALTD
 70
3
  9
$DIMALTF
 40
0.03937007874
  9
$DIMLFAC
 40
1.0
  9
$DIMTOFL
 70
1
  9
$DIMTVP
 40
0.0
  9
$DIMTIX
 70
0
  9
$DIMSOXD
 70
0
  9
$DIMSAH
 70
0
  9
$DIMBLK1
  1

  9
$DIMBLK2
  1

  9
$DIMSTYLE
  2
ISO-25
  9
$DIMCLRD
 70
0
  9
$DIMCLRE
 70
0
  9
$DIMCLRT
 70
0
  9
$DIMTFAC
 40
1.0
  9
$DIMGAP
 40
0.625
  9
$DIMJUST
 70
0
  9
$DIMSD1
 70
0
  9
$DIMSD2
 70
0
  9
$DIMTOLJ
 70
0
  9
$DIMTZIN
 70
8
  9
$DIMALTZ
 70
0
  9
$DIMALTTZ
 70
0
  9
$DIMUPT
 70
0
  9
$DIMDEC
 70
2
  9
$DIMTDEC
 70
2
  9
$DIMALTU
 70
2
  9
$DIMALTTD
 70
3
  9
$DIMTXSTY
  7
Standard
  9
$DIMAUNIT
 70
0
  9
$DIMADEC
 70
0
  9
$DIMALTRND
 40
0.0
  9
$DIMAZIN
 70
0
  9
$DIMDSEP
 70
44
  9
$DIMATFIT
 70
3
  9
$DIMFRAC
 70
0
  9
$DIMLDRBLK
  1

  9
$DIMLUNIT
 70
2
  9
$DIMLWD
 70
-2
  9
$DIMLWE
 70
-2
  9
$DIMTMOVE
 70
0
  9
$DIMFXL
 40
1.0
  9
$DIMFXLON
 70
0
  9
$DIMJOGANG
 40
0.785398163397
  9
$DIMTFILL
 70
0
  9
$DIMTFILLCLR
 70
0
  9
$DIMARCSYM
 70
0
  9
$DIMLTYPE
  6

  9
$DIMLTEX1
  6

  9
$DIMLTEX2
  6

  9
$DIMTXTDIRECTION
 70
0
  9
$LUNITS
 70
2
  9
$LUPREC
 70
4
  9
$SKETCHINC
 40
1.0
  9
$FILLETRAD
 40
10.0
  9
$AUNITS
 70
0
  9
$AUPREC
 70
2
  9
$MENU
  1
.
  9
$ELEVATION
 40
0.0
  9
$PELEVATION
 40
0.0
  9
$THICKNESS
 40
0.0
  9
$LIMCHECK
 70
0
  9
$CHAMFERA
 40
0.0
  9
$CHAMFERB
 40
0.0
  9
$CHAMFERC
 40
0.0
  9
$CHAMFERD
 40
0.0
  9
$SKPOLY
 70
0
  9
$TDCREATE
 40
2461321.6977083334
  9
$TDUCREATE
 40
2458532.153996898
  9
$TDUPDATE
 40
2461321.6977083334
  9
$TDUUPDATE
 40
2458532.1544311
  9
$TDINDWG
 40
0.0
  9
$TDUSRTIMER
 40
0.0
  9
$USRTIMER
 70
1
  9
$ANGBASE
 50
0.0
  9
$ANGDIR
 70
0
  9
$PDMODE
 70
0
  9
$PDSIZE
 40
0.0
  9
$PLINEWID
 40
0.0
  9
$SPLFRAME
 70
0
  9
$SPLINETYPE
 70
6
  9
$SPLINESEGS
 70
8
  9
$HANDSEED
  5
41
  9
$SURFTAB1
 70
6
  9
$SURFTAB2
 70
6
  9
$SURFTYPE
 70
6
  9
$SURFU
 70
6
  9
$SURFV
 70
6
  9
$UCSBASE
  2

  9
$UCSNAME
  2

  9
$UCSORG
 10
0.0
 20
0.0
 30
0.0
  9
$UCSXDIR
 10
1.0
 20
0.0
 30
0.0
  9
$UCSYDIR
 10
0.0
 20
1.0
 30
0.0
  9
$UCSORTHOREF
  2

  9
$UCSORTHOVIEW
 70
0
  9
$UCSORGTOP
 10
0.0
 20
0.0
 30
0.0
  9
$UCSORGBOTTOM
 10
0.0
 20
0.0
 30
0.0
  9
$UCSORGLEFT
 10
0.0
 20
0.0
 30
0.0
  9
$UCSORGRIGHT
 10
0.0
 20
0.0
 30
0.0
  9
$UCSORGFRONT
 10
0.0
 20
0.0
 30
0.0
  9
$UCSORGBACK
 10
0.0
 20
0.0
 30
0.0
  9
$PUCSBASE
  2

  9
$PUCSNAME
  2

  9
$PUCSORG
 10
0.0
 20
0.0
 30
0.0
  9
$PUCSXDIR
 10
1.0
 20
0.0
 30
0.0
  9
$PUCSYDIR
 10
0.0
 20
1.0
 30
0.0
  9
$PUCSORTHOREF
  2

  9
$PUCSORTHOVIEW
 70
0
  9
$PUCSORGTOP
 10
0.0
 20
0.0
 30
0.0
  9
$PUCSORGBOTTOM
 10
0.0
 20
0.0
 30
0.0
  9
$PUCSORGLEFT
 10
0.0
 20
0.0
 30
0.0
  9
$PUCSORGRIGHT
 10
0.0
 20
0.0
 30
0.0
  9
$PUCSORGFRONT
 10
0.0
 20
0.0
 30
0.0
  9
$PUCSORGBACK
 10
0.0
 20
0.0
 30
0.0
  9
$USERI1
 70
0
  9
$USERI2
 70
0
  9
$USERI3
 70
0
  9
$USERI4
 70
0
  9
$USERI5
 70
0
  9
$USERR1
 40
0.0
  9
$USERR2
 40
0.0
  9
$USERR3
 40
0.0
  9
$USERR4
 40
0.0
  9
$USERR5
 40
0.0
  9
$WORLDVIEW
 70
1
  9
$SHADEDGE
 70
3
  9
$SHADEDIF
 70
70
  9
$TILEMODE
 70
1
  9
$MAXACTVP
 70
64
  9
$PINSBASE
 10
0.0
 20
0.0
 30
0.0
  9
$PLIMCHECK
 70
0
  9
$PEXTMIN
 10
1e+20
 20
1e+20
 30
1e+20
  9
$PEXTMAX
 10
-1e+20
 20
-1e+20
 30
-1e+20
  9
$PLIMMIN
 10
0.0
 20
0.0
  9
$PLIMMAX
 10
420.0
 20
297.0
  9
$UNITMODE
 70
0
  9
$VISRETAIN
 70
1
  9
$PLINEGEN
 70
0
  9
$PSLTSCALE
 70
1
  9
$TREEDEPTH
 70
3020
  9
$CMLSTYLE
  2
Standard
  9
$CMLJUST
 70
0
  9
$CMLSCALE
 40
20.0
  9
$PROXYGRAPHICS
 70
1
  9
$MEASUREMENT
 70
1
  9
$CELWEIGHT
370
-1
  9
$ENDCAPS
280
0
  9
$JOINSTYLE
280
0
  9
$LWDISPLAY
290
0
  9
$INSUNITS
 70
4
  9
$HYPERLINKBASE
  1

  9
$STYLESHEET
  1

  9
$XEDIT
290
1
  9
$CEPSNTYPE
380
0
  9
$PSTYLEMODE
290
1
  9
$FINGERPRINTGUID
  2
{A4B1FEA1-1D25-4C66-95CF-D19F8D1EA91C}
  9
$VERSIONGUID
  2
{0B689ACA-F7D0-42A3-A8E6-769FA06CA415}
  9
$EXTNAMES
290
1
  9
$PSVPSCALE
 40
0.0
  9
$OLESTARTUP
290
0
  9
$SORTENTS
280
127
  9
$INDEXCTL
280
0
  9
$HIDETEXT
280
1
  9
$XCLIPFRAME
280
1
  9
$HALOGAP
280
0
  9
$OBSCOLOR
 70
257
  9
$OBSLTYPE
280
0
  9
$INTERSECTIONDISPLAY
280
0
  9
$INTERSECTIONCOLOR
 70
257
  9
$DIMASSOC
280
2
  9
$PROJECTNAME
  1

  9
$CAMERADISPLAY
290
0
  9
$LENSLENGTH
 40
50.0
  9
$CAMERAHEIGHT
 40
0.0
  9
$STEPSPERSEC
 40
24.0
  9
$STEPSIZE
 40
100.0
  9
$3DDWFPREC
 40
2.0
  9
$PSOLWIDTH
 40
0.005
  9
$PSOLHEIGHT
 40
0.08
  9
$LOFTANG1
 40
1.570796326795
  9
$LOFTANG2
 40
1.570796326795
  9
$LOFTMAG1
 40
0.0
  9
$LOFTMAG2
 40
0.0
  9
$LOFTPARAM
 70
7
  9
$LOFTNORMALS
280
1
  9
$LATITUDE
 40
37.795
  9
$LONGITUDE
 40
-122.394
  9
$NORTHDIRECTION
 40
0.0
  9
$TIMEZONE
 70
-8000
  9
$LIGHTGLYPHDISPLAY
280
1
  9
$TILEMODELIGHTSYNCH
280
1
  9
$CMATERIAL
347
20
  9
$SOLIDHIST
280
0
  9
$SHOWHIST
280
1
  9
$DWFFRAME
280
2
  9
$DGNFRAME
280
2
  9
$REALWORLDSCALE
290
1
  9
$INTERFERECOLOR
 62
256
  9
$CSHADOW
280
0
  9
$SHADOWPLANELOCATION
 40
0.0
  0
ENDSEC
  0
SECTION
  2
CLASSES
  0
CLASS
  1
ACDBDICTIONARYWDFLT
  2
AcDbDictionaryWithDefault
  3
ObjectDBX Classes
 90
0
 91
0
280
0
281
0
  0
CLASS
  1
SUN
  2
AcDbSun
  3
SCENEOE
 90
1153
 91
0
280
0
281
0
  0
CLASS
  1
VISUALSTYLE
  2
AcDbVisualStyle
  3
ObjectDBX Classes
 90
4095
 91
0
280
0
281
0
  0
CLASS
  1
MATERIAL
  2
AcDbMaterial
  3
ObjectDBX Classes
 90
1153
 91
0
280
0
281
0
  0
CLASS
  1
SCALE
  2
AcDbScale
  3
ObjectDBX Classes
 90
1153
 91
0
280
0
281
0
  0
CLASS
  1
TABLESTYLE
  2
AcDbTableStyle
  3
ObjectDBX Classes
 90
4095
 91
0
280
0
281
0
  0
CLASS
  1
MLEADERSTYLE
  2
AcDbMLeaderStyle
  3
ACDB_MLEADERSTYLE_CLASS
 90
4095
 91
0
280
0
281
0
  0
CLASS
  1
DICTIONARYVAR
  2
AcDbDictionaryVar
  3
ObjectDBX Classes
 90
0
 91
0
280
0
281
0
  0
CLASS
  1
CELLSTYLEMAP
  2
AcDbCellStyleMap
  3
ObjectDBX Classes
 90
1152
 91
0
280
0
281
0
  0
CLASS
  1
MENTALRAYRENDERSETTINGS
  2
AcDbMentalRayRenderSettings
  3
SCENEOE
 90
1024
 91
0
280
0
281
0
  0
CLASS
  1
ACDBDETAILVIEWSTYLE
  2
AcDbDetailViewStyle
  3
ObjectDBX Classes
 90
1025
 91
0
280
0
281
0
  0
CLASS
  1
ACDBSECTIONVIEWSTYLE
  2
AcDbSectionViewStyle
  3
ObjectDBX Classes
 90
1025
 91
0
280
0
281
0
  0
CLASS
  1
RASTERVARIABLES
  2
AcDbRasterVariables
  3
ISM
 90
0
 91
0
280
0
281
0
  0
CLASS
  1
ACDBPLACEHOLDER
  2
AcDbPlaceHolder
  3
ObjectDBX Classes
 90
0
 91
0
280
0
281
0
  0
CLASS
  1
LAYOUT
  2
AcDbLayout
  3
ObjectDBX Classes
 90
0
 91
0
280
0
281
0
  0
ENDSEC
  0
SECTION
  2
TABLES
  0
TABLE
  2
VPORT
  5
8
330
0
100
AcDbSymbolTable
 70
1
  0
VPORT
  5
3D
330
8
100
AcDbSymbolTableRecord
100
AcDbViewportTableRecord
  2
*Active
 70
0
 10
0.0
 20
0.0
 11
1.0
 21
1.0
 12
-0.024373487190182175
 22
-0.007929470228653202
 13
0.0
 23
0.0
 14
0.5
 24
0.5
 15
0.5
 25
0.5
 16
0.0
 26
0.0
 36
1.0
 17
0.0
 27
0.0
 37
0.0
 40
72.21113106720082
 41
1.34
 42
50.0
 43
0.0
 44
0.0
 50
0.0
 51
0.0
 71
0
 72
1000
 73
1
 74
3
 75
0
 76
0
 77
0
 78
0
281
0
 65
1
110
0.0
120
0.0
130
0.0
111
1.0
121
0.0
131
0.0
112
0.0
122
1.0
132
0.0
 79
0
146
0.0
  0
ENDTAB
  0
TABLE
  2
LTYPE
  5
2
330
0
100
AcDbSymbolTable
 70
4
  0
LTYPE
  5
24
330
2
100
AcDbSymbolTableRecord
100
AcDbLinetypeTableRecord
  2
ByBlock
 70
0
  3

 72
65
 73
0
 40
0.0
  0
LTYPE
  5
25
330
2
100
AcDbSymbolTableRecord
100
AcDbLinetypeTableRecord
  2
ByLayer
 70
0
  3

 72
65
 73
0
 40
0.0
  0
LTYPE
  5
26
330
2
100
AcDbSymbolTableRecord
100
AcDbLinetypeTableRecord
  2
Continuous
 70
0
  3

 72
65
 73
0
 40
0.0
  0
LTYPE
  5
30
330
2
100
AcDbSymbolTableRecord
100
AcDbLinetypeTableRecord
  2
ACAD_ISO02W100
 70
0
  3
ISO dash __ __ __ __ __ __ __ __ __ __ __ __ __
 72
65
 73
2
 40
15.0
 49
12.0
 74
0
 49
-3.0
 74
0
  0
ENDTAB
  0
TABLE
  2
LAYER
  5
1
330
0
100
AcDbSymbolTable
 70
4
  0
LAYER
  5
27
330
1
100
AcDbSymbolTableRecord
100
AcDbLayerTableRecord
  2
0
 70
0
 62
7
  6
Continuous
370
-3
390
13
347
21
  0
LAYER
  5
28
330
1
100
AcDbSymbolTableRecord
100
AcDbLayerTableRecord
  2
Defpoints
 70
0
 62
7
  6
Continuous
290
0
370
-3
390
13
347
21
  0
LAYER
  5
2F
330
1
100
AcDbSymbolTableRecord
100
AcDbLayerTableRecord
  2
VISIBLE
 70
0
 62
7
  6
Continuous
370
25
390
13
347
21
  0
LAYER
  5
31
330
1
100
AcDbSymbolTableRecord
100
AcDbLayerTableRecord
  2
HIDDEN
 70
0
 62
7
  6
ACAD_ISO02W100
370
13
390
13
347
21
  0
ENDTAB
  0
TABLE
  2
STYLE
  5
5
330
0
100
AcDbSymbolTable
 70
1
  0
STYLE
  5
29
330
5
100
AcDbSymbolTableRecord
100
AcDbTextStyleTableRecord
  2
Standard
 70
0
 40
0.0
 41
1.0
 50
0.0
 71
0
 42
2.5
  3
txt
  4

  0
ENDTAB
  0
TABLE
  2
VIEW
  5
7
330
0
100
AcDbSymbolTable
 70
0
  0
ENDTAB
  0
TABLE
  2
UCS
  5
6
330
0
100
AcDbSymbolTable
 70
0
  0
ENDTAB
  0
TABLE
  2
APPID
  5
3
330
0
100
AcDbSymbolTable
 70
3
  0
APPID
  5
2A
330
3
100
AcDbSymbolTableRecord
100
AcDbRegAppTableRecord
  2
ACAD
 70
0
  0
APPID
  5
3E
330
3
100
AcDbSymbolTableRecord
100
AcDbRegAppTableRecord
  2
HATCHBACKGROUNDCOLOR
 70
0
  0
APPID
  5
3F
330
3
100
AcDbSymbolTableRecord
100
AcDbRegAppTableRecord
  2
EZDXF
 70
0
  0
ENDTAB
  0
TABLE
  2
DIMSTYLE
  5
4
330
0
100
AcDbSymbolTable
 70
1
100
AcDbDimStyleTable
  0
DIMSTYLE
105
2B
330
4
100
AcDbSymbolTableRecord
100
AcDbDimStyleTableRecord
  2
Standard
 70
0
 40
1.0
 41
2.5
 42
0.625
 43
3.75
 44
1.25
 45
0.0
 46
0.0
 47
0.0
 48
0.0
 49
2.5
140
2.5
141
2.5
142
0.0
143
0.03937007874
144
1.0
145
0.0
146
1.0
147
0.625
148
0.0
 69
0
 70
0
 71
0
 72
0
 73
0
 74
0
 75
0
 76
0
 77
1
 78
8
 79
3
170
0
171
3
172
1
173
0
174
0
175
0
176
0
177
0
178
0
179
2
271
2
272
2
273
2
274
3
275
0
276
0
277
2
278
44
279
0
280
0
281
0
282
0
283
0
284
8
285
0
286
0
288
0
289
3
290
0
371
-2
372
-2
  0
ENDTAB
  0
TABLE
  2
BLOCK_RECORD
  5
9
330
0
100
AcDbSymbolTable
 70
2
  0
BLOCK_RECORD
  5
17
330
9
100
AcDbSymbolTableRecord
100
AcDbBlockTableRecord
  2
*Model_Space
340
1A
 70
0
280
1
281
0
  0
BLOCK_RECORD
  5
1B
330
9
100
AcDbSymbolTableRecord
100
AcDbBlockTableRecord
  2
*Paper_Space
340
1E
 70
0
280
1
281
0
  0
ENDTAB
  0
ENDSEC
  0
SECTION
  2
BLOCKS
  0
BLOCK
  5
18
330
17
100
AcDbEntity
  8
0
100
AcDbBlockBegin
  2
*Model_Space
 70
0
 10
0.0
 20
0.0
 30
0.0
  3
*Model_Space
  1

  0
ENDBLK
  5
19
330
17
100
AcDbEntity
  8
0
100
AcDbBlockEnd
  0
BLOCK
  5
1C
330
1B
100
AcDbEntity
  8
0
100
AcDbBlockBegin
  2
*Paper_Space
 70
0
 10
0.0
 20
0.0
 30
0.0
  3
*Paper_Space
  1

  0
ENDBLK
  5
1D
330
1B
100
AcDbEntity
  8
0
100
AcDbBlockEnd
  0
ENDSEC
  0
SECTION
  2
ENTITIES
  0
SPLINE
  5
32
330
17
100
AcDbEntity
  8
VISIBLE
100
AcDbSpline
 70
0
 71
3
 72
53
 73
49
 74
0
 40
0.0
 40
0.0
 40
0.0
 40
0.0
 40
0.0625
 40
0.0625
 40
0.0625
 40
0.125
 40
0.125
 40
0.125
 40
0.1875
 40
0.1875
 40
0.1875
 40
0.25
 40
0.25
 40
0.25
 40
0.3125
 40
0.3125
 40
0.3125
 40
0.375
 40
0.375
 40
0.375
 40
0.4375
 40
0.4375
 40
0.4375
 40
0.5
 40
0.5
 40
0.5
 40
0.5625
 40
0.5625
 40
0.5625
 40
0.625
 40
0.625
 40
0.625
 40
0.6875
 40
0.6875
 40
0.6875
 40
0.75
 40
0.75
 40
0.75
 40
0.8125
 40
0.8125
 40
0.8125
 40
0.875
 40
0.875
 40
0.875
 40
0.9375
 40
0.9375
 40
0.9375
 40
1.0
 40
1.0
 40
1.0
 40
1.0
 10
7.105427357601002e-15
 20
31.999999999999986
 30
0.0
 10
-3.927340558916219
 20
32.00222884759296
 30
0.0
 10
-7.852913228977776
 20
31.16932755904309
 30
0.0
 10
-11.480502962960333
 20
29.564145036909434
 30
0.0
 10
-15.109691983510851
 20
27.963080866766866
 30
0.0
 10
-18.437631831282307
 20
25.59117870036324
 30
0.0
 10
-21.213203435592366
 20
22.627417001311727
 30
0.0
 10
-23.991730084093497
 20
19.66680735045392
 30
0.0
 10
-26.215388385418883
 20
16.117004880076568
 30
0.0
 10
-27.716386003305757
 20
12.245869834556476
 30
0.0
 10
-29.22124457583488
 20
8.376440664824335
 30
0.0
 10
-30.00208948347472
 20
4.18916315594299
 30
0.0
 10
-29.99999995536505
 20
-2.2380586273129666e-09
 30
0.0
 10
-30.002089488170324
 20
-4.18916316060786
 30
0.0
 10
-29.22124457687876
 20
-8.376440665217464
 30
0.0
 10
-27.716385997042295
 20
-12.245869831315451
 30
0.0
 10
-26.215388370743668
 20
-16.11700487300764
 30
0.0
 10
-23.99173008098512
 20
-19.66680734306191
 30
0.0
 10
-21.213203460993498
 20
-22.62741700062582
 30
0.0
 10
-18.437631886994858
 20
-25.59117870607778
 30
0.0
 10
-15.109692039593813
 20
-27.963080881923947
 30
0.0
 10
-11.480502931259275
 20
-29.564145042167503
 30
0.0
 10
-7.852913079574068
 20
-31.1693275513069
 30
0.0
 10
-3.927340437085747
 20
-32.00222882993478
 30
0.0
 10
-8.881784197001252e-15
 20
-31.99999999575952
 30
0.0
 10
3.9273404370857175
 20
-32.00222882993476
 30
0.0
 10
7.852913079573978
 20
-31.169327551306925
 30
0.0
 10
11.48050293125926
 20
-29.564145042167485
 30
0.0
 10
15.10969203959375
 20
-27.963080881923883
 30
0.0
 10
18.437631886994783
 20
-25.591178706077773
 30
0.0
 10
21.213203460993473
 20
-22.6274170006258
 30
0.0
 10
23.99173008098502
 20
-19.666807343061894
 30
0.0
 10
26.215388370743593
 20
-16.117004873007616
 30
0.0
 10
27.716385997042277
 20
-12.245869831315446
 30
0.0
 10
29.221244576878643
 20
-8.376440665217416
 30
0.0
 10
30.0020894881704
 20
-4.189163160607906
 30
0.0
 10
29.999999955365034
 20
-2.2380710618108424e-09
 30
0.0
 10
30.00208948347477
 20
4.189163155943024
 30
0.0
 10
29.221244575834895
 20
8.376440664824292
 30
0.0
 10
27.716386003305708
 20
12.245869834556474
 30
0.0
 10
26.21538838541886
 20
16.11700488007666
 30
0.0
 10
23.991730084093604
 20
19.666807350453723
 30
0.0
 10
21.213203435592497
 20
22.627417001311734
 30
0.0
 10
18.437631831282612
 20
25.59117870036318
 30
0.0
 10
15.10969198351155
 20
27.963080866766628
 30
0.0
 10
11.480502962960136
 20
29.564145036909416
 30
0.0
 10
7.85291322897776
 20
31.169327559043104
 30
0.0
 10
3.9273405589130252
 20
32.002228847592306
 30
0.0
 10
7.105427357601002e-15
 20
31.999999999999986
 30
0.0
  0
SPLINE
  5
33
330
17
100
AcDbEntity
  8
VISIBLE
100
AcDbSpline
 70
0
 71
3
 72
8
 73
4
 74
0
 40
0.0
 40
0.0
 40
0.0
 40
0.0
 40
1.0
 40
1.0
 40
1.0
 40
1.0
 10
24.5
 20
-8.881784197001252e-15
 30
0.0
 10
24.503089314394643
 20
3.299331398580776
 30
0.0
 10
23.822276841024223
 20
6.585283973589291
 30
0.0
 10
22.557618581123258
 20
9.560535756356018
 30
0.0
  0
SPLINE
  5
34
330
17
100
AcDbEntity
  8
VISIBLE
100
AcDbSpline
 70
0
 71
3
 72
8
 73
4
 74
0
 40
0.0
 40
0.0
 40
0.0
 40
0.0
 40
1.0
 40
1.0
 40
1.0
 40
1.0
 10
22.557618566316343
 20
-9.560535791292306
 30
0.0
 10
23.82227677621882
 20
-6.585283937165443
 30
0.0
 10
24.503089195007796
 20
-3.299332515665122
 30
0.0
 10
24.5
 20
-8.881784197001252e-15
 30
0.0
  0
CIRCLE
  5
35
330
17
100
AcDbEntity
  8
VISIBLE
100
AcDbCircle
 10
0.0
 20
0.0
 30
0.0
 40
24.5
  0
SPLINE
  5
36
330
17
100
AcDbEntity
  8
VISIBLE
100
AcDbSpline
 70
0
 71
3
 72
71
 73
67
 74
0
 40
0.0
 40
0.0
 40
0.0
 40
0.0
 40
0.0625
 40
0.0625
 40
0.0625
 40
0.125
 40
0.125
 40
0.125
 40
0.1875
 40
0.1875
 40
0.1875
 40
0.25
 40
0.25
 40
0.25
 40
0.3125
 40
0.3125
 40
0.3125
 40
0.375
 40
0.375
 40
0.375
 40
0.40625
 40
0.40625
 40
0.40625
 40
0.4375
 40
0.4375
 40
0.4375
 40
0.46875
 40
0.46875
 40
0.46875
 40
0.5
 40
0.5
 40
0.5
 40
0.53125
 40
0.53125
 40
0.53125
 40
0.5625
 40
0.5625
 40
0.5625
 40
0.59375
 40
0.59375
 40
0.59375
 40
0.625
 40
0.625
 40
0.625
 40
0.6875
 40
0.6875
 40
0.6875
 40
0.75
 40
0.75
 40
0.75
 40
0.8125
 40
0.8125
 40
0.8125
 40
0.875
 40
0.875
 40
0.875
 40
0.90625
 40
0.90625
 40
0.90625
 40
0.9375
 40
0.9375
 40
0.9375
 40
0.96875
 40
0.96875
 40
0.96875
 40
1.0
 40
1.0
 40
1.0
 40
1.0
 10
3.552713678800501e-14
 20
36.086024624699945
 30
0.0
 10
-4.803913981512116
 20
36.097636063371766
 30
0.0
 10
-9.586356654397482
 20
34.85181536001627
 30
0.0
 10
-13.813522320407728
 20
32.60844916708274
 30
0.0
 10
-18.05137674496857
 20
30.37125281927592
 30
0.0
 10
-21.733954162654292
 20
27.136510981891124
 30
0.0
 10
-24.62673411463323
 20
23.33686597092516
 30
0.0
 10
-27.219767810725116
 20
19.9311632774633
 30
0.0
 10
-29.19189992150858
 20
16.06174725994778
 30
0.0
 10
-30.485950098272067
 20
11.975014211156733
 30
0.0
 10
-31.781469214007352
 20
7.887663328712813
 30
0.0
 10
-32.39890639572267
 20
3.582995414993364
 30
0.0
 10
-32.32221158591653
 20
-0.7098925795036735
 30
0.0
 10
-32.25124880013956
 20
-4.734382092005548
 30
0.0
 10
-31.57055929057954
 20
-8.747281032067423
 30
0.0
 10
-30.295826418906316
 20
-12.559093716732134
 30
0.0
 10
-29.022239585483486
 20
-16.370407488488578
 30
0.0
 10
-27.15460938994748
 20
-19.98063500484784
 30
0.0
 10
-24.740708264978906
 20
-23.18631102142136
 30
0.0
 10
-23.278486683110774
 20
-25.12347368908644
 30
0.0
 10
-21.617704185580244
 20
-26.919745859881665
 30
0.0
 10
-19.779064541384592
 20
-28.51247870267072
 30
0.0
 10
-17.941135383728792
 20
-30.10562542566175
 30
0.0
 10
-15.925349079407894
 20
-31.4952328206466
 30
0.0
 10
-13.77230302053503
 20
-32.630240702143546
 30
0.0
 10
-11.619967448202026
 20
-33.76566246384246
 30
0.0
 10
-9.330372121317104
 20
-34.646484712053365
 30
0.0
 10
-6.964008055109265
 20
-35.23323590694908
 30
0.0
 10
-4.598354475441289
 20
-35.820400982046706
 30
0.0
 10
-2.155932156450435
 20
-36.113495003829065
 30
0.0
 10
0.2828742635183801
 20
-36.08463507812333
 30
0.0
 10
2.7099471214658197
 20
-36.06551532586264
 30
0.0
 10
5.1338047854685485
 20
-35.72787740478428
 30
0.0
 10
7.47668527641116
 20
-35.10140419813106
 30
0.0
 10
9.820262542879378
 20
-34.475304273504044
 30
0.0
 10
12.082862636287459
 20
-33.560369063302254
 30
0.0
 10
14.206233292236982
 20
-32.396733347503364
 30
0.0
 10
16.3303007237121
 20
-31.233470913730756
 30
0.0
 10
18.315138717728686
 20
-29.8215079743611
 30
0.0
 10
20.122004724605233
 20
-28.211431206107257
 30
0.0
 10
21.929567507007416
 20
-26.601727719879648
 30
0.0
 10
23.55915830226958
 20
-24.793910404767853
 30
0.0
 10
24.991544275427316
 20
-22.849017834219644
 30
0.0
 10
27.416777913152533
 20
-19.548124659017603
 30
0.0
 10
29.270239609593798
 20
-15.833743720097097
 30
0.0
 10
30.502973522391954
 20
-11.921144298404412
 30
0.0
 10
31.736930363688696
 20
-8.008033998786436
 30
0.0
 10
32.3501594213423
 20
-3.8967052163963647
 30
0.0
 10
32.32794685095385
 20
0.21187734972784256
 30
0.0
 10
32.3068582925366
 20
4.278419678378175
 30
0.0
 10
31.663346598254478
 20
8.340902972650817
 30
0.0
 10
30.412523675400042
 20
12.20432911105469
 30
0.0
 10
29.16288404307325
 20
16.0672468334991
 30
0.0
 10
27.305933182174197
 20
19.7311074000747
 30
0.0
 10
24.88991513476982
 20
22.986677042425306
 30
0.0
 10
23.442800640934635
 20
24.93194788520347
 30
0.0
 10
21.797200772632863
 20
26.738148603736295
 30
0.0
 10
19.973068187027298
 20
28.343203785960995
 30
0.0
 10
18.149642995873215
 20
29.948653012829656
 30
0.0
 10
16.147685087415347
 20
31.352956703390205
 30
0.0
 10
14.006954163458186
 20
32.505072695611446
 30
0.0
 10
11.866930633952526
 20
33.65758273247668
 30
0.0
 10
9.588134088947616
 20
34.55790507100265
 30
0.0
 10
7.230131274889751
 20
35.16603079918992
 30
0.0
 10
4.872835855283384
 20
35.774550572021184
 30
0.0
 10
2.4363341666240963
 20
36.09087373451375
 30
0.0
 10
-2.0872192862952943e-14
 20
36.08602462469991
 30
0.0
  0
SPLINE
  5
37
330
17
100
AcDbEntity
  8
HIDDEN
100
AcDbSpline
 70
0
 71
3
 72
17
 73
13
 74
0
 40
0.0
 40
0.0
 40
0.0
 40
0.0
 40
0.24999999999999986
 40
0.24999999999999986
 40
0.24999999999999986
 40
0.5000000000000003
 40
0.5000000000000003
 40
0.5000000000000003
 40
0.7500000000000001
 40
0.7500000000000001
 40
0.7500000000000001
 40
1.0
 40
1.0
 40
1.0
 40
1.0
 10
22.55761858112354
 20
9.56053575635516
 30
0.0
 10
21.723440966955593
 20
12.241584394329617
 30
0.0
 10
20.535031108970728
 20
14.771997594329001
 30
0.0
 10
19.047152636425402
 20
17.03517024386168
 30
0.0
 10
17.560253278967455
 20
19.29921858116588
 30
0.0
 10
15.774377538527524
 20
21.29527725469872
 30
0.0
 10
13.771821216441277
 20
22.931364993817635
 30
0.0
 10
11.769972826176126
 20
24.56863151197213
 30
0.0
 10
9.552106484585568
 20
25.845385463817088
 30
0.0
 10
7.220424637101026
 20
26.70279217693461
 30
0.0
 10
4.889113970119747
 20
27.561571540732224
 30
0.0
 10
2.4447592399393416
 20
28.00071967195507
 30
0.0
 10
7.549516567451064e-15
 20
27.999999999999986
 30
0.0
  0
SPLINE
  5
38
330
17
100
AcDbEntity
  8
HIDDEN
100
AcDbSpline
 70
0
 71
3
 72
29
 73
25
 74
0
 40
0.0
 40
0.0
 40
0.0
 40
0.0
 40
0.12500000000000003
 40
0.12500000000000003
 40
0.12500000000000003
 40
0.2499999999999999
 40
0.2499999999999999
 40
0.2499999999999999
 40
0.3749999999999999
 40
0.3749999999999999
 40
0.3749999999999999
 40
0.49999999999999994
 40
0.49999999999999994
 40
0.49999999999999994
 40
0.6250000000000001
 40
0.6250000000000001
 40
0.6250000000000001
 40
0.75
 40
0.75
 40
0.75
 40
0.8749999999999999
 40
0.8749999999999999
 40
0.8749999999999999
 40
1.0
 40
1.0
 40
1.0
 40
1.0
 10
-22.557618566316478
 20
-9.560535791291919
 30
0.0
 10
-21.723440945583746
 20
-12.241584422283417
 30
0.0
 10
-20.535031084089436
 20
-14.771997615578162
 30
0.0
 10
-19.047152623126404
 20
-17.035170262552715
 30
0.0
 10
-17.560253275650936
 20
-19.299218596947966
 30
0.0
 10
-15.774377561831644
 20
-21.295277272624467
 30
0.0
 10
-13.771821237741815
 20
-22.931365011784475
 30
0.0
 10
-11.769972849458439
 20
-24.56863153044673
 30
0.0
 10
-9.55210645578059
 20
-25.84538547601386
 30
0.0
 10
-7.220424562873096
 20
-26.70279217817395
 30
0.0
 10
-4.8891138328470305
 20
-27.561571528718623
 30
0.0
 10
-2.444759180993181
 20
-28.000719661708363
 30
0.0
 10
-2.078337502098293e-13
 20
-27.999999996289574
 30
0.0
 10
2.4447591809927354
 20
-28.00071966170843
 30
0.0
 10
4.8891138328466335
 20
-27.56157152871868
 30
0.0
 10
7.220424562872697
 20
-26.702792178174086
 30
0.0
 10
9.55210645578021
 20
-25.845385476014037
 30
0.0
 10
11.769972849458025
 20
-24.56863153044693
 30
0.0
 10
13.771821237741467
 20
-22.931365011784727
 30
0.0
 10
15.774377561831326
 20
-21.29527727262472
 30
0.0
 10
17.56025327565065
 20
-19.299218596948247
 30
0.0
 10
19.047152623126134
 20
-17.03517026255307
 30
0.0
 10
20.535031084089194
 20
-14.77199761557849
 30
0.0
 10
21.723440945583587
 20
-12.24158442228374
 30
0.0
 10
22.55761856631633
 20
-9.560535791292356
 30
0.0
  0
SPLINE
  5
39
330
17
100
AcDbEntity
  8
HIDDEN
100
AcDbSpline
 70
0
 71
3
 72
11
 73
7
 74
0
 40
0.0
 40
0.0
 40
0.0
 40
0.0
 40
0.4966662115079927
 40
0.4966662115079927
 40
0.4966662115079927
 40
1.0
 40
1.0
 40
1.0
 40
1.0
 10
-22.557618581123336
 20
9.560535756355875
 30
0.0
 10
-23.813736621547918
 20
6.605233134722659
 30
0.0
 10
-24.494058903039225
 20
3.343380819850901
 30
0.0
 10
-24.499910751034925
 20
0.06613010904820626
 30
0.0
 10
-24.51205713343646
 20
-3.2552802022219813
 30
0.0
 10
-23.83079395312789
 20
-6.565443423687543
 30
0.0
 10
-22.557618566316428
 20
-9.560535791292054
 30
0.0
  0
SPLINE
  5
3A
330
17
100
AcDbEntity
  8
HIDDEN
100
AcDbSpline
 70
0
 71
3
 72
17
 73
13
 74
0
 40
0.0
 40
0.0
 40
0.0
 40
0.0
 40
0.04863534674682529
 40
0.04863534674682529
 40
0.04863534674682529
 40
0.09727069349365058
 40
0.09727069349365058
 40
0.09727069349365058
 40
0.14590604024047588
 40
0.14590604024047588
 40
0.14590604024047588
 40
0.19454138698730117
 40
0.19454138698730117
 40
0.19454138698730117
 40
0.19454138698730117
 10
2.1316282072803006e-14
 20
28.0
 30
0.0
 10
-2.4447592399403373
 20
28.000719671954464
 30
0.0
 10
-4.889113970119932
 20
27.561571540731904
 30
0.0
 10
-7.220424637101211
 20
26.70279217693461
 30
0.0
 10
-9.552106484585202
 20
25.845385463816733
 30
0.0
 10
-11.76997282617548
 20
24.568631511972125
 30
0.0
 10
-13.771821216440896
 20
22.931364993817848
 30
0.0
 10
-15.774377538526943
 20
21.295277254698686
 30
0.0
 10
-17.56025327896702
 20
19.299218581165924
 30
0.0
 10
-19.047152636425107
 20
17.03517024386208
 30
0.0
 10
-20.535031108970315
 20
14.771997594329344
 30
0.0
 10
-21.723440966955337
 20
12.241584394329966
 30
0.0
 10
-22.557618581123364
 20
9.5605357563558
 30
0.0
  0
ARC
  5
3B
330
17
100
AcDbEntity
  8
HIDDEN
100
AcDbCircle
 10
0.0
 20
0.0
 30
0.0
 40
24.5
100
AcDbArc
 50
22.968559351236824
 51
157.03144064876196
  0
ARC
  5
3C
330
17
100
AcDbEntity
  8
HIDDEN
100
AcDbCircle
 10
0.0
 20
0.0
 30
0.0
 40
24.5
100
AcDbArc
 50
202.9685594399749
 51
337.0314405600242
  0
ENDSEC
  0
SECTION
  2
OBJECTS
  0
DICTIONARY
  5
A
330
0
100
AcDbDictionary
281
1
  3
ACAD_COLOR
350
B
  3
ACAD_GROUP
350
C
  3
ACAD_LAYOUT
350
D
  3
ACAD_MATERIAL
350
E
  3
ACAD_MLEADERSTYLE
350
F
  3
ACAD_MLINESTYLE
350
10
  3
ACAD_PLOTSETTINGS
350
11
  3
ACAD_PLOTSTYLENAME
350
12
  3
ACAD_SCALELIST
350
14
  3
ACAD_TABLESTYLE
350
15
  3
ACAD_VISUALSTYLE
350
16
  3
EZDXF_META
350
2D
  0
DICTIONARY
  5
B
330
A
100
AcDbDictionary
281
1
  0
DICTIONARY
  5
C
330
A
100
AcDbDictionary
281
1
  0
DICTIONARY
  5
D
330
A
100
AcDbDictionary
281
1
  3
Model
350
1A
  3
Layout1
350
1E
  0
DICTIONARY
  5
E
330
A
100
AcDbDictionary
281
1
  3
ByBlock
350
1F
  3
ByLayer
350
20
  3
Global
350
21
  0
DICTIONARY
  5
F
330
A
100
AcDbDictionary
281
1
  3
Standard
350
2C
  0
DICTIONARY
  5
10
330
A
100
AcDbDictionary
281
1
  3
Standard
350
22
  0
DICTIONARY
  5
11
330
A
100
AcDbDictionary
281
1
  0
ACDBDICTIONARYWDFLT
  5
12
330
A
100
AcDbDictionary
281
1
  3
Normal
350
13
100
AcDbDictionaryWithDefault
340
13
  0
ACDBPLACEHOLDER
  5
13
330
12
  0
DICTIONARY
  5
14
330
A
100
AcDbDictionary
281
1
  0
DICTIONARY
  5
15
330
A
100
AcDbDictionary
281
1
  0
DICTIONARY
  5
16
330
A
100
AcDbDictionary
281
1
  0
LAYOUT
  5
1A
330
D
100
AcDbPlotSettings
  1

  4
A3
  6

 40
7.5
 41
20.0
 42
7.5
 43
20.0
 44
420.0
 45
297.0
 46
0.0
 47
0.0
 48
0.0
 49
0.0
140
0.0
141
0.0
142
1.0
143
1.0
 70
1024
 72
1
 73
0
 74
5
  7

 75
16
 76
0
 77
2
 78
300
147
1.0
148
0.0
149
0.0
100
AcDbLayout
  1
Model
 70
1
 71
0
 10
0.0
 20
0.0
 11
420.0
 21
297.0
 12
0.0
 22
0.0
 32
0.0
 14
1e+20
 24
1e+20
 34
1e+20
 15
-1e+20
 25
-1e+20
 35
-1e+20
146
0.0
 13
0.0
 23
0.0
 33
0.0
 16
1.0
 26
0.0
 36
0.0
 17
0.0
 27
1.0
 37
0.0
 76
1
330
17
  0
LAYOUT
  5
1E
330
D
100
AcDbPlotSettings
  1

  4
A3
  6

 40
7.5
 41
20.0
 42
7.5
 43
20.0
 44
420.0
 45
297.0
 46
0.0
 47
0.0
 48
0.0
 49
0.0
140
0.0
141
0.0
142
1.0
143
1.0
 70
0
 72
1
 73
0
 74
5
  7

 75
16
 76
0
 77
2
 78
300
147
1.0
148
0.0
149
0.0
100
AcDbLayout
  1
Layout1
 70
1
 71
1
 10
0.0
 20
0.0
 11
420.0
 21
297.0
 12
0.0
 22
0.0
 32
0.0
 14
1e+20
 24
1e+20
 34
1e+20
 15
-1e+20
 25
-1e+20
 35
-1e+20
146
0.0
 13
0.0
 23
0.0
 33
0.0
 16
1.0
 26
0.0
 36
0.0
 17
0.0
 27
1.0
 37
0.0
 76
1
330
1B
  0
MATERIAL
  5
1F
102
{ACAD_REACTORS
330
E
102
}
330
E
100
AcDbMaterial
  1
ByBlock
  2

 70
0
 40
1.0
 71
1
 41
1.0
 91
-1023410177
 42
1.0
 72
1
  3

 73
1
 74
1
 75
1
 44
0.5
 73
0
 45
1.0
 46
1.0
 77
1
  4

 78
1
 79
1
170
1
 48
1.0
171
1
  6

172
1
173
1
174
1
140
1.0
141
1.0
175
1
  7

176
1
177
1
178
1
143
1.0
179
1
  8

270
1
271
1
272
1
145
1.0
146
1.0
273
1
  9

274
1
275
1
276
1
 42
1.0
 72
1
  3

 73
1
 74
1
 75
1
 94
63
  0
MATERIAL
  5
20
102
{ACAD_REACTORS
330
E
102
}
330
E
100
AcDbMaterial
  1
ByLayer
  2

 70
0
 40
1.0
 71
1
 41
1.0
 91
-1023410177
 42
1.0
 72
1
  3

 73
1
 74
1
 75
1
 44
0.5
 73
0
 45
1.0
 46
1.0
 77
1
  4

 78
1
 79
1
170
1
 48
1.0
171
1
  6

172
1
173
1
174
1
140
1.0
141
1.0
175
1
  7

176
1
177
1
178
1
143
1.0
179
1
  8

270
1
271
1
272
1
145
1.0
146
1.0
273
1
  9

274
1
275
1
276
1
 42
1.0
 72
1
  3

 73
1
 74
1
 75
1
 94
63
  0
MATERIAL
  5
21
102
{ACAD_REACTORS
330
E
102
}
330
E
100
AcDbMaterial
  1
Global
  2

 70
0
 40
1.0
 71
1
 41
1.0
 91
-1023410177
 42
1.0
 72
1
  3

 73
1
 74
1
 75
1
 44
0.5
 73
0
 45
1.0
 46
1.0
 77
1
  4

 78
1
 79
1
170
1
 48
1.0
171
1
  6

172
1
173
1
174
1
140
1.0
141
1.0
175
1
  7

176
1
177
1
178
1
143
1.0
179
1
  8

270
1
271
1
272
1
145
1.0
146
1.0
273
1
  9

274
1
275
1
276
1
 42
1.0
 72
1
  3

 73
1
 74
1
 75
1
 94
63
  0
MLINESTYLE
  5
22
102
{ACAD_REACTORS
330
10
102
}
330
10
100
AcDbMlineStyle
  2
Standard
 70
0
  3

 62
256
 51
90.0
 52
90.0
 71
2
 49
0.5
 62
256
  6
BYLAYER
 49
-0.5
 62
256
  6
BYLAYER
  0
MLEADERSTYLE
  5
2C
102
{ACAD_REACTORS
330
F
102
}
330
F
100
AcDbMLeaderStyle
179
2
170
2
171
1
172
0
 90
2
 40
0.0
 41
0.0
173
1
 91
-1056964608
 92
-2
290
1
 42
2.0
291
1
 43
8.0
  3
Standard
 44
4.0
300

342
29
174
1
175
1
176
0
178
1
 93
-1056964608
 45
4.0
292
0
297
0
 46
4.0
 94
-1056964608
 47
1.0
 49
1.0
140
1.0
294
1
141
0.0
177
0
142
1.0
295
0
296
0
143
3.75
271
0
272
9
273
9
  0
DICTIONARY
  5
2D
330
A
100
AcDbDictionary
280
1
281
1
  3
CREATED_BY_EZDXF
350
2E
  3
WRITTEN_BY_EZDXF
350
40
  0
DICTIONARYVAR
  5
2E
330
2D
100
DictionaryVariables
280
0
  1
1.4.4 @ 2026-10-07T09:44:42.770185+00:00
  0
DICTIONARYVAR
  5
40
330
2D
100
DictionaryVariables
280
0
  1
1.4.4 @ 2026-10-07T09:44:42.823305+00:00
  0
ENDSEC
  0
EOF
