  0
SECTION
  2
HEADER
  9
$ACADVER
  1
AC1027
  9
$ACADMAINTVER
 70
105
  9
$DWGCODEPAGE
  3
ANSI_1252
  9
$LASTSAVEDBY
  1
ezdxf
  9
$REQUIREDVERSIONS
160
0
  9
$INSBASE
 10
0.0
 20
0.0
 30
0.0
  9
$EXTMIN
 10
1e+20
 20
1e+20
 30
1e+20
  9
$EXTMAX
 10
-1e+20
 20
-1e+20
 30
-1e+20
  9
$LIMMIN
 10
0.0
 20
0.0
  9
$LIMMAX
 10
420.0
 20
297.0
  9
$ORTHOMODE
 70
0
  9
$REGENMODE
 70
1
  9
$FILLMODE
 70
1
  9
$QTEXTMODE
 70
0
  9
$MIRRTEXT
 70
1
  9
$LTSCALE
 40
1.0
  9
$ATTMODE
 70
1
  9
$TEXTSIZE
 40
2.5
  9
$TRACEWID
 40
1.0
  9
$TEXTSTYLE
  7
Standard
  9
$CLAYER
  8
0
  9
$CELTYPE
  6
ByLayer
  9
$CECOLOR
 62
256
  9
$CELTSCALE
 40
1.0
  9
$DISPSILH
 70
0
  9
$DIMSCALE
 40
1.0
  9
$DIMASZ
 40
2.5
  9
$DIMEXO
 40
0.625
  9
$DIMDLI
 40
3.75
  9
$DIMRND
 40
0.0
  9
$DIMDLE
 40
0.0
  9
$DIMEXE
 40
1.25
  9
$DIMTP
 40
0.0
  9
$DIMTM
 40
0.0
  9
$DIMTXT
 40
2.5
  9
$DIMCEN
 40
2.5
  9
$DIMTSZ
 40
0.0
  9
$DIMTOL
 70
0
  9
$DIMLIM
 70
0
  9
$DIMTIH
 70
0
  9
$DIMTOH
 70
0
  9
$DIMSE1
 70
0
  9
$DIMSE2
 70
0
  9
$DIMTAD
 70
1
  9
$DIMZIN
 70
8
  9
$DIMBLK
  1

  9
$DIMASO
 70
1
  9
$DIMSHO
 70
1
  9
$DIMPOST
  1

  9
$DIMAPOST
  1

  9
$DIMALT
 70
0
  9
$DIMALTD
 70
3
  9
$DIMALTF
 40
0.03937007874
  9
$DIMLFAC
 40
1.0
  9
$DIMTOFL
 70
1
  9
$DIMTVP
 40
0.0
  9
$DIMTIX
 70
0
  9
$DIMSOXD
 70
0
  9
$DIMSAH
 70
0
  9
$DIMBLK1
  1

  9
$DIMBLK2
  1

  9
$DIMSTYLE
  2
ISO-25
  9
$DIMCLRD
 70
0
  9
$DIMCLRE
 70
0
  9
$DIMCLRT
 70
0
  9
$DIMTFAC
 40
1.0
  9
$DIMGAP
 40
0.625
  9
$DIMJUST
 70
0
  9
$DIMSD1
 70
0
  9
$DIMSD2
 70
0
  9
$DIMTOLJ
 70
0
  9
$DIMTZIN
 70
8
  9
$DIMALTZ
 70
0
  9
$DIMALTTZ
 70
0
  9
$DIMUPT
 70
0
  9
$DIMDEC
 70
2
  9
$DIMTDEC
 70
2
  9
$DIMALTU
 70
2
  9
$DIMALTTD
 70
3
  9
$DIMTXSTY
  7
Standard
  9
$DIMAUNIT
 70
0
  9
$DIMADEC
 70
0
  9
$DIMALTRND
 40
0.0
  9
$DIMAZIN
 70
0
  9
$DIMDSEP
 70
44
  9
$DIMATFIT
 70
3
  9
$DIMFRAC
 70
0
  9
$DIMLDRBLK
  1

  9
$DIMLUNIT
 70
2
  9
$DIMLWD
 70
-2
  9
$DIMLWE
 70
-2
  9
$DIMTMOVE
 70
0
  9
$DIMFXL
 40
1.0
  9
$DIMFXLON
 70
0
  9
$DIMJOGANG
 40
0.785398163397
  9
$DIMTFILL
 70
0
  9
$DIMTFILLCLR
 70
0
  9
$DIMARCSYM
 70
0
  9
$DIMLTYPE
  6

  9
$DIMLTEX1
  6

  9
$DIMLTEX2
  6

  9
$DIMTXTDIRECTION
 70
0
  9
$LUNITS
 70
2
  9
$LUPREC
 70
4
  9
$SKETCHINC
 40
1.0
  9
$FILLETRAD
 40
10.0
  9
$AUNITS
 70
0
  9
$AUPREC
 70
2
  9
$MENU
  1
.
  9
$ELEVATION
 40
0.0
  9
$PELEVATION
 40
0.0
  9
$THICKNESS
 40
0.0
  9
$LIMCHECK
 70
0
  9
$CHAMFERA
 40
0.0
  9
$CHAMFERB
 40
0.0
  9
$CHAMFERC
 40
0.0
  9
$CHAMFERD
 40
0.0
  9
$SKPOLY
 70
0
  9
$TDCREATE
 40
2461322.5599189815
  9
$TDUCREATE
 40
2458532.153996898
  9
$TDUPDATE
 40
2461322.5599189815
  9
$TDUUPDATE
 40
2458532.1544311
  9
$TDINDWG
 40
0.0
  9
$TDUSRTIMER
 40
0.0
  9
$USRTIMER
 70
1
  9
$ANGBASE
 50
0.0
  9
$ANGDIR
 70
0
  9
$PDMODE
 70
0
  9
$PDSIZE
 40
0.0
  9
$PLINEWID
 40
0.0
  9
$SPLFRAME
 70
0
  9
$SPLINETYPE
 70
6
  9
$SPLINESEGS
 70
8
  9
$HANDSEED
  5
66
  9
$SURFTAB1
 70
6
  9
$SURFTAB2
 70
6
  9
$SURFTYPE
 70
6
  9
$SURFU
 70
6
  9
$SURFV
 70
6
  9
$UCSBASE
  2

  9
$UCSNAME
  2

  9
$UCSORG
 10
0.0
 20
0.0
 30
0.0
  9
$UCSXDIR
 10
1.0
 20
0.0
 30
0.0
  9
$UCSYDIR
 10
0.0
 20
1.0
 30
0.0
  9
$UCSORTHOREF
  2

  9
$UCSORTHOVIEW
 70
0
  9
$UCSORGTOP
 10
0.0
 20
0.0
 30
0.0
  9
$UCSORGBOTTOM
 10
0.0
 20
0.0
 30
0.0
  9
$UCSORGLEFT
 10
0.0
 20
0.0
 30
0.0
  9
$UCSORGRIGHT
 10
0.0
 20
0.0
 30
0.0
  9
$UCSORGFRONT
 10
0.0
 20
0.0
 30
0.0
  9
$UCSORGBACK
 10
0.0
 20
0.0
 30
0.0
  9
$PUCSBASE
  2

  9
$PUCSNAME
  2

  9
$PUCSORG
 10
0.0
 20
0.0
 30
0.0
  9
$PUCSXDIR
 10
1.0
 20
0.0
 30
0.0
  9
$PUCSYDIR
 10
0.0
 20
1.0
 30
0.0
  9
$PUCSORTHOREF
  2

  9
$PUCSORTHOVIEW
 70
0
  9
$PUCSORGTOP
 10
0.0
 20
0.0
 30
0.0
  9
$PUCSORGBOTTOM
 10
0.0
 20
0.0
 30
0.0
  9
$PUCSORGLEFT
 10
0.0
 20
0.0
 30
0.0
  9
$PUCSORGRIGHT
 10
0.0
 20
0.0
 30
0.0
  9
$PUCSORGFRONT
 10
0.0
 20
0.0
 30
0.0
  9
$PUCSORGBACK
 10
0.0
 20
0.0
 30
0.0
  9
$USERI1
 70
0
  9
$USERI2
 70
0
  9
$USERI3
 70
0
  9
$USERI4
 70
0
  9
$USERI5
 70
0
  9
$USERR1
 40
0.0
  9
$USERR2
 40
0.0
  9
$USERR3
 40
0.0
  9
$USERR4
 40
0.0
  9
$USERR5
 40
0.0
  9
$WORLDVIEW
 70
1
  9
$SHADEDGE
 70
3
  9
$SHADEDIF
 70
70
  9
$TILEMODE
 70
1
  9
$MAXACTVP
 70
64
  9
$PINSBASE
 10
0.0
 20
0.0
 30
0.0
  9
$PLIMCHECK
 70
0
  9
$PEXTMIN
 10
1e+20
 20
1e+20
 30
1e+20
  9
$PEXTMAX
 10
-1e+20
 20
-1e+20
 30
-1e+20
  9
$PLIMMIN
 10
0.0
 20
0.0
  9
$PLIMMAX
 10
420.0
 20
297.0
  9
$UNITMODE
 70
0
  9
$VISRETAIN
 70
1
  9
$PLINEGEN
 70
0
  9
$PSLTSCALE
 70
1
  9
$TREEDEPTH
 70
3020
  9
$CMLSTYLE
  2
Standard
  9
$CMLJUST
 70
0
  9
$CMLSCALE
 40
20.0
  9
$PROXYGRAPHICS
 70
1
  9
$MEASUREMENT
 70
1
  9
$CELWEIGHT
370
-1
  9
$ENDCAPS
280
0
  9
$JOINSTYLE
280
0
  9
$LWDISPLAY
290
0
  9
$INSUNITS
 70
4
  9
$HYPERLINKBASE
  1

  9
$STYLESHEET
  1

  9
$XEDIT
290
1
  9
$CEPSNTYPE
380
0
  9
$PSTYLEMODE
290
1
  9
$FINGERPRINTGUID
  2
{CFC8C186-A41F-4A8F-99CB-4F3E8B7C9320}
  9
$VERSIONGUID
  2
{B32E05BB-CB31-447C-AAEC-2D602D35C1C9}
  9
$EXTNAMES
290
1
  9
$PSVPSCALE
 40
0.0
  9
$OLESTARTUP
290
0
  9
$SORTENTS
280
127
  9
$INDEXCTL
280
0
  9
$HIDETEXT
280
1
  9
$XCLIPFRAME
280
1
  9
$HALOGAP
280
0
  9
$OBSCOLOR
 70
257
  9
$OBSLTYPE
280
0
  9
$INTERSECTIONDISPLAY
280
0
  9
$INTERSECTIONCOLOR
 70
257
  9
$DIMASSOC
280
2
  9
$PROJECTNAME
  1

  9
$CAMERADISPLAY
290
0
  9
$LENSLENGTH
 40
50.0
  9
$CAMERAHEIGHT
 40
0.0
  9
$STEPSPERSEC
 40
24.0
  9
$STEPSIZE
 40
100.0
  9
$3DDWFPREC
 40
2.0
  9
$PSOLWIDTH
 40
0.005
  9
$PSOLHEIGHT
 40
0.08
  9
$LOFTANG1
 40
1.570796326795
  9
$LOFTANG2
 40
1.570796326795
  9
$LOFTMAG1
 40
0.0
  9
$LOFTMAG2
 40
0.0
  9
$LOFTPARAM
 70
7
  9
$LOFTNORMALS
280
1
  9
$LATITUDE
 40
37.795
  9
$LONGITUDE
 40
-122.394
  9
$NORTHDIRECTION
 40
0.0
  9
$TIMEZONE
 70
-8000
  9
$LIGHTGLYPHDISPLAY
280
1
  9
$TILEMODELIGHTSYNCH
280
1
  9
$CMATERIAL
347
20
  9
$SOLIDHIST
280
0
  9
$SHOWHIST
280
1
  9
$DWFFRAME
280
2
  9
$DGNFRAME
280
2
  9
$REALWORLDSCALE
290
1
  9
$INTERFERECOLOR
 62
256
  9
$CSHADOW
280
0
  9
$SHADOWPLANELOCATION
 40
0.0
  0
ENDSEC
  0
SECTION
  2
CLASSES
  0
CLASS
  1
ACDBDICTIONARYWDFLT
  2
AcDbDictionaryWithDefault
  3
ObjectDBX Classes
 90
0
 91
0
280
0
281
0
  0
CLASS
  1
SUN
  2
AcDbSun
  3
SCENEOE
 90
1153
 91
0
280
0
281
0
  0
CLASS
  1
VISUALSTYLE
  2
AcDbVisualStyle
  3
ObjectDBX Classes
 90
4095
 91
0
280
0
281
0
  0
CLASS
  1
MATERIAL
  2
AcDbMaterial
  3
ObjectDBX Classes
 90
1153
 91
0
280
0
281
0
  0
CLASS
  1
SCALE
  2
AcDbScale
  3
ObjectDBX Classes
 90
1153
 91
0
280
0
281
0
  0
CLASS
  1
TABLESTYLE
  2
AcDbTableStyle
  3
ObjectDBX Classes
 90
4095
 91
0
280
0
281
0
  0
CLASS
  1
MLEADERSTYLE
  2
AcDbMLeaderStyle
  3
ACDB_MLEADERSTYLE_CLASS
 90
4095
 91
0
280
0
281
0
  0
CLASS
  1
DICTIONARYVAR
  2
AcDbDictionaryVar
  3
ObjectDBX Classes
 90
0
 91
0
280
0
281
0
  0
CLASS
  1
CELLSTYLEMAP
  2
AcDbCellStyleMap
  3
ObjectDBX Classes
 90
1152
 91
0
280
0
281
0
  0
CLASS
  1
MENTALRAYRENDERSETTINGS
  2
AcDbMentalRayRenderSettings
  3
SCENEOE
 90
1024
 91
0
280
0
281
0
  0
CLASS
  1
ACDBDETAILVIEWSTYLE
  2
AcDbDetailViewStyle
  3
ObjectDBX Classes
 90
1025
 91
0
280
0
281
0
  0
CLASS
  1
ACDBSECTIONVIEWSTYLE
  2
AcDbSectionViewStyle
  3
ObjectDBX Classes
 90
1025
 91
0
280
0
281
0
  0
CLASS
  1
RASTERVARIABLES
  2
AcDbRasterVariables
  3
ISM
 90
0
 91
0
280
0
281
0
  0
CLASS
  1
ACDBPLACEHOLDER
  2
AcDbPlaceHolder
  3
ObjectDBX Classes
 90
0
 91
0
280
0
281
0
  0
CLASS
  1
LAYOUT
  2
AcDbLayout
  3
ObjectDBX Classes
 90
0
 91
0
280
0
281
0
  0
ENDSEC
  0
SECTION
  2
TABLES
  0
TABLE
  2
VPORT
  5
8
330
0
100
AcDbSymbolTable
 70
1
  0
VPORT
  5
62
330
8
100
AcDbSymbolTableRecord
100
AcDbViewportTableRecord
  2
*Active
 70
0
 10
0.0
 20
0.0
 11
1.0
 21
1.0
 12
1.2163070550741395e-10
 22
-58.00000000000003
 13
0.0
 23
0.0
 14
0.5
 24
0.5
 15
0.5
 25
0.5
 16
0.0
 26
0.0
 36
1.0
 17
0.0
 27
0.0
 37
0.0
 40
152.0000000000001
 41
1.34
 42
50.0
 43
0.0
 44
0.0
 50
0.0
 51
0.0
 71
0
 72
1000
 73
1
 74
3
 75
0
 76
0
 77
0
 78
0
281
0
 65
1
110
0.0
120
0.0
130
0.0
111
1.0
121
0.0
131
0.0
112
0.0
122
1.0
132
0.0
 79
0
146
0.0
  0
ENDTAB
  0
TABLE
  2
LTYPE
  5
2
330
0
100
AcDbSymbolTable
 70
4
  0
LTYPE
  5
24
330
2
100
AcDbSymbolTableRecord
100
AcDbLinetypeTableRecord
  2
ByBlock
 70
0
  3

 72
65
 73
0
 40
0.0
  0
LTYPE
  5
25
330
2
100
AcDbSymbolTableRecord
100
AcDbLinetypeTableRecord
  2
ByLayer
 70
0
  3

 72
65
 73
0
 40
0.0
  0
LTYPE
  5
26
330
2
100
AcDbSymbolTableRecord
100
AcDbLinetypeTableRecord
  2
Continuous
 70
0
  3

 72
65
 73
0
 40
0.0
  0
LTYPE
  5
30
330
2
100
AcDbSymbolTableRecord
100
AcDbLinetypeTableRecord
  2
ACAD_ISO02W100
 70
0
  3
ISO dash __ __ __ __ __ __ __ __ __ __ __ __ __
 72
65
 73
2
 40
15.0
 49
12.0
 74
0
 49
-3.0
 74
0
  0
ENDTAB
  0
TABLE
  2
LAYER
  5
1
330
0
100
AcDbSymbolTable
 70
4
  0
LAYER
  5
27
330
1
100
AcDbSymbolTableRecord
100
AcDbLayerTableRecord
  2
0
 70
0
 62
7
  6
Continuous
370
-3
390
13
347
21
  0
LAYER
  5
28
330
1
100
AcDbSymbolTableRecord
100
AcDbLayerTableRecord
  2
Defpoints
 70
0
 62
7
  6
Continuous
290
0
370
-3
390
13
347
21
  0
LAYER
  5
2F
330
1
100
AcDbSymbolTableRecord
100
AcDbLayerTableRecord
  2
VISIBLE
 70
0
 62
7
  6
Continuous
370
25
390
13
347
21
  0
LAYER
  5
31
330
1
100
AcDbSymbolTableRecord
100
AcDbLayerTableRecord
  2
HIDDEN
 70
0
 62
7
  6
ACAD_ISO02W100
370
13
390
13
347
21
  0
ENDTAB
  0
TABLE
  2
STYLE
  5
5
330
0
100
AcDbSymbolTable
 70
1
  0
STYLE
  5
29
330
5
100
AcDbSymbolTableRecord
100
AcDbTextStyleTableRecord
  2
Standard
 70
0
 40
0.0
 41
1.0
 50
0.0
 71
0
 42
2.5
  3
txt
  4

  0
ENDTAB
  0
TABLE
  2
VIEW
  5
7
330
0
100
AcDbSymbolTable
 70
0
  0
ENDTAB
  0
TABLE
  2
UCS
  5
6
330
0
100
AcDbSymbolTable
 70
0
  0
ENDTAB
  0
TABLE
  2
APPID
  5
3
330
0
100
AcDbSymbolTable
 70
3
  0
APPID
  5
2A
330
3
100
AcDbSymbolTableRecord
100
AcDbRegAppTableRecord
  2
ACAD
 70
0
  0
APPID
  5
63
330
3
100
AcDbSymbolTableRecord
100
AcDbRegAppTableRecord
  2
HATCHBACKGROUNDCOLOR
 70
0
  0
APPID
  5
64
330
3
100
AcDbSymbolTableRecord
100
AcDbRegAppTableRecord
  2
EZDXF
 70
0
  0
ENDTAB
  0
TABLE
  2
DIMSTYLE
  5
4
330
0
100
AcDbSymbolTable
 70
1
100
AcDbDimStyleTable
  0
DIMSTYLE
105
2B
330
4
100
AcDbSymbolTableRecord
100
AcDbDimStyleTableRecord
  2
Standard
 70
0
 40
1.0
 41
2.5
 42
0.625
 43
3.75
 44
1.25
 45
0.0
 46
0.0
 47
0.0
 48
0.0
 49
2.5
140
2.5
141
2.5
142
0.0
143
0.03937007874
144
1.0
145
0.0
146
1.0
147
0.625
148
0.0
 69
0
 70
0
 71
0
 72
0
 73
0
 74
0
 75
0
 76
0
 77
1
 78
8
 79
3
170
0
171
3
172
1
173
0
174
0
175
0
176
0
177
0
178
0
179
2
271
2
272
2
273
2
274
3
275
0
276
0
277
2
278
44
279
0
280
0
281
0
282
0
283
0
284
8
285
0
286
0
288
0
289
3
290
0
371
-2
372
-2
  0
ENDTAB
  0
TABLE
  2
BLOCK_RECORD
  5
9
330
0
100
AcDbSymbolTable
 70
2
  0
BLOCK_RECORD
  5
17
330
9
100
AcDbSymbolTableRecord
100
AcDbBlockTableRecord
  2
*Model_Space
340
1A
 70
0
280
1
281
0
  0
BLOCK_RECORD
  5
1B
330
9
100
AcDbSymbolTableRecord
100
AcDbBlockTableRecord
  2
*Paper_Space
340
1E
 70
0
280
1
281
0
  0
ENDTAB
  0
ENDSEC
  0
SECTION
  2
BLOCKS
  0
BLOCK
  5
18
330
17
100
AcDbEntity
  8
0
100
AcDbBlockBegin
  2
*Model_Space
 70
0
 10
0.0
 20
0.0
 30
0.0
  3
*Model_Space
  1

  0
ENDBLK
  5
19
330
17
100
AcDbEntity
  8
0
100
AcDbBlockEnd
  0
BLOCK
  5
1C
330
1B
100
AcDbEntity
  8
0
100
AcDbBlockBegin
  2
*Paper_Space
 70
0
 10
0.0
 20
0.0
 30
0.0
  3
*Paper_Space
  1

  0
ENDBLK
  5
1D
330
1B
100
AcDbEntity
  8
0
100
AcDbBlockEnd
  0
ENDSEC
  0
SECTION
  2
ENTITIES
  0
SPLINE
  5
32
330
17
100
AcDbEntity
  8
VISIBLE
100
AcDbSpline
 70
0
 71
3
 72
14
 73
10
 74
0
 40
0.0
 40
0.0
 40
0.0
 40
0.0
 40
0.12500000003142975
 40
0.12500000003142975
 40
0.12500000003142975
 40
0.18750000004714462
 40
0.18750000004714462
 40
0.18750000004714462
 40
0.2500000000628595
 40
0.2500000000628595
 40
0.2500000000628595
 40
0.2500000000628595
 10
8.881784197001252e-15
 20
18.0
 30
0.0
 10
2.6216470310460944
 20
17.999999999999993
 30
0.0
 10
5.224787200711662
 20
18.0
 30
0.0
 10
7.071067813260518
 20
18.0
 30
0.0
 10
7.9972433628115125
 20
17.999999999999993
 30
0.0
 10
8.738462796506191
 20
18.0
 30
0.0
 10
9.238795335568838
 20
18.0
 30
0.0
 10
9.740414859513672
 20
17.999999999999993
 30
0.0
 10
10.000696495009324
 20
18.0
 30
0.0
 10
9.999999985121681
 20
18.0
 30
0.0
  0
SPLINE
  5
33
330
17
100
AcDbEntity
  8
VISIBLE
100
AcDbSpline
 70
0
 71
3
 72
14
 73
10
 74
0
 40
0.0
 40
0.0
 40
0.0
 40
0.0
 40
0.24999999999999978
 40
0.24999999999999978
 40
0.24999999999999978
 40
0.5
 40
0.5
 40
0.5
 40
1.0
 40
1.0
 40
1.0
 40
1.0
 10
-9.999999985121685
 20
18.0
 30
0.0
 10
-10.000696495009258
 20
18.000000000000014
 30
0.0
 10
-9.740414859513544
 20
17.999999999999993
 30
0.0
 10
-9.238795335568836
 20
18.0
 30
0.0
 10
-8.738462796506054
 20
18.0
 30
0.0
 10
-7.9972433628114326
 20
18.0
 30
0.0
 10
-7.071067813260577
 20
17.999999999999996
 30
0.0
 10
-5.224787200712352
 20
17.99999999999999
 30
0.0
 10
-2.621647031044627
 20
18.000000000000007
 30
0.0
 10
-1.2878587085651816e-14
 20
18.0
 30
0.0
  0
SPLINE
  5
34
330
17
100
AcDbEntity
  8
VISIBLE
100
AcDbSpline
 70
0
 71
3
 72
17
 73
13
 74
0
 40
0.0
 40
0.0
 40
0.0
 40
0.0
 40
0.5171703540295975
 40
0.5171703540295975
 40
0.5171703540295975
 40
0.7657101270830939
 40
0.7657101270830939
 40
0.7657101270830939
 40
0.8977718540380717
 40
0.8977718540380717
 40
0.8977718540380717
 40
1.0
 40
1.0
 40
1.0
 40
1.0
 10
-3.5
 20
-113.40469691565438
 30
0.0
 10
-3.1490334960098245
 20
-114.58508989434706
 30
0.0
 10
-2.7600039741852065
 20
-115.75821527152416
 30
0.0
 10
-2.2444737369019894
 20
-116.8781236566384
 30
0.0
 10
-1.9939711914834046
 20
-117.41347478625619
 30
0.0
 10
-1.7153823824930126
 20
-117.94020230002768
 30
0.0
 10
-1.3560368984199653
 20
-118.41142637270607
 30
0.0
 10
-1.1642024366230301
 20
-118.6594007518023
 30
0.0
 10
-0.9477205507959533
 20
-118.893843050776
 30
0.0
 10
-0.6848996527759516
 20
-119.06784147480421
 30
0.0
 10
-0.4825092719417373
 20
-119.20187816955915
 30
0.0
 10
-0.24526017858527172
 20
-119.29376644612016
 30
0.0
 10
-1.3322676295501878e-14
 20
-119.2926926774891
 30
0.0
  0
SPLINE
  5
35
330
17
100
AcDbEntity
  8
VISIBLE
100
AcDbSpline
 70
0
 71
3
 72
8
 73
4
 74
0
 40
0.0
 40
0.0
 40
0.0
 40
0.0
 40
1.0
 40
1.0
 40
1.0
 40
1.0
 10
-3.5
 20
-113.4046969156544
 30
0.0
 10
-3.4999999999999987
 20
-120.31298076251912
 30
0.0
 10
-3.4999999999999996
 20
-127.18771346859629
 30
0.0
 10
-3.5
 20
-134.0
 30
0.0
  0
SPLINE
  5
36
330
17
100
AcDbEntity
  8
VISIBLE
100
AcDbSpline
 70
0
 71
3
 72
11
 73
7
 74
0
 40
0.0
 40
0.0
 40
0.0
 40
0.0
 40
0.49999999999999967
 40
0.49999999999999967
 40
0.49999999999999967
 40
1.0
 40
1.0
 40
1.0
 40
1.0
 10
-6.999999989585178
 20
-134.0
 30
0.0
 10
-7.001521656119039
 20
-133.99999999999994
 30
0.0
 10
-6.674531856334835
 20
-134.00000000000003
 30
0.0
 10
-6.062177841986542
 20
-134.0
 30
0.0
 10
-5.4524594363927905
 20
-133.99999999999994
 30
0.0
 10
-4.55910659847472
 20
-134.0
 30
0.0
 10
-3.500000000000039
 20
-134.0
 30
0.0
  0
SPLINE
  5
37
330
17
100
AcDbEntity
  8
VISIBLE
100
AcDbSpline
 70
0
 71
2
 72
6
 73
3
 74
0
 40
0.0
 40
0.0
 40
0.0
 40
1.0
 40
1.0
 40
1.0
 10
-3.5
 20
-113.40469691565437
 30
0.0
 10
-3.5
 20
-123.71922724450627
 30
0.0
 10
-3.5
 20
-134.0
 30
0.0
  0
SPLINE
  5
38
330
17
100
AcDbEntity
  8
VISIBLE
100
AcDbSpline
 70
0
 71
2
 72
6
 73
3
 74
0
 40
0.0
 40
0.0
 40
0.0
 40
1.0
 40
1.0
 40
1.0
 10
3.5
 20
-113.40469691565423
 30
0.0
 10
3.499999999999999
 20
-123.71922724450774
 30
0.0
 10
3.5
 20
-134.0
 30
0.0
  0
SPLINE
  5
39
330
17
100
AcDbEntity
  8
VISIBLE
100
AcDbSpline
 70
0
 71
3
 72
11
 73
7
 74
0
 40
0.0
 40
0.0
 40
0.0
 40
0.0
 40
0.5000000000000001
 40
0.5000000000000001
 40
0.5000000000000001
 40
1.0
 40
1.0
 40
1.0
 40
1.0
 10
3.4999999999999987
 20
-133.99999999999997
 30
0.0
 10
4.5591065984725905
 20
-134.00000000000009
 30
0.0
 10
5.4524594363932835
 20
-134.0
 30
0.0
 10
6.062177841986464
 20
-134.0
 30
0.0
 10
6.6745318563348635
 20
-133.99999999999991
 30
0.0
 10
7.001521656119038
 20
-134.00000000000006
 30
0.0
 10
6.999999989585175
 20
-134.00000000000003
 30
0.0
  0
SPLINE
  5
3A
330
17
100
AcDbEntity
  8
VISIBLE
100
AcDbSpline
 70
0
 71
3
 72
8
 73
4
 74
0
 40
0.0
 40
0.0
 40
0.0
 40
0.0
 40
1.0
 40
1.0
 40
1.0
 40
1.0
 10
3.5
 20
-113.4046969156542
 30
0.0
 10
3.4999999999999987
 20
-120.31298076251906
 30
0.0
 10
3.4999999999999996
 20
-127.18771346859614
 30
0.0
 10
3.5
 20
-134.0
 30
0.0
  0
SPLINE
  5
3B
330
17
100
AcDbEntity
  8
VISIBLE
100
AcDbSpline
 70
0
 71
3
 72
17
 73
13
 74
0
 40
0.0
 40
0.0
 40
0.0
 40
0.0
 40
0.5171703557987544
 40
0.5171703557987544
 40
0.5171703557987544
 40
0.7657101282842629
 40
0.7657101282842629
 40
0.7657101282842629
 40
0.8977718549061011
 40
0.8977718549061011
 40
0.8977718549061011
 40
1.0
 40
1.0
 40
1.0
 40
1.0
 10
3.5
 20
-113.40469691565423
 30
0.0
 10
3.1490334947728313
 20
-114.58508989836804
 30
0.0
 10
2.760003971580687
 20
-115.75821527960683
 30
0.0
 10
2.2444737315662486
 20
-116.87812366812712
 30
0.0
 10
1.993971186225373
 20
-117.41347479628006
 30
0.0
 10
1.7153823772950134
 20
-117.94020230858227
 30
0.0
 10
1.3560368931714253
 20
-118.41142637952701
 30
0.0
 10
1.1642024313995358
 20
-118.65940075763257
 30
0.0
 10
0.9477205455410674
 20
-118.89384305554347
 30
0.0
 10
0.6848996475708362
 20
-119.06784147822138
 30
0.0
 10
0.48250926796618177
 20
-119.2018781711377
 30
0.0
 10
0.24526017646109283
 20
-119.29376644610159
 30
0.0
 10
-4.440892098500626e-15
 20
-119.29269267748884
 30
0.0
  0
SPLINE
  5
3C
330
17
100
AcDbEntity
  8
VISIBLE
100
AcDbSpline
 70
0
 71
3
 72
17
 73
13
 74
0
 40
0.0
 40
0.0
 40
0.0
 40
0.0
 40
1.0
 40
1.0
 40
1.0
 40
3.5144851901216594
 40
3.5144851901216594
 40
3.5144851901216594
 40
6.028970380243319
 40
6.028970380243319
 40
6.028970380243319
 40
7.237237300247834
 40
7.237237300247834
 40
7.237237300247834
 40
7.237237300247834
 10
10.415462967301197
 20
-5.10702591327572e-15
 30
0.0
 10
10.397986427492404
 20
0.33574537645849406
 30
0.0
 10
10.385181170042175
 20
0.6694852070124885
 30
0.0
 10
10.377047194950507
 20
1.0012194916619777
 30
0.0
 10
10.356154625756911
 20
1.8337336576395282
 30
0.0
 10
10.368846913205989
 20
2.6358956219812986
 30
0.0
 10
10.396930906985137
 20
3.3364852263132496
 30
0.0
 10
10.424399657664724
 20
4.037808298824635
 30
0.0
 10
10.465257928938563
 20
4.637834628175262
 30
0.0
 10
10.48407163266069
 20
5.085251427903255
 30
0.0
 10
10.493701450273246
 20
5.3011127533908855
 30
0.0
 10
10.4963648818334
 20
5.4801657173320875
 30
0.0
 10
10.492061927341148
 20
5.6224103197268525
 30
0.0
  0
SPLINE
  5
3D
330
17
100
AcDbEntity
  8
VISIBLE
100
AcDbSpline
 70
0
 71
3
 72
11
 73
7
 74
0
 40
0.0
 40
0.0
 40
0.0
 40
0.0
 40
0.3144360957031275
 40
0.3144360957031275
 40
0.3144360957031275
 40
1.0
 40
1.0
 40
1.0
 40
1.0
 10
10.80574993613031
 20
-4.819677566372439
 30
0.0
 10
10.796818610429218
 20
-4.468649754076742
 30
0.0
 10
10.763326205499084
 20
-4.048005727352626
 30
0.0
 10
10.7190073594047
 20
-3.577252514123923
 30
0.0
 10
10.62095004916514
 20
-2.5520865474429684
 30
0.0
 10
10.47999863978629
 20
-1.2835759260587751
 30
0.0
 10
10.415462967301197
 20
-5.329070518200751e-15
 30
0.0
  0
SPLINE
  5
3E
330
17
100
AcDbEntity
  8
VISIBLE
100
AcDbSpline
 70
0
 71
3
 72
11
 73
7
 74
0
 40
0.0
 40
0.0
 40
0.0
 40
0.0
 40
0.1388099718234993
 40
0.1388099718234993
 40
0.1388099718234993
 40
0.30283545092649466
 40
0.30283545092649466
 40
0.30283545092649466
 40
0.30283545092649466
 10
-10.415462967301199
 20
1.7763568394002505e-15
 30
0.0
 10
-10.459469784914445
 20
-0.8575552116100694
 30
0.0
 10
-10.535052867178718
 20
-1.7103378686586876
 30
0.0
 10
-10.611710354307217
 20
-2.486208368843636
 30
0.0
 10
-10.701771938291351
 20
-3.4035192843641764
 30
0.0
 10
-10.790468805667873
 20
-4.21505082805181
 30
0.0
 10
-10.80574993842268
 20
-4.819677520512666
 30
0.0
  0
SPLINE
  5
3F
330
17
100
AcDbEntity
  8
VISIBLE
100
AcDbSpline
 70
0
 71
3
 72
11
 73
7
 74
0
 40
0.0
 40
0.0
 40
0.0
 40
0.0
 40
0.6165359951175569
 40
0.6165359951175569
 40
0.6165359951175569
 40
1.0
 40
1.0
 40
1.0
 40
1.0
 10
-10.492061945110262
 20
5.622410336653389
 30
0.0
 10
-10.510337722549005
 20
5.102927654326075
 30
0.0
 10
-10.40701804463075
 20
4.0357188448800745
 30
0.0
 10
-10.376629397015908
 20
2.6941281099456917
 30
0.0
 10
-10.35619574163429
 20
1.8620983746531485
 30
0.0
 10
-10.366222622790579
 20
0.9296594759963326
 30
0.0
 10
-10.415462967301197
 20
1.5543122344752192e-15
 30
0.0
  0
SPLINE
  5
40
330
17
100
AcDbEntity
  8
VISIBLE
100
AcDbSpline
 70
0
 71
2
 72
6
 73
3
 74
0
 40
0.0
 40
0.0
 40
0.0
 40
1.0
 40
1.0
 40
1.0
 10
9.999999985121686
 20
18.0
 30
0.0
 10
10.277977667593898
 20
11.82769840333281
 30
0.0
 10
10.492061944721076
 20
5.622410316056674
 30
0.0
  0
SPLINE
  5
41
330
17
100
AcDbEntity
  8
VISIBLE
100
AcDbSpline
 70
0
 71
2
 72
6
 73
3
 74
0
 40
0.0
 40
0.0
 40
0.0
 40
1.0
 40
1.0
 40
1.0
 10
-9.99999998512166
 20
17.999999999999996
 30
0.0
 10
-10.277977668297087
 20
11.827698387729386
 30
0.0
 10
-10.492061945802805
 20
5.622410284689871
 30
0.0
  0
SPLINE
  5
42
330
17
100
AcDbEntity
  8
VISIBLE
100
AcDbSpline
 70
0
 71
3
 72
11
 73
7
 74
0
 40
0.0
 40
0.0
 40
0.0
 40
0.0
 40
0.6008939009212867
 40
0.6008939009212867
 40
0.6008939009212867
 40
1.0
 40
1.0
 40
1.0
 40
1.0
 10
-6.999999989585195
 20
-134.0
 30
0.0
 10
-9.15817111288049
 20
-108.50806627374314
 30
0.0
 10
-10.513440078108891
 20
-82.51346509294768
 30
0.0
 10
-10.990870454177879
 20
-56.50209849640283
 30
0.0
 10
-11.309878004224611
 20
-39.22687821331127
 30
0.0
 10
-11.244668024846042
 20
-21.94992046285503
 30
0.0
 10
-10.805749937818012
 20
-4.819677541413228
 30
0.0
  0
SPLINE
  5
43
330
17
100
AcDbEntity
  8
VISIBLE
100
AcDbSpline
 70
0
 71
3
 72
11
 73
7
 74
0
 40
0.0
 40
0.0
 40
0.0
 40
0.0
 40
0.6008939007391959
 40
0.6008939007391959
 40
0.6008939007391959
 40
1.0
 40
1.0
 40
1.0
 40
1.0
 10
6.999999989585178
 20
-134.0
 30
0.0
 10
9.158171112880469
 20
-108.50806627374314
 30
0.0
 10
10.513440078108887
 20
-82.51346509294768
 30
0.0
 10
10.99087045417787
 20
-56.50209849640283
 30
0.0
 10
11.309878004467873
 20
-39.226878200193376
 30
0.0
 10
11.244668024745152
 20
-21.94992043661992
 30
0.0
 10
10.805749936819247
 20
-4.819677502391897
 30
0.0
  0
SPLINE
  5
44
330
17
100
AcDbEntity
  8
HIDDEN
100
AcDbSpline
 70
0
 71
3
 72
23
 73
19
 74
0
 40
0.0
 40
0.0
 40
0.0
 40
0.0
 40
0.12499999999999994
 40
0.12499999999999994
 40
0.12499999999999994
 40
0.25
 40
0.25
 40
0.25
 40
0.5
 40
0.5
 40
0.5
 40
0.7500000000000001
 40
0.7500000000000001
 40
0.7500000000000001
 40
0.8750000000000001
 40
0.8750000000000001
 40
0.8750000000000001
 40
1.0
 40
1.0
 40
1.0
 40
1.0
 10
9.999999985121683
 20
18.0
 30
0.0
 10
10.000696495539044
 20
17.999999999999993
 30
0.0
 10
9.74041485805754
 20
18.0
 30
0.0
 10
9.238795331213858
 20
18.0
 30
0.0
 10
8.738462788881336
 20
18.0
 30
0.0
 10
7.997243358881381
 20
18.0
 30
0.0
 10
7.0710678189347895
 20
18.0
 30
0.0
 10
5.224787257654838
 20
18.000000000000007
 30
0.0
 10
2.6216469307425516
 20
18.0
 30
0.0
 10
2.3092638912203256e-14
 20
18.0
 30
0.0
 10
-2.621646930742472
 20
17.999999999999996
 30
0.0
 10
-5.224787257654753
 20
18.000000000000004
 30
0.0
 10
-7.071067818934756
 20
18.0
 30
0.0
 10
-7.997243358881278
 20
17.999999999999993
 30
0.0
 10
-8.738462788881245
 20
18.0
 30
0.0
 10
-9.238795331213835
 20
18.0
 30
0.0
 10
-9.740414858057452
 20
17.999999999999993
 30
0.0
 10
-10.000696495538948
 20
18.0
 30
0.0
 10
-9.999999985121685
 20
18.0
 30
0.0
  0
SPLINE
  5
45
330
17
100
AcDbEntity
  8
HIDDEN
100
AcDbSpline
 70
0
 71
3
 72
11
 73
7
 74
0
 40
0.0
 40
0.0
 40
0.0
 40
0.0
 40
0.49999999999999967
 40
0.49999999999999967
 40
0.49999999999999967
 40
1.0
 40
1.0
 40
1.0
 40
1.0
 10
-3.5000000000000107
 20
-134.0
 30
0.0
 10
-4.559106610714462
 20
-133.99999999999994
 30
0.0
 10
-5.4524594286106645
 20
-134.00000000000003
 30
0.0
 10
-6.062177836728721
 20
-134.0
 30
0.0
 10
-6.674531852139735
 20
-133.99999999999994
 30
0.0
 10
-7.001521657272491
 20
-134.00000000000003
 30
0.0
 10
-6.999999989585178
 20
-134.0
 30
0.0
  0
SPLINE
  5
46
330
17
100
AcDbEntity
  8
HIDDEN
100
AcDbSpline
 70
0
 71
3
 72
11
 73
7
 74
0
 40
0.0
 40
0.0
 40
0.0
 40
0.0
 40
0.4920306880619965
 40
0.4920306880619965
 40
0.4920306880619965
 40
1.0
 40
1.0
 40
1.0
 40
1.0
 10
-3.5
 20
7.131029190911612
 30
0.0
 10
-3.499999999999998
 20
-12.418486497414207
 30
0.0
 10
-3.5000000000000018
 20
-32.18858463007023
 30
0.0
 10
-3.5
 20
-52.01815901868113
 30
0.0
 10
-3.5000000000000004
 20
-72.49013302519494
 30
0.0
 10
-3.4999999999999982
 20
-93.01169969722154
 30
0.0
 10
-3.5
 20
-113.40469691565437
 30
0.0
  0
SPLINE
  5
47
330
17
100
AcDbEntity
  8
HIDDEN
100
AcDbSpline
 70
0
 71
3
 72
17
 73
13
 74
0
 40
0.0
 40
0.0
 40
0.0
 40
0.0
 40
0.2172222757255933
 40
0.2172222757255933
 40
0.2172222757255933
 40
0.4988229541217094
 40
0.4988229541217094
 40
0.4988229541217094
 40
0.7494114770608546
 40
0.7494114770608546
 40
0.7494114770608546
 40
1.0
 40
1.0
 40
1.0
 40
1.0
 10
-3.5000000000000036
 20
7.131029198979167
 30
0.0
 10
-3.029444431710529
 20
6.841198466484225
 30
0.0
 10
-2.5396627636039226
 20
6.588099353144964
 30
0.0
 10
-2.033670018839715
 20
6.395791344104428
 30
0.0
 10
-1.3782030578347968
 20
6.145667091891696
 30
0.0
 10
-0.694061451964131
 20
6.002571460586742
 30
0.0
 10
-0.007910984760073347
 20
6.002630001427055
 30
0.0
 10
0.6026209068585872
 20
6.000980267607551
 30
0.0
 10
1.2114557178136915
 20
6.1117009356426575
 30
0.0
 10
1.7999024306245623
 20
6.311751652767507
 30
0.0
 10
2.388780573837718
 20
6.5112294548415095
 30
0.0
 10
2.957753698939986
 20
6.797002377108601
 30
0.0
 10
3.499999999999999
 20
7.131029198979161
 30
0.0
  0
SPLINE
  5
48
330
17
100
AcDbEntity
  8
HIDDEN
100
AcDbSpline
 70
0
 71
3
 72
11
 73
7
 74
0
 40
0.0
 40
0.0
 40
0.0
 40
0.0
 40
0.4920306880624828
 40
0.4920306880624828
 40
0.4920306880624828
 40
1.0
 40
1.0
 40
1.0
 40
1.0
 10
3.5
 20
7.131029190911373
 30
0.0
 10
3.4999999999999987
 20
-12.41848649733753
 30
0.0
 10
3.4999999999999996
 20
-32.18858462993456
 30
0.0
 10
3.5
 20
-52.01815901847439
 30
0.0
 10
3.5
 20
-72.49013302503825
 30
0.0
 10
3.499999999999999
 20
-93.01169969707529
 30
0.0
 10
3.5
 20
-113.40469691565423
 30
0.0
  0
SPLINE
  5
49
330
17
100
AcDbEntity
  8
HIDDEN
100
AcDbSpline
 70
0
 71
3
 72
11
 73
7
 74
0
 40
0.0
 40
0.0
 40
0.0
 40
0.0
 40
0.5000000000000002
 40
0.5000000000000002
 40
0.5000000000000002
 40
1.0
 40
1.0
 40
1.0
 40
1.0
 10
6.999999989585174
 20
-134.0
 30
0.0
 10
7.001521657272474
 20
-133.99999999999991
 30
0.0
 10
6.674531852139763
 20
-134.00000000000006
 30
0.0
 10
6.062177836728683
 20
-134.0
 30
0.0
 10
5.452459428610691
 20
-133.99999999999997
 30
0.0
 10
4.559106610713774
 20
-134.0
 30
0.0
 10
3.500000000000001
 20
-134.0
 30
0.0
  0
SPLINE
  5
4A
330
17
100
AcDbEntity
  8
HIDDEN
100
AcDbSpline
 70
0
 71
2
 72
6
 73
3
 74
0
 40
0.0
 40
0.0
 40
0.0
 40
1.0
 40
1.0
 40
1.0
 10
10.492061927341148
 20
5.6224103197268525
 30
0.0
 10
10.482106483260052
 20
5.999369192898191
 30
0.0
 10
10.371263692125293
 20
6.000000007227428
 30
0.0
  0
SPLINE
  5
4B
330
17
100
AcDbEntity
  8
HIDDEN
100
AcDbSpline
 70
0
 71
3
 72
29
 73
25
 74
0
 40
0.0
 40
0.0
 40
0.0
 40
0.0
 40
0.13042860110877572
 40
0.13042860110877572
 40
0.13042860110877572
 40
0.2735631325539248
 40
0.2735631325539248
 40
0.2735631325539248
 40
0.388019891371767
 40
0.388019891371767
 40
0.388019891371767
 40
0.4888564287536605
 40
0.4888564287536605
 40
0.4888564287536605
 40
0.5896929661355539
 40
0.5896929661355539
 40
0.5896929661355539
 40
0.6975686586922577
 40
0.6975686586922577
 40
0.6975686586922577
 40
0.8054443512489615
 40
0.8054443512489615
 40
0.8054443512489615
 40
1.0
 40
1.0
 40
1.0
 40
1.0
 10
10.371263692125295
 20
6.000000007227428
 30
0.0
 10
10.280858814351792
 20
6.000688608874356
 30
0.0
 10
10.132923427069775
 20
5.81417560519329
 30
0.0
 10
9.941923331223805
 20
5.47774941215245
 30
0.0
 10
9.733296689564447
 20
5.108720797906725
 30
0.0
 10
9.47409442435329
 20
4.564655931017662
 30
0.0
 10
9.212016223505106
 20
3.8992798065405117
 30
0.0
 10
9.003074099703404
 20
3.3668017865107296
 30
0.0
 10
8.791997777876688
 20
2.755021266090468
 30
0.0
 10
8.616887695657454
 20
2.0807718979879954
 30
0.0
 10
8.462716021014645
 20
1.4871189797052995
 30
0.0
 10
8.33691777142168
 20
0.8362507473904953
 30
0.0
 10
8.27730822631812
 20
0.170380193713478
 30
0.0
 10
8.216389455862561
 20
-0.49470753117642297
 30
0.0
 10
8.225269610014823
 20
-1.175268836606492
 30
0.0
 10
8.305071773301977
 20
-1.8072162562361402
 30
0.0
 10
8.389101505135399
 20
-2.48339212006929
 30
0.0
 10
8.547791860242326
 20
-3.096271546652201
 30
0.0
 10
8.739255173180199
 20
-3.6256079732425417
 30
0.0
 10
8.931012294047184
 20
-4.15555307687784
 30
0.0
 10
9.153891639284613
 20
-4.603758029259208
 30
0.0
 10
9.376052512676159
 20
-4.966103199654506
 30
0.0
 10
9.777979239792492
 20
-5.617980523833884
 30
0.0
 10
10.177705743913851
 20
-5.999149644386012
 30
0.0
 10
10.442776039251779
 20
-5.99999998291368
 30
0.0
  0
SPLINE
  5
4C
330
17
100
AcDbEntity
  8
HIDDEN
100
AcDbSpline
 70
0
 71
2
 72
8
 73
5
 74
0
 40
0.0
 40
0.0
 40
0.0
 40
0.586177789725469
 40
0.586177789725469
 40
1.0
 40
1.0
 40
1.0
 10
10.442776039251777
 20
-5.99999998291368
 30
0.0
 10
10.679338106274804
 20
-6.001990000925718
 30
0.0
 10
10.762878156056646
 20
-5.5920037719580105
 30
0.0
 10
10.819657087570011
 20
-5.300265943962831
 30
0.0
 10
10.805749936130308
 20
-4.819677566372439
 30
0.0
  0
SPLINE
  5
4D
330
17
100
AcDbEntity
  8
HIDDEN
100
AcDbSpline
 70
0
 71
2
 72
8
 73
5
 74
0
 40
0.0
 40
0.0
 40
0.0
 40
0.43165483337778326
 40
0.43165483337778326
 40
1.0
 40
1.0
 40
1.0
 10
-10.80574993842268
 20
-4.819677520512666
 30
0.0
 10
-10.820380831169292
 20
-5.321221046370756
 30
0.0
 10
-10.757719309407307
 20
-5.616590004885778
 30
0.0
 10
-10.67204747574042
 20
-6.001925281240504
 30
0.0
 10
-10.44277601514829
 20
-6.000000002087203
 30
0.0
  0
SPLINE
  5
4E
330
17
100
AcDbEntity
  8
HIDDEN
100
AcDbSpline
 70
0
 71
3
 72
26
 73
22
 74
0
 40
0.0
 40
0.0
 40
0.0
 40
0.0
 40
0.19400393392334628
 40
0.19400393392334628
 40
0.19400393392334628
 40
0.3060655977857603
 40
0.3060655977857603
 40
0.3060655977857603
 40
0.4555302091473108
 40
0.4555302091473108
 40
0.4555302091473108
 40
0.5661636887026245
 40
0.5661636887026245
 40
0.5661636887026245
 40
0.7276140413583361
 40
0.7276140413583361
 40
0.7276140413583361
 40
0.8188151633848271
 40
0.8188151633848271
 40
0.8188151633848271
 40
1.0
 40
1.0
 40
1.0
 40
1.0
 10
-10.442776015148292
 20
-6.000000002087204
 30
0.0
 10
-10.178594238477242
 20
-5.999160864768268
 30
0.0
 10
-9.780735985717673
 20
-5.620551032257086
 30
0.0
 10
-9.380222692195497
 20
-4.972885897927024
 30
0.0
 10
-9.149526265429067
 20
-4.597696250484497
 30
0.0
 10
-8.917849590920476
 20
-4.129992886027765
 30
0.0
 10
-8.721050566314338
 20
-3.5747000833666025
 30
0.0
 10
-8.457810547496997
 20
-2.8372871751133486
 30
0.0
 10
-8.263220804836118
 20
-1.9230753103759417
 30
0.0
 10
-8.240402912494844
 20
-0.9385675299076919
 30
0.0
 10
-8.22075238517412
 20
-0.21188502749200966
 30
0.0
 10
-8.293950813995941
 20
0.535771981046557
 30
0.0
 10
-8.426210562136731
 20
1.2315559693617961
 30
0.0
 10
-8.619239526148014
 20
2.2490901390127434
 30
0.0
 10
-8.922004493968297
 20
3.1599458093150568
 30
0.0
 10
-9.21623515480676
 20
3.9100046131935704
 30
0.0
 10
-9.385519205198527
 20
4.336100440133384
 30
0.0
 10
-9.547340711707571
 20
4.705686438815799
 30
0.0
 10
-9.70169967433389
 20
5.018762609240808
 30
0.0
 10
-10.00569105112707
 20
5.637359984598943
 30
0.0
 10
-10.246618579069692
 20
6.00188061703138
 30
0.0
 10
-10.37126369050503
 20
5.999999998806018
 30
0.0
  0
SPLINE
  5
4F
330
17
100
AcDbEntity
  8
HIDDEN
100
AcDbSpline
 70
0
 71
2
 72
6
 73
3
 74
0
 40
0.0
 40
0.0
 40
0.0
 40
1.0
 40
1.0
 40
1.0
 10
-10.37126369050503
 20
5.999999998806018
 30
0.0
 10
-10.482107107487797
 20
5.999369270345512
 30
0.0
 10
-10.492061945110262
 20
5.622410336653389
 30
0.0
  0
SPLINE
  5
50
330
17
100
AcDbEntity
  8
HIDDEN
100
AcDbSpline
 70
0
 71
1
 72
17
 73
15
 74
0
 40
0.0
 40
0.0
 40
0.1121997376282069
 40
0.2243994752564138
 40
0.3365992128846207
 40
0.4487989505128276
 40
0.5609986881410345
 40
0.6731984257692414
 40
0.7853981633974483
 40
0.8975979010256552
 40
1.009797638653862
 40
1.121997376282069
 40
1.2341971139102759
 40
1.3463968515384828
 40
1.4585965891666897
 40
1.5707963267948966
 40
1.5707963267948966
 10
-3.5
 20
7.771561172376096e-16
 30
0.0
 10
-3.5
 20
0.6717868566198479
 30
0.0
 10
-3.4999999999999996
 20
1.3351256037378874
 30
0.0
 10
-3.4999999999999996
 20
1.9816743717310035
 30
0.0
 10
-3.499999999999999
 20
2.6033024347053497
 30
0.0
 10
-3.499999999999999
 20
3.19219245909202
 30
0.0
 10
-3.499999999999999
 20
3.740938811152402
 30
0.0
 10
-3.499999999999999
 20
4.242640687119286
 30
0.0
 10
-3.499999999999999
 20
4.690988894808179
 30
0.0
 10
-3.4999999999999987
 20
5.080345195369706
 30
0.0
 10
-3.4999999999999987
 20
5.405813207414516
 30
0.0
 10
-3.4999999999999987
 20
5.663299981850205
 30
0.0
 10
-3.4999999999999987
 20
5.849567473090943
 30
0.0
 10
-3.4999999999999987
 20
5.962273259359456
 30
0.0
 10
-3.4999999999999987
 20
6.0
 30
0.0
  0
SPLINE
  5
51
330
17
100
AcDbEntity
  8
HIDDEN
100
AcDbSpline
 70
0
 71
1
 72
17
 73
15
 74
0
 40
0.0
 40
0.0
 40
0.07142857142857142
 40
0.14285714285714285
 40
0.21428571428571427
 40
0.2857142857142857
 40
0.35714285714285715
 40
0.42857142857142855
 40
0.5
 40
0.5714285714285714
 40
0.6428571428571429
 40
0.7142857142857143
 40
0.7857142857142857
 40
0.8571428571428571
 40
0.9285714285714286
 40
1.0
 40
1.0
 10
-3.4999999999999987
 20
6.0
 30
0.0
 10
-3.4999999999999987
 20
5.849567473090943
 30
0.0
 10
-3.499999999999999
 20
5.405813207414516
 30
0.0
 10
-3.499999999999999
 20
4.69098889480818
 30
0.0
 10
-3.499999999999999
 20
3.740938811152402
 30
0.0
 10
-3.4999999999999996
 20
2.60330243470535
 30
0.0
 10
-3.5
 20
1.3351256037378878
 30
0.0
 10
-3.5
 20
1.5543122344752192e-15
 30
0.0
 10
-3.5000000000000004
 20
-1.3351256037378847
 30
0.0
 10
-3.500000000000001
 20
-2.6033024347053475
 30
0.0
 10
-3.500000000000001
 20
-3.7409388111523993
 30
0.0
 10
-3.500000000000001
 20
-4.690988894808178
 30
0.0
 10
-3.5000000000000013
 20
-5.405813207414512
 30
0.0
 10
-3.5000000000000013
 20
-5.849567473090941
 30
0.0
 10
-3.5000000000000013
 20
-5.999999999999998
 30
0.0
  0
SPLINE
  5
52
330
17
100
AcDbEntity
  8
HIDDEN
100
AcDbSpline
 70
0
 71
1
 72
17
 73
15
 74
0
 40
0.0
 40
0.0
 40
0.07142857142857142
 40
0.14285714285714285
 40
0.21428571428571427
 40
0.2857142857142857
 40
0.35714285714285715
 40
0.42857142857142855
 40
0.5
 40
0.5714285714285714
 40
0.6428571428571429
 40
0.7142857142857143
 40
0.7857142857142857
 40
0.8571428571428571
 40
0.9285714285714286
 40
1.0
 40
1.0
 10
-3.5000000000000013
 20
-5.999999999999998
 30
0.0
 10
-3.5000000000000013
 20
-5.9622732593594545
 30
0.0
 10
-3.5000000000000013
 20
-5.849567473090941
 30
0.0
 10
-3.5000000000000013
 20
-5.663299981850205
 30
0.0
 10
-3.5000000000000013
 20
-5.405813207414515
 30
0.0
 10
-3.500000000000001
 20
-5.080345195369706
 30
0.0
 10
-3.500000000000001
 20
-4.690988894808179
 30
0.0
 10
-3.500000000000001
 20
-4.242640687119285
 30
0.0
 10
-3.500000000000001
 20
-3.740938811152401
 30
0.0
 10
-3.500000000000001
 20
-3.19219245909202
 30
0.0
 10
-3.5000000000000004
 20
-2.6033024347053493
 30
0.0
 10
-3.5000000000000004
 20
-1.9816743717310032
 30
0.0
 10
-3.5
 20
-1.335125603737887
 30
0.0
 10
-3.5
 20
-0.6717868566198478
 30
0.0
 10
-3.5
 20
-6.661338147750939e-16
 30
0.0
  0
SPLINE
  5
53
330
17
100
AcDbEntity
  8
HIDDEN
100
AcDbSpline
 70
0
 71
1
 72
17
 73
15
 74
0
 40
0.0
 40
0.0
 40
0.1121997376282069
 40
0.2243994752564138
 40
0.3365992128846207
 40
0.4487989505128276
 40
0.5609986881410345
 40
0.6731984257692414
 40
0.7853981633974483
 40
0.8975979010256552
 40
1.009797638653862
 40
1.121997376282069
 40
1.2341971139102759
 40
1.3463968515384828
 40
1.4585965891666897
 40
1.5707963267948966
 40
1.5707963267948966
 10
3.5
 20
-7.771561172376096e-16
 30
0.0
 10
3.5
 20
0.6717868566198465
 30
0.0
 10
3.5000000000000004
 20
1.3351256037378856
 30
0.0
 10
3.5000000000000004
 20
1.9816743717310017
 30
0.0
 10
3.500000000000001
 20
2.603302434705348
 30
0.0
 10
3.500000000000001
 20
3.192192459092018
 30
0.0
 10
3.500000000000001
 20
3.7409388111524002
 30
0.0
 10
3.500000000000001
 20
4.242640687119284
 30
0.0
 10
3.500000000000001
 20
4.690988894808177
 30
0.0
 10
3.5000000000000013
 20
5.080345195369704
 30
0.0
 10
3.5000000000000013
 20
5.405813207414514
 30
0.0
 10
3.5000000000000013
 20
5.663299981850203
 30
0.0
 10
3.5000000000000013
 20
5.849567473090941
 30
0.0
 10
3.5000000000000013
 20
5.9622732593594545
 30
0.0
 10
3.5000000000000013
 20
5.999999999999998
 30
0.0
  0
SPLINE
  5
54
330
17
100
AcDbEntity
  8
HIDDEN
100
AcDbSpline
 70
0
 71
1
 72
17
 73
15
 74
0
 40
0.0
 40
0.0
 40
0.07142857142857142
 40
0.14285714285714285
 40
0.21428571428571427
 40
0.2857142857142857
 40
0.35714285714285715
 40
0.42857142857142855
 40
0.5
 40
0.5714285714285714
 40
0.6428571428571429
 40
0.7142857142857143
 40
0.7857142857142857
 40
0.8571428571428571
 40
0.9285714285714286
 40
1.0
 40
1.0
 10
3.5000000000000013
 20
5.999999999999998
 30
0.0
 10
3.5000000000000013
 20
5.849567473090941
 30
0.0
 10
3.500000000000001
 20
5.405813207414514
 30
0.0
 10
3.500000000000001
 20
4.690988894808179
 30
0.0
 10
3.500000000000001
 20
3.7409388111524002
 30
0.0
 10
3.5000000000000004
 20
2.6033024347053484
 30
0.0
 10
3.5
 20
1.335125603737886
 30
0.0
 10
3.5
 20
0.0
 30
0.0
 10
3.4999999999999996
 20
-1.3351256037378865
 30
0.0
 10
3.499999999999999
 20
-2.6033024347053493
 30
0.0
 10
3.499999999999999
 20
-3.740938811152401
 30
0.0
 10
3.499999999999999
 20
-4.6909888948081795
 30
0.0
 10
3.4999999999999987
 20
-5.405813207414514
 30
0.0
 10
3.4999999999999987
 20
-5.849567473090943
 30
0.0
 10
3.4999999999999987
 20
-6.0
 30
0.0
  0
SPLINE
  5
55
330
17
100
AcDbEntity
  8
HIDDEN
100
AcDbSpline
 70
0
 71
1
 72
17
 73
15
 74
0
 40
0.0
 40
0.0
 40
0.07142857142857142
 40
0.14285714285714285
 40
0.21428571428571427
 40
0.2857142857142857
 40
0.35714285714285715
 40
0.42857142857142855
 40
0.5
 40
0.5714285714285714
 40
0.6428571428571429
 40
0.7142857142857143
 40
0.7857142857142857
 40
0.8571428571428571
 40
0.9285714285714286
 40
1.0
 40
1.0
 10
3.4999999999999987
 20
-6.0
 30
0.0
 10
3.4999999999999987
 20
-5.962273259359456
 30
0.0
 10
3.4999999999999987
 20
-5.849567473090943
 30
0.0
 10
3.4999999999999987
 20
-5.663299981850207
 30
0.0
 10
3.4999999999999987
 20
-5.405813207414517
 30
0.0
 10
3.499999999999999
 20
-5.080345195369707
 30
0.0
 10
3.499999999999999
 20
-4.69098889480818
 30
0.0
 10
3.499999999999999
 20
-4.2426406871192865
 30
0.0
 10
3.499999999999999
 20
-3.740938811152403
 30
0.0
 10
3.499999999999999
 20
-3.1921924590920217
 30
0.0
 10
3.4999999999999996
 20
-2.603302434705351
 30
0.0
 10
3.4999999999999996
 20
-1.9816743717310046
 30
0.0
 10
3.5
 20
-1.3351256037378887
 30
0.0
 10
3.5
 20
-0.6717868566198494
 30
0.0
 10
3.5
 20
-2.220446049250313e-15
 30
0.0
  0
LINE
  5
56
330
17
100
AcDbEntity
  8
HIDDEN
100
AcDbLine
 10
3.5
 20
-113.40469691565423
 30
0.0
 11
3.5
 21
0.0
 31
0.0
  0
SPLINE
  5
57
330
17
100
AcDbEntity
  8
HIDDEN
100
AcDbSpline
 70
0
 71
1
 72
17
 73
15
 74
0
 40
0.0
 40
0.0
 40
0.1121997376282069
 40
0.2243994752564138
 40
0.3365992128846207
 40
0.4487989505128276
 40
0.5609986881410345
 40
0.6731984257692414
 40
0.7853981633974483
 40
0.8975979010256552
 40
1.009797638653862
 40
1.121997376282069
 40
1.2341971139102759
 40
1.3463968515384828
 40
1.4585965891666897
 40
1.5707963267948966
 40
1.5707963267948966
 10
3.5
 20
0.0
 30
0.0
 10
3.5
 20
1.522716875004987
 30
0.0
 10
3.5
 20
3.026284701805875
 30
0.0
 10
3.5
 20
4.491795242590272
 30
0.0
 10
3.5
 20
5.90081885199879
 30
0.0
 10
3.5
 20
7.235636240608578
 30
0.0
 10
3.5
 20
8.479461305278775
 30
0.0
 10
3.5
 20
9.616652224137045
 30
0.0
 10
3.5
 20
10.632908161565204
 30
0.0
 10
3.5
 20
11.515449109504663
 30
0.0
 10
3.5
 20
12.253176603472898
 30
0.0
 10
3.5
 20
12.8368132921938
 30
0.0
 10
3.5
 20
13.259019605672801
 30
0.0
 10
3.5
 20
13.5144860545481
 30
0.0
 10
3.5
 20
13.6
 30
0.0
  0
SPLINE
  5
58
330
17
100
AcDbEntity
  8
HIDDEN
100
AcDbSpline
 70
0
 71
1
 72
17
 73
15
 74
0
 40
0.0
 40
0.0
 40
0.07142857142857147
 40
0.14285714285714293
 40
0.21428571428571438
 40
0.28571428571428586
 40
0.3571428571428573
 40
0.42857142857142877
 40
0.5000000000000002
 40
0.5714285714285717
 40
0.6428571428571431
 40
0.7142857142857146
 40
0.785714285714286
 40
0.8571428571428575
 40
0.9285714285714289
 40
1.0
 40
1.0
 10
3.5
 20
13.6
 30
0.0
 10
3.5
 20
13.564001300855349
 30
0.0
 10
3.5
 20
13.456195777883163
 30
0.0
 10
3.5
 20
13.277154145581633
 30
0.0
 10
3.5
 20
13.027824237164811
 30
0.0
 10
3.5
 20
12.70952598680341
 30
0.0
 10
3.5
 20
12.323944441990523
 30
0.0
 10
3.5
 20
11.873120843024308
 30
0.0
 10
3.5
 20
11.359441816832186
 30
0.0
 10
3.5
 20
10.785626742343691
 30
0.0
 10
3.5
 20
10.154713354298703
 30
0.0
 10
3.5
 20
9.470041661703478
 30
0.0
 10
3.5
 20
8.73523626606899
 30
0.0
 10
3.5
 20
7.954187173037487
 30
0.0
 10
3.5
 20
7.131029198979159
 30
0.0
  0
SPLINE
  5
59
330
17
100
AcDbEntity
  8
HIDDEN
100
AcDbSpline
 70
0
 71
1
 72
17
 73
15
 74
0
 40
0.0
 40
0.0
 40
0.1121997376282069
 40
0.2243994752564138
 40
0.3365992128846207
 40
0.4487989505128276
 40
0.5609986881410345
 40
0.6731984257692414
 40
0.7853981633974483
 40
0.8975979010256552
 40
1.009797638653862
 40
1.121997376282069
 40
1.2341971139102759
 40
1.3463968515384828
 40
1.4585965891666897
 40
1.5707963267948966
 40
1.5707963267948966
 10
-3.5
 20
0.0
 30
0.0
 10
-3.5
 20
1.522716875004987
 30
0.0
 10
-3.5
 20
3.026284701805875
 30
0.0
 10
-3.5
 20
4.491795242590272
 30
0.0
 10
-3.5
 20
5.90081885199879
 30
0.0
 10
-3.5
 20
7.235636240608578
 30
0.0
 10
-3.5
 20
8.479461305278775
 30
0.0
 10
-3.5
 20
9.616652224137045
 30
0.0
 10
-3.5
 20
10.632908161565204
 30
0.0
 10
-3.5
 20
11.515449109504663
 30
0.0
 10
-3.5
 20
12.253176603472898
 30
0.0
 10
-3.5
 20
12.8368132921938
 30
0.0
 10
-3.5
 20
13.259019605672801
 30
0.0
 10
-3.5
 20
13.5144860545481
 30
0.0
 10
-3.5
 20
13.6
 30
0.0
  0
SPLINE
  5
5A
330
17
100
AcDbEntity
  8
HIDDEN
100
AcDbSpline
 70
0
 71
1
 72
17
 73
15
 74
0
 40
0.0
 40
0.0
 40
0.07142857142857134
 40
0.14285714285714268
 40
0.214285714285714
 40
0.28571428571428537
 40
0.35714285714285665
 40
0.428571428571428
 40
0.49999999999999956
 40
0.5714285714285711
 40
0.6428571428571427
 40
0.7142857142857142
 40
0.7857142857142858
 40
0.8571428571428573
 40
0.9285714285714289
 40
1.0
 40
1.0
 10
-3.5
 20
13.6
 30
0.0
 10
-3.5
 20
13.564001300855347
 30
0.0
 10
-3.5
 20
13.456195777883165
 30
0.0
 10
-3.5
 20
13.277154145581635
 30
0.0
 10
-3.5
 20
13.027824237164813
 30
0.0
 10
-3.5
 20
12.709525986803415
 30
0.0
 10
-3.5
 20
12.323944441990532
 30
0.0
 10
-3.5
 20
11.873120843024315
 30
0.0
 10
-3.5
 20
11.359441816832197
 30
0.0
 10
-3.5
 20
10.785626742343704
 30
0.0
 10
-3.5
 20
10.154713354298716
 30
0.0
 10
-3.5
 20
9.470041661703492
 30
0.0
 10
-3.5
 20
8.735236266069005
 30
0.0
 10
-3.5
 20
7.9541871730375
 30
0.0
 10
-3.5
 20
7.131029198979174
 30
0.0
  0
LINE
  5
5B
330
17
100
AcDbEntity
  8
HIDDEN
100
AcDbLine
 10
-3.5
 20
-113.40469691565438
 30
0.0
 11
-3.5
 21
0.0
 31
0.0
  0
LINE
  5
5C
330
17
100
AcDbEntity
  8
HIDDEN
100
AcDbLine
 10
-3.5
 20
6.000000000000001
 30
0.0
 11
-10.371263684433053
 21
6.000000000000003
 31
0.0
  0
LINE
  5
5D
330
17
100
AcDbEntity
  8
HIDDEN
100
AcDbLine
 10
-3.5
 20
-5.999999999999999
 30
0.0
 11
-10.442775970267636
 21
-5.999999999999997
 31
0.0
  0
LINE
  5
5E
330
17
100
AcDbEntity
  8
HIDDEN
100
AcDbLine
 10
10.371263636699057
 20
5.999999999999997
 30
0.0
 11
3.5
 21
5.999999999999999
 31
0.0
  0
LINE
  5
5F
330
17
100
AcDbEntity
  8
HIDDEN
100
AcDbLine
 10
10.442775981722132
 20
-6.000000000000003
 30
0.0
 11
3.5
 21
-6.000000000000001
 31
0.0
  0
LINE
  5
60
330
17
100
AcDbEntity
  8
HIDDEN
100
AcDbLine
 10
-3.5
 20
13.6
 30
0.0
 11
3.5
 21
13.6
 31
0.0
  0
LINE
  5
61
330
17
100
AcDbEntity
  8
HIDDEN
100
AcDbLine
 10
3.5
 20
0.0
 30
0.0
 11
-3.5
 21
0.0
 31
0.0
  0
ENDSEC
  0
SECTION
  2
OBJECTS
  0
DICTIONARY
  5
A
330
0
100
AcDbDictionary
281
1
  3
ACAD_COLOR
350
B
  3
ACAD_GROUP
350
C
  3
ACAD_LAYOUT
350
D
  3
ACAD_MATERIAL
350
E
  3
ACAD_MLEADERSTYLE
350
F
  3
ACAD_MLINESTYLE
350
10
  3
ACAD_PLOTSETTINGS
350
11
  3
ACAD_PLOTSTYLENAME
350
12
  3
ACAD_SCALELIST
350
14
  3
ACAD_TABLESTYLE
350
15
  3
ACAD_VISUALSTYLE
350
16
  3
EZDXF_META
350
2D
  0
DICTIONARY
  5
B
330
A
100
AcDbDictionary
281
1
  0
DICTIONARY
  5
C
330
A
100
AcDbDictionary
281
1
  0
DICTIONARY
  5
D
330
A
100
AcDbDictionary
281
1
  3
Model
350
1A
  3
Layout1
350
1E
  0
DICTIONARY
  5
E
330
A
100
AcDbDictionary
281
1
  3
ByBlock
350
1F
  3
ByLayer
350
20
  3
Global
350
21
  0
DICTIONARY
  5
F
330
A
100
AcDbDictionary
281
1
  3
Standard
350
2C
  0
DICTIONARY
  5
10
330
A
100
AcDbDictionary
281
1
  3
Standard
350
22
  0
DICTIONARY
  5
11
330
A
100
AcDbDictionary
281
1
  0
ACDBDICTIONARYWDFLT
  5
12
330
A
100
AcDbDictionary
281
1
  3
Normal
350
13
100
AcDbDictionaryWithDefault
340
13
  0
ACDBPLACEHOLDER
  5
13
330
12
  0
DICTIONARY
  5
14
330
A
100
AcDbDictionary
281
1
  0
DICTIONARY
  5
15
330
A
100
AcDbDictionary
281
1
  0
DICTIONARY
  5
16
330
A
100
AcDbDictionary
281
1
  0
LAYOUT
  5
1A
330
D
100
AcDbPlotSettings
  1

  4
A3
  6

 40
7.5
 41
20.0
 42
7.5
 43
20.0
 44
420.0
 45
297.0
 46
0.0
 47
0.0
 48
0.0
 49
0.0
140
0.0
141
0.0
142
1.0
143
1.0
 70
1024
 72
1
 73
0
 74
5
  7

 75
16
 76
0
 77
2
 78
300
147
1.0
148
0.0
149
0.0
100
AcDbLayout
  1
Model
 70
1
 71
0
 10
0.0
 20
0.0
 11
420.0
 21
297.0
 12
0.0
 22
0.0
 32
0.0
 14
1e+20
 24
1e+20
 34
1e+20
 15
-1e+20
 25
-1e+20
 35
-1e+20
146
0.0
 13
0.0
 23
0.0
 33
0.0
 16
1.0
 26
0.0
 36
0.0
 17
0.0
 27
1.0
 37
0.0
 76
1
330
17
  0
LAYOUT
  5
1E
330
D
100
AcDbPlotSettings
  1

  4
A3
  6

 40
7.5
 41
20.0
 42
7.5
 43
20.0
 44
420.0
 45
297.0
 46
0.0
 47
0.0
 48
0.0
 49
0.0
140
0.0
141
0.0
142
1.0
143
1.0
 70
0
 72
1
 73
0
 74
5
  7

 75
16
 76
0
 77
2
 78
300
147
1.0
148
0.0
149
0.0
100
AcDbLayout
  1
Layout1
 70
1
 71
1
 10
0.0
 20
0.0
 11
420.0
 21
297.0
 12
0.0
 22
0.0
 32
0.0
 14
1e+20
 24
1e+20
 34
1e+20
 15
-1e+20
 25
-1e+20
 35
-1e+20
146
0.0
 13
0.0
 23
0.0
 33
0.0
 16
1.0
 26
0.0
 36
0.0
 17
0.0
 27
1.0
 37
0.0
 76
1
330
1B
  0
MATERIAL
  5
1F
102
{ACAD_REACTORS
330
E
102
}
330
E
100
AcDbMaterial
  1
ByBlock
  2

 70
0
 40
1.0
 71
1
 41
1.0
 91
-1023410177
 42
1.0
 72
1
  3

 73
1
 74
1
 75
1
 44
0.5
 73
0
 45
1.0
 46
1.0
 77
1
  4

 78
1
 79
1
170
1
 48
1.0
171
1
  6

172
1
173
1
174
1
140
1.0
141
1.0
175
1
  7

176
1
177
1
178
1
143
1.0
179
1
  8

270
1
271
1
272
1
145
1.0
146
1.0
273
1
  9

274
1
275
1
276
1
 42
1.0
 72
1
  3

 73
1
 74
1
 75
1
 94
63
  0
MATERIAL
  5
20
102
{ACAD_REACTORS
330
E
102
}
330
E
100
AcDbMaterial
  1
ByLayer
  2

 70
0
 40
1.0
 71
1
 41
1.0
 91
-1023410177
 42
1.0
 72
1
  3

 73
1
 74
1
 75
1
 44
0.5
 73
0
 45
1.0
 46
1.0
 77
1
  4

 78
1
 79
1
170
1
 48
1.0
171
1
  6

172
1
173
1
174
1
140
1.0
141
1.0
175
1
  7

176
1
177
1
178
1
143
1.0
179
1
  8

270
1
271
1
272
1
145
1.0
146
1.0
273
1
  9

274
1
275
1
276
1
 42
1.0
 72
1
  3

 73
1
 74
1
 75
1
 94
63
  0
MATERIAL
  5
21
102
{ACAD_REACTORS
330
E
102
}
330
E
100
AcDbMaterial
  1
Global
  2

 70
0
 40
1.0
 71
1
 41
1.0
 91
-1023410177
 42
1.0
 72
1
  3

 73
1
 74
1
 75
1
 44
0.5
 73
0
 45
1.0
 46
1.0
 77
1
  4

 78
1
 79
1
170
1
 48
1.0
171
1
  6

172
1
173
1
174
1
140
1.0
141
1.0
175
1
  7

176
1
177
1
178
1
143
1.0
179
1
  8

270
1
271
1
272
1
145
1.0
146
1.0
273
1
  9

274
1
275
1
276
1
 42
1.0
 72
1
  3

 73
1
 74
1
 75
1
 94
63
  0
MLINESTYLE
  5
22
102
{ACAD_REACTORS
330
10
102
}
330
10
100
AcDbMlineStyle
  2
Standard
 70
0
  3

 62
256
 51
90.0
 52
90.0
 71
2
 49
0.5
 62
256
  6
BYLAYER
 49
-0.5
 62
256
  6
BYLAYER
  0
MLEADERSTYLE
  5
2C
102
{ACAD_REACTORS
330
F
102
}
330
F
100
AcDbMLeaderStyle
179
2
170
2
171
1
172
0
 90
2
 40
0.0
 41
0.0
173
1
 91
-1056964608
 92
-2
290
1
 42
2.0
291
1
 43
8.0
  3
Standard
 44
4.0
300

342
29
174
1
175
1
176
0
178
1
 93
-1056964608
 45
4.0
292
0
297
0
 46
4.0
 94
-1056964608
 47
1.0
 49
1.0
140
1.0
294
1
141
0.0
177
0
142
1.0
295
0
296
0
143
3.75
271
0
272
9
273
9
  0
DICTIONARY
  5
2D
330
A
100
AcDbDictionary
280
1
281
1
  3
CREATED_BY_EZDXF
350
2E
  3
WRITTEN_BY_EZDXF
350
65
  0
DICTIONARYVAR
  5
2E
330
2D
100
DictionaryVariables
280
0
  1
1.4.4 @ 2026-10-08T06:26:17.123347+00:00
  0
DICTIONARYVAR
  5
65
330
2D
100
DictionaryVariables
280
0
  1
1.4.4 @ 2026-10-08T06:26:17.396537+00:00
  0
ENDSEC
  0
EOF
