  0
SECTION
  2
HEADER
  9
$ACADVER
  1
AC1027
  9
$ACADMAINTVER
 70
105
  9
$DWGCODEPAGE
  3
ANSI_1252
  9
$LASTSAVEDBY
  1
ezdxf
  9
$REQUIREDVERSIONS
160
0
  9
$INSBASE
 10
0.0
 20
0.0
 30
0.0
  9
$EXTMIN
 10
1e+20
 20
1e+20
 30
1e+20
  9
$EXTMAX
 10
-1e+20
 20
-1e+20
 30
-1e+20
  9
$LIMMIN
 10
0.0
 20
0.0
  9
$LIMMAX
 10
420.0
 20
297.0
  9
$ORTHOMODE
 70
0
  9
$REGENMODE
 70
1
  9
$FILLMODE
 70
1
  9
$QTEXTMODE
 70
0
  9
$MIRRTEXT
 70
1
  9
$LTSCALE
 40
1.0
  9
$ATTMODE
 70
1
  9
$TEXTSIZE
 40
2.5
  9
$TRACEWID
 40
1.0
  9
$TEXTSTYLE
  7
Standard
  9
$CLAYER
  8
0
  9
$CELTYPE
  6
ByLayer
  9
$CECOLOR
 62
256
  9
$CELTSCALE
 40
1.0
  9
$DISPSILH
 70
0
  9
$DIMSCALE
 40
1.0
  9
$DIMASZ
 40
2.5
  9
$DIMEXO
 40
0.625
  9
$DIMDLI
 40
3.75
  9
$DIMRND
 40
0.0
  9
$DIMDLE
 40
0.0
  9
$DIMEXE
 40
1.25
  9
$DIMTP
 40
0.0
  9
$DIMTM
 40
0.0
  9
$DIMTXT
 40
2.5
  9
$DIMCEN
 40
2.5
  9
$DIMTSZ
 40
0.0
  9
$DIMTOL
 70
0
  9
$DIMLIM
 70
0
  9
$DIMTIH
 70
0
  9
$DIMTOH
 70
0
  9
$DIMSE1
 70
0
  9
$DIMSE2
 70
0
  9
$DIMTAD
 70
1
  9
$DIMZIN
 70
8
  9
$DIMBLK
  1

  9
$DIMASO
 70
1
  9
$DIMSHO
 70
1
  9
$DIMPOST
  1

  9
$DIMAPOST
  1

  9
$DIMALT
 70
0
  9
$DIMALTD
 70
3
  9
$DIMALTF
 40
0.03937007874
  9
$DIMLFAC
 40
1.0
  9
$DIMTOFL
 70
1
  9
$DIMTVP
 40
0.0
  9
$DIMTIX
 70
0
  9
$DIMSOXD
 70
0
  9
$DIMSAH
 70
0
  9
$DIMBLK1
  1

  9
$DIMBLK2
  1

  9
$DIMSTYLE
  2
ISO-25
  9
$DIMCLRD
 70
0
  9
$DIMCLRE
 70
0
  9
$DIMCLRT
 70
0
  9
$DIMTFAC
 40
1.0
  9
$DIMGAP
 40
0.625
  9
$DIMJUST
 70
0
  9
$DIMSD1
 70
0
  9
$DIMSD2
 70
0
  9
$DIMTOLJ
 70
0
  9
$DIMTZIN
 70
8
  9
$DIMALTZ
 70
0
  9
$DIMALTTZ
 70
0
  9
$DIMUPT
 70
0
  9
$DIMDEC
 70
2
  9
$DIMTDEC
 70
2
  9
$DIMALTU
 70
2
  9
$DIMALTTD
 70
3
  9
$DIMTXSTY
  7
Standard
  9
$DIMAUNIT
 70
0
  9
$DIMADEC
 70
0
  9
$DIMALTRND
 40
0.0
  9
$DIMAZIN
 70
0
  9
$DIMDSEP
 70
44
  9
$DIMATFIT
 70
3
  9
$DIMFRAC
 70
0
  9
$DIMLDRBLK
  1

  9
$DIMLUNIT
 70
2
  9
$DIMLWD
 70
-2
  9
$DIMLWE
 70
-2
  9
$DIMTMOVE
 70
0
  9
$DIMFXL
 40
1.0
  9
$DIMFXLON
 70
0
  9
$DIMJOGANG
 40
0.785398163397
  9
$DIMTFILL
 70
0
  9
$DIMTFILLCLR
 70
0
  9
$DIMARCSYM
 70
0
  9
$DIMLTYPE
  6

  9
$DIMLTEX1
  6

  9
$DIMLTEX2
  6

  9
$DIMTXTDIRECTION
 70
0
  9
$LUNITS
 70
2
  9
$LUPREC
 70
4
  9
$SKETCHINC
 40
1.0
  9
$FILLETRAD
 40
10.0
  9
$AUNITS
 70
0
  9
$AUPREC
 70
2
  9
$MENU
  1
.
  9
$ELEVATION
 40
0.0
  9
$PELEVATION
 40
0.0
  9
$THICKNESS
 40
0.0
  9
$LIMCHECK
 70
0
  9
$CHAMFERA
 40
0.0
  9
$CHAMFERB
 40
0.0
  9
$CHAMFERC
 40
0.0
  9
$CHAMFERD
 40
0.0
  9
$SKPOLY
 70
0
  9
$TDCREATE
 40
2461322.5599189815
  9
$TDUCREATE
 40
2458532.153996898
  9
$TDUPDATE
 40
2461322.5599305555
  9
$TDUUPDATE
 40
2458532.1544311
  9
$TDINDWG
 40
0.0
  9
$TDUSRTIMER
 40
0.0
  9
$USRTIMER
 70
1
  9
$ANGBASE
 50
0.0
  9
$ANGDIR
 70
0
  9
$PDMODE
 70
0
  9
$PDSIZE
 40
0.0
  9
$PLINEWID
 40
0.0
  9
$SPLFRAME
 70
0
  9
$SPLINETYPE
 70
6
  9
$SPLINESEGS
 70
8
  9
$HANDSEED
  5
4A
  9
$SURFTAB1
 70
6
  9
$SURFTAB2
 70
6
  9
$SURFTYPE
 70
6
  9
$SURFU
 70
6
  9
$SURFV
 70
6
  9
$UCSBASE
  2

  9
$UCSNAME
  2

  9
$UCSORG
 10
0.0
 20
0.0
 30
0.0
  9
$UCSXDIR
 10
1.0
 20
0.0
 30
0.0
  9
$UCSYDIR
 10
0.0
 20
1.0
 30
0.0
  9
$UCSORTHOREF
  2

  9
$UCSORTHOVIEW
 70
0
  9
$UCSORGTOP
 10
0.0
 20
0.0
 30
0.0
  9
$UCSORGBOTTOM
 10
0.0
 20
0.0
 30
0.0
  9
$UCSORGLEFT
 10
0.0
 20
0.0
 30
0.0
  9
$UCSORGRIGHT
 10
0.0
 20
0.0
 30
0.0
  9
$UCSORGFRONT
 10
0.0
 20
0.0
 30
0.0
  9
$UCSORGBACK
 10
0.0
 20
0.0
 30
0.0
  9
$PUCSBASE
  2

  9
$PUCSNAME
  2

  9
$PUCSORG
 10
0.0
 20
0.0
 30
0.0
  9
$PUCSXDIR
 10
1.0
 20
0.0
 30
0.0
  9
$PUCSYDIR
 10
0.0
 20
1.0
 30
0.0
  9
$PUCSORTHOREF
  2

  9
$PUCSORTHOVIEW
 70
0
  9
$PUCSORGTOP
 10
0.0
 20
0.0
 30
0.0
  9
$PUCSORGBOTTOM
 10
0.0
 20
0.0
 30
0.0
  9
$PUCSORGLEFT
 10
0.0
 20
0.0
 30
0.0
  9
$PUCSORGRIGHT
 10
0.0
 20
0.0
 30
0.0
  9
$PUCSORGFRONT
 10
0.0
 20
0.0
 30
0.0
  9
$PUCSORGBACK
 10
0.0
 20
0.0
 30
0.0
  9
$USERI1
 70
0
  9
$USERI2
 70
0
  9
$USERI3
 70
0
  9
$USERI4
 70
0
  9
$USERI5
 70
0
  9
$USERR1
 40
0.0
  9
$USERR2
 40
0.0
  9
$USERR3
 40
0.0
  9
$USERR4
 40
0.0
  9
$USERR5
 40
0.0
  9
$WORLDVIEW
 70
1
  9
$SHADEDGE
 70
3
  9
$SHADEDIF
 70
70
  9
$TILEMODE
 70
1
  9
$MAXACTVP
 70
64
  9
$PINSBASE
 10
0.0
 20
0.0
 30
0.0
  9
$PLIMCHECK
 70
0
  9
$PEXTMIN
 10
1e+20
 20
1e+20
 30
1e+20
  9
$PEXTMAX
 10
-1e+20
 20
-1e+20
 30
-1e+20
  9
$PLIMMIN
 10
0.0
 20
0.0
  9
$PLIMMAX
 10
420.0
 20
297.0
  9
$UNITMODE
 70
0
  9
$VISRETAIN
 70
1
  9
$PLINEGEN
 70
0
  9
$PSLTSCALE
 70
1
  9
$TREEDEPTH
 70
3020
  9
$CMLSTYLE
  2
Standard
  9
$CMLJUST
 70
0
  9
$CMLSCALE
 40
20.0
  9
$PROXYGRAPHICS
 70
1
  9
$MEASUREMENT
 70
1
  9
$CELWEIGHT
370
-1
  9
$ENDCAPS
280
0
  9
$JOINSTYLE
280
0
  9
$LWDISPLAY
290
0
  9
$INSUNITS
 70
4
  9
$HYPERLINKBASE
  1

  9
$STYLESHEET
  1

  9
$XEDIT
290
1
  9
$CEPSNTYPE
380
0
  9
$PSTYLEMODE
290
1
  9
$FINGERPRINTGUID
  2
{D862B3E6-9272-4E94-AC91-204279A30A77}
  9
$VERSIONGUID
  2
{02AD52BD-F8ED-409E-BD9A-673AB39D32BC}
  9
$EXTNAMES
290
1
  9
$PSVPSCALE
 40
0.0
  9
$OLESTARTUP
290
0
  9
$SORTENTS
280
127
  9
$INDEXCTL
280
0
  9
$HIDETEXT
280
1
  9
$XCLIPFRAME
280
1
  9
$HALOGAP
280
0
  9
$OBSCOLOR
 70
257
  9
$OBSLTYPE
280
0
  9
$INTERSECTIONDISPLAY
280
0
  9
$INTERSECTIONCOLOR
 70
257
  9
$DIMASSOC
280
2
  9
$PROJECTNAME
  1

  9
$CAMERADISPLAY
290
0
  9
$LENSLENGTH
 40
50.0
  9
$CAMERAHEIGHT
 40
0.0
  9
$STEPSPERSEC
 40
24.0
  9
$STEPSIZE
 40
100.0
  9
$3DDWFPREC
 40
2.0
  9
$PSOLWIDTH
 40
0.005
  9
$PSOLHEIGHT
 40
0.08
  9
$LOFTANG1
 40
1.570796326795
  9
$LOFTANG2
 40
1.570796326795
  9
$LOFTMAG1
 40
0.0
  9
$LOFTMAG2
 40
0.0
  9
$LOFTPARAM
 70
7
  9
$LOFTNORMALS
280
1
  9
$LATITUDE
 40
37.795
  9
$LONGITUDE
 40
-122.394
  9
$NORTHDIRECTION
 40
0.0
  9
$TIMEZONE
 70
-8000
  9
$LIGHTGLYPHDISPLAY
280
1
  9
$TILEMODELIGHTSYNCH
280
1
  9
$CMATERIAL
347
20
  9
$SOLIDHIST
280
0
  9
$SHOWHIST
280
1
  9
$DWFFRAME
280
2
  9
$DGNFRAME
280
2
  9
$REALWORLDSCALE
290
1
  9
$INTERFERECOLOR
 62
256
  9
$CSHADOW
280
0
  9
$SHADOWPLANELOCATION
 40
0.0
  0
ENDSEC
  0
SECTION
  2
CLASSES
  0
CLASS
  1
ACDBDICTIONARYWDFLT
  2
AcDbDictionaryWithDefault
  3
ObjectDBX Classes
 90
0
 91
0
280
0
281
0
  0
CLASS
  1
SUN
  2
AcDbSun
  3
SCENEOE
 90
1153
 91
0
280
0
281
0
  0
CLASS
  1
VISUALSTYLE
  2
AcDbVisualStyle
  3
ObjectDBX Classes
 90
4095
 91
0
280
0
281
0
  0
CLASS
  1
MATERIAL
  2
AcDbMaterial
  3
ObjectDBX Classes
 90
1153
 91
0
280
0
281
0
  0
CLASS
  1
SCALE
  2
AcDbScale
  3
ObjectDBX Classes
 90
1153
 91
0
280
0
281
0
  0
CLASS
  1
TABLESTYLE
  2
AcDbTableStyle
  3
ObjectDBX Classes
 90
4095
 91
0
280
0
281
0
  0
CLASS
  1
MLEADERSTYLE
  2
AcDbMLeaderStyle
  3
ACDB_MLEADERSTYLE_CLASS
 90
4095
 91
0
280
0
281
0
  0
CLASS
  1
DICTIONARYVAR
  2
AcDbDictionaryVar
  3
ObjectDBX Classes
 90
0
 91
0
280
0
281
0
  0
CLASS
  1
CELLSTYLEMAP
  2
AcDbCellStyleMap
  3
ObjectDBX Classes
 90
1152
 91
0
280
0
281
0
  0
CLASS
  1
MENTALRAYRENDERSETTINGS
  2
AcDbMentalRayRenderSettings
  3
SCENEOE
 90
1024
 91
0
280
0
281
0
  0
CLASS
  1
ACDBDETAILVIEWSTYLE
  2
AcDbDetailViewStyle
  3
ObjectDBX Classes
 90
1025
 91
0
280
0
281
0
  0
CLASS
  1
ACDBSECTIONVIEWSTYLE
  2
AcDbSectionViewStyle
  3
ObjectDBX Classes
 90
1025
 91
0
280
0
281
0
  0
CLASS
  1
RASTERVARIABLES
  2
AcDbRasterVariables
  3
ISM
 90
0
 91
0
280
0
281
0
  0
CLASS
  1
ACDBPLACEHOLDER
  2
AcDbPlaceHolder
  3
ObjectDBX Classes
 90
0
 91
0
280
0
281
0
  0
CLASS
  1
LAYOUT
  2
AcDbLayout
  3
ObjectDBX Classes
 90
0
 91
0
280
0
281
0
  0
ENDSEC
  0
SECTION
  2
TABLES
  0
TABLE
  2
VPORT
  5
8
330
0
100
AcDbSymbolTable
 70
1
  0
VPORT
  5
46
330
8
100
AcDbSymbolTableRecord
100
AcDbViewportTableRecord
  2
*Active
 70
0
 10
0.0
 20
0.0
 11
1.0
 21
1.0
 12
-9.237055564881302e-14
 22
-13.000000000000007
 13
0.0
 23
0.0
 14
0.5
 24
0.5
 15
0.5
 25
0.5
 16
0.0
 26
0.0
 36
1.0
 17
0.0
 27
0.0
 37
0.0
 40
40.00000000000003
 41
1.34
 42
50.0
 43
0.0
 44
0.0
 50
0.0
 51
0.0
 71
0
 72
1000
 73
1
 74
3
 75
0
 76
0
 77
0
 78
0
281
0
 65
1
110
0.0
120
0.0
130
0.0
111
1.0
121
0.0
131
0.0
112
0.0
122
1.0
132
0.0
 79
0
146
0.0
  0
ENDTAB
  0
TABLE
  2
LTYPE
  5
2
330
0
100
AcDbSymbolTable
 70
4
  0
LTYPE
  5
24
330
2
100
AcDbSymbolTableRecord
100
AcDbLinetypeTableRecord
  2
ByBlock
 70
0
  3

 72
65
 73
0
 40
0.0
  0
LTYPE
  5
25
330
2
100
AcDbSymbolTableRecord
100
AcDbLinetypeTableRecord
  2
ByLayer
 70
0
  3

 72
65
 73
0
 40
0.0
  0
LTYPE
  5
26
330
2
100
AcDbSymbolTableRecord
100
AcDbLinetypeTableRecord
  2
Continuous
 70
0
  3

 72
65
 73
0
 40
0.0
  0
LTYPE
  5
30
330
2
100
AcDbSymbolTableRecord
100
AcDbLinetypeTableRecord
  2
ACAD_ISO02W100
 70
0
  3
ISO dash __ __ __ __ __ __ __ __ __ __ __ __ __
 72
65
 73
2
 40
15.0
 49
12.0
 74
0
 49
-3.0
 74
0
  0
ENDTAB
  0
TABLE
  2
LAYER
  5
1
330
0
100
AcDbSymbolTable
 70
4
  0
LAYER
  5
27
330
1
100
AcDbSymbolTableRecord
100
AcDbLayerTableRecord
  2
0
 70
0
 62
7
  6
Continuous
370
-3
390
13
347
21
  0
LAYER
  5
28
330
1
100
AcDbSymbolTableRecord
100
AcDbLayerTableRecord
  2
Defpoints
 70
0
 62
7
  6
Continuous
290
0
370
-3
390
13
347
21
  0
LAYER
  5
2F
330
1
100
AcDbSymbolTableRecord
100
AcDbLayerTableRecord
  2
VISIBLE
 70
0
 62
7
  6
Continuous
370
25
390
13
347
21
  0
LAYER
  5
31
330
1
100
AcDbSymbolTableRecord
100
AcDbLayerTableRecord
  2
HIDDEN
 70
0
 62
7
  6
ACAD_ISO02W100
370
13
390
13
347
21
  0
ENDTAB
  0
TABLE
  2
STYLE
  5
5
330
0
100
AcDbSymbolTable
 70
1
  0
STYLE
  5
29
330
5
100
AcDbSymbolTableRecord
100
AcDbTextStyleTableRecord
  2
Standard
 70
0
 40
0.0
 41
1.0
 50
0.0
 71
0
 42
2.5
  3
txt
  4

  0
ENDTAB
  0
TABLE
  2
VIEW
  5
7
330
0
100
AcDbSymbolTable
 70
0
  0
ENDTAB
  0
TABLE
  2
UCS
  5
6
330
0
100
AcDbSymbolTable
 70
0
  0
ENDTAB
  0
TABLE
  2
APPID
  5
3
330
0
100
AcDbSymbolTable
 70
3
  0
APPID
  5
2A
330
3
100
AcDbSymbolTableRecord
100
AcDbRegAppTableRecord
  2
ACAD
 70
0
  0
APPID
  5
47
330
3
100
AcDbSymbolTableRecord
100
AcDbRegAppTableRecord
  2
HATCHBACKGROUNDCOLOR
 70
0
  0
APPID
  5
48
330
3
100
AcDbSymbolTableRecord
100
AcDbRegAppTableRecord
  2
EZDXF
 70
0
  0
ENDTAB
  0
TABLE
  2
DIMSTYLE
  5
4
330
0
100
AcDbSymbolTable
 70
1
100
AcDbDimStyleTable
  0
DIMSTYLE
105
2B
330
4
100
AcDbSymbolTableRecord
100
AcDbDimStyleTableRecord
  2
Standard
 70
0
 40
1.0
 41
2.5
 42
0.625
 43
3.75
 44
1.25
 45
0.0
 46
0.0
 47
0.0
 48
0.0
 49
2.5
140
2.5
141
2.5
142
0.0
143
0.03937007874
144
1.0
145
0.0
146
1.0
147
0.625
148
0.0
 69
0
 70
0
 71
0
 72
0
 73
0
 74
0
 75
0
 76
0
 77
1
 78
8
 79
3
170
0
171
3
172
1
173
0
174
0
175
0
176
0
177
0
178
0
179
2
271
2
272
2
273
2
274
3
275
0
276
0
277
2
278
44
279
0
280
0
281
0
282
0
283
0
284
8
285
0
286
0
288
0
289
3
290
0
371
-2
372
-2
  0
ENDTAB
  0
TABLE
  2
BLOCK_RECORD
  5
9
330
0
100
AcDbSymbolTable
 70
2
  0
BLOCK_RECORD
  5
17
330
9
100
AcDbSymbolTableRecord
100
AcDbBlockTableRecord
  2
*Model_Space
340
1A
 70
0
280
1
281
0
  0
BLOCK_RECORD
  5
1B
330
9
100
AcDbSymbolTableRecord
100
AcDbBlockTableRecord
  2
*Paper_Space
340
1E
 70
0
280
1
281
0
  0
ENDTAB
  0
ENDSEC
  0
SECTION
  2
BLOCKS
  0
BLOCK
  5
18
330
17
100
AcDbEntity
  8
0
100
AcDbBlockBegin
  2
*Model_Space
 70
0
 10
0.0
 20
0.0
 30
0.0
  3
*Model_Space
  1

  0
ENDBLK
  5
19
330
17
100
AcDbEntity
  8
0
100
AcDbBlockEnd
  0
BLOCK
  5
1C
330
1B
100
AcDbEntity
  8
0
100
AcDbBlockBegin
  2
*Paper_Space
 70
0
 10
0.0
 20
0.0
 30
0.0
  3
*Paper_Space
  1

  0
ENDBLK
  5
1D
330
1B
100
AcDbEntity
  8
0
100
AcDbBlockEnd
  0
ENDSEC
  0
SECTION
  2
ENTITIES
  0
SPLINE
  5
32
330
17
100
AcDbEntity
  8
VISIBLE
100
AcDbSpline
 70
0
 71
3
 72
29
 73
25
 74
0
 40
0.0
 40
0.0
 40
0.0
 40
0.0
 40
0.12500000000000006
 40
0.12500000000000006
 40
0.12500000000000006
 40
0.25
 40
0.25
 40
0.25
 40
0.37499999999999994
 40
0.37499999999999994
 40
0.37499999999999994
 40
0.5
 40
0.5
 40
0.5
 40
0.6249999999999998
 40
0.6249999999999998
 40
0.6249999999999998
 40
0.7499999999999999
 40
0.7499999999999999
 40
0.7499999999999999
 40
0.8749999999999999
 40
0.8749999999999999
 40
0.8749999999999999
 40
1.0
 40
1.0
 40
1.0
 40
1.0
 10
-29.999999955365052
 20
7.0
 30
0.0
 10
-30.00208948661712
 20
6.999999999999997
 30
0.0
 10
-29.2212445741726
 20
6.999999999999999
 30
0.0
 10
-27.716385993641552
 20
7.0
 30
0.0
 10
-26.215388366643992
 20
6.999999999999999
 30
0.0
 10
-23.9917300766441
 20
7.0
 30
0.0
 10
-21.213203456804333
 20
7.0
 30
0.0
 10
-18.437631882954076
 20
7.000000000000006
 30
0.0
 10
-15.109692036091905
 20
6.9999999999999964
 30
0.0
 10
-11.480502928522611
 20
7.0
 30
0.0
 10
-7.852913077600662
 20
6.999999999999997
 30
0.0
 10
-3.9273404360979836
 20
6.999999999999999
 30
0.0
 10
-7.105427357601002e-14
 20
7.0
 30
0.0
 10
3.9273404360977557
 20
6.999999999999998
 30
0.0
 10
7.852913077600448
 20
7.000000000000002
 30
0.0
 10
11.480502928522458
 20
7.0
 30
0.0
 10
15.109692036091703
 20
6.999999999999997
 30
0.0
 10
18.43763188295389
 20
6.999999999999999
 30
0.0
 10
21.21320345680422
 20
7.0
 30
0.0
 10
23.991730076643933
 20
6.999999999999997
 30
0.0
 10
26.215388366643886
 20
6.999999999999999
 30
0.0
 10
27.71638599364148
 20
7.0
 30
0.0
 10
29.22124457417251
 20
6.999999999999997
 30
0.0
 10
30.002089486617127
 20
6.999999999999999
 30
0.0
 10
29.999999955365045
 20
7.0
 30
0.0
  0
SPLINE
  5
33
330
17
100
AcDbEntity
  8
VISIBLE
100
AcDbSpline
 70
0
 71
3
 72
8
 73
4
 74
0
 40
0.0
 40
0.0
 40
0.0
 40
0.0
 40
1.0
 40
1.0
 40
1.0
 40
1.0
 10
24.5
 20
-32.27832433580372
 30
0.0
 10
24.503089314394643
 20
-32.27529529843401
 30
0.0
 10
23.822276841024223
 20
-32.5474554241428
 30
0.0
 10
22.557618581123258
 20
-33.0
 30
0.0
  0
SPLINE
  5
34
330
17
100
AcDbEntity
  8
VISIBLE
100
AcDbSpline
 70
0
 71
3
 72
8
 73
4
 74
0
 40
0.0
 40
0.0
 40
0.0
 40
0.0
 40
1.0
 40
1.0
 40
1.0
 40
1.0
 10
22.557618566316343
 20
-33.0
 30
0.0
 10
23.82227677621882
 20
-32.54745545120837
 30
0.0
 10
24.503089195007796
 20
-32.275295349861395
 30
0.0
 10
24.5
 20
-32.27832433580372
 30
0.0
  0
SPLINE
  5
35
330
17
100
AcDbEntity
  8
VISIBLE
100
AcDbSpline
 70
0
 71
3
 72
23
 73
19
 74
0
 40
0.0
 40
0.0
 40
0.0
 40
0.0
 40
0.12500000000000003
 40
0.12500000000000003
 40
0.12500000000000003
 40
0.2499999999999999
 40
0.2499999999999999
 40
0.2499999999999999
 40
0.49999999999999994
 40
0.49999999999999994
 40
0.49999999999999994
 40
0.75
 40
0.75
 40
0.75
 40
0.8749999999999999
 40
0.8749999999999999
 40
0.8749999999999999
 40
1.0
 40
1.0
 40
1.0
 40
1.0
 10
-22.557618566316478
 20
-33.0
 30
0.0
 10
-21.723440945583746
 20
-32.99999999999999
 30
0.0
 10
-20.535031084089436
 20
-33.00000000000001
 30
0.0
 10
-19.047152623126404
 20
-33.0
 30
0.0
 10
-17.560253275650936
 20
-32.99999999999999
 30
0.0
 10
-15.774377561831644
 20
-33.0
 30
0.0
 10
-13.771821237741817
 20
-33.0
 30
0.0
 10
-9.770975737649437
 20
-32.99999999999999
 30
0.0
 10
-4.89188740258435
 20
-33.00000000000001
 30
0.0
 10
-2.078337502098293e-13
 20
-33.0
 30
0.0
 10
4.891887402583928
 20
-32.99999999999999
 30
0.0
 10
9.770975737649046
 20
-33.0
 30
0.0
 10
13.77182123774147
 20
-33.00000000000001
 30
0.0
 10
15.77437756183132
 20
-32.99999999999999
 30
0.0
 10
17.56025327565065
 20
-33.00000000000001
 30
0.0
 10
19.047152623126134
 20
-33.0
 30
0.0
 10
20.535031084089194
 20
-32.99999999999998
 30
0.0
 10
21.723440945583587
 20
-33.000000000000014
 30
0.0
 10
22.55761856631633
 20
-33.0
 30
0.0
  0
SPLINE
  5
36
330
17
100
AcDbEntity
  8
VISIBLE
100
AcDbSpline
 70
0
 71
2
 72
6
 73
3
 74
0
 40
0.0
 40
0.0
 40
0.0
 40
0.17604052099336134
 40
0.17604052099336134
 40
0.17604052099336134
 10
-22.557618581123336
 20
-33.0
 30
0.0
 10
-23.225787591062687
 20
-32.76079370053279
 30
0.0
 10
-23.671977698878713
 20
-32.5931319233965
 30
0.0
  0
SPLINE
  5
37
330
17
100
AcDbEntity
  8
VISIBLE
100
AcDbSpline
 70
0
 71
2
 72
6
 73
3
 74
0
 40
0.0
 40
0.0
 40
0.0
 40
1.0
 40
1.0
 40
1.0
 10
-23.92156414174691
 20
-32.499368151586715
 30
0.0
 10
-24.49808774493075
 20
-32.28008616851111
 30
0.0
 10
-24.499999999831186
 20
-32.2783243357894
 30
0.0
  0
SPLINE
  5
38
330
17
100
AcDbEntity
  8
VISIBLE
100
AcDbSpline
 70
0
 71
3
 72
8
 73
4
 74
0
 40
0.0
 40
0.0
 40
0.0
 40
0.0
 40
1.0
 40
1.0
 40
1.0
 40
1.0
 10
-24.499999999831182
 20
-32.2783243357894
 30
0.0
 10
-24.503089686905774
 20
-32.27529518002975
 30
0.0
 10
-23.822275726880175
 20
-32.54745582678822
 30
0.0
 10
-22.557618566316425
 20
-33.0
 30
0.0
  0
SPLINE
  5
39
330
17
100
AcDbEntity
  8
VISIBLE
100
AcDbSpline
 70
0
 71
3
 72
20
 73
16
 74
0
 40
0.0
 40
0.0
 40
0.0
 40
0.0
 40
0.2097296930904069
 40
0.2097296930904069
 40
0.2097296930904069
 40
0.38758755033342474
 40
0.38758755033342474
 40
0.38758755033342474
 40
0.565276318666143
 40
0.565276318666143
 40
0.565276318666143
 40
0.7780210746615027
 40
0.7780210746615027
 40
0.7780210746615027
 40
1.0
 40
1.0
 40
1.0
 40
1.0
 10
-29.999999955365038
 20
6.999999999999999
 30
0.0
 10
-30.843573923563362
 20
4.251019270375033
 30
0.0
 10
-31.490610064504416
 20
1.4394152120935453
 30
0.0
 10
-31.8854415601929
 20
-1.409591723454232
 30
0.0
 10
-32.220549659967936
 20
-3.825044027981268
 30
0.0
 10
-32.37329216306666
 20
-6.266904475752296
 30
0.0
 10
-32.317177456224556
 20
-8.705213127805221
 30
0.0
 10
-32.261844262802896
 20
-11.140933569941058
 30
0.0
 10
-31.997150495034127
 20
-13.57230838886768
 30
0.0
 10
-31.517466415210155
 20
-15.961133629908804
 30
0.0
 10
-30.944535922484306
 20
-18.82169181974828
 30
0.0
 10
-30.062402439908585
 20
-21.618798666045503
 30
0.0
 10
-28.90923241446122
 20
-24.298132518451908
 30
0.0
 10
-27.707020864384017
 20
-27.09498062759796
 30
0.0
 10
-26.212785012391485
 20
-29.762771636805276
 30
0.0
 10
-24.50000000000984
 20
-32.27832433578926
 30
0.0
  0
SPLINE
  5
3A
330
17
100
AcDbEntity
  8
VISIBLE
100
AcDbSpline
 70
0
 71
3
 72
20
 73
16
 74
0
 40
0.0
 40
0.0
 40
0.0
 40
0.0
 40
0.20972994836444625
 40
0.20972994836444625
 40
0.20972994836444625
 40
0.38758774815639263
 40
0.38758774815639263
 40
0.38758774815639263
 40
0.5652764590915842
 40
0.5652764590915842
 40
0.5652764590915842
 40
0.7780211463653424
 40
0.7780211463653424
 40
0.7780211463653424
 40
1.0
 40
1.0
 40
1.0
 40
1.0
 10
29.999999955364945
 20
7.0
 30
0.0
 10
30.843574003875705
 20
4.251018953953828
 30
0.0
 10
31.49061012495727
 20
1.4394149048719656
 30
0.0
 10
31.88544156019169
 20
-1.4095917234543998
 30
0.0
 10
32.22054965996884
 20
-3.825044027981151
 30
0.0
 10
32.37329216306647
 20
-6.266904475752355
 30
0.0
 10
32.31717745622433
 20
-8.705213127805216
 30
0.0
 10
32.26184426280312
 20
-11.140933569941037
 30
0.0
 10
31.99715049503402
 20
-13.572308388867674
 30
0.0
 10
31.51746641521023
 20
-15.961133629908815
 30
0.0
 10
30.944535922485347
 20
-18.821691819748704
 30
0.0
 10
30.06240243990603
 20
-21.61879866604443
 30
0.0
 10
28.909232414464363
 20
-24.29813251845325
 30
0.0
 10
27.70702086437658
 20
-27.09498062760338
 30
0.0
 10
26.212785012385538
 20
-29.762771636817742
 30
0.0
 10
24.499999999999996
 20
-32.27832433580372
 30
0.0
  0
SPLINE
  5
3B
330
17
100
AcDbEntity
  8
HIDDEN
100
AcDbSpline
 70
0
 71
3
 72
17
 73
13
 74
0
 40
0.0
 40
0.0
 40
0.0
 40
0.0
 40
0.06250000001571493
 40
0.06250000001571493
 40
0.06250000001571493
 40
0.12500000003142986
 40
0.12500000003142986
 40
0.12500000003142986
 40
0.1875000000471448
 40
0.1875000000471448
 40
0.1875000000471448
 40
0.2500000000628597
 40
0.2500000000628597
 40
0.2500000000628597
 40
0.2500000000628597
 10
7.105427357601002e-15
 20
7.0
 30
0.0
 10
-3.927340559904058
 20
6.999999999999997
 30
0.0
 10
-7.852913230951231
 20
6.999999999999999
 30
0.0
 10
-11.480502965697045
 20
7.0
 30
0.0
 10
-15.109691987012788
 20
6.999999999999999
 30
0.0
 10
-18.43763183532315
 20
7.000000000000001
 30
0.0
 10
-21.213203439781545
 20
7.0
 30
0.0
 10
-23.991730088434515
 20
6.999999999999998
 30
0.0
 10
-26.21538838951857
 20
7.000000000000002
 30
0.0
 10
-27.716386006706507
 20
7.0
 30
0.0
 10
-29.221244578541032
 20
6.999999999999999
 30
0.0
 10
-30.00208948502793
 20
7.000000000000001
 30
0.0
 10
-29.999999955365052
 20
7.0
 30
0.0
  0
SPLINE
  5
3C
330
17
100
AcDbEntity
  8
HIDDEN
100
AcDbSpline
 70
0
 71
3
 72
17
 73
13
 74
0
 40
0.0
 40
0.0
 40
0.0
 40
0.0
 40
0.25
 40
0.25
 40
0.25
 40
0.5
 40
0.5
 40
0.5
 40
0.75
 40
0.75
 40
0.75
 40
1.0
 40
1.0
 40
1.0
 40
1.0
 10
29.999999955365045
 20
7.0
 30
0.0
 10
30.00208948502799
 20
7.0
 30
0.0
 10
29.22124457854105
 20
6.999999999999999
 30
0.0
 10
27.716386006706493
 20
7.0
 30
0.0
 10
26.215388389518605
 20
7.0
 30
0.0
 10
23.99173008843468
 20
6.999999999999999
 30
0.0
 10
21.21320343978172
 20
7.0
 30
0.0
 10
18.43763183532362
 20
7.0
 30
0.0
 10
15.109691987013493
 20
7.0
 30
0.0
 10
11.480502965696878
 20
7.0
 30
0.0
 10
7.852913230951323
 20
7.0
 30
0.0
 10
3.927340559900707
 20
7.0
 30
0.0
 10
7.105427357601002e-15
 20
7.0
 30
0.0
  0
SPLINE
  5
3D
330
17
100
AcDbEntity
  8
HIDDEN
100
AcDbSpline
 70
0
 71
3
 72
14
 73
10
 74
0
 40
0.0
 40
0.0
 40
0.0
 40
0.0
 40
0.24999999999999986
 40
0.24999999999999986
 40
0.24999999999999986
 40
0.5000000000000003
 40
0.5000000000000003
 40
0.5000000000000003
 40
1.0
 40
1.0
 40
1.0
 40
1.0
 10
22.55761858112354
 20
-33.00000000000001
 30
0.0
 10
21.723440966955593
 20
-33.0
 30
0.0
 10
20.535031108970728
 20
-32.999999999999986
 30
0.0
 10
19.047152636425402
 20
-33.00000000000001
 30
0.0
 10
17.56025327896746
 20
-33.000000000000014
 30
0.0
 10
15.77437753852752
 20
-32.99999999999999
 30
0.0
 10
13.771821216441278
 20
-33.0
 30
0.0
 10
9.770975719910474
 20
-32.99999999999999
 30
0.0
 10
4.891887612194089
 20
-33.00000000000001
 30
0.0
 10
7.105427357601002e-15
 20
-33.0
 30
0.0
  0
SPLINE
  5
3E
330
17
100
AcDbEntity
  8
HIDDEN
100
AcDbSpline
 70
0
 71
2
 72
6
 73
3
 74
0
 40
0.0
 40
0.0
 40
0.0
 40
1.0
 40
1.0
 40
1.0
 10
-23.67197769887871
 20
-32.5931319233965
 30
0.0
 10
-23.807606981414477
 20
-32.5424211779558
 30
0.0
 10
-23.921564141746906
 20
-32.499368151586715
 30
0.0
  0
SPLINE
  5
3F
330
17
100
AcDbEntity
  8
HIDDEN
100
AcDbSpline
 70
0
 71
3
 72
14
 73
10
 74
0
 40
0.0
 40
0.0
 40
0.0
 40
0.0
 40
0.09727069349365058
 40
0.09727069349365058
 40
0.09727069349365058
 40
0.14590604024047588
 40
0.14590604024047588
 40
0.14590604024047588
 40
0.19454138698730117
 40
0.19454138698730117
 40
0.19454138698730117
 40
0.19454138698730117
 10
2.220446049250313e-14
 20
-33.0
 30
0.0
 10
-4.891887612195458
 20
-32.99999999999998
 30
0.0
 10
-9.77097571990945
 20
-33.000000000000014
 30
0.0
 10
-13.771821216440896
 20
-33.0
 30
0.0
 10
-15.774377538526943
 20
-32.99999999999998
 30
0.0
 10
-17.56025327896702
 20
-33.000000000000014
 30
0.0
 10
-19.047152636425107
 20
-33.0
 30
0.0
 10
-20.535031108970315
 20
-32.99999999999998
 30
0.0
 10
-21.723440966955337
 20
-33.000000000000014
 30
0.0
 10
-22.557618581123364
 20
-33.0
 30
0.0
  0
SPLINE
  5
40
330
17
100
AcDbEntity
  8
HIDDEN
100
AcDbSpline
 70
0
 71
1
 72
17
 73
15
 74
0
 40
0.0
 40
0.0
 40
0.2243994752564138
 40
0.4487989505128276
 40
0.6731984257692414
 40
0.8975979010256552
 40
1.121997376282069
 40
1.3463968515384828
 40
1.5707963267948966
 40
1.7951958020513104
 40
2.019595277307724
 40
2.243994752564138
 40
2.4683942278205517
 40
2.6927937030769655
 40
2.9171931783333793
 40
3.141592653589793
 40
3.141592653589793
 10
24.5
 20
7.0
 30
0.0
 10
23.885733848454677
 20
7.0
 30
0.0
 10
22.07373726360927
 20
7.0
 30
0.0
 10
19.15487132046673
 20
7.0
 30
0.0
 10
15.275500145538974
 20
7.0
 30
0.0
 10
10.630151608380176
 20
7.0
 30
0.0
 10
5.451762881929703
 20
7.0
 30
0.0
 10
1.7763568394002505e-15
 20
7.0
 30
0.0
 10
-5.451762881929701
 20
7.0
 30
0.0
 10
-10.630151608380174
 20
7.0
 30
0.0
 10
-15.275500145538969
 20
7.0
 30
0.0
 10
-19.154871320466732
 20
7.0
 30
0.0
 10
-22.073737263609267
 20
7.0
 30
0.0
 10
-23.885733848454677
 20
7.0
 30
0.0
 10
-24.5
 20
7.0
 30
0.0
  0
SPLINE
  5
41
330
17
100
AcDbEntity
  8
HIDDEN
100
AcDbSpline
 70
0
 71
1
 72
17
 73
15
 74
0
 40
0.0
 40
0.0
 40
0.07142857142857142
 40
0.14285714285714285
 40
0.21428571428571427
 40
0.2857142857142857
 40
0.35714285714285715
 40
0.42857142857142855
 40
0.5
 40
0.5714285714285714
 40
0.6428571428571429
 40
0.7142857142857143
 40
0.7857142857142857
 40
0.8571428571428571
 40
0.9285714285714286
 40
1.0
 40
1.0
 10
-24.5
 20
7.0
 30
0.0
 10
-23.885733848454677
 20
7.0
 30
0.0
 10
-22.073737263609267
 20
7.0
 30
0.0
 10
-19.154871320466732
 20
7.0
 30
0.0
 10
-15.275500145538974
 20
7.0
 30
0.0
 10
-10.630151608380178
 20
7.0
 30
0.0
 10
-5.4517628819297075
 20
7.0
 30
0.0
 10
-4.440892098500626e-15
 20
7.0
 30
0.0
 10
5.451762881929698
 20
7.0
 30
0.0
 10
10.63015160838017
 20
7.0
 30
0.0
 10
15.275500145538967
 20
7.0
 30
0.0
 10
19.154871320466732
 20
7.0
 30
0.0
 10
22.073737263609267
 20
7.0
 30
0.0
 10
23.885733848454677
 20
7.0
 30
0.0
 10
24.5
 20
7.0
 30
0.0
  0
SPLINE
  5
42
330
17
100
AcDbEntity
  8
HIDDEN
100
AcDbSpline
 70
0
 71
1
 72
17
 73
15
 74
0
 40
0.0
 40
0.0
 40
0.07142857142857145
 40
0.14285714285714288
 40
0.2142857142857143
 40
0.2857142857142858
 40
0.35714285714285726
 40
0.4285714285714287
 40
0.5000000000000002
 40
0.5714285714285716
 40
0.6428571428571431
 40
0.7142857142857145
 40
0.7857142857142859
 40
0.8571428571428572
 40
0.9285714285714286
 40
1.0
 40
1.0
 10
22.557618581123574
 20
-33.0
 30
0.0
 10
20.65286493992832
 20
-33.0
 30
0.0
 10
18.17255884897473
 20
-33.0
 30
0.0
 10
15.185821287407894
 20
-33.0
 30
0.0
 10
11.775886427597833
 20
-33.0
 30
0.0
 10
8.037782071633437
 20
-33.0
 30
0.0
 10
4.075681423851513
 20
-33.0
 30
0.0
 10
2.5135449277513544e-13
 20
-33.0
 30
0.0
 10
-4.075681423851016
 20
-33.0
 30
0.0
 10
-8.037782071632963
 20
-33.0
 30
0.0
 10
-11.775886427597387
 20
-33.0
 30
0.0
 10
-15.185821287407492
 20
-33.0
 30
0.0
 10
-18.172558848974383
 20
-33.0
 30
0.0
 10
-20.652864939928037
 20
-33.0
 30
0.0
 10
-22.557618581123364
 20
-33.0
 30
0.0
  0
LINE
  5
43
330
17
100
AcDbEntity
  8
HIDDEN
100
AcDbLine
 10
24.5
 20
-32.27832433580371
 30
0.0
 11
24.5
 21
7.0
 31
0.0
  0
SPLINE
  5
44
330
17
100
AcDbEntity
  8
HIDDEN
100
AcDbSpline
 70
0
 71
1
 72
17
 73
15
 74
0
 40
0.0
 40
0.0
 40
0.07142857142857134
 40
0.14285714285714268
 40
0.21428571428571422
 40
0.28571428571428575
 40
0.3571428571428573
 40
0.4285714285714288
 40
0.5000000000000003
 40
0.571428571428572
 40
0.6428571428571435
 40
0.714285714285715
 40
0.7857142857142865
 40
0.8571428571428581
 40
0.9285714285714296
 40
1.0
 40
1.0
 10
-22.557618566316485
 20
-33.0
 30
0.0
 10
-20.65286492243178
 20
-33.0
 30
0.0
 10
-18.172558830796657
 20
-33.0
 30
0.0
 10
-15.185821270392587
 20
-33.0
 30
0.0
 10
-11.775886413337346
 20
-33.0
 30
0.0
 10
-8.037782061392035
 20
-33.0
 30
0.0
 10
-4.075681418506284
 20
-33.0
 30
0.0
 10
-1.7852386235972517e-13
 20
-33.0
 30
0.0
 10
4.075681418505932
 20
-33.0
 30
0.0
 10
8.037782061391697
 20
-33.0
 30
0.0
 10
11.775886413337032
 20
-33.0
 30
0.0
 10
15.18582127039231
 20
-33.0
 30
0.0
 10
18.17255883079642
 20
-33.0
 30
0.0
 10
20.652864922431597
 20
-33.0
 30
0.0
 10
22.55761856631633
 20
-33.0
 30
0.0
  0
LINE
  5
45
330
17
100
AcDbEntity
  8
HIDDEN
100
AcDbLine
 10
-24.5
 20
-32.2783243357894
 30
0.0
 11
-24.5
 21
7.0
 31
0.0
  0
ENDSEC
  0
SECTION
  2
OBJECTS
  0
DICTIONARY
  5
A
330
0
100
AcDbDictionary
281
1
  3
ACAD_COLOR
350
B
  3
ACAD_GROUP
350
C
  3
ACAD_LAYOUT
350
D
  3
ACAD_MATERIAL
350
E
  3
ACAD_MLEADERSTYLE
350
F
  3
ACAD_MLINESTYLE
350
10
  3
ACAD_PLOTSETTINGS
350
11
  3
ACAD_PLOTSTYLENAME
350
12
  3
ACAD_SCALELIST
350
14
  3
ACAD_TABLESTYLE
350
15
  3
ACAD_VISUALSTYLE
350
16
  3
EZDXF_META
350
2D
  0
DICTIONARY
  5
B
330
A
100
AcDbDictionary
281
1
  0
DICTIONARY
  5
C
330
A
100
AcDbDictionary
281
1
  0
DICTIONARY
  5
D
330
A
100
AcDbDictionary
281
1
  3
Model
350
1A
  3
Layout1
350
1E
  0
DICTIONARY
  5
E
330
A
100
AcDbDictionary
281
1
  3
ByBlock
350
1F
  3
ByLayer
350
20
  3
Global
350
21
  0
DICTIONARY
  5
F
330
A
100
AcDbDictionary
281
1
  3
Standard
350
2C
  0
DICTIONARY
  5
10
330
A
100
AcDbDictionary
281
1
  3
Standard
350
22
  0
DICTIONARY
  5
11
330
A
100
AcDbDictionary
281
1
  0
ACDBDICTIONARYWDFLT
  5
12
330
A
100
AcDbDictionary
281
1
  3
Normal
350
13
100
AcDbDictionaryWithDefault
340
13
  0
ACDBPLACEHOLDER
  5
13
330
12
  0
DICTIONARY
  5
14
330
A
100
AcDbDictionary
281
1
  0
DICTIONARY
  5
15
330
A
100
AcDbDictionary
281
1
  0
DICTIONARY
  5
16
330
A
100
AcDbDictionary
281
1
  0
LAYOUT
  5
1A
330
D
100
AcDbPlotSettings
  1

  4
A3
  6

 40
7.5
 41
20.0
 42
7.5
 43
20.0
 44
420.0
 45
297.0
 46
0.0
 47
0.0
 48
0.0
 49
0.0
140
0.0
141
0.0
142
1.0
143
1.0
 70
1024
 72
1
 73
0
 74
5
  7

 75
16
 76
0
 77
2
 78
300
147
1.0
148
0.0
149
0.0
100
AcDbLayout
  1
Model
 70
1
 71
0
 10
0.0
 20
0.0
 11
420.0
 21
297.0
 12
0.0
 22
0.0
 32
0.0
 14
1e+20
 24
1e+20
 34
1e+20
 15
-1e+20
 25
-1e+20
 35
-1e+20
146
0.0
 13
0.0
 23
0.0
 33
0.0
 16
1.0
 26
0.0
 36
0.0
 17
0.0
 27
1.0
 37
0.0
 76
1
330
17
  0
LAYOUT
  5
1E
330
D
100
AcDbPlotSettings
  1

  4
A3
  6

 40
7.5
 41
20.0
 42
7.5
 43
20.0
 44
420.0
 45
297.0
 46
0.0
 47
0.0
 48
0.0
 49
0.0
140
0.0
141
0.0
142
1.0
143
1.0
 70
0
 72
1
 73
0
 74
5
  7

 75
16
 76
0
 77
2
 78
300
147
1.0
148
0.0
149
0.0
100
AcDbLayout
  1
Layout1
 70
1
 71
1
 10
0.0
 20
0.0
 11
420.0
 21
297.0
 12
0.0
 22
0.0
 32
0.0
 14
1e+20
 24
1e+20
 34
1e+20
 15
-1e+20
 25
-1e+20
 35
-1e+20
146
0.0
 13
0.0
 23
0.0
 33
0.0
 16
1.0
 26
0.0
 36
0.0
 17
0.0
 27
1.0
 37
0.0
 76
1
330
1B
  0
MATERIAL
  5
1F
102
{ACAD_REACTORS
330
E
102
}
330
E
100
AcDbMaterial
  1
ByBlock
  2

 70
0
 40
1.0
 71
1
 41
1.0
 91
-1023410177
 42
1.0
 72
1
  3

 73
1
 74
1
 75
1
 44
0.5
 73
0
 45
1.0
 46
1.0
 77
1
  4

 78
1
 79
1
170
1
 48
1.0
171
1
  6

172
1
173
1
174
1
140
1.0
141
1.0
175
1
  7

176
1
177
1
178
1
143
1.0
179
1
  8

270
1
271
1
272
1
145
1.0
146
1.0
273
1
  9

274
1
275
1
276
1
 42
1.0
 72
1
  3

 73
1
 74
1
 75
1
 94
63
  0
MATERIAL
  5
20
102
{ACAD_REACTORS
330
E
102
}
330
E
100
AcDbMaterial
  1
ByLayer
  2

 70
0
 40
1.0
 71
1
 41
1.0
 91
-1023410177
 42
1.0
 72
1
  3

 73
1
 74
1
 75
1
 44
0.5
 73
0
 45
1.0
 46
1.0
 77
1
  4

 78
1
 79
1
170
1
 48
1.0
171
1
  6

172
1
173
1
174
1
140
1.0
141
1.0
175
1
  7

176
1
177
1
178
1
143
1.0
179
1
  8

270
1
271
1
272
1
145
1.0
146
1.0
273
1
  9

274
1
275
1
276
1
 42
1.0
 72
1
  3

 73
1
 74
1
 75
1
 94
63
  0
MATERIAL
  5
21
102
{ACAD_REACTORS
330
E
102
}
330
E
100
AcDbMaterial
  1
Global
  2

 70
0
 40
1.0
 71
1
 41
1.0
 91
-1023410177
 42
1.0
 72
1
  3

 73
1
 74
1
 75
1
 44
0.5
 73
0
 45
1.0
 46
1.0
 77
1
  4

 78
1
 79
1
170
1
 48
1.0
171
1
  6

172
1
173
1
174
1
140
1.0
141
1.0
175
1
  7

176
1
177
1
178
1
143
1.0
179
1
  8

270
1
271
1
272
1
145
1.0
146
1.0
273
1
  9

274
1
275
1
276
1
 42
1.0
 72
1
  3

 73
1
 74
1
 75
1
 94
63
  0
MLINESTYLE
  5
22
102
{ACAD_REACTORS
330
10
102
}
330
10
100
AcDbMlineStyle
  2
Standard
 70
0
  3

 62
256
 51
90.0
 52
90.0
 71
2
 49
0.5
 62
256
  6
BYLAYER
 49
-0.5
 62
256
  6
BYLAYER
  0
MLEADERSTYLE
  5
2C
102
{ACAD_REACTORS
330
F
102
}
330
F
100
AcDbMLeaderStyle
179
2
170
2
171
1
172
0
 90
2
 40
0.0
 41
0.0
173
1
 91
-1056964608
 92
-2
290
1
 42
2.0
291
1
 43
8.0
  3
Standard
 44
4.0
300

342
29
174
1
175
1
176
0
178
1
 93
-1056964608
 45
4.0
292
0
297
0
 46
4.0
 94
-1056964608
 47
1.0
 49
1.0
140
1.0
294
1
141
0.0
177
0
142
1.0
295
0
296
0
143
3.75
271
0
272
9
273
9
  0
DICTIONARY
  5
2D
330
A
100
AcDbDictionary
280
1
281
1
  3
CREATED_BY_EZDXF
350
2E
  3
WRITTEN_BY_EZDXF
350
49
  0
DICTIONARYVAR
  5
2E
330
2D
100
DictionaryVariables
280
0
  1
1.4.4 @ 2026-10-08T06:26:17.936915+00:00
  0
DICTIONARYVAR
  5
49
330
2D
100
DictionaryVariables
280
0
  1
1.4.4 @ 2026-10-08T06:26:18.058810+00:00
  0
ENDSEC
  0
EOF
