  0
SECTION
  2
HEADER
  9
$ACADVER
  1
AC1027
  9
$ACADMAINTVER
 70
105
  9
$DWGCODEPAGE
  3
ANSI_1252
  9
$LASTSAVEDBY
  1
ezdxf
  9
$REQUIREDVERSIONS
160
0
  9
$INSBASE
 10
0.0
 20
0.0
 30
0.0
  9
$EXTMIN
 10
1e+20
 20
1e+20
 30
1e+20
  9
$EXTMAX
 10
-1e+20
 20
-1e+20
 30
-1e+20
  9
$LIMMIN
 10
0.0
 20
0.0
  9
$LIMMAX
 10
420.0
 20
297.0
  9
$ORTHOMODE
 70
0
  9
$REGENMODE
 70
1
  9
$FILLMODE
 70
1
  9
$QTEXTMODE
 70
0
  9
$MIRRTEXT
 70
1
  9
$LTSCALE
 40
1.0
  9
$ATTMODE
 70
1
  9
$TEXTSIZE
 40
2.5
  9
$TRACEWID
 40
1.0
  9
$TEXTSTYLE
  7
Standard
  9
$CLAYER
  8
0
  9
$CELTYPE
  6
ByLayer
  9
$CECOLOR
 62
256
  9
$CELTSCALE
 40
1.0
  9
$DISPSILH
 70
0
  9
$DIMSCALE
 40
1.0
  9
$DIMASZ
 40
2.5
  9
$DIMEXO
 40
0.625
  9
$DIMDLI
 40
3.75
  9
$DIMRND
 40
0.0
  9
$DIMDLE
 40
0.0
  9
$DIMEXE
 40
1.25
  9
$DIMTP
 40
0.0
  9
$DIMTM
 40
0.0
  9
$DIMTXT
 40
2.5
  9
$DIMCEN
 40
2.5
  9
$DIMTSZ
 40
0.0
  9
$DIMTOL
 70
0
  9
$DIMLIM
 70
0
  9
$DIMTIH
 70
0
  9
$DIMTOH
 70
0
  9
$DIMSE1
 70
0
  9
$DIMSE2
 70
0
  9
$DIMTAD
 70
1
  9
$DIMZIN
 70
8
  9
$DIMBLK
  1

  9
$DIMASO
 70
1
  9
$DIMSHO
 70
1
  9
$DIMPOST
  1

  9
$DIMAPOST
  1

  9
$DIMALT
 70
0
  9
$DIMALTD
 70
3
  9
$DIMALTF
 40
0.03937007874
  9
$DIMLFAC
 40
1.0
  9
$DIMTOFL
 70
1
  9
$DIMTVP
 40
0.0
  9
$DIMTIX
 70
0
  9
$DIMSOXD
 70
0
  9
$DIMSAH
 70
0
  9
$DIMBLK1
  1

  9
$DIMBLK2
  1

  9
$DIMSTYLE
  2
ISO-25
  9
$DIMCLRD
 70
0
  9
$DIMCLRE
 70
0
  9
$DIMCLRT
 70
0
  9
$DIMTFAC
 40
1.0
  9
$DIMGAP
 40
0.625
  9
$DIMJUST
 70
0
  9
$DIMSD1
 70
0
  9
$DIMSD2
 70
0
  9
$DIMTOLJ
 70
0
  9
$DIMTZIN
 70
8
  9
$DIMALTZ
 70
0
  9
$DIMALTTZ
 70
0
  9
$DIMUPT
 70
0
  9
$DIMDEC
 70
2
  9
$DIMTDEC
 70
2
  9
$DIMALTU
 70
2
  9
$DIMALTTD
 70
3
  9
$DIMTXSTY
  7
Standard
  9
$DIMAUNIT
 70
0
  9
$DIMADEC
 70
0
  9
$DIMALTRND
 40
0.0
  9
$DIMAZIN
 70
0
  9
$DIMDSEP
 70
44
  9
$DIMATFIT
 70
3
  9
$DIMFRAC
 70
0
  9
$DIMLDRBLK
  1

  9
$DIMLUNIT
 70
2
  9
$DIMLWD
 70
-2
  9
$DIMLWE
 70
-2
  9
$DIMTMOVE
 70
0
  9
$DIMFXL
 40
1.0
  9
$DIMFXLON
 70
0
  9
$DIMJOGANG
 40
0.785398163397
  9
$DIMTFILL
 70
0
  9
$DIMTFILLCLR
 70
0
  9
$DIMARCSYM
 70
0
  9
$DIMLTYPE
  6

  9
$DIMLTEX1
  6

  9
$DIMLTEX2
  6

  9
$DIMTXTDIRECTION
 70
0
  9
$LUNITS
 70
2
  9
$LUPREC
 70
4
  9
$SKETCHINC
 40
1.0
  9
$FILLETRAD
 40
10.0
  9
$AUNITS
 70
0
  9
$AUPREC
 70
2
  9
$MENU
  1
.
  9
$ELEVATION
 40
0.0
  9
$PELEVATION
 40
0.0
  9
$THICKNESS
 40
0.0
  9
$LIMCHECK
 70
0
  9
$CHAMFERA
 40
0.0
  9
$CHAMFERB
 40
0.0
  9
$CHAMFERC
 40
0.0
  9
$CHAMFERD
 40
0.0
  9
$SKPOLY
 70
0
  9
$TDCREATE
 40
2461322.5598958335
  9
$TDUCREATE
 40
2458532.153996898
  9
$TDUPDATE
 40
2461322.5599074075
  9
$TDUUPDATE
 40
2458532.1544311
  9
$TDINDWG
 40
0.0
  9
$TDUSRTIMER
 40
0.0
  9
$USRTIMER
 70
1
  9
$ANGBASE
 50
0.0
  9
$ANGDIR
 70
0
  9
$PDMODE
 70
0
  9
$PDSIZE
 40
0.0
  9
$PLINEWID
 40
0.0
  9
$SPLFRAME
 70
0
  9
$SPLINETYPE
 70
6
  9
$SPLINESEGS
 70
8
  9
$HANDSEED
  5
137
  9
$SURFTAB1
 70
6
  9
$SURFTAB2
 70
6
  9
$SURFTYPE
 70
6
  9
$SURFU
 70
6
  9
$SURFV
 70
6
  9
$UCSBASE
  2

  9
$UCSNAME
  2

  9
$UCSORG
 10
0.0
 20
0.0
 30
0.0
  9
$UCSXDIR
 10
1.0
 20
0.0
 30
0.0
  9
$UCSYDIR
 10
0.0
 20
1.0
 30
0.0
  9
$UCSORTHOREF
  2

  9
$UCSORTHOVIEW
 70
0
  9
$UCSORGTOP
 10
0.0
 20
0.0
 30
0.0
  9
$UCSORGBOTTOM
 10
0.0
 20
0.0
 30
0.0
  9
$UCSORGLEFT
 10
0.0
 20
0.0
 30
0.0
  9
$UCSORGRIGHT
 10
0.0
 20
0.0
 30
0.0
  9
$UCSORGFRONT
 10
0.0
 20
0.0
 30
0.0
  9
$UCSORGBACK
 10
0.0
 20
0.0
 30
0.0
  9
$PUCSBASE
  2

  9
$PUCSNAME
  2

  9
$PUCSORG
 10
0.0
 20
0.0
 30
0.0
  9
$PUCSXDIR
 10
1.0
 20
0.0
 30
0.0
  9
$PUCSYDIR
 10
0.0
 20
1.0
 30
0.0
  9
$PUCSORTHOREF
  2

  9
$PUCSORTHOVIEW
 70
0
  9
$PUCSORGTOP
 10
0.0
 20
0.0
 30
0.0
  9
$PUCSORGBOTTOM
 10
0.0
 20
0.0
 30
0.0
  9
$PUCSORGLEFT
 10
0.0
 20
0.0
 30
0.0
  9
$PUCSORGRIGHT
 10
0.0
 20
0.0
 30
0.0
  9
$PUCSORGFRONT
 10
0.0
 20
0.0
 30
0.0
  9
$PUCSORGBACK
 10
0.0
 20
0.0
 30
0.0
  9
$USERI1
 70
0
  9
$USERI2
 70
0
  9
$USERI3
 70
0
  9
$USERI4
 70
0
  9
$USERI5
 70
0
  9
$USERR1
 40
0.0
  9
$USERR2
 40
0.0
  9
$USERR3
 40
0.0
  9
$USERR4
 40
0.0
  9
$USERR5
 40
0.0
  9
$WORLDVIEW
 70
1
  9
$SHADEDGE
 70
3
  9
$SHADEDIF
 70
70
  9
$TILEMODE
 70
1
  9
$MAXACTVP
 70
64
  9
$PINSBASE
 10
0.0
 20
0.0
 30
0.0
  9
$PLIMCHECK
 70
0
  9
$PEXTMIN
 10
1e+20
 20
1e+20
 30
1e+20
  9
$PEXTMAX
 10
-1e+20
 20
-1e+20
 30
-1e+20
  9
$PLIMMIN
 10
0.0
 20
0.0
  9
$PLIMMAX
 10
420.0
 20
297.0
  9
$UNITMODE
 70
0
  9
$VISRETAIN
 70
1
  9
$PLINEGEN
 70
0
  9
$PSLTSCALE
 70
1
  9
$TREEDEPTH
 70
3020
  9
$CMLSTYLE
  2
Standard
  9
$CMLJUST
 70
0
  9
$CMLSCALE
 40
20.0
  9
$PROXYGRAPHICS
 70
1
  9
$MEASUREMENT
 70
1
  9
$CELWEIGHT
370
-1
  9
$ENDCAPS
280
0
  9
$JOINSTYLE
280
0
  9
$LWDISPLAY
290
0
  9
$INSUNITS
 70
4
  9
$HYPERLINKBASE
  1

  9
$STYLESHEET
  1

  9
$XEDIT
290
1
  9
$CEPSNTYPE
380
0
  9
$PSTYLEMODE
290
1
  9
$FINGERPRINTGUID
  2
{33E0F88E-0B61-453D-A8A4-214AB23DE9E3}
  9
$VERSIONGUID
  2
{D7C0AC6F-51CF-474E-9A7E-A0978C181B05}
  9
$EXTNAMES
290
1
  9
$PSVPSCALE
 40
0.0
  9
$OLESTARTUP
290
0
  9
$SORTENTS
280
127
  9
$INDEXCTL
280
0
  9
$HIDETEXT
280
1
  9
$XCLIPFRAME
280
1
  9
$HALOGAP
280
0
  9
$OBSCOLOR
 70
257
  9
$OBSLTYPE
280
0
  9
$INTERSECTIONDISPLAY
280
0
  9
$INTERSECTIONCOLOR
 70
257
  9
$DIMASSOC
280
2
  9
$PROJECTNAME
  1

  9
$CAMERADISPLAY
290
0
  9
$LENSLENGTH
 40
50.0
  9
$CAMERAHEIGHT
 40
0.0
  9
$STEPSPERSEC
 40
24.0
  9
$STEPSIZE
 40
100.0
  9
$3DDWFPREC
 40
2.0
  9
$PSOLWIDTH
 40
0.005
  9
$PSOLHEIGHT
 40
0.08
  9
$LOFTANG1
 40
1.570796326795
  9
$LOFTANG2
 40
1.570796326795
  9
$LOFTMAG1
 40
0.0
  9
$LOFTMAG2
 40
0.0
  9
$LOFTPARAM
 70
7
  9
$LOFTNORMALS
280
1
  9
$LATITUDE
 40
37.795
  9
$LONGITUDE
 40
-122.394
  9
$NORTHDIRECTION
 40
0.0
  9
$TIMEZONE
 70
-8000
  9
$LIGHTGLYPHDISPLAY
280
1
  9
$TILEMODELIGHTSYNCH
280
1
  9
$CMATERIAL
347
20
  9
$SOLIDHIST
280
0
  9
$SHOWHIST
280
1
  9
$DWFFRAME
280
2
  9
$DGNFRAME
280
2
  9
$REALWORLDSCALE
290
1
  9
$INTERFERECOLOR
 62
256
  9
$CSHADOW
280
0
  9
$SHADOWPLANELOCATION
 40
0.0
  0
ENDSEC
  0
SECTION
  2
CLASSES
  0
CLASS
  1
ACDBDICTIONARYWDFLT
  2
AcDbDictionaryWithDefault
  3
ObjectDBX Classes
 90
0
 91
0
280
0
281
0
  0
CLASS
  1
SUN
  2
AcDbSun
  3
SCENEOE
 90
1153
 91
0
280
0
281
0
  0
CLASS
  1
VISUALSTYLE
  2
AcDbVisualStyle
  3
ObjectDBX Classes
 90
4095
 91
0
280
0
281
0
  0
CLASS
  1
MATERIAL
  2
AcDbMaterial
  3
ObjectDBX Classes
 90
1153
 91
0
280
0
281
0
  0
CLASS
  1
SCALE
  2
AcDbScale
  3
ObjectDBX Classes
 90
1153
 91
0
280
0
281
0
  0
CLASS
  1
TABLESTYLE
  2
AcDbTableStyle
  3
ObjectDBX Classes
 90
4095
 91
0
280
0
281
0
  0
CLASS
  1
MLEADERSTYLE
  2
AcDbMLeaderStyle
  3
ACDB_MLEADERSTYLE_CLASS
 90
4095
 91
0
280
0
281
0
  0
CLASS
  1
DICTIONARYVAR
  2
AcDbDictionaryVar
  3
ObjectDBX Classes
 90
0
 91
0
280
0
281
0
  0
CLASS
  1
CELLSTYLEMAP
  2
AcDbCellStyleMap
  3
ObjectDBX Classes
 90
1152
 91
0
280
0
281
0
  0
CLASS
  1
MENTALRAYRENDERSETTINGS
  2
AcDbMentalRayRenderSettings
  3
SCENEOE
 90
1024
 91
0
280
0
281
0
  0
CLASS
  1
ACDBDETAILVIEWSTYLE
  2
AcDbDetailViewStyle
  3
ObjectDBX Classes
 90
1025
 91
0
280
0
281
0
  0
CLASS
  1
ACDBSECTIONVIEWSTYLE
  2
AcDbSectionViewStyle
  3
ObjectDBX Classes
 90
1025
 91
0
280
0
281
0
  0
CLASS
  1
RASTERVARIABLES
  2
AcDbRasterVariables
  3
ISM
 90
0
 91
0
280
0
281
0
  0
CLASS
  1
ACDBPLACEHOLDER
  2
AcDbPlaceHolder
  3
ObjectDBX Classes
 90
0
 91
0
280
0
281
0
  0
CLASS
  1
LAYOUT
  2
AcDbLayout
  3
ObjectDBX Classes
 90
0
 91
0
280
0
281
0
  0
ENDSEC
  0
SECTION
  2
TABLES
  0
TABLE
  2
VPORT
  5
8
330
0
100
AcDbSymbolTable
 70
1
  0
VPORT
  5
133
330
8
100
AcDbSymbolTableRecord
100
AcDbViewportTableRecord
  2
*Active
 70
0
 10
0.0
 20
0.0
 11
1.0
 21
1.0
 12
2.668383067400228
 22
-58.000000000000014
 13
0.0
 23
0.0
 14
0.5
 24
0.5
 15
0.5
 25
0.5
 16
0.0
 26
0.0
 36
1.0
 17
0.0
 27
0.0
 37
0.0
 40
152.00000000000009
 41
1.34
 42
50.0
 43
0.0
 44
0.0
 50
0.0
 51
0.0
 71
0
 72
1000
 73
1
 74
3
 75
0
 76
0
 77
0
 78
0
281
0
 65
1
110
0.0
120
0.0
130
0.0
111
1.0
121
0.0
131
0.0
112
0.0
122
1.0
132
0.0
 79
0
146
0.0
  0
ENDTAB
  0
TABLE
  2
LTYPE
  5
2
330
0
100
AcDbSymbolTable
 70
4
  0
LTYPE
  5
24
330
2
100
AcDbSymbolTableRecord
100
AcDbLinetypeTableRecord
  2
ByBlock
 70
0
  3

 72
65
 73
0
 40
0.0
  0
LTYPE
  5
25
330
2
100
AcDbSymbolTableRecord
100
AcDbLinetypeTableRecord
  2
ByLayer
 70
0
  3

 72
65
 73
0
 40
0.0
  0
LTYPE
  5
26
330
2
100
AcDbSymbolTableRecord
100
AcDbLinetypeTableRecord
  2
Continuous
 70
0
  3

 72
65
 73
0
 40
0.0
  0
LTYPE
  5
30
330
2
100
AcDbSymbolTableRecord
100
AcDbLinetypeTableRecord
  2
ACAD_ISO02W100
 70
0
  3
ISO dash __ __ __ __ __ __ __ __ __ __ __ __ __
 72
65
 73
2
 40
15.0
 49
12.0
 74
0
 49
-3.0
 74
0
  0
ENDTAB
  0
TABLE
  2
LAYER
  5
1
330
0
100
AcDbSymbolTable
 70
4
  0
LAYER
  5
27
330
1
100
AcDbSymbolTableRecord
100
AcDbLayerTableRecord
  2
0
 70
0
 62
7
  6
Continuous
370
-3
390
13
347
21
  0
LAYER
  5
28
330
1
100
AcDbSymbolTableRecord
100
AcDbLayerTableRecord
  2
Defpoints
 70
0
 62
7
  6
Continuous
290
0
370
-3
390
13
347
21
  0
LAYER
  5
2F
330
1
100
AcDbSymbolTableRecord
100
AcDbLayerTableRecord
  2
VISIBLE
 70
0
 62
7
  6
Continuous
370
25
390
13
347
21
  0
LAYER
  5
31
330
1
100
AcDbSymbolTableRecord
100
AcDbLayerTableRecord
  2
HIDDEN
 70
0
 62
7
  6
ACAD_ISO02W100
370
13
390
13
347
21
  0
ENDTAB
  0
TABLE
  2
STYLE
  5
5
330
0
100
AcDbSymbolTable
 70
1
  0
STYLE
  5
29
330
5
100
AcDbSymbolTableRecord
100
AcDbTextStyleTableRecord
  2
Standard
 70
0
 40
0.0
 41
1.0
 50
0.0
 71
0
 42
2.5
  3
txt
  4

  0
ENDTAB
  0
TABLE
  2
VIEW
  5
7
330
0
100
AcDbSymbolTable
 70
0
  0
ENDTAB
  0
TABLE
  2
UCS
  5
6
330
0
100
AcDbSymbolTable
 70
0
  0
ENDTAB
  0
TABLE
  2
APPID
  5
3
330
0
100
AcDbSymbolTable
 70
3
  0
APPID
  5
2A
330
3
100
AcDbSymbolTableRecord
100
AcDbRegAppTableRecord
  2
ACAD
 70
0
  0
APPID
  5
134
330
3
100
AcDbSymbolTableRecord
100
AcDbRegAppTableRecord
  2
HATCHBACKGROUNDCOLOR
 70
0
  0
APPID
  5
135
330
3
100
AcDbSymbolTableRecord
100
AcDbRegAppTableRecord
  2
EZDXF
 70
0
  0
ENDTAB
  0
TABLE
  2
DIMSTYLE
  5
4
330
0
100
AcDbSymbolTable
 70
1
100
AcDbDimStyleTable
  0
DIMSTYLE
105
2B
330
4
100
AcDbSymbolTableRecord
100
AcDbDimStyleTableRecord
  2
Standard
 70
0
 40
1.0
 41
2.5
 42
0.625
 43
3.75
 44
1.25
 45
0.0
 46
0.0
 47
0.0
 48
0.0
 49
2.5
140
2.5
141
2.5
142
0.0
143
0.03937007874
144
1.0
145
0.0
146
1.0
147
0.625
148
0.0
 69
0
 70
0
 71
0
 72
0
 73
0
 74
0
 75
0
 76
0
 77
1
 78
8
 79
3
170
0
171
3
172
1
173
0
174
0
175
0
176
0
177
0
178
0
179
2
271
2
272
2
273
2
274
3
275
0
276
0
277
2
278
44
279
0
280
0
281
0
282
0
283
0
284
8
285
0
286
0
288
0
289
3
290
0
371
-2
372
-2
  0
ENDTAB
  0
TABLE
  2
BLOCK_RECORD
  5
9
330
0
100
AcDbSymbolTable
 70
2
  0
BLOCK_RECORD
  5
17
330
9
100
AcDbSymbolTableRecord
100
AcDbBlockTableRecord
  2
*Model_Space
340
1A
 70
0
280
1
281
0
  0
BLOCK_RECORD
  5
1B
330
9
100
AcDbSymbolTableRecord
100
AcDbBlockTableRecord
  2
*Paper_Space
340
1E
 70
0
280
1
281
0
  0
ENDTAB
  0
ENDSEC
  0
SECTION
  2
BLOCKS
  0
BLOCK
  5
18
330
17
100
AcDbEntity
  8
0
100
AcDbBlockBegin
  2
*Model_Space
 70
0
 10
0.0
 20
0.0
 30
0.0
  3
*Model_Space
  1

  0
ENDBLK
  5
19
330
17
100
AcDbEntity
  8
0
100
AcDbBlockEnd
  0
BLOCK
  5
1C
330
1B
100
AcDbEntity
  8
0
100
AcDbBlockBegin
  2
*Paper_Space
 70
0
 10
0.0
 20
0.0
 30
0.0
  3
*Paper_Space
  1

  0
ENDBLK
  5
1D
330
1B
100
AcDbEntity
  8
0
100
AcDbBlockEnd
  0
ENDSEC
  0
SECTION
  2
ENTITIES
  0
SPLINE
  5
32
330
17
100
AcDbEntity
  8
VISIBLE
100
AcDbSpline
 70
0
 71
2
 72
6
 73
3
 74
0
 40
0.0
 40
0.0
 40
0.0
 40
0.9031905309628476
 40
0.9031905309628476
 40
0.9031905309628476
 10
14.513919999999992
 20
18.0
 30
0.0
 10
25.608345936480422
 20
-50.68241431424916
 30
0.0
 10
13.600000000000001
 20
-119.29269267748884
 30
0.0
  0
SPLINE
  5
33
330
17
100
AcDbEntity
  8
VISIBLE
100
AcDbSpline
 70
0
 71
3
 72
29
 73
25
 74
0
 40
0.0
 40
0.0
 40
0.0
 40
0.0
 40
0.1250000000000001
 40
0.1250000000000001
 40
0.1250000000000001
 40
0.2500000000000001
 40
0.2500000000000001
 40
0.2500000000000001
 40
0.3750000000000001
 40
0.3750000000000001
 40
0.3750000000000001
 40
0.5000000000000001
 40
0.5000000000000001
 40
0.5000000000000001
 40
0.6250000000000001
 40
0.6250000000000001
 40
0.6250000000000001
 40
0.7500000000000001
 40
0.7500000000000001
 40
0.7500000000000001
 40
0.8750000000000001
 40
0.8750000000000001
 40
0.8750000000000001
 40
1.0
 40
1.0
 40
1.0
 40
1.0
 10
-14.513919998076684
 20
18.0
 30
0.0
 10
-14.51493090810525
 20
18.000000000000018
 30
0.0
 10
-14.137160204170751
 20
17.999999999999986
 30
0.0
 10
-13.409113625325485
 20
18.0
 30
0.0
 10
-12.68293496480541
 20
18.0
 30
0.0
 10
-11.607135013928648
 20
17.999999999999996
 30
0.0
 10
-10.262891254803835
 20
18.0
 30
0.0
 10
-8.920077138519156
 20
18.0
 30
0.0
 10
-7.310028730201327
 20
17.999999999999996
 30
0.0
 10
-5.554236720691429
 20
18.0
 30
0.0
 10
-3.799218428116019
 20
18.0
 30
0.0
 10
-1.9000368431252848
 20
17.999999999999996
 30
0.0
 10
-1.0150946749831746e-09
 20
18.0
 30
0.0
 10
1.900036841009493
 20
18.0
 30
0.0
 10
3.7992184279377708
 20
17.999999999999996
 30
0.0
 10
5.554236722161433
 20
18.0
 30
0.0
 10
7.310028733407495
 20
18.0
 30
0.0
 10
8.920077141872008
 20
17.999999999999996
 30
0.0
 10
10.262891255114965
 20
18.0
 30
0.0
 10
11.607135011336865
 20
18.0
 30
0.0
 10
12.682934957930915
 20
17.999999999999996
 30
0.0
 10
13.409113622940632
 20
18.0
 30
0.0
 10
14.137160207679559
 20
18.0
 30
0.0
 10
14.514930916114217
 20
17.999999999999996
 30
0.0
 10
14.513919999999999
 20
18.0
 30
0.0
  0
SPLINE
  5
34
330
17
100
AcDbEntity
  8
VISIBLE
100
AcDbSpline
 70
0
 71
3
 72
17
 73
13
 74
0
 40
0.0
 40
0.0
 40
0.0
 40
0.0
 40
0.5171703540295975
 40
0.5171703540295975
 40
0.5171703540295975
 40
0.7657101270830939
 40
0.7657101270830939
 40
0.7657101270830939
 40
0.8977718540380717
 40
0.8977718540380717
 40
0.8977718540380717
 40
1.0
 40
1.0
 40
1.0
 40
1.0
 10
13.6
 20
-113.40469691565438
 30
0.0
 10
13.599999999999996
 20
-114.58508989434706
 30
0.0
 10
13.600000000000001
 20
-115.75821527152416
 30
0.0
 10
13.6
 20
-116.8781236566384
 30
0.0
 10
13.60000000000001
 20
-117.41347478625619
 30
0.0
 10
13.599999999999996
 20
-117.94020230002768
 30
0.0
 10
13.6
 20
-118.41142637270607
 30
0.0
 10
13.600000000000009
 20
-118.6594007518023
 30
0.0
 10
13.599999999999998
 20
-118.893843050776
 30
0.0
 10
13.599999999999998
 20
-119.06784147480421
 30
0.0
 10
13.60000000000001
 20
-119.20187816955915
 30
0.0
 10
13.599999999999994
 20
-119.29376644612016
 30
0.0
 10
13.6
 20
-119.2926926774891
 30
0.0
  0
SPLINE
  5
35
330
17
100
AcDbEntity
  8
VISIBLE
100
AcDbSpline
 70
0
 71
3
 72
8
 73
4
 74
0
 40
0.0
 40
0.0
 40
0.0
 40
0.0
 40
1.0
 40
1.0
 40
1.0
 40
1.0
 10
13.6
 20
-113.4046969156544
 30
0.0
 10
12.39303256976554
 20
-120.31298076251912
 30
0.0
 10
10.986190384836574
 20
-127.18771346859629
 30
0.0
 10
9.318710459762228
 20
-134.0
 30
0.0
  0
SPLINE
  5
36
330
17
100
AcDbEntity
  8
VISIBLE
100
AcDbSpline
 70
0
 71
3
 72
17
 73
13
 74
0
 40
0.0
 40
0.0
 40
0.0
 40
0.0
 40
0.25
 40
0.25
 40
0.25
 40
0.5
 40
0.5
 40
0.5
 40
0.75
 40
0.75
 40
0.75
 40
1.0
 40
1.0
 40
1.0
 40
1.0
 10
-9.318710469036155
 20
-134.0
 30
0.0
 10
-8.381458293178696
 20
-133.99999999999994
 30
0.0
 10
-7.008206566353092
 20
-134.00000000000003
 30
0.0
 10
-5.380159997223749
 20
-134.0
 30
0.0
 10
-3.7544525184723696
 20
-133.99999999999994
 30
0.0
 10
-1.878555778981729
 20
-134.0
 30
0.0
 10
-6.803622466472108e-09
 20
-134.0
 30
0.0
 10
1.878555765184399
 20
-133.99999999999994
 30
0.0
 10
3.7544525081619815
 20
-134.0
 30
0.0
 10
5.380159988684989
 20
-134.0
 30
0.0
 10
7.008206560201903
 20
-133.99999999999991
 30
0.0
 10
8.381458282813709
 20
-134.00000000000006
 30
0.0
 10
9.318710459762135
 20
-134.0
 30
0.0
  0
SPLINE
  5
37
330
17
100
AcDbEntity
  8
VISIBLE
100
AcDbSpline
 70
0
 71
3
 72
17
 73
13
 74
0
 40
0.0
 40
0.0
 40
0.0
 40
0.0
 40
0.42008159897754244
 40
0.42008159897754244
 40
0.42008159897754244
 40
0.7076113921955985
 40
0.7076113921955985
 40
0.7076113921955985
 40
0.837688860866276
 40
0.837688860866276
 40
0.837688860866276
 40
1.0
 40
1.0
 40
1.0
 40
1.0
 10
-11.580519143751827
 20
7.131029190911612
 30
0.0
 10
-8.178509627680773
 20
-12.41848649741421
 30
0.0
 10
-6.019747049253136
 20
-32.188584630070224
 30
0.0
 10
-5.238598711215671
 20
-52.01815901868114
 30
0.0
 10
-4.699246529728457
 20
-65.58987251422184
 30
0.0
 10
-4.801146448151639
 20
-79.1860149253736
 30
0.0
 10
-5.5099145990398934
 20
-92.74960034010601
 30
0.0
 10
-5.831937194953066
 20
-98.88641889129435
 30
0.0
 10
-6.26985144339135
 20
-105.01497261720974
 30
0.0
 10
-6.82365734435473
 20
-111.13526151785229
 30
0.0
 10
-7.508928233815204
 20
-118.77198465429844
 30
0.0
 10
-8.373357745219854
 20
-126.3914624397787
 30
0.0
 10
-9.31871046903616
 20
-134.0
 30
0.0
  0
SPLINE
  5
38
330
17
100
AcDbEntity
  8
VISIBLE
100
AcDbSpline
 70
0
 71
3
 72
8
 73
4
 74
0
 40
0.0
 40
0.0
 40
0.0
 40
0.0
 40
1.0
 40
1.0
 40
1.0
 40
1.0
 10
-11.580519097316257
 20
7.131029198979166
 30
0.0
 10
-11.9908725396863
 20
6.461717357666648
 30
0.0
 10
-12.203663545519198
 20
5.996649252968403
 30
0.0
 10
-12.203626746563105
 20
6.002623945492616
 30
0.0
  0
SPLINE
  5
39
330
17
100
AcDbEntity
  8
VISIBLE
100
AcDbSpline
 70
0
 71
2
 72
6
 73
3
 74
0
 40
0.0
 40
0.0
 40
0.0
 40
1.0
 40
1.0
 40
1.0
 10
-12.203626746563101
 20
6.002623945492615
 30
0.0
 10
-12.20353808041211
 20
6.003524838579777
 30
0.0
 10
-12.137035321765614
 20
6.136153000388822
 30
0.0
  0
SPLINE
  5
3A
330
17
100
AcDbEntity
  8
VISIBLE
100
AcDbSpline
 70
0
 71
3
 72
8
 73
4
 74
0
 40
0.0
 40
0.0
 40
0.0
 40
0.0
 40
1.0
 40
1.0
 40
1.0
 40
1.0
 10
-12.132727308836358
 20
6.144666638516865
 30
0.0
 10
-12.049073638567565
 20
6.309516121811216
 30
0.0
 10
-11.892199250151668
 20
6.612787448042593
 30
0.0
 10
-11.665179245165238
 20
6.991680287250183
 30
0.0
  0
SPLINE
  5
3B
330
17
100
AcDbEntity
  8
VISIBLE
100
AcDbSpline
 70
0
 71
1
 72
4
 73
2
 74
0
 40
0.0
 40
0.0
 40
1.0
 40
1.0
 10
5.9934754043752285
 20
0.27973538843828455
 30
0.0
 10
5.993475182792789
 20
0.2797401359165668
 30
0.0
  0
SPLINE
  5
3C
330
17
100
AcDbEntity
  8
VISIBLE
100
AcDbSpline
 70
0
 71
1
 72
4
 73
2
 74
0
 40
0.0
 40
0.0
 40
1.0
 40
1.0
 10
5.993228926762988
 20
0.2849672655273997
 30
0.0
 10
5.993227970786354
 20
0.28498737024467535
 30
0.0
  0
SPLINE
  5
3D
330
17
100
AcDbEntity
  8
VISIBLE
100
AcDbSpline
 70
0
 71
1
 72
4
 73
2
 74
0
 40
0.0
 40
0.0
 40
1.0
 40
1.0
 10
5.993042503422627
 20
0.28886132350537247
 30
0.0
 10
5.99304233643438
 20
0.2888647880128708
 30
0.0
  0
SPLINE
  5
3E
330
17
100
AcDbEntity
  8
VISIBLE
100
AcDbSpline
 70
0
 71
1
 72
4
 73
2
 74
0
 40
0.0
 40
0.0
 40
1.0
 40
1.0
 10
5.992854530315475
 20
0.2927351909900341
 30
0.0
 10
5.992854191768699
 20
0.29274212161933566
 30
0.0
  0
SPLINE
  5
3F
330
17
100
AcDbEntity
  8
VISIBLE
100
AcDbSpline
 70
0
 71
1
 72
4
 73
2
 74
0
 40
0.0
 40
0.0
 40
1.0
 40
1.0
 10
5.9895352539025035
 20
0.3542129898504125
 30
0.0
 10
5.989534840077929
 20
0.354219987336157
 30
0.0
  0
SPLINE
  5
40
330
17
100
AcDbEntity
  8
VISIBLE
100
AcDbSpline
 70
0
 71
1
 72
4
 73
2
 74
0
 40
0.0
 40
0.0
 40
1.0
 40
1.0
 10
5.989304794973833
 20
0.35808865092912834
 30
0.0
 10
5.989304585754816
 20
0.3580921502706973
 30
0.0
  0
SPLINE
  5
41
330
17
100
AcDbEntity
  8
VISIBLE
100
AcDbSpline
 70
0
 71
1
 72
4
 73
2
 74
0
 40
0.0
 40
0.0
 40
1.0
 40
1.0
 10
5.989071826136664
 20
0.36196419697377114
 30
0.0
 10
5.9890680691065175
 20
0.3620263557795197
 30
0.0
  0
SPLINE
  5
42
330
17
100
AcDbEntity
  8
VISIBLE
100
AcDbSpline
 70
0
 71
1
 72
4
 73
2
 74
0
 40
0.0
 40
0.0
 40
1.0
 40
1.0
 10
5.988750004251904
 20
0.3672503487493066
 30
0.0
 10
5.9887497174747795
 20
0.3672550252096154
 30
0.0
  0
SPLINE
  5
43
330
17
100
AcDbEntity
  8
VISIBLE
100
AcDbSpline
 70
0
 71
1
 72
4
 73
2
 74
0
 40
0.0
 40
0.0
 40
1.0
 40
1.0
 10
5.98842737903794
 20
0.3724741228112356
 30
0.0
 10
5.988426797140406
 20
0.37248347814601046
 30
0.0
  0
SPLINE
  5
44
330
17
100
AcDbEntity
  8
VISIBLE
100
AcDbSpline
 70
0
 71
1
 72
4
 73
2
 74
0
 40
0.0
 40
0.0
 40
1.0
 40
1.0
 10
5.982695671713071
 20
0.4553594637715107
 30
0.0
 10
5.982694954820602
 20
0.4553688825379173
 30
0.0
  0
SPLINE
  5
45
330
17
100
AcDbEntity
  8
VISIBLE
100
AcDbSpline
 70
0
 71
1
 72
4
 73
2
 74
0
 40
0.0
 40
0.0
 40
1.0
 40
1.0
 10
5.982295754079308
 20
0.4605836233807671
 30
0.0
 10
5.9822953914741905
 20
0.4605883330787942
 30
0.0
  0
SPLINE
  5
46
330
17
100
AcDbEntity
  8
VISIBLE
100
AcDbSpline
 70
0
 71
1
 72
4
 73
2
 74
0
 40
0.0
 40
0.0
 40
1.0
 40
1.0
 10
5.981891270121002
 20
0.46580749015413514
 30
0.0
 10
5.9818908976785625
 20
0.4658122730501715
 30
0.0
  0
SPLINE
  5
47
330
17
100
AcDbEntity
  8
VISIBLE
100
AcDbSpline
 70
0
 71
1
 72
4
 73
2
 74
0
 40
0.0
 40
0.0
 40
1.0
 40
1.0
 10
5.981482195361971
 20
0.47103137285665087
 30
0.0
 10
5.981481826121407
 20
0.47103606172649237
 30
0.0
  0
SPLINE
  5
48
330
17
100
AcDbEntity
  8
VISIBLE
100
AcDbSpline
 70
0
 71
1
 72
4
 73
2
 74
0
 40
0.0
 40
0.0
 40
1.0
 40
1.0
 10
5.98106893496203
 20
0.4762501708391594
 30
0.0
 10
5.9810681882080505
 20
0.4762595490256472
 30
0.0
  0
SPLINE
  5
49
330
17
100
AcDbEntity
  8
VISIBLE
100
AcDbSpline
 70
0
 71
1
 72
4
 73
2
 74
0
 40
0.0
 40
0.0
 40
1.0
 40
1.0
 10
5.973898923620247
 20
0.559045464860104
 30
0.0
 10
5.973898046183276
 20
0.559054841009897
 30
0.0
  0
SPLINE
  5
4A
330
17
100
AcDbEntity
  8
VISIBLE
100
AcDbSpline
 70
0
 71
1
 72
4
 73
2
 74
0
 40
0.0
 40
0.0
 40
1.0
 40
1.0
 10
5.973408340981216
 20
0.5642632309609461
 30
0.0
 10
5.973407898182572
 20
0.5642679185163753
 30
0.0
  0
SPLINE
  5
4B
330
17
100
AcDbEntity
  8
VISIBLE
100
AcDbSpline
 70
0
 71
1
 72
4
 73
2
 74
0
 40
0.0
 40
0.0
 40
1.0
 40
1.0
 10
5.972913195888065
 20
0.5694806199084036
 30
0.0
 10
5.97290815270053
 20
0.5695335123334974
 30
0.0
  0
SPLINE
  5
4C
330
17
100
AcDbEntity
  8
VISIBLE
100
AcDbSpline
 70
0
 71
1
 72
4
 73
2
 74
0
 40
0.0
 40
0.0
 40
1.0
 40
1.0
 10
5.972538530517373
 20
0.5733966676053084
 30
0.0
 10
5.972538196431498
 20
0.573400147467195
 30
0.0
  0
SPLINE
  5
4D
330
17
100
AcDbEntity
  8
VISIBLE
100
AcDbSpline
 70
0
 71
1
 72
4
 73
2
 74
0
 40
0.0
 40
0.0
 40
1.0
 40
1.0
 10
5.972166406875065
 20
0.5772596122843552
 30
0.0
 10
5.972165734259761
 20
0.5772665709540876
 30
0.0
  0
SPLINE
  5
4E
330
17
100
AcDbEntity
  8
VISIBLE
100
AcDbSpline
 70
0
 71
1
 72
4
 73
2
 74
0
 40
0.0
 40
0.0
 40
1.0
 40
1.0
 10
5.965924713761277
 20
0.6385473774099977
 30
0.0
 10
5.965923972360953
 20
0.6385543042614048
 30
0.0
  0
SPLINE
  5
4F
330
17
100
AcDbEntity
  8
VISIBLE
100
AcDbSpline
 70
0
 71
1
 72
4
 73
2
 74
0
 40
0.0
 40
0.0
 40
1.0
 40
1.0
 10
5.965510026217293
 20
0.6424099780557628
 30
0.0
 10
5.965509653332552
 20
0.6424134407132265
 30
0.0
  0
SPLINE
  5
50
330
17
100
AcDbEntity
  8
VISIBLE
100
AcDbSpline
 70
0
 71
1
 72
4
 73
2
 74
0
 40
0.0
 40
0.0
 40
1.0
 40
1.0
 10
5.965092834897268
 20
0.6462723364256169
 30
0.0
 10
5.965089773260205
 20
0.6463005947564155
 30
0.0
  0
SPLINE
  5
51
330
17
100
AcDbEntity
  8
VISIBLE
100
AcDbSpline
 70
0
 71
1
 72
4
 73
2
 74
0
 40
0.0
 40
0.0
 40
1.0
 40
1.0
 10
5.964523394804981
 20
0.651506827395876
 30
0.0
 10
5.964522880872938
 20
0.6515115324172285
 30
0.0
  0
SPLINE
  5
52
330
17
100
AcDbEntity
  8
VISIBLE
100
AcDbSpline
 70
0
 71
1
 72
4
 73
2
 74
0
 40
0.0
 40
0.0
 40
1.0
 40
1.0
 10
5.963952466778357
 20
0.6567126145492234
 30
0.0
 10
5.963951430921284
 20
0.6567220216579811
 30
0.0
  0
SPLINE
  5
53
330
17
100
AcDbEntity
  8
VISIBLE
100
AcDbSpline
 70
0
 71
1
 72
4
 73
2
 74
0
 40
0.0
 40
0.0
 40
1.0
 40
1.0
 10
5.843044762094985
 20
1.3633883371411342
 30
0.0
 10
5.8430440870159455
 20
1.363391230309917
 30
0.0
  0
SPLINE
  5
54
330
17
100
AcDbEntity
  8
VISIBLE
100
AcDbSpline
 70
0
 71
1
 72
4
 73
2
 74
0
 40
0.0
 40
0.0
 40
1.0
 40
1.0
 10
5.83905871845287
 20
1.3803597835167944
 30
0.0
 10
5.839058084876827
 20
1.3803624636035265
 30
0.0
  0
SPLINE
  5
55
330
17
100
AcDbEntity
  8
VISIBLE
100
AcDbSpline
 70
0
 71
1
 72
4
 73
2
 74
0
 40
0.0
 40
0.0
 40
1.0
 40
1.0
 10
5.835857028344835
 20
1.3938337758716661
 30
0.0
 10
5.835855678126528
 20
1.393839429102653
 30
0.0
  0
SPLINE
  5
56
330
17
100
AcDbEntity
  8
VISIBLE
100
AcDbSpline
 70
0
 71
1
 72
4
 73
2
 74
0
 40
0.0
 40
0.0
 40
1.0
 40
1.0
 10
5.835024030883874
 20
1.3973168607348518
 30
0.0
 10
5.835022045464681
 20
1.3973251515763976
 30
0.0
  0
SPLINE
  5
57
330
17
100
AcDbEntity
  8
VISIBLE
100
AcDbSpline
 70
0
 71
1
 72
4
 73
2
 74
0
 40
0.0
 40
0.0
 40
1.0
 40
1.0
 10
5.831781813567101
 20
1.4107872733194262
 30
0.0
 10
5.83177995452348
 20
1.410794958040007
 30
0.0
  0
SPLINE
  5
58
330
17
100
AcDbEntity
  8
VISIBLE
100
AcDbSpline
 70
0
 71
1
 72
4
 73
2
 74
0
 40
0.0
 40
0.0
 40
1.0
 40
1.0
 10
5.829225919772843
 20
1.421311024832793
 30
0.0
 10
5.829224314548823
 20
1.4213176083256807
 30
0.0
  0
SPLINE
  5
59
330
17
100
AcDbEntity
  8
VISIBLE
100
AcDbSpline
 70
0
 71
1
 72
4
 73
2
 74
0
 40
0.0
 40
0.0
 40
1.0
 40
1.0
 10
5.828561709869325
 20
1.424032389990138
 30
0.0
 10
5.828560663701616
 20
1.4240366719458906
 30
0.0
  0
SPLINE
  5
5A
330
17
100
AcDbEntity
  8
VISIBLE
100
AcDbSpline
 70
0
 71
1
 72
4
 73
2
 74
0
 40
0.0
 40
0.0
 40
1.0
 40
1.0
 10
5.825982727000969
 20
1.434547008666526
 30
0.0
 10
5.825982167719708
 20
1.4345492800180044
 30
0.0
  0
SPLINE
  5
5B
330
17
100
AcDbEntity
  8
VISIBLE
100
AcDbSpline
 70
0
 71
1
 72
4
 73
2
 74
0
 40
0.0
 40
0.0
 40
1.0
 40
1.0
 10
5.822709966121243
 20
1.4477736386190152
 30
0.0
 10
5.822709450431519
 20
1.447775712637748
 30
0.0
  0
SPLINE
  5
5C
330
17
100
AcDbEntity
  8
VISIBLE
100
AcDbSpline
 70
0
 71
1
 72
4
 73
2
 74
0
 40
0.0
 40
0.0
 40
1.0
 40
1.0
 10
5.820088664120982
 20
1.458275626435483
 30
0.0
 10
5.820087557639381
 20
1.458280042480793
 30
0.0
  0
SPLINE
  5
5D
330
17
100
AcDbEntity
  8
VISIBLE
100
AcDbSpline
 70
0
 71
1
 72
4
 73
2
 74
0
 40
0.0
 40
0.0
 40
1.0
 40
1.0
 10
5.8194077274281675
 20
1.4609906103625978
 30
0.0
 10
5.819406106919772
 20
1.4609970651459225
 30
0.0
  0
SPLINE
  5
5E
330
17
100
AcDbEntity
  8
VISIBLE
100
AcDbSpline
 70
0
 71
1
 72
4
 73
2
 74
0
 40
0.0
 40
0.0
 40
1.0
 40
1.0
 10
5.816761456036383
 20
1.4714910900900637
 30
0.0
 10
5.816758161347499
 20
1.471504113839353
 30
0.0
  0
SPLINE
  5
5F
330
17
100
AcDbEntity
  8
VISIBLE
100
AcDbSpline
 70
0
 71
1
 72
4
 73
2
 74
0
 40
0.0
 40
0.0
 40
1.0
 40
1.0
 10
5.813346723062546
 20
1.4849241551009746
 30
0.0
 10
5.813344565069736
 20
1.484932603427303
 30
0.0
  0
SPLINE
  5
60
330
17
100
AcDbEntity
  8
VISIBLE
100
AcDbSpline
 70
0
 71
1
 72
4
 73
2
 74
0
 40
0.0
 40
0.0
 40
1.0
 40
1.0
 10
5.812458601166153
 20
1.4883967481355076
 30
0.0
 10
5.812457216541976
 20
1.4884021553336022
 30
0.0
  0
SPLINE
  5
61
330
17
100
AcDbEntity
  8
VISIBLE
100
AcDbSpline
 70
0
 71
1
 72
4
 73
2
 74
0
 40
0.0
 40
0.0
 40
1.0
 40
1.0
 10
5.8090067560862995
 20
1.501812366020764
 30
0.0
 10
5.809005986305538
 20
1.5018153435281865
 30
0.0
  0
SPLINE
  5
62
330
17
100
AcDbEntity
  8
VISIBLE
100
AcDbSpline
 70
0
 71
1
 72
4
 73
2
 74
0
 40
0.0
 40
0.0
 40
1.0
 40
1.0
 10
5.8046183542470535
 20
1.518685498456636
 30
0.0
 10
5.804617683129433
 20
1.5186880635556474
 30
0.0
  0
SPLINE
  5
63
330
17
100
AcDbEntity
  8
VISIBLE
100
AcDbSpline
 70
0
 71
1
 72
4
 73
2
 74
0
 40
0.0
 40
0.0
 40
1.0
 40
1.0
 10
5.80109728593499
 20
1.5320803394543954
 30
0.0
 10
5.801095783184834
 20
1.532086029484848
 30
0.0
  0
SPLINE
  5
64
330
17
100
AcDbEntity
  8
VISIBLE
100
AcDbSpline
 70
0
 71
1
 72
4
 73
2
 74
0
 40
0.0
 40
0.0
 40
1.0
 40
1.0
 10
5.80018170789468
 20
1.5355429151833986
 30
0.0
 10
5.800179541495261
 20
1.5355510982671625
 30
0.0
  0
SPLINE
  5
65
330
17
100
AcDbEntity
  8
VISIBLE
100
AcDbSpline
 70
0
 71
1
 72
4
 73
2
 74
0
 40
0.0
 40
0.0
 40
1.0
 40
1.0
 10
5.796620204889745
 20
1.5489332120509487
 30
0.0
 10
5.796615336043789
 20
1.5489514327702616
 30
0.0
  0
SPLINE
  5
66
330
17
100
AcDbEntity
  8
VISIBLE
100
AcDbSpline
 70
0
 71
1
 72
4
 73
2
 74
0
 40
0.0
 40
0.0
 40
1.0
 40
1.0
 10
5.793811934699201
 20
1.5594047471712917
 30
0.0
 10
5.793810164257556
 20
1.5594113250558115
 30
0.0
  0
SPLINE
  5
67
330
17
100
AcDbEntity
  8
VISIBLE
100
AcDbSpline
 70
0
 71
1
 72
4
 73
2
 74
0
 40
0.0
 40
0.0
 40
1.0
 40
1.0
 10
5.793083183682137
 20
1.5621098323839815
 30
0.0
 10
5.793082046872234
 20
1.562114048237251
 30
0.0
  0
SPLINE
  5
68
330
17
100
AcDbEntity
  8
VISIBLE
100
AcDbSpline
 70
0
 71
1
 72
4
 73
2
 74
0
 40
0.0
 40
0.0
 40
1.0
 40
1.0
 10
5.7902548893792005
 20
1.5725610394336043
 30
0.0
 10
5.790254260597434
 20
1.5725633546406543
 30
0.0
  0
SPLINE
  5
69
330
17
100
AcDbEntity
  8
VISIBLE
100
AcDbSpline
 70
0
 71
1
 72
4
 73
2
 74
0
 40
0.0
 40
0.0
 40
1.0
 40
1.0
 10
5.786668493662493
 20
1.585707305264717
 30
0.0
 10
5.786667945590828
 20
1.5857093053232385
 30
0.0
  0
SPLINE
  5
6A
330
17
100
AcDbEntity
  8
VISIBLE
100
AcDbSpline
 70
0
 71
1
 72
4
 73
2
 74
0
 40
0.0
 40
0.0
 40
1.0
 40
1.0
 10
5.78379820389824
 20
1.5961448103600722
 30
0.0
 10
5.783796978781092
 20
1.5961492496947107
 30
0.0
  0
SPLINE
  5
6B
330
17
100
AcDbEntity
  8
VISIBLE
100
AcDbSpline
 70
0
 71
1
 72
4
 73
2
 74
0
 40
0.0
 40
0.0
 40
1.0
 40
1.0
 10
5.78305288299336
 20
1.5988431045632283
 30
0.0
 10
5.783051122104533
 20
1.5988494737266925
 30
0.0
  0
SPLINE
  5
6C
330
17
100
AcDbEntity
  8
VISIBLE
100
AcDbSpline
 70
0
 71
1
 72
4
 73
2
 74
0
 40
0.0
 40
0.0
 40
1.0
 40
1.0
 10
5.780157660223756
 20
1.609278518201037
 30
0.0
 10
5.7560081070111835
 20
1.693626477799747
 30
0.0
  0
SPLINE
  5
6D
330
17
100
AcDbEntity
  8
VISIBLE
100
AcDbSpline
 70
0
 71
1
 72
4
 73
2
 74
0
 40
0.0
 40
0.0
 40
1.0
 40
1.0
 10
5.7554729712375785
 20
1.695444146141043
 30
0.0
 10
5.755472592089648
 20
1.6954454332227376
 30
0.0
  0
SPLINE
  5
6E
330
17
100
AcDbEntity
  8
VISIBLE
100
AcDbSpline
 70
0
 71
1
 72
4
 73
2
 74
0
 40
0.0
 40
0.0
 40
1.0
 40
1.0
 10
5.75493726152689
 20
1.6972616451997617
 30
0.0
 10
5.754936501150348
 20
1.6972642234212318
 30
0.0
  0
SPLINE
  5
6F
330
17
100
AcDbEntity
  8
VISIBLE
100
AcDbSpline
 70
0
 71
1
 72
4
 73
2
 74
0
 40
0.0
 40
0.0
 40
1.0
 40
1.0
 10
5.754400977935774
 20
1.6990789747843758
 30
0.0
 10
5.7543998351275825
 20
1.6990828452163182
 30
0.0
  0
SPLINE
  5
70
330
17
100
AcDbEntity
  8
VISIBLE
100
AcDbSpline
 70
0
 71
1
 72
4
 73
2
 74
0
 40
0.0
 40
0.0
 40
1.0
 40
1.0
 10
5.744172249613302
 20
1.7333450792260963
 30
0.0
 10
5.744171056607814
 20
1.733349032750224
 30
0.0
  0
SPLINE
  5
71
330
17
100
AcDbEntity
  8
VISIBLE
100
AcDbSpline
 70
0
 71
1
 72
4
 73
2
 74
0
 40
0.0
 40
0.0
 40
1.0
 40
1.0
 10
5.743624175564683
 20
1.7351603176043753
 30
0.0
 10
5.743623378989488
 20
1.735162954378302
 30
0.0
  0
SPLINE
  5
72
330
17
100
AcDbEntity
  8
VISIBLE
100
AcDbSpline
 70
0
 71
1
 72
4
 73
2
 74
0
 40
0.0
 40
0.0
 40
1.0
 40
1.0
 10
5.7430755275949625
 20
1.73697538361162
 30
0.0
 10
5.743075128687522
 20
1.736976702545093
 30
0.0
  0
SPLINE
  5
73
330
17
100
AcDbEntity
  8
VISIBLE
100
AcDbSpline
 70
0
 71
1
 72
4
 73
2
 74
0
 40
0.0
 40
0.0
 40
1.0
 40
1.0
 10
5.7425263057599185
 20
1.7387902770601171
 30
0.0
 10
5.742522830922779
 20
1.7388017530128292
 30
0.0
  0
SPLINE
  5
74
330
17
100
AcDbEntity
  8
VISIBLE
100
AcDbSpline
 70
0
 71
1
 72
4
 73
2
 74
0
 40
0.0
 40
0.0
 40
1.0
 40
1.0
 10
5.742086471944052
 20
1.7402422100005037
 30
0.0
 10
5.742086161419653
 20
1.7402432346036567
 30
0.0
  0
SPLINE
  5
75
330
17
100
AcDbEntity
  8
VISIBLE
100
AcDbSpline
 70
0
 71
1
 72
4
 73
2
 74
0
 40
0.0
 40
0.0
 40
1.0
 40
1.0
 10
5.741649751724811
 20
1.7416825572037151
 30
0.0
 10
5.741649129905326
 20
1.7416846070996383
 30
0.0
  0
SPLINE
  5
76
330
17
100
AcDbEntity
  8
VISIBLE
100
AcDbSpline
 70
0
 71
1
 72
4
 73
2
 74
0
 40
0.0
 40
0.0
 40
1.0
 40
1.0
 10
5.741212670294215
 20
1.7431227945270606
 30
0.0
 10
5.741211736407174
 20
1.7431258704089263
 30
0.0
  0
SPLINE
  5
77
330
17
100
AcDbEntity
  8
VISIBLE
100
AcDbSpline
 70
0
 71
1
 72
4
 73
2
 74
0
 40
0.0
 40
0.0
 40
1.0
 40
1.0
 10
5.732896009697032
 20
1.770283412074741
 30
0.0
 10
5.7328950439913475
 20
1.7702865394190437
 30
0.0
  0
SPLINE
  5
78
330
17
100
AcDbEntity
  8
VISIBLE
100
AcDbSpline
 70
0
 71
1
 72
4
 73
2
 74
0
 40
0.0
 40
0.0
 40
1.0
 40
1.0
 10
5.732451434161874
 20
1.7717224875255737
 30
0.0
 10
5.732450789569995
 20
1.7717245731173237
 30
0.0
  0
SPLINE
  5
79
330
17
100
AcDbEntity
  8
VISIBLE
100
AcDbSpline
 70
0
 71
1
 72
4
 73
2
 74
0
 40
0.0
 40
0.0
 40
1.0
 40
1.0
 10
5.732006497241787
 20
1.7731614518044647
 30
0.0
 10
5.732006174551457
 20
1.773162494948468
 30
0.0
  0
SPLINE
  5
7A
330
17
100
AcDbEntity
  8
VISIBLE
100
AcDbSpline
 70
0
 71
1
 72
4
 73
2
 74
0
 40
0.0
 40
0.0
 40
1.0
 40
1.0
 10
5.73156119896542
 20
1.7746003048174825
 30
0.0
 10
5.731557231701918
 20
1.774613118140519
 30
0.0
  0
SPLINE
  5
7B
330
17
100
AcDbEntity
  8
VISIBLE
100
AcDbSpline
 70
0
 71
1
 72
4
 73
2
 74
0
 40
0.0
 40
0.0
 40
1.0
 40
1.0
 10
5.73055071728691
 20
1.777860651922362
 30
0.0
 10
5.730550009802446
 20
1.7778629323448116
 30
0.0
  0
SPLINE
  5
7C
330
17
100
AcDbEntity
  8
VISIBLE
100
AcDbSpline
 70
0
 71
1
 72
4
 73
2
 74
0
 40
0.0
 40
0.0
 40
1.0
 40
1.0
 10
5.729542363435005
 20
1.7811076127914873
 30
0.0
 10
5.729540944521087
 20
1.7811121772081044
 30
0.0
  0
SPLINE
  5
7D
330
17
100
AcDbEntity
  8
VISIBLE
100
AcDbSpline
 70
0
 71
1
 72
4
 73
2
 74
0
 40
0.0
 40
0.0
 40
1.0
 40
1.0
 10
5.728532170489774
 20
1.784353999653949
 30
0.0
 10
5.728530036193161
 20
1.7843608516366947
 30
0.0
  0
SPLINE
  5
7E
330
17
100
AcDbEntity
  8
VISIBLE
100
AcDbSpline
 70
0
 71
1
 72
4
 73
2
 74
0
 40
0.0
 40
0.0
 40
1.0
 40
1.0
 10
5.70912257233779
 20
1.8455133452612191
 30
0.0
 10
5.709120272204041
 20
1.8455204607443552
 30
0.0
  0
SPLINE
  5
7F
330
17
100
AcDbEntity
  8
VISIBLE
100
AcDbSpline
 70
0
 71
1
 72
4
 73
2
 74
0
 40
0.0
 40
0.0
 40
1.0
 40
1.0
 10
5.708075137014796
 20
1.8487504658818228
 30
0.0
 10
5.708073599492587
 20
1.8487552130237592
 30
0.0
  0
SPLINE
  5
80
330
17
100
AcDbEntity
  8
VISIBLE
100
AcDbSpline
 70
0
 71
1
 72
4
 73
2
 74
0
 40
0.0
 40
0.0
 40
1.0
 40
1.0
 10
5.707025865814957
 20
1.851986993258203
 30
0.0
 10
5.707025095001763
 20
1.8519893685709046
 30
0.0
  0
SPLINE
  5
81
330
17
100
AcDbEntity
  8
VISIBLE
100
AcDbSpline
 70
0
 71
1
 72
4
 73
2
 74
0
 40
0.0
 40
0.0
 40
1.0
 40
1.0
 10
5.705974759088687
 20
1.8552229263024034
 30
0.0
 10
5.705967337669406
 20
1.8552457516713774
 30
0.0
  0
SPLINE
  5
82
330
17
100
AcDbEntity
  8
VISIBLE
100
AcDbSpline
 70
0
 71
1
 72
4
 73
2
 74
0
 40
0.0
 40
0.0
 40
1.0
 40
1.0
 10
5.70584714710111
 20
1.8556153673961597
 30
0.0
 10
5.705847060957254
 20
1.855615632280627
 30
0.0
  0
SPLINE
  5
83
330
17
100
AcDbEntity
  8
VISIBLE
100
AcDbSpline
 70
0
 71
2
 72
6
 73
3
 74
0
 40
0.0
 40
0.0
 40
0.0
 40
1.0
 40
1.0
 40
1.0
 10
5.391773041391555
 20
2.6322582342450045
 30
0.0
 10
5.335836968543689
 20
2.7468332679304917
 30
0.0
 10
5.275097125751438
 20
2.8589071736329656
 30
0.0
  0
SPLINE
  5
84
330
17
100
AcDbEntity
  8
VISIBLE
100
AcDbSpline
 70
0
 71
1
 72
4
 73
2
 74
0
 40
0.0
 40
0.0
 40
1.0
 40
1.0
 10
5.26950467973358
 20
2.869202039633228
 30
0.0
 10
5.190891818285235
 20
3.00909322951561
 30
0.0
  0
SPLINE
  5
85
330
17
100
AcDbEntity
  8
VISIBLE
100
AcDbSpline
 70
0
 71
1
 72
4
 73
2
 74
0
 40
0.0
 40
0.0
 40
1.0
 40
1.0
 10
5.362193013128205
 20
-2.692004130988294
 30
0.0
 10
5.428931283830512
 20
-2.554741723509202
 30
0.0
  0
SPLINE
  5
86
330
17
100
AcDbEntity
  8
VISIBLE
100
AcDbSpline
 70
0
 71
1
 72
4
 73
2
 74
0
 40
0.0
 40
0.0
 40
1.0
 40
1.0
 10
5.640180419371824
 20
-2.0465494662849832
 30
0.0
 10
5.6401878402798
 20
-2.0465290145432475
 30
0.0
  0
SPLINE
  5
87
330
17
100
AcDbEntity
  8
VISIBLE
100
AcDbSpline
 70
0
 71
1
 72
4
 73
2
 74
0
 40
0.0
 40
0.0
 40
1.0
 40
1.0
 10
5.643521787193128
 20
-2.037317283689534
 30
0.0
 10
5.643526718715828
 20
-2.037303622948305
 30
0.0
  0
SPLINE
  5
88
330
17
100
AcDbEntity
  8
VISIBLE
100
AcDbSpline
 70
0
 71
1
 72
4
 73
2
 74
0
 40
0.0
 40
0.0
 40
1.0
 40
1.0
 10
5.646848076427283
 20
-2.028079553370101
 30
0.0
 10
5.646850537482937
 20
-2.0280727009587745
 30
0.0
  0
SPLINE
  5
89
330
17
100
AcDbEntity
  8
VISIBLE
100
AcDbSpline
 70
0
 71
1
 72
4
 73
2
 74
0
 40
0.0
 40
0.0
 40
1.0
 40
1.0
 10
5.650159287939356
 20
-2.018836271283304
 30
0.0
 10
5.719022036031827
 20
-1.8146037565065671
 30
0.0
  0
SPLINE
  5
8A
330
17
100
AcDbEntity
  8
VISIBLE
100
AcDbSpline
 70
0
 71
1
 72
4
 73
2
 74
0
 40
0.0
 40
0.0
 40
1.0
 40
1.0
 10
5.719970028509404
 20
-1.8116132907208689
 30
0.0
 10
5.719970708787577
 20
-1.8116111428159136
 30
0.0
  0
SPLINE
  5
8B
330
17
100
AcDbEntity
  8
VISIBLE
100
AcDbSpline
 70
0
 71
1
 72
4
 73
2
 74
0
 40
0.0
 40
0.0
 40
1.0
 40
1.0
 10
5.720916461399869
 20
-1.8086223166507196
 30
0.0
 10
5.720917816386689
 20
-1.8086180306391455
 30
0.0
  0
SPLINE
  5
8C
330
17
100
AcDbEntity
  8
VISIBLE
100
AcDbSpline
 70
0
 71
1
 72
4
 73
2
 74
0
 40
0.0
 40
0.0
 40
1.0
 40
1.0
 10
5.721861334441697
 20
-1.805630835051398
 30
0.0
 10
5.723635375795761
 20
-1.7999994247067326
 30
0.0
  0
SPLINE
  5
8D
330
17
100
AcDbEntity
  8
VISIBLE
100
AcDbSpline
 70
0
 71
1
 72
4
 73
2
 74
0
 40
0.0
 40
0.0
 40
1.0
 40
1.0
 10
5.739400912065419
 20
-1.749078908101321
 30
0.0
 10
5.739402892491716
 20
-1.7490724095479935
 30
0.0
  0
SPLINE
  5
8E
330
17
100
AcDbEntity
  8
VISIBLE
100
AcDbSpline
 70
0
 71
1
 72
4
 73
2
 74
0
 40
0.0
 40
0.0
 40
1.0
 40
1.0
 10
5.740315391396537
 20
-1.746075331822407
 30
0.0
 10
5.740316709718085
 20
-1.746070997764795
 30
0.0
  0
SPLINE
  5
8F
330
17
100
AcDbEntity
  8
VISIBLE
100
AcDbSpline
 70
0
 71
1
 72
4
 73
2
 74
0
 40
0.0
 40
0.0
 40
1.0
 40
1.0
 10
5.741228303518394
 20
-1.743071262147446
 30
0.0
 10
5.741228961701269
 20
-1.7430690942611053
 30
0.0
  0
SPLINE
  5
90
330
17
100
AcDbEntity
  8
VISIBLE
100
AcDbSpline
 70
0
 71
1
 72
4
 73
2
 74
0
 40
0.0
 40
0.0
 40
1.0
 40
1.0
 10
5.74213964818597
 20
-1.7400666997962628
 30
0.0
 10
5.742811952018237
 20
-1.7378465822655023
 30
0.0
  0
SPLINE
  5
91
330
17
100
AcDbEntity
  8
VISIBLE
100
AcDbSpline
 70
0
 71
1
 72
4
 73
2
 74
0
 40
0.0
 40
0.0
 40
1.0
 40
1.0
 10
5.959510944761324
 20
-0.6958658222222942
 30
0.0
 10
5.95951172106778
 20
-0.6958591737677322
 30
0.0
  0
SPLINE
  5
92
330
17
100
AcDbEntity
  8
VISIBLE
100
AcDbSpline
 70
0
 71
1
 72
4
 73
2
 74
0
 40
0.0
 40
0.0
 40
1.0
 40
1.0
 10
5.9598722780690245
 20
-0.6927642957633862
 30
0.0
 10
5.959872793188968
 20
-0.6927598641535364
 30
0.0
  0
SPLINE
  5
93
330
17
100
AcDbEntity
  8
VISIBLE
100
AcDbSpline
 70
0
 71
1
 72
4
 73
2
 74
0
 40
0.0
 40
0.0
 40
1.0
 40
1.0
 10
5.960232000434532
 20
-0.6896625540733594
 30
0.0
 10
5.9602322567875206
 20
-0.6896603386032578
 30
0.0
  0
SPLINE
  5
94
330
17
100
AcDbEntity
  8
VISIBLE
100
AcDbSpline
 70
0
 71
1
 72
4
 73
2
 74
0
 40
0.0
 40
0.0
 40
1.0
 40
1.0
 10
5.960590111724145
 20
-0.6865605979285155
 30
0.0
 10
5.960591742752039
 20
-0.6865464374932574
 30
0.0
  0
SPLINE
  5
95
330
17
100
AcDbEntity
  8
VISIBLE
100
AcDbSpline
 70
0
 71
1
 72
4
 73
2
 74
0
 40
0.0
 40
0.0
 40
1.0
 40
1.0
 10
5.960874861044595
 20
-0.6840839299955772
 30
0.0
 10
5.960875065031076
 20
-0.6840821525231537
 30
0.0
  0
SPLINE
  5
96
330
17
100
AcDbEntity
  8
VISIBLE
100
AcDbSpline
 70
0
 71
1
 72
4
 73
2
 74
0
 40
0.0
 40
0.0
 40
1.0
 40
1.0
 10
5.961156964065152
 20
-0.6816212876695346
 30
0.0
 10
5.96115737048885
 20
-0.681617733256587
 30
0.0
  0
SPLINE
  5
97
330
17
100
AcDbEntity
  8
VISIBLE
100
AcDbSpline
 70
0
 71
1
 72
4
 73
2
 74
0
 40
0.0
 40
0.0
 40
1.0
 40
1.0
 10
5.9614380517443895
 20
-0.6791585109222826
 30
0.0
 10
5.9614386590646635
 20
-0.6791531800326374
 30
0.0
  0
SPLINE
  5
98
330
17
100
AcDbEntity
  8
VISIBLE
100
AcDbSpline
 70
0
 71
1
 72
4
 73
2
 74
0
 40
0.0
 40
0.0
 40
1.0
 40
1.0
 10
5.966552483575887
 20
-0.6326542074469304
 30
0.0
 10
5.966553044384137
 20
-0.6326489184465531
 30
0.0
  0
SPLINE
  5
99
330
17
100
AcDbEntity
  8
VISIBLE
100
AcDbSpline
 70
0
 71
1
 72
4
 73
2
 74
0
 40
0.0
 40
0.0
 40
1.0
 40
1.0
 10
5.966813565665674
 20
-0.630187080060423
 30
0.0
 10
5.966813937998883
 20
-0.6301835546776662
 30
0.0
  0
SPLINE
  5
9A
330
17
100
AcDbEntity
  8
VISIBLE
100
AcDbSpline
 70
0
 71
1
 72
4
 73
2
 74
0
 40
0.0
 40
0.0
 40
1.0
 40
1.0
 10
5.967073629464407
 20
-0.6277198273648844
 30
0.0
 10
5.967073814859166
 20
-0.6277180650077322
 30
0.0
  0
SPLINE
  5
9B
330
17
100
AcDbEntity
  8
VISIBLE
100
AcDbSpline
 70
0
 71
1
 72
4
 73
2
 74
0
 40
0.0
 40
0.0
 40
1.0
 40
1.0
 10
5.967332674898934
 20
-0.6252524498459062
 30
0.0
 10
5.967335214932824
 20
-0.6252282075819904
 30
0.0
  0
SPLINE
  5
9C
330
17
100
AcDbEntity
  8
VISIBLE
100
AcDbSpline
 70
0
 71
1
 72
4
 73
2
 74
0
 40
0.0
 40
0.0
 40
1.0
 40
1.0
 10
5.967401891595082
 20
-0.6245915005543079
 30
0.0
 10
5.967401939534285
 20
-0.6245910425384638
 30
0.0
  0
SPLINE
  5
9D
330
17
100
AcDbEntity
  8
VISIBLE
100
AcDbSpline
 70
0
 71
1
 72
4
 73
2
 74
0
 40
0.0
 40
0.0
 40
1.0
 40
1.0
 10
5.9674685004494
 20
-0.6239547851933348
 30
0.0
 10
5.96746859622417
 20
-0.6239538692075438
 30
0.0
  0
SPLINE
  5
9E
330
17
100
AcDbEntity
  8
VISIBLE
100
AcDbSpline
 70
0
 71
1
 72
4
 73
2
 74
0
 40
0.0
 40
0.0
 40
1.0
 40
1.0
 10
5.9675350414946555
 20
-0.6233180615061203
 30
0.0
 10
5.967535185003862
 20
-0.6233166875723065
 30
0.0
  0
SPLINE
  5
9F
330
17
100
AcDbEntity
  8
VISIBLE
100
AcDbSpline
 70
0
 71
1
 72
4
 73
2
 74
0
 40
0.0
 40
0.0
 40
1.0
 40
1.0
 10
5.968778142874724
 20
-0.6112997203105742
 30
0.0
 10
5.968778283282445
 20
-0.6112983493561278
 30
0.0
  0
SPLINE
  5
A0
330
17
100
AcDbEntity
  8
VISIBLE
100
AcDbSpline
 70
0
 71
1
 72
4
 73
2
 74
0
 40
0.0
 40
0.0
 40
1.0
 40
1.0
 10
5.968843382882034
 20
-0.6106623756167604
 30
0.0
 10
5.968843476388558
 20
-0.610661461647577
 30
0.0
  0
SPLINE
  5
A1
330
17
100
AcDbEntity
  8
VISIBLE
100
AcDbSpline
 70
0
 71
1
 72
4
 73
2
 74
0
 40
0.0
 40
0.0
 40
1.0
 40
1.0
 10
5.968908554953851
 20
-0.6100250227865347
 30
0.0
 10
5.968908601662106
 20
-0.610024565760007
 30
0.0
  0
SPLINE
  5
A2
330
17
100
AcDbEntity
  8
VISIBLE
100
AcDbSpline
 70
0
 71
1
 72
4
 73
2
 74
0
 40
0.0
 40
0.0
 40
1.0
 40
1.0
 10
5.968973659101982
 20
-0.6093876617004754
 30
0.0
 10
5.969209188641377
 20
-0.6070762106772702
 30
0.0
  0
SPLINE
  5
A3
330
17
100
AcDbEntity
  8
VISIBLE
100
AcDbSpline
 70
0
 71
1
 72
4
 73
2
 74
0
 40
0.0
 40
0.0
 40
1.0
 40
1.0
 10
5.969228927529468
 20
-0.6068820922655143
 30
0.0
 10
5.969229108744038
 20
-0.6068803098540261
 30
0.0
  0
SPLINE
  5
A4
330
17
100
AcDbEntity
  8
VISIBLE
100
AcDbSpline
 70
0
 71
1
 72
4
 73
2
 74
0
 40
0.0
 40
0.0
 40
1.0
 40
1.0
 10
5.969479191263966
 20
-0.6044154582397077
 30
0.0
 10
5.969479552125362
 20
-0.6044118941969925
 30
0.0
  0
SPLINE
  5
A5
330
17
100
AcDbEntity
  8
VISIBLE
100
AcDbSpline
 70
0
 71
1
 72
4
 73
2
 74
0
 40
0.0
 40
0.0
 40
1.0
 40
1.0
 10
5.96972843758187
 20
-0.6019487025951455
 30
0.0
 10
5.969728976536664
 20
-0.6019433575708779
 30
0.0
  0
SPLINE
  5
A6
330
17
100
AcDbEntity
  8
VISIBLE
100
AcDbSpline
 70
0
 71
1
 72
4
 73
2
 74
0
 40
0.0
 40
0.0
 40
1.0
 40
1.0
 10
5.974241549524221
 20
-0.5553717048974325
 30
0.0
 10
5.974242041411706
 20
-0.5553664135391725
 30
0.0
  0
SPLINE
  5
A7
330
17
100
AcDbEntity
  8
VISIBLE
100
AcDbSpline
 70
0
 71
1
 72
4
 73
2
 74
0
 40
0.0
 40
0.0
 40
1.0
 40
1.0
 10
5.9744707270219255
 20
-0.5529008526391598
 30
0.0
 10
5.974471053397233
 20
-0.5528973259177613
 30
0.0
  0
SPLINE
  5
A8
330
17
100
AcDbEntity
  8
VISIBLE
100
AcDbSpline
 70
0
 71
1
 72
4
 73
2
 74
0
 40
0.0
 40
0.0
 40
1.0
 40
1.0
 10
5.9746988842448445
 20
-0.5504298881247693
 30
0.0
 10
5.974699046651764
 20
-0.5504281252578538
 30
0.0
  0
SPLINE
  5
A9
330
17
100
AcDbEntity
  8
VISIBLE
100
AcDbSpline
 70
0
 71
1
 72
4
 73
2
 74
0
 40
0.0
 40
0.0
 40
1.0
 40
1.0
 10
5.974926021114008
 20
-0.5479588119715008
 30
0.0
 10
5.975133542798311
 20
-0.5456912694492267
 30
0.0
  0
SPLINE
  5
AA
330
17
100
AcDbEntity
  8
VISIBLE
100
AcDbSpline
 70
0
 71
1
 72
4
 73
2
 74
0
 40
0.0
 40
0.0
 40
1.0
 40
1.0
 10
5.97530711642021
 20
-0.543787347198954
 30
0.0
 10
5.97530734897562
 20
-0.543784791798998
 30
0.0
  0
SPLINE
  5
AB
330
17
100
AcDbEntity
  8
VISIBLE
100
AcDbSpline
 70
0
 71
1
 72
4
 73
2
 74
0
 40
0.0
 40
0.0
 40
1.0
 40
1.0
 10
5.9959312309991315
 20
-0.22092646709020303
 30
0.0
 10
5.996028189423596
 20
-0.21827914376448343
 30
0.0
  0
SPLINE
  5
AC
330
17
100
AcDbEntity
  8
VISIBLE
100
AcDbSpline
 70
0
 71
1
 72
4
 73
2
 74
0
 40
0.0
 40
0.0
 40
1.0
 40
1.0
 10
5.999951978256879
 20
-0.02400530056340843
 30
0.0
 10
5.999967162267849
 20
-0.019850663088738812
 30
0.0
  0
SPLINE
  5
AD
330
17
100
AcDbEntity
  8
VISIBLE
100
AcDbSpline
 70
0
 71
1
 72
4
 73
2
 74
0
 40
0.0
 40
0.0
 40
1.0
 40
1.0
 10
5.999997720253391
 20
-0.005230367472981291
 30
0.0
 10
5.99999855960307
 20
-0.004157478536315663
 30
0.0
  0
SPLINE
  5
AE
330
17
100
AcDbEntity
  8
VISIBLE
100
AcDbSpline
 70
0
 71
3
 72
47
 73
43
 74
0
 40
0.0
 40
0.0
 40
0.0
 40
0.0
 40
0.1388099718234993
 40
0.1388099718234993
 40
0.1388099718234993
 40
0.2747097210879017
 40
0.2747097210879017
 40
0.2747097210879017
 40
0.4685970666677608
 40
0.4685970666677608
 40
0.4685970666677608
 40
0.6087512431295953
 40
0.6087512431295953
 40
0.6087512431295953
 40
0.7196057030568603
 40
0.7196057030568603
 40
0.7196057030568603
 40
0.8397521450389193
 40
0.8397521450389193
 40
0.8397521450389193
 40
1.0
 40
1.0
 40
1.0
 40
1.118615220179004
 40
1.118615220179004
 40
1.118615220179004
 40
1.2917135372997306
 40
1.2917135372997306
 40
1.2917135372997306
 40
1.497397489642274
 40
1.497397489642274
 40
1.497397489642274
 40
1.6118052885172596
 40
1.6118052885172596
 40
1.6118052885172596
 40
1.727025424368473
 40
1.727025424368473
 40
1.727025424368473
 40
1.9411904686111043
 40
1.9411904686111043
 40
1.9411904686111043
 40
2.091617275107584
 40
2.091617275107584
 40
2.091617275107584
 40
2.091617275107584
 10
5.999999999999999
 20
1.7763568394002505e-15
 30
0.0
 10
6.0004685491774294
 20
-0.8575552116100694
 30
0.0
 10
5.814454331533259
 20
-1.7103378686586876
 30
0.0
 10
5.460656365922678
 20
-2.486208368843636
 30
0.0
 10
5.115149792684171
 20
-3.2461579183926483
 30
0.0
 10
4.608405777504886
 20
-3.9337286793000557
 30
0.0
 10
3.9789454551227283
 20
-4.490878874469693
 30
0.0
 10
3.084027263562205
 20
-5.289530370748777
 30
0.0
 10
1.9309470942561306
 20
-5.804674333458755
 30
0.0
 10
0.769775057001526
 20
-5.950415646122406
 30
0.0
 10
-0.0697030191713931
 20
-6.0593486942970145
 30
0.0
 10
-0.9050868894408652
 20
-5.985287920982812
 30
0.0
 10
-1.6713165927535731
 20
-5.7625255614866155
 30
0.0
 10
-2.2804490220096563
 20
-5.584176061883926
 30
0.0
 10
-2.842390995107723
 20
-5.3209628406973914
 30
0.0
 10
-3.3571425120477763
 20
-4.972885897927024
 30
0.0
 10
-3.9124649255279573
 20
-4.597696250484497
 30
0.0
 10
-4.4065893889382
 20
-4.129992886027765
 30
0.0
 10
-4.818871165945279
 20
-3.5747000833666025
 30
0.0
 10
-5.36844399123568
 20
-2.8372871751133486
 30
0.0
 10
-5.771743028292229
 20
-1.9230753103759417
 30
0.0
 10
-5.926136261663492
 20
-0.9385675299076919
 30
0.0
 10
-6.042142674932798
 20
-0.21188502749200966
 30
0.0
 10
-6.019188466185367
 20
0.535771981046557
 30
0.0
 10
-5.872245728367414
 20
1.2315559693617961
 30
0.0
 10
-5.6580261923517625
 20
2.249090139012743
 30
0.0
 10
-5.1948343015382115
 20
3.159945809315057
 30
0.0
 10
-4.551028886395372
 20
3.9100046131935695
 30
0.0
 10
-3.7870184609719946
 20
4.800697168424739
 30
0.0
 10
-2.7479746524115614
 20
5.4753100628525315
 30
0.0
 10
-1.5537231450306925
 20
5.795338159986515
 30
0.0
 10
-0.8914852769304857
 20
5.973335622019571
 30
0.0
 10
-0.18555539704970173
 20
6.038773945744727
 30
0.0
 10
0.5163580130286203
 20
5.97773990755545
 30
0.0
 10
1.2231926244170386
 20
5.9171197801047795
 30
0.0
 10
1.9239947006284877
 20
5.728256670072131
 30
0.0
 10
2.5688463855496617
 20
5.422271502557624
 30
0.0
 10
3.7701314632618828
 20
4.8564204362799686
 30
0.0
 10
4.767947657500475
 20
3.8811537359925388
 30
0.0
 10
5.3611261622163395
 20
2.6941281099456917
 30
0.0
 10
5.780350728830451
 20
1.8620983746531485
 30
0.0
 10
6.000992286401451
 20
0.9296594759963326
 30
0.0
 10
6.0
 20
1.5543122344752192e-15
 30
0.0
  0
SPLINE
  5
AF
330
17
100
AcDbEntity
  8
VISIBLE
100
AcDbSpline
 70
0
 71
2
 72
6
 73
3
 74
0
 40
0.0
 40
0.0
 40
0.0
 40
1.0
 40
1.0
 40
1.0
 10
-14.513919998076695
 20
18.0
 30
0.0
 10
-13.275657594773524
 20
12.017315398952361
 30
0.0
 10
-12.203626746548025
 20
6.002623945492619
 30
0.0
  0
SPLINE
  5
B0
330
17
100
AcDbEntity
  8
HIDDEN
100
AcDbSpline
 70
0
 71
3
 72
29
 73
25
 74
0
 40
0.0
 40
0.0
 40
0.0
 40
0.0
 40
0.06249999999999999
 40
0.06249999999999999
 40
0.06249999999999999
 40
0.12499999999999999
 40
0.12499999999999999
 40
0.12499999999999999
 40
0.18749999999999997
 40
0.18749999999999997
 40
0.18749999999999997
 40
0.24999999999999997
 40
0.24999999999999997
 40
0.24999999999999997
 40
0.31249999999999994
 40
0.31249999999999994
 40
0.31249999999999994
 40
0.37499999999999994
 40
0.37499999999999994
 40
0.37499999999999994
 40
0.43749999999999994
 40
0.43749999999999994
 40
0.43749999999999994
 40
0.49999999999999994
 40
0.49999999999999994
 40
0.49999999999999994
 40
0.49999999999999994
 10
14.513919999999993
 20
18.0
 30
0.0
 10
14.514930916114047
 20
17.99999999999999
 30
0.0
 10
14.137160207679576
 20
18.000000000000004
 30
0.0
 10
13.409113622940632
 20
17.999999999999996
 30
0.0
 10
12.682934957930815
 20
18.00000000000002
 30
0.0
 10
11.607135011336764
 20
17.999999999999986
 30
0.0
 10
10.262891255114958
 20
18.0
 30
0.0
 10
8.920077141871877
 20
17.99999999999999
 30
0.0
 10
7.310028733407533
 20
18.000000000000007
 30
0.0
 10
5.554236722161434
 20
18.0
 30
0.0
 10
3.799218427937727
 20
18.0
 30
0.0
 10
1.9000368410095043
 20
17.999999999999996
 30
0.0
 10
-1.0150942473740675e-09
 20
18.0
 30
0.0
 10
-1.9000368431252928
 20
18.000000000000014
 30
0.0
 10
-3.7992184281160255
 20
17.999999999999993
 30
0.0
 10
-5.554236720691435
 20
18.0
 30
0.0
 10
-7.310028730201336
 20
17.999999999999996
 30
0.0
 10
-8.920077138519162
 20
18.000000000000004
 30
0.0
 10
-10.262891254803845
 20
18.0
 30
0.0
 10
-11.60713501392864
 20
17.999999999999996
 30
0.0
 10
-12.68293496480543
 20
18.000000000000004
 30
0.0
 10
-13.409113625325492
 20
18.0
 30
0.0
 10
-14.13716020417077
 20
17.999999999999996
 30
0.0
 10
-14.514930908105223
 20
18.000000000000004
 30
0.0
 10
-14.513919998076684
 20
18.0
 30
0.0
  0
SPLINE
  5
B1
330
17
100
AcDbEntity
  8
HIDDEN
100
AcDbSpline
 70
0
 71
1
 72
4
 73
2
 74
0
 40
0.0
 40
0.0
 40
1.0
 40
1.0
 10
-12.137035321765614
 20
6.136153000388822
 30
0.0
 10
-12.13272730883636
 20
6.144666638516867
 30
0.0
  0
SPLINE
  5
B2
330
17
100
AcDbEntity
  8
HIDDEN
100
AcDbSpline
 70
0
 71
2
 72
6
 73
3
 74
0
 40
0.0
 40
0.0
 40
0.0
 40
1.0
 40
1.0
 40
1.0
 10
-11.665179245165236
 20
6.991680287250184
 30
0.0
 10
-11.62436465229469
 20
7.059801344839897
 30
0.0
 10
-11.580519097316259
 20
7.131029198979161
 30
0.0
  0
SPLINE
  5
B3
330
17
100
AcDbEntity
  8
HIDDEN
100
AcDbSpline
 70
0
 71
3
 72
17
 73
13
 74
0
 40
0.0
 40
0.0
 40
0.0
 40
0.0
 40
0.420081598978332
 40
0.420081598978332
 40
0.420081598978332
 40
0.7076113921957343
 40
0.7076113921957343
 40
0.7076113921957343
 40
0.837688860865659
 40
0.837688860865659
 40
0.837688860865659
 40
1.0
 40
1.0
 40
1.0
 40
1.0
 10
-11.580519143753111
 20
7.131029190911373
 30
0.0
 10
-8.178509627692016
 20
-12.41848649733753
 30
0.0
 10
-6.019747049268588
 20
-32.18858462993456
 30
0.0
 10
-5.23859871122387
 20
-52.01815901847439
 30
0.0
 10
-4.699246529730246
 20
-65.58987251401544
 30
0.0
 10
-4.801146448146877
 20
-79.18601492516605
 30
0.0
 10
-5.509914599029125
 20
-92.74960033989935
 30
0.0
 10
-5.831937194939527
 20
-98.88641889108762
 30
0.0
 10
-6.269851443375201
 20
-105.01497261700301
 30
0.0
 10
-6.823657344336128
 20
-111.13526151764569
 30
0.0
 10
-7.508928233799711
 20
-118.77198465416078
 30
0.0
 10
-8.373357745211518
 20
-126.39146243971243
 30
0.0
 10
-9.318710469036168
 20
-134.0
 30
0.0
  0
SPLINE
  5
B4
330
17
100
AcDbEntity
  8
HIDDEN
100
AcDbSpline
 70
0
 71
3
 72
17
 73
13
 74
0
 40
0.0
 40
0.0
 40
0.0
 40
0.0
 40
0.25000000000000006
 40
0.25000000000000006
 40
0.25000000000000006
 40
0.5
 40
0.5
 40
0.5
 40
0.7500000000000001
 40
0.7500000000000001
 40
0.7500000000000001
 40
1.0
 40
1.0
 40
1.0
 40
1.0
 10
9.31871045976213
 20
-133.99999999999997
 30
0.0
 10
8.381458282802525
 20
-134.00000000000003
 30
0.0
 10
7.00820656020488
 20
-134.0
 30
0.0
 10
5.380159988684791
 20
-134.0
 30
0.0
 10
3.7544525081621005
 20
-133.99999999999997
 30
0.0
 10
1.878555765184338
 20
-133.99999999999997
 30
0.0
 10
-6.803623930376664e-09
 20
-134.0
 30
0.0
 10
-1.8785557789817167
 20
-133.99999999999994
 30
0.0
 10
-3.7544525184724136
 20
-134.0
 30
0.0
 10
-5.380159997223684
 20
-134.0
 30
0.0
 10
-7.008206566353782
 20
-133.99999999999994
 30
0.0
 10
-8.381458293175864
 20
-134.00000000000003
 30
0.0
 10
-9.318710469036175
 20
-134.0
 30
0.0
  0
SPLINE
  5
B5
330
17
100
AcDbEntity
  8
HIDDEN
100
AcDbSpline
 70
0
 71
3
 72
8
 73
4
 74
0
 40
0.0
 40
0.0
 40
0.0
 40
0.0
 40
1.0
 40
1.0
 40
1.0
 40
1.0
 10
13.600000000000001
 20
-113.4046969156542
 30
0.0
 10
12.393032569765499
 20
-120.31298076251906
 30
0.0
 10
10.986190384836563
 20
-127.18771346859614
 30
0.0
 10
9.318710459762132
 20
-134.0
 30
0.0
  0
SPLINE
  5
B6
330
17
100
AcDbEntity
  8
HIDDEN
100
AcDbSpline
 70
0
 71
3
 72
17
 73
13
 74
0
 40
0.0
 40
0.0
 40
0.0
 40
0.0
 40
0.5171703557987544
 40
0.5171703557987544
 40
0.5171703557987544
 40
0.7657101282842629
 40
0.7657101282842629
 40
0.7657101282842629
 40
0.8977718549061011
 40
0.8977718549061011
 40
0.8977718549061011
 40
1.0
 40
1.0
 40
1.0
 40
1.0
 10
13.6
 20
-113.40469691565423
 30
0.0
 10
13.599999999999996
 20
-114.58508989836804
 30
0.0
 10
13.600000000000001
 20
-115.75821527960683
 30
0.0
 10
13.6
 20
-116.87812366812712
 30
0.0
 10
13.599999999999998
 20
-117.41347479628006
 30
0.0
 10
13.599999999999998
 20
-117.94020230858227
 30
0.0
 10
13.6
 20
-118.41142637952701
 30
0.0
 10
13.600000000000007
 20
-118.65940075763257
 30
0.0
 10
13.6
 20
-118.89384305554347
 30
0.0
 10
13.6
 20
-119.06784147822138
 30
0.0
 10
13.599999999999996
 20
-119.2018781711377
 30
0.0
 10
13.600000000000001
 20
-119.29376644610159
 30
0.0
 10
13.6
 20
-119.29269267748884
 30
0.0
  0
SPLINE
  5
B7
330
17
100
AcDbEntity
  8
HIDDEN
100
AcDbSpline
 70
0
 71
2
 72
6
 73
3
 74
0
 40
0.0
 40
0.0
 40
0.0
 40
0.2784061577803845
 40
0.2784061577803845
 40
0.2784061577803845
 10
5.999999999999999
 20
-4.9960036108132044e-15
 30
0.0
 10
6.000000660622488
 20
0.1398937285675885
 30
0.0
 10
5.9934754043752285
 20
0.27973538843828455
 30
0.0
  0
SPLINE
  5
B8
330
17
100
AcDbEntity
  8
HIDDEN
100
AcDbSpline
 70
0
 71
1
 72
4
 73
2
 74
0
 40
0.0
 40
0.0
 40
1.0
 40
1.0
 10
5.993475182792789
 20
0.2797401359165668
 30
0.0
 10
5.993228926762988
 20
0.28496726552739965
 30
0.0
  0
SPLINE
  5
B9
330
17
100
AcDbEntity
  8
HIDDEN
100
AcDbSpline
 70
0
 71
1
 72
4
 73
2
 74
0
 40
0.0
 40
0.0
 40
1.0
 40
1.0
 10
5.993227970786354
 20
0.28498737024467535
 30
0.0
 10
5.993042503422627
 20
0.2888613235053724
 30
0.0
  0
SPLINE
  5
BA
330
17
100
AcDbEntity
  8
HIDDEN
100
AcDbSpline
 70
0
 71
1
 72
4
 73
2
 74
0
 40
0.0
 40
0.0
 40
1.0
 40
1.0
 10
5.99304233643438
 20
0.28886478801287085
 30
0.0
 10
5.9928545303154745
 20
0.2927351909900341
 30
0.0
  0
SPLINE
  5
BB
330
17
100
AcDbEntity
  8
HIDDEN
100
AcDbSpline
 70
0
 71
1
 72
4
 73
2
 74
0
 40
0.0
 40
0.0
 40
1.0
 40
1.0
 10
5.992854191768699
 20
0.29274212161933577
 30
0.0
 10
5.9895352539025035
 20
0.3542129898504125
 30
0.0
  0
SPLINE
  5
BC
330
17
100
AcDbEntity
  8
HIDDEN
100
AcDbSpline
 70
0
 71
1
 72
4
 73
2
 74
0
 40
0.0
 40
0.0
 40
1.0
 40
1.0
 10
5.98953484007793
 20
0.354219987336157
 30
0.0
 10
5.989304794973833
 20
0.35808865092912834
 30
0.0
  0
SPLINE
  5
BD
330
17
100
AcDbEntity
  8
HIDDEN
100
AcDbSpline
 70
0
 71
1
 72
4
 73
2
 74
0
 40
0.0
 40
0.0
 40
1.0
 40
1.0
 10
5.989304585754818
 20
0.3580921502706974
 30
0.0
 10
5.989071826136664
 20
0.36196419697377114
 30
0.0
  0
SPLINE
  5
BE
330
17
100
AcDbEntity
  8
HIDDEN
100
AcDbSpline
 70
0
 71
1
 72
4
 73
2
 74
0
 40
0.0
 40
0.0
 40
1.0
 40
1.0
 10
5.989068069106517
 20
0.3620263557795196
 30
0.0
 10
5.988750004251904
 20
0.3672503487493066
 30
0.0
  0
SPLINE
  5
BF
330
17
100
AcDbEntity
  8
HIDDEN
100
AcDbSpline
 70
0
 71
1
 72
4
 73
2
 74
0
 40
0.0
 40
0.0
 40
1.0
 40
1.0
 10
5.9887497174747795
 20
0.3672550252096154
 30
0.0
 10
5.988427379037939
 20
0.3724741228112356
 30
0.0
  0
SPLINE
  5
C0
330
17
100
AcDbEntity
  8
HIDDEN
100
AcDbSpline
 70
0
 71
1
 72
4
 73
2
 74
0
 40
0.0
 40
0.0
 40
1.0
 40
1.0
 10
5.988426797140406
 20
0.3724834781460104
 30
0.0
 10
5.982695671713071
 20
0.45535946377151065
 30
0.0
  0
SPLINE
  5
C1
330
17
100
AcDbEntity
  8
HIDDEN
100
AcDbSpline
 70
0
 71
1
 72
4
 73
2
 74
0
 40
0.0
 40
0.0
 40
1.0
 40
1.0
 10
5.982694954820602
 20
0.4553688825379173
 30
0.0
 10
5.982295754079308
 20
0.4605836233807671
 30
0.0
  0
SPLINE
  5
C2
330
17
100
AcDbEntity
  8
HIDDEN
100
AcDbSpline
 70
0
 71
1
 72
4
 73
2
 74
0
 40
0.0
 40
0.0
 40
1.0
 40
1.0
 10
5.982295391474191
 20
0.4605883330787942
 30
0.0
 10
5.981891270121003
 20
0.46580749015413514
 30
0.0
  0
SPLINE
  5
C3
330
17
100
AcDbEntity
  8
HIDDEN
100
AcDbSpline
 70
0
 71
1
 72
4
 73
2
 74
0
 40
0.0
 40
0.0
 40
1.0
 40
1.0
 10
5.9818908976785625
 20
0.4658122730501714
 30
0.0
 10
5.981482195361972
 20
0.4710313728566508
 30
0.0
  0
SPLINE
  5
C4
330
17
100
AcDbEntity
  8
HIDDEN
100
AcDbSpline
 70
0
 71
1
 72
4
 73
2
 74
0
 40
0.0
 40
0.0
 40
1.0
 40
1.0
 10
5.981481826121408
 20
0.47103606172649237
 30
0.0
 10
5.98106893496203
 20
0.4762501708391593
 30
0.0
  0
SPLINE
  5
C5
330
17
100
AcDbEntity
  8
HIDDEN
100
AcDbSpline
 70
0
 71
1
 72
4
 73
2
 74
0
 40
0.0
 40
0.0
 40
1.0
 40
1.0
 10
5.981068188208049
 20
0.47625954902564716
 30
0.0
 10
5.973898923620247
 20
0.559045464860104
 30
0.0
  0
SPLINE
  5
C6
330
17
100
AcDbEntity
  8
HIDDEN
100
AcDbSpline
 70
0
 71
1
 72
4
 73
2
 74
0
 40
0.0
 40
0.0
 40
1.0
 40
1.0
 10
5.973898046183275
 20
0.559054841009897
 30
0.0
 10
5.973408340981217
 20
0.5642632309609461
 30
0.0
  0
SPLINE
  5
C7
330
17
100
AcDbEntity
  8
HIDDEN
100
AcDbSpline
 70
0
 71
1
 72
4
 73
2
 74
0
 40
0.0
 40
0.0
 40
1.0
 40
1.0
 10
5.973407898182572
 20
0.5642679185163751
 30
0.0
 10
5.972913195888065
 20
0.5694806199084036
 30
0.0
  0
SPLINE
  5
C8
330
17
100
AcDbEntity
  8
HIDDEN
100
AcDbSpline
 70
0
 71
1
 72
4
 73
2
 74
0
 40
0.0
 40
0.0
 40
1.0
 40
1.0
 10
5.972908152700529
 20
0.5695335123334975
 30
0.0
 10
5.972538530517373
 20
0.5733966676053084
 30
0.0
  0
SPLINE
  5
C9
330
17
100
AcDbEntity
  8
HIDDEN
100
AcDbSpline
 70
0
 71
1
 72
4
 73
2
 74
0
 40
0.0
 40
0.0
 40
1.0
 40
1.0
 10
5.972538196431497
 20
0.573400147467195
 30
0.0
 10
5.972166406875065
 20
0.5772596122843552
 30
0.0
  0
SPLINE
  5
CA
330
17
100
AcDbEntity
  8
HIDDEN
100
AcDbSpline
 70
0
 71
1
 72
4
 73
2
 74
0
 40
0.0
 40
0.0
 40
1.0
 40
1.0
 10
5.972165734259761
 20
0.5772665709540876
 30
0.0
 10
5.965924713761277
 20
0.6385473774099977
 30
0.0
  0
SPLINE
  5
CB
330
17
100
AcDbEntity
  8
HIDDEN
100
AcDbSpline
 70
0
 71
1
 72
4
 73
2
 74
0
 40
0.0
 40
0.0
 40
1.0
 40
1.0
 10
5.965923972360953
 20
0.638554304261405
 30
0.0
 10
5.965510026217293
 20
0.6424099780557628
 30
0.0
  0
SPLINE
  5
CC
330
17
100
AcDbEntity
  8
HIDDEN
100
AcDbSpline
 70
0
 71
1
 72
4
 73
2
 74
0
 40
0.0
 40
0.0
 40
1.0
 40
1.0
 10
5.965509653332551
 20
0.6424134407132265
 30
0.0
 10
5.965092834897269
 20
0.6462723364256169
 30
0.0
  0
SPLINE
  5
CD
330
17
100
AcDbEntity
  8
HIDDEN
100
AcDbSpline
 70
0
 71
1
 72
4
 73
2
 74
0
 40
0.0
 40
0.0
 40
1.0
 40
1.0
 10
5.965089773260205
 20
0.6463005947564155
 30
0.0
 10
5.964523394804983
 20
0.651506827395876
 30
0.0
  0
SPLINE
  5
CE
330
17
100
AcDbEntity
  8
HIDDEN
100
AcDbSpline
 70
0
 71
1
 72
4
 73
2
 74
0
 40
0.0
 40
0.0
 40
1.0
 40
1.0
 10
5.964522880872938
 20
0.6515115324172285
 30
0.0
 10
5.963952466778357
 20
0.6567126145492235
 30
0.0
  0
SPLINE
  5
CF
330
17
100
AcDbEntity
  8
HIDDEN
100
AcDbSpline
 70
0
 71
2
 72
6
 73
3
 74
0
 40
0.0
 40
0.0
 40
0.0
 40
1.0
 40
1.0
 40
1.0
 10
5.963951430921284
 20
0.6567220216579811
 30
0.0
 10
5.924657232235141
 20
1.0134850561632462
 30
0.0
 10
5.843044762094984
 20
1.3633883371411342
 30
0.0
  0
SPLINE
  5
D0
330
17
100
AcDbEntity
  8
HIDDEN
100
AcDbSpline
 70
0
 71
1
 72
4
 73
2
 74
0
 40
0.0
 40
0.0
 40
1.0
 40
1.0
 10
5.8430440870159455
 20
1.3633912303099167
 30
0.0
 10
5.83905871845287
 20
1.3803597835167947
 30
0.0
  0
SPLINE
  5
D1
330
17
100
AcDbEntity
  8
HIDDEN
100
AcDbSpline
 70
0
 71
1
 72
4
 73
2
 74
0
 40
0.0
 40
0.0
 40
1.0
 40
1.0
 10
5.839058084876827
 20
1.3803624636035265
 30
0.0
 10
5.835857028344835
 20
1.393833775871666
 30
0.0
  0
SPLINE
  5
D2
330
17
100
AcDbEntity
  8
HIDDEN
100
AcDbSpline
 70
0
 71
1
 72
4
 73
2
 74
0
 40
0.0
 40
0.0
 40
1.0
 40
1.0
 10
5.835855678126528
 20
1.3938394291026532
 30
0.0
 10
5.835024030883876
 20
1.3973168607348518
 30
0.0
  0
SPLINE
  5
D3
330
17
100
AcDbEntity
  8
HIDDEN
100
AcDbSpline
 70
0
 71
1
 72
4
 73
2
 74
0
 40
0.0
 40
0.0
 40
1.0
 40
1.0
 10
5.835022045464681
 20
1.3973251515763976
 30
0.0
 10
5.831781813567103
 20
1.4107872733194262
 30
0.0
  0
SPLINE
  5
D4
330
17
100
AcDbEntity
  8
HIDDEN
100
AcDbSpline
 70
0
 71
1
 72
4
 73
2
 74
0
 40
0.0
 40
0.0
 40
1.0
 40
1.0
 10
5.83177995452348
 20
1.4107949580400065
 30
0.0
 10
5.829225919772842
 20
1.421311024832793
 30
0.0
  0
SPLINE
  5
D5
330
17
100
AcDbEntity
  8
HIDDEN
100
AcDbSpline
 70
0
 71
1
 72
4
 73
2
 74
0
 40
0.0
 40
0.0
 40
1.0
 40
1.0
 10
5.8292243145488225
 20
1.4213176083256802
 30
0.0
 10
5.828561709869325
 20
1.424032389990138
 30
0.0
  0
SPLINE
  5
D6
330
17
100
AcDbEntity
  8
HIDDEN
100
AcDbSpline
 70
0
 71
1
 72
4
 73
2
 74
0
 40
0.0
 40
0.0
 40
1.0
 40
1.0
 10
5.828560663701616
 20
1.4240366719458906
 30
0.0
 10
5.825982727000969
 20
1.434547008666526
 30
0.0
  0
SPLINE
  5
D7
330
17
100
AcDbEntity
  8
HIDDEN
100
AcDbSpline
 70
0
 71
1
 72
4
 73
2
 74
0
 40
0.0
 40
0.0
 40
1.0
 40
1.0
 10
5.825982167719708
 20
1.4345492800180044
 30
0.0
 10
5.822709966121241
 20
1.4477736386190152
 30
0.0
  0
SPLINE
  5
D8
330
17
100
AcDbEntity
  8
HIDDEN
100
AcDbSpline
 70
0
 71
1
 72
4
 73
2
 74
0
 40
0.0
 40
0.0
 40
1.0
 40
1.0
 10
5.822709450431519
 20
1.4477757126377475
 30
0.0
 10
5.820088664120982
 20
1.458275626435483
 30
0.0
  0
SPLINE
  5
D9
330
17
100
AcDbEntity
  8
HIDDEN
100
AcDbSpline
 70
0
 71
1
 72
4
 73
2
 74
0
 40
0.0
 40
0.0
 40
1.0
 40
1.0
 10
5.820087557639381
 20
1.4582800424807931
 30
0.0
 10
5.819407727428169
 20
1.4609906103625978
 30
0.0
  0
SPLINE
  5
DA
330
17
100
AcDbEntity
  8
HIDDEN
100
AcDbSpline
 70
0
 71
1
 72
4
 73
2
 74
0
 40
0.0
 40
0.0
 40
1.0
 40
1.0
 10
5.819406106919772
 20
1.4609970651459223
 30
0.0
 10
5.816761456036382
 20
1.4714910900900637
 30
0.0
  0
SPLINE
  5
DB
330
17
100
AcDbEntity
  8
HIDDEN
100
AcDbSpline
 70
0
 71
1
 72
4
 73
2
 74
0
 40
0.0
 40
0.0
 40
1.0
 40
1.0
 10
5.816758161347499
 20
1.471504113839353
 30
0.0
 10
5.813346723062546
 20
1.4849241551009746
 30
0.0
  0
SPLINE
  5
DC
330
17
100
AcDbEntity
  8
HIDDEN
100
AcDbSpline
 70
0
 71
1
 72
4
 73
2
 74
0
 40
0.0
 40
0.0
 40
1.0
 40
1.0
 10
5.8133445650697375
 20
1.484932603427303
 30
0.0
 10
5.812458601166153
 20
1.4883967481355076
 30
0.0
  0
SPLINE
  5
DD
330
17
100
AcDbEntity
  8
HIDDEN
100
AcDbSpline
 70
0
 71
1
 72
4
 73
2
 74
0
 40
0.0
 40
0.0
 40
1.0
 40
1.0
 10
5.812457216541976
 20
1.4884021553336022
 30
0.0
 10
5.8090067560862995
 20
1.501812366020764
 30
0.0
  0
SPLINE
  5
DE
330
17
100
AcDbEntity
  8
HIDDEN
100
AcDbSpline
 70
0
 71
1
 72
4
 73
2
 74
0
 40
0.0
 40
0.0
 40
1.0
 40
1.0
 10
5.809005986305538
 20
1.5018153435281865
 30
0.0
 10
5.804618354247053
 20
1.518685498456636
 30
0.0
  0
SPLINE
  5
DF
330
17
100
AcDbEntity
  8
HIDDEN
100
AcDbSpline
 70
0
 71
1
 72
4
 73
2
 74
0
 40
0.0
 40
0.0
 40
1.0
 40
1.0
 10
5.8046176831294325
 20
1.5186880635556474
 30
0.0
 10
5.80109728593499
 20
1.5320803394543954
 30
0.0
  0
SPLINE
  5
E0
330
17
100
AcDbEntity
  8
HIDDEN
100
AcDbSpline
 70
0
 71
1
 72
4
 73
2
 74
0
 40
0.0
 40
0.0
 40
1.0
 40
1.0
 10
5.801095783184834
 20
1.532086029484848
 30
0.0
 10
5.80018170789468
 20
1.5355429151833988
 30
0.0
  0
SPLINE
  5
E1
330
17
100
AcDbEntity
  8
HIDDEN
100
AcDbSpline
 70
0
 71
1
 72
4
 73
2
 74
0
 40
0.0
 40
0.0
 40
1.0
 40
1.0
 10
5.800179541495261
 20
1.5355510982671625
 30
0.0
 10
5.796620204889745
 20
1.5489332120509485
 30
0.0
  0
SPLINE
  5
E2
330
17
100
AcDbEntity
  8
HIDDEN
100
AcDbSpline
 70
0
 71
1
 72
4
 73
2
 74
0
 40
0.0
 40
0.0
 40
1.0
 40
1.0
 10
5.796615336043789
 20
1.5489514327702616
 30
0.0
 10
5.793811934699201
 20
1.5594047471712922
 30
0.0
  0
SPLINE
  5
E3
330
17
100
AcDbEntity
  8
HIDDEN
100
AcDbSpline
 70
0
 71
1
 72
4
 73
2
 74
0
 40
0.0
 40
0.0
 40
1.0
 40
1.0
 10
5.793810164257556
 20
1.5594113250558115
 30
0.0
 10
5.793083183682137
 20
1.5621098323839817
 30
0.0
  0
SPLINE
  5
E4
330
17
100
AcDbEntity
  8
HIDDEN
100
AcDbSpline
 70
0
 71
1
 72
4
 73
2
 74
0
 40
0.0
 40
0.0
 40
1.0
 40
1.0
 10
5.793082046872234
 20
1.5621140482372509
 30
0.0
 10
5.7902548893792005
 20
1.5725610394336043
 30
0.0
  0
SPLINE
  5
E5
330
17
100
AcDbEntity
  8
HIDDEN
100
AcDbSpline
 70
0
 71
1
 72
4
 73
2
 74
0
 40
0.0
 40
0.0
 40
1.0
 40
1.0
 10
5.790254260597434
 20
1.572563354640654
 30
0.0
 10
5.786668493662493
 20
1.585707305264717
 30
0.0
  0
SPLINE
  5
E6
330
17
100
AcDbEntity
  8
HIDDEN
100
AcDbSpline
 70
0
 71
1
 72
4
 73
2
 74
0
 40
0.0
 40
0.0
 40
1.0
 40
1.0
 10
5.786667945590828
 20
1.5857093053232383
 30
0.0
 10
5.78379820389824
 20
1.5961448103600722
 30
0.0
  0
SPLINE
  5
E7
330
17
100
AcDbEntity
  8
HIDDEN
100
AcDbSpline
 70
0
 71
1
 72
4
 73
2
 74
0
 40
0.0
 40
0.0
 40
1.0
 40
1.0
 10
5.783796978781092
 20
1.5961492496947103
 30
0.0
 10
5.78305288299336
 20
1.5988431045632283
 30
0.0
  0
SPLINE
  5
E8
330
17
100
AcDbEntity
  8
HIDDEN
100
AcDbSpline
 70
0
 71
1
 72
4
 73
2
 74
0
 40
0.0
 40
0.0
 40
1.0
 40
1.0
 10
5.783051122104533
 20
1.5988494737266923
 30
0.0
 10
5.780157660223756
 20
1.6092785182010367
 30
0.0
  0
SPLINE
  5
E9
330
17
100
AcDbEntity
  8
HIDDEN
100
AcDbSpline
 70
0
 71
1
 72
4
 73
2
 74
0
 40
0.0
 40
0.0
 40
1.0
 40
1.0
 10
5.7560081070111835
 20
1.693626477799747
 30
0.0
 10
5.7554729712375785
 20
1.695444146141043
 30
0.0
  0
SPLINE
  5
EA
330
17
100
AcDbEntity
  8
HIDDEN
100
AcDbSpline
 70
0
 71
1
 72
4
 73
2
 74
0
 40
0.0
 40
0.0
 40
1.0
 40
1.0
 10
5.755472592089649
 20
1.6954454332227378
 30
0.0
 10
5.75493726152689
 20
1.6972616451997615
 30
0.0
  0
SPLINE
  5
EB
330
17
100
AcDbEntity
  8
HIDDEN
100
AcDbSpline
 70
0
 71
1
 72
4
 73
2
 74
0
 40
0.0
 40
0.0
 40
1.0
 40
1.0
 10
5.754936501150348
 20
1.6972642234212318
 30
0.0
 10
5.754400977935773
 20
1.6990789747843755
 30
0.0
  0
SPLINE
  5
EC
330
17
100
AcDbEntity
  8
HIDDEN
100
AcDbSpline
 70
0
 71
1
 72
4
 73
2
 74
0
 40
0.0
 40
0.0
 40
1.0
 40
1.0
 10
5.7543998351275825
 20
1.6990828452163182
 30
0.0
 10
5.744172249613303
 20
1.7333450792260965
 30
0.0
  0
SPLINE
  5
ED
330
17
100
AcDbEntity
  8
HIDDEN
100
AcDbSpline
 70
0
 71
1
 72
4
 73
2
 74
0
 40
0.0
 40
0.0
 40
1.0
 40
1.0
 10
5.744171056607815
 20
1.733349032750224
 30
0.0
 10
5.743624175564683
 20
1.7351603176043753
 30
0.0
  0
SPLINE
  5
EE
330
17
100
AcDbEntity
  8
HIDDEN
100
AcDbSpline
 70
0
 71
1
 72
4
 73
2
 74
0
 40
0.0
 40
0.0
 40
1.0
 40
1.0
 10
5.743623378989488
 20
1.735162954378302
 30
0.0
 10
5.7430755275949625
 20
1.73697538361162
 30
0.0
  0
SPLINE
  5
EF
330
17
100
AcDbEntity
  8
HIDDEN
100
AcDbSpline
 70
0
 71
1
 72
4
 73
2
 74
0
 40
0.0
 40
0.0
 40
1.0
 40
1.0
 10
5.743075128687522
 20
1.736976702545093
 30
0.0
 10
5.7425263057599185
 20
1.7387902770601174
 30
0.0
  0
SPLINE
  5
F0
330
17
100
AcDbEntity
  8
HIDDEN
100
AcDbSpline
 70
0
 71
1
 72
4
 73
2
 74
0
 40
0.0
 40
0.0
 40
1.0
 40
1.0
 10
5.742522830922779
 20
1.7388017530128292
 30
0.0
 10
5.742086471944052
 20
1.7402422100005037
 30
0.0
  0
SPLINE
  5
F1
330
17
100
AcDbEntity
  8
HIDDEN
100
AcDbSpline
 70
0
 71
1
 72
4
 73
2
 74
0
 40
0.0
 40
0.0
 40
1.0
 40
1.0
 10
5.742086161419653
 20
1.7402432346036567
 30
0.0
 10
5.741649751724811
 20
1.7416825572037153
 30
0.0
  0
SPLINE
  5
F2
330
17
100
AcDbEntity
  8
HIDDEN
100
AcDbSpline
 70
0
 71
1
 72
4
 73
2
 74
0
 40
0.0
 40
0.0
 40
1.0
 40
1.0
 10
5.741649129905325
 20
1.7416846070996383
 30
0.0
 10
5.741212670294215
 20
1.7431227945270606
 30
0.0
  0
SPLINE
  5
F3
330
17
100
AcDbEntity
  8
HIDDEN
100
AcDbSpline
 70
0
 71
1
 72
4
 73
2
 74
0
 40
0.0
 40
0.0
 40
1.0
 40
1.0
 10
5.741211736407174
 20
1.7431258704089267
 30
0.0
 10
5.732896009697032
 20
1.770283412074741
 30
0.0
  0
SPLINE
  5
F4
330
17
100
AcDbEntity
  8
HIDDEN
100
AcDbSpline
 70
0
 71
1
 72
4
 73
2
 74
0
 40
0.0
 40
0.0
 40
1.0
 40
1.0
 10
5.7328950439913475
 20
1.7702865394190435
 30
0.0
 10
5.732451434161873
 20
1.7717224875255735
 30
0.0
  0
SPLINE
  5
F5
330
17
100
AcDbEntity
  8
HIDDEN
100
AcDbSpline
 70
0
 71
1
 72
4
 73
2
 74
0
 40
0.0
 40
0.0
 40
1.0
 40
1.0
 10
5.732450789569995
 20
1.7717245731173237
 30
0.0
 10
5.7320064972417875
 20
1.7731614518044645
 30
0.0
  0
SPLINE
  5
F6
330
17
100
AcDbEntity
  8
HIDDEN
100
AcDbSpline
 70
0
 71
1
 72
4
 73
2
 74
0
 40
0.0
 40
0.0
 40
1.0
 40
1.0
 10
5.732006174551457
 20
1.773162494948468
 30
0.0
 10
5.73156119896542
 20
1.7746003048174825
 30
0.0
  0
SPLINE
  5
F7
330
17
100
AcDbEntity
  8
HIDDEN
100
AcDbSpline
 70
0
 71
1
 72
4
 73
2
 74
0
 40
0.0
 40
0.0
 40
1.0
 40
1.0
 10
5.731557231701917
 20
1.774613118140519
 30
0.0
 10
5.73055071728691
 20
1.777860651922362
 30
0.0
  0
SPLINE
  5
F8
330
17
100
AcDbEntity
  8
HIDDEN
100
AcDbSpline
 70
0
 71
1
 72
4
 73
2
 74
0
 40
0.0
 40
0.0
 40
1.0
 40
1.0
 10
5.730550009802446
 20
1.7778629323448119
 30
0.0
 10
5.729542363435005
 20
1.7811076127914873
 30
0.0
  0
SPLINE
  5
F9
330
17
100
AcDbEntity
  8
HIDDEN
100
AcDbSpline
 70
0
 71
1
 72
4
 73
2
 74
0
 40
0.0
 40
0.0
 40
1.0
 40
1.0
 10
5.729540944521087
 20
1.7811121772081042
 30
0.0
 10
5.728532170489775
 20
1.784353999653949
 30
0.0
  0
SPLINE
  5
FA
330
17
100
AcDbEntity
  8
HIDDEN
100
AcDbSpline
 70
0
 71
1
 72
4
 73
2
 74
0
 40
0.0
 40
0.0
 40
1.0
 40
1.0
 10
5.72853003619316
 20
1.784360851636695
 30
0.0
 10
5.70912257233779
 20
1.8455133452612191
 30
0.0
  0
SPLINE
  5
FB
330
17
100
AcDbEntity
  8
HIDDEN
100
AcDbSpline
 70
0
 71
1
 72
4
 73
2
 74
0
 40
0.0
 40
0.0
 40
1.0
 40
1.0
 10
5.709120272204041
 20
1.845520460744355
 30
0.0
 10
5.708075137014797
 20
1.848750465881823
 30
0.0
  0
SPLINE
  5
FC
330
17
100
AcDbEntity
  8
HIDDEN
100
AcDbSpline
 70
0
 71
1
 72
4
 73
2
 74
0
 40
0.0
 40
0.0
 40
1.0
 40
1.0
 10
5.708073599492587
 20
1.8487552130237592
 30
0.0
 10
5.707025865814958
 20
1.851986993258203
 30
0.0
  0
SPLINE
  5
FD
330
17
100
AcDbEntity
  8
HIDDEN
100
AcDbSpline
 70
0
 71
1
 72
4
 73
2
 74
0
 40
0.0
 40
0.0
 40
1.0
 40
1.0
 10
5.707025095001763
 20
1.8519893685709046
 30
0.0
 10
5.705974759088688
 20
1.8552229263024036
 30
0.0
  0
SPLINE
  5
FE
330
17
100
AcDbEntity
  8
HIDDEN
100
AcDbSpline
 70
0
 71
1
 72
4
 73
2
 74
0
 40
0.0
 40
0.0
 40
1.0
 40
1.0
 10
5.7059673376694064
 20
1.8552457516713774
 30
0.0
 10
5.70584714710111
 20
1.8556153673961597
 30
0.0
  0
SPLINE
  5
FF
330
17
100
AcDbEntity
  8
HIDDEN
100
AcDbSpline
 70
0
 71
2
 72
6
 73
3
 74
0
 40
0.0
 40
0.0
 40
0.0
 40
1.0
 40
1.0
 40
1.0
 10
5.705847060957255
 20
1.855615632280627
 30
0.0
 10
5.575909170503776
 20
2.2550161037680123
 30
0.0
 10
5.391773041391555
 20
2.6322582342450045
 30
0.0
  0
SPLINE
  5
100
330
17
100
AcDbEntity
  8
HIDDEN
100
AcDbSpline
 70
0
 71
1
 72
4
 73
2
 74
0
 40
0.0
 40
0.0
 40
1.0
 40
1.0
 10
5.275097125751438
 20
2.8589071736329656
 30
0.0
 10
5.269504679733581
 20
2.8692020396332283
 30
0.0
  0
SPLINE
  5
101
330
17
100
AcDbEntity
  8
HIDDEN
100
AcDbSpline
 70
0
 71
3
 72
38
 73
34
 74
0
 40
0.0
 40
0.0
 40
0.0
 40
0.0
 40
0.08880776241449095
 40
0.08880776241449095
 40
0.08880776241449095
 40
0.17427514375625022
 40
0.17427514375625022
 40
0.17427514375625022
 40
0.2701597938848696
 40
0.2701597938848696
 40
0.2701597938848696
 40
0.42610817755738856
 40
0.42610817755738856
 40
0.42610817755738856
 40
0.4871556415604799
 40
0.4871556415604799
 40
0.4871556415604799
 40
0.5482031055635713
 40
0.5482031055635713
 40
0.5482031055635713
 40
0.6135121456114543
 40
0.6135121456114543
 40
0.6135121456114543
 40
0.6788211856593372
 40
0.6788211856593372
 40
0.6788211856593372
 40
0.8042772551348387
 40
0.8042772551348387
 40
0.8042772551348387
 40
0.9081861084643253
 40
0.9081861084643253
 40
0.9081861084643253
 40
1.0
 40
1.0
 40
1.0
 40
1.0
 10
5.190891818285233
 20
3.009093229515609
 30
0.0
 10
4.70398341200213
 20
3.8508420002975017
 30
0.0
 10
4.009178283385506
 20
4.569815714067063
 30
0.0
 10
3.184370882137933
 20
5.0852514279032555
 30
0.0
 10
2.3918827277787567
 20
5.582921728905295
 30
0.0
 10
1.4780652620149395
 20
5.89038338561882
 30
0.0
 10
0.550740416721469
 20
5.974670283236515
 30
0.0
 10
-0.49029019513302335
 20
6.072242743151944
 30
0.0
 10
-1.5374084850984688
 20
5.886976693703121
 30
0.0
 10
-2.4483180711793704
 20
5.47774941215245
 30
0.0
 10
-3.9351746312531164
 20
4.809390480329075
 30
0.0
 10
-5.065243866648264
 20
3.5944283807685986
 30
0.0
 10
-5.62764500555458
 20
2.0807718979879954
 30
0.0
 10
-5.847649756761834
 20
1.4871189797052995
 30
0.0
 10
-5.979095357873995
 20
0.8362507473904953
 30
0.0
 10
-5.997580394152891
 20
0.170380193713478
 30
0.0
 10
-6.017371847394088
 20
-0.49470753117642297
 30
0.0
 10
-5.921873248786613
 20
-1.175268836606492
 30
0.0
 10
-5.721360799949242
 20
-1.8072162562361402
 30
0.0
 10
-5.507807251556416
 20
-2.48339212006929
 30
0.0
 10
-5.182285452817544
 20
-3.096271546652201
 30
0.0
 10
-4.780686852357428
 20
-3.6256079732425417
 30
0.0
 10
-4.375414808646624
 20
-4.156239681999868
 30
0.0
 10
-3.904241792036814
 20
-4.60307142413718
 30
0.0
 10
-3.367167802528016
 20
-4.966103199654507
 30
0.0
 10
-2.344256316506139
 20
-5.6602502486973005
 30
0.0
 10
-1.087637523151417
 20
-6.0479750867464865
 30
0.0
 10
0.2424470545430537
 20
-5.995099617666364
 30
0.0
 10
1.3395111346198703
 20
-5.954467296394487
 30
0.0
 10
2.469073217017526
 20
-5.589963091494168
 30
0.0
 10
3.4066707612450435
 20
-4.939088410271487
 30
0.0
 10
4.237310046081148
 20
-4.367395228081785
 30
0.0
 10
4.914854002779706
 20
-3.5855655206728265
 30
0.0
 10
5.362193013128204
 20
-2.692004130988294
 30
0.0
  0
SPLINE
  5
102
330
17
100
AcDbEntity
  8
HIDDEN
100
AcDbSpline
 70
0
 71
2
 72
6
 73
3
 74
0
 40
0.0
 40
0.0
 40
0.0
 40
1.0
 40
1.0
 40
1.0
 10
5.428931283830512
 20
-2.554741723509201
 30
0.0
 10
5.546206432190567
 20
-2.3055135633826462
 30
0.0
 10
5.640180419371824
 20
-2.046549466284983
 30
0.0
  0
SPLINE
  5
103
330
17
100
AcDbEntity
  8
HIDDEN
100
AcDbSpline
 70
0
 71
1
 72
4
 73
2
 74
0
 40
0.0
 40
0.0
 40
1.0
 40
1.0
 10
5.640187840279799
 20
-2.046529014543248
 30
0.0
 10
5.643521787193128
 20
-2.037317283689534
 30
0.0
  0
SPLINE
  5
104
330
17
100
AcDbEntity
  8
HIDDEN
100
AcDbSpline
 70
0
 71
1
 72
4
 73
2
 74
0
 40
0.0
 40
0.0
 40
1.0
 40
1.0
 10
5.643526718715827
 20
-2.037303622948305
 30
0.0
 10
5.646848076427282
 20
-2.028079553370101
 30
0.0
  0
SPLINE
  5
105
330
17
100
AcDbEntity
  8
HIDDEN
100
AcDbSpline
 70
0
 71
1
 72
4
 73
2
 74
0
 40
0.0
 40
0.0
 40
1.0
 40
1.0
 10
5.646850537482937
 20
-2.0280727009587745
 30
0.0
 10
5.650159287939356
 20
-2.0188362712833046
 30
0.0
  0
SPLINE
  5
106
330
17
100
AcDbEntity
  8
HIDDEN
100
AcDbSpline
 70
0
 71
1
 72
4
 73
2
 74
0
 40
0.0
 40
0.0
 40
1.0
 40
1.0
 10
5.719022036031827
 20
-1.8146037565065674
 30
0.0
 10
5.719970028509405
 20
-1.8116132907208689
 30
0.0
  0
SPLINE
  5
107
330
17
100
AcDbEntity
  8
HIDDEN
100
AcDbSpline
 70
0
 71
1
 72
4
 73
2
 74
0
 40
0.0
 40
0.0
 40
1.0
 40
1.0
 10
5.719970708787577
 20
-1.8116111428159136
 30
0.0
 10
5.720916461399869
 20
-1.8086223166507194
 30
0.0
  0
SPLINE
  5
108
330
17
100
AcDbEntity
  8
HIDDEN
100
AcDbSpline
 70
0
 71
1
 72
4
 73
2
 74
0
 40
0.0
 40
0.0
 40
1.0
 40
1.0
 10
5.720917816386689
 20
-1.8086180306391455
 30
0.0
 10
5.721861334441697
 20
-1.805630835051398
 30
0.0
  0
SPLINE
  5
109
330
17
100
AcDbEntity
  8
HIDDEN
100
AcDbSpline
 70
0
 71
1
 72
4
 73
2
 74
0
 40
0.0
 40
0.0
 40
1.0
 40
1.0
 10
5.7236353757957605
 20
-1.7999994247067326
 30
0.0
 10
5.739400912065419
 20
-1.7490789081013212
 30
0.0
  0
SPLINE
  5
10A
330
17
100
AcDbEntity
  8
HIDDEN
100
AcDbSpline
 70
0
 71
1
 72
4
 73
2
 74
0
 40
0.0
 40
0.0
 40
1.0
 40
1.0
 10
5.739402892491716
 20
-1.7490724095479935
 30
0.0
 10
5.740315391396537
 20
-1.746075331822407
 30
0.0
  0
SPLINE
  5
10B
330
17
100
AcDbEntity
  8
HIDDEN
100
AcDbSpline
 70
0
 71
1
 72
4
 73
2
 74
0
 40
0.0
 40
0.0
 40
1.0
 40
1.0
 10
5.740316709718087
 20
-1.7460709977647952
 30
0.0
 10
5.741228303518394
 20
-1.743071262147446
 30
0.0
  0
SPLINE
  5
10C
330
17
100
AcDbEntity
  8
HIDDEN
100
AcDbSpline
 70
0
 71
1
 72
4
 73
2
 74
0
 40
0.0
 40
0.0
 40
1.0
 40
1.0
 10
5.741228961701269
 20
-1.7430690942611053
 30
0.0
 10
5.742139648185971
 20
-1.7400666997962628
 30
0.0
  0
SPLINE
  5
10D
330
17
100
AcDbEntity
  8
HIDDEN
100
AcDbSpline
 70
0
 71
2
 72
6
 73
3
 74
0
 40
0.0
 40
0.0
 40
0.0
 40
1.0
 40
1.0
 40
1.0
 10
5.742811952018237
 20
-1.7378465822655018
 30
0.0
 10
5.897319019451803
 20
-1.227140860698866
 30
0.0
 10
5.959510944761324
 20
-0.6958658222222939
 30
0.0
  0
SPLINE
  5
10E
330
17
100
AcDbEntity
  8
HIDDEN
100
AcDbSpline
 70
0
 71
1
 72
4
 73
2
 74
0
 40
0.0
 40
0.0
 40
1.0
 40
1.0
 10
5.95951172106778
 20
-0.6958591737677322
 30
0.0
 10
5.959872278069025
 20
-0.6927642957633862
 30
0.0
  0
SPLINE
  5
10F
330
17
100
AcDbEntity
  8
HIDDEN
100
AcDbSpline
 70
0
 71
1
 72
4
 73
2
 74
0
 40
0.0
 40
0.0
 40
1.0
 40
1.0
 10
5.959872793188968
 20
-0.6927598641535364
 30
0.0
 10
5.960232000434532
 20
-0.6896625540733594
 30
0.0
  0
SPLINE
  5
110
330
17
100
AcDbEntity
  8
HIDDEN
100
AcDbSpline
 70
0
 71
1
 72
4
 73
2
 74
0
 40
0.0
 40
0.0
 40
1.0
 40
1.0
 10
5.9602322567875206
 20
-0.6896603386032578
 30
0.0
 10
5.960590111724144
 20
-0.6865605979285156
 30
0.0
  0
SPLINE
  5
111
330
17
100
AcDbEntity
  8
HIDDEN
100
AcDbSpline
 70
0
 71
1
 72
4
 73
2
 74
0
 40
0.0
 40
0.0
 40
1.0
 40
1.0
 10
5.960591742752039
 20
-0.6865464374932574
 30
0.0
 10
5.960874861044595
 20
-0.6840839299955771
 30
0.0
  0
SPLINE
  5
112
330
17
100
AcDbEntity
  8
HIDDEN
100
AcDbSpline
 70
0
 71
1
 72
4
 73
2
 74
0
 40
0.0
 40
0.0
 40
1.0
 40
1.0
 10
5.960875065031077
 20
-0.6840821525231537
 30
0.0
 10
5.961156964065152
 20
-0.6816212876695347
 30
0.0
  0
SPLINE
  5
113
330
17
100
AcDbEntity
  8
HIDDEN
100
AcDbSpline
 70
0
 71
1
 72
4
 73
2
 74
0
 40
0.0
 40
0.0
 40
1.0
 40
1.0
 10
5.961157370488851
 20
-0.6816177332565869
 30
0.0
 10
5.961438051744389
 20
-0.6791585109222826
 30
0.0
  0
SPLINE
  5
114
330
17
100
AcDbEntity
  8
HIDDEN
100
AcDbSpline
 70
0
 71
1
 72
4
 73
2
 74
0
 40
0.0
 40
0.0
 40
1.0
 40
1.0
 10
5.9614386590646635
 20
-0.6791531800326374
 30
0.0
 10
5.966552483575887
 20
-0.6326542074469304
 30
0.0
  0
SPLINE
  5
115
330
17
100
AcDbEntity
  8
HIDDEN
100
AcDbSpline
 70
0
 71
1
 72
4
 73
2
 74
0
 40
0.0
 40
0.0
 40
1.0
 40
1.0
 10
5.966553044384137
 20
-0.6326489184465531
 30
0.0
 10
5.966813565665673
 20
-0.630187080060423
 30
0.0
  0
SPLINE
  5
116
330
17
100
AcDbEntity
  8
HIDDEN
100
AcDbSpline
 70
0
 71
1
 72
4
 73
2
 74
0
 40
0.0
 40
0.0
 40
1.0
 40
1.0
 10
5.966813937998884
 20
-0.6301835546776661
 30
0.0
 10
5.967073629464407
 20
-0.6277198273648844
 30
0.0
  0
SPLINE
  5
117
330
17
100
AcDbEntity
  8
HIDDEN
100
AcDbSpline
 70
0
 71
1
 72
4
 73
2
 74
0
 40
0.0
 40
0.0
 40
1.0
 40
1.0
 10
5.967073814859166
 20
-0.6277180650077322
 30
0.0
 10
5.967332674898934
 20
-0.6252524498459063
 30
0.0
  0
SPLINE
  5
118
330
17
100
AcDbEntity
  8
HIDDEN
100
AcDbSpline
 70
0
 71
1
 72
4
 73
2
 74
0
 40
0.0
 40
0.0
 40
1.0
 40
1.0
 10
5.967335214932824
 20
-0.6252282075819904
 30
0.0
 10
5.967401891595081
 20
-0.6245915005543079
 30
0.0
  0
SPLINE
  5
119
330
17
100
AcDbEntity
  8
HIDDEN
100
AcDbSpline
 70
0
 71
1
 72
4
 73
2
 74
0
 40
0.0
 40
0.0
 40
1.0
 40
1.0
 10
5.967401939534285
 20
-0.6245910425384638
 30
0.0
 10
5.9674685004494
 20
-0.6239547851933349
 30
0.0
  0
SPLINE
  5
11A
330
17
100
AcDbEntity
  8
HIDDEN
100
AcDbSpline
 70
0
 71
1
 72
4
 73
2
 74
0
 40
0.0
 40
0.0
 40
1.0
 40
1.0
 10
5.96746859622417
 20
-0.6239538692075438
 30
0.0
 10
5.9675350414946555
 20
-0.6233180615061203
 30
0.0
  0
SPLINE
  5
11B
330
17
100
AcDbEntity
  8
HIDDEN
100
AcDbSpline
 70
0
 71
1
 72
4
 73
2
 74
0
 40
0.0
 40
0.0
 40
1.0
 40
1.0
 10
5.967535185003862
 20
-0.6233166875723065
 30
0.0
 10
5.968778142874725
 20
-0.6112997203105742
 30
0.0
  0
SPLINE
  5
11C
330
17
100
AcDbEntity
  8
HIDDEN
100
AcDbSpline
 70
0
 71
1
 72
4
 73
2
 74
0
 40
0.0
 40
0.0
 40
1.0
 40
1.0
 10
5.968778283282445
 20
-0.6112983493561277
 30
0.0
 10
5.968843382882033
 20
-0.6106623756167604
 30
0.0
  0
SPLINE
  5
11D
330
17
100
AcDbEntity
  8
HIDDEN
100
AcDbSpline
 70
0
 71
1
 72
4
 73
2
 74
0
 40
0.0
 40
0.0
 40
1.0
 40
1.0
 10
5.968843476388558
 20
-0.610661461647577
 30
0.0
 10
5.968908554953852
 20
-0.6100250227865347
 30
0.0
  0
SPLINE
  5
11E
330
17
100
AcDbEntity
  8
HIDDEN
100
AcDbSpline
 70
0
 71
1
 72
4
 73
2
 74
0
 40
0.0
 40
0.0
 40
1.0
 40
1.0
 10
5.968908601662106
 20
-0.610024565760007
 30
0.0
 10
5.968973659101982
 20
-0.6093876617004754
 30
0.0
  0
SPLINE
  5
11F
330
17
100
AcDbEntity
  8
HIDDEN
100
AcDbSpline
 70
0
 71
1
 72
4
 73
2
 74
0
 40
0.0
 40
0.0
 40
1.0
 40
1.0
 10
5.969209188641376
 20
-0.6070762106772702
 30
0.0
 10
5.969228927529468
 20
-0.6068820922655143
 30
0.0
  0
SPLINE
  5
120
330
17
100
AcDbEntity
  8
HIDDEN
100
AcDbSpline
 70
0
 71
1
 72
4
 73
2
 74
0
 40
0.0
 40
0.0
 40
1.0
 40
1.0
 10
5.96922910874404
 20
-0.606880309854026
 30
0.0
 10
5.969479191263966
 20
-0.6044154582397075
 30
0.0
  0
SPLINE
  5
121
330
17
100
AcDbEntity
  8
HIDDEN
100
AcDbSpline
 70
0
 71
1
 72
4
 73
2
 74
0
 40
0.0
 40
0.0
 40
1.0
 40
1.0
 10
5.969479552125363
 20
-0.6044118941969925
 30
0.0
 10
5.96972843758187
 20
-0.6019487025951455
 30
0.0
  0
SPLINE
  5
122
330
17
100
AcDbEntity
  8
HIDDEN
100
AcDbSpline
 70
0
 71
1
 72
4
 73
2
 74
0
 40
0.0
 40
0.0
 40
1.0
 40
1.0
 10
5.969728976536663
 20
-0.6019433575708778
 30
0.0
 10
5.974241549524221
 20
-0.5553717048974324
 30
0.0
  0
SPLINE
  5
123
330
17
100
AcDbEntity
  8
HIDDEN
100
AcDbSpline
 70
0
 71
1
 72
4
 73
2
 74
0
 40
0.0
 40
0.0
 40
1.0
 40
1.0
 10
5.974242041411706
 20
-0.5553664135391725
 30
0.0
 10
5.9744707270219255
 20
-0.5529008526391599
 30
0.0
  0
SPLINE
  5
124
330
17
100
AcDbEntity
  8
HIDDEN
100
AcDbSpline
 70
0
 71
1
 72
4
 73
2
 74
0
 40
0.0
 40
0.0
 40
1.0
 40
1.0
 10
5.9744710533972345
 20
-0.5528973259177612
 30
0.0
 10
5.9746988842448445
 20
-0.5504298881247693
 30
0.0
  0
SPLINE
  5
125
330
17
100
AcDbEntity
  8
HIDDEN
100
AcDbSpline
 70
0
 71
1
 72
4
 73
2
 74
0
 40
0.0
 40
0.0
 40
1.0
 40
1.0
 10
5.974699046651764
 20
-0.5504281252578539
 30
0.0
 10
5.974926021114008
 20
-0.5479588119715008
 30
0.0
  0
SPLINE
  5
126
330
17
100
AcDbEntity
  8
HIDDEN
100
AcDbSpline
 70
0
 71
1
 72
4
 73
2
 74
0
 40
0.0
 40
0.0
 40
1.0
 40
1.0
 10
5.975133542798311
 20
-0.5456912694492266
 30
0.0
 10
5.975307116420211
 20
-0.543787347198954
 30
0.0
  0
SPLINE
  5
127
330
17
100
AcDbEntity
  8
HIDDEN
100
AcDbSpline
 70
0
 71
2
 72
6
 73
3
 74
0
 40
0.0
 40
0.0
 40
0.0
 40
1.0
 40
1.0
 40
1.0
 10
5.97530734897562
 20
-0.5437847917989979
 30
0.0
 10
5.9899669561530695
 20
-0.3827144411573632
 30
0.0
 10
5.9959312309991315
 20
-0.220926467090203
 30
0.0
  0
SPLINE
  5
128
330
17
100
AcDbEntity
  8
HIDDEN
100
AcDbSpline
 70
0
 71
1
 72
4
 73
2
 74
0
 40
0.0
 40
0.0
 40
1.0
 40
1.0
 10
5.996028189423596
 20
-0.21827914376448343
 30
0.0
 10
5.999951978256879
 20
-0.024005300563408424
 30
0.0
  0
SPLINE
  5
129
330
17
100
AcDbEntity
  8
HIDDEN
100
AcDbSpline
 70
0
 71
1
 72
4
 73
2
 74
0
 40
0.0
 40
0.0
 40
1.0
 40
1.0
 10
5.99996716226785
 20
-0.019850663088738812
 30
0.0
 10
5.999997720253391
 20
-0.005230367472981292
 30
0.0
  0
SPLINE
  5
12A
330
17
100
AcDbEntity
  8
HIDDEN
100
AcDbSpline
 70
0
 71
1
 72
4
 73
2
 74
0
 40
0.0
 40
0.0
 40
1.0
 40
1.0
 10
5.99999855960307
 20
-0.004157478536315664
 30
0.0
 10
5.999999999999999
 20
-5.329070518200751e-15
 30
0.0
  0
CIRCLE
  5
12B
330
17
100
AcDbEntity
  8
HIDDEN
100
AcDbCircle
 10
0.0
 20
7.771561172376096e-16
 30
0.0
 40
6.0
  0
CIRCLE
  5
12C
330
17
100
AcDbEntity
  8
HIDDEN
100
AcDbCircle
 10
0.0
 20
-7.771561172376096e-16
 30
0.0
 40
6.0
  0
LINE
  5
12D
330
17
100
AcDbEntity
  8
HIDDEN
100
AcDbLine
 10
9.318710459762134
 20
-134.0
 30
0.0
 11
-9.318710469036173
 21
-134.0
 31
0.0
  0
LINE
  5
12E
330
17
100
AcDbEntity
  8
HIDDEN
100
AcDbLine
 10
13.6
 20
-113.40469691565423
 30
0.0
 11
13.6
 21
0.0
 31
0.0
  0
ARC
  5
12F
330
17
100
AcDbEntity
  8
HIDDEN
100
AcDbCircle
 10
0.0
 20
0.0
 30
0.0
 40
13.6
100
AcDbArc
 50
0.0
 51
148.3761512793739
  0
ARC
  5
130
330
17
100
AcDbEntity
  8
HIDDEN
100
AcDbCircle
 10
0.0
 20
0.0
 30
0.0
 40
13.6
100
AcDbArc
 50
0.0
 51
148.37615127937383
  0
LINE
  5
131
330
17
100
AcDbEntity
  8
HIDDEN
100
AcDbLine
 10
-9.318710469036159
 20
-134.0
 30
0.0
 11
9.318710459762162
 21
-134.0
 31
0.0
  0
LINE
  5
132
330
17
100
AcDbEntity
  8
HIDDEN
100
AcDbLine
 10
13.6
 20
-113.40469691565438
 30
0.0
 11
13.6
 21
0.0
 31
0.0
  0
ENDSEC
  0
SECTION
  2
OBJECTS
  0
DICTIONARY
  5
A
330
0
100
AcDbDictionary
281
1
  3
ACAD_COLOR
350
B
  3
ACAD_GROUP
350
C
  3
ACAD_LAYOUT
350
D
  3
ACAD_MATERIAL
350
E
  3
ACAD_MLEADERSTYLE
350
F
  3
ACAD_MLINESTYLE
350
10
  3
ACAD_PLOTSETTINGS
350
11
  3
ACAD_PLOTSTYLENAME
350
12
  3
ACAD_SCALELIST
350
14
  3
ACAD_TABLESTYLE
350
15
  3
ACAD_VISUALSTYLE
350
16
  3
EZDXF_META
350
2D
  0
DICTIONARY
  5
B
330
A
100
AcDbDictionary
281
1
  0
DICTIONARY
  5
C
330
A
100
AcDbDictionary
281
1
  0
DICTIONARY
  5
D
330
A
100
AcDbDictionary
281
1
  3
Model
350
1A
  3
Layout1
350
1E
  0
DICTIONARY
  5
E
330
A
100
AcDbDictionary
281
1
  3
ByBlock
350
1F
  3
ByLayer
350
20
  3
Global
350
21
  0
DICTIONARY
  5
F
330
A
100
AcDbDictionary
281
1
  3
Standard
350
2C
  0
DICTIONARY
  5
10
330
A
100
AcDbDictionary
281
1
  3
Standard
350
22
  0
DICTIONARY
  5
11
330
A
100
AcDbDictionary
281
1
  0
ACDBDICTIONARYWDFLT
  5
12
330
A
100
AcDbDictionary
281
1
  3
Normal
350
13
100
AcDbDictionaryWithDefault
340
13
  0
ACDBPLACEHOLDER
  5
13
330
12
  0
DICTIONARY
  5
14
330
A
100
AcDbDictionary
281
1
  0
DICTIONARY
  5
15
330
A
100
AcDbDictionary
281
1
  0
DICTIONARY
  5
16
330
A
100
AcDbDictionary
281
1
  0
LAYOUT
  5
1A
330
D
100
AcDbPlotSettings
  1

  4
A3
  6

 40
7.5
 41
20.0
 42
7.5
 43
20.0
 44
420.0
 45
297.0
 46
0.0
 47
0.0
 48
0.0
 49
0.0
140
0.0
141
0.0
142
1.0
143
1.0
 70
1024
 72
1
 73
0
 74
5
  7

 75
16
 76
0
 77
2
 78
300
147
1.0
148
0.0
149
0.0
100
AcDbLayout
  1
Model
 70
1
 71
0
 10
0.0
 20
0.0
 11
420.0
 21
297.0
 12
0.0
 22
0.0
 32
0.0
 14
1e+20
 24
1e+20
 34
1e+20
 15
-1e+20
 25
-1e+20
 35
-1e+20
146
0.0
 13
0.0
 23
0.0
 33
0.0
 16
1.0
 26
0.0
 36
0.0
 17
0.0
 27
1.0
 37
0.0
 76
1
330
17
  0
LAYOUT
  5
1E
330
D
100
AcDbPlotSettings
  1

  4
A3
  6

 40
7.5
 41
20.0
 42
7.5
 43
20.0
 44
420.0
 45
297.0
 46
0.0
 47
0.0
 48
0.0
 49
0.0
140
0.0
141
0.0
142
1.0
143
1.0
 70
0
 72
1
 73
0
 74
5
  7

 75
16
 76
0
 77
2
 78
300
147
1.0
148
0.0
149
0.0
100
AcDbLayout
  1
Layout1
 70
1
 71
1
 10
0.0
 20
0.0
 11
420.0
 21
297.0
 12
0.0
 22
0.0
 32
0.0
 14
1e+20
 24
1e+20
 34
1e+20
 15
-1e+20
 25
-1e+20
 35
-1e+20
146
0.0
 13
0.0
 23
0.0
 33
0.0
 16
1.0
 26
0.0
 36
0.0
 17
0.0
 27
1.0
 37
0.0
 76
1
330
1B
  0
MATERIAL
  5
1F
102
{ACAD_REACTORS
330
E
102
}
330
E
100
AcDbMaterial
  1
ByBlock
  2

 70
0
 40
1.0
 71
1
 41
1.0
 91
-1023410177
 42
1.0
 72
1
  3

 73
1
 74
1
 75
1
 44
0.5
 73
0
 45
1.0
 46
1.0
 77
1
  4

 78
1
 79
1
170
1
 48
1.0
171
1
  6

172
1
173
1
174
1
140
1.0
141
1.0
175
1
  7

176
1
177
1
178
1
143
1.0
179
1
  8

270
1
271
1
272
1
145
1.0
146
1.0
273
1
  9

274
1
275
1
276
1
 42
1.0
 72
1
  3

 73
1
 74
1
 75
1
 94
63
  0
MATERIAL
  5
20
102
{ACAD_REACTORS
330
E
102
}
330
E
100
AcDbMaterial
  1
ByLayer
  2

 70
0
 40
1.0
 71
1
 41
1.0
 91
-1023410177
 42
1.0
 72
1
  3

 73
1
 74
1
 75
1
 44
0.5
 73
0
 45
1.0
 46
1.0
 77
1
  4

 78
1
 79
1
170
1
 48
1.0
171
1
  6

172
1
173
1
174
1
140
1.0
141
1.0
175
1
  7

176
1
177
1
178
1
143
1.0
179
1
  8

270
1
271
1
272
1
145
1.0
146
1.0
273
1
  9

274
1
275
1
276
1
 42
1.0
 72
1
  3

 73
1
 74
1
 75
1
 94
63
  0
MATERIAL
  5
21
102
{ACAD_REACTORS
330
E
102
}
330
E
100
AcDbMaterial
  1
Global
  2

 70
0
 40
1.0
 71
1
 41
1.0
 91
-1023410177
 42
1.0
 72
1
  3

 73
1
 74
1
 75
1
 44
0.5
 73
0
 45
1.0
 46
1.0
 77
1
  4

 78
1
 79
1
170
1
 48
1.0
171
1
  6

172
1
173
1
174
1
140
1.0
141
1.0
175
1
  7

176
1
177
1
178
1
143
1.0
179
1
  8

270
1
271
1
272
1
145
1.0
146
1.0
273
1
  9

274
1
275
1
276
1
 42
1.0
 72
1
  3

 73
1
 74
1
 75
1
 94
63
  0
MLINESTYLE
  5
22
102
{ACAD_REACTORS
330
10
102
}
330
10
100
AcDbMlineStyle
  2
Standard
 70
0
  3

 62
256
 51
90.0
 52
90.0
 71
2
 49
0.5
 62
256
  6
BYLAYER
 49
-0.5
 62
256
  6
BYLAYER
  0
MLEADERSTYLE
  5
2C
102
{ACAD_REACTORS
330
F
102
}
330
F
100
AcDbMLeaderStyle
179
2
170
2
171
1
172
0
 90
2
 40
0.0
 41
0.0
173
1
 91
-1056964608
 92
-2
290
1
 42
2.0
291
1
 43
8.0
  3
Standard
 44
4.0
300

342
29
174
1
175
1
176
0
178
1
 93
-1056964608
 45
4.0
292
0
297
0
 46
4.0
 94
-1056964608
 47
1.0
 49
1.0
140
1.0
294
1
141
0.0
177
0
142
1.0
295
0
296
0
143
3.75
271
0
272
9
273
9
  0
DICTIONARY
  5
2D
330
A
100
AcDbDictionary
280
1
281
1
  3
CREATED_BY_EZDXF
350
2E
  3
WRITTEN_BY_EZDXF
350
136
  0
DICTIONARYVAR
  5
2E
330
2D
100
DictionaryVariables
280
0
  1
1.4.4 @ 2026-10-08T06:26:15.116818+00:00
  0
DICTIONARYVAR
  5
136
330
2D
100
DictionaryVariables
280
0
  1
1.4.4 @ 2026-10-08T06:26:16.714859+00:00
  0
ENDSEC
  0
EOF
