  0
SECTION
  2
HEADER
  9
$ACADVER
  1
AC1027
  9
$ACADMAINTVER
 70
105
  9
$DWGCODEPAGE
  3
ANSI_1252
  9
$LASTSAVEDBY
  1
ezdxf
  9
$REQUIREDVERSIONS
160
0
  9
$INSBASE
 10
0.0
 20
0.0
 30
0.0
  9
$EXTMIN
 10
1e+20
 20
1e+20
 30
1e+20
  9
$EXTMAX
 10
-1e+20
 20
-1e+20
 30
-1e+20
  9
$LIMMIN
 10
0.0
 20
0.0
  9
$LIMMAX
 10
420.0
 20
297.0
  9
$ORTHOMODE
 70
0
  9
$REGENMODE
 70
1
  9
$FILLMODE
 70
1
  9
$QTEXTMODE
 70
0
  9
$MIRRTEXT
 70
1
  9
$LTSCALE
 40
1.0
  9
$ATTMODE
 70
1
  9
$TEXTSIZE
 40
2.5
  9
$TRACEWID
 40
1.0
  9
$TEXTSTYLE
  7
Standard
  9
$CLAYER
  8
0
  9
$CELTYPE
  6
ByLayer
  9
$CECOLOR
 62
256
  9
$CELTSCALE
 40
1.0
  9
$DISPSILH
 70
0
  9
$DIMSCALE
 40
1.0
  9
$DIMASZ
 40
2.5
  9
$DIMEXO
 40
0.625
  9
$DIMDLI
 40
3.75
  9
$DIMRND
 40
0.0
  9
$DIMDLE
 40
0.0
  9
$DIMEXE
 40
1.25
  9
$DIMTP
 40
0.0
  9
$DIMTM
 40
0.0
  9
$DIMTXT
 40
2.5
  9
$DIMCEN
 40
2.5
  9
$DIMTSZ
 40
0.0
  9
$DIMTOL
 70
0
  9
$DIMLIM
 70
0
  9
$DIMTIH
 70
0
  9
$DIMTOH
 70
0
  9
$DIMSE1
 70
0
  9
$DIMSE2
 70
0
  9
$DIMTAD
 70
1
  9
$DIMZIN
 70
8
  9
$DIMBLK
  1

  9
$DIMASO
 70
1
  9
$DIMSHO
 70
1
  9
$DIMPOST
  1

  9
$DIMAPOST
  1

  9
$DIMALT
 70
0
  9
$DIMALTD
 70
3
  9
$DIMALTF
 40
0.03937007874
  9
$DIMLFAC
 40
1.0
  9
$DIMTOFL
 70
1
  9
$DIMTVP
 40
0.0
  9
$DIMTIX
 70
0
  9
$DIMSOXD
 70
0
  9
$DIMSAH
 70
0
  9
$DIMBLK1
  1

  9
$DIMBLK2
  1

  9
$DIMSTYLE
  2
ISO-25
  9
$DIMCLRD
 70
0
  9
$DIMCLRE
 70
0
  9
$DIMCLRT
 70
0
  9
$DIMTFAC
 40
1.0
  9
$DIMGAP
 40
0.625
  9
$DIMJUST
 70
0
  9
$DIMSD1
 70
0
  9
$DIMSD2
 70
0
  9
$DIMTOLJ
 70
0
  9
$DIMTZIN
 70
8
  9
$DIMALTZ
 70
0
  9
$DIMALTTZ
 70
0
  9
$DIMUPT
 70
0
  9
$DIMDEC
 70
2
  9
$DIMTDEC
 70
2
  9
$DIMALTU
 70
2
  9
$DIMALTTD
 70
3
  9
$DIMTXSTY
  7
Standard
  9
$DIMAUNIT
 70
0
  9
$DIMADEC
 70
0
  9
$DIMALTRND
 40
0.0
  9
$DIMAZIN
 70
0
  9
$DIMDSEP
 70
44
  9
$DIMATFIT
 70
3
  9
$DIMFRAC
 70
0
  9
$DIMLDRBLK
  1

  9
$DIMLUNIT
 70
2
  9
$DIMLWD
 70
-2
  9
$DIMLWE
 70
-2
  9
$DIMTMOVE
 70
0
  9
$DIMFXL
 40
1.0
  9
$DIMFXLON
 70
0
  9
$DIMJOGANG
 40
0.785398163397
  9
$DIMTFILL
 70
0
  9
$DIMTFILLCLR
 70
0
  9
$DIMARCSYM
 70
0
  9
$DIMLTYPE
  6

  9
$DIMLTEX1
  6

  9
$DIMLTEX2
  6

  9
$DIMTXTDIRECTION
 70
0
  9
$LUNITS
 70
2
  9
$LUPREC
 70
4
  9
$SKETCHINC
 40
1.0
  9
$FILLETRAD
 40
10.0
  9
$AUNITS
 70
0
  9
$AUPREC
 70
2
  9
$MENU
  1
.
  9
$ELEVATION
 40
0.0
  9
$PELEVATION
 40
0.0
  9
$THICKNESS
 40
0.0
  9
$LIMCHECK
 70
0
  9
$CHAMFERA
 40
0.0
  9
$CHAMFERB
 40
0.0
  9
$CHAMFERC
 40
0.0
  9
$CHAMFERD
 40
0.0
  9
$SKPOLY
 70
0
  9
$TDCREATE
 40
2461321.6977083334
  9
$TDUCREATE
 40
2458532.153996898
  9
$TDUPDATE
 40
2461321.6977199074
  9
$TDUUPDATE
 40
2458532.1544311
  9
$TDINDWG
 40
0.0
  9
$TDUSRTIMER
 40
0.0
  9
$USRTIMER
 70
1
  9
$ANGBASE
 50
0.0
  9
$ANGDIR
 70
0
  9
$PDMODE
 70
0
  9
$PDSIZE
 40
0.0
  9
$PLINEWID
 40
0.0
  9
$SPLFRAME
 70
0
  9
$SPLINETYPE
 70
6
  9
$SPLINESEGS
 70
8
  9
$HANDSEED
  5
4C
  9
$SURFTAB1
 70
6
  9
$SURFTAB2
 70
6
  9
$SURFTYPE
 70
6
  9
$SURFU
 70
6
  9
$SURFV
 70
6
  9
$UCSBASE
  2

  9
$UCSNAME
  2

  9
$UCSORG
 10
0.0
 20
0.0
 30
0.0
  9
$UCSXDIR
 10
1.0
 20
0.0
 30
0.0
  9
$UCSYDIR
 10
0.0
 20
1.0
 30
0.0
  9
$UCSORTHOREF
  2

  9
$UCSORTHOVIEW
 70
0
  9
$UCSORGTOP
 10
0.0
 20
0.0
 30
0.0
  9
$UCSORGBOTTOM
 10
0.0
 20
0.0
 30
0.0
  9
$UCSORGLEFT
 10
0.0
 20
0.0
 30
0.0
  9
$UCSORGRIGHT
 10
0.0
 20
0.0
 30
0.0
  9
$UCSORGFRONT
 10
0.0
 20
0.0
 30
0.0
  9
$UCSORGBACK
 10
0.0
 20
0.0
 30
0.0
  9
$PUCSBASE
  2

  9
$PUCSNAME
  2

  9
$PUCSORG
 10
0.0
 20
0.0
 30
0.0
  9
$PUCSXDIR
 10
1.0
 20
0.0
 30
0.0
  9
$PUCSYDIR
 10
0.0
 20
1.0
 30
0.0
  9
$PUCSORTHOREF
  2

  9
$PUCSORTHOVIEW
 70
0
  9
$PUCSORGTOP
 10
0.0
 20
0.0
 30
0.0
  9
$PUCSORGBOTTOM
 10
0.0
 20
0.0
 30
0.0
  9
$PUCSORGLEFT
 10
0.0
 20
0.0
 30
0.0
  9
$PUCSORGRIGHT
 10
0.0
 20
0.0
 30
0.0
  9
$PUCSORGFRONT
 10
0.0
 20
0.0
 30
0.0
  9
$PUCSORGBACK
 10
0.0
 20
0.0
 30
0.0
  9
$USERI1
 70
0
  9
$USERI2
 70
0
  9
$USERI3
 70
0
  9
$USERI4
 70
0
  9
$USERI5
 70
0
  9
$USERR1
 40
0.0
  9
$USERR2
 40
0.0
  9
$USERR3
 40
0.0
  9
$USERR4
 40
0.0
  9
$USERR5
 40
0.0
  9
$WORLDVIEW
 70
1
  9
$SHADEDGE
 70
3
  9
$SHADEDIF
 70
70
  9
$TILEMODE
 70
1
  9
$MAXACTVP
 70
64
  9
$PINSBASE
 10
0.0
 20
0.0
 30
0.0
  9
$PLIMCHECK
 70
0
  9
$PEXTMIN
 10
1e+20
 20
1e+20
 30
1e+20
  9
$PEXTMAX
 10
-1e+20
 20
-1e+20
 30
-1e+20
  9
$PLIMMIN
 10
0.0
 20
0.0
  9
$PLIMMAX
 10
420.0
 20
297.0
  9
$UNITMODE
 70
0
  9
$VISRETAIN
 70
1
  9
$PLINEGEN
 70
0
  9
$PSLTSCALE
 70
1
  9
$TREEDEPTH
 70
3020
  9
$CMLSTYLE
  2
Standard
  9
$CMLJUST
 70
0
  9
$CMLSCALE
 40
20.0
  9
$PROXYGRAPHICS
 70
1
  9
$MEASUREMENT
 70
1
  9
$CELWEIGHT
370
-1
  9
$ENDCAPS
280
0
  9
$JOINSTYLE
280
0
  9
$LWDISPLAY
290
0
  9
$INSUNITS
 70
4
  9
$HYPERLINKBASE
  1

  9
$STYLESHEET
  1

  9
$XEDIT
290
1
  9
$CEPSNTYPE
380
0
  9
$PSTYLEMODE
290
1
  9
$FINGERPRINTGUID
  2
{C13DF092-9074-42B9-8451-AE68C90E1F9C}
  9
$VERSIONGUID
  2
{564F4262-29F8-4FE6-AD42-A69D3C2F9242}
  9
$EXTNAMES
290
1
  9
$PSVPSCALE
 40
0.0
  9
$OLESTARTUP
290
0
  9
$SORTENTS
280
127
  9
$INDEXCTL
280
0
  9
$HIDETEXT
280
1
  9
$XCLIPFRAME
280
1
  9
$HALOGAP
280
0
  9
$OBSCOLOR
 70
257
  9
$OBSLTYPE
280
0
  9
$INTERSECTIONDISPLAY
280
0
  9
$INTERSECTIONCOLOR
 70
257
  9
$DIMASSOC
280
2
  9
$PROJECTNAME
  1

  9
$CAMERADISPLAY
290
0
  9
$LENSLENGTH
 40
50.0
  9
$CAMERAHEIGHT
 40
0.0
  9
$STEPSPERSEC
 40
24.0
  9
$STEPSIZE
 40
100.0
  9
$3DDWFPREC
 40
2.0
  9
$PSOLWIDTH
 40
0.005
  9
$PSOLHEIGHT
 40
0.08
  9
$LOFTANG1
 40
1.570796326795
  9
$LOFTANG2
 40
1.570796326795
  9
$LOFTMAG1
 40
0.0
  9
$LOFTMAG2
 40
0.0
  9
$LOFTPARAM
 70
7
  9
$LOFTNORMALS
280
1
  9
$LATITUDE
 40
37.795
  9
$LONGITUDE
 40
-122.394
  9
$NORTHDIRECTION
 40
0.0
  9
$TIMEZONE
 70
-8000
  9
$LIGHTGLYPHDISPLAY
280
1
  9
$TILEMODELIGHTSYNCH
280
1
  9
$CMATERIAL
347
20
  9
$SOLIDHIST
280
0
  9
$SHOWHIST
280
1
  9
$DWFFRAME
280
2
  9
$DGNFRAME
280
2
  9
$REALWORLDSCALE
290
1
  9
$INTERFERECOLOR
 62
256
  9
$CSHADOW
280
0
  9
$SHADOWPLANELOCATION
 40
0.0
  0
ENDSEC
  0
SECTION
  2
CLASSES
  0
CLASS
  1
ACDBDICTIONARYWDFLT
  2
AcDbDictionaryWithDefault
  3
ObjectDBX Classes
 90
0
 91
0
280
0
281
0
  0
CLASS
  1
SUN
  2
AcDbSun
  3
SCENEOE
 90
1153
 91
0
280
0
281
0
  0
CLASS
  1
VISUALSTYLE
  2
AcDbVisualStyle
  3
ObjectDBX Classes
 90
4095
 91
0
280
0
281
0
  0
CLASS
  1
MATERIAL
  2
AcDbMaterial
  3
ObjectDBX Classes
 90
1153
 91
0
280
0
281
0
  0
CLASS
  1
SCALE
  2
AcDbScale
  3
ObjectDBX Classes
 90
1153
 91
0
280
0
281
0
  0
CLASS
  1
TABLESTYLE
  2
AcDbTableStyle
  3
ObjectDBX Classes
 90
4095
 91
0
280
0
281
0
  0
CLASS
  1
MLEADERSTYLE
  2
AcDbMLeaderStyle
  3
ACDB_MLEADERSTYLE_CLASS
 90
4095
 91
0
280
0
281
0
  0
CLASS
  1
DICTIONARYVAR
  2
AcDbDictionaryVar
  3
ObjectDBX Classes
 90
0
 91
0
280
0
281
0
  0
CLASS
  1
CELLSTYLEMAP
  2
AcDbCellStyleMap
  3
ObjectDBX Classes
 90
1152
 91
0
280
0
281
0
  0
CLASS
  1
MENTALRAYRENDERSETTINGS
  2
AcDbMentalRayRenderSettings
  3
SCENEOE
 90
1024
 91
0
280
0
281
0
  0
CLASS
  1
ACDBDETAILVIEWSTYLE
  2
AcDbDetailViewStyle
  3
ObjectDBX Classes
 90
1025
 91
0
280
0
281
0
  0
CLASS
  1
ACDBSECTIONVIEWSTYLE
  2
AcDbSectionViewStyle
  3
ObjectDBX Classes
 90
1025
 91
0
280
0
281
0
  0
CLASS
  1
RASTERVARIABLES
  2
AcDbRasterVariables
  3
ISM
 90
0
 91
0
280
0
281
0
  0
CLASS
  1
ACDBPLACEHOLDER
  2
AcDbPlaceHolder
  3
ObjectDBX Classes
 90
0
 91
0
280
0
281
0
  0
CLASS
  1
LAYOUT
  2
AcDbLayout
  3
ObjectDBX Classes
 90
0
 91
0
280
0
281
0
  0
ENDSEC
  0
SECTION
  2
TABLES
  0
TABLE
  2
VPORT
  5
8
330
0
100
AcDbSymbolTable
 70
1
  0
VPORT
  5
48
330
8
100
AcDbSymbolTableRecord
100
AcDbViewportTableRecord
  2
*Active
 70
0
 10
0.0
 20
0.0
 11
1.0
 21
1.0
 12
-0.06118687775324361
 22
-13.000000000000007
 13
0.0
 23
0.0
 14
0.5
 24
0.5
 15
0.5
 25
0.5
 16
0.0
 26
0.0
 36
1.0
 17
0.0
 27
0.0
 37
0.0
 40
40.00000000000003
 41
1.34
 42
50.0
 43
0.0
 44
0.0
 50
0.0
 51
0.0
 71
0
 72
1000
 73
1
 74
3
 75
0
 76
0
 77
0
 78
0
281
0
 65
1
110
0.0
120
0.0
130
0.0
111
1.0
121
0.0
131
0.0
112
0.0
122
1.0
132
0.0
 79
0
146
0.0
  0
ENDTAB
  0
TABLE
  2
LTYPE
  5
2
330
0
100
AcDbSymbolTable
 70
4
  0
LTYPE
  5
24
330
2
100
AcDbSymbolTableRecord
100
AcDbLinetypeTableRecord
  2
ByBlock
 70
0
  3

 72
65
 73
0
 40
0.0
  0
LTYPE
  5
25
330
2
100
AcDbSymbolTableRecord
100
AcDbLinetypeTableRecord
  2
ByLayer
 70
0
  3

 72
65
 73
0
 40
0.0
  0
LTYPE
  5
26
330
2
100
AcDbSymbolTableRecord
100
AcDbLinetypeTableRecord
  2
Continuous
 70
0
  3

 72
65
 73
0
 40
0.0
  0
LTYPE
  5
30
330
2
100
AcDbSymbolTableRecord
100
AcDbLinetypeTableRecord
  2
ACAD_ISO02W100
 70
0
  3
ISO dash __ __ __ __ __ __ __ __ __ __ __ __ __
 72
65
 73
2
 40
15.0
 49
12.0
 74
0
 49
-3.0
 74
0
  0
ENDTAB
  0
TABLE
  2
LAYER
  5
1
330
0
100
AcDbSymbolTable
 70
4
  0
LAYER
  5
27
330
1
100
AcDbSymbolTableRecord
100
AcDbLayerTableRecord
  2
0
 70
0
 62
7
  6
Continuous
370
-3
390
13
347
21
  0
LAYER
  5
28
330
1
100
AcDbSymbolTableRecord
100
AcDbLayerTableRecord
  2
Defpoints
 70
0
 62
7
  6
Continuous
290
0
370
-3
390
13
347
21
  0
LAYER
  5
2F
330
1
100
AcDbSymbolTableRecord
100
AcDbLayerTableRecord
  2
VISIBLE
 70
0
 62
7
  6
Continuous
370
25
390
13
347
21
  0
LAYER
  5
31
330
1
100
AcDbSymbolTableRecord
100
AcDbLayerTableRecord
  2
HIDDEN
 70
0
 62
7
  6
ACAD_ISO02W100
370
13
390
13
347
21
  0
ENDTAB
  0
TABLE
  2
STYLE
  5
5
330
0
100
AcDbSymbolTable
 70
1
  0
STYLE
  5
29
330
5
100
AcDbSymbolTableRecord
100
AcDbTextStyleTableRecord
  2
Standard
 70
0
 40
0.0
 41
1.0
 50
0.0
 71
0
 42
2.5
  3
txt
  4

  0
ENDTAB
  0
TABLE
  2
VIEW
  5
7
330
0
100
AcDbSymbolTable
 70
0
  0
ENDTAB
  0
TABLE
  2
UCS
  5
6
330
0
100
AcDbSymbolTable
 70
0
  0
ENDTAB
  0
TABLE
  2
APPID
  5
3
330
0
100
AcDbSymbolTable
 70
3
  0
APPID
  5
2A
330
3
100
AcDbSymbolTableRecord
100
AcDbRegAppTableRecord
  2
ACAD
 70
0
  0
APPID
  5
49
330
3
100
AcDbSymbolTableRecord
100
AcDbRegAppTableRecord
  2
HATCHBACKGROUNDCOLOR
 70
0
  0
APPID
  5
4A
330
3
100
AcDbSymbolTableRecord
100
AcDbRegAppTableRecord
  2
EZDXF
 70
0
  0
ENDTAB
  0
TABLE
  2
DIMSTYLE
  5
4
330
0
100
AcDbSymbolTable
 70
1
100
AcDbDimStyleTable
  0
DIMSTYLE
105
2B
330
4
100
AcDbSymbolTableRecord
100
AcDbDimStyleTableRecord
  2
Standard
 70
0
 40
1.0
 41
2.5
 42
0.625
 43
3.75
 44
1.25
 45
0.0
 46
0.0
 47
0.0
 48
0.0
 49
2.5
140
2.5
141
2.5
142
0.0
143
0.03937007874
144
1.0
145
0.0
146
1.0
147
0.625
148
0.0
 69
0
 70
0
 71
0
 72
0
 73
0
 74
0
 75
0
 76
0
 77
1
 78
8
 79
3
170
0
171
3
172
1
173
0
174
0
175
0
176
0
177
0
178
0
179
2
271
2
272
2
273
2
274
3
275
0
276
0
277
2
278
44
279
0
280
0
281
0
282
0
283
0
284
8
285
0
286
0
288
0
289
3
290
0
371
-2
372
-2
  0
ENDTAB
  0
TABLE
  2
BLOCK_RECORD
  5
9
330
0
100
AcDbSymbolTable
 70
2
  0
BLOCK_RECORD
  5
17
330
9
100
AcDbSymbolTableRecord
100
AcDbBlockTableRecord
  2
*Model_Space
340
1A
 70
0
280
1
281
0
  0
BLOCK_RECORD
  5
1B
330
9
100
AcDbSymbolTableRecord
100
AcDbBlockTableRecord
  2
*Paper_Space
340
1E
 70
0
280
1
281
0
  0
ENDTAB
  0
ENDSEC
  0
SECTION
  2
BLOCKS
  0
BLOCK
  5
18
330
17
100
AcDbEntity
  8
0
100
AcDbBlockBegin
  2
*Model_Space
 70
0
 10
0.0
 20
0.0
 30
0.0
  3
*Model_Space
  1

  0
ENDBLK
  5
19
330
17
100
AcDbEntity
  8
0
100
AcDbBlockEnd
  0
BLOCK
  5
1C
330
1B
100
AcDbEntity
  8
0
100
AcDbBlockBegin
  2
*Paper_Space
 70
0
 10
0.0
 20
0.0
 30
0.0
  3
*Paper_Space
  1

  0
ENDBLK
  5
1D
330
1B
100
AcDbEntity
  8
0
100
AcDbBlockEnd
  0
ENDSEC
  0
SECTION
  2
ENTITIES
  0
SPLINE
  5
32
330
17
100
AcDbEntity
  8
VISIBLE
100
AcDbSpline
 70
0
 71
2
 72
6
 73
3
 74
0
 40
0.0
 40
0.0
 40
0.0
 40
1.0
 40
1.0
 40
1.0
 10
28.0
 20
-33.0
 30
0.0
 10
41.83404130286418
 20
-14.941684100826361
 30
0.0
 10
31.999999999999986
 20
7.0
 30
0.0
  0
SPLINE
  5
33
330
17
100
AcDbEntity
  8
VISIBLE
100
AcDbSpline
 70
0
 71
3
 72
29
 73
25
 74
0
 40
0.0
 40
0.0
 40
0.0
 40
0.0
 40
0.1250000000000001
 40
0.1250000000000001
 40
0.1250000000000001
 40
0.2500000000000001
 40
0.2500000000000001
 40
0.2500000000000001
 40
0.3750000000000001
 40
0.3750000000000001
 40
0.3750000000000001
 40
0.5000000000000001
 40
0.5000000000000001
 40
0.5000000000000001
 40
0.6250000000000001
 40
0.6250000000000001
 40
0.6250000000000001
 40
0.7500000000000001
 40
0.7500000000000001
 40
0.7500000000000001
 40
0.8750000000000001
 40
0.8750000000000001
 40
0.8750000000000001
 40
1.0
 40
1.0
 40
1.0
 40
1.0
 10
-31.999999995759524
 20
7.0
 30
0.0
 10
-32.002228829934765
 20
7.000000000000006
 30
0.0
 10
-31.16932755130692
 20
6.9999999999999964
 30
0.0
 10
-29.564145042167485
 20
7.0
 30
0.0
 10
-27.963080881923883
 20
6.999999999999998
 30
0.0
 10
-25.591178706077773
 20
7.000000000000002
 30
0.0
 10
-22.6274170006258
 20
7.0
 30
0.0
 10
-19.666807343061894
 20
6.999999999999998
 30
0.0
 10
-16.117004873007616
 20
7.000000000000002
 30
0.0
 10
-12.245869831315446
 20
7.0
 30
0.0
 10
-8.376440665217416
 20
6.999999999999998
 30
0.0
 10
-4.189163160607906
 20
7.000000000000002
 30
0.0
 10
-2.2380710618108424e-09
 20
7.0
 30
0.0
 10
4.189163155943024
 20
6.999999999999998
 30
0.0
 10
8.376440664824292
 20
7.000000000000002
 30
0.0
 10
12.245869834556474
 20
7.0
 30
0.0
 10
16.11700488007666
 20
6.999999999999998
 30
0.0
 10
19.666807350453723
 20
7.000000000000002
 30
0.0
 10
22.627417001311734
 20
7.0
 30
0.0
 10
25.59117870036318
 20
6.999999999999998
 30
0.0
 10
27.963080866766628
 20
7.000000000000002
 30
0.0
 10
29.564145036909416
 20
7.0
 30
0.0
 10
31.169327559043104
 20
6.999999999999998
 30
0.0
 10
32.002228847592306
 20
7.000000000000002
 30
0.0
 10
31.999999999999986
 20
7.0
 30
0.0
  0
SPLINE
  5
34
330
17
100
AcDbEntity
  8
VISIBLE
100
AcDbSpline
 70
0
 71
3
 72
17
 73
13
 74
0
 40
0.0
 40
0.0
 40
0.0
 40
0.0
 40
0.24999999999999986
 40
0.24999999999999986
 40
0.24999999999999986
 40
0.5000000000000003
 40
0.5000000000000003
 40
0.5000000000000003
 40
0.7500000000000001
 40
0.7500000000000001
 40
0.7500000000000001
 40
1.0
 40
1.0
 40
1.0
 40
1.0
 10
9.56053575635516
 20
-33.00000000000001
 30
0.0
 10
12.241584394329617
 20
-33.0
 30
0.0
 10
14.771997594329001
 20
-32.999999999999986
 30
0.0
 10
17.03517024386168
 20
-33.00000000000001
 30
0.0
 10
19.29921858116588
 20
-33.000000000000014
 30
0.0
 10
21.29527725469872
 20
-32.99999999999999
 30
0.0
 10
22.931364993817635
 20
-33.0
 30
0.0
 10
24.56863151197213
 20
-32.99999999999999
 30
0.0
 10
25.845385463817088
 20
-33.00000000000001
 30
0.0
 10
26.70279217693461
 20
-33.0
 30
0.0
 10
27.561571540732224
 20
-33.0
 30
0.0
 10
28.00071967195507
 20
-33.0
 30
0.0
 10
27.999999999999986
 20
-33.0
 30
0.0
  0
SPLINE
  5
35
330
17
100
AcDbEntity
  8
VISIBLE
100
AcDbSpline
 70
0
 71
3
 72
8
 73
4
 74
0
 40
0.0
 40
0.0
 40
0.0
 40
0.0
 40
1.0
 40
1.0
 40
1.0
 40
1.0
 10
-8.881784197001252e-15
 20
-32.27832433580372
 30
0.0
 10
3.299331398580776
 20
-32.27529529843401
 30
0.0
 10
6.585283973589291
 20
-32.5474554241428
 30
0.0
 10
9.560535756356018
 20
-33.0
 30
0.0
  0
SPLINE
  5
36
330
17
100
AcDbEntity
  8
VISIBLE
100
AcDbSpline
 70
0
 71
3
 72
8
 73
4
 74
0
 40
0.0
 40
0.0
 40
0.0
 40
0.0
 40
1.0
 40
1.0
 40
1.0
 40
1.0
 10
-9.560535791292306
 20
-33.0
 30
0.0
 10
-6.585283937165443
 20
-32.54745545120837
 30
0.0
 10
-3.299332515665122
 20
-32.275295349861395
 30
0.0
 10
-8.881784197001252e-15
 20
-32.27832433580372
 30
0.0
  0
SPLINE
  5
37
330
17
100
AcDbEntity
  8
VISIBLE
100
AcDbSpline
 70
0
 71
3
 72
17
 73
13
 74
0
 40
0.0
 40
0.0
 40
0.0
 40
0.0
 40
0.24999999999999992
 40
0.24999999999999992
 40
0.24999999999999992
 40
0.5000000000000001
 40
0.5000000000000001
 40
0.5000000000000001
 40
0.7500000000000003
 40
0.7500000000000003
 40
0.7500000000000003
 40
1.0
 40
1.0
 40
1.0
 40
1.0
 10
-27.999999996289574
 20
-33.00000000000001
 30
0.0
 10
-28.000719661708395
 20
-32.99999999999999
 30
0.0
 10
-27.561571528718645
 20
-33.0
 30
0.0
 10
-26.702792178174036
 20
-33.0
 30
0.0
 10
-25.84538547601394
 20
-33.0
 30
0.0
 10
-24.568631530446844
 20
-33.0
 30
0.0
 10
-22.931365011784663
 20
-33.0
 30
0.0
 10
-21.295277272624663
 20
-32.99999999999998
 30
0.0
 10
-19.29921859694818
 20
-33.000000000000014
 30
0.0
 10
-17.03517026255301
 20
-33.0
 30
0.0
 10
-14.77199761557843
 20
-32.99999999999999
 30
0.0
 10
-12.241584422283728
 20
-33.0
 30
0.0
 10
-9.560535791292352
 20
-33.0
 30
0.0
  0
SPLINE
  5
38
330
17
100
AcDbEntity
  8
VISIBLE
100
AcDbSpline
 70
0
 71
2
 72
6
 73
3
 74
0
 40
0.0
 40
0.0
 40
0.0
 40
0.1101202010592545
 40
0.1101202010592545
 40
0.1101202010592545
 10
9.560535756355875
 20
-32.99999999999999
 30
0.0
 10
8.576052826503032
 20
-32.850940722514935
 30
0.0
 10
7.552469900777074
 20
-32.72855122465012
 30
0.0
  0
SPLINE
  5
39
330
17
100
AcDbEntity
  8
VISIBLE
100
AcDbSpline
 70
0
 71
3
 72
11
 73
7
 74
0
 40
0.0
 40
0.0
 40
0.0
 40
0.0
 40
0.4251275531967946
 40
0.4251275531967946
 40
0.4251275531967946
 40
1.0
 40
1.0
 40
1.0
 40
1.0
 10
7.285780071748965
 20
-32.69730521858834
 30
0.0
 10
4.971225805243273
 20
-32.42999056343544
 30
0.0
 10
2.52099640393662
 20
-32.27988970528534
 30
0.0
 10
0.06613010904820626
 20
-32.278358845904094
 30
0.0
 10
-3.2552802022219813
 20
-32.27177281730341
 30
0.0
 10
-6.565443423687543
 20
-32.54436898167144
 30
0.0
 10
-9.560535791292054
 20
-33.0
 30
0.0
  0
SPLINE
  5
3A
330
17
100
AcDbEntity
  8
VISIBLE
100
AcDbSpline
 70
0
 71
3
 72
20
 73
16
 74
0
 40
0.0
 40
0.0
 40
0.0
 40
0.0
 40
0.2446510247734149
 40
0.2446510247734149
 40
0.2446510247734149
 40
0.36401226485091
 40
0.36401226485091
 40
0.36401226485091
 40
0.6080420455773264
 40
0.6080420455773264
 40
0.6080420455773264
 40
0.8526930703507414
 40
0.8526930703507414
 40
0.8526930703507414
 40
1.0
 40
1.0
 40
1.0
 40
1.0
 10
-31.999999995759538
 20
6.999999999999998
 30
0.0
 10
-33.304496098360744
 20
4.089325727543365
 30
0.0
 10
-34.37042649695773
 20
1.065864150187291
 30
0.0
 10
-35.08655188021877
 20
-2.044246875573486
 30
0.0
 10
-35.437926009719845
 20
-3.5625382890090225
 30
0.0
 10
-35.69912422450717
 20
-5.096130665285223
 30
0.0
 10
-35.87014652458092
 20
-6.645024004402098
 30
0.0
 10
-36.21771422096002
 20
-9.80789155202279
 30
0.0
 10
-36.15153842690489
 20
-13.019580417418016
 30
0.0
 10
-35.62542469682884
 20
-16.159094861603204
 30
0.0
 10
-34.989853645945736
 20
-19.994698531632725
 30
0.0
 10
-33.66469049478721
 20
-23.70318454477247
 30
0.0
 10
-31.820906469318366
 20
-27.121879603634625
 30
0.0
 10
-30.712769255592022
 20
-29.182580693758293
 30
0.0
 10
-29.42260087485142
 20
-31.143151515910905
 30
0.0
 10
-27.99999999628959
 20
-33.0
 30
0.0
  0
SPLINE
  5
3B
330
17
100
AcDbEntity
  8
HIDDEN
100
AcDbSpline
 70
0
 71
3
 72
29
 73
25
 74
0
 40
0.0
 40
0.0
 40
0.0
 40
0.0
 40
0.06249999999999999
 40
0.06249999999999999
 40
0.06249999999999999
 40
0.12499999999999999
 40
0.12499999999999999
 40
0.12499999999999999
 40
0.18749999999999997
 40
0.18749999999999997
 40
0.18749999999999997
 40
0.24999999999999997
 40
0.24999999999999997
 40
0.24999999999999997
 40
0.31249999999999994
 40
0.31249999999999994
 40
0.31249999999999994
 40
0.37499999999999994
 40
0.37499999999999994
 40
0.37499999999999994
 40
0.43749999999999994
 40
0.43749999999999994
 40
0.43749999999999994
 40
0.49999999999999994
 40
0.49999999999999994
 40
0.49999999999999994
 40
0.49999999999999994
 10
31.999999999999986
 20
7.0
 30
0.0
 10
32.00222884759295
 20
6.999999999999997
 30
0.0
 10
31.1693275590431
 20
7.0
 30
0.0
 10
29.564145036909423
 20
6.999999999999998
 30
0.0
 10
27.9630808667669
 20
7.000000000000005
 30
0.0
 10
25.591178700363223
 20
6.999999999999998
 30
0.0
 10
22.62741700131173
 20
7.0
 30
0.0
 10
19.66680735045392
 20
6.999999999999995
 30
0.0
 10
16.117004880076585
 20
7.000000000000002
 30
0.0
 10
12.245869834556478
 20
7.0
 30
0.0
 10
8.376440664824347
 20
7.000000000000001
 30
0.0
 10
4.189163155942999
 20
6.999999999999998
 30
0.0
 10
-2.2380595518263865e-09
 20
7.0
 30
0.0
 10
-4.189163160607842
 20
7.000000000000005
 30
0.0
 10
-8.376440665217443
 20
6.999999999999998
 30
0.0
 10
-12.245869831315451
 20
7.0
 30
0.0
 10
-16.117004873007616
 20
7.0
 30
0.0
 10
-19.6668073430619
 20
6.999999999999998
 30
0.0
 10
-22.62741700062582
 20
7.0
 30
0.0
 10
-25.591178706077777
 20
7.0
 30
0.0
 10
-27.963080881923936
 20
6.999999999999998
 30
0.0
 10
-29.564145042167503
 20
7.0
 30
0.0
 10
-31.16932755130692
 20
7.0
 30
0.0
 10
-32.00222882993476
 20
6.999999999999998
 30
0.0
 10
-31.999999995759524
 20
7.0
 30
0.0
  0
SPLINE
  5
3C
330
17
100
AcDbEntity
  8
HIDDEN
100
AcDbSpline
 70
0
 71
3
 72
17
 73
13
 74
0
 40
0.0
 40
0.0
 40
0.0
 40
0.0
 40
0.25000000000000017
 40
0.25000000000000017
 40
0.25000000000000017
 40
0.5
 40
0.5
 40
0.5
 40
0.7499999999999999
 40
0.7499999999999999
 40
0.7499999999999999
 40
1.0
 40
1.0
 40
1.0
 40
1.0
 10
-9.560535791291919
 20
-33.0
 30
0.0
 10
-12.241584422283447
 20
-33.0
 30
0.0
 10
-14.771997615578211
 20
-33.0
 30
0.0
 10
-17.03517026255277
 20
-33.00000000000001
 30
0.0
 10
-19.299218596948016
 20
-33.00000000000001
 30
0.0
 10
-21.295277272624524
 20
-32.999999999999986
 30
0.0
 10
-22.931365011784553
 20
-33.00000000000001
 30
0.0
 10
-24.56863153044678
 20
-33.00000000000001
 30
0.0
 10
-25.845385476013924
 20
-32.999999999999986
 30
0.0
 10
-26.702792178174008
 20
-33.00000000000001
 30
0.0
 10
-27.56157152871866
 20
-33.00000000000001
 30
0.0
 10
-28.0007196617084
 20
-32.99999999999999
 30
0.0
 10
-27.99999999628958
 20
-33.00000000000001
 30
0.0
  0
SPLINE
  5
3D
330
17
100
AcDbEntity
  8
HIDDEN
100
AcDbSpline
 70
0
 71
1
 72
4
 73
2
 74
0
 40
0.0
 40
0.0
 40
1.0
 40
1.0
 10
7.552469900777075
 20
-32.72855122465013
 30
0.0
 10
7.285780071748965
 20
-32.69730521858834
 30
0.0
  0
SPLINE
  5
3E
330
17
100
AcDbEntity
  8
HIDDEN
100
AcDbSpline
 70
0
 71
3
 72
17
 73
13
 74
0
 40
0.0
 40
0.0
 40
0.0
 40
0.0
 40
0.04863534674682529
 40
0.04863534674682529
 40
0.04863534674682529
 40
0.09727069349365058
 40
0.09727069349365058
 40
0.09727069349365058
 40
0.14590604024047588
 40
0.14590604024047588
 40
0.14590604024047588
 40
0.19454138698730117
 40
0.19454138698730117
 40
0.19454138698730117
 40
0.19454138698730117
 10
28.0
 20
-33.0
 30
0.0
 10
28.000719671954464
 20
-32.99999999999998
 30
0.0
 10
27.561571540731904
 20
-33.000000000000014
 30
0.0
 10
26.70279217693461
 20
-33.0
 30
0.0
 10
25.845385463816733
 20
-32.99999999999998
 30
0.0
 10
24.568631511972125
 20
-33.000000000000014
 30
0.0
 10
22.931364993817848
 20
-33.0
 30
0.0
 10
21.295277254698686
 20
-32.99999999999998
 30
0.0
 10
19.299218581165924
 20
-33.000000000000014
 30
0.0
 10
17.03517024386208
 20
-33.0
 30
0.0
 10
14.771997594329344
 20
-32.99999999999998
 30
0.0
 10
12.241584394329966
 20
-33.000000000000014
 30
0.0
 10
9.5605357563558
 20
-33.0
 30
0.0
  0
SPLINE
  5
3F
330
17
100
AcDbEntity
  8
HIDDEN
100
AcDbSpline
 70
0
 71
1
 72
17
 73
15
 74
0
 40
0.0
 40
0.0
 40
0.1121997376282069
 40
0.2243994752564138
 40
0.3365992128846207
 40
0.4487989505128276
 40
0.5609986881410345
 40
0.6731984257692414
 40
0.7853981633974483
 40
0.8975979010256552
 40
1.009797638653862
 40
1.121997376282069
 40
1.2341971139102759
 40
1.3463968515384828
 40
1.4585965891666897
 40
1.5707963267948966
 40
1.5707963267948966
 10
0.0
 20
7.0
 30
0.0
 10
2.743129664531043
 20
7.0
 30
0.0
 10
5.451762881929703
 20
7.0
 30
0.0
 10
8.091837017901593
 20
7.0
 30
0.0
 10
10.630151608380174
 20
7.0
 30
0.0
 10
13.034785874625747
 20
7.0
 30
0.0
 10
15.27550014553897
 20
7.0
 30
0.0
 10
17.324116139070412
 20
7.0
 30
0.0
 10
19.154871320466725
 20
7.0
 30
0.0
 10
20.74474288109296
 20
7.0
 30
0.0
 10
22.07373726360927
 20
7.0
 30
0.0
 10
23.12514159255501
 20
7.0
 30
0.0
 10
23.885733848454677
 20
7.0
 30
0.0
 10
24.34594914238444
 20
7.0
 30
0.0
 10
24.5
 20
7.0
 30
0.0
  0
SPLINE
  5
40
330
17
100
AcDbEntity
  8
HIDDEN
100
AcDbSpline
 70
0
 71
1
 72
17
 73
15
 74
0
 40
0.0
 40
0.0
 40
0.07142857142857142
 40
0.14285714285714285
 40
0.21428571428571427
 40
0.2857142857142857
 40
0.35714285714285715
 40
0.42857142857142855
 40
0.5
 40
0.5714285714285714
 40
0.6428571428571429
 40
0.7142857142857143
 40
0.7857142857142857
 40
0.8571428571428571
 40
0.9285714285714286
 40
1.0
 40
1.0
 10
24.5
 20
7.0
 30
0.0
 10
23.885733848454677
 20
7.0
 30
0.0
 10
22.073737263609267
 20
7.0
 30
0.0
 10
19.154871320466732
 20
7.0
 30
0.0
 10
15.275500145538974
 20
7.0
 30
0.0
 10
10.630151608380176
 20
7.0
 30
0.0
 10
5.451762881929707
 20
7.0
 30
0.0
 10
2.6645352591003757e-15
 20
7.0
 30
0.0
 10
-5.4517628819296995
 20
7.0
 30
0.0
 10
-10.63015160838017
 20
7.0
 30
0.0
 10
-15.275500145538967
 20
7.0
 30
0.0
 10
-19.154871320466732
 20
7.0
 30
0.0
 10
-22.073737263609267
 20
7.0
 30
0.0
 10
-23.885733848454677
 20
7.0
 30
0.0
 10
-24.5
 20
7.0
 30
0.0
  0
SPLINE
  5
41
330
17
100
AcDbEntity
  8
HIDDEN
100
AcDbSpline
 70
0
 71
1
 72
17
 73
15
 74
0
 40
0.0
 40
0.0
 40
0.07142857142857142
 40
0.14285714285714285
 40
0.21428571428571427
 40
0.2857142857142857
 40
0.35714285714285715
 40
0.42857142857142855
 40
0.5
 40
0.5714285714285714
 40
0.6428571428571429
 40
0.7142857142857143
 40
0.7857142857142857
 40
0.8571428571428571
 40
0.9285714285714286
 40
1.0
 40
1.0
 10
-24.5
 20
7.0
 30
0.0
 10
-24.34594914238444
 20
7.0
 30
0.0
 10
-23.885733848454677
 20
7.0
 30
0.0
 10
-23.125141592555007
 20
7.0
 30
0.0
 10
-22.07373726360927
 20
7.0
 30
0.0
 10
-20.744742881092968
 20
7.0
 30
0.0
 10
-19.154871320466732
 20
7.0
 30
0.0
 10
-17.32411613907042
 20
7.0
 30
0.0
 10
-15.275500145538974
 20
7.0
 30
0.0
 10
-13.03478587462575
 20
7.0
 30
0.0
 10
-10.630151608380178
 20
7.0
 30
0.0
 10
-8.0918370179016
 20
7.0
 30
0.0
 10
-5.451762881929708
 20
7.0
 30
0.0
 10
-2.7431296645310477
 20
7.0
 30
0.0
 10
-5.995204332975845e-15
 20
7.0
 30
0.0
  0
SPLINE
  5
42
330
17
100
AcDbEntity
  8
HIDDEN
100
AcDbSpline
 70
0
 71
1
 72
17
 73
15
 74
0
 40
0.0
 40
0.0
 40
0.07142857142857144
 40
0.14285714285714282
 40
0.21428571428571422
 40
0.2857142857142856
 40
0.357142857142857
 40
0.4285714285714283
 40
0.49999999999999983
 40
0.5714285714285713
 40
0.6428571428571428
 40
0.7142857142857143
 40
0.7857142857142857
 40
0.8571428571428572
 40
0.9285714285714287
 40
1.0
 40
1.0
 10
9.560535756355318
 20
-33.0
 30
0.0
 10
11.410022781892259
 20
-33.0
 30
0.0
 10
13.179877456679199
 20
-33.0
 30
0.0
 10
14.85774768546328
 20
-33.0
 30
0.0
 10
16.43192334696556
 20
-33.0
 30
0.0
 10
17.89141802066655
 20
-33.0
 30
0.0
 10
19.226045662769863
 20
-33.0
 30
0.0
 10
20.426491696210398
 20
-33.0
 30
0.0
 10
21.48437801855851
 20
-33.0
 30
0.0
 10
22.392321474119832
 20
-33.0
 30
0.0
 10
23.14398538214477
 20
-33.0
 30
0.0
 10
23.734123761524074
 20
-33.0
 30
0.0
 10
24.15861794331939
 20
-33.0
 30
0.0
 10
24.41450531560413
 20
-33.0
 30
0.0
 10
24.5
 20
-33.0
 30
0.0
  0
SPLINE
  5
43
330
17
100
AcDbEntity
  8
HIDDEN
100
AcDbSpline
 70
0
 71
1
 72
17
 73
15
 74
0
 40
0.0
 40
0.0
 40
0.07142857142857145
 40
0.1428571428571429
 40
0.21428571428571436
 40
0.2857142857142858
 40
0.35714285714285726
 40
0.4285714285714287
 40
0.5
 40
0.5714285714285713
 40
0.6428571428571426
 40
0.7142857142857137
 40
0.785714285714285
 40
0.8571428571428563
 40
0.9285714285714276
 40
1.0
 40
1.0
 10
24.5
 20
-33.0
 30
0.0
 10
24.41450531560414
 20
-33.0
 30
0.0
 10
24.1586179433194
 20
-33.0
 30
0.0
 10
23.734123761524103
 20
-33.0
 30
0.0
 10
23.14398538214482
 20
-33.0
 30
0.0
 10
22.392321474119907
 20
-33.0
 30
0.0
 10
21.48437801855862
 20
-33.0
 30
0.0
 10
20.426491696210554
 20
-33.0
 30
0.0
 10
19.226045662770055
 20
-33.0
 30
0.0
 10
17.891418020666784
 20
-33.0
 30
0.0
 10
16.431923346965853
 20
-33.0
 30
0.0
 10
14.857747685463629
 20
-33.0
 30
0.0
 10
13.179877456679598
 20
-33.0
 30
0.0
 10
11.410022781892716
 20
-33.0
 30
0.0
 10
9.560535756355799
 20
-33.0
 30
0.0
  0
SPLINE
  5
44
330
17
100
AcDbEntity
  8
HIDDEN
100
AcDbSpline
 70
0
 71
1
 72
17
 73
15
 74
0
 40
0.0
 40
0.0
 40
0.07142857142857142
 40
0.14285714285714285
 40
0.21428571428571427
 40
0.2857142857142857
 40
0.35714285714285715
 40
0.42857142857142855
 40
0.5
 40
0.5714285714285714
 40
0.6428571428571429
 40
0.7142857142857143
 40
0.7857142857142857
 40
0.8571428571428571
 40
0.9285714285714286
 40
1.0
 40
1.0
 10
-9.560535791291919
 20
-33.0
 30
0.0
 10
-11.410022813072537
 20
-33.0
 30
0.0
 10
-13.179877484096261
 20
-33.0
 30
0.0
 10
-14.857747709169182
 20
-33.0
 30
0.0
 10
-16.43192336706924
 20
-33.0
 30
0.0
 10
-17.89141803733115
 20
-33.0
 30
0.0
 10
-19.226045676209502
 20
-33.0
 30
0.0
 10
-20.426491706686342
 20
-33.0
 30
0.0
 10
-21.48437802637487
 20
-33.0
 30
0.0
 10
-22.392321479618815
 20
-33.0
 30
0.0
 10
-23.14398538570154
 20
-33.0
 30
0.0
 10
-23.73412376354122
 20
-33.0
 30
0.0
 10
-24.15861794422114
 20
-33.0
 30
0.0
 10
-24.41450531583036
 20
-33.0
 30
0.0
 10
-24.5
 20
-33.0
 30
0.0
  0
SPLINE
  5
45
330
17
100
AcDbEntity
  8
HIDDEN
100
AcDbSpline
 70
0
 71
1
 72
17
 73
15
 74
0
 40
0.0
 40
0.0
 40
0.07142857142857165
 40
0.1428571428571433
 40
0.21428571428571494
 40
0.2857142857142866
 40
0.3571428571428582
 40
0.4285714285714299
 40
0.5000000000000016
 40
0.5714285714285732
 40
0.6428571428571448
 40
0.7142857142857164
 40
0.7857142857142881
 40
0.8571428571428598
 40
0.9285714285714314
 40
1.0
 40
1.0
 10
-24.5
 20
-33.0
 30
0.0
 10
-24.414505315830365
 20
-33.0
 30
0.0
 10
-24.158617944221152
 20
-33.0
 30
0.0
 10
-23.734123763541234
 20
-33.0
 30
0.0
 10
-23.14398538570157
 20
-33.0
 30
0.0
 10
-22.392321479618865
 20
-33.0
 30
0.0
 10
-21.484378026374934
 20
-33.0
 30
0.0
 10
-20.426491706686427
 20
-33.0
 30
0.0
 10
-19.226045676209615
 20
-33.0
 30
0.0
 10
-17.891418037331288
 20
-33.0
 30
0.0
 10
-16.431923367069405
 20
-33.0
 30
0.0
 10
-14.85774770916938
 20
-33.0
 30
0.0
 10
-13.179877484096487
 20
-33.0
 30
0.0
 10
-11.410022813072796
 20
-33.0
 30
0.0
 10
-9.560535791292285
 20
-33.0
 30
0.0
  0
LINE
  5
46
330
17
100
AcDbEntity
  8
HIDDEN
100
AcDbLine
 10
24.5
 20
-33.0
 30
0.0
 11
24.5
 21
7.0
 31
0.0
  0
LINE
  5
47
330
17
100
AcDbEntity
  8
HIDDEN
100
AcDbLine
 10
-24.5
 20
-33.0
 30
0.0
 11
-24.5
 21
7.0
 31
0.0
  0
ENDSEC
  0
SECTION
  2
OBJECTS
  0
DICTIONARY
  5
A
330
0
100
AcDbDictionary
281
1
  3
ACAD_COLOR
350
B
  3
ACAD_GROUP
350
C
  3
ACAD_LAYOUT
350
D
  3
ACAD_MATERIAL
350
E
  3
ACAD_MLEADERSTYLE
350
F
  3
ACAD_MLINESTYLE
350
10
  3
ACAD_PLOTSETTINGS
350
11
  3
ACAD_PLOTSTYLENAME
350
12
  3
ACAD_SCALELIST
350
14
  3
ACAD_TABLESTYLE
350
15
  3
ACAD_VISUALSTYLE
350
16
  3
EZDXF_META
350
2D
  0
DICTIONARY
  5
B
330
A
100
AcDbDictionary
281
1
  0
DICTIONARY
  5
C
330
A
100
AcDbDictionary
281
1
  0
DICTIONARY
  5
D
330
A
100
AcDbDictionary
281
1
  3
Model
350
1A
  3
Layout1
350
1E
  0
DICTIONARY
  5
E
330
A
100
AcDbDictionary
281
1
  3
ByBlock
350
1F
  3
ByLayer
350
20
  3
Global
350
21
  0
DICTIONARY
  5
F
330
A
100
AcDbDictionary
281
1
  3
Standard
350
2C
  0
DICTIONARY
  5
10
330
A
100
AcDbDictionary
281
1
  3
Standard
350
22
  0
DICTIONARY
  5
11
330
A
100
AcDbDictionary
281
1
  0
ACDBDICTIONARYWDFLT
  5
12
330
A
100
AcDbDictionary
281
1
  3
Normal
350
13
100
AcDbDictionaryWithDefault
340
13
  0
ACDBPLACEHOLDER
  5
13
330
12
  0
DICTIONARY
  5
14
330
A
100
AcDbDictionary
281
1
  0
DICTIONARY
  5
15
330
A
100
AcDbDictionary
281
1
  0
DICTIONARY
  5
16
330
A
100
AcDbDictionary
281
1
  0
LAYOUT
  5
1A
330
D
100
AcDbPlotSettings
  1

  4
A3
  6

 40
7.5
 41
20.0
 42
7.5
 43
20.0
 44
420.0
 45
297.0
 46
0.0
 47
0.0
 48
0.0
 49
0.0
140
0.0
141
0.0
142
1.0
143
1.0
 70
1024
 72
1
 73
0
 74
5
  7

 75
16
 76
0
 77
2
 78
300
147
1.0
148
0.0
149
0.0
100
AcDbLayout
  1
Model
 70
1
 71
0
 10
0.0
 20
0.0
 11
420.0
 21
297.0
 12
0.0
 22
0.0
 32
0.0
 14
1e+20
 24
1e+20
 34
1e+20
 15
-1e+20
 25
-1e+20
 35
-1e+20
146
0.0
 13
0.0
 23
0.0
 33
0.0
 16
1.0
 26
0.0
 36
0.0
 17
0.0
 27
1.0
 37
0.0
 76
1
330
17
  0
LAYOUT
  5
1E
330
D
100
AcDbPlotSettings
  1

  4
A3
  6

 40
7.5
 41
20.0
 42
7.5
 43
20.0
 44
420.0
 45
297.0
 46
0.0
 47
0.0
 48
0.0
 49
0.0
140
0.0
141
0.0
142
1.0
143
1.0
 70
0
 72
1
 73
0
 74
5
  7

 75
16
 76
0
 77
2
 78
300
147
1.0
148
0.0
149
0.0
100
AcDbLayout
  1
Layout1
 70
1
 71
1
 10
0.0
 20
0.0
 11
420.0
 21
297.0
 12
0.0
 22
0.0
 32
0.0
 14
1e+20
 24
1e+20
 34
1e+20
 15
-1e+20
 25
-1e+20
 35
-1e+20
146
0.0
 13
0.0
 23
0.0
 33
0.0
 16
1.0
 26
0.0
 36
0.0
 17
0.0
 27
1.0
 37
0.0
 76
1
330
1B
  0
MATERIAL
  5
1F
102
{ACAD_REACTORS
330
E
102
}
330
E
100
AcDbMaterial
  1
ByBlock
  2

 70
0
 40
1.0
 71
1
 41
1.0
 91
-1023410177
 42
1.0
 72
1
  3

 73
1
 74
1
 75
1
 44
0.5
 73
0
 45
1.0
 46
1.0
 77
1
  4

 78
1
 79
1
170
1
 48
1.0
171
1
  6

172
1
173
1
174
1
140
1.0
141
1.0
175
1
  7

176
1
177
1
178
1
143
1.0
179
1
  8

270
1
271
1
272
1
145
1.0
146
1.0
273
1
  9

274
1
275
1
276
1
 42
1.0
 72
1
  3

 73
1
 74
1
 75
1
 94
63
  0
MATERIAL
  5
20
102
{ACAD_REACTORS
330
E
102
}
330
E
100
AcDbMaterial
  1
ByLayer
  2

 70
0
 40
1.0
 71
1
 41
1.0
 91
-1023410177
 42
1.0
 72
1
  3

 73
1
 74
1
 75
1
 44
0.5
 73
0
 45
1.0
 46
1.0
 77
1
  4

 78
1
 79
1
170
1
 48
1.0
171
1
  6

172
1
173
1
174
1
140
1.0
141
1.0
175
1
  7

176
1
177
1
178
1
143
1.0
179
1
  8

270
1
271
1
272
1
145
1.0
146
1.0
273
1
  9

274
1
275
1
276
1
 42
1.0
 72
1
  3

 73
1
 74
1
 75
1
 94
63
  0
MATERIAL
  5
21
102
{ACAD_REACTORS
330
E
102
}
330
E
100
AcDbMaterial
  1
Global
  2

 70
0
 40
1.0
 71
1
 41
1.0
 91
-1023410177
 42
1.0
 72
1
  3

 73
1
 74
1
 75
1
 44
0.5
 73
0
 45
1.0
 46
1.0
 77
1
  4

 78
1
 79
1
170
1
 48
1.0
171
1
  6

172
1
173
1
174
1
140
1.0
141
1.0
175
1
  7

176
1
177
1
178
1
143
1.0
179
1
  8

270
1
271
1
272
1
145
1.0
146
1.0
273
1
  9

274
1
275
1
276
1
 42
1.0
 72
1
  3

 73
1
 74
1
 75
1
 94
63
  0
MLINESTYLE
  5
22
102
{ACAD_REACTORS
330
10
102
}
330
10
100
AcDbMlineStyle
  2
Standard
 70
0
  3

 62
256
 51
90.0
 52
90.0
 71
2
 49
0.5
 62
256
  6
BYLAYER
 49
-0.5
 62
256
  6
BYLAYER
  0
MLEADERSTYLE
  5
2C
102
{ACAD_REACTORS
330
F
102
}
330
F
100
AcDbMLeaderStyle
179
2
170
2
171
1
172
0
 90
2
 40
0.0
 41
0.0
173
1
 91
-1056964608
 92
-2
290
1
 42
2.0
291
1
 43
8.0
  3
Standard
 44
4.0
300

342
29
174
1
175
1
176
0
178
1
 93
-1056964608
 45
4.0
292
0
297
0
 46
4.0
 94
-1056964608
 47
1.0
 49
1.0
140
1.0
294
1
141
0.0
177
0
142
1.0
295
0
296
0
143
3.75
271
0
272
9
273
9
  0
DICTIONARY
  5
2D
330
A
100
AcDbDictionary
280
1
281
1
  3
CREATED_BY_EZDXF
350
2E
  3
WRITTEN_BY_EZDXF
350
4B
  0
DICTIONARYVAR
  5
2E
330
2D
100
DictionaryVariables
280
0
  1
1.4.4 @ 2026-10-07T09:44:42.988138+00:00
  0
DICTIONARYVAR
  5
4B
330
2D
100
DictionaryVariables
280
0
  1
1.4.4 @ 2026-10-07T09:44:43.120716+00:00
  0
ENDSEC
  0
EOF
