  0
SECTION
  2
HEADER
  9
$ACADVER
  1
AC1027
  9
$ACADMAINTVER
 70
105
  9
$DWGCODEPAGE
  3
ANSI_1252
  9
$LASTSAVEDBY
  1
ezdxf
  9
$REQUIREDVERSIONS
160
0
  9
$INSBASE
 10
0.0
 20
0.0
 30
0.0
  9
$EXTMIN
 10
1e+20
 20
1e+20
 30
1e+20
  9
$EXTMAX
 10
-1e+20
 20
-1e+20
 30
-1e+20
  9
$LIMMIN
 10
0.0
 20
0.0
  9
$LIMMAX
 10
420.0
 20
297.0
  9
$ORTHOMODE
 70
0
  9
$REGENMODE
 70
1
  9
$FILLMODE
 70
1
  9
$QTEXTMODE
 70
0
  9
$MIRRTEXT
 70
1
  9
$LTSCALE
 40
1.0
  9
$ATTMODE
 70
1
  9
$TEXTSIZE
 40
2.5
  9
$TRACEWID
 40
1.0
  9
$TEXTSTYLE
  7
Standard
  9
$CLAYER
  8
0
  9
$CELTYPE
  6
ByLayer
  9
$CECOLOR
 62
256
  9
$CELTSCALE
 40
1.0
  9
$DISPSILH
 70
0
  9
$DIMSCALE
 40
1.0
  9
$DIMASZ
 40
2.5
  9
$DIMEXO
 40
0.625
  9
$DIMDLI
 40
3.75
  9
$DIMRND
 40
0.0
  9
$DIMDLE
 40
0.0
  9
$DIMEXE
 40
1.25
  9
$DIMTP
 40
0.0
  9
$DIMTM
 40
0.0
  9
$DIMTXT
 40
2.5
  9
$DIMCEN
 40
2.5
  9
$DIMTSZ
 40
0.0
  9
$DIMTOL
 70
0
  9
$DIMLIM
 70
0
  9
$DIMTIH
 70
0
  9
$DIMTOH
 70
0
  9
$DIMSE1
 70
0
  9
$DIMSE2
 70
0
  9
$DIMTAD
 70
1
  9
$DIMZIN
 70
8
  9
$DIMBLK
  1

  9
$DIMASO
 70
1
  9
$DIMSHO
 70
1
  9
$DIMPOST
  1

  9
$DIMAPOST
  1

  9
$DIMALT
 70
0
  9
$DIMALTD
 70
3
  9
$DIMALTF
 40
0.03937007874
  9
$DIMLFAC
 40
1.0
  9
$DIMTOFL
 70
1
  9
$DIMTVP
 40
0.0
  9
$DIMTIX
 70
0
  9
$DIMSOXD
 70
0
  9
$DIMSAH
 70
0
  9
$DIMBLK1
  1

  9
$DIMBLK2
  1

  9
$DIMSTYLE
  2
ISO-25
  9
$DIMCLRD
 70
0
  9
$DIMCLRE
 70
0
  9
$DIMCLRT
 70
0
  9
$DIMTFAC
 40
1.0
  9
$DIMGAP
 40
0.625
  9
$DIMJUST
 70
0
  9
$DIMSD1
 70
0
  9
$DIMSD2
 70
0
  9
$DIMTOLJ
 70
0
  9
$DIMTZIN
 70
8
  9
$DIMALTZ
 70
0
  9
$DIMALTTZ
 70
0
  9
$DIMUPT
 70
0
  9
$DIMDEC
 70
2
  9
$DIMTDEC
 70
2
  9
$DIMALTU
 70
2
  9
$DIMALTTD
 70
3
  9
$DIMTXSTY
  7
Standard
  9
$DIMAUNIT
 70
0
  9
$DIMADEC
 70
0
  9
$DIMALTRND
 40
0.0
  9
$DIMAZIN
 70
0
  9
$DIMDSEP
 70
44
  9
$DIMATFIT
 70
3
  9
$DIMFRAC
 70
0
  9
$DIMLDRBLK
  1

  9
$DIMLUNIT
 70
2
  9
$DIMLWD
 70
-2
  9
$DIMLWE
 70
-2
  9
$DIMTMOVE
 70
0
  9
$DIMFXL
 40
1.0
  9
$DIMFXLON
 70
0
  9
$DIMJOGANG
 40
0.785398163397
  9
$DIMTFILL
 70
0
  9
$DIMTFILLCLR
 70
0
  9
$DIMARCSYM
 70
0
  9
$DIMLTYPE
  6

  9
$DIMLTEX1
  6

  9
$DIMLTEX2
  6

  9
$DIMTXTDIRECTION
 70
0
  9
$LUNITS
 70
2
  9
$LUPREC
 70
4
  9
$SKETCHINC
 40
1.0
  9
$FILLETRAD
 40
10.0
  9
$AUNITS
 70
0
  9
$AUPREC
 70
2
  9
$MENU
  1
.
  9
$ELEVATION
 40
0.0
  9
$PELEVATION
 40
0.0
  9
$THICKNESS
 40
0.0
  9
$LIMCHECK
 70
0
  9
$CHAMFERA
 40
0.0
  9
$CHAMFERB
 40
0.0
  9
$CHAMFERC
 40
0.0
  9
$CHAMFERD
 40
0.0
  9
$SKPOLY
 70
0
  9
$TDCREATE
 40
2461322.5599074075
  9
$TDUCREATE
 40
2458532.153996898
  9
$TDUPDATE
 40
2461322.5599189815
  9
$TDUUPDATE
 40
2458532.1544311
  9
$TDINDWG
 40
0.0
  9
$TDUSRTIMER
 40
0.0
  9
$USRTIMER
 70
1
  9
$ANGBASE
 50
0.0
  9
$ANGDIR
 70
0
  9
$PDMODE
 70
0
  9
$PDSIZE
 40
0.0
  9
$PLINEWID
 40
0.0
  9
$SPLFRAME
 70
0
  9
$SPLINETYPE
 70
6
  9
$SPLINESEGS
 70
8
  9
$HANDSEED
  5
65
  9
$SURFTAB1
 70
6
  9
$SURFTAB2
 70
6
  9
$SURFTYPE
 70
6
  9
$SURFU
 70
6
  9
$SURFV
 70
6
  9
$UCSBASE
  2

  9
$UCSNAME
  2

  9
$UCSORG
 10
0.0
 20
0.0
 30
0.0
  9
$UCSXDIR
 10
1.0
 20
0.0
 30
0.0
  9
$UCSYDIR
 10
0.0
 20
1.0
 30
0.0
  9
$UCSORTHOREF
  2

  9
$UCSORTHOVIEW
 70
0
  9
$UCSORGTOP
 10
0.0
 20
0.0
 30
0.0
  9
$UCSORGBOTTOM
 10
0.0
 20
0.0
 30
0.0
  9
$UCSORGLEFT
 10
0.0
 20
0.0
 30
0.0
  9
$UCSORGRIGHT
 10
0.0
 20
0.0
 30
0.0
  9
$UCSORGFRONT
 10
0.0
 20
0.0
 30
0.0
  9
$UCSORGBACK
 10
0.0
 20
0.0
 30
0.0
  9
$PUCSBASE
  2

  9
$PUCSNAME
  2

  9
$PUCSORG
 10
0.0
 20
0.0
 30
0.0
  9
$PUCSXDIR
 10
1.0
 20
0.0
 30
0.0
  9
$PUCSYDIR
 10
0.0
 20
1.0
 30
0.0
  9
$PUCSORTHOREF
  2

  9
$PUCSORTHOVIEW
 70
0
  9
$PUCSORGTOP
 10
0.0
 20
0.0
 30
0.0
  9
$PUCSORGBOTTOM
 10
0.0
 20
0.0
 30
0.0
  9
$PUCSORGLEFT
 10
0.0
 20
0.0
 30
0.0
  9
$PUCSORGRIGHT
 10
0.0
 20
0.0
 30
0.0
  9
$PUCSORGFRONT
 10
0.0
 20
0.0
 30
0.0
  9
$PUCSORGBACK
 10
0.0
 20
0.0
 30
0.0
  9
$USERI1
 70
0
  9
$USERI2
 70
0
  9
$USERI3
 70
0
  9
$USERI4
 70
0
  9
$USERI5
 70
0
  9
$USERR1
 40
0.0
  9
$USERR2
 40
0.0
  9
$USERR3
 40
0.0
  9
$USERR4
 40
0.0
  9
$USERR5
 40
0.0
  9
$WORLDVIEW
 70
1
  9
$SHADEDGE
 70
3
  9
$SHADEDIF
 70
70
  9
$TILEMODE
 70
1
  9
$MAXACTVP
 70
64
  9
$PINSBASE
 10
0.0
 20
0.0
 30
0.0
  9
$PLIMCHECK
 70
0
  9
$PEXTMIN
 10
1e+20
 20
1e+20
 30
1e+20
  9
$PEXTMAX
 10
-1e+20
 20
-1e+20
 30
-1e+20
  9
$PLIMMIN
 10
0.0
 20
0.0
  9
$PLIMMAX
 10
420.0
 20
297.0
  9
$UNITMODE
 70
0
  9
$VISRETAIN
 70
1
  9
$PLINEGEN
 70
0
  9
$PSLTSCALE
 70
1
  9
$TREEDEPTH
 70
3020
  9
$CMLSTYLE
  2
Standard
  9
$CMLJUST
 70
0
  9
$CMLSCALE
 40
20.0
  9
$PROXYGRAPHICS
 70
1
  9
$MEASUREMENT
 70
1
  9
$CELWEIGHT
370
-1
  9
$ENDCAPS
280
0
  9
$JOINSTYLE
280
0
  9
$LWDISPLAY
290
0
  9
$INSUNITS
 70
4
  9
$HYPERLINKBASE
  1

  9
$STYLESHEET
  1

  9
$XEDIT
290
1
  9
$CEPSNTYPE
380
0
  9
$PSTYLEMODE
290
1
  9
$FINGERPRINTGUID
  2
{38FEEE2C-ED1F-416F-85DF-183B6A078186}
  9
$VERSIONGUID
  2
{77F86F21-9C37-46A0-970B-335FE11AC045}
  9
$EXTNAMES
290
1
  9
$PSVPSCALE
 40
0.0
  9
$OLESTARTUP
290
0
  9
$SORTENTS
280
127
  9
$INDEXCTL
280
0
  9
$HIDETEXT
280
1
  9
$XCLIPFRAME
280
1
  9
$HALOGAP
280
0
  9
$OBSCOLOR
 70
257
  9
$OBSLTYPE
280
0
  9
$INTERSECTIONDISPLAY
280
0
  9
$INTERSECTIONCOLOR
 70
257
  9
$DIMASSOC
280
2
  9
$PROJECTNAME
  1

  9
$CAMERADISPLAY
290
0
  9
$LENSLENGTH
 40
50.0
  9
$CAMERAHEIGHT
 40
0.0
  9
$STEPSPERSEC
 40
24.0
  9
$STEPSIZE
 40
100.0
  9
$3DDWFPREC
 40
2.0
  9
$PSOLWIDTH
 40
0.005
  9
$PSOLHEIGHT
 40
0.08
  9
$LOFTANG1
 40
1.570796326795
  9
$LOFTANG2
 40
1.570796326795
  9
$LOFTMAG1
 40
0.0
  9
$LOFTMAG2
 40
0.0
  9
$LOFTPARAM
 70
7
  9
$LOFTNORMALS
280
1
  9
$LATITUDE
 40
37.795
  9
$LONGITUDE
 40
-122.394
  9
$NORTHDIRECTION
 40
0.0
  9
$TIMEZONE
 70
-8000
  9
$LIGHTGLYPHDISPLAY
280
1
  9
$TILEMODELIGHTSYNCH
280
1
  9
$CMATERIAL
347
20
  9
$SOLIDHIST
280
0
  9
$SHOWHIST
280
1
  9
$DWFFRAME
280
2
  9
$DGNFRAME
280
2
  9
$REALWORLDSCALE
290
1
  9
$INTERFERECOLOR
 62
256
  9
$CSHADOW
280
0
  9
$SHADOWPLANELOCATION
 40
0.0
  0
ENDSEC
  0
SECTION
  2
CLASSES
  0
CLASS
  1
ACDBDICTIONARYWDFLT
  2
AcDbDictionaryWithDefault
  3
ObjectDBX Classes
 90
0
 91
0
280
0
281
0
  0
CLASS
  1
SUN
  2
AcDbSun
  3
SCENEOE
 90
1153
 91
0
280
0
281
0
  0
CLASS
  1
VISUALSTYLE
  2
AcDbVisualStyle
  3
ObjectDBX Classes
 90
4095
 91
0
280
0
281
0
  0
CLASS
  1
MATERIAL
  2
AcDbMaterial
  3
ObjectDBX Classes
 90
1153
 91
0
280
0
281
0
  0
CLASS
  1
SCALE
  2
AcDbScale
  3
ObjectDBX Classes
 90
1153
 91
0
280
0
281
0
  0
CLASS
  1
TABLESTYLE
  2
AcDbTableStyle
  3
ObjectDBX Classes
 90
4095
 91
0
280
0
281
0
  0
CLASS
  1
MLEADERSTYLE
  2
AcDbMLeaderStyle
  3
ACDB_MLEADERSTYLE_CLASS
 90
4095
 91
0
280
0
281
0
  0
CLASS
  1
DICTIONARYVAR
  2
AcDbDictionaryVar
  3
ObjectDBX Classes
 90
0
 91
0
280
0
281
0
  0
CLASS
  1
CELLSTYLEMAP
  2
AcDbCellStyleMap
  3
ObjectDBX Classes
 90
1152
 91
0
280
0
281
0
  0
CLASS
  1
MENTALRAYRENDERSETTINGS
  2
AcDbMentalRayRenderSettings
  3
SCENEOE
 90
1024
 91
0
280
0
281
0
  0
CLASS
  1
ACDBDETAILVIEWSTYLE
  2
AcDbDetailViewStyle
  3
ObjectDBX Classes
 90
1025
 91
0
280
0
281
0
  0
CLASS
  1
ACDBSECTIONVIEWSTYLE
  2
AcDbSectionViewStyle
  3
ObjectDBX Classes
 90
1025
 91
0
280
0
281
0
  0
CLASS
  1
RASTERVARIABLES
  2
AcDbRasterVariables
  3
ISM
 90
0
 91
0
280
0
281
0
  0
CLASS
  1
ACDBPLACEHOLDER
  2
AcDbPlaceHolder
  3
ObjectDBX Classes
 90
0
 91
0
280
0
281
0
  0
CLASS
  1
LAYOUT
  2
AcDbLayout
  3
ObjectDBX Classes
 90
0
 91
0
280
0
281
0
  0
ENDSEC
  0
SECTION
  2
TABLES
  0
TABLE
  2
VPORT
  5
8
330
0
100
AcDbSymbolTable
 70
1
  0
VPORT
  5
61
330
8
100
AcDbSymbolTableRecord
100
AcDbViewportTableRecord
  2
*Active
 70
0
 10
0.0
 20
0.0
 11
1.0
 21
1.0
 12
2.6655918769348546
 22
2.7355895326763857e-13
 13
0.0
 23
0.0
 14
0.5
 24
0.5
 15
0.5
 25
0.5
 16
0.0
 26
0.0
 36
1.0
 17
0.0
 27
0.0
 37
0.0
 40
22.38746547456644
 41
1.34
 42
50.0
 43
0.0
 44
0.0
 50
0.0
 51
0.0
 71
0
 72
1000
 73
1
 74
3
 75
0
 76
0
 77
0
 78
0
281
0
 65
1
110
0.0
120
0.0
130
0.0
111
1.0
121
0.0
131
0.0
112
0.0
122
1.0
132
0.0
 79
0
146
0.0
  0
ENDTAB
  0
TABLE
  2
LTYPE
  5
2
330
0
100
AcDbSymbolTable
 70
4
  0
LTYPE
  5
24
330
2
100
AcDbSymbolTableRecord
100
AcDbLinetypeTableRecord
  2
ByBlock
 70
0
  3

 72
65
 73
0
 40
0.0
  0
LTYPE
  5
25
330
2
100
AcDbSymbolTableRecord
100
AcDbLinetypeTableRecord
  2
ByLayer
 70
0
  3

 72
65
 73
0
 40
0.0
  0
LTYPE
  5
26
330
2
100
AcDbSymbolTableRecord
100
AcDbLinetypeTableRecord
  2
Continuous
 70
0
  3

 72
65
 73
0
 40
0.0
  0
LTYPE
  5
30
330
2
100
AcDbSymbolTableRecord
100
AcDbLinetypeTableRecord
  2
ACAD_ISO02W100
 70
0
  3
ISO dash __ __ __ __ __ __ __ __ __ __ __ __ __
 72
65
 73
2
 40
15.0
 49
12.0
 74
0
 49
-3.0
 74
0
  0
ENDTAB
  0
TABLE
  2
LAYER
  5
1
330
0
100
AcDbSymbolTable
 70
4
  0
LAYER
  5
27
330
1
100
AcDbSymbolTableRecord
100
AcDbLayerTableRecord
  2
0
 70
0
 62
7
  6
Continuous
370
-3
390
13
347
21
  0
LAYER
  5
28
330
1
100
AcDbSymbolTableRecord
100
AcDbLayerTableRecord
  2
Defpoints
 70
0
 62
7
  6
Continuous
290
0
370
-3
390
13
347
21
  0
LAYER
  5
2F
330
1
100
AcDbSymbolTableRecord
100
AcDbLayerTableRecord
  2
VISIBLE
 70
0
 62
7
  6
Continuous
370
25
390
13
347
21
  0
LAYER
  5
31
330
1
100
AcDbSymbolTableRecord
100
AcDbLayerTableRecord
  2
HIDDEN
 70
0
 62
7
  6
ACAD_ISO02W100
370
13
390
13
347
21
  0
ENDTAB
  0
TABLE
  2
STYLE
  5
5
330
0
100
AcDbSymbolTable
 70
1
  0
STYLE
  5
29
330
5
100
AcDbSymbolTableRecord
100
AcDbTextStyleTableRecord
  2
Standard
 70
0
 40
0.0
 41
1.0
 50
0.0
 71
0
 42
2.5
  3
txt
  4

  0
ENDTAB
  0
TABLE
  2
VIEW
  5
7
330
0
100
AcDbSymbolTable
 70
0
  0
ENDTAB
  0
TABLE
  2
UCS
  5
6
330
0
100
AcDbSymbolTable
 70
0
  0
ENDTAB
  0
TABLE
  2
APPID
  5
3
330
0
100
AcDbSymbolTable
 70
3
  0
APPID
  5
2A
330
3
100
AcDbSymbolTableRecord
100
AcDbRegAppTableRecord
  2
ACAD
 70
0
  0
APPID
  5
62
330
3
100
AcDbSymbolTableRecord
100
AcDbRegAppTableRecord
  2
HATCHBACKGROUNDCOLOR
 70
0
  0
APPID
  5
63
330
3
100
AcDbSymbolTableRecord
100
AcDbRegAppTableRecord
  2
EZDXF
 70
0
  0
ENDTAB
  0
TABLE
  2
DIMSTYLE
  5
4
330
0
100
AcDbSymbolTable
 70
1
100
AcDbDimStyleTable
  0
DIMSTYLE
105
2B
330
4
100
AcDbSymbolTableRecord
100
AcDbDimStyleTableRecord
  2
Standard
 70
0
 40
1.0
 41
2.5
 42
0.625
 43
3.75
 44
1.25
 45
0.0
 46
0.0
 47
0.0
 48
0.0
 49
2.5
140
2.5
141
2.5
142
0.0
143
0.03937007874
144
1.0
145
0.0
146
1.0
147
0.625
148
0.0
 69
0
 70
0
 71
0
 72
0
 73
0
 74
0
 75
0
 76
0
 77
1
 78
8
 79
3
170
0
171
3
172
1
173
0
174
0
175
0
176
0
177
0
178
0
179
2
271
2
272
2
273
2
274
3
275
0
276
0
277
2
278
44
279
0
280
0
281
0
282
0
283
0
284
8
285
0
286
0
288
0
289
3
290
0
371
-2
372
-2
  0
ENDTAB
  0
TABLE
  2
BLOCK_RECORD
  5
9
330
0
100
AcDbSymbolTable
 70
2
  0
BLOCK_RECORD
  5
17
330
9
100
AcDbSymbolTableRecord
100
AcDbBlockTableRecord
  2
*Model_Space
340
1A
 70
0
280
1
281
0
  0
BLOCK_RECORD
  5
1B
330
9
100
AcDbSymbolTableRecord
100
AcDbBlockTableRecord
  2
*Paper_Space
340
1E
 70
0
280
1
281
0
  0
ENDTAB
  0
ENDSEC
  0
SECTION
  2
BLOCKS
  0
BLOCK
  5
18
330
17
100
AcDbEntity
  8
0
100
AcDbBlockBegin
  2
*Model_Space
 70
0
 10
0.0
 20
0.0
 30
0.0
  3
*Model_Space
  1

  0
ENDBLK
  5
19
330
17
100
AcDbEntity
  8
0
100
AcDbBlockEnd
  0
BLOCK
  5
1C
330
1B
100
AcDbEntity
  8
0
100
AcDbBlockBegin
  2
*Paper_Space
 70
0
 10
0.0
 20
0.0
 30
0.0
  3
*Paper_Space
  1

  0
ENDBLK
  5
1D
330
1B
100
AcDbEntity
  8
0
100
AcDbBlockEnd
  0
ENDSEC
  0
SECTION
  2
ENTITIES
  0
SPLINE
  5
32
330
17
100
AcDbEntity
  8
VISIBLE
100
AcDbSpline
 70
0
 71
3
 72
17
 73
13
 74
0
 40
0.0
 40
0.0
 40
0.0
 40
0.0
 40
0.07500097911197738
 40
0.07500097911197738
 40
0.07500097911197738
 40
0.15000195822395476
 40
0.15000195822395476
 40
0.15000195822395476
 40
0.22500293733593213
 40
0.22500293733593213
 40
0.22500293733593213
 40
0.3000039164479095
 40
0.3000039164479095
 40
0.3000039164479095
 40
0.3000039164479095
 10
14.513919999999992
 20
8.881784197001252e-15
 30
0.0
 10
14.516001500299176
 20
1.5711060313381522
 30
0.0
 10
13.96905428552556
 20
3.1407496231765344
 30
0.0
 10
12.931956872411325
 20
4.539959797466354
 30
0.0
 10
11.898568694827818
 20
5.940472165087269
 30
0.0
 10
10.376957493933602
 20
7.167945232450351
 30
0.0
 10
8.530923658229824
 20
8.090242277835799
 30
0.0
 10
6.687336722164475
 20
9.014859825418586
 30
0.0
 10
4.522761396714245
 20
9.632582272729097
 30
0.0
 10
2.270212739856971
 20
9.876912265424767
 30
0.0
 10
0.018315240936206165
 20
10.124075221762
 30
0.0
 10
-2.317362923920285
 20
9.997388257719795
 30
0.0
 10
-4.485387606478565
 20
9.510489119666483
 30
0.0
  0
SPLINE
  5
33
330
17
100
AcDbEntity
  8
VISIBLE
100
AcDbSpline
 70
0
 71
3
 72
23
 73
19
 74
0
 40
0.0
 40
0.0
 40
0.0
 40
0.0
 40
0.25000000000000006
 40
0.25000000000000006
 40
0.25000000000000006
 40
0.375
 40
0.375
 40
0.375
 40
0.49999999999999994
 40
0.49999999999999994
 40
0.49999999999999994
 40
0.6249999999999999
 40
0.6249999999999999
 40
0.6249999999999999
 40
0.7499999999999998
 40
0.7499999999999998
 40
0.7499999999999998
 40
1.0
 40
1.0
 40
1.0
 40
1.0
 10
-4.485387606478564
 20
9.510489119666481
 30
0.0
 10
-7.379983167535049
 20
8.867107953098825
 30
0.0
 10
-9.959629682178655
 20
7.575729988708493
 30
0.0
 10
-11.742112901318112
 20
5.877752980261908
 30
0.0
 10
-12.635821213760904
 20
5.030699051721353
 30
0.0
 10
-13.334309645683371
 20
4.0861630353074245
 30
0.0
 10
-13.803585784547433
 20
3.0901114214086096
 30
0.0
 10
-14.273654045583365
 20
2.094237133988864
 30
0.0
 10
-14.514336440486254
 20
1.04721531962331
 30
0.0
 10
-14.513919998076688
 20
-1.1324274851176597e-14
 30
0.0
 10
-14.51433644048623
 20
-1.047215319623293
 30
0.0
 10
-14.273654045583358
 20
-2.0942371339888264
 30
0.0
 10
-13.803585784547414
 20
-3.0901114214086323
 30
0.0
 10
-13.334309645683332
 20
-4.086163035307396
 30
0.0
 10
-12.63582121376088
 20
-5.030699051721335
 30
0.0
 10
-11.742112901318077
 20
-5.877752980261925
 30
0.0
 10
-9.959629682178601
 20
-7.575729988708474
 30
0.0
 10
-7.379983167534977
 20
-8.86710795309875
 30
0.0
 10
-4.485387606478513
 20
-9.510489119666493
 30
0.0
  0
SPLINE
  5
34
330
17
100
AcDbEntity
  8
VISIBLE
100
AcDbSpline
 70
0
 71
3
 72
17
 73
13
 74
0
 40
0.0
 40
0.0
 40
0.0
 40
0.0
 40
0.2500000000000003
 40
0.2500000000000003
 40
0.2500000000000003
 40
0.5000000000000002
 40
0.5000000000000002
 40
0.5000000000000002
 40
0.7500000000000001
 40
0.7500000000000001
 40
0.7500000000000001
 40
1.0
 40
1.0
 40
1.0
 40
1.0
 10
-4.485387606478513
 20
-9.51048911966649
 30
0.0
 10
-2.317362923920251
 20
-9.99738825771972
 30
0.0
 10
0.0183152409362551
 20
-10.12407522176192
 30
0.0
 10
2.2702127398570093
 20
-9.876912265424759
 30
0.0
 10
4.522761396714279
 20
-9.632582272728996
 30
0.0
 10
6.6873367221645585
 20
-9.014859825418426
 30
0.0
 10
8.530923658229856
 20
-8.090242277835786
 30
0.0
 10
10.376957493933647
 20
-7.167945232450258
 30
0.0
 10
11.898568694827945
 20
-5.940472165087252
 30
0.0
 10
12.931956872411329
 20
-4.539959797466377
 30
0.0
 10
13.969054285525614
 20
-3.1407496231766023
 30
0.0
 10
14.516001500299296
 20
-1.571106031336594
 30
0.0
 10
14.513919999999997
 20
-1.2878587085651816e-14
 30
0.0
  0
SPLINE
  5
35
330
17
100
AcDbEntity
  8
VISIBLE
100
AcDbSpline
 70
0
 71
3
 72
20
 73
16
 74
0
 40
0.0
 40
0.0
 40
0.0
 40
0.0
 40
1.0
 40
1.0
 40
1.0
 40
3.5144851901216594
 40
3.5144851901216594
 40
3.5144851901216594
 40
6.028970380243319
 40
6.028970380243319
 40
6.028970380243319
 40
8.817886308085598
 40
8.817886308085598
 40
8.817886308085598
 40
11.198130007362508
 40
11.198130007362508
 40
11.198130007362508
 40
11.198130007362508
 10
5.999999999999999
 20
10.415462967301197
 30
0.0
 10
5.999977003046424
 20
10.397986427492404
 30
0.0
 10
5.971934843747334
 20
10.385181170042175
 30
0.0
 10
5.9158735221027285
 20
10.377047194950507
 30
0.0
 10
5.775588702811843
 20
10.356154625756911
 30
0.0
 10
5.456260634758637
 20
10.368846913205989
 30
0.0
 10
4.986769130950039
 20
10.396930906985137
 30
0.0
 10
4.518160171693462
 20
10.424399657664726
 30
0.0
 10
3.8998354446833923
 20
10.46525792893856
 30
0.0
 10
3.184370882137933
 20
10.484071632660692
 30
0.0
 10
2.3918827277787567
 20
10.505442569230537
 30
0.0
 10
1.4780652620149395
 20
10.496682041830697
 30
0.0
 10
0.5507404167214692
 20
10.422353742162992
 30
0.0
 10
-0.2405445422626559
 20
10.359963229477335
 30
0.0
 10
-1.0375253625572947
 20
10.249964318228045
 30
0.0
 10
-1.7729211125288526
 20
10.097123253675116
 30
0.0
  0
SPLINE
  5
36
330
17
100
AcDbEntity
  8
VISIBLE
100
AcDbSpline
 70
0
 71
2
 72
6
 73
3
 74
0
 40
0.0
 40
0.0
 40
0.0
 40
1.0
 40
1.0
 40
1.0
 10
-0.6414285436981633
 20
10.292412900006031
 30
0.0
 10
-0.06445113089778404
 20
10.439306662847887
 30
0.0
 10
0.5298334674269665
 20
10.547958606559416
 30
0.0
  0
SPLINE
  5
37
330
17
100
AcDbEntity
  8
VISIBLE
100
AcDbSpline
 70
0
 71
3
 72
14
 73
10
 74
0
 40
0.0
 40
0.0
 40
0.0
 40
0.0
 40
0.3487470592931951
 40
0.3487470592931951
 40
0.3487470592931951
 40
0.5692447170196051
 40
0.5692447170196051
 40
0.5692447170196051
 40
1.0
 40
1.0
 40
1.0
 40
1.0
 10
0.5298334674269667
 20
10.547958606559416
 30
0.0
 10
1.534898430085891
 20
10.732999337368549
 30
0.0
 10
2.5507700093733967
 20
10.815425919325262
 30
0.0
 10
3.406670761245044
 20
10.80788175959633
 30
0.0
 10
3.948607846151674
 20
10.804398058125456
 30
0.0
 10
4.427095892496975
 20
10.76849471845976
 30
0.0
 10
4.816976691888187
 20
10.7190073594047
 30
0.0
 10
5.5809663092918305
 20
10.62095004916514
 30
0.0
 10
6.002028240362106
 20
10.47999863978629
 30
0.0
 10
6.0
 20
10.415462967301197
 30
0.0
  0
SPLINE
  5
38
330
17
100
AcDbEntity
  8
VISIBLE
100
AcDbSpline
 70
0
 71
3
 72
14
 73
10
 74
0
 40
0.0
 40
0.0
 40
0.0
 40
0.0
 40
0.1388099718234993
 40
0.1388099718234993
 40
0.1388099718234993
 40
0.2747097210879017
 40
0.2747097210879017
 40
0.2747097210879017
 40
0.48196816747397553
 40
0.48196816747397553
 40
0.48196816747397553
 40
0.48196816747397553
 10
5.999999999999999
 20
-10.415462967301199
 30
0.0
 10
6.0004685491774294
 20
-10.459469784914445
 30
0.0
 10
5.814454331533259
 20
-10.535052867178718
 30
0.0
 10
5.460656365922678
 20
-10.611710354307217
 30
0.0
 10
5.115149792684171
 20
-10.68628829282925
 30
0.0
 10
4.608405777504886
 20
-10.760068242284136
 30
0.0
 10
3.978945455122728
 20
-10.791759313721007
 30
0.0
 10
3.0225958512868636
 20
-10.844067369688995
 30
0.0
 10
1.7701496834125083
 20
-10.778069037365562
 30
0.0
 10
0.5298330534322617
 20
-10.547958533255098
 30
0.0
  0
SPLINE
  5
39
330
17
100
AcDbEntity
  8
VISIBLE
100
AcDbSpline
 70
0
 71
2
 72
6
 73
3
 74
0
 40
0.0
 40
0.0
 40
0.0
 40
1.0
 40
1.0
 40
1.0
 10
0.5298330534322615
 20
-10.547958533255098
 30
0.0
 10
-0.06441774562656201
 20
-10.43931391762551
 30
0.0
 10
-0.6414285636477903
 20
-10.292412894619602
 30
0.0
  0
SPLINE
  5
3A
330
17
100
AcDbEntity
  8
VISIBLE
100
AcDbSpline
 70
0
 71
3
 72
17
 73
13
 74
0
 40
0.0
 40
0.0
 40
0.0
 40
0.0
 40
0.2094450977670118
 40
0.2094450977670118
 40
0.2094450977670118
 40
0.39928579741360226
 40
0.39928579741360226
 40
0.39928579741360226
 40
0.7521515663913945
 40
0.7521515663913945
 40
0.7521515663913945
 40
1.0
 40
1.0
 40
1.0
 40
1.0
 10
-1.772921158727713
 20
-10.097123240091983
 30
0.0
 10
-1.0481794550736518
 20
-10.247726836240423
 30
0.0
 10
-0.2636473731885951
 20
-10.356803440466242
 30
0.0
 10
0.5163580130286203
 20
-10.419592850356706
 30
0.0
 10
1.2231926244170386
 20
-10.477165434775657
 30
0.0
 10
1.9239947006284877
 20
-10.497354335741454
 30
0.0
 10
2.5688463855496617
 20
-10.493852034500879
 30
0.0
 10
3.7701314632618828
 20
-10.487594279444185
 30
0.0
 10
4.767947657500475
 20
-10.403569040698
 30
0.0
 10
5.3611261622163395
 20
-10.376629397015908
 30
0.0
 10
5.780350728830451
 20
-10.35619574163429
 30
0.0
 10
6.000992286401451
 20
-10.366222622790579
 30
0.0
 10
6.0
 20
-10.415462967301197
 30
0.0
  0
SPLINE
  5
3B
330
17
100
AcDbEntity
  8
VISIBLE
100
AcDbSpline
 70
0
 71
3
 72
35
 73
31
 74
0
 40
0.0
 40
0.0
 40
0.0
 40
0.0
 40
0.16666666666666666
 40
0.16666666666666666
 40
0.16666666666666666
 40
0.3333333333333333
 40
0.3333333333333333
 40
0.3333333333333333
 40
0.375
 40
0.375
 40
0.375
 40
0.41666666666666663
 40
0.41666666666666663
 40
0.41666666666666663
 40
0.5
 40
0.5
 40
0.5
 40
0.5833333333333333
 40
0.5833333333333333
 40
0.5833333333333333
 40
0.6666666666666666
 40
0.6666666666666666
 40
0.6666666666666666
 40
0.75
 40
0.75
 40
0.75
 40
0.8333333333333333
 40
0.8333333333333333
 40
0.8333333333333333
 40
1.0
 40
1.0
 40
1.0
 40
1.0
 10
19.84169138331647
 20
1.7763568394002505e-15
 30
0.0
 10
19.845520194355966
 20
1.6846546459569702
 30
0.0
 10
19.38271232049285
 20
3.361151889761904
 30
0.0
 10
18.558125488197494
 20
4.82405939411364
 30
0.0
 10
17.738372753267765
 20
6.290867062984773
 30
0.0
 10
16.556841059905842
 20
7.5440849924027145
 30
0.0
 10
15.253742860820372
 20
8.48748545160961
 30
0.0
 10
14.692524006986323
 20
8.895962232984697
 30
0.0
 10
14.106031292074327
 20
9.250012995842988
 30
0.0
 10
13.532722392419336
 20
9.544755555418128
 30
0.0
 10
12.958815848098103
 20
9.840078952442664
 30
0.0
 10
12.398053109047304
 20
10.07730938638735
 30
0.0
 10
11.871968141006665
 20
10.267461279016977
 30
0.0
 10
10.816153161181282
 20
10.647525217716185
 30
0.0
 10
9.910719278096481
 20
10.844362373601932
 30
0.0
 10
9.1679876187352
 20
10.967749729872386
 30
0.0
 10
8.42244560350767
 20
11.089289858636777
 30
0.0
 10
7.827528167303174
 20
11.138259148105341
 30
0.0
 10
7.320019935233665
 20
11.165571810823772
 30
0.0
 10
6.812276151222542
 20
11.191463953383652
 30
0.0
 10
6.393719321571513
 20
11.193732737283494
 30
0.0
 10
6.007886545127643
 20
11.187269070714892
 30
0.0
 10
5.391477805622509
 20
11.175113001114168
 30
0.0
 10
4.879551402431211
 20
11.142126535081223
 30
0.0
 10
4.404668030248191
 20
11.100751754693835
 30
0.0
 10
3.9311033225557996
 20
11.059056808580038
 30
0.0
 10
3.4959849120046327
 20
11.00856650590225
 30
0.0
 10
3.068796099026866
 20
10.952758288399224
 30
0.0
 10
2.2162004781565665
 20
10.841185977736929
 30
0.0
 10
1.3981119992848385
 20
10.705413647483997
 30
0.0
 10
0.5298331676025758
 20
10.547958554091878
 30
0.0
  0
SPLINE
  5
3C
330
17
100
AcDbEntity
  8
VISIBLE
100
AcDbSpline
 70
0
 71
2
 72
6
 73
3
 74
0
 40
0.0
 40
0.0
 40
0.0
 40
1.0
 40
1.0
 40
1.0
 10
-4.4853876064785645
 20
9.51048911966649
 30
0.0
 10
-3.0468621660595065
 20
9.832930836681978
 30
0.0
 10
-1.7729210727445197
 20
10.097123258605988
 30
0.0
  0
SPLINE
  5
3D
330
17
100
AcDbEntity
  8
VISIBLE
100
AcDbSpline
 70
0
 71
2
 72
6
 73
3
 74
0
 40
0.0
 40
0.0
 40
0.0
 40
1.0
 40
1.0
 40
1.0
 10
-4.485387606478501
 20
-9.510489119666486
 30
0.0
 10
-3.046862157149323
 20
-9.832930838684366
 30
0.0
 10
-1.772921056880029
 20
-10.09712326189129
 30
0.0
  0
SPLINE
  5
3E
330
17
100
AcDbEntity
  8
VISIBLE
100
AcDbSpline
 70
0
 71
3
 72
35
 73
31
 74
0
 40
0.0
 40
0.0
 40
0.0
 40
0.0
 40
0.16666666666666666
 40
0.16666666666666666
 40
0.16666666666666666
 40
0.3333333333333333
 40
0.3333333333333333
 40
0.3333333333333333
 40
0.375
 40
0.375
 40
0.375
 40
0.41666666666666663
 40
0.41666666666666663
 40
0.41666666666666663
 40
0.5
 40
0.5
 40
0.5
 40
0.5833333333333333
 40
0.5833333333333333
 40
0.5833333333333333
 40
0.6666666666666666
 40
0.6666666666666666
 40
0.6666666666666666
 40
0.75
 40
0.75
 40
0.75
 40
0.8333333333333333
 40
0.8333333333333333
 40
0.8333333333333333
 40
1.0
 40
1.0
 40
1.0
 40
1.0
 10
19.841691383316455
 20
-5.329070518200751e-15
 30
0.0
 10
19.845520194355693
 20
-1.6846546459370337
 30
0.0
 10
19.382712320503924
 20
-3.3611518897225894
 30
0.0
 10
18.558125488226544
 20
-4.824059394061958
 30
0.0
 10
17.738372753314632
 20
-6.290867062920552
 30
0.0
 10
16.556841059977167
 20
-7.544084992332968
 30
0.0
 10
15.25374286091223
 20
-8.487485451542899
 30
0.0
 10
14.692524007084286
 20
-8.895962232921397
 30
0.0
 10
14.106031292176466
 20
-9.25001299578426
 30
0.0
 10
13.5327223925235
 20
-9.544755555364492
 30
0.0
 10
12.958815848204322
 20
-9.840078952394107
 30
0.0
 10
12.398053109153501
 20
-10.077309386344309
 30
0.0
 10
11.871968141111475
 20
-10.267461278979052
 30
0.0
 10
10.816153161283255
 20
-10.647525217688635
 30
0.0
 10
9.910719278190566
 20
-10.844362373582465
 30
0.0
 10
9.167987618822115
 20
-10.967749729858072
 30
0.0
 10
8.422445603587265
 20
-11.089289858627707
 30
0.0
 10
7.827528167376142
 20
-11.138259148099463
 30
0.0
 10
7.320019935301799
 20
-11.1655718108203
 30
0.0
 10
6.812276151285803
 20
-11.191463953382764
 30
0.0
 10
6.393719321631314
 20
-11.193732737282946
 30
0.0
 10
6.007886545185609
 20
-11.187269070715917
 30
0.0
 10
5.391477805112925
 20
-11.175113001102549
 30
0.0
 10
4.879551401528817
 20
-11.142126535025124
 30
0.0
 10
4.404668028979447
 20
-11.100751754583378
 30
0.0
 10
3.931103320924112
 20
-11.05905680841456
 30
0.0
 10
3.495984910040502
 20
-11.008566505670926
 30
0.0
 10
3.068796096707719
 20
-10.952758288094548
 30
0.0
 10
2.2162004751289306
 20
-10.841185977286441
 30
0.0
 10
1.3981119954799774
 20
-10.705413646847713
 30
0.0
 10
0.5298331628523834
 20
-10.547958553226405
 30
0.0
  0
SPLINE
  5
3F
330
17
100
AcDbEntity
  8
HIDDEN
100
AcDbSpline
 70
0
 71
3
 72
17
 73
13
 74
0
 40
0.0
 40
0.0
 40
0.0
 40
0.0
 40
0.5171703540295975
 40
0.5171703540295975
 40
0.5171703540295975
 40
0.7657101270830939
 40
0.7657101270830939
 40
0.7657101270830939
 40
0.8977718540380717
 40
0.8977718540380717
 40
0.8977718540380717
 40
1.0
 40
1.0
 40
1.0
 40
1.0
 10
13.6
 20
-3.5
 30
0.0
 10
13.599999999999996
 20
-3.1490334960098245
 30
0.0
 10
13.600000000000001
 20
-2.7600039741852065
 30
0.0
 10
13.6
 20
-2.2444737369019894
 30
0.0
 10
13.60000000000001
 20
-1.9939711914834046
 30
0.0
 10
13.599999999999996
 20
-1.7153823824930126
 30
0.0
 10
13.6
 20
-1.3560368984199653
 30
0.0
 10
13.600000000000009
 20
-1.1642024366230301
 30
0.0
 10
13.599999999999998
 20
-0.9477205507959533
 30
0.0
 10
13.599999999999998
 20
-0.6848996527759516
 30
0.0
 10
13.60000000000001
 20
-0.4825092719417373
 30
0.0
 10
13.599999999999994
 20
-0.24526017858527172
 30
0.0
 10
13.6
 20
-1.3322676295501878e-14
 30
0.0
  0
SPLINE
  5
40
330
17
100
AcDbEntity
  8
HIDDEN
100
AcDbSpline
 70
0
 71
3
 72
8
 73
4
 74
0
 40
0.0
 40
0.0
 40
0.0
 40
0.0
 40
1.0
 40
1.0
 40
1.0
 40
1.0
 10
13.6
 20
-3.5
 30
0.0
 10
12.39303256976554
 20
-3.4999999999999987
 30
0.0
 10
10.986190384836574
 20
-3.4999999999999996
 30
0.0
 10
9.318710459762228
 20
-3.5
 30
0.0
  0
SPLINE
  5
41
330
17
100
AcDbEntity
  8
HIDDEN
100
AcDbSpline
 70
0
 71
3
 72
8
 73
4
 74
0
 40
0.0
 40
0.0
 40
0.0
 40
0.0
 40
1.0
 40
1.0
 40
1.0
 40
1.0
 10
-9.318710469036155
 20
-3.5000000000000098
 30
0.0
 10
-8.466890737027517
 20
-4.461884148236478
 30
0.0
 10
-7.256609683419865
 20
-5.287896143107754
 30
0.0
 10
-5.8205300455855
 20
-5.8874941808469865
 30
0.0
  0
SPLINE
  5
42
330
17
100
AcDbEntity
  8
HIDDEN
100
AcDbSpline
 70
0
 71
3
 72
17
 73
13
 74
0
 40
0.0
 40
0.0
 40
0.0
 40
0.0
 40
0.2500000000000001
 40
0.2500000000000001
 40
0.2500000000000001
 40
0.5000000000000002
 40
0.5000000000000002
 40
0.5000000000000002
 40
0.7500000000000003
 40
0.7500000000000003
 40
0.7500000000000003
 40
1.0
 40
1.0
 40
1.0
 40
1.0
 10
-5.820530045585498
 20
-5.8874941808469865
 30
0.0
 10
-4.600043200497928
 20
-6.398782607774377
 30
0.0
 10
-3.218710227666541
 20
-6.746488494745535
 30
0.0
 10
-1.7870760844763236
 20
-6.902785736564616
 30
0.0
 10
-0.3557224135099716
 20
-7.060166334253009
 30
0.0
 10
1.1244796338892842
 20
-7.025979118576293
 30
0.0
 10
2.5350728343821443
 20
-6.8029600149770575
 30
0.0
 10
3.9460639011852447
 20
-6.581008600185231
 30
0.0
 10
5.286014336355356
 20
-6.170451087899043
 30
0.0
 10
6.44769092955284
 20
-5.604143450479835
 30
0.0
 10
7.610379454581186
 20
-5.0387153556131254
 30
0.0
 10
8.593614659895215
 20
-4.318111423692216
 30
0.0
 10
9.318710459762135
 20
-3.50000000000004
 30
0.0
  0
SPLINE
  5
43
330
17
100
AcDbEntity
  8
HIDDEN
100
AcDbSpline
 70
0
 71
3
 72
11
 73
7
 74
0
 40
0.0
 40
0.0
 40
0.0
 40
0.0
 40
0.774382231329848
 40
0.774382231329848
 40
0.774382231329848
 40
1.0
 40
1.0
 40
1.0
 40
1.0
 10
-11.580519143751827
 20
-3.5
 30
0.0
 10
-8.178509627680773
 20
-3.499999999999998
 30
0.0
 10
-6.019747049253136
 20
-3.5000000000000018
 30
0.0
 10
-5.238598711215671
 20
-3.5
 30
0.0
 10
-5.0097545618212465
 20
-3.4999999999999996
 30
0.0
 10
-4.895422791176379
 20
-3.5000000000000004
 30
0.0
 10
-4.895603399281068
 20
-3.5
 30
0.0
  0
SPLINE
  5
44
330
17
100
AcDbEntity
  8
HIDDEN
100
AcDbSpline
 70
0
 71
3
 72
14
 73
10
 74
0
 40
0.0
 40
0.0
 40
0.0
 40
0.0
 40
0.36093666832111493
 40
0.36093666832111493
 40
0.36093666832111493
 40
0.6452423433241872
 40
0.6452423433241872
 40
0.6452423433241872
 40
1.0
 40
1.0
 40
1.0
 40
1.0
 10
-4.895603399281068
 20
-3.5
 30
0.0
 10
-4.897126613384004
 20
-3.5
 30
0.0
 10
-5.101897013303614
 20
-3.5
 30
0.0
 10
-5.5099145990398934
 20
-3.5
 30
0.0
 10
-5.831937194953066
 20
-3.499999999999999
 30
0.0
 10
-6.26985144339135
 20
-3.500000000000001
 30
0.0
 10
-6.82365734435473
 20
-3.5
 30
0.0
 10
-7.508928233815204
 20
-3.499999999999998
 30
0.0
 10
-8.373357745219854
 20
-3.500000000000001
 30
0.0
 10
-9.31871046903616
 20
-3.5
 30
0.0
  0
SPLINE
  5
45
330
17
100
AcDbEntity
  8
HIDDEN
100
AcDbSpline
 70
0
 71
3
 72
11
 73
7
 74
0
 40
0.0
 40
0.0
 40
0.0
 40
0.0
 40
0.4988229541217094
 40
0.4988229541217094
 40
0.4988229541217094
 40
1.0
 40
1.0
 40
1.0
 40
1.0
 10
-11.580519097316255
 20
-3.5000000000000036
 30
0.0
 10
-11.989983820474286
 20
-2.4231120187423336
 30
0.0
 10
-12.202740671277848
 20
-1.2268095878190852
 30
0.0
 10
-12.203623767798149
 20
-0.007910984760073347
 30
0.0
 10
-12.20461134142796
 20
1.2162666090222027
 30
0.0
 10
-11.991777679063356
 20
2.418319283404083
 30
0.0
 10
-11.580519097316262
 20
3.499999999999999
 30
0.0
  0
SPLINE
  5
46
330
17
100
AcDbEntity
  8
HIDDEN
100
AcDbSpline
 70
0
 71
3
 72
11
 73
7
 74
0
 40
0.0
 40
0.0
 40
0.0
 40
0.0
 40
0.7743822313285025
 40
0.7743822313285025
 40
0.7743822313285025
 40
1.0
 40
1.0
 40
1.0
 40
1.0
 10
-11.580519143753111
 20
3.5
 30
0.0
 10
-8.178509627692014
 20
3.4999999999999987
 30
0.0
 10
-6.019747049268589
 20
3.4999999999999996
 30
0.0
 10
-5.238598711223869
 20
3.5
 30
0.0
 10
-5.009754561824017
 20
3.5
 30
0.0
 10
-4.895422791176394
 20
3.5000000000000004
 30
0.0
 10
-4.895603399281008
 20
3.5
 30
0.0
  0
SPLINE
  5
47
330
17
100
AcDbEntity
  8
HIDDEN
100
AcDbSpline
 70
0
 71
3
 72
14
 73
10
 74
0
 40
0.0
 40
0.0
 40
0.0
 40
0.0
 40
0.36093666831867083
 40
0.36093666831867083
 40
0.36093666831867083
 40
0.645242343321317
 40
0.645242343321317
 40
0.645242343321317
 40
1.0
 40
1.0
 40
1.0
 40
1.0
 10
-4.895603399281007
 20
3.5
 30
0.0
 10
-4.897126613383916
 20
3.4999999999999987
 30
0.0
 10
-5.101897013299964
 20
3.5
 30
0.0
 10
-5.509914599029125
 20
3.5
 30
0.0
 10
-5.831937194939527
 20
3.4999999999999987
 30
0.0
 10
-6.269851443375201
 20
3.5
 30
0.0
 10
-6.823657344336128
 20
3.5
 30
0.0
 10
-7.508928233799711
 20
3.4999999999999982
 30
0.0
 10
-8.373357745211518
 20
3.5000000000000013
 30
0.0
 10
-9.318710469036168
 20
3.5
 30
0.0
  0
SPLINE
  5
48
330
17
100
AcDbEntity
  8
HIDDEN
100
AcDbSpline
 70
0
 71
3
 72
17
 73
13
 74
0
 40
0.0
 40
0.0
 40
0.0
 40
0.0
 40
0.25000000000000006
 40
0.25000000000000006
 40
0.25000000000000006
 40
0.5
 40
0.5
 40
0.5
 40
0.75
 40
0.75
 40
0.75
 40
1.0
 40
1.0
 40
1.0
 40
1.0
 10
9.318710459762132
 20
3.499999999999999
 30
0.0
 10
8.593614659884404
 20
4.318111423690117
 30
0.0
 10
7.610379454581821
 20
5.038715355613246
 30
0.0
 10
6.447690929552083
 20
5.604143450479638
 30
0.0
 10
5.286014336355518
 20
6.170451087899033
 30
0.0
 10
3.946063901185156
 20
6.581008600185222
 30
0.0
 10
2.535072834382129
 20
6.8029600149770655
 30
0.0
 10
1.124479633889259
 20
7.025979118576276
 30
0.0
 10
-0.35572241350999123
 20
7.060166334253017
 30
0.0
 10
-1.7870760844763418
 20
6.902785736564606
 30
0.0
 10
-3.2187102276665582
 20
6.746488494745528
 30
0.0
 10
-4.600043200497974
 20
6.398782607774391
 30
0.0
 10
-5.8205300455854045
 20
5.887494180846922
 30
0.0
  0
SPLINE
  5
49
330
17
100
AcDbEntity
  8
HIDDEN
100
AcDbSpline
 70
0
 71
3
 72
8
 73
4
 74
0
 40
0.0
 40
0.0
 40
0.0
 40
0.0
 40
1.0
 40
1.0
 40
1.0
 40
1.0
 10
-5.820530045585406
 20
5.8874941808469226
 30
0.0
 10
-7.25660968342037
 20
5.287896143107701
 30
0.0
 10
-8.466890737024682
 20
4.461884148235819
 30
0.0
 10
-9.318710469036175
 20
3.500000000000001
 30
0.0
  0
SPLINE
  5
4A
330
17
100
AcDbEntity
  8
HIDDEN
100
AcDbSpline
 70
0
 71
3
 72
8
 73
4
 74
0
 40
0.0
 40
0.0
 40
0.0
 40
0.0
 40
1.0
 40
1.0
 40
1.0
 40
1.0
 10
13.600000000000001
 20
3.5
 30
0.0
 10
12.393032569765499
 20
3.4999999999999987
 30
0.0
 10
10.986190384836563
 20
3.4999999999999996
 30
0.0
 10
9.318710459762132
 20
3.5
 30
0.0
  0
SPLINE
  5
4B
330
17
100
AcDbEntity
  8
HIDDEN
100
AcDbSpline
 70
0
 71
3
 72
17
 73
13
 74
0
 40
0.0
 40
0.0
 40
0.0
 40
0.0
 40
0.5171703557987544
 40
0.5171703557987544
 40
0.5171703557987544
 40
0.7657101282842629
 40
0.7657101282842629
 40
0.7657101282842629
 40
0.8977718549061011
 40
0.8977718549061011
 40
0.8977718549061011
 40
1.0
 40
1.0
 40
1.0
 40
1.0
 10
13.6
 20
3.5
 30
0.0
 10
13.599999999999996
 20
3.1490334947728313
 30
0.0
 10
13.600000000000001
 20
2.760003971580687
 30
0.0
 10
13.6
 20
2.2444737315662486
 30
0.0
 10
13.599999999999998
 20
1.993971186225373
 30
0.0
 10
13.599999999999998
 20
1.7153823772950134
 30
0.0
 10
13.6
 20
1.3560368931714253
 30
0.0
 10
13.600000000000007
 20
1.1642024313995358
 30
0.0
 10
13.6
 20
0.9477205455410674
 30
0.0
 10
13.6
 20
0.6848996475708362
 30
0.0
 10
13.599999999999996
 20
0.48250926796618177
 30
0.0
 10
13.600000000000001
 20
0.24526017646109283
 30
0.0
 10
13.6
 20
-4.440892098500626e-15
 30
0.0
  0
SPLINE
  5
4C
330
17
100
AcDbEntity
  8
HIDDEN
100
AcDbSpline
 70
0
 71
3
 72
14
 73
10
 74
0
 40
0.0
 40
0.0
 40
0.0
 40
0.0
 40
0.44707827748755957
 40
0.44707827748755957
 40
0.44707827748755957
 40
0.7297477390557268
 40
0.7297477390557268
 40
0.7297477390557268
 40
1.0
 40
1.0
 40
1.0
 40
1.0
 10
-1.7729211125288529
 20
10.097123253675116
 30
0.0
 10
-2.88103222703605
 20
9.869206639477813
 30
0.0
 10
-3.841807569088247
 20
9.543991741263206
 30
0.0
 10
-4.560221155854768
 20
9.212016223505106
 30
0.0
 10
-5.015282460441628
 20
9.003074099703403
 30
0.0
 10
-5.378110196529697
 20
8.791997777876691
 30
0.0
 10
-5.627645005554579
 20
8.616887695657452
 30
0.0
 10
-5.866524578753655
 20
8.449486138596564
 30
0.0
 10
-6.000605649096477
 20
8.315865725461448
 30
0.0
 10
-6.000000001257707
 20
8.263409564790292
 30
0.0
  0
SPLINE
  5
4D
330
17
100
AcDbEntity
  8
HIDDEN
100
AcDbSpline
 70
0
 71
3
 72
17
 73
13
 74
0
 40
0.0
 40
0.0
 40
0.0
 40
0.0
 40
0.19684157220479873
 40
0.19684157220479873
 40
0.19684157220479873
 40
0.4270394412504519
 40
0.4270394412504519
 40
0.4270394412504519
 40
0.6572373102961051
 40
0.6572373102961051
 40
0.6572373102961051
 40
1.0
 40
1.0
 40
1.0
 40
1.0
 10
-6.000000001257707
 20
8.26340956479029
 30
0.0
 10
-5.99906020462329
 20
8.218232689304173
 30
0.0
 10
-5.906180470853799
 20
8.232120092141397
 30
0.0
 10
-5.721360799949242
 20
8.305071773301977
 30
0.0
 10
-5.507807251556416
 20
8.389101505135399
 30
0.0
 10
-5.182285452817544
 20
8.547791860242326
 30
0.0
 10
-4.780686852357428
 20
8.739255173180199
 30
0.0
 10
-4.378454520667827
 20
8.931012294047184
 30
0.0
 10
-3.9012020800156124
 20
9.153891639284613
 30
0.0
 10
-3.367167802528016
 20
9.376052512676159
 30
0.0
 10
-2.5723288007639877
 20
9.707633568507678
 30
0.0
 10
-1.6434646136940787
 20
10.038570656128318
 30
0.0
 10
-0.6414285436981633
 20
10.292412900006031
 30
0.0
  0
SPLINE
  5
4E
330
17
100
AcDbEntity
  8
HIDDEN
100
AcDbSpline
 70
0
 71
3
 72
17
 73
13
 74
0
 40
0.0
 40
0.0
 40
0.0
 40
0.0
 40
0.341331147880316
 40
0.341331147880316
 40
0.341331147880316
 40
0.5803138681413194
 40
0.5803138681413194
 40
0.5803138681413194
 40
0.8990621195486184
 40
0.8990621195486184
 40
0.8990621195486184
 40
1.0
 40
1.0
 40
1.0
 40
1.0
 10
-0.6414285636477906
 20
-10.2924128946196
 30
0.0
 10
-1.6393606343653204
 20
-10.039598930615448
 30
0.0
 10
-2.5645618662335212
 20
-9.71040970753892
 30
0.0
 10
-3.3571425120477763
 20
-9.380222692195497
 30
0.0
 10
-3.9124649255279573
 20
-9.149526265429067
 30
0.0
 10
-4.4065893889382
 20
-8.917849590920476
 30
0.0
 10
-4.818871165945279
 20
-8.721050566314338
 30
0.0
 10
-5.36844399123568
 20
-8.457810547496994
 30
0.0
 10
-5.771743028292229
 20
-8.263220804836124
 30
0.0
 10
-5.926136261663492
 20
-8.24040291249484
 30
0.0
 10
-5.975392548720264
 20
-8.232622581004593
 30
0.0
 10
-6.000013794726022
 20
-8.240291463975478
 30
0.0
 10
-5.999999999680764
 20
-8.263409561407501
 30
0.0
  0
SPLINE
  5
4F
330
17
100
AcDbEntity
  8
HIDDEN
100
AcDbSpline
 70
0
 71
3
 72
11
 73
7
 74
0
 40
0.0
 40
0.0
 40
0.0
 40
0.0
 40
0.5553010729989283
 40
0.5553010729989283
 40
0.5553010729989283
 40
1.0
 40
1.0
 40
1.0
 40
1.0
 10
-5.999999999680764
 20
-8.263409561407503
 30
0.0
 10
-5.9983959428520075
 20
-8.37441286878997
 30
0.0
 10
-5.445218672256996
 20
-8.809183805685533
 30
0.0
 10
-4.551028886395372
 20
-9.21623515480676
 30
0.0
 10
-3.8337254064937856
 20
-9.546766500706074
 30
0.0
 10
-2.8761900471170865
 20
-9.870190470207383
 30
0.0
 10
-1.772921158727713
 20
-10.097123240091985
 30
0.0
  0
LINE
  5
50
330
17
100
AcDbEntity
  8
HIDDEN
100
AcDbLine
 10
6.0
 20
-3.5
 30
0.0
 11
6.0
 21
-10.415462967301199
 31
0.0
  0
SPLINE
  5
51
330
17
100
AcDbEntity
  8
HIDDEN
100
AcDbSpline
 70
0
 71
1
 72
17
 73
15
 74
0
 40
0.0
 40
0.0
 40
0.2243994752564138
 40
0.4487989505128276
 40
0.6731984257692414
 40
0.8975979010256552
 40
1.121997376282069
 40
1.3463968515384828
 40
1.5707963267948966
 40
1.7951958020513104
 40
2.019595277307724
 40
2.243994752564138
 40
2.4683942278205517
 40
2.6927937030769655
 40
2.9171931783333793
 40
3.141592653589793
 40
3.141592653589793
 10
6.0
 20
-3.5
 30
0.0
 10
5.849567473090942
 20
-3.4999999999999996
 30
0.0
 10
5.405813207414514
 20
-3.499999999999999
 30
0.0
 10
4.690988894808179
 20
-3.499999999999999
 30
0.0
 10
3.740938811152401
 20
-3.499999999999999
 30
0.0
 10
2.6033024347053493
 20
-3.4999999999999987
 30
0.0
 10
1.3351256037378865
 20
-3.4999999999999987
 30
0.0
 10
4.440892098500626e-16
 20
-3.4999999999999987
 30
0.0
 10
-1.335125603737886
 20
-3.4999999999999987
 30
0.0
 10
-2.6033024347053484
 20
-3.499999999999999
 30
0.0
 10
-3.7409388111524007
 20
-3.499999999999999
 30
0.0
 10
-4.690988894808179
 20
-3.499999999999999
 30
0.0
 10
-5.405813207414514
 20
-3.4999999999999996
 30
0.0
 10
-5.849567473090943
 20
-3.5
 30
0.0
 10
-6.0
 20
-3.5
 30
0.0
  0
SPLINE
  5
52
330
17
100
AcDbEntity
  8
HIDDEN
100
AcDbSpline
 70
0
 71
1
 72
17
 73
15
 74
0
 40
0.0
 40
0.0
 40
0.07142857142857142
 40
0.14285714285714285
 40
0.21428571428571427
 40
0.2857142857142857
 40
0.35714285714285715
 40
0.42857142857142855
 40
0.5
 40
0.5714285714285714
 40
0.6428571428571429
 40
0.7142857142857143
 40
0.7857142857142857
 40
0.8571428571428571
 40
0.9285714285714286
 40
1.0
 40
1.0
 10
-6.0
 20
-3.5
 30
0.0
 10
-5.849567473090942
 20
-3.5000000000000004
 30
0.0
 10
-5.405813207414515
 20
-3.500000000000001
 30
0.0
 10
-4.6909888948081795
 20
-3.500000000000001
 30
0.0
 10
-3.7409388111524016
 20
-3.500000000000001
 30
0.0
 10
-2.6033024347053497
 20
-3.5000000000000013
 30
0.0
 10
-1.3351256037378876
 20
-3.5000000000000013
 30
0.0
 10
-1.1102230246251565e-15
 20
-3.5000000000000013
 30
0.0
 10
1.3351256037378851
 20
-3.5000000000000013
 30
0.0
 10
2.6033024347053475
 20
-3.500000000000001
 30
0.0
 10
3.7409388111524002
 20
-3.500000000000001
 30
0.0
 10
4.690988894808179
 20
-3.500000000000001
 30
0.0
 10
5.405813207414514
 20
-3.5000000000000004
 30
0.0
 10
5.849567473090941
 20
-3.5
 30
0.0
 10
6.0
 20
-3.5
 30
0.0
  0
SPLINE
  5
53
330
17
100
AcDbEntity
  8
HIDDEN
100
AcDbSpline
 70
0
 71
1
 72
17
 73
15
 74
0
 40
0.0
 40
0.0
 40
0.2243994752564138
 40
0.4487989505128276
 40
0.6731984257692414
 40
0.8975979010256552
 40
1.121997376282069
 40
1.3463968515384828
 40
1.5707963267948966
 40
1.7951958020513104
 40
2.019595277307724
 40
2.243994752564138
 40
2.4683942278205517
 40
2.6927937030769655
 40
2.9171931783333793
 40
3.141592653589793
 40
3.141592653589793
 10
6.0
 20
3.5
 30
0.0
 10
5.849567473090942
 20
3.5000000000000004
 30
0.0
 10
5.405813207414514
 20
3.500000000000001
 30
0.0
 10
4.690988894808179
 20
3.500000000000001
 30
0.0
 10
3.740938811152401
 20
3.500000000000001
 30
0.0
 10
2.6033024347053493
 20
3.5000000000000013
 30
0.0
 10
1.3351256037378865
 20
3.5000000000000013
 30
0.0
 10
4.440892098500626e-16
 20
3.5000000000000013
 30
0.0
 10
-1.335125603737886
 20
3.5000000000000013
 30
0.0
 10
-2.6033024347053484
 20
3.500000000000001
 30
0.0
 10
-3.7409388111524007
 20
3.500000000000001
 30
0.0
 10
-4.690988894808179
 20
3.500000000000001
 30
0.0
 10
-5.405813207414514
 20
3.5000000000000004
 30
0.0
 10
-5.849567473090943
 20
3.5
 30
0.0
 10
-6.0
 20
3.5
 30
0.0
  0
SPLINE
  5
54
330
17
100
AcDbEntity
  8
HIDDEN
100
AcDbSpline
 70
0
 71
1
 72
17
 73
15
 74
0
 40
0.0
 40
0.0
 40
0.07142857142857142
 40
0.14285714285714285
 40
0.21428571428571427
 40
0.2857142857142857
 40
0.35714285714285715
 40
0.42857142857142855
 40
0.5
 40
0.5714285714285714
 40
0.6428571428571429
 40
0.7142857142857143
 40
0.7857142857142857
 40
0.8571428571428571
 40
0.9285714285714286
 40
1.0
 40
1.0
 10
-6.0
 20
3.5
 30
0.0
 10
-5.849567473090942
 20
3.4999999999999996
 30
0.0
 10
-5.405813207414515
 20
3.499999999999999
 30
0.0
 10
-4.6909888948081795
 20
3.499999999999999
 30
0.0
 10
-3.7409388111524016
 20
3.499999999999999
 30
0.0
 10
-2.6033024347053497
 20
3.4999999999999987
 30
0.0
 10
-1.3351256037378876
 20
3.4999999999999987
 30
0.0
 10
-1.1102230246251565e-15
 20
3.4999999999999987
 30
0.0
 10
1.3351256037378851
 20
3.4999999999999987
 30
0.0
 10
2.6033024347053475
 20
3.499999999999999
 30
0.0
 10
3.7409388111524002
 20
3.499999999999999
 30
0.0
 10
4.690988894808179
 20
3.499999999999999
 30
0.0
 10
5.405813207414514
 20
3.4999999999999996
 30
0.0
 10
5.849567473090941
 20
3.5
 30
0.0
 10
6.0
 20
3.5
 30
0.0
  0
LINE
  5
55
330
17
100
AcDbEntity
  8
HIDDEN
100
AcDbLine
 10
6.0
 20
10.415462967301199
 30
0.0
 11
6.0
 21
3.5
 31
0.0
  0
LINE
  5
56
330
17
100
AcDbEntity
  8
HIDDEN
100
AcDbLine
 10
9.318710459762134
 20
3.4999999999999996
 30
0.0
 11
-9.318710469036173
 21
3.5000000000000004
 31
0.0
  0
SPLINE
  5
57
330
17
100
AcDbEntity
  8
HIDDEN
100
AcDbSpline
 70
0
 71
1
 72
17
 73
15
 74
0
 40
0.0
 40
0.0
 40
0.18497516937587652
 40
0.36995033875175304
 40
0.5549255081276295
 40
0.7399006775035061
 40
0.9248758468793826
 40
1.109851016255259
 40
1.2948261856311356
 40
1.4798013550070122
 40
1.6647765243828887
 40
1.8497516937587652
 40
2.0347268631346416
 40
2.219702032510518
 40
2.4046772018863947
 40
2.589652371262271
 40
2.589652371262271
 10
13.600000000000001
 20
3.5
 30
0.0
 10
13.367995122548443
 20
3.5
 30
0.0
 10
12.679896117129257
 20
3.5
 30
0.0
 10
11.559179796305212
 20
3.5
 30
0.0
 10
10.044083167822004
 20
3.5
 30
0.0
 10
8.186298850447061
 20
3.5
 30
0.0
 10
6.049211406369209
 20
3.5
 30
0.0
 10
3.705734763612935
 20
3.5
 30
0.0
 10
1.235824512077251
 20
3.5
 30
0.0
 10
-1.2762500504108023
 20
3.5
 30
0.0
 10
-3.7447810487013413
 20
3.5
 30
0.0
 10
-6.085546242832043
 20
3.5
 30
0.0
 10
-8.21868255309598
 20
3.5
 30
0.0
 10
-10.071410857691639
 20
3.5
 30
0.0
 10
-11.580519097316262
 20
3.5
 30
0.0
  0
SPLINE
  5
58
330
17
100
AcDbEntity
  8
HIDDEN
100
AcDbSpline
 70
0
 71
1
 72
17
 73
15
 74
0
 40
0.0
 40
0.0
 40
0.1849751693758764
 40
0.3699503387517528
 40
0.5549255081276292
 40
0.7399006775035056
 40
0.9248758468793821
 40
1.1098510162552584
 40
1.2948261856311347
 40
1.479801355007011
 40
1.6647765243828874
 40
1.8497516937587637
 40
2.0347268631346402
 40
2.219702032510517
 40
2.4046772018863933
 40
2.58965237126227
 40
2.58965237126227
 10
13.600000000000001
 20
-3.5
 30
0.0
 10
13.367995122548443
 20
-3.5
 30
0.0
 10
12.67989611712926
 20
-3.5
 30
0.0
 10
11.559179796305216
 20
-3.5
 30
0.0
 10
10.04408316782201
 20
-3.5
 30
0.0
 10
8.186298850447066
 20
-3.5
 30
0.0
 10
6.049211406369217
 20
-3.5
 30
0.0
 10
3.705734763612947
 20
-3.5
 30
0.0
 10
1.2358245120772666
 20
-3.5
 30
0.0
 10
-1.2762500504107845
 20
-3.5
 30
0.0
 10
-3.744781048701321
 20
-3.5
 30
0.0
 10
-6.085546242832029
 20
-3.5
 30
0.0
 10
-8.218682553095967
 20
-3.5
 30
0.0
 10
-10.071410857691625
 20
-3.5
 30
0.0
 10
-11.580519097316252
 20
-3.5
 30
0.0
  0
LINE
  5
59
330
17
100
AcDbEntity
  8
HIDDEN
100
AcDbLine
 10
13.6
 20
3.5
 30
0.0
 11
13.6
 21
-3.5
 31
0.0
  0
LINE
  5
5A
330
17
100
AcDbEntity
  8
HIDDEN
100
AcDbLine
 10
-9.318710469036159
 20
-3.500000000000005
 30
0.0
 11
9.318710459762162
 21
-3.499999999999999
 31
0.0
  0
SPLINE
  5
5B
330
17
100
AcDbEntity
  8
HIDDEN
100
AcDbSpline
 70
0
 71
3
 72
14
 73
10
 74
0
 40
0.0
 40
0.0
 40
0.0
 40
0.0
 40
0.5
 40
0.5
 40
0.5
 40
0.75
 40
0.75
 40
0.75
 40
1.0
 40
1.0
 40
1.0
 40
1.0
 10
-5.820530045585497
 20
-5.887494180846993
 30
0.0
 10
-4.48126583160377
 20
-6.447747115353047
 30
0.0
 10
-3.3906044052338613
 20
-6.935084271980865
 30
0.0
 10
-2.590583806677266
 20
-7.314871407292419
 30
0.0
 10
-2.191674435066398
 20
-7.504081496957305
 30
0.0
 10
-1.8664372226073254
 20
-7.666067229065669
 30
0.0
 10
-1.6336891660634096
 20
-7.787228158015111
 30
0.0
 10
-1.4021512606869526
 20
-7.907263505945216
 30
0.0
 10
-1.2603138709338866
 20
-7.989451370608408
 30
0.0
 10
-1.2591218777763062
 20
-7.990702007758459
 30
0.0
  0
SPLINE
  5
5C
330
17
100
AcDbEntity
  8
HIDDEN
100
AcDbSpline
 70
0
 71
3
 72
20
 73
16
 74
0
 40
0.0
 40
0.0
 40
0.0
 40
0.0
 40
0.25
 40
0.25
 40
0.25
 40
0.5
 40
0.5
 40
0.5
 40
0.75
 40
0.75
 40
0.75
 40
0.875
 40
0.875
 40
0.875
 40
1.0
 40
1.0
 40
1.0
 40
1.0
 10
-1.259121877776307
 20
-7.990702007758458
 30
0.0
 10
-1.2594103431483157
 20
-7.990285147148026
 30
0.0
 10
-1.3034575260474894
 20
-7.964908815737391
 30
0.0
 10
-1.4134940010619708
 20
-7.890562423507038
 30
0.0
 10
-1.5244422761605774
 20
-7.814569257782943
 30
0.0
 10
-1.6997201257720864
 20
-7.69426033448045
 30
0.0
 10
-1.9870885268401857
 20
-7.459515405755369
 30
0.0
 10
-2.2494307727679685
 20
-7.240311425756817
 30
0.0
 10
-2.6024431886713066
 20
-6.942318481081217
 30
0.0
 10
-3.1085835908833817
 20
-6.376357301025113
 30
0.0
 10
-3.3602502366850375
 20
-6.091587606946338
 30
0.0
 10
-3.650252337917232
 20
-5.735438980834241
 30
0.0
 10
-3.9613907630275915
 20
-5.268535741060865
 30
0.0
 10
-4.270854464821928
 20
-4.801982740910514
 30
0.0
 10
-4.603536645921549
 20
-4.222589663588991
 30
0.0
 10
-4.895603395337639
 20
-3.499999990578893
 30
0.0
  0
SPLINE
  5
5D
330
17
100
AcDbEntity
  8
HIDDEN
100
AcDbSpline
 70
0
 71
3
 72
20
 73
16
 74
0
 40
0.0
 40
0.0
 40
0.0
 40
0.0
 40
0.125
 40
0.125
 40
0.125
 40
0.25
 40
0.25
 40
0.25
 40
0.5
 40
0.5
 40
0.5
 40
0.75
 40
0.75
 40
0.75
 40
1.0
 40
1.0
 40
1.0
 40
1.0
 10
-4.895603395337644
 20
3.4999999905788832
 30
0.0
 10
-4.624496365723998
 20
4.171159623553423
 30
0.0
 10
-4.316693483373291
 20
4.720879860361303
 30
0.0
 10
-4.026141914121037
 20
5.169945216123385
 30
0.0
 10
-3.734266738816773
 20
5.619438181479849
 30
0.0
 10
-3.458259561820225
 20
5.97014628805053
 30
0.0
 10
-3.215083957918013
 20
6.254170237734367
 30
0.0
 10
-2.7259514125956805
 20
6.819514480052894
 30
0.0
 10
-2.370261291772931
 20
7.132582974905752
 30
0.0
 10
-2.1011023839888705
 20
7.36436202480954
 30
0.0
 10
-1.763806287825051
 20
7.648675141067918
 30
0.0
 10
-1.562331249175989
 20
7.787589010043754
 30
0.0
 10
-1.4350655574561015
 20
7.875872603241888
 30
0.0
 10
-1.3090223591657861
 20
7.961840634943202
 30
0.0
 10
-1.2595017641250554
 20
7.990139353250748
 30
0.0
 10
-1.2591218777763282
 20
7.990702007758451
 30
0.0
  0
SPLINE
  5
5E
330
17
100
AcDbEntity
  8
HIDDEN
100
AcDbSpline
 70
0
 71
3
 72
14
 73
10
 74
0
 40
0.0
 40
0.0
 40
0.0
 40
0.0
 40
0.25
 40
0.25
 40
0.25
 40
0.5
 40
0.5
 40
0.5
 40
1.0
 40
1.0
 40
1.0
 40
1.0
 10
-1.2591218777763284
 20
7.990702007758451
 30
0.0
 10
-1.2603139037390714
 20
7.989451325389229
 30
0.0
 10
-1.4021511422967676
 20
7.907263601374806
 30
0.0
 10
-1.6336891569589809
 20
7.78722816937008
 30
0.0
 10
-1.8664372928079203
 20
7.666067183987347
 30
0.0
 10
-2.19167468888925
 20
7.50408134623465
 30
0.0
 10
-2.5905841607867544
 20
7.3148712243750165
 30
0.0
 10
-3.390605242808451
 20
6.935083886306738
 30
0.0
 10
-4.481265556776322
 20
6.447747290516671
 30
0.0
 10
-5.820530045585528
 20
5.88749418084698
 30
0.0
  0
LINE
  5
5F
330
17
100
AcDbEntity
  8
HIDDEN
100
AcDbLine
 10
-6.0
 20
-3.5
 30
0.0
 11
-6.0
 21
-8.26340976730362
 31
0.0
  0
LINE
  5
60
330
17
100
AcDbEntity
  8
HIDDEN
100
AcDbLine
 10
-6.0
 20
8.263409671588958
 30
0.0
 11
-6.0
 21
3.5
 31
0.0
  0
ENDSEC
  0
SECTION
  2
OBJECTS
  0
DICTIONARY
  5
A
330
0
100
AcDbDictionary
281
1
  3
ACAD_COLOR
350
B
  3
ACAD_GROUP
350
C
  3
ACAD_LAYOUT
350
D
  3
ACAD_MATERIAL
350
E
  3
ACAD_MLEADERSTYLE
350
F
  3
ACAD_MLINESTYLE
350
10
  3
ACAD_PLOTSETTINGS
350
11
  3
ACAD_PLOTSTYLENAME
350
12
  3
ACAD_SCALELIST
350
14
  3
ACAD_TABLESTYLE
350
15
  3
ACAD_VISUALSTYLE
350
16
  3
EZDXF_META
350
2D
  0
DICTIONARY
  5
B
330
A
100
AcDbDictionary
281
1
  0
DICTIONARY
  5
C
330
A
100
AcDbDictionary
281
1
  0
DICTIONARY
  5
D
330
A
100
AcDbDictionary
281
1
  3
Model
350
1A
  3
Layout1
350
1E
  0
DICTIONARY
  5
E
330
A
100
AcDbDictionary
281
1
  3
ByBlock
350
1F
  3
ByLayer
350
20
  3
Global
350
21
  0
DICTIONARY
  5
F
330
A
100
AcDbDictionary
281
1
  3
Standard
350
2C
  0
DICTIONARY
  5
10
330
A
100
AcDbDictionary
281
1
  3
Standard
350
22
  0
DICTIONARY
  5
11
330
A
100
AcDbDictionary
281
1
  0
ACDBDICTIONARYWDFLT
  5
12
330
A
100
AcDbDictionary
281
1
  3
Normal
350
13
100
AcDbDictionaryWithDefault
340
13
  0
ACDBPLACEHOLDER
  5
13
330
12
  0
DICTIONARY
  5
14
330
A
100
AcDbDictionary
281
1
  0
DICTIONARY
  5
15
330
A
100
AcDbDictionary
281
1
  0
DICTIONARY
  5
16
330
A
100
AcDbDictionary
281
1
  0
LAYOUT
  5
1A
330
D
100
AcDbPlotSettings
  1

  4
A3
  6

 40
7.5
 41
20.0
 42
7.5
 43
20.0
 44
420.0
 45
297.0
 46
0.0
 47
0.0
 48
0.0
 49
0.0
140
0.0
141
0.0
142
1.0
143
1.0
 70
1024
 72
1
 73
0
 74
5
  7

 75
16
 76
0
 77
2
 78
300
147
1.0
148
0.0
149
0.0
100
AcDbLayout
  1
Model
 70
1
 71
0
 10
0.0
 20
0.0
 11
420.0
 21
297.0
 12
0.0
 22
0.0
 32
0.0
 14
1e+20
 24
1e+20
 34
1e+20
 15
-1e+20
 25
-1e+20
 35
-1e+20
146
0.0
 13
0.0
 23
0.0
 33
0.0
 16
1.0
 26
0.0
 36
0.0
 17
0.0
 27
1.0
 37
0.0
 76
1
330
17
  0
LAYOUT
  5
1E
330
D
100
AcDbPlotSettings
  1

  4
A3
  6

 40
7.5
 41
20.0
 42
7.5
 43
20.0
 44
420.0
 45
297.0
 46
0.0
 47
0.0
 48
0.0
 49
0.0
140
0.0
141
0.0
142
1.0
143
1.0
 70
0
 72
1
 73
0
 74
5
  7

 75
16
 76
0
 77
2
 78
300
147
1.0
148
0.0
149
0.0
100
AcDbLayout
  1
Layout1
 70
1
 71
1
 10
0.0
 20
0.0
 11
420.0
 21
297.0
 12
0.0
 22
0.0
 32
0.0
 14
1e+20
 24
1e+20
 34
1e+20
 15
-1e+20
 25
-1e+20
 35
-1e+20
146
0.0
 13
0.0
 23
0.0
 33
0.0
 16
1.0
 26
0.0
 36
0.0
 17
0.0
 27
1.0
 37
0.0
 76
1
330
1B
  0
MATERIAL
  5
1F
102
{ACAD_REACTORS
330
E
102
}
330
E
100
AcDbMaterial
  1
ByBlock
  2

 70
0
 40
1.0
 71
1
 41
1.0
 91
-1023410177
 42
1.0
 72
1
  3

 73
1
 74
1
 75
1
 44
0.5
 73
0
 45
1.0
 46
1.0
 77
1
  4

 78
1
 79
1
170
1
 48
1.0
171
1
  6

172
1
173
1
174
1
140
1.0
141
1.0
175
1
  7

176
1
177
1
178
1
143
1.0
179
1
  8

270
1
271
1
272
1
145
1.0
146
1.0
273
1
  9

274
1
275
1
276
1
 42
1.0
 72
1
  3

 73
1
 74
1
 75
1
 94
63
  0
MATERIAL
  5
20
102
{ACAD_REACTORS
330
E
102
}
330
E
100
AcDbMaterial
  1
ByLayer
  2

 70
0
 40
1.0
 71
1
 41
1.0
 91
-1023410177
 42
1.0
 72
1
  3

 73
1
 74
1
 75
1
 44
0.5
 73
0
 45
1.0
 46
1.0
 77
1
  4

 78
1
 79
1
170
1
 48
1.0
171
1
  6

172
1
173
1
174
1
140
1.0
141
1.0
175
1
  7

176
1
177
1
178
1
143
1.0
179
1
  8

270
1
271
1
272
1
145
1.0
146
1.0
273
1
  9

274
1
275
1
276
1
 42
1.0
 72
1
  3

 73
1
 74
1
 75
1
 94
63
  0
MATERIAL
  5
21
102
{ACAD_REACTORS
330
E
102
}
330
E
100
AcDbMaterial
  1
Global
  2

 70
0
 40
1.0
 71
1
 41
1.0
 91
-1023410177
 42
1.0
 72
1
  3

 73
1
 74
1
 75
1
 44
0.5
 73
0
 45
1.0
 46
1.0
 77
1
  4

 78
1
 79
1
170
1
 48
1.0
171
1
  6

172
1
173
1
174
1
140
1.0
141
1.0
175
1
  7

176
1
177
1
178
1
143
1.0
179
1
  8

270
1
271
1
272
1
145
1.0
146
1.0
273
1
  9

274
1
275
1
276
1
 42
1.0
 72
1
  3

 73
1
 74
1
 75
1
 94
63
  0
MLINESTYLE
  5
22
102
{ACAD_REACTORS
330
10
102
}
330
10
100
AcDbMlineStyle
  2
Standard
 70
0
  3

 62
256
 51
90.0
 52
90.0
 71
2
 49
0.5
 62
256
  6
BYLAYER
 49
-0.5
 62
256
  6
BYLAYER
  0
MLEADERSTYLE
  5
2C
102
{ACAD_REACTORS
330
F
102
}
330
F
100
AcDbMLeaderStyle
179
2
170
2
171
1
172
0
 90
2
 40
0.0
 41
0.0
173
1
 91
-1056964608
 92
-2
290
1
 42
2.0
291
1
 43
8.0
  3
Standard
 44
4.0
300

342
29
174
1
175
1
176
0
178
1
 93
-1056964608
 45
4.0
292
0
297
0
 46
4.0
 94
-1056964608
 47
1.0
 49
1.0
140
1.0
294
1
141
0.0
177
0
142
1.0
295
0
296
0
143
3.75
271
0
272
9
273
9
  0
DICTIONARY
  5
2D
330
A
100
AcDbDictionary
280
1
281
1
  3
CREATED_BY_EZDXF
350
2E
  3
WRITTEN_BY_EZDXF
350
64
  0
DICTIONARYVAR
  5
2E
330
2D
100
DictionaryVariables
280
0
  1
1.4.4 @ 2026-10-08T06:26:16.828235+00:00
  0
DICTIONARYVAR
  5
64
330
2D
100
DictionaryVariables
280
0
  1
1.4.4 @ 2026-10-08T06:26:17.083946+00:00
  0
ENDSEC
  0
EOF
