  0
SECTION
  2
HEADER
  9
$ACADVER
  1
AC1027
  9
$ACADMAINTVER
 70
105
  9
$DWGCODEPAGE
  3
ANSI_1252
  9
$LASTSAVEDBY
  1
ezdxf
  9
$REQUIREDVERSIONS
160
0
  9
$INSBASE
 10
0.0
 20
0.0
 30
0.0
  9
$EXTMIN
 10
1e+20
 20
1e+20
 30
1e+20
  9
$EXTMAX
 10
-1e+20
 20
-1e+20
 30
-1e+20
  9
$LIMMIN
 10
0.0
 20
0.0
  9
$LIMMAX
 10
420.0
 20
297.0
  9
$ORTHOMODE
 70
0
  9
$REGENMODE
 70
1
  9
$FILLMODE
 70
1
  9
$QTEXTMODE
 70
0
  9
$MIRRTEXT
 70
1
  9
$LTSCALE
 40
1.0
  9
$ATTMODE
 70
1
  9
$TEXTSIZE
 40
2.5
  9
$TRACEWID
 40
1.0
  9
$TEXTSTYLE
  7
Standard
  9
$CLAYER
  8
0
  9
$CELTYPE
  6
ByLayer
  9
$CECOLOR
 62
256
  9
$CELTSCALE
 40
1.0
  9
$DISPSILH
 70
0
  9
$DIMSCALE
 40
1.0
  9
$DIMASZ
 40
2.5
  9
$DIMEXO
 40
0.625
  9
$DIMDLI
 40
3.75
  9
$DIMRND
 40
0.0
  9
$DIMDLE
 40
0.0
  9
$DIMEXE
 40
1.25
  9
$DIMTP
 40
0.0
  9
$DIMTM
 40
0.0
  9
$DIMTXT
 40
2.5
  9
$DIMCEN
 40
2.5
  9
$DIMTSZ
 40
0.0
  9
$DIMTOL
 70
0
  9
$DIMLIM
 70
0
  9
$DIMTIH
 70
0
  9
$DIMTOH
 70
0
  9
$DIMSE1
 70
0
  9
$DIMSE2
 70
0
  9
$DIMTAD
 70
1
  9
$DIMZIN
 70
8
  9
$DIMBLK
  1

  9
$DIMASO
 70
1
  9
$DIMSHO
 70
1
  9
$DIMPOST
  1

  9
$DIMAPOST
  1

  9
$DIMALT
 70
0
  9
$DIMALTD
 70
3
  9
$DIMALTF
 40
0.03937007874
  9
$DIMLFAC
 40
1.0
  9
$DIMTOFL
 70
1
  9
$DIMTVP
 40
0.0
  9
$DIMTIX
 70
0
  9
$DIMSOXD
 70
0
  9
$DIMSAH
 70
0
  9
$DIMBLK1
  1

  9
$DIMBLK2
  1

  9
$DIMSTYLE
  2
ISO-25
  9
$DIMCLRD
 70
0
  9
$DIMCLRE
 70
0
  9
$DIMCLRT
 70
0
  9
$DIMTFAC
 40
1.0
  9
$DIMGAP
 40
0.625
  9
$DIMJUST
 70
0
  9
$DIMSD1
 70
0
  9
$DIMSD2
 70
0
  9
$DIMTOLJ
 70
0
  9
$DIMTZIN
 70
8
  9
$DIMALTZ
 70
0
  9
$DIMALTTZ
 70
0
  9
$DIMUPT
 70
0
  9
$DIMDEC
 70
2
  9
$DIMTDEC
 70
2
  9
$DIMALTU
 70
2
  9
$DIMALTTD
 70
3
  9
$DIMTXSTY
  7
Standard
  9
$DIMAUNIT
 70
0
  9
$DIMADEC
 70
0
  9
$DIMALTRND
 40
0.0
  9
$DIMAZIN
 70
0
  9
$DIMDSEP
 70
44
  9
$DIMATFIT
 70
3
  9
$DIMFRAC
 70
0
  9
$DIMLDRBLK
  1

  9
$DIMLUNIT
 70
2
  9
$DIMLWD
 70
-2
  9
$DIMLWE
 70
-2
  9
$DIMTMOVE
 70
0
  9
$DIMFXL
 40
1.0
  9
$DIMFXLON
 70
0
  9
$DIMJOGANG
 40
0.785398163397
  9
$DIMTFILL
 70
0
  9
$DIMTFILLCLR
 70
0
  9
$DIMARCSYM
 70
0
  9
$DIMLTYPE
  6

  9
$DIMLTEX1
  6

  9
$DIMLTEX2
  6

  9
$DIMTXTDIRECTION
 70
0
  9
$LUNITS
 70
2
  9
$LUPREC
 70
4
  9
$SKETCHINC
 40
1.0
  9
$FILLETRAD
 40
10.0
  9
$AUNITS
 70
0
  9
$AUPREC
 70
2
  9
$MENU
  1
.
  9
$ELEVATION
 40
0.0
  9
$PELEVATION
 40
0.0
  9
$THICKNESS
 40
0.0
  9
$LIMCHECK
 70
0
  9
$CHAMFERA
 40
0.0
  9
$CHAMFERB
 40
0.0
  9
$CHAMFERC
 40
0.0
  9
$CHAMFERD
 40
0.0
  9
$SKPOLY
 70
0
  9
$TDCREATE
 40
2461321.6976736113
  9
$TDUCREATE
 40
2458532.153996898
  9
$TDUPDATE
 40
2461321.6976736113
  9
$TDUUPDATE
 40
2458532.1544311
  9
$TDINDWG
 40
0.0
  9
$TDUSRTIMER
 40
0.0
  9
$USRTIMER
 70
1
  9
$ANGBASE
 50
0.0
  9
$ANGDIR
 70
0
  9
$PDMODE
 70
0
  9
$PDSIZE
 40
0.0
  9
$PLINEWID
 40
0.0
  9
$SPLFRAME
 70
0
  9
$SPLINETYPE
 70
6
  9
$SPLINESEGS
 70
8
  9
$HANDSEED
  5
7F
  9
$SURFTAB1
 70
6
  9
$SURFTAB2
 70
6
  9
$SURFTYPE
 70
6
  9
$SURFU
 70
6
  9
$SURFV
 70
6
  9
$UCSBASE
  2

  9
$UCSNAME
  2

  9
$UCSORG
 10
0.0
 20
0.0
 30
0.0
  9
$UCSXDIR
 10
1.0
 20
0.0
 30
0.0
  9
$UCSYDIR
 10
0.0
 20
1.0
 30
0.0
  9
$UCSORTHOREF
  2

  9
$UCSORTHOVIEW
 70
0
  9
$UCSORGTOP
 10
0.0
 20
0.0
 30
0.0
  9
$UCSORGBOTTOM
 10
0.0
 20
0.0
 30
0.0
  9
$UCSORGLEFT
 10
0.0
 20
0.0
 30
0.0
  9
$UCSORGRIGHT
 10
0.0
 20
0.0
 30
0.0
  9
$UCSORGFRONT
 10
0.0
 20
0.0
 30
0.0
  9
$UCSORGBACK
 10
0.0
 20
0.0
 30
0.0
  9
$PUCSBASE
  2

  9
$PUCSNAME
  2

  9
$PUCSORG
 10
0.0
 20
0.0
 30
0.0
  9
$PUCSXDIR
 10
1.0
 20
0.0
 30
0.0
  9
$PUCSYDIR
 10
0.0
 20
1.0
 30
0.0
  9
$PUCSORTHOREF
  2

  9
$PUCSORTHOVIEW
 70
0
  9
$PUCSORGTOP
 10
0.0
 20
0.0
 30
0.0
  9
$PUCSORGBOTTOM
 10
0.0
 20
0.0
 30
0.0
  9
$PUCSORGLEFT
 10
0.0
 20
0.0
 30
0.0
  9
$PUCSORGRIGHT
 10
0.0
 20
0.0
 30
0.0
  9
$PUCSORGFRONT
 10
0.0
 20
0.0
 30
0.0
  9
$PUCSORGBACK
 10
0.0
 20
0.0
 30
0.0
  9
$USERI1
 70
0
  9
$USERI2
 70
0
  9
$USERI3
 70
0
  9
$USERI4
 70
0
  9
$USERI5
 70
0
  9
$USERR1
 40
0.0
  9
$USERR2
 40
0.0
  9
$USERR3
 40
0.0
  9
$USERR4
 40
0.0
  9
$USERR5
 40
0.0
  9
$WORLDVIEW
 70
1
  9
$SHADEDGE
 70
3
  9
$SHADEDIF
 70
70
  9
$TILEMODE
 70
1
  9
$MAXACTVP
 70
64
  9
$PINSBASE
 10
0.0
 20
0.0
 30
0.0
  9
$PLIMCHECK
 70
0
  9
$PEXTMIN
 10
1e+20
 20
1e+20
 30
1e+20
  9
$PEXTMAX
 10
-1e+20
 20
-1e+20
 30
-1e+20
  9
$PLIMMIN
 10
0.0
 20
0.0
  9
$PLIMMAX
 10
420.0
 20
297.0
  9
$UNITMODE
 70
0
  9
$VISRETAIN
 70
1
  9
$PLINEGEN
 70
0
  9
$PSLTSCALE
 70
1
  9
$TREEDEPTH
 70
3020
  9
$CMLSTYLE
  2
Standard
  9
$CMLJUST
 70
0
  9
$CMLSCALE
 40
20.0
  9
$PROXYGRAPHICS
 70
1
  9
$MEASUREMENT
 70
1
  9
$CELWEIGHT
370
-1
  9
$ENDCAPS
280
0
  9
$JOINSTYLE
280
0
  9
$LWDISPLAY
290
0
  9
$INSUNITS
 70
4
  9
$HYPERLINKBASE
  1

  9
$STYLESHEET
  1

  9
$XEDIT
290
1
  9
$CEPSNTYPE
380
0
  9
$PSTYLEMODE
290
1
  9
$FINGERPRINTGUID
  2
{DB7094DC-2E46-45AA-9A87-57FA2E1E98CC}
  9
$VERSIONGUID
  2
{8507772B-B2FE-4109-AFE3-3312D9A4D559}
  9
$EXTNAMES
290
1
  9
$PSVPSCALE
 40
0.0
  9
$OLESTARTUP
290
0
  9
$SORTENTS
280
127
  9
$INDEXCTL
280
0
  9
$HIDETEXT
280
1
  9
$XCLIPFRAME
280
1
  9
$HALOGAP
280
0
  9
$OBSCOLOR
 70
257
  9
$OBSLTYPE
280
0
  9
$INTERSECTIONDISPLAY
280
0
  9
$INTERSECTIONCOLOR
 70
257
  9
$DIMASSOC
280
2
  9
$PROJECTNAME
  1

  9
$CAMERADISPLAY
290
0
  9
$LENSLENGTH
 40
50.0
  9
$CAMERAHEIGHT
 40
0.0
  9
$STEPSPERSEC
 40
24.0
  9
$STEPSIZE
 40
100.0
  9
$3DDWFPREC
 40
2.0
  9
$PSOLWIDTH
 40
0.005
  9
$PSOLHEIGHT
 40
0.08
  9
$LOFTANG1
 40
1.570796326795
  9
$LOFTANG2
 40
1.570796326795
  9
$LOFTMAG1
 40
0.0
  9
$LOFTMAG2
 40
0.0
  9
$LOFTPARAM
 70
7
  9
$LOFTNORMALS
280
1
  9
$LATITUDE
 40
37.795
  9
$LONGITUDE
 40
-122.394
  9
$NORTHDIRECTION
 40
0.0
  9
$TIMEZONE
 70
-8000
  9
$LIGHTGLYPHDISPLAY
280
1
  9
$TILEMODELIGHTSYNCH
280
1
  9
$CMATERIAL
347
20
  9
$SOLIDHIST
280
0
  9
$SHOWHIST
280
1
  9
$DWFFRAME
280
2
  9
$DGNFRAME
280
2
  9
$REALWORLDSCALE
290
1
  9
$INTERFERECOLOR
 62
256
  9
$CSHADOW
280
0
  9
$SHADOWPLANELOCATION
 40
0.0
  0
ENDSEC
  0
SECTION
  2
CLASSES
  0
CLASS
  1
ACDBDICTIONARYWDFLT
  2
AcDbDictionaryWithDefault
  3
ObjectDBX Classes
 90
0
 91
0
280
0
281
0
  0
CLASS
  1
SUN
  2
AcDbSun
  3
SCENEOE
 90
1153
 91
0
280
0
281
0
  0
CLASS
  1
VISUALSTYLE
  2
AcDbVisualStyle
  3
ObjectDBX Classes
 90
4095
 91
0
280
0
281
0
  0
CLASS
  1
MATERIAL
  2
AcDbMaterial
  3
ObjectDBX Classes
 90
1153
 91
0
280
0
281
0
  0
CLASS
  1
SCALE
  2
AcDbScale
  3
ObjectDBX Classes
 90
1153
 91
0
280
0
281
0
  0
CLASS
  1
TABLESTYLE
  2
AcDbTableStyle
  3
ObjectDBX Classes
 90
4095
 91
0
280
0
281
0
  0
CLASS
  1
MLEADERSTYLE
  2
AcDbMLeaderStyle
  3
ACDB_MLEADERSTYLE_CLASS
 90
4095
 91
0
280
0
281
0
  0
CLASS
  1
DICTIONARYVAR
  2
AcDbDictionaryVar
  3
ObjectDBX Classes
 90
0
 91
0
280
0
281
0
  0
CLASS
  1
CELLSTYLEMAP
  2
AcDbCellStyleMap
  3
ObjectDBX Classes
 90
1152
 91
0
280
0
281
0
  0
CLASS
  1
MENTALRAYRENDERSETTINGS
  2
AcDbMentalRayRenderSettings
  3
SCENEOE
 90
1024
 91
0
280
0
281
0
  0
CLASS
  1
ACDBDETAILVIEWSTYLE
  2
AcDbDetailViewStyle
  3
ObjectDBX Classes
 90
1025
 91
0
280
0
281
0
  0
CLASS
  1
ACDBSECTIONVIEWSTYLE
  2
AcDbSectionViewStyle
  3
ObjectDBX Classes
 90
1025
 91
0
280
0
281
0
  0
CLASS
  1
RASTERVARIABLES
  2
AcDbRasterVariables
  3
ISM
 90
0
 91
0
280
0
281
0
  0
CLASS
  1
ACDBPLACEHOLDER
  2
AcDbPlaceHolder
  3
ObjectDBX Classes
 90
0
 91
0
280
0
281
0
  0
CLASS
  1
LAYOUT
  2
AcDbLayout
  3
ObjectDBX Classes
 90
0
 91
0
280
0
281
0
  0
ENDSEC
  0
SECTION
  2
TABLES
  0
TABLE
  2
VPORT
  5
8
330
0
100
AcDbSymbolTable
 70
1
  0
VPORT
  5
7B
330
8
100
AcDbSymbolTableRecord
100
AcDbViewportTableRecord
  2
*Active
 70
0
 10
0.0
 20
0.0
 11
1.0
 21
1.0
 12
-1.821679481524896
 22
-43.62154851645771
 13
0.0
 23
0.0
 14
0.5
 24
0.5
 15
0.5
 25
0.5
 16
0.0
 26
0.0
 36
1.0
 17
0.0
 27
0.0
 37
0.0
 40
136.29679543537134
 41
1.34
 42
50.0
 43
0.0
 44
0.0
 50
0.0
 51
0.0
 71
0
 72
1000
 73
1
 74
3
 75
0
 76
0
 77
0
 78
0
281
0
 65
1
110
0.0
120
0.0
130
0.0
111
1.0
121
0.0
131
0.0
112
0.0
122
1.0
132
0.0
 79
0
146
0.0
  0
ENDTAB
  0
TABLE
  2
LTYPE
  5
2
330
0
100
AcDbSymbolTable
 70
4
  0
LTYPE
  5
24
330
2
100
AcDbSymbolTableRecord
100
AcDbLinetypeTableRecord
  2
ByBlock
 70
0
  3

 72
65
 73
0
 40
0.0
  0
LTYPE
  5
25
330
2
100
AcDbSymbolTableRecord
100
AcDbLinetypeTableRecord
  2
ByLayer
 70
0
  3

 72
65
 73
0
 40
0.0
  0
LTYPE
  5
26
330
2
100
AcDbSymbolTableRecord
100
AcDbLinetypeTableRecord
  2
Continuous
 70
0
  3

 72
65
 73
0
 40
0.0
  0
LTYPE
  5
30
330
2
100
AcDbSymbolTableRecord
100
AcDbLinetypeTableRecord
  2
ACAD_ISO02W100
 70
0
  3
ISO dash __ __ __ __ __ __ __ __ __ __ __ __ __
 72
65
 73
2
 40
15.0
 49
12.0
 74
0
 49
-3.0
 74
0
  0
ENDTAB
  0
TABLE
  2
LAYER
  5
1
330
0
100
AcDbSymbolTable
 70
4
  0
LAYER
  5
27
330
1
100
AcDbSymbolTableRecord
100
AcDbLayerTableRecord
  2
0
 70
0
 62
7
  6
Continuous
370
-3
390
13
347
21
  0
LAYER
  5
28
330
1
100
AcDbSymbolTableRecord
100
AcDbLayerTableRecord
  2
Defpoints
 70
0
 62
7
  6
Continuous
290
0
370
-3
390
13
347
21
  0
LAYER
  5
2F
330
1
100
AcDbSymbolTableRecord
100
AcDbLayerTableRecord
  2
VISIBLE
 70
0
 62
7
  6
Continuous
370
25
390
13
347
21
  0
LAYER
  5
31
330
1
100
AcDbSymbolTableRecord
100
AcDbLayerTableRecord
  2
HIDDEN
 70
0
 62
7
  6
ACAD_ISO02W100
370
13
390
13
347
21
  0
ENDTAB
  0
TABLE
  2
STYLE
  5
5
330
0
100
AcDbSymbolTable
 70
1
  0
STYLE
  5
29
330
5
100
AcDbSymbolTableRecord
100
AcDbTextStyleTableRecord
  2
Standard
 70
0
 40
0.0
 41
1.0
 50
0.0
 71
0
 42
2.5
  3
txt
  4

  0
ENDTAB
  0
TABLE
  2
VIEW
  5
7
330
0
100
AcDbSymbolTable
 70
0
  0
ENDTAB
  0
TABLE
  2
UCS
  5
6
330
0
100
AcDbSymbolTable
 70
0
  0
ENDTAB
  0
TABLE
  2
APPID
  5
3
330
0
100
AcDbSymbolTable
 70
3
  0
APPID
  5
2A
330
3
100
AcDbSymbolTableRecord
100
AcDbRegAppTableRecord
  2
ACAD
 70
0
  0
APPID
  5
7C
330
3
100
AcDbSymbolTableRecord
100
AcDbRegAppTableRecord
  2
HATCHBACKGROUNDCOLOR
 70
0
  0
APPID
  5
7D
330
3
100
AcDbSymbolTableRecord
100
AcDbRegAppTableRecord
  2
EZDXF
 70
0
  0
ENDTAB
  0
TABLE
  2
DIMSTYLE
  5
4
330
0
100
AcDbSymbolTable
 70
1
100
AcDbDimStyleTable
  0
DIMSTYLE
105
2B
330
4
100
AcDbSymbolTableRecord
100
AcDbDimStyleTableRecord
  2
Standard
 70
0
 40
1.0
 41
2.5
 42
0.625
 43
3.75
 44
1.25
 45
0.0
 46
0.0
 47
0.0
 48
0.0
 49
2.5
140
2.5
141
2.5
142
0.0
143
0.03937007874
144
1.0
145
0.0
146
1.0
147
0.625
148
0.0
 69
0
 70
0
 71
0
 72
0
 73
0
 74
0
 75
0
 76
0
 77
1
 78
8
 79
3
170
0
171
3
172
1
173
0
174
0
175
0
176
0
177
0
178
0
179
2
271
2
272
2
273
2
274
3
275
0
276
0
277
2
278
44
279
0
280
0
281
0
282
0
283
0
284
8
285
0
286
0
288
0
289
3
290
0
371
-2
372
-2
  0
ENDTAB
  0
TABLE
  2
BLOCK_RECORD
  5
9
330
0
100
AcDbSymbolTable
 70
2
  0
BLOCK_RECORD
  5
17
330
9
100
AcDbSymbolTableRecord
100
AcDbBlockTableRecord
  2
*Model_Space
340
1A
 70
0
280
1
281
0
  0
BLOCK_RECORD
  5
1B
330
9
100
AcDbSymbolTableRecord
100
AcDbBlockTableRecord
  2
*Paper_Space
340
1E
 70
0
280
1
281
0
  0
ENDTAB
  0
ENDSEC
  0
SECTION
  2
BLOCKS
  0
BLOCK
  5
18
330
17
100
AcDbEntity
  8
0
100
AcDbBlockBegin
  2
*Model_Space
 70
0
 10
0.0
 20
0.0
 30
0.0
  3
*Model_Space
  1

  0
ENDBLK
  5
19
330
17
100
AcDbEntity
  8
0
100
AcDbBlockEnd
  0
BLOCK
  5
1C
330
1B
100
AcDbEntity
  8
0
100
AcDbBlockBegin
  2
*Paper_Space
 70
0
 10
0.0
 20
0.0
 30
0.0
  3
*Paper_Space
  1

  0
ENDBLK
  5
1D
330
1B
100
AcDbEntity
  8
0
100
AcDbBlockEnd
  0
ENDSEC
  0
SECTION
  2
ENTITIES
  0
SPLINE
  5
32
330
17
100
AcDbEntity
  8
VISIBLE
100
AcDbSpline
 70
0
 71
3
 72
8
 73
4
 74
0
 40
0.0
 40
0.0
 40
0.0
 40
0.0
 40
0.05391139180237799
 40
0.05391139180237799
 40
0.05391139180237799
 40
0.05391139180237799
 10
15.486204193410316
 20
5.7559742969081595
 30
0.0
 10
16.28524991794708
 20
6.216611192398276
 30
0.0
 10
16.78454007182589
 20
6.850081920577976
 30
0.0
 10
16.95588811984305
 20
7.620625048427998
 30
0.0
  0
SPLINE
  5
33
330
17
100
AcDbEntity
  8
VISIBLE
100
AcDbSpline
 70
0
 71
3
 72
29
 73
25
 74
0
 40
0.0
 40
0.0
 40
0.0
 40
0.0
 40
0.125
 40
0.125
 40
0.125
 40
0.25
 40
0.25
 40
0.25
 40
0.37500000000000006
 40
0.37500000000000006
 40
0.37500000000000006
 40
0.5000000000000001
 40
0.5000000000000001
 40
0.5000000000000001
 40
0.6250000000000001
 40
0.6250000000000001
 40
0.6250000000000001
 40
0.7500000000000001
 40
0.7500000000000001
 40
0.7500000000000001
 40
0.8750000000000001
 40
0.8750000000000001
 40
0.8750000000000001
 40
1.0
 40
1.0
 40
1.0
 40
1.0
 10
16.955888119843056
 20
7.620625048428
 30
0.0
 10
17.158091984396695
 20
8.520168040416177
 30
0.0
 10
16.91058708897714
 20
9.606934030697767
 30
0.0
 10
16.232338508257268
 20
10.797649463880084
 30
0.0
 10
15.55642261004392
 20
11.987804545413912
 30
0.0
 10
14.450391914919397
 20
13.280803318604855
 30
0.0
 10
12.998996133134195
 20
14.577569610868625
 30
0.0
 10
11.549468385401
 20
15.87431874965675
 30
0.0
 10
9.755922830831366
 20
17.173630910659064
 30
0.0
 10
7.755790101946486
 20
18.37594617350393
 30
0.0
 10
5.756771925233078
 20
19.5787901312316
 30
0.0
 10
3.5530238881125773
 20
20.68352016858404
 30
0.0
 10
1.3134083983823617
 20
21.60548622668035
 30
0.0
 10
-0.9260183463240099
 20
22.528445084230036
 30
0.0
 10
-3.199232355421858
 20
23.26778312650815
 30
0.0
 10
-5.3320483683047835
 20
23.766848496590388
 30
0.0
 10
-7.465630627926959
 20
24.267217266954592
 30
0.0
 10
-9.456833454950852
 20
24.52684920122796
 30
0.0
 10
-11.153080715514546
 20
24.52584998124078
 30
0.0
 10
-12.850930740643431
 20
24.526263234072356
 30
0.0
 10
-14.252248886340892
 20
24.26604560571198
 30
0.0
 10
-15.249659010800451
 20
23.76513629766863
 30
0.0
 10
-16.24926060190468
 20
23.26553014347149
 30
0.0
 10
-16.844026706852347
 20
22.525696975298857
 30
0.0
 10
-16.988383316061636
 20
21.60232658156956
 30
0.0
  0
SPLINE
  5
34
330
17
100
AcDbEntity
  8
VISIBLE
100
AcDbSpline
 70
0
 71
3
 72
26
 73
22
 74
0
 40
0.0
 40
0.0
 40
0.0
 40
0.0
 40
0.12499999999999978
 40
0.12499999999999978
 40
0.12499999999999978
 40
0.2499999999999998
 40
0.2499999999999998
 40
0.2499999999999998
 40
0.37499999999999983
 40
0.37499999999999983
 40
0.37499999999999983
 40
0.4999999999999999
 40
0.4999999999999999
 40
0.4999999999999999
 40
0.7499999999999999
 40
0.7499999999999999
 40
0.7499999999999999
 40
0.875
 40
0.875
 40
0.875
 40
1.0
 40
1.0
 40
1.0
 40
1.0
 10
-16.988383316061636
 20
21.60232658156956
 30
0.0
 10
-17.11683296069905
 20
20.792929753231387
 30
0.0
 10
-16.8996787970837
 20
19.84329039281791
 30
0.0
 10
-16.3497944796137
 20
18.809706456816
 30
0.0
 10
-15.80130780636049
 20
17.7764740962339
 30
0.0
 10
-14.920393732449746
 20
16.659866857433784
 30
0.0
 10
-13.759275933528274
 20
15.526081139037359
 30
0.0
 10
-12.599334331373894
 20
14.392366298724426
 30
0.0
 10
-11.159828780849143
 20
13.242097991835317
 30
0.0
 10
-9.526098230300686
 20
12.14346815521558
 30
0.0
 10
-7.893182007393655
 20
11.044620038119067
 30
0.0
 10
-6.066941203391533
 20
9.998016101683774
 30
0.0
 10
-4.15564178055968
 20
9.065702697564515
 30
0.0
 10
-0.33306127883570613
 20
7.195388120494004
 30
0.0
 10
3.822632291543833
 20
5.807085711696322
 30
0.0
 10
7.373257169988818
 20
5.2142161052241205
 30
0.0
 10
9.149883761793458
 20
4.914495330634796
 30
0.0
 10
10.77603786461866
 20
4.807749516904012
 30
0.0
 10
12.155315361973575
 20
4.900306927457451
 30
0.0
 10
13.535631938594573
 20
4.992026879634229
 30
0.0
 10
14.668311294330344
 20
5.282999297377861
 30
0.0
 10
15.486204193410298
 20
5.755974296908154
 30
0.0
  0
SPLINE
  5
35
330
17
100
AcDbEntity
  8
VISIBLE
100
AcDbSpline
 70
0
 71
3
 72
17
 73
13
 74
0
 40
0.0
 40
0.0
 40
0.0
 40
0.0
 40
0.4866471348398394
 40
0.4866471348398394
 40
0.4866471348398394
 40
0.6291453986323846
 40
0.6291453986323846
 40
0.6291453986323846
 40
0.8262137648482111
 40
0.8262137648482111
 40
0.8262137648482111
 40
1.0
 40
1.0
 40
1.0
 40
1.0
 10
8.838834764831823
 20
-11.744796934025754
 30
0.0
 10
9.08765128785573
 20
-12.711593027775269
 30
0.0
 10
9.364165160172229
 20
-13.657527341378838
 30
0.0
 10
9.739479161786251
 20
-14.504124452636656
 30
0.0
 10
9.8490420560331
 20
-14.75253466418948
 30
0.0
 10
9.972178476078279
 20
-14.985746592658897
 30
0.0
 10
10.108888421921748
 20
-15.203760238044882
 30
0.0
 10
10.300257491626402
 20
-15.503197466091967
 30
0.0
 10
10.492923534788241
 20
-15.704923234439399
 30
0.0
 10
10.686886551407316
 20
-15.80893754308721
 30
0.0
 10
10.855313833558734
 20
-15.899937305306242
 30
0.0
 10
11.071514932539209
 20
-15.935611424188192
 30
0.0
 10
11.313708498984699
 20
-15.795056659849362
 30
0.0
  0
SPLINE
  5
36
330
17
100
AcDbEntity
  8
VISIBLE
100
AcDbSpline
 70
0
 71
3
 72
17
 73
13
 74
0
 40
0.0
 40
0.0
 40
0.0
 40
0.0
 40
0.2453124813446007
 40
0.2453124813446007
 40
0.2453124813446007
 40
0.4906249626892014
 40
0.4906249626892014
 40
0.4906249626892014
 40
0.7341869555689227
 40
0.7341869555689227
 40
0.7341869555689227
 40
0.9437407017854901
 40
0.9437407017854901
 40
0.9437407017854901
 40
0.9437407017854901
 10
8.838834764831823
 20
-11.744796934025727
 30
0.0
 10
7.64862364966705
 20
-19.074625891259014
 30
0.0
 10
6.712725331420131
 20
-26.60223344371733
 30
0.0
 10
6.04930735925237
 20
-34.317138570825634
 30
0.0
 10
5.385217310273848
 20
-42.03151406056601
 30
0.0
 10
4.993635718837954
 20
-49.933181325914894
 30
0.0
 10
4.8746451779712014
 20
-57.99733294062075
 30
0.0
 10
4.755433518976118
 20
-66.00340516872097
 30
0.0
 10
4.90666550932736
 20
-74.1701867726996
 30
0.0
 10
5.30052181462333
 20
-82.46058761740888
 30
0.0
 10
5.636850189202916
 20
-89.59255419937313
 30
0.0
 10
6.158373576588869
 20
-96.8180945938747
 30
0.0
 10
6.788535875675555
 20
-104.09187984136543
 30
0.0
  0
SPLINE
  5
37
330
17
100
AcDbEntity
  8
VISIBLE
100
AcDbSpline
 70
0
 71
3
 72
11
 73
7
 74
0
 40
0.0
 40
0.0
 40
0.0
 40
0.0
 40
0.6185389341727888
 40
0.6185389341727888
 40
0.6185389341727888
 40
1.0
 40
1.0
 40
1.0
 40
1.0
 10
6.788535867551112
 20
-104.0918798376588
 30
0.0
 10
7.561953698680823
 20
-103.46292213355494
 30
0.0
 10
8.309533699405693
 20
-102.75922413507347
 30
0.0
 10
9.032697858851003
 20
-102.1295003649966
 30
0.0
 10
9.477193488411665
 20
-101.74359217633527
 30
0.0
 10
9.914498849221275
 20
-101.3967447113168
 30
0.0
 10
10.293180232413967
 20
-101.17962514972645
 30
0.0
  0
SPLINE
  5
38
330
17
100
AcDbEntity
  8
VISIBLE
100
AcDbSpline
 70
0
 71
3
 72
8
 73
4
 74
0
 40
0.0
 40
0.0
 40
0.0
 40
0.0
 40
0.0718979475136273
 40
0.0718979475136273
 40
0.0718979475136273
 40
0.0718979475136273
 10
11.48115138476971
 20
-111.14020820135254
 30
0.0
 10
12.228006889131809
 20
-110.7106196348412
 30
0.0
 10
12.575848818381633
 20
-110.05133763905846
 30
0.0
 10
12.490181350396057
 20
-109.22774392395111
 30
0.0
  0
SPLINE
  5
39
330
17
100
AcDbEntity
  8
VISIBLE
100
AcDbSpline
 70
0
 71
3
 72
23
 73
19
 74
0
 40
0.0
 40
0.0
 40
0.0
 40
0.0
 40
0.12499999999999986
 40
0.12499999999999986
 40
0.12499999999999986
 40
0.25
 40
0.25
 40
0.25
 40
0.5
 40
0.5
 40
0.5
 40
0.75
 40
0.75
 40
0.75
 40
0.8750000000000001
 40
0.8750000000000001
 40
0.8750000000000001
 40
1.0
 40
1.0
 40
1.0
 40
1.0
 10
-12.445402518579598
 20
-100.08035415714033
 30
0.0
 10
-12.314404695886134
 20
-100.70674945429771
 30
0.0
 10
-11.955296644911575
 20
-101.41423367244552
 30
0.0
 10
-11.387317464463742
 20
-102.16490356060683
 30
0.0
 10
-10.820131632059828
 20
-102.91540995847119
 30
0.0
 10
-10.044329491086634
 20
-103.70876504241967
 30
0.0
 10
-9.101474402851515
 20
-104.50246505843137
 30
0.0
 10
-7.220063672947363
 20
-106.09090059156533
 30
0.0
 10
-4.657184072019137
 20
-107.67439733682885
 30
0.0
 10
-1.9381367051037237
 20
-108.92839360741954
 30
0.0
 10
0.7788230890643479
 20
-110.18714725745875
 30
0.0
 10
3.632695106224162
 20
-111.10749967371979
 30
0.0
 10
6.038534920462781
 20
-111.50081064829502
 30
0.0
 10
7.242501768938305
 20
-111.6994615210625
 30
0.0
 10
8.335504520526376
 20
-111.76994623414338
 30
0.0
 10
9.258985897628419
 20
-111.70848858919062
 30
0.0
 10
10.183112340124524
 20
-111.64753235275467
 30
0.0
 10
10.937302681597902
 20
-111.45466121418963
 30
0.0
 10
11.481151384769703
 20
-111.14020820135255
 30
0.0
  0
SPLINE
  5
3A
330
17
100
AcDbEntity
  8
VISIBLE
100
AcDbSpline
 70
0
 71
3
 72
11
 73
7
 74
0
 40
0.0
 40
0.0
 40
0.0
 40
0.0
 40
0.386354944955441
 40
0.386354944955441
 40
0.386354944955441
 40
0.9999997797852771
 40
0.9999997797852771
 40
0.9999997797852771
 40
0.9999997797852771
 10
10.293180232413933
 20
-101.17962514972638
 30
0.0
 10
10.67766366053694
 20
-100.95608108928889
 30
0.0
 10
10.987859268129192
 20
-100.8738969427305
 30
0.0
 10
11.20956132134845
 20
-100.87764661325289
 30
0.0
 10
11.562546847903446
 20
-100.88556115174835
 30
0.0
 10
11.717564889255392
 20
-101.06503044859275
 30
0.0
 10
11.738283335856858
 20
-101.23414180441188
 30
0.0
  0
SPLINE
  5
3B
330
17
100
AcDbEntity
  8
VISIBLE
100
AcDbSpline
 70
0
 71
3
 72
17
 73
13
 74
0
 40
0.0
 40
0.0
 40
0.0
 40
0.0
 40
0.2453124813442432
 40
0.2453124813442432
 40
0.2453124813442432
 40
0.4906249626884864
 40
0.4906249626884864
 40
0.4906249626884864
 40
0.7341869555698233
 40
0.7341869555698233
 40
0.7341869555698233
 40
0.9437407017850333
 40
0.9437407017850333
 40
0.9437407017850333
 40
0.9437407017850333
 10
13.788582233137653
 20
-8.887058900778536
 30
0.0
 10
12.598371117965936
 20
-16.216887858052868
 30
0.0
 10
11.662472799713472
 20
-23.744495410571975
 30
0.0
 10
10.99905482754606
 20
-31.459400537719027
 30
0.0
 10
10.334964778565908
 20
-39.17377602752252
 30
0.0
 10
9.943383187133698
 20
-47.075443292908936
 30
0.0
 10
9.824392646272548
 20
-55.1395949076749
 30
0.0
 10
9.705180987284127
 20
-63.14566713577929
 30
0.0
 10
9.856412977641968
 20
-71.31244873976163
 30
0.0
 10
10.250269282943929
 20
-79.60284958447444
 30
0.0
 10
10.586597657523791
 20
-86.73481616633704
 30
0.0
 10
11.10812104490391
 20
-93.9603565607342
 30
0.0
 10
11.738283343981319
 20
-101.23414180811848
 30
0.0
  0
SPLINE
  5
3C
330
17
100
AcDbEntity
  8
VISIBLE
100
AcDbSpline
 70
0
 71
3
 72
17
 73
13
 74
0
 40
0.0
 40
0.0
 40
0.0
 40
0.0
 40
0.48664713483999605
 40
0.48664713483999605
 40
0.48664713483999605
 40
0.6291453986325031
 40
0.6291453986325031
 40
0.6291453986325031
 40
0.8262137648483173
 40
0.8262137648483173
 40
0.8262137648483173
 40
1.0
 40
1.0
 40
1.0
 40
1.0
 10
13.788582233137658
 20
-8.887058900778548
 30
0.0
 10
13.539765710113624
 20
-10.141163567622078
 30
0.0
 10
13.263251837797153
 20
-11.406388598458868
 30
0.0
 10
12.887937836183191
 20
-12.686360989441193
 30
0.0
 10
12.778374941936368
 20
-13.061283533967234
 30
0.0
 10
12.655238521891198
 20
-13.43668115295683
 30
0.0
 10
12.518528576047704
 20
-13.81255384641004
 30
0.0
 10
12.327159506343088
 20
-14.332965042274026
 30
0.0
 10
12.134493463181231
 20
-14.757162394387713
 30
0.0
 10
11.940530446562107
 20
-15.085145902751101
 30
0.0
 10
11.772103164410648
 20
-15.370628738348064
 30
0.0
 10
11.55590206543016
 20
-15.655950382620697
 30
0.0
 10
11.313708498984749
 20
-15.795056659848676
 30
0.0
  0
SPLINE
  5
3D
330
17
100
AcDbEntity
  8
VISIBLE
100
AcDbSpline
 70
0
 71
3
 72
11
 73
7
 74
0
 40
0.0
 40
0.0
 40
0.0
 40
0.0
 40
0.23339203830238853
 40
0.23339203830238853
 40
0.23339203830238853
 40
0.33087718708312713
 40
0.33087718708312713
 40
0.33087718708312713
 40
0.33087718708312713
 10
-2.543330085035474
 20
-6.367371794799594
 30
0.0
 10
-2.5284981970032527
 20
-7.27263575632145
 30
0.0
 10
-2.8005001948618173
 20
-8.07667090438635
 30
0.0
 10
-3.3008098087892663
 20
-8.652497580035021
 30
0.0
 10
-3.510180330549887
 20
-8.894362866162961
 30
0.0
 10
-3.752820806321599
 20
-9.094927784598221
 30
0.0
 10
-4.028731236104406
 20
-9.254192335340802
 30
0.0
  0
SPLINE
  5
3E
330
17
100
AcDbEntity
  8
VISIBLE
100
AcDbSpline
 70
0
 71
3
 72
23
 73
19
 74
0
 40
0.0
 40
0.0
 40
0.0
 40
0.0
 40
0.16738801300856046
 40
0.16738801300856046
 40
0.16738801300856046
 40
0.3678041285718782
 40
0.3678041285718782
 40
0.3678041285718782
 40
0.5062690846219685
 40
0.5062690846219685
 40
0.5062690846219685
 40
0.6406381918716927
 40
0.6406381918716927
 40
0.6406381918716927
 40
0.8346985560656336
 40
0.8346985560656336
 40
0.8346985560656336
 40
1.0
 40
1.0
 40
1.0
 40
1.0
 10
-4.028731236104406
 20
-9.254192335340802
 30
0.0
 10
-4.6514341414824
 20
-9.614533822913163
 30
0.0
 10
-5.4233124657379
 20
-9.745697384911299
 30
0.0
 10
-6.232304286117529
 20
-9.618149170349998
 30
0.0
 10
-7.201433562779434
 20
-9.469816520430992
 30
0.0
 10
-8.221333349353426
 20
-8.937871863098913
 30
0.0
 10
-9.089482770521931
 20
-8.105051948301973
 30
0.0
 10
-9.690294711824459
 20
-7.532646627431737
 30
0.0
 10
-10.218040881080018
 20
-6.8237768764241125
 30
0.0
 10
-10.631522365213259
 20
-6.052882241436823
 30
0.0
 10
-11.03361789878969
 20
-5.305162454649823
 30
0.0
 10
-11.329021464206086
 20
-4.500654838991311
 30
0.0
 10
-11.503911708199889
 20
-3.715207241806774
 30
0.0
 10
-11.75791655642908
 20
-2.57961997389051
 30
0.0
 10
-11.758620645542486
 20
-1.4889168838261952
 30
0.0
 10
-11.515475792681016
 20
-0.644086573014476
 30
0.0
 10
-11.30970127394423
 20
0.07786070153818746
 30
0.0
 10
-10.928017018118968
 20
0.6204325629363444
 30
0.0
 10
-10.407285498748747
 20
0.9195541416517007
 30
0.0
  0
SPLINE
  5
3F
330
17
100
AcDbEntity
  8
VISIBLE
100
AcDbSpline
 70
0
 71
3
 72
17
 73
13
 74
0
 40
0.0
 40
0.0
 40
0.0
 40
0.0
 40
0.29324055658923176
 40
0.29324055658923176
 40
0.29324055658923176
 40
0.4975699573404847
 40
0.4975699573404847
 40
0.4975699573404847
 40
0.7627397972492146
 40
0.7627397972492146
 40
0.7627397972492146
 40
1.0
 40
1.0
 40
1.0
 40
1.0
 10
-10.407285498748745
 20
0.9195541416517007
 30
0.0
 10
-9.71743168672537
 20
1.3226081107921508
 30
0.0
 10
-8.776008249548434
 20
1.2866229296006961
 30
0.0
 10
-7.758429229969085
 20
0.8443120761027949
 30
0.0
 10
-7.050904741577961
 20
0.5391909611549769
 30
0.0
 10
-6.310761275552917
 20
0.04341764566533192
 30
0.0
 10
-5.619789470468506
 20
-0.5813543890292099
 30
0.0
 10
-4.722747600365647
 20
-1.391388657658655
 30
0.0
 10
-3.911587750741112
 20
-2.415261863302147
 30
0.0
 10
-3.3522931055184424
 20
-3.4901554033867996
 30
0.0
 10
-2.8500423872212473
 20
-4.451291805106882
 30
0.0
 10
-2.553842856505456
 20
-5.456255596133815
 30
0.0
 10
-2.5433300850354734
 20
-6.367371794799594
 30
0.0
  0
SPLINE
  5
40
330
17
100
AcDbEntity
  8
VISIBLE
100
AcDbSpline
 70
0
 71
2
 72
6
 73
3
 74
0
 40
0.0
 40
0.0
 40
0.0
 40
1.0
 40
1.0
 40
1.0
 10
5.82719623319549
 20
-91.65467718165415
 30
0.0
 10
6.213134481980255
 20
-91.87987777074737
 30
0.0
 10
6.5754286363753405
 20
-92.01043024718861
 30
0.0
  0
SPLINE
  5
41
330
17
100
AcDbEntity
  8
VISIBLE
100
AcDbSpline
 70
0
 71
3
 72
11
 73
7
 74
0
 40
0.0
 40
0.0
 40
0.0
 40
0.0
 40
0.08318840958872227
 40
0.08318840958872227
 40
0.08318840958872227
 40
0.16637681917744454
 40
0.16637681917744454
 40
0.16637681917744454
 40
0.16637681917744454
 10
-0.7405050624763123
 20
-95.14113418477315
 30
0.0
 10
-0.7307160249872909
 20
-95.78241654328797
 30
0.0
 10
-0.8700849818849146
 20
-96.37789081091557
 30
0.0
 10
-1.1317686016906912
 20
-96.87375584671581
 30
0.0
 10
-1.3928142429266075
 20
-97.37035957181719
 30
0.0
 10
-1.774104296631165
 20
-97.76750532200245
 30
0.0
 10
-2.2322703417962795
 20
-98.03162902889852
 30
0.0
  0
SPLINE
  5
42
330
17
100
AcDbEntity
  8
VISIBLE
100
AcDbSpline
 70
0
 71
3
 72
20
 73
16
 74
0
 40
0.0
 40
0.0
 40
0.0
 40
0.0
 40
0.1806512892957393
 40
0.1806512892957393
 40
0.1806512892957393
 40
0.366400034960547
 40
0.366400034960547
 40
0.366400034960547
 40
0.5399328426145218
 40
0.5399328426145218
 40
0.5399328426145218
 40
0.7441606255368453
 40
0.7441606255368453
 40
0.7441606255368453
 40
1.0
 40
1.0
 40
1.0
 40
1.0
 10
-2.232270341796279
 20
-98.03162902889852
 30
0.0
 10
-2.893232161005377
 20
-98.414966449847
 30
0.0
 10
-3.715646505273846
 20
-98.51716752699207
 30
0.0
 10
-4.567537184015864
 20
-98.30856707728975
 30
0.0
 10
-5.444047300443075
 20
-98.09829031902602
 30
0.0
 10
-6.34786779573431
 20
-97.55710839269769
 30
0.0
 10
-7.145649028277477
 20
-96.78119840708763
 30
0.0
 10
-7.892346523732173
 20
-96.05918635407284
 30
0.0
 10
-8.546280658917286
 20
-95.13828813212206
 30
0.0
 10
-9.039703117117766
 20
-94.16790369501913
 30
0.0
 10
-9.622323930154542
 20
-93.02540211035259
 30
0.0
 10
-9.981973038487784
 20
-91.82396013789872
 30
0.0
 10
-10.068336854643848
 20
-90.81153288009521
 30
0.0
 10
-10.180109738522964
 20
-89.53660742125317
 30
0.0
 10
-9.859126520881045
 20
-88.57232644848247
 30
0.0
 10
-9.11795344432828
 20
-88.15067354063761
 30
0.0
  0
SPLINE
  5
43
330
17
100
AcDbEntity
  8
VISIBLE
100
AcDbSpline
 70
0
 71
3
 72
17
 73
13
 74
0
 40
0.0
 40
0.0
 40
0.0
 40
0.0
 40
0.1886898118006247
 40
0.1886898118006247
 40
0.1886898118006247
 40
0.49467632570320413
 40
0.49467632570320413
 40
0.49467632570320413
 40
0.7456375112930057
 40
0.7456375112930057
 40
0.7456375112930057
 40
1.0
 40
1.0
 40
1.0
 40
1.0
 10
-9.11795344432828
 20
-88.15067354063761
 30
0.0
 10
-8.70503143764234
 20
-87.91114635999921
 30
0.0
 10
-8.161928607233369
 20
-87.83804595864669
 30
0.0
 10
-7.532799331839221
 20
-87.93274943305126
 30
0.0
 10
-6.51432779469708
 20
-88.08286817927949
 30
0.0
 10
-5.277407681999447
 20
-88.67853690628294
 30
0.0
 10
-4.153995511920103
 20
-89.53890813738687
 30
0.0
 10
-3.2321208282621843
 20
-90.2438275157267
 30
0.0
 10
-2.3830996858133346
 20
-91.12327935931278
 30
0.0
 10
-1.762992008594891
 20
-92.09028697346987
 30
0.0
 10
-1.1313330689568522
 20
-93.06808077907286
 30
0.0
 10
-0.7505483684929369
 20
-94.1494515465849
 30
0.0
 10
-0.740505062476314
 20
-95.14113418477315
 30
0.0
  0
ELLIPSE
  5
44
330
17
100
AcDbEntity
  8
VISIBLE
100
AcDbEllipse
 10
-2.4748737341529385
 20
-91.24349291867334
 30
0.0
 11
-2.999999999999999
 21
5.196152422706633
 31
0.0
 40
0.577350269189626
 41
0.6476811199974777
 42
2.7014151777238427
  0
ELLIPSE
  5
45
330
17
100
AcDbEntity
  8
VISIBLE
100
AcDbEllipse
 10
2.474873734152894
 20
-88.3857548854263
 30
0.0
 11
-2.999999999999999
 21
5.196152422706633
 31
0.0
 40
0.577350269189626
 41
3.9269908169872414
 42
4.696045296181316
  0
ELLIPSE
  5
46
330
17
100
AcDbEntity
  8
VISIBLE
100
AcDbEllipse
 10
2.474873734152894
 20
-88.3857548854263
 30
0.0
 11
-2.999999999999999
 21
5.196152422706633
 31
0.0
 40
0.577350269189626
 41
3.3094217570728004
 42
3.9269908169872414
  0
ELLIPSE
  5
47
330
17
100
AcDbEntity
  8
VISIBLE
100
AcDbEllipse
 10
-2.4748737341529385
 20
-1.4288690166234659
 30
0.0
 11
-2.999999999999999
 21
5.196152422706633
 31
0.0
 40
0.577350269189626
 41
0.9392311038340964
 42
2.3396343760660647
  0
ELLIPSE
  5
48
330
17
100
AcDbEntity
  8
VISIBLE
100
AcDbEllipse
 10
2.474873734152894
 20
-88.3857548854263
 30
0.0
 11
-7.999999999999999
 21
13.85640646055102
 31
0.0
 40
0.5773502691896258
 41
2.7379810418045025
 42
2.875406336373911
  0
SPLINE
  5
49
330
17
100
AcDbEntity
  8
VISIBLE
100
AcDbSpline
 70
0
 71
3
 72
14
 73
10
 74
0
 40
0.0
 40
0.0
 40
0.0
 40
0.0
 40
0.33008116893607325
 40
0.33008116893607325
 40
0.33008116893607325
 40
0.6601623378721465
 40
0.6601623378721465
 40
0.6601623378721465
 40
1.0
 40
1.0
 40
1.0
 40
1.0
 10
16.955888119843042
 20
7.620625048427998
 30
0.0
 10
14.53563749480021
 20
-3.217657175883688
 30
0.0
 10
12.745458144883692
 20
-14.70219953523031
 30
0.0
 10
11.585517299519502
 20
-26.914109325615126
 30
0.0
 10
10.426166157593572
 20
-39.11938118772433
 30
0.0
 10
9.898934192455304
 20
-52.05728758612073
 30
0.0
 10
10.020500329801898
 20
-65.62307382509168
 30
0.0
 10
10.14685384085118
 20
-79.58312051145526
 30
0.0
 10
10.956077654598582
 20
-94.20786522385444
 30
0.0
 10
12.490181350396053
 20
-109.22774392395112
 30
0.0
  0
SPLINE
  5
4A
330
17
100
AcDbEntity
  8
VISIBLE
100
AcDbSpline
 70
0
 71
3
 72
17
 73
13
 74
0
 40
0.0
 40
0.0
 40
0.0
 40
0.0
 40
0.24888216497212445
 40
0.24888216497212445
 40
0.24888216497212445
 40
0.4977643299442489
 40
0.4977643299442489
 40
0.4977643299442489
 40
0.7488821649721245
 40
0.7488821649721245
 40
0.7488821649721245
 40
1.0
 40
1.0
 40
1.0
 40
1.0
 10
-16.988383316061636
 20
21.602326581569557
 30
0.0
 10
-18.478369922734213
 20
12.160186509554535
 30
0.0
 10
-19.536031679443134
 20
2.4451931152891855
 30
0.0
 10
-20.116158845447224
 20
-7.450440483908347
 30
0.0
 10
-20.697573485334285
 20
-17.346596300691054
 30
0.0
 10
-20.80145094744649
 20
-27.42338091503375
 30
0.0
 10
-20.41863075976537
 20
-37.60320330200291
 30
0.0
 10
-20.033704749395714
 20
-47.87507710234548
 30
0.0
 10
-19.153197989209293
 20
-58.25178823084522
 30
0.0
 10
-17.806704844026815
 20
-68.6770610584302
 30
0.0
 10
-16.461788171628083
 20
-79.10386350022989
 30
0.0
 10
-14.650108862223707
 20
-89.57611001015297
 30
0.0
 10
-12.445402518579595
 20
-100.0803541571403
 30
0.0
  0
SPLINE
  5
4B
330
17
100
AcDbEntity
  8
HIDDEN
100
AcDbSpline
 70
0
 71
3
 72
29
 73
25
 74
0
 40
0.0
 40
0.0
 40
0.0
 40
0.0
 40
0.12500000000000003
 40
0.12500000000000003
 40
0.12500000000000003
 40
0.25
 40
0.25
 40
0.25
 40
0.37500000000000006
 40
0.37500000000000006
 40
0.37500000000000006
 40
0.5000000000000001
 40
0.5000000000000001
 40
0.5000000000000001
 40
0.625
 40
0.625
 40
0.625
 40
0.75
 40
0.75
 40
0.75
 40
0.8750000000000001
 40
0.8750000000000001
 40
0.8750000000000001
 40
1.0
 40
1.0
 40
1.0
 40
1.0
 10
12.490181350396057
 20
-109.2277439239511
 30
0.0
 10
12.416772449162378
 20
-108.50107098722374
 30
0.0
 10
12.006588983076405
 20
-107.64757044536572
 30
0.0
 10
11.291574077388763
 20
-106.73370891681645
 30
0.0
 10
10.578235976975904
 20
-105.82017737801748
 30
0.0
 10
9.560752044097054
 20
-104.84716200743307
 30
0.0
 10
8.318359153736841
 20
-103.89043666538319
 30
0.0
 10
7.0772015438887985
 20
-102.93361908571343
 30
0.0
 10
5.612327090659082
 20
-101.9940100356194
 30
0.0
 10
4.037813331994202
 20
-101.14478184545793
 30
0.0
 10
2.4638991901630547
 20
-100.29505368696802
 30
0.0
 10
0.7818569898409211
 20
-99.53652189100583
 30
0.0
 10
-0.8773237423176384
 20
-98.92825735173807
 30
0.0
 10
-2.5366347570131262
 20
-98.31916368869388
 30
0.0
 10
-4.171491422538315
 20
-97.86092161703779
 30
0.0
 10
-5.654578783849148
 20
-97.58921687363882
 30
0.0
 10
-7.138505853001911
 20
-97.31648415835376
 30
0.0
 10
-8.469239444088073
 20
-97.2305501011004
 30
0.0
 10
-9.543148278894886
 20
-97.33810683863182
 30
0.0
 10
-10.61847427638258
 20
-97.44459831460875
 30
0.0
 10
-11.435943882417757
 20
-97.74447784180177
 30
0.0
 10
-11.931896415232687
 20
-98.2143922158755
 30
0.0
 10
-12.42962084043434
 20
-98.68337145695855
 30
0.0
 10
-12.605351227230436
 20
-99.32193487557369
 30
0.0
 10
-12.445402518579598
 20
-100.08035415714033
 30
0.0
  0
SPLINE
  5
4C
330
17
100
AcDbEntity
  8
HIDDEN
100
AcDbSpline
 70
0
 71
3
 72
17
 73
13
 74
0
 40
0.0
 40
0.0
 40
0.0
 40
0.0
 40
1.0
 40
1.0
 40
1.0
 40
2.3482820463097953
 40
2.3482820463097953
 40
2.3482820463097953
 40
3.461583674542564
 40
3.461583674542564
 40
3.461583674542564
 40
4.125139117602705
 40
4.125139117602705
 40
4.125139117602705
 40
4.125139117602705
 10
11.028611459273993
 20
1.4683923092333395
 30
0.0
 10
11.041842353153854
 20
2.4130319735577674
 30
0.0
 10
10.87213977812009
 20
3.522183570668857
 30
0.0
 10
10.523862820613147
 20
4.602469822822052
 30
0.0
 10
10.059335882649583
 20
6.0614273376852745
 30
0.0
 10
9.255163271638471
 20
7.460828087660572
 30
0.0
 10
8.27549879937204
 20
8.409135890324222
 30
0.0
 10
7.470999029007345
 20
9.19753627414218
 30
0.0
 10
6.558103588046641
 20
9.671498762451673
 30
0.0
 10
5.735810147115793
 20
9.742870531970247
 30
0.0
 10
5.245941953174866
 20
9.78769541725793
 30
0.0
 10
4.789739536534636
 20
9.694000733130553
 30
0.0
 10
4.407285341708415
 20
9.47275059833424
 30
0.0
  0
SPLINE
  5
4D
330
17
100
AcDbEntity
  8
HIDDEN
100
AcDbSpline
 70
0
 71
3
 72
23
 73
19
 74
0
 40
0.0
 40
0.0
 40
0.0
 40
0.0
 40
0.08172330903865718
 40
0.08172330903865718
 40
0.08172330903865718
 40
0.23822352586582982
 40
0.23822352586582982
 40
0.23822352586582982
 40
0.4632691957278605
 40
0.4632691957278605
 40
0.4632691957278605
 40
0.6280130075095094
 40
0.6280130075095094
 40
0.6280130075095094
 40
0.788958652512147
 40
0.788958652512147
 40
0.788958652512147
 40
1.0
 40
1.0
 40
1.0
 40
1.0
 10
4.407285341708415
 20
9.47275059833424
 30
0.0
 10
4.146314313093672
 20
9.321741184282633
 30
0.0
 10
3.9238454486382732
 20
9.116710659684236
 30
0.0
 10
3.739878748342224
 20
8.857659024539029
 30
0.0
 10
3.3894437018584043
 20
8.364781605095944
 30
0.0
 10
3.2023861255654644
 20
7.6867275729692075
 30
0.0
 10
3.205119710530316
 20
6.907525194912941
 30
0.0
 10
3.203625913241931
 20
5.78759430321653
 30
0.0
 10
3.603875802822874
 20
4.4630461365881215
 30
0.0
 10
4.2741317645479695
 20
3.2176488961350813
 30
0.0
 10
4.761807949217186
 20
2.3056877125569417
 30
0.0
 10
5.386891431312956
 20
1.4368162888200213
 30
0.0
 10
6.047601903590434
 20
0.7178532654107961
 30
0.0
 10
6.693371122011568
 20
0.014231508967836275
 30
0.0
 10
7.368440476955313
 20
-0.5431630438744852
 30
0.0
 10
7.985854316294056
 20
-0.889732248577
 30
0.0
 10
8.797930366260168
 20
-1.3468634065401661
 30
0.0
 10
9.507424626184148
 20
-1.4413366684129376
 30
0.0
 10
10.02873098066374
 20
-1.138112656714934
 30
0.0
  0
SPLINE
  5
4E
330
17
100
AcDbEntity
  8
HIDDEN
100
AcDbSpline
 70
0
 71
3
 72
14
 73
10
 74
0
 40
0.0
 40
0.0
 40
0.0
 40
0.0
 40
0.10452302861135178
 40
0.10452302861135178
 40
0.10452302861135178
 40
0.5522615143056759
 40
0.5522615143056759
 40
0.5522615143056759
 40
1.0
 40
1.0
 40
1.0
 40
1.0
 10
10.028730980663742
 20
-1.138112656714934
 30
0.0
 10
10.093522674381168
 20
-1.1007112384374726
 30
0.0
 10
10.155478468332305
 20
-1.0573419241934887
 30
0.0
 10
10.214598362517147
 20
-1.0080047139829862
 30
0.0
 10
10.469374297032285
 20
-0.7948202141933645
 30
0.0
 10
10.66664364593295
 20
-0.47673106037270185
 30
0.0
 10
10.80640640921911
 20
-0.05373725252099728
 30
0.0
 10
10.944757119833737
 20
0.3662899402115164
 30
0.0
 10
11.020981927173654
 20
0.8852186220634456
 30
0.0
 10
11.028611459273993
 20
1.4683923092333395
 30
0.0
  0
SPLINE
  5
4F
330
17
100
AcDbEntity
  8
HIDDEN
100
AcDbSpline
 70
0
 71
3
 72
20
 73
16
 74
0
 40
0.0
 40
0.0
 40
0.0
 40
0.0
 40
0.3298426937775282
 40
0.3298426937775282
 40
0.3298426937775282
 40
0.6486540656789701
 40
0.6486540656789701
 40
0.6486540656789701
 40
1.0
 40
1.0
 40
1.0
 40
1.3250084040931744
 40
1.3250084040931744
 40
1.3250084040931744
 40
1.6395417756087483
 40
1.6395417756087483
 40
1.6395417756087483
 40
1.6395417756087483
 10
9.22578643671482
 20
-89.38709310489286
 30
0.0
 10
9.236976258887504
 20
-88.59228599007629
 30
0.0
 10
9.134383999434572
 20
-87.67227051317859
 30
0.0
 10
8.933122858614292
 20
-86.75031253780959
 30
0.0
 10
8.738521517156354
 20
-85.85885701590627
 30
0.0
 10
8.452021656381586
 20
-84.96739170083569
 30
0.0
 10
8.080896851827644
 20
-84.15984907628831
 30
0.0
 10
7.672617310776933
 20
-83.26949211447435
 30
0.0
 10
7.157399345271354
 20
-82.47821276374961
 30
0.0
 10
6.563550465256112
 20
-81.88918621821767
 30
0.0
 10
6.015787831558952
 20
-81.34315949030378
 30
0.0
 10
5.400612090601094
 20
-80.97542300203588
 30
0.0
 10
4.789263699459793
 20
-80.84184803557449
 30
0.0
 10
4.198181853140366
 20
-80.71021914617373
 30
0.0
 10
3.6150369193020055
 20
-80.798050966778
 30
0.0
 10
3.117953275655223
 20
-81.08626949971914
 30
0.0
  0
SPLINE
  5
50
330
17
100
AcDbEntity
  8
HIDDEN
100
AcDbSpline
 70
0
 71
3
 72
20
 73
16
 74
0
 40
0.0
 40
0.0
 40
0.0
 40
0.0
 40
0.09602563391764728
 40
0.09602563391764728
 40
0.09602563391764728
 40
0.3811685784270064
 40
0.3811685784270064
 40
0.3811685784270064
 40
0.5399366191955304
 40
0.5399366191955304
 40
0.5399366191955304
 40
0.6987046599640546
 40
0.6987046599640546
 40
0.6987046599640546
 40
1.0
 40
1.0
 40
1.0
 40
1.0
 10
3.117953275655223
 20
-81.08626949971915
 30
0.0
 10
2.8646920499575783
 20
-81.23282602475517
 30
0.0
 10
2.6372456589058233
 20
-81.42601466956866
 30
0.0
 10
2.435614102499949
 20
-81.6658354341593
 30
0.0
 10
1.8375805424127136
 20
-82.37283796447859
 30
0.0
 10
1.5182862592244537
 20
-83.46814439554096
 30
0.0
 10
1.5846278957933664
 20
-84.6997732746103
 30
0.0
 10
1.6191116130063274
 20
-85.38477895557573
 30
0.0
 10
1.7693375805581917
 20
-86.10976198890005
 30
0.0
 10
2.021509638447199
 20
-86.82279255583371
 30
0.0
 10
2.2729072116466162
 20
-87.53598648500018
 30
0.0
 10
2.625771735141892
 20
-88.23735400919956
 30
0.0
 10
3.044905706598019
 20
-88.87956856494563
 30
0.0
 10
3.8392751120529716
 20
-90.10130164197683
 30
0.0
 10
4.871508619475145
 20
-91.09928616180534
 30
0.0
 10
5.82719623319549
 20
-91.65467718165415
 30
0.0
  0
SPLINE
  5
51
330
17
100
AcDbEntity
  8
HIDDEN
100
AcDbSpline
 70
0
 71
3
 72
8
 73
4
 74
0
 40
0.0
 40
0.0
 40
0.0
 40
0.0
 40
1.0
 40
1.0
 40
1.0
 40
1.0
 10
6.575428636375343
 20
-92.01043024718862
 30
0.0
 10
7.229584428079231
 20
-92.24650653204883
 30
0.0
 10
7.801108672677445
 20
-92.2401202749521
 30
0.0
 10
8.232270184361418
 20
-91.98992373613692
 30
0.0
  0
SPLINE
  5
52
330
17
100
AcDbEntity
  8
HIDDEN
100
AcDbSpline
 70
0
 71
3
 72
11
 73
7
 74
0
 40
0.0
 40
0.0
 40
0.0
 40
0.0
 40
0.27193343425157224
 40
0.27193343425157224
 40
0.27193343425157224
 40
1.0
 40
1.0
 40
1.0
 40
1.0
 10
8.232270184361418
 20
-91.9899237361369
 30
0.0
 10
8.407064802822413
 20
-91.88892790381493
 30
0.0
 10
8.559221556278281
 20
-91.7493256497219
 30
0.0
 10
8.688740444729024
 20
-91.57111697385791
 30
0.0
 10
9.035737962064989
 20
-91.09698157540015
 30
0.0
 10
9.21308390246603
 20
-90.33803171745525
 30
0.0
 10
9.22578643671482
 20
-89.38709310489287
 30
0.0
  0
ELLIPSE
  5
53
330
17
100
AcDbEntity
  8
HIDDEN
100
AcDbEllipse
 10
-2.4748737341529385
 20
-91.24349291867334
 30
0.0
 11
-2.999999999999999
 21
5.196152422706633
 31
0.0
 40
0.577350269189626
 41
3.9269908169872414
 42
6.283185307179586
  0
ELLIPSE
  5
54
330
17
100
AcDbEntity
  8
HIDDEN
100
AcDbEllipse
 10
-2.4748737341529385
 20
-91.24349291867334
 30
0.0
 11
-2.999999999999999
 21
5.196152422706633
 31
0.0
 40
0.577350269189626
 41
0.0
 42
0.6476811199974777
  0
ELLIPSE
  5
55
330
17
100
AcDbEntity
  8
HIDDEN
100
AcDbEllipse
 10
-2.4748737341529385
 20
-91.24349291867334
 30
0.0
 11
-2.999999999999999
 21
5.196152422706633
 31
0.0
 40
0.577350269189626
 41
2.7014151777238427
 42
3.141592653589793
  0
ELLIPSE
  5
56
330
17
100
AcDbEntity
  8
HIDDEN
100
AcDbEllipse
 10
-2.4748737341529385
 20
-91.24349291867334
 30
0.0
 11
-2.999999999999999
 21
5.196152422706633
 31
0.0
 40
0.577350269189626
 41
3.141592653589793
 42
3.9269908169872414
  0
ELLIPSE
  5
57
330
17
100
AcDbEntity
  8
HIDDEN
100
AcDbEllipse
 10
2.474873734152894
 20
-88.3857548854263
 30
0.0
 11
-2.999999999999999
 21
5.196152422706633
 31
0.0
 40
0.577350269189626
 41
4.696045296181316
 42
6.283185307179586
  0
ELLIPSE
  5
58
330
17
100
AcDbEntity
  8
HIDDEN
100
AcDbEllipse
 10
2.474873734152894
 20
-88.3857548854263
 30
0.0
 11
-2.999999999999999
 21
5.196152422706633
 31
0.0
 40
0.577350269189626
 41
0.0
 42
3.141592653589793
  0
ELLIPSE
  5
59
330
17
100
AcDbEntity
  8
HIDDEN
100
AcDbEllipse
 10
2.474873734152894
 20
-88.3857548854263
 30
0.0
 11
-2.999999999999999
 21
5.196152422706633
 31
0.0
 40
0.577350269189626
 41
3.141592653589793
 42
3.3094217570728004
  0
ELLIPSE
  5
5A
330
17
100
AcDbEntity
  8
HIDDEN
100
AcDbEllipse
 10
-2.4748737341529385
 20
-1.4288690166234659
 30
0.0
 11
-2.999999999999999
 21
5.196152422706633
 31
0.0
 40
0.577350269189626
 41
3.9269908169872414
 42
6.283185307179586
  0
ELLIPSE
  5
5B
330
17
100
AcDbEntity
  8
HIDDEN
100
AcDbEllipse
 10
-2.4748737341529385
 20
-1.4288690166234659
 30
0.0
 11
-2.999999999999999
 21
5.196152422706633
 31
0.0
 40
0.577350269189626
 41
0.0
 42
0.9392311038340964
  0
ELLIPSE
  5
5C
330
17
100
AcDbEntity
  8
HIDDEN
100
AcDbEllipse
 10
-2.4748737341529385
 20
-1.4288690166234659
 30
0.0
 11
-2.999999999999999
 21
5.196152422706633
 31
0.0
 40
0.577350269189626
 41
2.3396343760660647
 42
3.141592653589793
  0
ELLIPSE
  5
5D
330
17
100
AcDbEntity
  8
HIDDEN
100
AcDbEllipse
 10
-2.4748737341529385
 20
-1.4288690166234659
 30
0.0
 11
-2.999999999999999
 21
5.196152422706633
 31
0.0
 40
0.577350269189626
 41
3.141592653589793
 42
3.9269908169872414
  0
ELLIPSE
  5
5E
330
17
100
AcDbEntity
  8
HIDDEN
100
AcDbEllipse
 10
2.474873734152894
 20
1.4288690166235742
 30
0.0
 11
-2.999999999999999
 21
5.196152422706633
 31
0.0
 40
0.577350269189626
 41
3.9269908169872414
 42
6.283185307179586
  0
ELLIPSE
  5
5F
330
17
100
AcDbEntity
  8
HIDDEN
100
AcDbEllipse
 10
2.474873734152894
 20
1.4288690166235742
 30
0.0
 11
-2.999999999999999
 21
5.196152422706633
 31
0.0
 40
0.577350269189626
 41
0.0
 42
3.141592653589793
  0
ELLIPSE
  5
60
330
17
100
AcDbEntity
  8
HIDDEN
100
AcDbEllipse
 10
2.474873734152894
 20
1.4288690166235742
 30
0.0
 11
-2.999999999999999
 21
5.196152422706633
 31
0.0
 40
0.577350269189626
 41
3.141592653589793
 42
3.9269908169872414
  0
LINE
  5
61
330
17
100
AcDbEntity
  8
HIDDEN
100
AcDbLine
 10
13.788582233137657
 20
-8.887058900778541
 30
0.0
 11
13.788582233137657
 21
-5.1031036307982305
 31
0.0
  0
ELLIPSE
  5
62
330
17
100
AcDbEntity
  8
HIDDEN
100
AcDbEllipse
 10
2.474873734152894
 20
1.428869016623575
 30
0.0
 11
-7.999999999999999
 21
13.85640646055102
 31
0.0
 40
0.5773502691896258
 41
3.9269908169872414
 42
6.283185307179586
  0
ELLIPSE
  5
63
330
17
100
AcDbEntity
  8
HIDDEN
100
AcDbEllipse
 10
2.474873734152894
 20
1.428869016623575
 30
0.0
 11
-7.999999999999999
 21
13.85640646055102
 31
0.0
 40
0.5773502691896258
 41
0.0
 42
0.7853981633974483
  0
ELLIPSE
  5
64
330
17
100
AcDbEntity
  8
HIDDEN
100
AcDbEllipse
 10
2.474873734152894
 20
-88.3857548854263
 30
0.0
 11
-7.999999999999999
 21
13.85640646055102
 31
0.0
 40
0.5773502691896258
 41
0.7853981633974483
 42
2.7379810418045025
  0
ELLIPSE
  5
65
330
17
100
AcDbEntity
  8
HIDDEN
100
AcDbEllipse
 10
2.474873734152894
 20
-88.3857548854263
 30
0.0
 11
-7.999999999999999
 21
13.85640646055102
 31
0.0
 40
0.5773502691896258
 41
2.875406336373911
 42
3.141592653589793
  0
ELLIPSE
  5
66
330
17
100
AcDbEntity
  8
HIDDEN
100
AcDbEllipse
 10
2.474873734152894
 20
-88.3857548854263
 30
0.0
 11
-7.999999999999999
 21
13.85640646055102
 31
0.0
 40
0.5773502691896258
 41
3.141592653589793
 42
3.3154728296612257
  0
LINE
  5
67
330
17
100
AcDbEntity
  8
HIDDEN
100
AcDbLine
 10
-8.838834764831866
 20
-81.8537822380045
 30
0.0
 11
-8.838834764831866
 21
7.9608416640453825
 31
0.0
  0
LINE
  5
68
330
17
100
AcDbEntity
  8
HIDDEN
100
AcDbLine
 10
-13.7885822331377
 20
-84.71152027125153
 30
0.0
 11
-13.7885822331377
 21
5.103103630798344
 31
0.0
  0
ELLIPSE
  5
69
330
17
100
AcDbEntity
  8
HIDDEN
100
AcDbEllipse
 10
-2.4748737341529385
 20
-1.4288690166234665
 30
0.0
 11
-7.999999999999999
 21
13.85640646055102
 31
0.0
 40
0.5773502691896258
 41
3.9269908169872414
 42
6.283185307179586
  0
ELLIPSE
  5
6A
330
17
100
AcDbEntity
  8
HIDDEN
100
AcDbEllipse
 10
-2.4748737341529385
 20
-1.4288690166234665
 30
0.0
 11
-7.999999999999999
 21
13.85640646055102
 31
0.0
 40
0.5773502691896258
 41
0.0
 42
0.7853981633974483
  0
ELLIPSE
  5
6B
330
17
100
AcDbEntity
  8
HIDDEN
100
AcDbEllipse
 10
-2.4748737341529385
 20
-91.24349291867334
 30
0.0
 11
-7.999999999999999
 21
13.85640646055102
 31
0.0
 40
0.5773502691896258
 41
0.7853981633974483
 42
3.141592653589793
  0
ELLIPSE
  5
6C
330
17
100
AcDbEntity
  8
HIDDEN
100
AcDbEllipse
 10
-2.4748737341529385
 20
-91.24349291867334
 30
0.0
 11
-7.999999999999999
 21
13.85640646055102
 31
0.0
 40
0.5773502691896258
 41
3.141592653589793
 42
3.315472829661238
  0
LINE
  5
6D
330
17
100
AcDbEntity
  8
HIDDEN
100
AcDbLine
 10
8.838834764831823
 20
-11.744796934025715
 30
0.0
 11
8.838834764831823
 21
-7.960841664045276
 31
0.0
  0
LINE
  5
6E
330
17
100
AcDbEntity
  8
HIDDEN
100
AcDbLine
 10
-5.47487373415294
 20
-86.04734049596671
 30
0.0
 11
-9.117953281207814
 21
-88.15067345313805
 31
0.0
  0
LINE
  5
6F
330
17
100
AcDbEntity
  8
HIDDEN
100
AcDbLine
 10
0.5251262658470602
 20
-96.43964534137999
 30
0.0
 11
-2.232270151824789
 21
-98.03162890538533
 31
0.0
  0
LINE
  5
70
330
17
100
AcDbEntity
  8
HIDDEN
100
AcDbLine
 10
3.1179532805042163
 20
-81.0862695059545
 30
0.0
 11
-0.5251262658471054
 21
-83.18960246271966
 31
0.0
  0
LINE
  5
71
330
17
100
AcDbEntity
  8
HIDDEN
100
AcDbLine
 10
8.232270151832564
 20
-91.98992374412308
 30
0.0
 11
5.474873734152895
 21
-93.58190730813294
 31
0.0
  0
LINE
  5
72
330
17
100
AcDbEntity
  8
HIDDEN
100
AcDbLine
 10
-5.47487373415294
 20
3.767283406083165
 30
0.0
 11
-10.407285346627862
 21
0.919554233866733
 31
0.0
  0
LINE
  5
73
330
17
100
AcDbEntity
  8
HIDDEN
100
AcDbLine
 10
0.5251262658470602
 20
-6.6250214393301015
 30
0.0
 11
-4.0287312515904095
 21
-9.254192302873825
 31
0.0
  0
LINE
  5
74
330
17
100
AcDbEntity
  8
HIDDEN
100
AcDbLine
 10
4.407285345583454
 20
9.472750610943674
 30
0.0
 11
-0.5251262658471054
 21
6.625021439330206
 31
0.0
  0
LINE
  5
75
330
17
100
AcDbEntity
  8
HIDDEN
100
AcDbLine
 10
10.02873125628637
 20
-1.138112539828097
 30
0.0
 11
5.474873734152895
 21
-3.7672834060830604
 31
0.0
  0
LINE
  5
76
330
17
100
AcDbEntity
  8
HIDDEN
100
AcDbLine
 10
-10.47487373415294
 20
12.427537443927555
 30
0.0
 11
-5.525126265847107
 21
15.285275477174597
 31
0.0
  0
LINE
  5
77
330
17
100
AcDbEntity
  8
HIDDEN
100
AcDbLine
 10
5.525126265847061
 20
-105.09989937922437
 30
0.0
 11
10.474873734152894
 21
-102.24216134597732
 31
0.0
  0
LINE
  5
78
330
17
100
AcDbEntity
  8
HIDDEN
100
AcDbLine
 10
-8.838834764831866
 20
-81.85378223800448
 30
0.0
 11
-13.7885822331377
 21
-84.71152027125153
 31
0.0
  0
LINE
  5
79
330
17
100
AcDbEntity
  8
HIDDEN
100
AcDbLine
 10
-8.838834764831866
 20
7.960841664045384
 30
0.0
 11
-13.7885822331377
 21
5.103103630798342
 31
0.0
  0
LINE
  5
7A
330
17
100
AcDbEntity
  8
HIDDEN
100
AcDbLine
 10
13.788582233137657
 20
-5.103103630798234
 30
0.0
 11
8.838834764831823
 21
-7.960841664045276
 31
0.0
  0
ENDSEC
  0
SECTION
  2
OBJECTS
  0
DICTIONARY
  5
A
330
0
100
AcDbDictionary
281
1
  3
ACAD_COLOR
350
B
  3
ACAD_GROUP
350
C
  3
ACAD_LAYOUT
350
D
  3
ACAD_MATERIAL
350
E
  3
ACAD_MLEADERSTYLE
350
F
  3
ACAD_MLINESTYLE
350
10
  3
ACAD_PLOTSETTINGS
350
11
  3
ACAD_PLOTSTYLENAME
350
12
  3
ACAD_SCALELIST
350
14
  3
ACAD_TABLESTYLE
350
15
  3
ACAD_VISUALSTYLE
350
16
  3
EZDXF_META
350
2D
  0
DICTIONARY
  5
B
330
A
100
AcDbDictionary
281
1
  0
DICTIONARY
  5
C
330
A
100
AcDbDictionary
281
1
  0
DICTIONARY
  5
D
330
A
100
AcDbDictionary
281
1
  3
Model
350
1A
  3
Layout1
350
1E
  0
DICTIONARY
  5
E
330
A
100
AcDbDictionary
281
1
  3
ByBlock
350
1F
  3
ByLayer
350
20
  3
Global
350
21
  0
DICTIONARY
  5
F
330
A
100
AcDbDictionary
281
1
  3
Standard
350
2C
  0
DICTIONARY
  5
10
330
A
100
AcDbDictionary
281
1
  3
Standard
350
22
  0
DICTIONARY
  5
11
330
A
100
AcDbDictionary
281
1
  0
ACDBDICTIONARYWDFLT
  5
12
330
A
100
AcDbDictionary
281
1
  3
Normal
350
13
100
AcDbDictionaryWithDefault
340
13
  0
ACDBPLACEHOLDER
  5
13
330
12
  0
DICTIONARY
  5
14
330
A
100
AcDbDictionary
281
1
  0
DICTIONARY
  5
15
330
A
100
AcDbDictionary
281
1
  0
DICTIONARY
  5
16
330
A
100
AcDbDictionary
281
1
  0
LAYOUT
  5
1A
330
D
100
AcDbPlotSettings
  1

  4
A3
  6

 40
7.5
 41
20.0
 42
7.5
 43
20.0
 44
420.0
 45
297.0
 46
0.0
 47
0.0
 48
0.0
 49
0.0
140
0.0
141
0.0
142
1.0
143
1.0
 70
1024
 72
1
 73
0
 74
5
  7

 75
16
 76
0
 77
2
 78
300
147
1.0
148
0.0
149
0.0
100
AcDbLayout
  1
Model
 70
1
 71
0
 10
0.0
 20
0.0
 11
420.0
 21
297.0
 12
0.0
 22
0.0
 32
0.0
 14
1e+20
 24
1e+20
 34
1e+20
 15
-1e+20
 25
-1e+20
 35
-1e+20
146
0.0
 13
0.0
 23
0.0
 33
0.0
 16
1.0
 26
0.0
 36
0.0
 17
0.0
 27
1.0
 37
0.0
 76
1
330
17
  0
LAYOUT
  5
1E
330
D
100
AcDbPlotSettings
  1

  4
A3
  6

 40
7.5
 41
20.0
 42
7.5
 43
20.0
 44
420.0
 45
297.0
 46
0.0
 47
0.0
 48
0.0
 49
0.0
140
0.0
141
0.0
142
1.0
143
1.0
 70
0
 72
1
 73
0
 74
5
  7

 75
16
 76
0
 77
2
 78
300
147
1.0
148
0.0
149
0.0
100
AcDbLayout
  1
Layout1
 70
1
 71
1
 10
0.0
 20
0.0
 11
420.0
 21
297.0
 12
0.0
 22
0.0
 32
0.0
 14
1e+20
 24
1e+20
 34
1e+20
 15
-1e+20
 25
-1e+20
 35
-1e+20
146
0.0
 13
0.0
 23
0.0
 33
0.0
 16
1.0
 26
0.0
 36
0.0
 17
0.0
 27
1.0
 37
0.0
 76
1
330
1B
  0
MATERIAL
  5
1F
102
{ACAD_REACTORS
330
E
102
}
330
E
100
AcDbMaterial
  1
ByBlock
  2

 70
0
 40
1.0
 71
1
 41
1.0
 91
-1023410177
 42
1.0
 72
1
  3

 73
1
 74
1
 75
1
 44
0.5
 73
0
 45
1.0
 46
1.0
 77
1
  4

 78
1
 79
1
170
1
 48
1.0
171
1
  6

172
1
173
1
174
1
140
1.0
141
1.0
175
1
  7

176
1
177
1
178
1
143
1.0
179
1
  8

270
1
271
1
272
1
145
1.0
146
1.0
273
1
  9

274
1
275
1
276
1
 42
1.0
 72
1
  3

 73
1
 74
1
 75
1
 94
63
  0
MATERIAL
  5
20
102
{ACAD_REACTORS
330
E
102
}
330
E
100
AcDbMaterial
  1
ByLayer
  2

 70
0
 40
1.0
 71
1
 41
1.0
 91
-1023410177
 42
1.0
 72
1
  3

 73
1
 74
1
 75
1
 44
0.5
 73
0
 45
1.0
 46
1.0
 77
1
  4

 78
1
 79
1
170
1
 48
1.0
171
1
  6

172
1
173
1
174
1
140
1.0
141
1.0
175
1
  7

176
1
177
1
178
1
143
1.0
179
1
  8

270
1
271
1
272
1
145
1.0
146
1.0
273
1
  9

274
1
275
1
276
1
 42
1.0
 72
1
  3

 73
1
 74
1
 75
1
 94
63
  0
MATERIAL
  5
21
102
{ACAD_REACTORS
330
E
102
}
330
E
100
AcDbMaterial
  1
Global
  2

 70
0
 40
1.0
 71
1
 41
1.0
 91
-1023410177
 42
1.0
 72
1
  3

 73
1
 74
1
 75
1
 44
0.5
 73
0
 45
1.0
 46
1.0
 77
1
  4

 78
1
 79
1
170
1
 48
1.0
171
1
  6

172
1
173
1
174
1
140
1.0
141
1.0
175
1
  7

176
1
177
1
178
1
143
1.0
179
1
  8

270
1
271
1
272
1
145
1.0
146
1.0
273
1
  9

274
1
275
1
276
1
 42
1.0
 72
1
  3

 73
1
 74
1
 75
1
 94
63
  0
MLINESTYLE
  5
22
102
{ACAD_REACTORS
330
10
102
}
330
10
100
AcDbMlineStyle
  2
Standard
 70
0
  3

 62
256
 51
90.0
 52
90.0
 71
2
 49
0.5
 62
256
  6
BYLAYER
 49
-0.5
 62
256
  6
BYLAYER
  0
MLEADERSTYLE
  5
2C
102
{ACAD_REACTORS
330
F
102
}
330
F
100
AcDbMLeaderStyle
179
2
170
2
171
1
172
0
 90
2
 40
0.0
 41
0.0
173
1
 91
-1056964608
 92
-2
290
1
 42
2.0
291
1
 43
8.0
  3
Standard
 44
4.0
300

342
29
174
1
175
1
176
0
178
1
 93
-1056964608
 45
4.0
292
0
297
0
 46
4.0
 94
-1056964608
 47
1.0
 49
1.0
140
1.0
294
1
141
0.0
177
0
142
1.0
295
0
296
0
143
3.75
271
0
272
9
273
9
  0
DICTIONARY
  5
2D
330
A
100
AcDbDictionary
280
1
281
1
  3
CREATED_BY_EZDXF
350
2E
  3
WRITTEN_BY_EZDXF
350
7E
  0
DICTIONARYVAR
  5
2E
330
2D
100
DictionaryVariables
280
0
  1
1.4.4 @ 2026-10-07T09:44:39.102174+00:00
  0
DICTIONARYVAR
  5
7E
330
2D
100
DictionaryVariables
280
0
  1
1.4.4 @ 2026-10-07T09:44:39.282847+00:00
  0
ENDSEC
  0
EOF
