  0
SECTION
  2
HEADER
  9
$ACADVER
  1
AC1027
  9
$ACADMAINTVER
 70
105
  9
$DWGCODEPAGE
  3
ANSI_1252
  9
$LASTSAVEDBY
  1
ezdxf
  9
$REQUIREDVERSIONS
160
0
  9
$INSBASE
 10
0.0
 20
0.0
 30
0.0
  9
$EXTMIN
 10
1e+20
 20
1e+20
 30
1e+20
  9
$EXTMAX
 10
-1e+20
 20
-1e+20
 30
-1e+20
  9
$LIMMIN
 10
0.0
 20
0.0
  9
$LIMMAX
 10
420.0
 20
297.0
  9
$ORTHOMODE
 70
0
  9
$REGENMODE
 70
1
  9
$FILLMODE
 70
1
  9
$QTEXTMODE
 70
0
  9
$MIRRTEXT
 70
1
  9
$LTSCALE
 40
1.0
  9
$ATTMODE
 70
1
  9
$TEXTSIZE
 40
2.5
  9
$TRACEWID
 40
1.0
  9
$TEXTSTYLE
  7
Standard
  9
$CLAYER
  8
0
  9
$CELTYPE
  6
ByLayer
  9
$CECOLOR
 62
256
  9
$CELTSCALE
 40
1.0
  9
$DISPSILH
 70
0
  9
$DIMSCALE
 40
1.0
  9
$DIMASZ
 40
2.5
  9
$DIMEXO
 40
0.625
  9
$DIMDLI
 40
3.75
  9
$DIMRND
 40
0.0
  9
$DIMDLE
 40
0.0
  9
$DIMEXE
 40
1.25
  9
$DIMTP
 40
0.0
  9
$DIMTM
 40
0.0
  9
$DIMTXT
 40
2.5
  9
$DIMCEN
 40
2.5
  9
$DIMTSZ
 40
0.0
  9
$DIMTOL
 70
0
  9
$DIMLIM
 70
0
  9
$DIMTIH
 70
0
  9
$DIMTOH
 70
0
  9
$DIMSE1
 70
0
  9
$DIMSE2
 70
0
  9
$DIMTAD
 70
1
  9
$DIMZIN
 70
8
  9
$DIMBLK
  1

  9
$DIMASO
 70
1
  9
$DIMSHO
 70
1
  9
$DIMPOST
  1

  9
$DIMAPOST
  1

  9
$DIMALT
 70
0
  9
$DIMALTD
 70
3
  9
$DIMALTF
 40
0.03937007874
  9
$DIMLFAC
 40
1.0
  9
$DIMTOFL
 70
1
  9
$DIMTVP
 40
0.0
  9
$DIMTIX
 70
0
  9
$DIMSOXD
 70
0
  9
$DIMSAH
 70
0
  9
$DIMBLK1
  1

  9
$DIMBLK2
  1

  9
$DIMSTYLE
  2
ISO-25
  9
$DIMCLRD
 70
0
  9
$DIMCLRE
 70
0
  9
$DIMCLRT
 70
0
  9
$DIMTFAC
 40
1.0
  9
$DIMGAP
 40
0.625
  9
$DIMJUST
 70
0
  9
$DIMSD1
 70
0
  9
$DIMSD2
 70
0
  9
$DIMTOLJ
 70
0
  9
$DIMTZIN
 70
8
  9
$DIMALTZ
 70
0
  9
$DIMALTTZ
 70
0
  9
$DIMUPT
 70
0
  9
$DIMDEC
 70
2
  9
$DIMTDEC
 70
2
  9
$DIMALTU
 70
2
  9
$DIMALTTD
 70
3
  9
$DIMTXSTY
  7
Standard
  9
$DIMAUNIT
 70
0
  9
$DIMADEC
 70
0
  9
$DIMALTRND
 40
0.0
  9
$DIMAZIN
 70
0
  9
$DIMDSEP
 70
44
  9
$DIMATFIT
 70
3
  9
$DIMFRAC
 70
0
  9
$DIMLDRBLK
  1

  9
$DIMLUNIT
 70
2
  9
$DIMLWD
 70
-2
  9
$DIMLWE
 70
-2
  9
$DIMTMOVE
 70
0
  9
$DIMFXL
 40
1.0
  9
$DIMFXLON
 70
0
  9
$DIMJOGANG
 40
0.785398163397
  9
$DIMTFILL
 70
0
  9
$DIMTFILLCLR
 70
0
  9
$DIMARCSYM
 70
0
  9
$DIMLTYPE
  6

  9
$DIMLTEX1
  6

  9
$DIMLTEX2
  6

  9
$DIMTXTDIRECTION
 70
0
  9
$LUNITS
 70
2
  9
$LUPREC
 70
4
  9
$SKETCHINC
 40
1.0
  9
$FILLETRAD
 40
10.0
  9
$AUNITS
 70
0
  9
$AUPREC
 70
2
  9
$MENU
  1
.
  9
$ELEVATION
 40
0.0
  9
$PELEVATION
 40
0.0
  9
$THICKNESS
 40
0.0
  9
$LIMCHECK
 70
0
  9
$CHAMFERA
 40
0.0
  9
$CHAMFERB
 40
0.0
  9
$CHAMFERC
 40
0.0
  9
$CHAMFERD
 40
0.0
  9
$SKPOLY
 70
0
  9
$TDCREATE
 40
2461322.5599189815
  9
$TDUCREATE
 40
2458532.153996898
  9
$TDUPDATE
 40
2461322.5599189815
  9
$TDUUPDATE
 40
2458532.1544311
  9
$TDINDWG
 40
0.0
  9
$TDUSRTIMER
 40
0.0
  9
$USRTIMER
 70
1
  9
$ANGBASE
 50
0.0
  9
$ANGDIR
 70
0
  9
$PDMODE
 70
0
  9
$PDSIZE
 40
0.0
  9
$PLINEWID
 40
0.0
  9
$SPLFRAME
 70
0
  9
$SPLINETYPE
 70
6
  9
$SPLINESEGS
 70
8
  9
$HANDSEED
  5
65
  9
$SURFTAB1
 70
6
  9
$SURFTAB2
 70
6
  9
$SURFTYPE
 70
6
  9
$SURFU
 70
6
  9
$SURFV
 70
6
  9
$UCSBASE
  2

  9
$UCSNAME
  2

  9
$UCSORG
 10
0.0
 20
0.0
 30
0.0
  9
$UCSXDIR
 10
1.0
 20
0.0
 30
0.0
  9
$UCSYDIR
 10
0.0
 20
1.0
 30
0.0
  9
$UCSORTHOREF
  2

  9
$UCSORTHOVIEW
 70
0
  9
$UCSORGTOP
 10
0.0
 20
0.0
 30
0.0
  9
$UCSORGBOTTOM
 10
0.0
 20
0.0
 30
0.0
  9
$UCSORGLEFT
 10
0.0
 20
0.0
 30
0.0
  9
$UCSORGRIGHT
 10
0.0
 20
0.0
 30
0.0
  9
$UCSORGFRONT
 10
0.0
 20
0.0
 30
0.0
  9
$UCSORGBACK
 10
0.0
 20
0.0
 30
0.0
  9
$PUCSBASE
  2

  9
$PUCSNAME
  2

  9
$PUCSORG
 10
0.0
 20
0.0
 30
0.0
  9
$PUCSXDIR
 10
1.0
 20
0.0
 30
0.0
  9
$PUCSYDIR
 10
0.0
 20
1.0
 30
0.0
  9
$PUCSORTHOREF
  2

  9
$PUCSORTHOVIEW
 70
0
  9
$PUCSORGTOP
 10
0.0
 20
0.0
 30
0.0
  9
$PUCSORGBOTTOM
 10
0.0
 20
0.0
 30
0.0
  9
$PUCSORGLEFT
 10
0.0
 20
0.0
 30
0.0
  9
$PUCSORGRIGHT
 10
0.0
 20
0.0
 30
0.0
  9
$PUCSORGFRONT
 10
0.0
 20
0.0
 30
0.0
  9
$PUCSORGBACK
 10
0.0
 20
0.0
 30
0.0
  9
$USERI1
 70
0
  9
$USERI2
 70
0
  9
$USERI3
 70
0
  9
$USERI4
 70
0
  9
$USERI5
 70
0
  9
$USERR1
 40
0.0
  9
$USERR2
 40
0.0
  9
$USERR3
 40
0.0
  9
$USERR4
 40
0.0
  9
$USERR5
 40
0.0
  9
$WORLDVIEW
 70
1
  9
$SHADEDGE
 70
3
  9
$SHADEDIF
 70
70
  9
$TILEMODE
 70
1
  9
$MAXACTVP
 70
64
  9
$PINSBASE
 10
0.0
 20
0.0
 30
0.0
  9
$PLIMCHECK
 70
0
  9
$PEXTMIN
 10
1e+20
 20
1e+20
 30
1e+20
  9
$PEXTMAX
 10
-1e+20
 20
-1e+20
 30
-1e+20
  9
$PLIMMIN
 10
0.0
 20
0.0
  9
$PLIMMAX
 10
420.0
 20
297.0
  9
$UNITMODE
 70
0
  9
$VISRETAIN
 70
1
  9
$PLINEGEN
 70
0
  9
$PSLTSCALE
 70
1
  9
$TREEDEPTH
 70
3020
  9
$CMLSTYLE
  2
Standard
  9
$CMLJUST
 70
0
  9
$CMLSCALE
 40
20.0
  9
$PROXYGRAPHICS
 70
1
  9
$MEASUREMENT
 70
1
  9
$CELWEIGHT
370
-1
  9
$ENDCAPS
280
0
  9
$JOINSTYLE
280
0
  9
$LWDISPLAY
290
0
  9
$INSUNITS
 70
4
  9
$HYPERLINKBASE
  1

  9
$STYLESHEET
  1

  9
$XEDIT
290
1
  9
$CEPSNTYPE
380
0
  9
$PSTYLEMODE
290
1
  9
$FINGERPRINTGUID
  2
{87109912-A412-4F63-B3A4-EF0230542A73}
  9
$VERSIONGUID
  2
{BF9BE7BD-30C1-4A49-909B-C7A36A8E3C87}
  9
$EXTNAMES
290
1
  9
$PSVPSCALE
 40
0.0
  9
$OLESTARTUP
290
0
  9
$SORTENTS
280
127
  9
$INDEXCTL
280
0
  9
$HIDETEXT
280
1
  9
$XCLIPFRAME
280
1
  9
$HALOGAP
280
0
  9
$OBSCOLOR
 70
257
  9
$OBSLTYPE
280
0
  9
$INTERSECTIONDISPLAY
280
0
  9
$INTERSECTIONCOLOR
 70
257
  9
$DIMASSOC
280
2
  9
$PROJECTNAME
  1

  9
$CAMERADISPLAY
290
0
  9
$LENSLENGTH
 40
50.0
  9
$CAMERAHEIGHT
 40
0.0
  9
$STEPSPERSEC
 40
24.0
  9
$STEPSIZE
 40
100.0
  9
$3DDWFPREC
 40
2.0
  9
$PSOLWIDTH
 40
0.005
  9
$PSOLHEIGHT
 40
0.08
  9
$LOFTANG1
 40
1.570796326795
  9
$LOFTANG2
 40
1.570796326795
  9
$LOFTMAG1
 40
0.0
  9
$LOFTMAG2
 40
0.0
  9
$LOFTPARAM
 70
7
  9
$LOFTNORMALS
280
1
  9
$LATITUDE
 40
37.795
  9
$LONGITUDE
 40
-122.394
  9
$NORTHDIRECTION
 40
0.0
  9
$TIMEZONE
 70
-8000
  9
$LIGHTGLYPHDISPLAY
280
1
  9
$TILEMODELIGHTSYNCH
280
1
  9
$CMATERIAL
347
20
  9
$SOLIDHIST
280
0
  9
$SHOWHIST
280
1
  9
$DWFFRAME
280
2
  9
$DGNFRAME
280
2
  9
$REALWORLDSCALE
290
1
  9
$INTERFERECOLOR
 62
256
  9
$CSHADOW
280
0
  9
$SHADOWPLANELOCATION
 40
0.0
  0
ENDSEC
  0
SECTION
  2
CLASSES
  0
CLASS
  1
ACDBDICTIONARYWDFLT
  2
AcDbDictionaryWithDefault
  3
ObjectDBX Classes
 90
0
 91
0
280
0
281
0
  0
CLASS
  1
SUN
  2
AcDbSun
  3
SCENEOE
 90
1153
 91
0
280
0
281
0
  0
CLASS
  1
VISUALSTYLE
  2
AcDbVisualStyle
  3
ObjectDBX Classes
 90
4095
 91
0
280
0
281
0
  0
CLASS
  1
MATERIAL
  2
AcDbMaterial
  3
ObjectDBX Classes
 90
1153
 91
0
280
0
281
0
  0
CLASS
  1
SCALE
  2
AcDbScale
  3
ObjectDBX Classes
 90
1153
 91
0
280
0
281
0
  0
CLASS
  1
TABLESTYLE
  2
AcDbTableStyle
  3
ObjectDBX Classes
 90
4095
 91
0
280
0
281
0
  0
CLASS
  1
MLEADERSTYLE
  2
AcDbMLeaderStyle
  3
ACDB_MLEADERSTYLE_CLASS
 90
4095
 91
0
280
0
281
0
  0
CLASS
  1
DICTIONARYVAR
  2
AcDbDictionaryVar
  3
ObjectDBX Classes
 90
0
 91
0
280
0
281
0
  0
CLASS
  1
CELLSTYLEMAP
  2
AcDbCellStyleMap
  3
ObjectDBX Classes
 90
1152
 91
0
280
0
281
0
  0
CLASS
  1
MENTALRAYRENDERSETTINGS
  2
AcDbMentalRayRenderSettings
  3
SCENEOE
 90
1024
 91
0
280
0
281
0
  0
CLASS
  1
ACDBDETAILVIEWSTYLE
  2
AcDbDetailViewStyle
  3
ObjectDBX Classes
 90
1025
 91
0
280
0
281
0
  0
CLASS
  1
ACDBSECTIONVIEWSTYLE
  2
AcDbSectionViewStyle
  3
ObjectDBX Classes
 90
1025
 91
0
280
0
281
0
  0
CLASS
  1
RASTERVARIABLES
  2
AcDbRasterVariables
  3
ISM
 90
0
 91
0
280
0
281
0
  0
CLASS
  1
ACDBPLACEHOLDER
  2
AcDbPlaceHolder
  3
ObjectDBX Classes
 90
0
 91
0
280
0
281
0
  0
CLASS
  1
LAYOUT
  2
AcDbLayout
  3
ObjectDBX Classes
 90
0
 91
0
280
0
281
0
  0
ENDSEC
  0
SECTION
  2
TABLES
  0
TABLE
  2
VPORT
  5
8
330
0
100
AcDbSymbolTable
 70
1
  0
VPORT
  5
61
330
8
100
AcDbSymbolTableRecord
100
AcDbViewportTableRecord
  2
*Active
 70
0
 10
0.0
 20
0.0
 11
1.0
 21
1.0
 12
2.3370057246265006
 22
-46.37066641534713
 13
0.0
 23
0.0
 14
0.5
 24
0.5
 15
0.5
 25
0.5
 16
0.0
 26
0.0
 36
1.0
 17
0.0
 27
0.0
 37
0.0
 40
136.6456778389204
 41
1.34
 42
50.0
 43
0.0
 44
0.0
 50
0.0
 51
0.0
 71
0
 72
1000
 73
1
 74
3
 75
0
 76
0
 77
0
 78
0
281
0
 65
1
110
0.0
120
0.0
130
0.0
111
1.0
121
0.0
131
0.0
112
0.0
122
1.0
132
0.0
 79
0
146
0.0
  0
ENDTAB
  0
TABLE
  2
LTYPE
  5
2
330
0
100
AcDbSymbolTable
 70
4
  0
LTYPE
  5
24
330
2
100
AcDbSymbolTableRecord
100
AcDbLinetypeTableRecord
  2
ByBlock
 70
0
  3

 72
65
 73
0
 40
0.0
  0
LTYPE
  5
25
330
2
100
AcDbSymbolTableRecord
100
AcDbLinetypeTableRecord
  2
ByLayer
 70
0
  3

 72
65
 73
0
 40
0.0
  0
LTYPE
  5
26
330
2
100
AcDbSymbolTableRecord
100
AcDbLinetypeTableRecord
  2
Continuous
 70
0
  3

 72
65
 73
0
 40
0.0
  0
LTYPE
  5
30
330
2
100
AcDbSymbolTableRecord
100
AcDbLinetypeTableRecord
  2
ACAD_ISO02W100
 70
0
  3
ISO dash __ __ __ __ __ __ __ __ __ __ __ __ __
 72
65
 73
2
 40
15.0
 49
12.0
 74
0
 49
-3.0
 74
0
  0
ENDTAB
  0
TABLE
  2
LAYER
  5
1
330
0
100
AcDbSymbolTable
 70
4
  0
LAYER
  5
27
330
1
100
AcDbSymbolTableRecord
100
AcDbLayerTableRecord
  2
0
 70
0
 62
7
  6
Continuous
370
-3
390
13
347
21
  0
LAYER
  5
28
330
1
100
AcDbSymbolTableRecord
100
AcDbLayerTableRecord
  2
Defpoints
 70
0
 62
7
  6
Continuous
290
0
370
-3
390
13
347
21
  0
LAYER
  5
2F
330
1
100
AcDbSymbolTableRecord
100
AcDbLayerTableRecord
  2
VISIBLE
 70
0
 62
7
  6
Continuous
370
25
390
13
347
21
  0
LAYER
  5
31
330
1
100
AcDbSymbolTableRecord
100
AcDbLayerTableRecord
  2
HIDDEN
 70
0
 62
7
  6
ACAD_ISO02W100
370
13
390
13
347
21
  0
ENDTAB
  0
TABLE
  2
STYLE
  5
5
330
0
100
AcDbSymbolTable
 70
1
  0
STYLE
  5
29
330
5
100
AcDbSymbolTableRecord
100
AcDbTextStyleTableRecord
  2
Standard
 70
0
 40
0.0
 41
1.0
 50
0.0
 71
0
 42
2.5
  3
txt
  4

  0
ENDTAB
  0
TABLE
  2
VIEW
  5
7
330
0
100
AcDbSymbolTable
 70
0
  0
ENDTAB
  0
TABLE
  2
UCS
  5
6
330
0
100
AcDbSymbolTable
 70
0
  0
ENDTAB
  0
TABLE
  2
APPID
  5
3
330
0
100
AcDbSymbolTable
 70
3
  0
APPID
  5
2A
330
3
100
AcDbSymbolTableRecord
100
AcDbRegAppTableRecord
  2
ACAD
 70
0
  0
APPID
  5
62
330
3
100
AcDbSymbolTableRecord
100
AcDbRegAppTableRecord
  2
HATCHBACKGROUNDCOLOR
 70
0
  0
APPID
  5
63
330
3
100
AcDbSymbolTableRecord
100
AcDbRegAppTableRecord
  2
EZDXF
 70
0
  0
ENDTAB
  0
TABLE
  2
DIMSTYLE
  5
4
330
0
100
AcDbSymbolTable
 70
1
100
AcDbDimStyleTable
  0
DIMSTYLE
105
2B
330
4
100
AcDbSymbolTableRecord
100
AcDbDimStyleTableRecord
  2
Standard
 70
0
 40
1.0
 41
2.5
 42
0.625
 43
3.75
 44
1.25
 45
0.0
 46
0.0
 47
0.0
 48
0.0
 49
2.5
140
2.5
141
2.5
142
0.0
143
0.03937007874
144
1.0
145
0.0
146
1.0
147
0.625
148
0.0
 69
0
 70
0
 71
0
 72
0
 73
0
 74
0
 75
0
 76
0
 77
1
 78
8
 79
3
170
0
171
3
172
1
173
0
174
0
175
0
176
0
177
0
178
0
179
2
271
2
272
2
273
2
274
3
275
0
276
0
277
2
278
44
279
0
280
0
281
0
282
0
283
0
284
8
285
0
286
0
288
0
289
3
290
0
371
-2
372
-2
  0
ENDTAB
  0
TABLE
  2
BLOCK_RECORD
  5
9
330
0
100
AcDbSymbolTable
 70
2
  0
BLOCK_RECORD
  5
17
330
9
100
AcDbSymbolTableRecord
100
AcDbBlockTableRecord
  2
*Model_Space
340
1A
 70
0
280
1
281
0
  0
BLOCK_RECORD
  5
1B
330
9
100
AcDbSymbolTableRecord
100
AcDbBlockTableRecord
  2
*Paper_Space
340
1E
 70
0
280
1
281
0
  0
ENDTAB
  0
ENDSEC
  0
SECTION
  2
BLOCKS
  0
BLOCK
  5
18
330
17
100
AcDbEntity
  8
0
100
AcDbBlockBegin
  2
*Model_Space
 70
0
 10
0.0
 20
0.0
 30
0.0
  3
*Model_Space
  1

  0
ENDBLK
  5
19
330
17
100
AcDbEntity
  8
0
100
AcDbBlockEnd
  0
BLOCK
  5
1C
330
1B
100
AcDbEntity
  8
0
100
AcDbBlockBegin
  2
*Paper_Space
 70
0
 10
0.0
 20
0.0
 30
0.0
  3
*Paper_Space
  1

  0
ENDBLK
  5
1D
330
1B
100
AcDbEntity
  8
0
100
AcDbBlockEnd
  0
ENDSEC
  0
SECTION
  2
ENTITIES
  0
SPLINE
  5
32
330
17
100
AcDbEntity
  8
VISIBLE
100
AcDbSpline
 70
0
 71
3
 72
11
 73
7
 74
0
 40
0.0
 40
0.0
 40
0.0
 40
0.0
 40
0.05501729075879019
 40
0.05501729075879019
 40
0.05501729075879019
 40
0.11003458151758037
 40
0.11003458151758037
 40
0.11003458151758037
 40
0.11003458151758037
 10
10.262891253599031
 20
8.771655428769863
 30
0.0
 10
11.078150282132272
 20
9.24184803067816
 30
0.0
 10
11.686344787247812
 20
9.831334719374254
 30
0.0
 10
12.051740861148645
 20
10.505480760794764
 30
0.0
 10
12.418148657870256
 20
11.179274941729016
 30
0.0
 10
12.541560004913041
 20
11.93736365572005
 30
0.0
 10
12.414723986016721
 20
12.73520614012063
 30
0.0
  0
SPLINE
  5
33
330
17
100
AcDbEntity
  8
VISIBLE
100
AcDbSpline
 70
0
 71
3
 72
29
 73
25
 74
0
 40
0.0
 40
0.0
 40
0.0
 40
0.0
 40
0.125
 40
0.125
 40
0.125
 40
0.25000000000000006
 40
0.25000000000000006
 40
0.25000000000000006
 40
0.37499999999999994
 40
0.37499999999999994
 40
0.37499999999999994
 40
0.5
 40
0.5
 40
0.5
 40
0.6249999999999999
 40
0.6249999999999999
 40
0.6249999999999999
 40
0.7499999999999999
 40
0.7499999999999999
 40
0.7499999999999999
 40
0.875
 40
0.875
 40
0.875
 40
1.0
 40
1.0
 40
1.0
 40
1.0
 10
12.414723986016721
 20
12.735206140120624
 30
0.0
 10
12.272685070018875
 20
13.637508613465567
 30
0.0
 10
11.809503225903747
 20
14.590167624544888
 30
0.0
 10
11.059838727022157
 20
15.521894881517103
 30
0.0
 10
10.311689051341334
 20
16.453735130110886
 30
0.0
 10
9.277719574433911
 20
17.363818922415987
 30
0.0
 10
8.035303129151307
 20
18.18404392623322
 30
0.0
 10
6.793987246321219
 20
19.00474654457062
 30
0.0
 10
5.345323548664968
 20
19.73486419705744
 30
0.0
 10
3.7977167579121724
 20
20.319761556793605
 30
0.0
 10
2.2506301254262655
 20
20.90542905212603
 30
0.0
 10
0.6059699256146518
 20
21.34535822959815
 30
0.0
 10
-1.0131925277853515
 20
21.606628812142073
 30
0.0
 10
-2.63249375364891
 20
21.86884578765859
 30
0.0
 10
-4.224864077308611
 20
21.952172504113054
 30
0.0
 10
-5.67114506650114
 20
21.85037355808608
 30
0.0
 10
-7.118202810203945
 20
21.749554389317094
 30
0.0
 10
-8.417890796591854
 20
21.463699226019042
 30
0.0
 10
-9.472952274631119
 20
21.014198852501504
 30
0.0
 10
-10.529311225249911
 20
20.56556372873169
 30
0.0
 10
-11.34010927929847
 20
19.95368085562407
 30
0.0
 10
-11.844673738592135
 20
19.224337942165157
 30
0.0
 10
-12.350860515044676
 20
18.49561512879181
 30
0.0
 10
-12.550366397852706
 20
17.65007752859855
 30
0.0
 10
-12.428262185329928
 20
16.750997440211773
 30
0.0
  0
SPLINE
  5
34
330
17
100
AcDbEntity
  8
VISIBLE
100
AcDbSpline
 70
0
 71
3
 72
17
 73
13
 74
0
 40
0.0
 40
0.0
 40
0.0
 40
0.0
 40
0.24999999999999986
 40
0.24999999999999986
 40
0.24999999999999986
 40
0.5
 40
0.5
 40
0.5
 40
0.7500000000000001
 40
0.7500000000000001
 40
0.7500000000000001
 40
1.0
 40
1.0
 40
1.0
 40
1.0
 10
-12.42826218532993
 20
16.75099744021177
 30
0.0
 10
-12.242310365872868
 20
15.335321558843761
 30
0.0
 10
-11.241966114807719
 20
13.788784448479175
 30
0.0
 10
-9.607283507175863
 20
12.389750585098017
 30
0.0
 10
-7.980509021380101
 20
10.9888175874638
 30
0.0
 10
-5.728194323478415
 20
9.742941019575726
 30
0.0
 10
-3.255738272579314
 20
8.876368825959457
 30
0.0
 10
-0.7859621471292554
 20
8.00500549672662
 30
0.0
 10
1.890623196601416
 20
7.517634837560785
 30
0.0
 10
4.292253478652498
 20
7.501979698197204
 30
0.0
 10
6.697416874245094
 20
7.480402111141385
 30
0.0
 10
8.814658330886502
 20
7.930640424934409
 30
0.0
 10
10.262891253599022
 20
8.77165542876985
 30
0.0
  0
SPLINE
  5
35
330
17
100
AcDbEntity
  8
VISIBLE
100
AcDbSpline
 70
0
 71
3
 72
17
 73
13
 74
0
 40
0.0
 40
0.0
 40
0.0
 40
0.0
 40
0.5171703540295975
 40
0.5171703540295975
 40
0.5171703540295975
 40
0.7657101270830939
 40
0.7657101270830939
 40
0.7657101270830939
 40
0.8977718540380717
 40
0.8977718540380717
 40
0.8977718540380717
 40
1.0
 40
1.0
 40
1.0
 40
1.0
 10
7.141778489984108
 20
-99.57559305970885
 30
0.0
 10
7.389949284924893
 20
-100.39609841569849
 30
0.0
 10
7.665034697888847
 20
-101.19513063793819
 30
0.0
 10
8.029569624578516
 20
-101.89906766728302
 30
0.0
 10
8.20670167314849
 20
-102.23391279828769
 30
0.0
 10
8.403693709148277
 20
-102.55025060735007
 30
0.0
 10
8.657789337725093
 20
-102.78830127198404
 30
0.0
 10
8.793436786526987
 20
-102.91245541359316
 30
0.0
 10
8.946512595999353
 20
-103.01549838932463
 30
0.0
 10
9.132355035226835
 20
-103.05027132531572
 30
0.0
 10
9.275466645961643
 20
-103.07708630132004
 30
0.0
 10
9.443227088704354
 20
-103.05525622818257
 30
0.0
 10
9.616652224137017
 20
-102.95425245114035
 30
0.0
  0
SPLINE
  5
36
330
17
100
AcDbEntity
  8
VISIBLE
100
AcDbSpline
 70
0
 71
3
 72
8
 73
4
 74
0
 40
0.0
 40
0.0
 40
0.0
 40
0.0
 40
1.0
 40
1.0
 40
1.0
 40
1.0
 10
7.141778489984108
 20
-99.57559305970888
 30
0.0
 10
6.288323635394019
 20
-104.72344081071346
 30
0.0
 10
5.293535986371448
 20
-109.76229564306766
 30
0.0
 10
4.114449623858942
 20
-114.64375847546444
 30
0.0
  0
SPLINE
  5
37
330
17
100
AcDbEntity
  8
VISIBLE
100
AcDbSpline
 70
0
 71
3
 72
17
 73
13
 74
0
 40
0.0
 40
0.0
 40
0.0
 40
0.0
 40
0.25
 40
0.25
 40
0.25
 40
0.5
 40
0.5
 40
0.5
 40
0.75
 40
0.75
 40
0.75
 40
1.0
 40
1.0
 40
1.0
 40
1.0
 10
-9.064197098722484
 20
-107.03506324262706
 30
0.0
 10
-9.150361195807433
 20
-107.85007330432816
 30
0.0
 10
-8.811021422938254
 20
-108.77541073482165
 30
0.0
 10
-8.090954674808073
 20
-109.68897446123941
 30
0.0
 10
-7.374405569134085
 20
-110.60265924018003
 30
0.0
 10
-6.279162972491707
 20
-111.50198390614828
 30
0.0
 10
-4.949747465752351
 20
-112.2682798705329
 30
0.0
 10
-3.6224839214126163
 20
-113.03581827083298
 30
0.0
 10
-2.064807908910112
 20
-113.66815688251916
 30
0.0
 10
-0.4822594491669763
 20
-114.08185670271648
 30
0.0
 10
1.1000793408556124
 20
-114.49758743558233
 30
0.0
 10
2.7028107959558025
 20
-114.69350533480733
 30
0.0
 10
4.1144496238588495
 20
-114.6437584754644
 30
0.0
  0
SPLINE
  5
38
330
17
100
AcDbEntity
  8
VISIBLE
100
AcDbSpline
 70
0
 71
1
 72
4
 73
2
 74
0
 40
0.0
 40
0.0
 40
1.0
 40
1.0
 10
-9.02169857707553
 20
-106.6626658102333
 30
0.0
 10
-9.064197098722481
 20
-107.03506324262705
 30
0.0
  0
SPLINE
  5
39
330
17
100
AcDbEntity
  8
VISIBLE
100
AcDbSpline
 70
0
 71
1
 72
4
 73
2
 74
0
 40
0.0
 40
0.0
 40
1.0
 40
1.0
 10
-3.77539274584504
 20
-3.665557698602141
 30
0.0
 10
-3.5763799126352067
 20
-5.52390192316507
 30
0.0
  0
SPLINE
  5
3A
330
17
100
AcDbEntity
  8
VISIBLE
100
AcDbSpline
 70
0
 71
3
 72
8
 73
4
 74
0
 40
0.0
 40
0.0
 40
0.0
 40
0.0
 40
0.7260891239495986
 40
0.7260891239495986
 40
0.7260891239495986
 40
0.7260891239495986
 10
12.091525958289944
 20
-96.71785502646165
 30
0.0
 10
11.472372958420937
 20
-100.45618522299837
 30
0.0
 10
10.777042614102056
 20
-104.1353779974875
 30
0.0
 10
9.99253299613585
 20
-107.7403750831809
 30
0.0
  0
SPLINE
  5
3B
330
17
100
AcDbEntity
  8
VISIBLE
100
AcDbSpline
 70
0
 71
2
 72
6
 73
3
 74
0
 40
0.0
 40
0.0
 40
0.0
 40
1.0
 40
1.0
 40
1.0
 10
9.992532996135846
 20
-107.74037508318091
 30
0.0
 10
9.548814749853314
 20
-109.78052976461346
 30
0.0
 10
9.064197092164706
 20
-111.78602044221734
 30
0.0
  0
SPLINE
  5
3C
330
17
100
AcDbEntity
  8
VISIBLE
100
AcDbSpline
 70
0
 71
3
 72
17
 73
13
 74
0
 40
0.0
 40
0.0
 40
0.0
 40
0.0
 40
0.5171703557987544
 40
0.5171703557987544
 40
0.5171703557987544
 40
0.7657101282842629
 40
0.7657101282842629
 40
0.7657101282842629
 40
0.8977718549061011
 40
0.8977718549061011
 40
0.8977718549061011
 40
1.0
 40
1.0
 40
1.0
 40
1.0
 10
12.091525958289942
 20
-96.71785502646169
 30
0.0
 10
11.843355162474458
 20
-97.82492333676764
 30
0.0
 10
11.568269748543536
 20
-98.94159683733187
 30
0.0
 10
11.203734819922593
 20
-100.06646254667926
 30
0.0
 10
11.026602771407568
 20
-100.6058421483042
 30
0.0
 10
10.829610735450228
 20
-101.1496467661677
 30
0.0
 10
10.575515106837678
 20
-101.68110178852429
 30
0.0
 10
10.439867658053508
 20
-101.96188811147559
 30
0.0
 10
10.286791848558925
 20
-102.24168780596274
 30
0.0
 10
10.100949409366638
 20
-102.49105310546064
 30
0.0
 10
9.95783779950127
 20
-102.68311913342558
 30
0.0
 10
9.790077358067668
 20
-102.85500213178206
 30
0.0
 10
9.61665222413702
 20
-102.95425245114012
 30
0.0
  0
SPLINE
  5
3D
330
17
100
AcDbEntity
  8
VISIBLE
100
AcDbSpline
 70
0
 71
3
 72
11
 73
7
 74
0
 40
0.0
 40
0.0
 40
0.0
 40
0.0
 40
0.1388099718234993
 40
0.1388099718234993
 40
0.1388099718234993
 40
0.2551708488384071
 40
0.2551708488384071
 40
0.2551708488384071
 40
0.2551708488384071
 10
-3.122203806256774
 20
-6.701584693573512
 30
0.0
 10
-3.1529900111088605
 20
-7.419932584269933
 30
0.0
 10
-3.337967235814213
 20
-8.071143385791766
 30
0.0
 10
-3.642345205444742
 20
-8.591496869876812
 30
0.0
 10
-3.8967973673981495
 20
-9.02799304050825
 30
0.0
 10
-4.234021128646508
 20
-9.372962812543536
 30
0.0
 10
-4.6195013732813965
 20
-9.595273563650494
 30
0.0
  0
SPLINE
  5
3E
330
17
100
AcDbEntity
  8
VISIBLE
100
AcDbSpline
 70
0
 71
3
 72
26
 73
22
 74
0
 40
0.0
 40
0.0
 40
0.0
 40
0.0
 40
0.1296179276734594
 40
0.1296179276734594
 40
0.1296179276734594
 40
0.20078130722400347
 40
0.20078130722400347
 40
0.20078130722400347
 40
0.3326317380150817
 40
0.3326317380150817
 40
0.3326317380150817
 40
0.5499464781018026
 40
0.5499464781018026
 40
0.5499464781018026
 40
0.7007000927521538
 40
0.7007000927521538
 40
0.7007000927521538
 40
0.8122876905947275
 40
0.8122876905947275
 40
0.8122876905947275
 40
1.0
 40
1.0
 40
1.0
 40
1.0
 10
-4.619501373281397
 20
-9.595273563650496
 30
0.0
 10
-5.075479928664561
 20
-9.859713595622624
 30
0.0
 10
-5.599204449445454
 20
-9.947791163412498
 30
0.0
 10
-6.114556585882677
 20
-9.83932667933872
 30
0.0
 10
-6.399284451842862
 20
-9.779513569457684
 30
0.0
 10
-6.675723311090283
 20
-9.665091267184918
 30
0.0
 10
-6.943873163624928
 20
-9.496059772520383
 30
0.0
 10
-7.438566160806237
 20
-9.185183390034865
 30
0.0
 10
-7.882009877897918
 20
-8.698647297439095
 30
0.0
 10
-8.251852384494475
 20
-8.104667330332253
 30
0.0
 10
-8.864232815385222
 20
-7.123771253851986
 30
0.0
 10
-9.28176240837542
 20
-5.861145279932563
 30
0.0
 10
-9.574170473615904
 20
-4.511788465194806
 30
0.0
 10
-9.776638342749182
 20
-3.5778638927999946
 30
0.0
 10
-9.924218100113015
 20
-2.5873259587911774
 30
0.0
 10
-10.017255915992253
 20
-1.7111325830187858
 30
0.0
 10
-10.085389816353736
 20
-1.0624170902909422
 30
0.0
 10
-10.120917845083765
 20
-0.4912118490237861
 30
0.0
 10
-10.11053540351495
 20
-0.03709053908605586
 30
0.0
 10
-10.093373960022626
 20
0.7285919642669263
 30
0.0
 10
-9.944941133882686
 20
1.1854229837110632
 30
0.0
 10
-9.61236278301395
 20
1.378503029863801
 30
0.0
  0
SPLINE
  5
3F
330
17
100
AcDbEntity
  8
VISIBLE
100
AcDbSpline
 70
0
 71
3
 72
17
 73
13
 74
0
 40
0.0
 40
0.0
 40
0.0
 40
0.0
 40
0.2317460303129598
 40
0.2317460303129598
 40
0.2317460303129598
 40
0.5286270442399822
 40
0.5286270442399822
 40
0.5286270442399822
 40
0.80551641990889
 40
0.80551641990889
 40
0.80551641990889
 40
1.0
 40
1.0
 40
1.0
 40
1.0
 10
-9.612362783013952
 20
1.378503029863801
 30
0.0
 10
-9.315655787197299
 20
1.5506135885168513
 30
0.0
 10
-8.863591374278618
 20
1.5047877886223158
 30
0.0
 10
-8.269405129043626
 20
1.2261401512834613
 30
0.0
 10
-7.515126571746055
 20
0.8739409767808711
 30
0.0
 10
-6.520066621571043
 20
0.11752830375478837
 30
0.0
 10
-5.603825235315125
 20
-0.90555815613044
 30
0.0
 10
-4.749963509691008
 20
-1.8554414785921802
 30
0.0
 10
-3.9849860962589068
 20
-3.0247970002906497
 30
0.0
 10
-3.546496348389862
 20
-4.225165412442734
 30
0.0
 10
-3.2356110382122614
 20
-5.067320554302486
 30
0.0
 10
-3.0866839723020085
 20
-5.922823722754178
 30
0.0
 10
-3.122203806256774
 20
-6.701584693573512
 30
0.0
  0
ELLIPSE
  5
40
330
17
100
AcDbEntity
  8
VISIBLE
100
AcDbEllipse
 10
-2.4748737341529385
 20
-1.4288690166234659
 30
0.0
 11
-2.999999999999999
 21
5.196152422706633
 31
0.0
 40
0.577350269189626
 41
0.961051588110672
 42
2.1964073604848666
  0
LINE
  5
41
330
17
100
AcDbEntity
  8
VISIBLE
100
AcDbLine
 10
9.064197092164708
 20
-111.78602044221734
 30
0.0
 11
5.25961533821569
 21
-109.58944414242093
 31
0.0
  0
SPLINE
  5
42
330
17
100
AcDbEntity
  8
VISIBLE
100
AcDbSpline
 70
0
 71
3
 72
14
 73
10
 74
0
 40
0.0
 40
0.0
 40
0.0
 40
0.0
 40
0.3324454063043212
 40
0.3324454063043212
 40
0.3324454063043212
 40
0.6648908126086424
 40
0.6648908126086424
 40
0.6648908126086424
 40
1.0
 40
1.0
 40
1.0
 40
1.0
 10
12.414723986016721
 20
12.73520614012063
 30
0.0
 10
14.612114334016683
 20
-1.1318737131469945
 30
0.0
 10
16.05083309948105
 20
-14.939322781478843
 30
0.0
 10
16.635902367588386
 20
-28.5845793891902
 30
0.0
 10
17.224377847105707
 20
-42.228952500599384
 30
0.0
 10
16.95920382926598
 20
-55.711133151388
 30
0.0
 10
15.840776318727354
 20
-68.9038217694115
 30
0.0
 10
14.718191905408412
 20
-82.19979705670735
 30
0.0
 10
12.723771209672526
 20
-95.20852890447414
 30
0.0
 10
9.992533017973106
 20
-107.74037508215278
 30
0.0
  0
SPLINE
  5
43
330
17
100
AcDbEntity
  8
VISIBLE
100
AcDbSpline
 70
0
 71
3
 72
14
 73
10
 74
0
 40
0.0
 40
0.0
 40
0.0
 40
0.0
 40
0.40988497955313946
 40
0.40988497955313946
 40
0.40988497955313946
 40
0.7049424897765697
 40
0.7049424897765697
 40
0.7049424897765697
 40
1.0
 40
1.0
 40
1.0
 40
1.0
 10
-12.428262185329928
 20
16.750997440211762
 30
0.0
 10
-9.888515300685254
 20
-2.0850462043672833
 30
0.0
 10
-8.20016220836603
 20
-20.358824494486335
 30
0.0
 10
-7.3560941431719735
 20
-37.73225147780391
 30
0.0
 10
-6.748788356708491
 20
-50.24091659187274
 30
0.0
 10
-6.579205672063067
 20
-62.28411355234982
 30
0.0
 10
-6.851241586362313
 20
-73.78022081589188
 30
0.0
 10
-7.124685425594698
 20
-85.28107983573467
 30
0.0
 10
-7.833731957019542
 20
-96.224752289455
 30
0.0
 10
-9.021698575891577
 20
-106.66266581013357
 30
0.0
  0
SPLINE
  5
44
330
17
100
AcDbEntity
  8
HIDDEN
100
AcDbSpline
 70
0
 71
3
 72
17
 73
13
 74
0
 40
0.0
 40
0.0
 40
0.0
 40
0.0
 40
0.4215386869569222
 40
0.4215386869569222
 40
0.4215386869569222
 40
0.7100658011869706
 40
0.7100658011869706
 40
0.7100658011869706
 40
0.8405944543809634
 40
0.8405944543809634
 40
0.8405944543809634
 40
1.0
 40
1.0
 40
1.0
 40
1.0
 10
-10.663537350360485
 20
9.121319079372388
 30
0.0
 10
-8.257953351885483
 20
-8.22965820801636
 30
0.0
 10
-6.731477693707539
 20
-25.2531868700961
 30
0.0
 10
-6.1791224067686485
 20
-41.76286903325138
 30
0.0
 10
-5.7977428217912825
 20
-53.06431630574116
 30
0.0
 10
-5.86979694511067
 20
-64.12391963075837
 30
0.0
 10
-6.370971710892805
 20
-74.90918736107317
 30
0.0
 10
-6.598676072158309
 20
-79.78841355161998
 30
0.0
 10
-6.908328206807223
 20
-84.61357897156714
 30
0.0
 10
-7.299928114839556
 20
-89.38468362091456
 30
0.0
 10
-7.774305081604524
 20
-95.21334442394802
 30
0.0
 10
-8.3695160075096
 20
-100.95885574179911
 30
0.0
 10
-9.021698577075526
 20
-106.6626658102333
 30
0.0
  0
SPLINE
  5
45
330
17
100
AcDbEntity
  8
HIDDEN
100
AcDbSpline
 70
0
 71
3
 72
14
 73
10
 74
0
 40
0.0
 40
0.0
 40
0.0
 40
0.0
 40
0.2172222757255933
 40
0.2172222757255933
 40
0.2172222757255933
 40
0.4988229541217094
 40
0.4988229541217094
 40
0.4988229541217094
 40
1.0
 40
1.0
 40
1.0
 40
1.0
 10
-10.663537317525584
 20
9.121319067002284
 30
0.0
 10
-10.456721417665062
 20
9.146611273517243
 30
0.0
 10
-10.210505561357675
 20
9.203436556417868
 30
0.0
 10
-9.924889748603427
 20
9.291794915704147
 30
0.0
 10
-9.555355766545999
 20
9.409405307521382
 30
0.0
 10
-9.119728720165941
 20
9.599658103385183
 30
0.0
 10
-8.63485903222913
 20
9.880005767403013
 30
0.0
 10
-7.769933074299616
 20
10.373664882969868
 30
0.0
 10
-6.76945735097798
 20
11.157625183965525
 30
0.0
 10
-5.713789849219751
 20
11.979057100249321
 30
0.0
  0
SPLINE
  5
46
330
17
100
AcDbEntity
  8
HIDDEN
100
AcDbSpline
 70
0
 71
2
 72
6
 73
3
 74
0
 40
0.0
 40
0.0
 40
0.0
 40
1.0
 40
1.0
 40
1.0
 10
-5.713789882055565
 20
11.979057112619769
 30
0.0
 10
-4.6231324293046505
 20
4.108195384635518
 30
0.0
 10
-3.77539274584504
 20
-3.665557698602141
 30
0.0
  0
SPLINE
  5
47
330
17
100
AcDbEntity
  8
HIDDEN
100
AcDbSpline
 70
0
 71
3
 72
17
 73
13
 74
0
 40
0.0
 40
0.0
 40
0.0
 40
0.0
 40
0.3239306258288387
 40
0.3239306258288387
 40
0.3239306258288387
 40
0.6591331077876572
 40
0.6591331077876572
 40
0.6591331077876572
 40
0.8107775334215302
 40
0.8107775334215302
 40
0.8107775334215302
 40
1.0
 40
1.0
 40
1.0
 40
1.0
 10
-3.5763799126352076
 20
-5.523901923165079
 30
0.0
 10
-2.384753054740333
 20
-16.840099932087455
 30
0.0
 10
-1.5963142602774938
 20
-27.984573406455244
 30
0.0
 10
-1.2293749384686121
 20
-38.905130999832195
 30
0.0
 10
-0.8479953534867108
 20
-50.206578272324826
 30
0.0
 10
-0.9200494768014728
 20
-61.26618159734376
 30
0.0
 10
-1.421224242579358
 20
-72.05144932766179
 30
0.0
 10
-1.6489286038429005
 20
-76.93067551820964
 30
0.0
 10
-1.9585807384899732
 20
-81.75584093815786
 30
0.0
 10
-2.3501806465205712
 20
-86.5269455875064
 30
0.0
 10
-2.834740339410009
 20
-92.48254324883452
 30
0.0
 10
-3.4459843087870685
 20
-98.35091893893174
 30
0.0
 10
-4.114449630416654
 20
-104.17732520938
 30
0.0
  0
SPLINE
  5
48
330
17
100
AcDbEntity
  8
HIDDEN
100
AcDbSpline
 70
0
 71
3
 72
17
 73
13
 74
0
 40
0.0
 40
0.0
 40
0.0
 40
0.0
 40
0.25000000000000006
 40
0.25000000000000006
 40
0.25000000000000006
 40
0.5
 40
0.5
 40
0.5
 40
0.7500000000000001
 40
0.7500000000000001
 40
0.7500000000000001
 40
1.0
 40
1.0
 40
1.0
 40
1.0
 10
9.064197092164708
 20
-111.78602044221732
 30
0.0
 10
9.15036118005419
 20
-110.97101038492532
 30
0.0
 10
8.811021424496435
 20
-110.04567294788919
 30
0.0
 10
8.090954672902127
 20
-109.13210922151941
 30
0.0
 10
7.3744055652385345
 20
-108.21842444228113
 30
0.0
 10
6.27916296221047
 20
-107.3190997771526
 30
0.0
 10
4.949747456130529
 20
-106.55280381254246
 30
0.0
 10
3.622483912181345
 20
-105.78526541186166
 30
0.0
 10
2.064807898224581
 20
-105.1529268038621
 30
0.0
 10
0.4822594389970307
 20
-104.73922698481388
 30
0.0
 10
-1.100079351110988
 20
-104.3234962539458
 30
0.0
 10
-2.7028107948688582
 20
-104.12757834473508
 30
0.0
 10
-4.114449630416657
 20
-104.17732520938
 30
0.0
  0
SPLINE
  5
49
330
17
100
AcDbEntity
  8
HIDDEN
100
AcDbSpline
 70
0
 71
3
 72
17
 73
13
 74
0
 40
0.0
 40
0.0
 40
0.0
 40
0.0
 40
6.028970380243319
 40
6.028970380243319
 40
6.028970380243319
 40
8.817886308085598
 40
8.817886308085598
 40
8.817886308085598
 40
10.351756692966205
 40
10.351756692966205
 40
10.351756692966205
 40
14.27135852100717
 40
14.27135852100717
 40
14.27135852100717
 40
14.27135852100717
 10
11.6074851804953
 20
1.80260520800726
 30
0.0
 10
11.5342320684704
 20
3.403897290446647
 30
0.0
 10
10.848463542903723
 20
5.5366223002224935
 30
0.0
 10
9.665048390472592
 20
7.132180756339592
 30
0.0
 10
9.119786176684048
 20
7.870783438087276
 30
0.0
 10
8.467425021544553
 20
8.491312777419795
 30
0.0
 10
7.759149290345675
 20
8.90836712266495
 30
0.0
 10
7.367883791115192
 20
9.139173224419501
 30
0.0
 10
6.96777878225082
 20
9.307052443912848
 30
0.0
 10
6.558834263752587
 20
9.412004781145033
 30
0.0
 10
5.51789382059826
 20
9.68134954240867
 30
0.0
 10
4.473508741288206
 20
9.513182924178539
 30
0.0
 10
3.612362778962758
 20
9.013801853843962
 30
0.0
  0
SPLINE
  5
4A
330
17
100
AcDbEntity
  8
HIDDEN
100
AcDbSpline
 70
0
 71
3
 72
29
 73
25
 74
0
 40
0.0
 40
0.0
 40
0.0
 40
0.0
 40
0.14120027965668117
 40
0.14120027965668117
 40
0.14120027965668117
 40
0.24295908328726953
 40
0.24295908328726953
 40
0.24295908328726953
 40
0.34471788691785793
 40
0.34471788691785793
 40
0.34471788691785793
 40
0.4535802269029918
 40
0.4535802269029918
 40
0.4535802269029918
 40
0.5624425668881257
 40
0.5624425668881257
 40
0.5624425668881257
 40
0.7715627940178972
 40
0.7715627940178972
 40
0.7715627940178972
 40
0.8738939868745104
 40
0.8738939868745104
 40
0.8738939868745104
 40
1.0
 40
1.0
 40
1.0
 40
1.0
 10
3.612362778962758
 20
9.01380185384396
 30
0.0
 10
3.0047936059319738
 20
8.66254685967455
 30
0.0
 10
2.4811540397444354
 20
8.150111397690015
 30
0.0
 10
2.1137137767840355
 20
7.514249264124153
 30
0.0
 10
1.849131088705312
 20
7.056409927051975
 30
0.0
 10
1.667232217453176
 20
6.52728376233583
 30
0.0
 10
1.6120110093837194
 20
5.966813721494255
 30
0.0
 10
1.5549402628966558
 20
5.406981711160524
 30
0.0
 10
1.628747186784865
 20
4.815943900293681
 30
0.0
 10
1.8269595498837925
 20
4.250681225122694
 30
0.0
 10
2.0373827052995073
 20
3.645708067512341
 30
0.0
 10
2.3797724028168195
 20
3.0771854595280943
 30
0.0
 10
2.7991305034440024
 20
2.559196705159489
 30
0.0
 10
3.2191444733000543
 20
2.040572194958526
 30
0.0
 10
3.7142124068268645
 20
1.5707670024411735
 30
0.0
 10
4.248923125913891
 20
1.1475916256343834
 30
0.0
 10
5.275075242390999
 20
0.33806840317886966
 30
0.0
 10
6.464201079405924
 20
-0.31799042763179386
 30
0.0
 10
7.591142567196381
 20
-0.7101873266083809
 30
0.0
 10
8.141319129450537
 20
-0.9007004934073438
 30
0.0
 10
8.672282794901172
 20
-1.023218679454564
 30
0.0
 10
9.148277489387615
 20
-1.0597592160959919
 30
0.0
 10
9.735963781719969
 20
-1.105628681169548
 30
0.0
 10
10.23637595672601
 20
-1.0192756273094452
 30
0.0
 10
10.61950134451384
 20
-0.7970312655692782
 30
0.0
  0
SPLINE
  5
4B
330
17
100
AcDbEntity
  8
HIDDEN
100
AcDbSpline
 70
0
 71
3
 72
8
 73
4
 74
0
 40
0.0
 40
0.0
 40
0.0
 40
0.0
 40
1.0
 40
1.0
 40
1.0
 40
1.0
 10
10.619501344513838
 20
-0.797031265569278
 30
0.0
 10
11.351997162502917
 20
-0.37940835042395904
 30
0.0
 10
11.66575009897027
 20
0.5436273455552221
 30
0.0
 10
11.6074851804953
 20
1.8026052080072599
 30
0.0
  0
ELLIPSE
  5
4C
330
17
100
AcDbEntity
  8
HIDDEN
100
AcDbEllipse
 10
-2.4748737341529385
 20
-1.4288690166234659
 30
0.0
 11
-2.999999999999999
 21
5.196152422706633
 31
0.0
 40
0.577350269189626
 41
3.9269908169872414
 42
6.283185307179586
  0
ELLIPSE
  5
4D
330
17
100
AcDbEntity
  8
HIDDEN
100
AcDbEllipse
 10
-2.4748737341529385
 20
-1.4288690166234659
 30
0.0
 11
-2.999999999999999
 21
5.196152422706633
 31
0.0
 40
0.577350269189626
 41
0.0
 42
0.961051588110672
  0
ELLIPSE
  5
4E
330
17
100
AcDbEntity
  8
HIDDEN
100
AcDbEllipse
 10
-2.4748737341529385
 20
-1.4288690166234659
 30
0.0
 11
-2.999999999999999
 21
5.196152422706633
 31
0.0
 40
0.577350269189626
 41
2.1964073604848666
 42
3.141592653589793
  0
ELLIPSE
  5
4F
330
17
100
AcDbEntity
  8
HIDDEN
100
AcDbEllipse
 10
-2.4748737341529385
 20
-1.4288690166234659
 30
0.0
 11
-2.999999999999999
 21
5.196152422706633
 31
0.0
 40
0.577350269189626
 41
3.141592653589793
 42
3.9269908169872414
  0
ELLIPSE
  5
50
330
17
100
AcDbEntity
  8
HIDDEN
100
AcDbEllipse
 10
2.474873734152894
 20
1.4288690166235742
 30
0.0
 11
-2.999999999999999
 21
5.196152422706633
 31
0.0
 40
0.577350269189626
 41
3.9269908169872414
 42
6.283185307179586
  0
ELLIPSE
  5
51
330
17
100
AcDbEntity
  8
HIDDEN
100
AcDbEllipse
 10
2.474873734152894
 20
1.4288690166235742
 30
0.0
 11
-2.999999999999999
 21
5.196152422706633
 31
0.0
 40
0.577350269189626
 41
0.0
 42
3.141592653589793
  0
ELLIPSE
  5
52
330
17
100
AcDbEntity
  8
HIDDEN
100
AcDbEllipse
 10
2.474873734152894
 20
1.4288690166235742
 30
0.0
 11
-2.999999999999999
 21
5.196152422706633
 31
0.0
 40
0.577350269189626
 41
3.141592653589793
 42
3.9269908169872414
  0
LINE
  5
53
330
17
100
AcDbEntity
  8
HIDDEN
100
AcDbLine
 10
5.25961533821569
 20
-109.58944414242093
 30
0.0
 11
-4.114449630416659
 21
-104.17732520938
 31
0.0
  0
LINE
  5
54
330
17
100
AcDbEntity
  8
HIDDEN
100
AcDbLine
 10
12.091525958289942
 20
-96.71785502646169
 30
0.0
 11
12.091525958289942
 21
-4.12330773368496
 31
0.0
  0
ELLIPSE
  5
55
330
17
100
AcDbEntity
  8
HIDDEN
100
AcDbEllipse
 10
2.474873734152894
 20
1.428869016623575
 30
0.0
 11
-6.799999999999999
 21
11.777945491468365
 31
0.0
 40
0.5773502691896258
 41
3.9269908169872414
 42
6.283185307179586
  0
ELLIPSE
  5
56
330
17
100
AcDbEntity
  8
HIDDEN
100
AcDbEllipse
 10
2.474873734152894
 20
1.428869016623575
 30
0.0
 11
-6.799999999999999
 21
11.777945491468365
 31
0.0
 40
0.5773502691896258
 41
0.0
 42
0.23345788106992638
  0
ELLIPSE
  5
57
330
17
100
AcDbEntity
  8
HIDDEN
100
AcDbEllipse
 10
-2.4748737341529385
 20
-1.4288690166234665
 30
0.0
 11
-6.799999999999999
 21
11.777945491468365
 31
0.0
 40
0.5773502691896258
 41
3.9269908169872414
 42
6.283185307179586
  0
ELLIPSE
  5
58
330
17
100
AcDbEntity
  8
HIDDEN
100
AcDbEllipse
 10
-2.4748737341529385
 20
-1.4288690166234665
 30
0.0
 11
-6.799999999999999
 21
11.777945491468365
 31
0.0
 40
0.5773502691896258
 41
0.0
 42
0.23345788106992504
  0
LINE
  5
59
330
17
100
AcDbEntity
  8
HIDDEN
100
AcDbLine
 10
-9.064197098722484
 20
-107.03506324262706
 30
0.0
 11
4.1144496238588975
 21
-114.6437584754644
 31
0.0
  0
LINE
  5
5A
330
17
100
AcDbEntity
  8
HIDDEN
100
AcDbLine
 10
7.141778489984108
 20
-99.57559305970886
 30
0.0
 11
7.141778489984108
 21
-6.981045766932006
 31
0.0
  0
LINE
  5
5B
330
17
100
AcDbEntity
  8
HIDDEN
100
AcDbLine
 10
-5.47487373415294
 20
3.767283406083165
 30
0.0
 11
-9.612362757676282
 21
1.378503004582842
 31
0.0
  0
LINE
  5
5C
330
17
100
AcDbEntity
  8
HIDDEN
100
AcDbLine
 10
0.5251262658470602
 20
-6.6250214393301015
 30
0.0
 11
-4.619501330940061
 21
-9.595273567215523
 31
0.0
  0
LINE
  5
5D
330
17
100
AcDbEntity
  8
HIDDEN
100
AcDbLine
 10
3.612362784795621
 20
9.013801856487913
 30
0.0
 11
-0.5251262658471054
 21
6.625021439330206
 31
0.0
  0
LINE
  5
5E
330
17
100
AcDbEntity
  8
HIDDEN
100
AcDbLine
 10
10.619501335032192
 20
-0.7970312758350198
 30
0.0
 11
5.474873734152895
 21
-3.7672834060830604
 31
0.0
  0
LINE
  5
5F
330
17
100
AcDbEntity
  8
HIDDEN
100
AcDbLine
 10
-9.27487373415294
 20
10.3490764748449
 30
0.0
 11
-4.325126265847107
 21
13.206814508091941
 31
0.0
  0
LINE
  5
60
330
17
100
AcDbEntity
  8
HIDDEN
100
AcDbLine
 10
12.091525958289942
 20
-4.123307733684963
 30
0.0
 11
7.14177848998411
 21
-6.981045766932005
 31
0.0
  0
ENDSEC
  0
SECTION
  2
OBJECTS
  0
DICTIONARY
  5
A
330
0
100
AcDbDictionary
281
1
  3
ACAD_COLOR
350
B
  3
ACAD_GROUP
350
C
  3
ACAD_LAYOUT
350
D
  3
ACAD_MATERIAL
350
E
  3
ACAD_MLEADERSTYLE
350
F
  3
ACAD_MLINESTYLE
350
10
  3
ACAD_PLOTSETTINGS
350
11
  3
ACAD_PLOTSTYLENAME
350
12
  3
ACAD_SCALELIST
350
14
  3
ACAD_TABLESTYLE
350
15
  3
ACAD_VISUALSTYLE
350
16
  3
EZDXF_META
350
2D
  0
DICTIONARY
  5
B
330
A
100
AcDbDictionary
281
1
  0
DICTIONARY
  5
C
330
A
100
AcDbDictionary
281
1
  0
DICTIONARY
  5
D
330
A
100
AcDbDictionary
281
1
  3
Model
350
1A
  3
Layout1
350
1E
  0
DICTIONARY
  5
E
330
A
100
AcDbDictionary
281
1
  3
ByBlock
350
1F
  3
ByLayer
350
20
  3
Global
350
21
  0
DICTIONARY
  5
F
330
A
100
AcDbDictionary
281
1
  3
Standard
350
2C
  0
DICTIONARY
  5
10
330
A
100
AcDbDictionary
281
1
  3
Standard
350
22
  0
DICTIONARY
  5
11
330
A
100
AcDbDictionary
281
1
  0
ACDBDICTIONARYWDFLT
  5
12
330
A
100
AcDbDictionary
281
1
  3
Normal
350
13
100
AcDbDictionaryWithDefault
340
13
  0
ACDBPLACEHOLDER
  5
13
330
12
  0
DICTIONARY
  5
14
330
A
100
AcDbDictionary
281
1
  0
DICTIONARY
  5
15
330
A
100
AcDbDictionary
281
1
  0
DICTIONARY
  5
16
330
A
100
AcDbDictionary
281
1
  0
LAYOUT
  5
1A
330
D
100
AcDbPlotSettings
  1

  4
A3
  6

 40
7.5
 41
20.0
 42
7.5
 43
20.0
 44
420.0
 45
297.0
 46
0.0
 47
0.0
 48
0.0
 49
0.0
140
0.0
141
0.0
142
1.0
143
1.0
 70
1024
 72
1
 73
0
 74
5
  7

 75
16
 76
0
 77
2
 78
300
147
1.0
148
0.0
149
0.0
100
AcDbLayout
  1
Model
 70
1
 71
0
 10
0.0
 20
0.0
 11
420.0
 21
297.0
 12
0.0
 22
0.0
 32
0.0
 14
1e+20
 24
1e+20
 34
1e+20
 15
-1e+20
 25
-1e+20
 35
-1e+20
146
0.0
 13
0.0
 23
0.0
 33
0.0
 16
1.0
 26
0.0
 36
0.0
 17
0.0
 27
1.0
 37
0.0
 76
1
330
17
  0
LAYOUT
  5
1E
330
D
100
AcDbPlotSettings
  1

  4
A3
  6

 40
7.5
 41
20.0
 42
7.5
 43
20.0
 44
420.0
 45
297.0
 46
0.0
 47
0.0
 48
0.0
 49
0.0
140
0.0
141
0.0
142
1.0
143
1.0
 70
0
 72
1
 73
0
 74
5
  7

 75
16
 76
0
 77
2
 78
300
147
1.0
148
0.0
149
0.0
100
AcDbLayout
  1
Layout1
 70
1
 71
1
 10
0.0
 20
0.0
 11
420.0
 21
297.0
 12
0.0
 22
0.0
 32
0.0
 14
1e+20
 24
1e+20
 34
1e+20
 15
-1e+20
 25
-1e+20
 35
-1e+20
146
0.0
 13
0.0
 23
0.0
 33
0.0
 16
1.0
 26
0.0
 36
0.0
 17
0.0
 27
1.0
 37
0.0
 76
1
330
1B
  0
MATERIAL
  5
1F
102
{ACAD_REACTORS
330
E
102
}
330
E
100
AcDbMaterial
  1
ByBlock
  2

 70
0
 40
1.0
 71
1
 41
1.0
 91
-1023410177
 42
1.0
 72
1
  3

 73
1
 74
1
 75
1
 44
0.5
 73
0
 45
1.0
 46
1.0
 77
1
  4

 78
1
 79
1
170
1
 48
1.0
171
1
  6

172
1
173
1
174
1
140
1.0
141
1.0
175
1
  7

176
1
177
1
178
1
143
1.0
179
1
  8

270
1
271
1
272
1
145
1.0
146
1.0
273
1
  9

274
1
275
1
276
1
 42
1.0
 72
1
  3

 73
1
 74
1
 75
1
 94
63
  0
MATERIAL
  5
20
102
{ACAD_REACTORS
330
E
102
}
330
E
100
AcDbMaterial
  1
ByLayer
  2

 70
0
 40
1.0
 71
1
 41
1.0
 91
-1023410177
 42
1.0
 72
1
  3

 73
1
 74
1
 75
1
 44
0.5
 73
0
 45
1.0
 46
1.0
 77
1
  4

 78
1
 79
1
170
1
 48
1.0
171
1
  6

172
1
173
1
174
1
140
1.0
141
1.0
175
1
  7

176
1
177
1
178
1
143
1.0
179
1
  8

270
1
271
1
272
1
145
1.0
146
1.0
273
1
  9

274
1
275
1
276
1
 42
1.0
 72
1
  3

 73
1
 74
1
 75
1
 94
63
  0
MATERIAL
  5
21
102
{ACAD_REACTORS
330
E
102
}
330
E
100
AcDbMaterial
  1
Global
  2

 70
0
 40
1.0
 71
1
 41
1.0
 91
-1023410177
 42
1.0
 72
1
  3

 73
1
 74
1
 75
1
 44
0.5
 73
0
 45
1.0
 46
1.0
 77
1
  4

 78
1
 79
1
170
1
 48
1.0
171
1
  6

172
1
173
1
174
1
140
1.0
141
1.0
175
1
  7

176
1
177
1
178
1
143
1.0
179
1
  8

270
1
271
1
272
1
145
1.0
146
1.0
273
1
  9

274
1
275
1
276
1
 42
1.0
 72
1
  3

 73
1
 74
1
 75
1
 94
63
  0
MLINESTYLE
  5
22
102
{ACAD_REACTORS
330
10
102
}
330
10
100
AcDbMlineStyle
  2
Standard
 70
0
  3

 62
256
 51
90.0
 52
90.0
 71
2
 49
0.5
 62
256
  6
BYLAYER
 49
-0.5
 62
256
  6
BYLAYER
  0
MLEADERSTYLE
  5
2C
102
{ACAD_REACTORS
330
F
102
}
330
F
100
AcDbMLeaderStyle
179
2
170
2
171
1
172
0
 90
2
 40
0.0
 41
0.0
173
1
 91
-1056964608
 92
-2
290
1
 42
2.0
291
1
 43
8.0
  3
Standard
 44
4.0
300

342
29
174
1
175
1
176
0
178
1
 93
-1056964608
 45
4.0
292
0
297
0
 46
4.0
 94
-1056964608
 47
1.0
 49
1.0
140
1.0
294
1
141
0.0
177
0
142
1.0
295
0
296
0
143
3.75
271
0
272
9
273
9
  0
DICTIONARY
  5
2D
330
A
100
AcDbDictionary
280
1
281
1
  3
CREATED_BY_EZDXF
350
2E
  3
WRITTEN_BY_EZDXF
350
64
  0
DICTIONARYVAR
  5
2E
330
2D
100
DictionaryVariables
280
0
  1
1.4.4 @ 2026-10-08T06:26:17.454064+00:00
  0
DICTIONARYVAR
  5
64
330
2D
100
DictionaryVariables
280
0
  1
1.4.4 @ 2026-10-08T06:26:17.610941+00:00
  0
ENDSEC
  0
EOF
