  0
SECTION
  2
HEADER
  9
$ACADVER
  1
AC1027
  9
$ACADMAINTVER
 70
105
  9
$DWGCODEPAGE
  3
ANSI_1252
  9
$LASTSAVEDBY
  1
ezdxf
  9
$REQUIREDVERSIONS
160
0
  9
$INSBASE
 10
0.0
 20
0.0
 30
0.0
  9
$EXTMIN
 10
1e+20
 20
1e+20
 30
1e+20
  9
$EXTMAX
 10
-1e+20
 20
-1e+20
 30
-1e+20
  9
$LIMMIN
 10
0.0
 20
0.0
  9
$LIMMAX
 10
420.0
 20
297.0
  9
$ORTHOMODE
 70
0
  9
$REGENMODE
 70
1
  9
$FILLMODE
 70
1
  9
$QTEXTMODE
 70
0
  9
$MIRRTEXT
 70
1
  9
$LTSCALE
 40
1.0
  9
$ATTMODE
 70
1
  9
$TEXTSIZE
 40
2.5
  9
$TRACEWID
 40
1.0
  9
$TEXTSTYLE
  7
Standard
  9
$CLAYER
  8
0
  9
$CELTYPE
  6
ByLayer
  9
$CECOLOR
 62
256
  9
$CELTSCALE
 40
1.0
  9
$DISPSILH
 70
0
  9
$DIMSCALE
 40
1.0
  9
$DIMASZ
 40
2.5
  9
$DIMEXO
 40
0.625
  9
$DIMDLI
 40
3.75
  9
$DIMRND
 40
0.0
  9
$DIMDLE
 40
0.0
  9
$DIMEXE
 40
1.25
  9
$DIMTP
 40
0.0
  9
$DIMTM
 40
0.0
  9
$DIMTXT
 40
2.5
  9
$DIMCEN
 40
2.5
  9
$DIMTSZ
 40
0.0
  9
$DIMTOL
 70
0
  9
$DIMLIM
 70
0
  9
$DIMTIH
 70
0
  9
$DIMTOH
 70
0
  9
$DIMSE1
 70
0
  9
$DIMSE2
 70
0
  9
$DIMTAD
 70
1
  9
$DIMZIN
 70
8
  9
$DIMBLK
  1

  9
$DIMASO
 70
1
  9
$DIMSHO
 70
1
  9
$DIMPOST
  1

  9
$DIMAPOST
  1

  9
$DIMALT
 70
0
  9
$DIMALTD
 70
3
  9
$DIMALTF
 40
0.03937007874
  9
$DIMLFAC
 40
1.0
  9
$DIMTOFL
 70
1
  9
$DIMTVP
 40
0.0
  9
$DIMTIX
 70
0
  9
$DIMSOXD
 70
0
  9
$DIMSAH
 70
0
  9
$DIMBLK1
  1

  9
$DIMBLK2
  1

  9
$DIMSTYLE
  2
ISO-25
  9
$DIMCLRD
 70
0
  9
$DIMCLRE
 70
0
  9
$DIMCLRT
 70
0
  9
$DIMTFAC
 40
1.0
  9
$DIMGAP
 40
0.625
  9
$DIMJUST
 70
0
  9
$DIMSD1
 70
0
  9
$DIMSD2
 70
0
  9
$DIMTOLJ
 70
0
  9
$DIMTZIN
 70
8
  9
$DIMALTZ
 70
0
  9
$DIMALTTZ
 70
0
  9
$DIMUPT
 70
0
  9
$DIMDEC
 70
2
  9
$DIMTDEC
 70
2
  9
$DIMALTU
 70
2
  9
$DIMALTTD
 70
3
  9
$DIMTXSTY
  7
Standard
  9
$DIMAUNIT
 70
0
  9
$DIMADEC
 70
0
  9
$DIMALTRND
 40
0.0
  9
$DIMAZIN
 70
0
  9
$DIMDSEP
 70
44
  9
$DIMATFIT
 70
3
  9
$DIMFRAC
 70
0
  9
$DIMLDRBLK
  1

  9
$DIMLUNIT
 70
2
  9
$DIMLWD
 70
-2
  9
$DIMLWE
 70
-2
  9
$DIMTMOVE
 70
0
  9
$DIMFXL
 40
1.0
  9
$DIMFXLON
 70
0
  9
$DIMJOGANG
 40
0.785398163397
  9
$DIMTFILL
 70
0
  9
$DIMTFILLCLR
 70
0
  9
$DIMARCSYM
 70
0
  9
$DIMLTYPE
  6

  9
$DIMLTEX1
  6

  9
$DIMLTEX2
  6

  9
$DIMTXTDIRECTION
 70
0
  9
$LUNITS
 70
2
  9
$LUPREC
 70
4
  9
$SKETCHINC
 40
1.0
  9
$FILLETRAD
 40
10.0
  9
$AUNITS
 70
0
  9
$AUPREC
 70
2
  9
$MENU
  1
.
  9
$ELEVATION
 40
0.0
  9
$PELEVATION
 40
0.0
  9
$THICKNESS
 40
0.0
  9
$LIMCHECK
 70
0
  9
$CHAMFERA
 40
0.0
  9
$CHAMFERB
 40
0.0
  9
$CHAMFERC
 40
0.0
  9
$CHAMFERD
 40
0.0
  9
$SKPOLY
 70
0
  9
$TDCREATE
 40
2461322.559675926
  9
$TDUCREATE
 40
2458532.153996898
  9
$TDUPDATE
 40
2461322.559675926
  9
$TDUUPDATE
 40
2458532.1544311
  9
$TDINDWG
 40
0.0
  9
$TDUSRTIMER
 40
0.0
  9
$USRTIMER
 70
1
  9
$ANGBASE
 50
0.0
  9
$ANGDIR
 70
0
  9
$PDMODE
 70
0
  9
$PDSIZE
 40
0.0
  9
$PLINEWID
 40
0.0
  9
$SPLFRAME
 70
0
  9
$SPLINETYPE
 70
6
  9
$SPLINESEGS
 70
8
  9
$HANDSEED
  5
58
  9
$SURFTAB1
 70
6
  9
$SURFTAB2
 70
6
  9
$SURFTYPE
 70
6
  9
$SURFU
 70
6
  9
$SURFV
 70
6
  9
$UCSBASE
  2

  9
$UCSNAME
  2

  9
$UCSORG
 10
0.0
 20
0.0
 30
0.0
  9
$UCSXDIR
 10
1.0
 20
0.0
 30
0.0
  9
$UCSYDIR
 10
0.0
 20
1.0
 30
0.0
  9
$UCSORTHOREF
  2

  9
$UCSORTHOVIEW
 70
0
  9
$UCSORGTOP
 10
0.0
 20
0.0
 30
0.0
  9
$UCSORGBOTTOM
 10
0.0
 20
0.0
 30
0.0
  9
$UCSORGLEFT
 10
0.0
 20
0.0
 30
0.0
  9
$UCSORGRIGHT
 10
0.0
 20
0.0
 30
0.0
  9
$UCSORGFRONT
 10
0.0
 20
0.0
 30
0.0
  9
$UCSORGBACK
 10
0.0
 20
0.0
 30
0.0
  9
$PUCSBASE
  2

  9
$PUCSNAME
  2

  9
$PUCSORG
 10
0.0
 20
0.0
 30
0.0
  9
$PUCSXDIR
 10
1.0
 20
0.0
 30
0.0
  9
$PUCSYDIR
 10
0.0
 20
1.0
 30
0.0
  9
$PUCSORTHOREF
  2

  9
$PUCSORTHOVIEW
 70
0
  9
$PUCSORGTOP
 10
0.0
 20
0.0
 30
0.0
  9
$PUCSORGBOTTOM
 10
0.0
 20
0.0
 30
0.0
  9
$PUCSORGLEFT
 10
0.0
 20
0.0
 30
0.0
  9
$PUCSORGRIGHT
 10
0.0
 20
0.0
 30
0.0
  9
$PUCSORGFRONT
 10
0.0
 20
0.0
 30
0.0
  9
$PUCSORGBACK
 10
0.0
 20
0.0
 30
0.0
  9
$USERI1
 70
0
  9
$USERI2
 70
0
  9
$USERI3
 70
0
  9
$USERI4
 70
0
  9
$USERI5
 70
0
  9
$USERR1
 40
0.0
  9
$USERR2
 40
0.0
  9
$USERR3
 40
0.0
  9
$USERR4
 40
0.0
  9
$USERR5
 40
0.0
  9
$WORLDVIEW
 70
1
  9
$SHADEDGE
 70
3
  9
$SHADEDIF
 70
70
  9
$TILEMODE
 70
1
  9
$MAXACTVP
 70
64
  9
$PINSBASE
 10
0.0
 20
0.0
 30
0.0
  9
$PLIMCHECK
 70
0
  9
$PEXTMIN
 10
1e+20
 20
1e+20
 30
1e+20
  9
$PEXTMAX
 10
-1e+20
 20
-1e+20
 30
-1e+20
  9
$PLIMMIN
 10
0.0
 20
0.0
  9
$PLIMMAX
 10
420.0
 20
297.0
  9
$UNITMODE
 70
0
  9
$VISRETAIN
 70
1
  9
$PLINEGEN
 70
0
  9
$PSLTSCALE
 70
1
  9
$TREEDEPTH
 70
3020
  9
$CMLSTYLE
  2
Standard
  9
$CMLJUST
 70
0
  9
$CMLSCALE
 40
20.0
  9
$PROXYGRAPHICS
 70
1
  9
$MEASUREMENT
 70
1
  9
$CELWEIGHT
370
-1
  9
$ENDCAPS
280
0
  9
$JOINSTYLE
280
0
  9
$LWDISPLAY
290
0
  9
$INSUNITS
 70
4
  9
$HYPERLINKBASE
  1

  9
$STYLESHEET
  1

  9
$XEDIT
290
1
  9
$CEPSNTYPE
380
0
  9
$PSTYLEMODE
290
1
  9
$FINGERPRINTGUID
  2
{99A22E7A-0E6B-41A6-BFF8-3BAE987964C0}
  9
$VERSIONGUID
  2
{B405C226-FBCA-47D7-B319-202F2491C5B8}
  9
$EXTNAMES
290
1
  9
$PSVPSCALE
 40
0.0
  9
$OLESTARTUP
290
0
  9
$SORTENTS
280
127
  9
$INDEXCTL
280
0
  9
$HIDETEXT
280
1
  9
$XCLIPFRAME
280
1
  9
$HALOGAP
280
0
  9
$OBSCOLOR
 70
257
  9
$OBSLTYPE
280
0
  9
$INTERSECTIONDISPLAY
280
0
  9
$INTERSECTIONCOLOR
 70
257
  9
$DIMASSOC
280
2
  9
$PROJECTNAME
  1

  9
$CAMERADISPLAY
290
0
  9
$LENSLENGTH
 40
50.0
  9
$CAMERAHEIGHT
 40
0.0
  9
$STEPSPERSEC
 40
24.0
  9
$STEPSIZE
 40
100.0
  9
$3DDWFPREC
 40
2.0
  9
$PSOLWIDTH
 40
0.005
  9
$PSOLHEIGHT
 40
0.08
  9
$LOFTANG1
 40
1.570796326795
  9
$LOFTANG2
 40
1.570796326795
  9
$LOFTMAG1
 40
0.0
  9
$LOFTMAG2
 40
0.0
  9
$LOFTPARAM
 70
7
  9
$LOFTNORMALS
280
1
  9
$LATITUDE
 40
37.795
  9
$LONGITUDE
 40
-122.394
  9
$NORTHDIRECTION
 40
0.0
  9
$TIMEZONE
 70
-8000
  9
$LIGHTGLYPHDISPLAY
280
1
  9
$TILEMODELIGHTSYNCH
280
1
  9
$CMATERIAL
347
20
  9
$SOLIDHIST
280
0
  9
$SHOWHIST
280
1
  9
$DWFFRAME
280
2
  9
$DGNFRAME
280
2
  9
$REALWORLDSCALE
290
1
  9
$INTERFERECOLOR
 62
256
  9
$CSHADOW
280
0
  9
$SHADOWPLANELOCATION
 40
0.0
  0
ENDSEC
  0
SECTION
  2
CLASSES
  0
CLASS
  1
ACDBDICTIONARYWDFLT
  2
AcDbDictionaryWithDefault
  3
ObjectDBX Classes
 90
0
 91
0
280
0
281
0
  0
CLASS
  1
SUN
  2
AcDbSun
  3
SCENEOE
 90
1153
 91
0
280
0
281
0
  0
CLASS
  1
VISUALSTYLE
  2
AcDbVisualStyle
  3
ObjectDBX Classes
 90
4095
 91
0
280
0
281
0
  0
CLASS
  1
MATERIAL
  2
AcDbMaterial
  3
ObjectDBX Classes
 90
1153
 91
0
280
0
281
0
  0
CLASS
  1
SCALE
  2
AcDbScale
  3
ObjectDBX Classes
 90
1153
 91
0
280
0
281
0
  0
CLASS
  1
TABLESTYLE
  2
AcDbTableStyle
  3
ObjectDBX Classes
 90
4095
 91
0
280
0
281
0
  0
CLASS
  1
MLEADERSTYLE
  2
AcDbMLeaderStyle
  3
ACDB_MLEADERSTYLE_CLASS
 90
4095
 91
0
280
0
281
0
  0
CLASS
  1
DICTIONARYVAR
  2
AcDbDictionaryVar
  3
ObjectDBX Classes
 90
0
 91
0
280
0
281
0
  0
CLASS
  1
CELLSTYLEMAP
  2
AcDbCellStyleMap
  3
ObjectDBX Classes
 90
1152
 91
0
280
0
281
0
  0
CLASS
  1
MENTALRAYRENDERSETTINGS
  2
AcDbMentalRayRenderSettings
  3
SCENEOE
 90
1024
 91
0
280
0
281
0
  0
CLASS
  1
ACDBDETAILVIEWSTYLE
  2
AcDbDetailViewStyle
  3
ObjectDBX Classes
 90
1025
 91
0
280
0
281
0
  0
CLASS
  1
ACDBSECTIONVIEWSTYLE
  2
AcDbSectionViewStyle
  3
ObjectDBX Classes
 90
1025
 91
0
280
0
281
0
  0
CLASS
  1
RASTERVARIABLES
  2
AcDbRasterVariables
  3
ISM
 90
0
 91
0
280
0
281
0
  0
CLASS
  1
ACDBPLACEHOLDER
  2
AcDbPlaceHolder
  3
ObjectDBX Classes
 90
0
 91
0
280
0
281
0
  0
CLASS
  1
LAYOUT
  2
AcDbLayout
  3
ObjectDBX Classes
 90
0
 91
0
280
0
281
0
  0
ENDSEC
  0
SECTION
  2
TABLES
  0
TABLE
  2
VPORT
  5
8
330
0
100
AcDbSymbolTable
 70
1
  0
VPORT
  5
54
330
8
100
AcDbSymbolTableRecord
100
AcDbViewportTableRecord
  2
*Active
 70
0
 10
0.0
 20
0.0
 11
1.0
 21
1.0
 12
0.0
 22
-70.0
 13
0.0
 23
0.0
 14
0.5
 24
0.5
 15
0.5
 25
0.5
 16
0.0
 26
0.0
 36
1.0
 17
0.0
 27
0.0
 37
0.0
 40
167.2
 41
1.34
 42
50.0
 43
0.0
 44
0.0
 50
0.0
 51
0.0
 71
0
 72
1000
 73
1
 74
3
 75
0
 76
0
 77
0
 78
0
281
0
 65
1
110
0.0
120
0.0
130
0.0
111
1.0
121
0.0
131
0.0
112
0.0
122
1.0
132
0.0
 79
0
146
0.0
  0
ENDTAB
  0
TABLE
  2
LTYPE
  5
2
330
0
100
AcDbSymbolTable
 70
4
  0
LTYPE
  5
24
330
2
100
AcDbSymbolTableRecord
100
AcDbLinetypeTableRecord
  2
ByBlock
 70
0
  3

 72
65
 73
0
 40
0.0
  0
LTYPE
  5
25
330
2
100
AcDbSymbolTableRecord
100
AcDbLinetypeTableRecord
  2
ByLayer
 70
0
  3

 72
65
 73
0
 40
0.0
  0
LTYPE
  5
26
330
2
100
AcDbSymbolTableRecord
100
AcDbLinetypeTableRecord
  2
Continuous
 70
0
  3

 72
65
 73
0
 40
0.0
  0
LTYPE
  5
30
330
2
100
AcDbSymbolTableRecord
100
AcDbLinetypeTableRecord
  2
ACAD_ISO02W100
 70
0
  3
ISO dash __ __ __ __ __ __ __ __ __ __ __ __ __
 72
65
 73
2
 40
15.0
 49
12.0
 74
0
 49
-3.0
 74
0
  0
ENDTAB
  0
TABLE
  2
LAYER
  5
1
330
0
100
AcDbSymbolTable
 70
4
  0
LAYER
  5
27
330
1
100
AcDbSymbolTableRecord
100
AcDbLayerTableRecord
  2
0
 70
0
 62
7
  6
Continuous
370
-3
390
13
347
21
  0
LAYER
  5
28
330
1
100
AcDbSymbolTableRecord
100
AcDbLayerTableRecord
  2
Defpoints
 70
0
 62
7
  6
Continuous
290
0
370
-3
390
13
347
21
  0
LAYER
  5
2F
330
1
100
AcDbSymbolTableRecord
100
AcDbLayerTableRecord
  2
VISIBLE
 70
0
 62
7
  6
Continuous
370
25
390
13
347
21
  0
LAYER
  5
31
330
1
100
AcDbSymbolTableRecord
100
AcDbLayerTableRecord
  2
HIDDEN
 70
0
 62
7
  6
ACAD_ISO02W100
370
13
390
13
347
21
  0
ENDTAB
  0
TABLE
  2
STYLE
  5
5
330
0
100
AcDbSymbolTable
 70
1
  0
STYLE
  5
29
330
5
100
AcDbSymbolTableRecord
100
AcDbTextStyleTableRecord
  2
Standard
 70
0
 40
0.0
 41
1.0
 50
0.0
 71
0
 42
2.5
  3
txt
  4

  0
ENDTAB
  0
TABLE
  2
VIEW
  5
7
330
0
100
AcDbSymbolTable
 70
0
  0
ENDTAB
  0
TABLE
  2
UCS
  5
6
330
0
100
AcDbSymbolTable
 70
0
  0
ENDTAB
  0
TABLE
  2
APPID
  5
3
330
0
100
AcDbSymbolTable
 70
3
  0
APPID
  5
2A
330
3
100
AcDbSymbolTableRecord
100
AcDbRegAppTableRecord
  2
ACAD
 70
0
  0
APPID
  5
55
330
3
100
AcDbSymbolTableRecord
100
AcDbRegAppTableRecord
  2
HATCHBACKGROUNDCOLOR
 70
0
  0
APPID
  5
56
330
3
100
AcDbSymbolTableRecord
100
AcDbRegAppTableRecord
  2
EZDXF
 70
0
  0
ENDTAB
  0
TABLE
  2
DIMSTYLE
  5
4
330
0
100
AcDbSymbolTable
 70
1
100
AcDbDimStyleTable
  0
DIMSTYLE
105
2B
330
4
100
AcDbSymbolTableRecord
100
AcDbDimStyleTableRecord
  2
Standard
 70
0
 40
1.0
 41
2.5
 42
0.625
 43
3.75
 44
1.25
 45
0.0
 46
0.0
 47
0.0
 48
0.0
 49
2.5
140
2.5
141
2.5
142
0.0
143
0.03937007874
144
1.0
145
0.0
146
1.0
147
0.625
148
0.0
 69
0
 70
0
 71
0
 72
0
 73
0
 74
0
 75
0
 76
0
 77
1
 78
8
 79
3
170
0
171
3
172
1
173
0
174
0
175
0
176
0
177
0
178
0
179
2
271
2
272
2
273
2
274
3
275
0
276
0
277
2
278
44
279
0
280
0
281
0
282
0
283
0
284
8
285
0
286
0
288
0
289
3
290
0
371
-2
372
-2
  0
ENDTAB
  0
TABLE
  2
BLOCK_RECORD
  5
9
330
0
100
AcDbSymbolTable
 70
2
  0
BLOCK_RECORD
  5
17
330
9
100
AcDbSymbolTableRecord
100
AcDbBlockTableRecord
  2
*Model_Space
340
1A
 70
0
280
1
281
0
  0
BLOCK_RECORD
  5
1B
330
9
100
AcDbSymbolTableRecord
100
AcDbBlockTableRecord
  2
*Paper_Space
340
1E
 70
0
280
1
281
0
  0
ENDTAB
  0
ENDSEC
  0
SECTION
  2
BLOCKS
  0
BLOCK
  5
18
330
17
100
AcDbEntity
  8
0
100
AcDbBlockBegin
  2
*Model_Space
 70
0
 10
0.0
 20
0.0
 30
0.0
  3
*Model_Space
  1

  0
ENDBLK
  5
19
330
17
100
AcDbEntity
  8
0
100
AcDbBlockEnd
  0
BLOCK
  5
1C
330
1B
100
AcDbEntity
  8
0
100
AcDbBlockBegin
  2
*Paper_Space
 70
0
 10
0.0
 20
0.0
 30
0.0
  3
*Paper_Space
  1

  0
ENDBLK
  5
1D
330
1B
100
AcDbEntity
  8
0
100
AcDbBlockEnd
  0
ENDSEC
  0
SECTION
  2
ENTITIES
  0
SPLINE
  5
32
330
17
100
AcDbEntity
  8
VISIBLE
100
AcDbSpline
 70
0
 71
1
 72
17
 73
15
 74
0
 40
0.0
 40
0.0
 40
0.1121997376282069
 40
0.2243994752564138
 40
0.3365992128846207
 40
0.4487989505128276
 40
0.5609986881410345
 40
0.6731984257692414
 40
0.7853981633974483
 40
0.8975979010256552
 40
1.009797638653862
 40
1.121997376282069
 40
1.2341971139102759
 40
1.3463968515384828
 40
1.4585965891666897
 40
1.5707963267948966
 40
1.5707963267948966
 10
3.5
 20
0.0
 30
0.0
 10
3.5
 20
1.522716875004987
 30
0.0
 10
3.5
 20
3.026284701805875
 30
0.0
 10
3.5
 20
4.491795242590272
 30
0.0
 10
3.5
 20
5.90081885199879
 30
0.0
 10
3.5
 20
7.235636240608578
 30
0.0
 10
3.5
 20
8.479461305278775
 30
0.0
 10
3.5
 20
9.616652224137045
 30
0.0
 10
3.5
 20
10.632908161565204
 30
0.0
 10
3.5
 20
11.515449109504663
 30
0.0
 10
3.5
 20
12.253176603472898
 30
0.0
 10
3.5
 20
12.8368132921938
 30
0.0
 10
3.5
 20
13.259019605672801
 30
0.0
 10
3.5
 20
13.5144860545481
 30
0.0
 10
3.5
 20
13.6
 30
0.0
  0
SPLINE
  5
33
330
17
100
AcDbEntity
  8
VISIBLE
100
AcDbSpline
 70
0
 71
1
 72
17
 73
15
 74
0
 40
0.0
 40
0.0
 40
0.1121997376282069
 40
0.2243994752564138
 40
0.3365992128846207
 40
0.4487989505128276
 40
0.5609986881410345
 40
0.6731984257692414
 40
0.7853981633974483
 40
0.8975979010256552
 40
1.009797638653862
 40
1.121997376282069
 40
1.2341971139102759
 40
1.3463968515384828
 40
1.4585965891666897
 40
1.5707963267948966
 40
1.5707963267948966
 10
-3.5
 20
0.0
 30
0.0
 10
-3.5
 20
1.522716875004987
 30
0.0
 10
-3.5
 20
3.026284701805875
 30
0.0
 10
-3.5
 20
4.491795242590272
 30
0.0
 10
-3.5
 20
5.90081885199879
 30
0.0
 10
-3.5
 20
7.235636240608578
 30
0.0
 10
-3.5
 20
8.479461305278775
 30
0.0
 10
-3.5
 20
9.616652224137045
 30
0.0
 10
-3.5
 20
10.632908161565204
 30
0.0
 10
-3.5
 20
11.515449109504663
 30
0.0
 10
-3.5
 20
12.253176603472898
 30
0.0
 10
-3.5
 20
12.8368132921938
 30
0.0
 10
-3.5
 20
13.259019605672801
 30
0.0
 10
-3.5
 20
13.5144860545481
 30
0.0
 10
-3.5
 20
13.6
 30
0.0
  0
LINE
  5
34
330
17
100
AcDbEntity
  8
VISIBLE
100
AcDbLine
 10
3.5
 20
-140.0
 30
0.0
 11
3.5
 21
0.0
 31
0.0
  0
LINE
  5
35
330
17
100
AcDbEntity
  8
VISIBLE
100
AcDbLine
 10
-3.5
 20
-140.0
 30
0.0
 11
-3.5
 21
0.0
 31
0.0
  0
SPLINE
  5
36
330
17
100
AcDbEntity
  8
VISIBLE
100
AcDbSpline
 70
0
 71
1
 72
17
 73
15
 74
0
 40
0.0
 40
0.0
 40
0.07142857142857142
 40
0.14285714285714285
 40
0.21428571428571427
 40
0.2857142857142857
 40
0.35714285714285715
 40
0.42857142857142855
 40
0.5
 40
0.5714285714285714
 40
0.6428571428571429
 40
0.7142857142857143
 40
0.7857142857142857
 40
0.8571428571428571
 40
0.9285714285714286
 40
1.0
 40
1.0
 10
3.5
 20
-153.6
 30
0.0
 10
3.5
 20
-153.51448605454806
 30
0.0
 10
3.5
 20
-153.2590196056728
 30
0.0
 10
3.5
 20
-152.8368132921938
 30
0.0
 10
3.5
 20
-152.2531766034729
 30
0.0
 10
3.5
 20
-151.51544910950466
 30
0.0
 10
3.5
 20
-150.63290816156518
 30
0.0
 10
3.5
 20
-149.61665222413706
 30
0.0
 10
3.5
 20
-148.4794613052788
 30
0.0
 10
3.5
 20
-147.23563624060859
 30
0.0
 10
3.5
 20
-145.9008188519988
 30
0.0
 10
3.5
 20
-144.49179524259029
 30
0.0
 10
3.5
 20
-143.02628470180588
 30
0.0
 10
3.5
 20
-141.52271687500502
 30
0.0
 10
3.5
 20
-140.0
 30
0.0
  0
SPLINE
  5
37
330
17
100
AcDbEntity
  8
VISIBLE
100
AcDbSpline
 70
0
 71
1
 72
17
 73
15
 74
0
 40
0.0
 40
0.0
 40
0.07142857142857142
 40
0.14285714285714285
 40
0.21428571428571427
 40
0.2857142857142857
 40
0.35714285714285715
 40
0.42857142857142855
 40
0.5
 40
0.5714285714285714
 40
0.6428571428571429
 40
0.7142857142857143
 40
0.7857142857142857
 40
0.8571428571428571
 40
0.9285714285714286
 40
1.0
 40
1.0
 10
-3.5
 20
-153.6
 30
0.0
 10
-3.5
 20
-153.51448605454806
 30
0.0
 10
-3.5
 20
-153.2590196056728
 30
0.0
 10
-3.5
 20
-152.8368132921938
 30
0.0
 10
-3.5
 20
-152.2531766034729
 30
0.0
 10
-3.5
 20
-151.51544910950466
 30
0.0
 10
-3.5
 20
-150.63290816156518
 30
0.0
 10
-3.5
 20
-149.61665222413706
 30
0.0
 10
-3.5
 20
-148.4794613052788
 30
0.0
 10
-3.5
 20
-147.23563624060859
 30
0.0
 10
-3.5
 20
-145.9008188519988
 30
0.0
 10
-3.5
 20
-144.49179524259029
 30
0.0
 10
-3.5
 20
-143.02628470180588
 30
0.0
 10
-3.5
 20
-141.52271687500502
 30
0.0
 10
-3.5
 20
-140.0
 30
0.0
  0
LINE
  5
38
330
17
100
AcDbEntity
  8
VISIBLE
100
AcDbLine
 10
3.5
 20
0.0
 30
0.0
 11
-3.5
 21
0.0
 31
0.0
  0
LINE
  5
39
330
17
100
AcDbEntity
  8
VISIBLE
100
AcDbLine
 10
3.5
 20
-140.0
 30
0.0
 11
-3.5
 21
-140.0
 31
0.0
  0
LINE
  5
3A
330
17
100
AcDbEntity
  8
VISIBLE
100
AcDbLine
 10
-3.5
 20
13.6
 30
0.0
 11
3.5
 21
13.6
 31
0.0
  0
LINE
  5
3B
330
17
100
AcDbEntity
  8
VISIBLE
100
AcDbLine
 10
-3.5
 20
-153.6
 30
0.0
 11
3.5
 21
-153.6
 31
0.0
  0
SPLINE
  5
3C
330
17
100
AcDbEntity
  8
HIDDEN
100
AcDbSpline
 70
0
 71
1
 72
17
 73
15
 74
0
 40
0.0
 40
0.0
 40
0.07142857142857142
 40
0.14285714285714285
 40
0.21428571428571427
 40
0.2857142857142857
 40
0.35714285714285715
 40
0.42857142857142855
 40
0.5
 40
0.5714285714285714
 40
0.6428571428571429
 40
0.7142857142857143
 40
0.7857142857142857
 40
0.8571428571428571
 40
0.9285714285714286
 40
1.0
 40
1.0
 10
3.5
 20
13.6
 30
0.0
 10
3.5
 20
13.514486054548097
 30
0.0
 10
3.5
 20
13.259019605672801
 30
0.0
 10
3.5
 20
12.8368132921938
 30
0.0
 10
3.5
 20
12.253176603472902
 30
0.0
 10
3.5
 20
11.515449109504665
 30
0.0
 10
3.5
 20
10.632908161565206
 30
0.0
 10
3.5
 20
9.616652224137047
 30
0.0
 10
3.5
 20
8.479461305278777
 30
0.0
 10
3.5
 20
7.235636240608579
 30
0.0
 10
3.5
 20
5.900818851998792
 30
0.0
 10
3.5
 20
4.491795242590274
 30
0.0
 10
3.5
 20
3.026284701805878
 30
0.0
 10
3.5
 20
1.5227168750049884
 30
0.0
 10
3.5
 20
1.6653345369377348e-15
 30
0.0
  0
SPLINE
  5
3D
330
17
100
AcDbEntity
  8
HIDDEN
100
AcDbSpline
 70
0
 71
1
 72
17
 73
15
 74
0
 40
0.0
 40
0.0
 40
0.07142857142857142
 40
0.14285714285714285
 40
0.21428571428571427
 40
0.2857142857142857
 40
0.35714285714285715
 40
0.42857142857142855
 40
0.5
 40
0.5714285714285714
 40
0.6428571428571429
 40
0.7142857142857143
 40
0.7857142857142857
 40
0.8571428571428571
 40
0.9285714285714286
 40
1.0
 40
1.0
 10
-3.5
 20
13.6
 30
0.0
 10
-3.5
 20
13.514486054548097
 30
0.0
 10
-3.5
 20
13.259019605672801
 30
0.0
 10
-3.5
 20
12.8368132921938
 30
0.0
 10
-3.5
 20
12.253176603472902
 30
0.0
 10
-3.5
 20
11.515449109504665
 30
0.0
 10
-3.5
 20
10.632908161565206
 30
0.0
 10
-3.5
 20
9.616652224137047
 30
0.0
 10
-3.5
 20
8.479461305278777
 30
0.0
 10
-3.5
 20
7.235636240608579
 30
0.0
 10
-3.5
 20
5.900818851998792
 30
0.0
 10
-3.5
 20
4.491795242590274
 30
0.0
 10
-3.5
 20
3.026284701805878
 30
0.0
 10
-3.5
 20
1.5227168750049884
 30
0.0
 10
-3.5
 20
1.6653345369377348e-15
 30
0.0
  0
LINE
  5
3E
330
17
100
AcDbEntity
  8
HIDDEN
100
AcDbLine
 10
3.5
 20
-140.0
 30
0.0
 11
3.5
 21
0.0
 31
0.0
  0
LINE
  5
3F
330
17
100
AcDbEntity
  8
HIDDEN
100
AcDbLine
 10
-3.5
 20
-140.0
 30
0.0
 11
-3.5
 21
0.0
 31
0.0
  0
SPLINE
  5
40
330
17
100
AcDbEntity
  8
HIDDEN
100
AcDbSpline
 70
0
 71
1
 72
17
 73
15
 74
0
 40
0.0
 40
0.0
 40
0.07142857142857142
 40
0.14285714285714285
 40
0.21428571428571427
 40
0.2857142857142857
 40
0.35714285714285715
 40
0.42857142857142855
 40
0.5
 40
0.5714285714285714
 40
0.6428571428571429
 40
0.7142857142857143
 40
0.7857142857142857
 40
0.8571428571428571
 40
0.9285714285714286
 40
1.0
 40
1.0
 10
3.5
 20
-140.0
 30
0.0
 10
3.5
 20
-141.52271687500496
 30
0.0
 10
3.5
 20
-143.02628470180588
 30
0.0
 10
3.5
 20
-144.49179524259023
 30
0.0
 10
3.5
 20
-145.9008188519988
 30
0.0
 10
3.5
 20
-147.23563624060859
 30
0.0
 10
3.5
 20
-148.47946130527873
 30
0.0
 10
3.5
 20
-149.61665222413706
 30
0.0
 10
3.5
 20
-150.6329081615652
 30
0.0
 10
3.5
 20
-151.51544910950466
 30
0.0
 10
3.5
 20
-152.2531766034729
 30
0.0
 10
3.5
 20
-152.83681329219377
 30
0.0
 10
3.5
 20
-153.2590196056728
 30
0.0
 10
3.5
 20
-153.5144860545481
 30
0.0
 10
3.5
 20
-153.6
 30
0.0
  0
SPLINE
  5
41
330
17
100
AcDbEntity
  8
HIDDEN
100
AcDbSpline
 70
0
 71
1
 72
17
 73
15
 74
0
 40
0.0
 40
0.0
 40
0.07142857142857142
 40
0.14285714285714285
 40
0.21428571428571427
 40
0.2857142857142857
 40
0.35714285714285715
 40
0.42857142857142855
 40
0.5
 40
0.5714285714285714
 40
0.6428571428571429
 40
0.7142857142857143
 40
0.7857142857142857
 40
0.8571428571428571
 40
0.9285714285714286
 40
1.0
 40
1.0
 10
-3.5
 20
-140.0
 30
0.0
 10
-3.5
 20
-141.52271687500496
 30
0.0
 10
-3.5
 20
-143.02628470180588
 30
0.0
 10
-3.5
 20
-144.49179524259023
 30
0.0
 10
-3.5
 20
-145.9008188519988
 30
0.0
 10
-3.5
 20
-147.23563624060859
 30
0.0
 10
-3.5
 20
-148.47946130527873
 30
0.0
 10
-3.5
 20
-149.61665222413706
 30
0.0
 10
-3.5
 20
-150.6329081615652
 30
0.0
 10
-3.5
 20
-151.51544910950466
 30
0.0
 10
-3.5
 20
-152.2531766034729
 30
0.0
 10
-3.5
 20
-152.83681329219377
 30
0.0
 10
-3.5
 20
-153.2590196056728
 30
0.0
 10
-3.5
 20
-153.5144860545481
 30
0.0
 10
-3.5
 20
-153.6
 30
0.0
  0
SPLINE
  5
42
330
17
100
AcDbEntity
  8
HIDDEN
100
AcDbSpline
 70
0
 71
1
 72
17
 73
15
 74
0
 40
0.0
 40
0.0
 40
0.1121997376282069
 40
0.2243994752564138
 40
0.3365992128846207
 40
0.4487989505128276
 40
0.5609986881410345
 40
0.6731984257692414
 40
0.7853981633974483
 40
0.8975979010256552
 40
1.009797638653862
 40
1.121997376282069
 40
1.2341971139102759
 40
1.3463968515384828
 40
1.4585965891666897
 40
1.5707963267948966
 40
1.5707963267948966
 10
3.5
 20
-140.0
 30
0.0
 10
3.5
 20
-139.44017761948345
 30
0.0
 10
3.5
 20
-138.88739533021842
 30
0.0
 10
3.5
 20
-138.34860469022416
 30
0.0
 10
3.5
 20
-137.83058130441225
 30
0.0
 10
3.5
 20
-137.3398396174233
 30
0.0
 10
3.5
 20
-136.88255099070633
 30
0.0
 10
3.5
 20
-136.46446609406726
 30
0.0
 10
3.5
 20
-136.09084258765986
 30
0.0
 10
3.5
 20
-135.76637900385862
 30
0.0
 10
3.5
 20
-135.4951556604879
 30
0.0
 10
3.5
 20
-135.28058334845815
 30
0.0
 10
3.5
 20
-135.12536043909088
 30
0.0
 10
3.5
 20
-135.0314389505338
 30
0.0
 10
3.5
 20
-135.0
 30
0.0
  0
SPLINE
  5
43
330
17
100
AcDbEntity
  8
HIDDEN
100
AcDbSpline
 70
0
 71
1
 72
17
 73
15
 74
0
 40
0.0
 40
0.0
 40
0.07142857142857142
 40
0.14285714285714285
 40
0.21428571428571427
 40
0.2857142857142857
 40
0.35714285714285715
 40
0.42857142857142855
 40
0.5
 40
0.5714285714285714
 40
0.6428571428571429
 40
0.7142857142857143
 40
0.7857142857142857
 40
0.8571428571428571
 40
0.9285714285714286
 40
1.0
 40
1.0
 10
3.5
 20
-135.0
 30
0.0
 10
3.5
 20
-135.1253604390909
 30
0.0
 10
3.5
 20
-135.4951556604879
 30
0.0
 10
3.5
 20
-136.09084258765986
 30
0.0
 10
3.5
 20
-136.88255099070633
 30
0.0
 10
3.5
 20
-137.83058130441222
 30
0.0
 10
3.5
 20
-138.8873953302184
 30
0.0
 10
3.5
 20
-140.0
 30
0.0
 10
3.5
 20
-141.11260466978158
 30
0.0
 10
3.5
 20
-142.16941869558778
 30
0.0
 10
3.5
 20
-143.11744900929367
 30
0.0
 10
3.5
 20
-143.9091574123401
 30
0.0
 10
3.5
 20
-144.5048443395121
 30
0.0
 10
3.5
 20
-144.87463956090915
 30
0.0
 10
3.5
 20
-145.0
 30
0.0
  0
SPLINE
  5
44
330
17
100
AcDbEntity
  8
HIDDEN
100
AcDbSpline
 70
0
 71
2
 72
30
 73
27
 74
0
 40
0.0
 40
0.0
 40
0.0
 40
0.07142857142857142
 40
0.07142857142857142
 40
0.14285714285714285
 40
0.14285714285714285
 40
0.21428571428571427
 40
0.21428571428571427
 40
0.2857142857142857
 40
0.2857142857142857
 40
0.35714285714285715
 40
0.35714285714285715
 40
0.42857142857142855
 40
0.42857142857142855
 40
0.5
 40
0.5
 40
0.5714285714285714
 40
0.5714285714285714
 40
0.6428571428571429
 40
0.6428571428571429
 40
0.7142857142857143
 40
0.7142857142857143
 40
0.7857142857142857
 40
0.7857142857142857
 40
0.8571428571428571
 40
0.8571428571428571
 40
1.0
 40
1.0
 40
1.0
 10
3.5
 20
-145.0
 30
0.0
 10
3.499999999999999
 20
-144.98428052473307
 30
0.0
 10
3.5
 20
-144.96856104946622
 30
0.0
 10
3.5000000000000004
 20
-144.92160030518767
 30
0.0
 10
3.5
 20
-144.8746395609091
 30
0.0
 10
3.499999999999999
 20
-144.79702810622544
 30
0.0
 10
3.5
 20
-144.71941665154185
 30
0.0
 10
3.5000000000000004
 20
-144.61213049552697
 30
0.0
 10
3.5
 20
-144.5048443395121
 30
0.0
 10
3.499999999999999
 20
-144.3692326678267
 30
0.0
 10
3.5
 20
-144.2336209961414
 30
0.0
 10
3.5000000000000004
 20
-144.07138920424077
 30
0.0
 10
3.5
 20
-143.90915741234014
 30
0.0
 10
3.499999999999999
 20
-143.7223456591364
 30
0.0
 10
3.5
 20
-143.53553390593274
 30
0.0
 10
3.5000000000000004
 20
-143.32649145761323
 30
0.0
 10
3.5
 20
-143.11744900929364
 30
0.0
 10
3.499999999999999
 20
-142.88880469593516
 30
0.0
 10
3.5
 20
-142.6601603825767
 30
0.0
 10
3.5000000000000004
 20
-142.41478953908222
 30
0.0
 10
3.5
 20
-142.16941869558778
 30
0.0
 10
3.499999999999999
 20
-141.9104070026818
 30
0.0
 10
3.5
 20
-141.65139530977584
 30
0.0
 10
3.5000000000000004
 20
-141.3819999897787
 30
0.0
 10
3.5
 20
-141.11260466978158
 30
0.0
 10
3.5
 20
-140.56179655425956
 30
0.0
 10
3.5
 20
-140.0
 30
0.0
  0
SPLINE
  5
45
330
17
100
AcDbEntity
  8
HIDDEN
100
AcDbSpline
 70
0
 71
1
 72
17
 73
15
 74
0
 40
0.0
 40
0.0
 40
0.1121997376282069
 40
0.2243994752564138
 40
0.3365992128846207
 40
0.4487989505128276
 40
0.5609986881410345
 40
0.6731984257692414
 40
0.7853981633974483
 40
0.8975979010256552
 40
1.009797638653862
 40
1.121997376282069
 40
1.2341971139102759
 40
1.3463968515384828
 40
1.4585965891666897
 40
1.5707963267948966
 40
1.5707963267948966
 10
-3.5
 20
-140.0
 30
0.0
 10
-3.5
 20
-139.44017761948345
 30
0.0
 10
-3.5
 20
-138.88739533021842
 30
0.0
 10
-3.5
 20
-138.34860469022416
 30
0.0
 10
-3.5
 20
-137.83058130441225
 30
0.0
 10
-3.5
 20
-137.3398396174233
 30
0.0
 10
-3.5
 20
-136.88255099070633
 30
0.0
 10
-3.5
 20
-136.46446609406726
 30
0.0
 10
-3.5
 20
-136.09084258765986
 30
0.0
 10
-3.5
 20
-135.76637900385862
 30
0.0
 10
-3.5
 20
-135.4951556604879
 30
0.0
 10
-3.5
 20
-135.28058334845815
 30
0.0
 10
-3.5
 20
-135.12536043909088
 30
0.0
 10
-3.5
 20
-135.0314389505338
 30
0.0
 10
-3.5
 20
-135.0
 30
0.0
  0
SPLINE
  5
46
330
17
100
AcDbEntity
  8
HIDDEN
100
AcDbSpline
 70
0
 71
1
 72
17
 73
15
 74
0
 40
0.0
 40
0.0
 40
0.07142857142857142
 40
0.14285714285714285
 40
0.21428571428571427
 40
0.2857142857142857
 40
0.35714285714285715
 40
0.42857142857142855
 40
0.5
 40
0.5714285714285714
 40
0.6428571428571429
 40
0.7142857142857143
 40
0.7857142857142857
 40
0.8571428571428571
 40
0.9285714285714286
 40
1.0
 40
1.0
 10
-3.5
 20
-135.0
 30
0.0
 10
-3.5
 20
-135.1253604390909
 30
0.0
 10
-3.5
 20
-135.4951556604879
 30
0.0
 10
-3.5
 20
-136.09084258765986
 30
0.0
 10
-3.5
 20
-136.88255099070633
 30
0.0
 10
-3.5
 20
-137.83058130441222
 30
0.0
 10
-3.5
 20
-138.8873953302184
 30
0.0
 10
-3.5
 20
-140.0
 30
0.0
 10
-3.5
 20
-141.11260466978158
 30
0.0
 10
-3.5
 20
-142.16941869558778
 30
0.0
 10
-3.5
 20
-143.11744900929367
 30
0.0
 10
-3.5
 20
-143.9091574123401
 30
0.0
 10
-3.5
 20
-144.5048443395121
 30
0.0
 10
-3.5
 20
-144.87463956090915
 30
0.0
 10
-3.5
 20
-145.0
 30
0.0
  0
SPLINE
  5
47
330
17
100
AcDbEntity
  8
HIDDEN
100
AcDbSpline
 70
0
 71
2
 72
30
 73
27
 74
0
 40
0.0
 40
0.0
 40
0.0
 40
0.07142857142857142
 40
0.07142857142857142
 40
0.14285714285714285
 40
0.14285714285714285
 40
0.21428571428571427
 40
0.21428571428571427
 40
0.2857142857142857
 40
0.2857142857142857
 40
0.35714285714285715
 40
0.35714285714285715
 40
0.42857142857142855
 40
0.42857142857142855
 40
0.5
 40
0.5
 40
0.5714285714285714
 40
0.5714285714285714
 40
0.6428571428571429
 40
0.6428571428571429
 40
0.7142857142857143
 40
0.7142857142857143
 40
0.7857142857142857
 40
0.7857142857142857
 40
0.8571428571428571
 40
0.8571428571428571
 40
1.0
 40
1.0
 40
1.0
 10
-3.5
 20
-145.0
 30
0.0
 10
-3.499999999999999
 20
-144.98428052473307
 30
0.0
 10
-3.5
 20
-144.96856104946622
 30
0.0
 10
-3.5000000000000004
 20
-144.92160030518767
 30
0.0
 10
-3.5
 20
-144.8746395609091
 30
0.0
 10
-3.499999999999999
 20
-144.79702810622544
 30
0.0
 10
-3.5
 20
-144.71941665154185
 30
0.0
 10
-3.5000000000000004
 20
-144.61213049552697
 30
0.0
 10
-3.5
 20
-144.5048443395121
 30
0.0
 10
-3.499999999999999
 20
-144.3692326678267
 30
0.0
 10
-3.5
 20
-144.2336209961414
 30
0.0
 10
-3.5000000000000004
 20
-144.07138920424077
 30
0.0
 10
-3.5
 20
-143.90915741234014
 30
0.0
 10
-3.499999999999999
 20
-143.7223456591364
 30
0.0
 10
-3.5
 20
-143.53553390593274
 30
0.0
 10
-3.5000000000000004
 20
-143.32649145761323
 30
0.0
 10
-3.5
 20
-143.11744900929364
 30
0.0
 10
-3.499999999999999
 20
-142.88880469593516
 30
0.0
 10
-3.5
 20
-142.6601603825767
 30
0.0
 10
-3.5000000000000004
 20
-142.41478953908222
 30
0.0
 10
-3.5
 20
-142.16941869558778
 30
0.0
 10
-3.499999999999999
 20
-141.9104070026818
 30
0.0
 10
-3.5
 20
-141.65139530977584
 30
0.0
 10
-3.5000000000000004
 20
-141.3819999897787
 30
0.0
 10
-3.5
 20
-141.11260466978158
 30
0.0
 10
-3.5
 20
-140.56179655425956
 30
0.0
 10
-3.5
 20
-140.0
 30
0.0
  0
SPLINE
  5
48
330
17
100
AcDbEntity
  8
HIDDEN
100
AcDbSpline
 70
0
 71
1
 72
17
 73
15
 74
0
 40
0.0
 40
0.0
 40
0.1121997376282069
 40
0.2243994752564138
 40
0.3365992128846207
 40
0.4487989505128276
 40
0.5609986881410345
 40
0.6731984257692414
 40
0.7853981633974483
 40
0.8975979010256552
 40
1.009797638653862
 40
1.121997376282069
 40
1.2341971139102759
 40
1.3463968515384828
 40
1.4585965891666897
 40
1.5707963267948966
 40
1.5707963267948966
 10
3.5
 20
0.0
 30
0.0
 10
3.5
 20
0.5598223805165394
 30
0.0
 10
3.5
 20
1.1126046697815717
 30
0.0
 10
3.5
 20
1.6513953097758352
 30
0.0
 10
3.5
 20
2.1694186955877903
 30
0.0
 10
3.5
 20
2.6601603825766826
 30
0.0
 10
3.5
 20
3.1174490092936673
 30
0.0
 10
3.5
 20
3.535533905932737
 30
0.0
 10
3.5
 20
3.9091574123401487
 30
0.0
 10
3.5
 20
4.23362099614142
 30
0.0
 10
3.5
 20
4.504844339512097
 30
0.0
 10
3.5
 20
4.719416651541838
 30
0.0
 10
3.5
 20
4.874639560909118
 30
0.0
 10
3.5
 20
4.968561049466214
 30
0.0
 10
3.5
 20
5.0
 30
0.0
  0
SPLINE
  5
49
330
17
100
AcDbEntity
  8
HIDDEN
100
AcDbSpline
 70
0
 71
1
 72
17
 73
15
 74
0
 40
0.0
 40
0.0
 40
0.07142857142857142
 40
0.14285714285714285
 40
0.21428571428571427
 40
0.2857142857142857
 40
0.35714285714285715
 40
0.42857142857142855
 40
0.5
 40
0.5714285714285714
 40
0.6428571428571429
 40
0.7142857142857143
 40
0.7857142857142857
 40
0.8571428571428571
 40
0.9285714285714286
 40
1.0
 40
1.0
 10
3.5
 20
5.0
 30
0.0
 10
3.5
 20
4.874639560909118
 30
0.0
 10
3.5
 20
4.504844339512096
 30
0.0
 10
3.5
 20
3.909157412340149
 30
0.0
 10
3.5
 20
3.1174490092936677
 30
0.0
 10
3.5
 20
2.169418695587791
 30
0.0
 10
3.5
 20
1.1126046697815726
 30
0.0
 10
3.5
 20
6.661338147750939e-16
 30
0.0
 10
3.5
 20
-1.1126046697815712
 30
0.0
 10
3.5
 20
-2.1694186955877903
 30
0.0
 10
3.5
 20
-3.117449009293667
 30
0.0
 10
3.5
 20
-3.9091574123401482
 30
0.0
 10
3.5
 20
-4.504844339512095
 30
0.0
 10
3.5
 20
-4.874639560909118
 30
0.0
 10
3.5
 20
-5.0
 30
0.0
  0
SPLINE
  5
4A
330
17
100
AcDbEntity
  8
HIDDEN
100
AcDbSpline
 70
0
 71
2
 72
30
 73
27
 74
0
 40
0.0
 40
0.0
 40
0.0
 40
0.07142857142857142
 40
0.07142857142857142
 40
0.14285714285714285
 40
0.14285714285714285
 40
0.21428571428571427
 40
0.21428571428571427
 40
0.2857142857142857
 40
0.2857142857142857
 40
0.35714285714285715
 40
0.35714285714285715
 40
0.42857142857142855
 40
0.42857142857142855
 40
0.5
 40
0.5
 40
0.5714285714285714
 40
0.5714285714285714
 40
0.6428571428571429
 40
0.6428571428571429
 40
0.7142857142857143
 40
0.7142857142857143
 40
0.7857142857142857
 40
0.7857142857142857
 40
0.8571428571428571
 40
0.8571428571428571
 40
1.0
 40
1.0
 40
1.0
 10
3.5
 20
-5.0
 30
0.0
 10
3.499999999999999
 20
-4.984280524733107
 30
0.0
 10
3.5
 20
-4.968561049466212
 30
0.0
 10
3.5000000000000004
 20
-4.921600305187666
 30
0.0
 10
3.5
 20
-4.874639560909118
 30
0.0
 10
3.499999999999999
 20
-4.797028106225478
 30
0.0
 10
3.5
 20
-4.719416651541838
 30
0.0
 10
3.5000000000000004
 20
-4.6121304955269675
 30
0.0
 10
3.5
 20
-4.504844339512096
 30
0.0
 10
3.499999999999999
 20
-4.369232667826758
 30
0.0
 10
3.5
 20
-4.233620996141421
 30
0.0
 10
3.5000000000000004
 20
-4.071389204240786
 30
0.0
 10
3.5
 20
-3.909157412340149
 30
0.0
 10
3.499999999999999
 20
-3.722345659136443
 30
0.0
 10
3.5
 20
-3.5355339059327386
 30
0.0
 10
3.5000000000000004
 20
-3.326491457613203
 30
0.0
 10
3.5
 20
-3.1174490092936686
 30
0.0
 10
3.499999999999999
 20
-2.8888046959351765
 30
0.0
 10
3.5
 20
-2.660160382576684
 30
0.0
 10
3.5000000000000004
 20
-2.414789539082238
 30
0.0
 10
3.5
 20
-2.1694186955877917
 30
0.0
 10
3.499999999999999
 20
-1.9104070026818136
 30
0.0
 10
3.5
 20
-1.6513953097758365
 30
0.0
 10
3.5000000000000004
 20
-1.3819999897787045
 30
0.0
 10
3.5
 20
-1.112604669781573
 30
0.0
 10
3.5
 20
-0.5617965542595897
 30
0.0
 10
3.5
 20
-1.2212453270876722e-15
 30
0.0
  0
SPLINE
  5
4B
330
17
100
AcDbEntity
  8
HIDDEN
100
AcDbSpline
 70
0
 71
1
 72
17
 73
15
 74
0
 40
0.0
 40
0.0
 40
0.1121997376282069
 40
0.2243994752564138
 40
0.3365992128846207
 40
0.4487989505128276
 40
0.5609986881410345
 40
0.6731984257692414
 40
0.7853981633974483
 40
0.8975979010256552
 40
1.009797638653862
 40
1.121997376282069
 40
1.2341971139102759
 40
1.3463968515384828
 40
1.4585965891666897
 40
1.5707963267948966
 40
1.5707963267948966
 10
-3.5
 20
0.0
 30
0.0
 10
-3.5
 20
0.5598223805165394
 30
0.0
 10
-3.5
 20
1.1126046697815717
 30
0.0
 10
-3.5
 20
1.6513953097758352
 30
0.0
 10
-3.5
 20
2.1694186955877903
 30
0.0
 10
-3.5
 20
2.6601603825766826
 30
0.0
 10
-3.5
 20
3.1174490092936673
 30
0.0
 10
-3.5
 20
3.535533905932737
 30
0.0
 10
-3.5
 20
3.9091574123401487
 30
0.0
 10
-3.5
 20
4.23362099614142
 30
0.0
 10
-3.5
 20
4.504844339512097
 30
0.0
 10
-3.5
 20
4.719416651541838
 30
0.0
 10
-3.5
 20
4.874639560909118
 30
0.0
 10
-3.5
 20
4.968561049466214
 30
0.0
 10
-3.5
 20
5.0
 30
0.0
  0
SPLINE
  5
4C
330
17
100
AcDbEntity
  8
HIDDEN
100
AcDbSpline
 70
0
 71
1
 72
17
 73
15
 74
0
 40
0.0
 40
0.0
 40
0.07142857142857142
 40
0.14285714285714285
 40
0.21428571428571427
 40
0.2857142857142857
 40
0.35714285714285715
 40
0.42857142857142855
 40
0.5
 40
0.5714285714285714
 40
0.6428571428571429
 40
0.7142857142857143
 40
0.7857142857142857
 40
0.8571428571428571
 40
0.9285714285714286
 40
1.0
 40
1.0
 10
-3.5
 20
5.0
 30
0.0
 10
-3.5
 20
4.874639560909118
 30
0.0
 10
-3.5
 20
4.504844339512096
 30
0.0
 10
-3.5
 20
3.909157412340149
 30
0.0
 10
-3.5
 20
3.1174490092936677
 30
0.0
 10
-3.5
 20
2.169418695587791
 30
0.0
 10
-3.5
 20
1.1126046697815726
 30
0.0
 10
-3.5
 20
6.661338147750939e-16
 30
0.0
 10
-3.5
 20
-1.1126046697815712
 30
0.0
 10
-3.5
 20
-2.1694186955877903
 30
0.0
 10
-3.5
 20
-3.117449009293667
 30
0.0
 10
-3.5
 20
-3.9091574123401482
 30
0.0
 10
-3.5
 20
-4.504844339512095
 30
0.0
 10
-3.5
 20
-4.874639560909118
 30
0.0
 10
-3.5
 20
-5.0
 30
0.0
  0
SPLINE
  5
4D
330
17
100
AcDbEntity
  8
HIDDEN
100
AcDbSpline
 70
0
 71
2
 72
30
 73
27
 74
0
 40
0.0
 40
0.0
 40
0.0
 40
0.07142857142857142
 40
0.07142857142857142
 40
0.14285714285714285
 40
0.14285714285714285
 40
0.21428571428571427
 40
0.21428571428571427
 40
0.2857142857142857
 40
0.2857142857142857
 40
0.35714285714285715
 40
0.35714285714285715
 40
0.42857142857142855
 40
0.42857142857142855
 40
0.5
 40
0.5
 40
0.5714285714285714
 40
0.5714285714285714
 40
0.6428571428571429
 40
0.6428571428571429
 40
0.7142857142857143
 40
0.7142857142857143
 40
0.7857142857142857
 40
0.7857142857142857
 40
0.8571428571428571
 40
0.8571428571428571
 40
1.0
 40
1.0
 40
1.0
 10
-3.5
 20
-5.0
 30
0.0
 10
-3.499999999999999
 20
-4.984280524733107
 30
0.0
 10
-3.5
 20
-4.968561049466212
 30
0.0
 10
-3.5000000000000004
 20
-4.921600305187666
 30
0.0
 10
-3.5
 20
-4.874639560909118
 30
0.0
 10
-3.499999999999999
 20
-4.797028106225478
 30
0.0
 10
-3.5
 20
-4.719416651541838
 30
0.0
 10
-3.5000000000000004
 20
-4.6121304955269675
 30
0.0
 10
-3.5
 20
-4.504844339512096
 30
0.0
 10
-3.499999999999999
 20
-4.369232667826758
 30
0.0
 10
-3.5
 20
-4.233620996141421
 30
0.0
 10
-3.5000000000000004
 20
-4.071389204240786
 30
0.0
 10
-3.5
 20
-3.909157412340149
 30
0.0
 10
-3.499999999999999
 20
-3.722345659136443
 30
0.0
 10
-3.5
 20
-3.5355339059327386
 30
0.0
 10
-3.5000000000000004
 20
-3.326491457613203
 30
0.0
 10
-3.5
 20
-3.1174490092936686
 30
0.0
 10
-3.499999999999999
 20
-2.8888046959351765
 30
0.0
 10
-3.5
 20
-2.660160382576684
 30
0.0
 10
-3.5000000000000004
 20
-2.414789539082238
 30
0.0
 10
-3.5
 20
-2.1694186955877917
 30
0.0
 10
-3.499999999999999
 20
-1.9104070026818136
 30
0.0
 10
-3.5
 20
-1.6513953097758365
 30
0.0
 10
-3.5000000000000004
 20
-1.3819999897787045
 30
0.0
 10
-3.5
 20
-1.112604669781573
 30
0.0
 10
-3.5
 20
-0.5617965542595897
 30
0.0
 10
-3.5
 20
-1.2212453270876722e-15
 30
0.0
  0
LINE
  5
4E
330
17
100
AcDbEntity
  8
HIDDEN
100
AcDbLine
 10
-3.5
 20
-145.0
 30
0.0
 11
3.5
 21
-145.0
 31
0.0
  0
LINE
  5
4F
330
17
100
AcDbEntity
  8
HIDDEN
100
AcDbLine
 10
-3.5
 20
-135.0
 30
0.0
 11
3.5
 21
-135.0
 31
0.0
  0
LINE
  5
50
330
17
100
AcDbEntity
  8
HIDDEN
100
AcDbLine
 10
-3.5
 20
-5.0
 30
0.0
 11
3.5
 21
-5.0
 31
0.0
  0
LINE
  5
51
330
17
100
AcDbEntity
  8
HIDDEN
100
AcDbLine
 10
-3.5
 20
5.0
 30
0.0
 11
3.5
 21
5.0
 31
0.0
  0
LINE
  5
52
330
17
100
AcDbEntity
  8
HIDDEN
100
AcDbLine
 10
3.5
 20
0.0
 30
0.0
 11
-3.5
 21
0.0
 31
0.0
  0
LINE
  5
53
330
17
100
AcDbEntity
  8
HIDDEN
100
AcDbLine
 10
3.5
 20
-140.0
 30
0.0
 11
-3.5
 21
-140.0
 31
0.0
  0
ENDSEC
  0
SECTION
  2
OBJECTS
  0
DICTIONARY
  5
A
330
0
100
AcDbDictionary
281
1
  3
ACAD_COLOR
350
B
  3
ACAD_GROUP
350
C
  3
ACAD_LAYOUT
350
D
  3
ACAD_MATERIAL
350
E
  3
ACAD_MLEADERSTYLE
350
F
  3
ACAD_MLINESTYLE
350
10
  3
ACAD_PLOTSETTINGS
350
11
  3
ACAD_PLOTSTYLENAME
350
12
  3
ACAD_SCALELIST
350
14
  3
ACAD_TABLESTYLE
350
15
  3
ACAD_VISUALSTYLE
350
16
  3
EZDXF_META
350
2D
  0
DICTIONARY
  5
B
330
A
100
AcDbDictionary
281
1
  0
DICTIONARY
  5
C
330
A
100
AcDbDictionary
281
1
  0
DICTIONARY
  5
D
330
A
100
AcDbDictionary
281
1
  3
Model
350
1A
  3
Layout1
350
1E
  0
DICTIONARY
  5
E
330
A
100
AcDbDictionary
281
1
  3
ByBlock
350
1F
  3
ByLayer
350
20
  3
Global
350
21
  0
DICTIONARY
  5
F
330
A
100
AcDbDictionary
281
1
  3
Standard
350
2C
  0
DICTIONARY
  5
10
330
A
100
AcDbDictionary
281
1
  3
Standard
350
22
  0
DICTIONARY
  5
11
330
A
100
AcDbDictionary
281
1
  0
ACDBDICTIONARYWDFLT
  5
12
330
A
100
AcDbDictionary
281
1
  3
Normal
350
13
100
AcDbDictionaryWithDefault
340
13
  0
ACDBPLACEHOLDER
  5
13
330
12
  0
DICTIONARY
  5
14
330
A
100
AcDbDictionary
281
1
  0
DICTIONARY
  5
15
330
A
100
AcDbDictionary
281
1
  0
DICTIONARY
  5
16
330
A
100
AcDbDictionary
281
1
  0
LAYOUT
  5
1A
330
D
100
AcDbPlotSettings
  1

  4
A3
  6

 40
7.5
 41
20.0
 42
7.5
 43
20.0
 44
420.0
 45
297.0
 46
0.0
 47
0.0
 48
0.0
 49
0.0
140
0.0
141
0.0
142
1.0
143
1.0
 70
1024
 72
1
 73
0
 74
5
  7

 75
16
 76
0
 77
2
 78
300
147
1.0
148
0.0
149
0.0
100
AcDbLayout
  1
Model
 70
1
 71
0
 10
0.0
 20
0.0
 11
420.0
 21
297.0
 12
0.0
 22
0.0
 32
0.0
 14
1e+20
 24
1e+20
 34
1e+20
 15
-1e+20
 25
-1e+20
 35
-1e+20
146
0.0
 13
0.0
 23
0.0
 33
0.0
 16
1.0
 26
0.0
 36
0.0
 17
0.0
 27
1.0
 37
0.0
 76
1
330
17
  0
LAYOUT
  5
1E
330
D
100
AcDbPlotSettings
  1

  4
A3
  6

 40
7.5
 41
20.0
 42
7.5
 43
20.0
 44
420.0
 45
297.0
 46
0.0
 47
0.0
 48
0.0
 49
0.0
140
0.0
141
0.0
142
1.0
143
1.0
 70
0
 72
1
 73
0
 74
5
  7

 75
16
 76
0
 77
2
 78
300
147
1.0
148
0.0
149
0.0
100
AcDbLayout
  1
Layout1
 70
1
 71
1
 10
0.0
 20
0.0
 11
420.0
 21
297.0
 12
0.0
 22
0.0
 32
0.0
 14
1e+20
 24
1e+20
 34
1e+20
 15
-1e+20
 25
-1e+20
 35
-1e+20
146
0.0
 13
0.0
 23
0.0
 33
0.0
 16
1.0
 26
0.0
 36
0.0
 17
0.0
 27
1.0
 37
0.0
 76
1
330
1B
  0
MATERIAL
  5
1F
102
{ACAD_REACTORS
330
E
102
}
330
E
100
AcDbMaterial
  1
ByBlock
  2

 70
0
 40
1.0
 71
1
 41
1.0
 91
-1023410177
 42
1.0
 72
1
  3

 73
1
 74
1
 75
1
 44
0.5
 73
0
 45
1.0
 46
1.0
 77
1
  4

 78
1
 79
1
170
1
 48
1.0
171
1
  6

172
1
173
1
174
1
140
1.0
141
1.0
175
1
  7

176
1
177
1
178
1
143
1.0
179
1
  8

270
1
271
1
272
1
145
1.0
146
1.0
273
1
  9

274
1
275
1
276
1
 42
1.0
 72
1
  3

 73
1
 74
1
 75
1
 94
63
  0
MATERIAL
  5
20
102
{ACAD_REACTORS
330
E
102
}
330
E
100
AcDbMaterial
  1
ByLayer
  2

 70
0
 40
1.0
 71
1
 41
1.0
 91
-1023410177
 42
1.0
 72
1
  3

 73
1
 74
1
 75
1
 44
0.5
 73
0
 45
1.0
 46
1.0
 77
1
  4

 78
1
 79
1
170
1
 48
1.0
171
1
  6

172
1
173
1
174
1
140
1.0
141
1.0
175
1
  7

176
1
177
1
178
1
143
1.0
179
1
  8

270
1
271
1
272
1
145
1.0
146
1.0
273
1
  9

274
1
275
1
276
1
 42
1.0
 72
1
  3

 73
1
 74
1
 75
1
 94
63
  0
MATERIAL
  5
21
102
{ACAD_REACTORS
330
E
102
}
330
E
100
AcDbMaterial
  1
Global
  2

 70
0
 40
1.0
 71
1
 41
1.0
 91
-1023410177
 42
1.0
 72
1
  3

 73
1
 74
1
 75
1
 44
0.5
 73
0
 45
1.0
 46
1.0
 77
1
  4

 78
1
 79
1
170
1
 48
1.0
171
1
  6

172
1
173
1
174
1
140
1.0
141
1.0
175
1
  7

176
1
177
1
178
1
143
1.0
179
1
  8

270
1
271
1
272
1
145
1.0
146
1.0
273
1
  9

274
1
275
1
276
1
 42
1.0
 72
1
  3

 73
1
 74
1
 75
1
 94
63
  0
MLINESTYLE
  5
22
102
{ACAD_REACTORS
330
10
102
}
330
10
100
AcDbMlineStyle
  2
Standard
 70
0
  3

 62
256
 51
90.0
 52
90.0
 71
2
 49
0.5
 62
256
  6
BYLAYER
 49
-0.5
 62
256
  6
BYLAYER
  0
MLEADERSTYLE
  5
2C
102
{ACAD_REACTORS
330
F
102
}
330
F
100
AcDbMLeaderStyle
179
2
170
2
171
1
172
0
 90
2
 40
0.0
 41
0.0
173
1
 91
-1056964608
 92
-2
290
1
 42
2.0
291
1
 43
8.0
  3
Standard
 44
4.0
300

342
29
174
1
175
1
176
0
178
1
 93
-1056964608
 45
4.0
292
0
297
0
 46
4.0
 94
-1056964608
 47
1.0
 49
1.0
140
1.0
294
1
141
0.0
177
0
142
1.0
295
0
296
0
143
3.75
271
0
272
9
273
9
  0
DICTIONARY
  5
2D
330
A
100
AcDbDictionary
280
1
281
1
  3
CREATED_BY_EZDXF
350
2E
  3
WRITTEN_BY_EZDXF
350
57
  0
DICTIONARYVAR
  5
2E
330
2D
100
DictionaryVariables
280
0
  1
1.4.4 @ 2026-10-08T06:25:56.002662+00:00
  0
DICTIONARYVAR
  5
57
330
2D
100
DictionaryVariables
280
0
  1
1.4.4 @ 2026-10-08T06:25:56.155197+00:00
  0
ENDSEC
  0
EOF
