  0
SECTION
  2
HEADER
  9
$ACADVER
  1
AC1027
  9
$ACADMAINTVER
 70
105
  9
$DWGCODEPAGE
  3
ANSI_1252
  9
$LASTSAVEDBY
  1
ezdxf
  9
$REQUIREDVERSIONS
160
0
  9
$INSBASE
 10
0.0
 20
0.0
 30
0.0
  9
$EXTMIN
 10
1e+20
 20
1e+20
 30
1e+20
  9
$EXTMAX
 10
-1e+20
 20
-1e+20
 30
-1e+20
  9
$LIMMIN
 10
0.0
 20
0.0
  9
$LIMMAX
 10
420.0
 20
297.0
  9
$ORTHOMODE
 70
0
  9
$REGENMODE
 70
1
  9
$FILLMODE
 70
1
  9
$QTEXTMODE
 70
0
  9
$MIRRTEXT
 70
1
  9
$LTSCALE
 40
1.0
  9
$ATTMODE
 70
1
  9
$TEXTSIZE
 40
2.5
  9
$TRACEWID
 40
1.0
  9
$TEXTSTYLE
  7
Standard
  9
$CLAYER
  8
0
  9
$CELTYPE
  6
ByLayer
  9
$CECOLOR
 62
256
  9
$CELTSCALE
 40
1.0
  9
$DISPSILH
 70
0
  9
$DIMSCALE
 40
1.0
  9
$DIMASZ
 40
2.5
  9
$DIMEXO
 40
0.625
  9
$DIMDLI
 40
3.75
  9
$DIMRND
 40
0.0
  9
$DIMDLE
 40
0.0
  9
$DIMEXE
 40
1.25
  9
$DIMTP
 40
0.0
  9
$DIMTM
 40
0.0
  9
$DIMTXT
 40
2.5
  9
$DIMCEN
 40
2.5
  9
$DIMTSZ
 40
0.0
  9
$DIMTOL
 70
0
  9
$DIMLIM
 70
0
  9
$DIMTIH
 70
0
  9
$DIMTOH
 70
0
  9
$DIMSE1
 70
0
  9
$DIMSE2
 70
0
  9
$DIMTAD
 70
1
  9
$DIMZIN
 70
8
  9
$DIMBLK
  1

  9
$DIMASO
 70
1
  9
$DIMSHO
 70
1
  9
$DIMPOST
  1

  9
$DIMAPOST
  1

  9
$DIMALT
 70
0
  9
$DIMALTD
 70
3
  9
$DIMALTF
 40
0.03937007874
  9
$DIMLFAC
 40
1.0
  9
$DIMTOFL
 70
1
  9
$DIMTVP
 40
0.0
  9
$DIMTIX
 70
0
  9
$DIMSOXD
 70
0
  9
$DIMSAH
 70
0
  9
$DIMBLK1
  1

  9
$DIMBLK2
  1

  9
$DIMSTYLE
  2
ISO-25
  9
$DIMCLRD
 70
0
  9
$DIMCLRE
 70
0
  9
$DIMCLRT
 70
0
  9
$DIMTFAC
 40
1.0
  9
$DIMGAP
 40
0.625
  9
$DIMJUST
 70
0
  9
$DIMSD1
 70
0
  9
$DIMSD2
 70
0
  9
$DIMTOLJ
 70
0
  9
$DIMTZIN
 70
8
  9
$DIMALTZ
 70
0
  9
$DIMALTTZ
 70
0
  9
$DIMUPT
 70
0
  9
$DIMDEC
 70
2
  9
$DIMTDEC
 70
2
  9
$DIMALTU
 70
2
  9
$DIMALTTD
 70
3
  9
$DIMTXSTY
  7
Standard
  9
$DIMAUNIT
 70
0
  9
$DIMADEC
 70
0
  9
$DIMALTRND
 40
0.0
  9
$DIMAZIN
 70
0
  9
$DIMDSEP
 70
44
  9
$DIMATFIT
 70
3
  9
$DIMFRAC
 70
0
  9
$DIMLDRBLK
  1

  9
$DIMLUNIT
 70
2
  9
$DIMLWD
 70
-2
  9
$DIMLWE
 70
-2
  9
$DIMTMOVE
 70
0
  9
$DIMFXL
 40
1.0
  9
$DIMFXLON
 70
0
  9
$DIMJOGANG
 40
0.785398163397
  9
$DIMTFILL
 70
0
  9
$DIMTFILLCLR
 70
0
  9
$DIMARCSYM
 70
0
  9
$DIMLTYPE
  6

  9
$DIMLTEX1
  6

  9
$DIMLTEX2
  6

  9
$DIMTXTDIRECTION
 70
0
  9
$LUNITS
 70
2
  9
$LUPREC
 70
4
  9
$SKETCHINC
 40
1.0
  9
$FILLETRAD
 40
10.0
  9
$AUNITS
 70
0
  9
$AUPREC
 70
2
  9
$MENU
  1
.
  9
$ELEVATION
 40
0.0
  9
$PELEVATION
 40
0.0
  9
$THICKNESS
 40
0.0
  9
$LIMCHECK
 70
0
  9
$CHAMFERA
 40
0.0
  9
$CHAMFERB
 40
0.0
  9
$CHAMFERC
 40
0.0
  9
$CHAMFERD
 40
0.0
  9
$SKPOLY
 70
0
  9
$TDCREATE
 40
2461321.697662037
  9
$TDUCREATE
 40
2458532.153996898
  9
$TDUPDATE
 40
2461321.697662037
  9
$TDUUPDATE
 40
2458532.1544311
  9
$TDINDWG
 40
0.0
  9
$TDUSRTIMER
 40
0.0
  9
$USRTIMER
 70
1
  9
$ANGBASE
 50
0.0
  9
$ANGDIR
 70
0
  9
$PDMODE
 70
0
  9
$PDSIZE
 40
0.0
  9
$PLINEWID
 40
0.0
  9
$SPLFRAME
 70
0
  9
$SPLINETYPE
 70
6
  9
$SPLINESEGS
 70
8
  9
$HANDSEED
  5
87
  9
$SURFTAB1
 70
6
  9
$SURFTAB2
 70
6
  9
$SURFTYPE
 70
6
  9
$SURFU
 70
6
  9
$SURFV
 70
6
  9
$UCSBASE
  2

  9
$UCSNAME
  2

  9
$UCSORG
 10
0.0
 20
0.0
 30
0.0
  9
$UCSXDIR
 10
1.0
 20
0.0
 30
0.0
  9
$UCSYDIR
 10
0.0
 20
1.0
 30
0.0
  9
$UCSORTHOREF
  2

  9
$UCSORTHOVIEW
 70
0
  9
$UCSORGTOP
 10
0.0
 20
0.0
 30
0.0
  9
$UCSORGBOTTOM
 10
0.0
 20
0.0
 30
0.0
  9
$UCSORGLEFT
 10
0.0
 20
0.0
 30
0.0
  9
$UCSORGRIGHT
 10
0.0
 20
0.0
 30
0.0
  9
$UCSORGFRONT
 10
0.0
 20
0.0
 30
0.0
  9
$UCSORGBACK
 10
0.0
 20
0.0
 30
0.0
  9
$PUCSBASE
  2

  9
$PUCSNAME
  2

  9
$PUCSORG
 10
0.0
 20
0.0
 30
0.0
  9
$PUCSXDIR
 10
1.0
 20
0.0
 30
0.0
  9
$PUCSYDIR
 10
0.0
 20
1.0
 30
0.0
  9
$PUCSORTHOREF
  2

  9
$PUCSORTHOVIEW
 70
0
  9
$PUCSORGTOP
 10
0.0
 20
0.0
 30
0.0
  9
$PUCSORGBOTTOM
 10
0.0
 20
0.0
 30
0.0
  9
$PUCSORGLEFT
 10
0.0
 20
0.0
 30
0.0
  9
$PUCSORGRIGHT
 10
0.0
 20
0.0
 30
0.0
  9
$PUCSORGFRONT
 10
0.0
 20
0.0
 30
0.0
  9
$PUCSORGBACK
 10
0.0
 20
0.0
 30
0.0
  9
$USERI1
 70
0
  9
$USERI2
 70
0
  9
$USERI3
 70
0
  9
$USERI4
 70
0
  9
$USERI5
 70
0
  9
$USERR1
 40
0.0
  9
$USERR2
 40
0.0
  9
$USERR3
 40
0.0
  9
$USERR4
 40
0.0
  9
$USERR5
 40
0.0
  9
$WORLDVIEW
 70
1
  9
$SHADEDGE
 70
3
  9
$SHADEDIF
 70
70
  9
$TILEMODE
 70
1
  9
$MAXACTVP
 70
64
  9
$PINSBASE
 10
0.0
 20
0.0
 30
0.0
  9
$PLIMCHECK
 70
0
  9
$PEXTMIN
 10
1e+20
 20
1e+20
 30
1e+20
  9
$PEXTMAX
 10
-1e+20
 20
-1e+20
 30
-1e+20
  9
$PLIMMIN
 10
0.0
 20
0.0
  9
$PLIMMAX
 10
420.0
 20
297.0
  9
$UNITMODE
 70
0
  9
$VISRETAIN
 70
1
  9
$PLINEGEN
 70
0
  9
$PSLTSCALE
 70
1
  9
$TREEDEPTH
 70
3020
  9
$CMLSTYLE
  2
Standard
  9
$CMLJUST
 70
0
  9
$CMLSCALE
 40
20.0
  9
$PROXYGRAPHICS
 70
1
  9
$MEASUREMENT
 70
1
  9
$CELWEIGHT
370
-1
  9
$ENDCAPS
280
0
  9
$JOINSTYLE
280
0
  9
$LWDISPLAY
290
0
  9
$INSUNITS
 70
4
  9
$HYPERLINKBASE
  1

  9
$STYLESHEET
  1

  9
$XEDIT
290
1
  9
$CEPSNTYPE
380
0
  9
$PSTYLEMODE
290
1
  9
$FINGERPRINTGUID
  2
{2686A12F-09E2-43F0-A25D-1404217E5D59}
  9
$VERSIONGUID
  2
{B6532537-3F20-4E01-82E4-2C6F98ED5CD2}
  9
$EXTNAMES
290
1
  9
$PSVPSCALE
 40
0.0
  9
$OLESTARTUP
290
0
  9
$SORTENTS
280
127
  9
$INDEXCTL
280
0
  9
$HIDETEXT
280
1
  9
$XCLIPFRAME
280
1
  9
$HALOGAP
280
0
  9
$OBSCOLOR
 70
257
  9
$OBSLTYPE
280
0
  9
$INTERSECTIONDISPLAY
280
0
  9
$INTERSECTIONCOLOR
 70
257
  9
$DIMASSOC
280
2
  9
$PROJECTNAME
  1

  9
$CAMERADISPLAY
290
0
  9
$LENSLENGTH
 40
50.0
  9
$CAMERAHEIGHT
 40
0.0
  9
$STEPSPERSEC
 40
24.0
  9
$STEPSIZE
 40
100.0
  9
$3DDWFPREC
 40
2.0
  9
$PSOLWIDTH
 40
0.005
  9
$PSOLHEIGHT
 40
0.08
  9
$LOFTANG1
 40
1.570796326795
  9
$LOFTANG2
 40
1.570796326795
  9
$LOFTMAG1
 40
0.0
  9
$LOFTMAG2
 40
0.0
  9
$LOFTPARAM
 70
7
  9
$LOFTNORMALS
280
1
  9
$LATITUDE
 40
37.795
  9
$LONGITUDE
 40
-122.394
  9
$NORTHDIRECTION
 40
0.0
  9
$TIMEZONE
 70
-8000
  9
$LIGHTGLYPHDISPLAY
280
1
  9
$TILEMODELIGHTSYNCH
280
1
  9
$CMATERIAL
347
20
  9
$SOLIDHIST
280
0
  9
$SHOWHIST
280
1
  9
$DWFFRAME
280
2
  9
$DGNFRAME
280
2
  9
$REALWORLDSCALE
290
1
  9
$INTERFERECOLOR
 62
256
  9
$CSHADOW
280
0
  9
$SHADOWPLANELOCATION
 40
0.0
  0
ENDSEC
  0
SECTION
  2
CLASSES
  0
CLASS
  1
ACDBDICTIONARYWDFLT
  2
AcDbDictionaryWithDefault
  3
ObjectDBX Classes
 90
0
 91
0
280
0
281
0
  0
CLASS
  1
SUN
  2
AcDbSun
  3
SCENEOE
 90
1153
 91
0
280
0
281
0
  0
CLASS
  1
VISUALSTYLE
  2
AcDbVisualStyle
  3
ObjectDBX Classes
 90
4095
 91
0
280
0
281
0
  0
CLASS
  1
MATERIAL
  2
AcDbMaterial
  3
ObjectDBX Classes
 90
1153
 91
0
280
0
281
0
  0
CLASS
  1
SCALE
  2
AcDbScale
  3
ObjectDBX Classes
 90
1153
 91
0
280
0
281
0
  0
CLASS
  1
TABLESTYLE
  2
AcDbTableStyle
  3
ObjectDBX Classes
 90
4095
 91
0
280
0
281
0
  0
CLASS
  1
MLEADERSTYLE
  2
AcDbMLeaderStyle
  3
ACDB_MLEADERSTYLE_CLASS
 90
4095
 91
0
280
0
281
0
  0
CLASS
  1
DICTIONARYVAR
  2
AcDbDictionaryVar
  3
ObjectDBX Classes
 90
0
 91
0
280
0
281
0
  0
CLASS
  1
CELLSTYLEMAP
  2
AcDbCellStyleMap
  3
ObjectDBX Classes
 90
1152
 91
0
280
0
281
0
  0
CLASS
  1
MENTALRAYRENDERSETTINGS
  2
AcDbMentalRayRenderSettings
  3
SCENEOE
 90
1024
 91
0
280
0
281
0
  0
CLASS
  1
ACDBDETAILVIEWSTYLE
  2
AcDbDetailViewStyle
  3
ObjectDBX Classes
 90
1025
 91
0
280
0
281
0
  0
CLASS
  1
ACDBSECTIONVIEWSTYLE
  2
AcDbSectionViewStyle
  3
ObjectDBX Classes
 90
1025
 91
0
280
0
281
0
  0
CLASS
  1
RASTERVARIABLES
  2
AcDbRasterVariables
  3
ISM
 90
0
 91
0
280
0
281
0
  0
CLASS
  1
ACDBPLACEHOLDER
  2
AcDbPlaceHolder
  3
ObjectDBX Classes
 90
0
 91
0
280
0
281
0
  0
CLASS
  1
LAYOUT
  2
AcDbLayout
  3
ObjectDBX Classes
 90
0
 91
0
280
0
281
0
  0
ENDSEC
  0
SECTION
  2
TABLES
  0
TABLE
  2
VPORT
  5
8
330
0
100
AcDbSymbolTable
 70
1
  0
VPORT
  5
83
330
8
100
AcDbSymbolTableRecord
100
AcDbViewportTableRecord
  2
*Active
 70
0
 10
0.0
 20
0.0
 11
1.0
 21
1.0
 12
-1.942641603136508e-10
 22
-55.00000000000006
 13
0.0
 23
0.0
 14
0.5
 24
0.5
 15
0.5
 25
0.5
 16
0.0
 26
0.0
 36
1.0
 17
0.0
 27
0.0
 37
0.0
 40
146.0000000000001
 41
1.34
 42
50.0
 43
0.0
 44
0.0
 50
0.0
 51
0.0
 71
0
 72
1000
 73
1
 74
3
 75
0
 76
0
 77
0
 78
0
281
0
 65
1
110
0.0
120
0.0
130
0.0
111
1.0
121
0.0
131
0.0
112
0.0
122
1.0
132
0.0
 79
0
146
0.0
  0
ENDTAB
  0
TABLE
  2
LTYPE
  5
2
330
0
100
AcDbSymbolTable
 70
4
  0
LTYPE
  5
24
330
2
100
AcDbSymbolTableRecord
100
AcDbLinetypeTableRecord
  2
ByBlock
 70
0
  3

 72
65
 73
0
 40
0.0
  0
LTYPE
  5
25
330
2
100
AcDbSymbolTableRecord
100
AcDbLinetypeTableRecord
  2
ByLayer
 70
0
  3

 72
65
 73
0
 40
0.0
  0
LTYPE
  5
26
330
2
100
AcDbSymbolTableRecord
100
AcDbLinetypeTableRecord
  2
Continuous
 70
0
  3

 72
65
 73
0
 40
0.0
  0
LTYPE
  5
30
330
2
100
AcDbSymbolTableRecord
100
AcDbLinetypeTableRecord
  2
ACAD_ISO02W100
 70
0
  3
ISO dash __ __ __ __ __ __ __ __ __ __ __ __ __
 72
65
 73
2
 40
15.0
 49
12.0
 74
0
 49
-3.0
 74
0
  0
ENDTAB
  0
TABLE
  2
LAYER
  5
1
330
0
100
AcDbSymbolTable
 70
4
  0
LAYER
  5
27
330
1
100
AcDbSymbolTableRecord
100
AcDbLayerTableRecord
  2
0
 70
0
 62
7
  6
Continuous
370
-3
390
13
347
21
  0
LAYER
  5
28
330
1
100
AcDbSymbolTableRecord
100
AcDbLayerTableRecord
  2
Defpoints
 70
0
 62
7
  6
Continuous
290
0
370
-3
390
13
347
21
  0
LAYER
  5
2F
330
1
100
AcDbSymbolTableRecord
100
AcDbLayerTableRecord
  2
VISIBLE
 70
0
 62
7
  6
Continuous
370
25
390
13
347
21
  0
LAYER
  5
31
330
1
100
AcDbSymbolTableRecord
100
AcDbLayerTableRecord
  2
HIDDEN
 70
0
 62
7
  6
ACAD_ISO02W100
370
13
390
13
347
21
  0
ENDTAB
  0
TABLE
  2
STYLE
  5
5
330
0
100
AcDbSymbolTable
 70
1
  0
STYLE
  5
29
330
5
100
AcDbSymbolTableRecord
100
AcDbTextStyleTableRecord
  2
Standard
 70
0
 40
0.0
 41
1.0
 50
0.0
 71
0
 42
2.5
  3
txt
  4

  0
ENDTAB
  0
TABLE
  2
VIEW
  5
7
330
0
100
AcDbSymbolTable
 70
0
  0
ENDTAB
  0
TABLE
  2
UCS
  5
6
330
0
100
AcDbSymbolTable
 70
0
  0
ENDTAB
  0
TABLE
  2
APPID
  5
3
330
0
100
AcDbSymbolTable
 70
3
  0
APPID
  5
2A
330
3
100
AcDbSymbolTableRecord
100
AcDbRegAppTableRecord
  2
ACAD
 70
0
  0
APPID
  5
84
330
3
100
AcDbSymbolTableRecord
100
AcDbRegAppTableRecord
  2
HATCHBACKGROUNDCOLOR
 70
0
  0
APPID
  5
85
330
3
100
AcDbSymbolTableRecord
100
AcDbRegAppTableRecord
  2
EZDXF
 70
0
  0
ENDTAB
  0
TABLE
  2
DIMSTYLE
  5
4
330
0
100
AcDbSymbolTable
 70
1
100
AcDbDimStyleTable
  0
DIMSTYLE
105
2B
330
4
100
AcDbSymbolTableRecord
100
AcDbDimStyleTableRecord
  2
Standard
 70
0
 40
1.0
 41
2.5
 42
0.625
 43
3.75
 44
1.25
 45
0.0
 46
0.0
 47
0.0
 48
0.0
 49
2.5
140
2.5
141
2.5
142
0.0
143
0.03937007874
144
1.0
145
0.0
146
1.0
147
0.625
148
0.0
 69
0
 70
0
 71
0
 72
0
 73
0
 74
0
 75
0
 76
0
 77
1
 78
8
 79
3
170
0
171
3
172
1
173
0
174
0
175
0
176
0
177
0
178
0
179
2
271
2
272
2
273
2
274
3
275
0
276
0
277
2
278
44
279
0
280
0
281
0
282
0
283
0
284
8
285
0
286
0
288
0
289
3
290
0
371
-2
372
-2
  0
ENDTAB
  0
TABLE
  2
BLOCK_RECORD
  5
9
330
0
100
AcDbSymbolTable
 70
2
  0
BLOCK_RECORD
  5
17
330
9
100
AcDbSymbolTableRecord
100
AcDbBlockTableRecord
  2
*Model_Space
340
1A
 70
0
280
1
281
0
  0
BLOCK_RECORD
  5
1B
330
9
100
AcDbSymbolTableRecord
100
AcDbBlockTableRecord
  2
*Paper_Space
340
1E
 70
0
280
1
281
0
  0
ENDTAB
  0
ENDSEC
  0
SECTION
  2
BLOCKS
  0
BLOCK
  5
18
330
17
100
AcDbEntity
  8
0
100
AcDbBlockBegin
  2
*Model_Space
 70
0
 10
0.0
 20
0.0
 30
0.0
  3
*Model_Space
  1

  0
ENDBLK
  5
19
330
17
100
AcDbEntity
  8
0
100
AcDbBlockEnd
  0
BLOCK
  5
1C
330
1B
100
AcDbEntity
  8
0
100
AcDbBlockBegin
  2
*Paper_Space
 70
0
 10
0.0
 20
0.0
 30
0.0
  3
*Paper_Space
  1

  0
ENDBLK
  5
1D
330
1B
100
AcDbEntity
  8
0
100
AcDbBlockEnd
  0
ENDSEC
  0
SECTION
  2
ENTITIES
  0
SPLINE
  5
32
330
17
100
AcDbEntity
  8
VISIBLE
100
AcDbSpline
 70
0
 71
3
 72
14
 73
10
 74
0
 40
0.0
 40
0.0
 40
0.0
 40
0.0
 40
0.12500000003142975
 40
0.12500000003142975
 40
0.12500000003142975
 40
0.18750000004714462
 40
0.18750000004714462
 40
0.18750000004714462
 40
0.2500000000628595
 40
0.2500000000628595
 40
0.2500000000628595
 40
0.2500000000628595
 10
8.881784197001252e-15
 20
18.0
 30
0.0
 10
2.6216470310460944
 20
17.999999999999993
 30
0.0
 10
5.224787200711662
 20
18.0
 30
0.0
 10
7.071067813260518
 20
18.0
 30
0.0
 10
7.9972433628115125
 20
17.999999999999993
 30
0.0
 10
8.738462796506191
 20
18.0
 30
0.0
 10
9.238795335568838
 20
18.0
 30
0.0
 10
9.740414859513672
 20
17.999999999999993
 30
0.0
 10
10.000696495009324
 20
18.0
 30
0.0
 10
9.999999985121681
 20
18.0
 30
0.0
  0
SPLINE
  5
33
330
17
100
AcDbEntity
  8
VISIBLE
100
AcDbSpline
 70
0
 71
3
 72
14
 73
10
 74
0
 40
0.0
 40
0.0
 40
0.0
 40
0.0
 40
0.24999999999999978
 40
0.24999999999999978
 40
0.24999999999999978
 40
0.5
 40
0.5
 40
0.5
 40
1.0
 40
1.0
 40
1.0
 40
1.0
 10
-9.999999985121685
 20
18.0
 30
0.0
 10
-10.000696495009258
 20
18.000000000000014
 30
0.0
 10
-9.740414859513544
 20
17.999999999999993
 30
0.0
 10
-9.238795335568836
 20
18.0
 30
0.0
 10
-8.738462796506054
 20
18.0
 30
0.0
 10
-7.9972433628114326
 20
18.0
 30
0.0
 10
-7.071067813260577
 20
17.999999999999996
 30
0.0
 10
-5.224787200712352
 20
17.99999999999999
 30
0.0
 10
-2.621647031044627
 20
18.000000000000007
 30
0.0
 10
-1.2878587085651816e-14
 20
18.0
 30
0.0
  0
SPLINE
  5
34
330
17
100
AcDbEntity
  8
VISIBLE
100
AcDbSpline
 70
0
 71
3
 72
17
 73
13
 74
0
 40
0.0
 40
0.0
 40
0.0
 40
0.0
 40
0.4866471348398394
 40
0.4866471348398394
 40
0.4866471348398394
 40
0.6291453986323846
 40
0.6291453986323846
 40
0.6291453986323846
 40
0.8262137648482111
 40
0.8262137648482111
 40
0.8262137648482111
 40
1.0
 40
1.0
 40
1.0
 40
1.0
 10
-3.5
 20
-4.634379810483765
 30
0.0
 10
-3.148120298597066
 20
-5.994398218686382
 30
0.0
 10
-2.757070630182782
 20
-7.348451252152801
 30
0.0
 10
-2.226296478951711
 20
-8.650703797916293
 30
0.0
 10
-2.071351147974959
 20
-9.032415596005283
 30
0.0
 10
-1.8972099527250146
 20
-9.405111306970515
 30
0.0
 10
-1.7038728932018767
 20
-9.768790930811964
 30
0.0
 10
-1.4332361594068483
 20
-10.270843507063853
 30
0.0
 10
-1.16076522815859
 20
-10.654141572899027
 30
0.0
 10
-0.8864600994571082
 20
-10.918685128317517
 30
0.0
 10
-0.648267952764929
 20
-11.149232693739219
 30
0.0
 10
-0.34251342638677484
 20
-11.345801651070383
 30
0.0
 10
-5.417888360170764e-14
 20
-11.344914637490106
 30
0.0
  0
SPLINE
  5
35
330
17
100
AcDbEntity
  8
VISIBLE
100
AcDbSpline
 70
0
 71
3
 72
11
 73
7
 74
0
 40
0.0
 40
0.0
 40
0.0
 40
0.0
 40
0.4906249626892014
 40
0.4906249626892014
 40
0.4906249626892014
 40
0.9437407017854901
 40
0.9437407017854901
 40
0.9437407017854901
 40
0.9437407017854901
 10
-3.5
 20
-4.634379810483736
 30
0.0
 10
-3.4999999999999987
 20
-24.270737453299873
 30
0.0
 10
-3.4999999999999996
 20
-44.16252766819609
 30
0.0
 10
-3.5
 20
-64.08504141219406
 30
0.0
 10
-3.4999999999999987
 20
-82.48721057077888
 30
0.0
 10
-3.4999999999999996
 20
-100.89174866624379
 30
0.0
 10
-3.5
 20
-119.18577623720356
 30
0.0
  0
SPLINE
  5
36
330
17
100
AcDbEntity
  8
VISIBLE
100
AcDbSpline
 70
0
 71
3
 72
14
 73
10
 74
0
 40
0.0
 40
0.0
 40
0.0
 40
0.0
 40
0.30926946708639447
 40
0.30926946708639447
 40
0.30926946708639447
 40
0.6185389341727888
 40
0.6185389341727888
 40
0.6185389341727888
 40
1.0
 40
1.0
 40
1.0
 40
1.0
 10
-3.4999999999999996
 20
-119.18577623840874
 30
0.0
 10
-3.2201490223108213
 20
-118.80234897253122
 30
0.0
 10
-2.9178054041404233
 20
-118.43557967182502
 30
0.0
 10
-2.5929691454887966
 20
-118.08546833628992
 30
0.0
 10
-2.2671117805472254
 20
-117.73916197630355
 30
0.0
 10
-1.9159120649241952
 20
-117.4181461032265
 30
0.0
 10
-1.5332560538021516
 20
-117.16224382761014
 30
0.0
 10
-1.0627139090272
 20
-116.84584102362396
 30
0.0
 10
-0.5361578003731851
 20
-116.63837589226378
 30
0.0
 10
-5.46229728115577e-14
 20
-116.64084944913566
 30
0.0
  0
SPLINE
  5
37
330
17
100
AcDbEntity
  8
VISIBLE
100
AcDbSpline
 70
0
 71
3
 72
14
 73
10
 74
0
 40
0.0
 40
0.0
 40
0.0
 40
0.0
 40
0.12500000003142986
 40
0.12500000003142986
 40
0.12500000003142986
 40
0.1875000000471448
 40
0.1875000000471448
 40
0.1875000000471448
 40
0.2500000000628597
 40
0.2500000000628597
 40
0.2500000000628597
 40
0.2500000000628597
 10
-3.1086244689504383e-15
 20
-128.0
 30
0.0
 10
1.8351529217320965
 20
-127.99999999999993
 30
0.0
 10
3.657351040498261
 20
-128.0
 30
0.0
 10
4.949747469282366
 20
-128.0
 30
0.0
 10
5.598070353968058
 20
-127.99999999999996
 30
0.0
 10
6.11692395755433
 20
-128.00000000000003
 30
0.0
 10
6.467156734898184
 20
-128.0
 30
0.0
 10
6.820581764968546
 20
-127.99999999999994
 30
0.0
 10
6.99819618319755
 20
-128.00000000000006
 30
0.0
 10
6.999999989585179
 20
-128.0
 30
0.0
  0
SPLINE
  5
38
330
17
100
AcDbEntity
  8
VISIBLE
100
AcDbSpline
 70
0
 71
3
 72
14
 73
10
 74
0
 40
0.0
 40
0.0
 40
0.0
 40
0.0
 40
0.2500000000000001
 40
0.2500000000000001
 40
0.2500000000000001
 40
0.4999999999999998
 40
0.4999999999999998
 40
0.4999999999999998
 40
1.0
 40
1.0
 40
1.0
 40
1.0
 10
-6.999999989585181
 20
-128.0
 30
0.0
 10
-6.998196183197523
 20
-127.99999999999996
 30
0.0
 10
-6.820581764968522
 20
-128.00000000000003
 30
0.0
 10
-6.467156734898173
 20
-128.0
 30
0.0
 10
-6.1169239575543015
 20
-128.0
 30
0.0
 10
-5.598070353967986
 20
-128.00000000000003
 30
0.0
 10
-4.949747469282384
 20
-128.0
 30
0.0
 10
-3.657351040498581
 20
-127.99999999999991
 30
0.0
 10
-1.8351529217314764
 20
-128.00000000000003
 30
0.0
 10
-2.6645352591003757e-15
 20
-128.0
 30
0.0
  0
SPLINE
  5
39
330
17
100
AcDbEntity
  8
VISIBLE
100
AcDbSpline
 70
0
 71
3
 72
11
 73
7
 74
0
 40
0.0
 40
0.0
 40
0.0
 40
0.0
 40
0.386354944955441
 40
0.386354944955441
 40
0.386354944955441
 40
0.9999997797852771
 40
0.9999997797852771
 40
0.9999997797852771
 40
0.9999997797852771
 10
5.10702591327572e-15
 20
-116.64084944913566
 30
0.0
 10
0.5431013024803161
 20
-116.63829547078547
 30
0.0
 10
1.0760786968692009
 20
-116.85127683554447
 30
0.0
 10
1.5513947163069683
 20
-117.17441821948965
 30
0.0
 10
2.308642256333159
 20
-117.69176059045985
 30
0.0
 10
2.94276437021948
 20
-118.4360724969824
 30
0.0
 10
3.5000000000000013
 20
-119.18577623840888
 30
0.0
  0
SPLINE
  5
3A
330
17
100
AcDbEntity
  8
VISIBLE
100
AcDbSpline
 70
0
 71
3
 72
11
 73
7
 74
0
 40
0.0
 40
0.0
 40
0.0
 40
0.0
 40
0.4906249626884864
 40
0.4906249626884864
 40
0.4906249626884864
 40
0.9437407017850333
 40
0.9437407017850333
 40
0.9437407017850333
 40
0.9437407017850333
 10
3.5
 20
-4.634379810483551
 30
0.0
 10
3.4999999999999987
 20
-24.27073745342238
 30
0.0
 10
3.5
 20
-44.16252766844365
 30
0.0
 10
3.499999999999999
 20
-64.08504141256607
 30
0.0
 10
3.4999999999999987
 20
-82.48721057104557
 30
0.0
 10
3.500000000000001
 20
-100.89174866639215
 30
0.0
 10
3.5
 20
-119.1857762372037
 30
0.0
  0
SPLINE
  5
3B
330
17
100
AcDbEntity
  8
VISIBLE
100
AcDbSpline
 70
0
 71
3
 72
17
 73
13
 74
0
 40
0.0
 40
0.0
 40
0.0
 40
0.0
 40
0.48664713483999605
 40
0.48664713483999605
 40
0.48664713483999605
 40
0.6291453986325031
 40
0.6291453986325031
 40
0.6291453986325031
 40
0.8262137648483173
 40
0.8262137648483173
 40
0.8262137648483173
 40
1.0
 40
1.0
 40
1.0
 40
1.0
 10
3.5
 20
-4.634379810483566
 30
0.0
 10
3.1481202985969055
 20
-5.994398218686889
 30
0.0
 10
2.7570706301826333
 20
-7.348451252153373
 30
0.0
 10
2.2262964789516606
 20
-8.650703797916323
 30
0.0
 10
2.0713511479749425
 20
-9.032415596005315
 30
0.0
 10
1.8972099527250008
 20
-9.40511130697047
 30
0.0
 10
1.7038728932018434
 20
-9.76879093081185
 30
0.0
 10
1.433236159406856
 20
-10.270843507063535
 30
0.0
 10
1.1607652281585852
 20
-10.654141572898538
 30
0.0
 10
0.8864600994570332
 20
-10.918685128316834
 30
0.0
 10
0.6482679527647985
 20
-11.149232693738426
 30
0.0
 10
0.3425134263866277
 20
-11.345801651069268
 30
0.0
 10
1.1546319456101628e-14
 20
-11.344914637489296
 30
0.0
  0
SPLINE
  5
3C
330
17
100
AcDbEntity
  8
VISIBLE
100
AcDbSpline
 70
0
 71
3
 72
14
 73
10
 74
0
 40
0.0
 40
0.0
 40
0.0
 40
0.0
 40
1.0
 40
1.0
 40
1.0
 40
2.3482820463097953
 40
2.3482820463097953
 40
2.3482820463097953
 40
2.756837977132996
 40
2.756837977132996
 40
2.756837977132996
 40
2.756837977132996
 10
9.596811899848642
 20
-3.9968028886505635e-15
 30
0.0
 10
9.613697820728198
 20
1.149412318098465
 30
0.0
 10
9.712311033246724
 20
2.2892289941463377
 30
0.0
 10
9.835089977921042
 20
3.243256098047315
 30
0.0
 10
10.002088898142283
 20
4.534637763855161
 30
0.0
 10
10.197826094615634
 20
5.484173552445148
 30
0.0
 10
10.313818047954848
 20
5.836889325291738
 30
0.0
 10
10.34977633136389
 20
5.945340549471988
 30
0.0
 10
10.379436746686222
 20
5.999710776949746
 30
0.0
 10
10.402799293921824
 20
6.000000007725002
 30
0.0
  0
SPLINE
  5
3D
330
17
100
AcDbEntity
  8
VISIBLE
100
AcDbSpline
 70
0
 71
2
 72
6
 73
3
 74
0
 40
0.0
 40
0.0
 40
0.0
 40
1.0
 40
1.0
 40
1.0
 10
10.402799293921824
 20
6.000000007725001
 30
0.0
 10
10.4585415777786
 20
5.9981696676890355
 30
0.0
 10
10.470703670231089
 20
5.568059716427759
 30
0.0
  0
SPLINE
  5
3E
330
17
100
AcDbEntity
  8
VISIBLE
100
AcDbSpline
 70
0
 71
3
 72
14
 73
10
 74
0
 40
0.0
 40
0.0
 40
0.0
 40
0.0
 40
0.3176495761906093
 40
0.3176495761906093
 40
0.3176495761906093
 40
0.5549909513506053
 40
0.5549909513506053
 40
0.5549909513506053
 40
1.0
 40
1.0
 40
1.0
 40
1.0
 10
10.470703670231089
 20
5.56805971642776
 30
0.0
 10
10.486700520728126
 20
5.077617874299913
 30
0.0
 10
10.46952701453433
 20
4.164927845773404
 30
0.0
 10
10.474482387125185
 20
3.018383699482608
 30
0.0
 10
10.477508382707175
 20
2.1639136144788482
 30
0.0
 10
10.494297548123775
 20
1.184411570019576
 30
0.0
 10
10.529494609477254
 20
0.19682332883115716
 30
0.0
 10
10.59153098062912
 20
-1.6588941659062626
 30
0.0
 10
10.727977943977951
 20
-3.5157100637806105
 30
0.0
 10
10.756529748212134
 20
-4.673317444554974
 30
0.0
  0
SPLINE
  5
3F
330
17
100
AcDbEntity
  8
VISIBLE
100
AcDbSpline
 70
0
 71
3
 72
8
 73
4
 74
0
 40
0.0
 40
0.0
 40
0.0
 40
0.0
 40
1.0
 40
1.0
 40
1.0
 40
1.0
 10
10.756529748212136
 20
-4.673317444554977
 30
0.0
 10
10.778633298783545
 20
-5.530019257919865
 30
0.0
 10
10.728749954750516
 20
-6.004548728894589
 30
0.0
 10
10.59219491156592
 20
-6.000000004956483
 30
0.0
  0
SPLINE
  5
40
330
17
100
AcDbEntity
  8
VISIBLE
100
AcDbSpline
 70
0
 71
3
 72
11
 73
7
 74
0
 40
0.0
 40
0.0
 40
0.0
 40
0.0
 40
0.5549315024989999
 40
0.5549315024989999
 40
0.5549315024989999
 40
1.0
 40
1.0
 40
1.0
 40
1.0
 10
10.592194911565922
 20
-6.000000004956482
 30
0.0
 10
10.420961167419124
 20
-6.005499997905034
 30
0.0
 10
10.106145639563636
 20
-5.212507767064573
 30
0.0
 10
9.87304819320923
 20
-3.8847850277656097
 30
0.0
 10
9.684476046534632
 20
-2.8271414205910035
 30
0.0
 10
9.571161152334481
 20
-1.419939599141749
 30
0.0
 10
9.596811899848642
 20
-3.552713678800501e-15
 30
0.0
  0
SPLINE
  5
41
330
17
100
AcDbEntity
  8
VISIBLE
100
AcDbSpline
 70
0
 71
3
 72
14
 73
10
 74
0
 40
0.0
 40
0.0
 40
0.0
 40
0.0
 40
0.23339203830238853
 40
0.23339203830238853
 40
0.23339203830238853
 40
0.5521096137016455
 40
0.5521096137016455
 40
0.5521096137016455
 40
0.6655762832345685
 40
0.6655762832345685
 40
0.6655762832345685
 40
0.6655762832345685
 10
-9.59681189984865
 20
-1.5543122344752192e-15
 30
0.0
 10
-9.578019052066791
 20
-1.1170225133059979
 30
0.0
 10
-9.640780671318629
 20
-2.2313332752473123
 30
0.0
 10
-9.764155503267608
 20
-3.166971531810429
 30
0.0
 10
-9.930652122927885
 20
-4.449285381763998
 30
0.0
 10
-10.196290626392067
 20
-5.393581937639288
 30
0.0
 10
-10.40020319331076
 20
-5.786480298486406
 30
0.0
 10
-10.473894721776789
 20
-5.928185815804986
 30
0.0
 10
-10.537891961780751
 20
-5.999359046585128
 30
0.0
 10
-10.592194913322647
 20
-5.999999990826831
 30
0.0
  0
SPLINE
  5
42
330
17
100
AcDbEntity
  8
VISIBLE
100
AcDbSpline
 70
0
 71
3
 72
8
 73
4
 74
0
 40
0.0
 40
0.0
 40
0.0
 40
0.0
 40
1.0
 40
1.0
 40
1.0
 40
1.0
 10
-10.592194913322645
 20
-5.999999990826831
 30
0.0
 10
-10.72874755869743
 20
-6.004552870597856
 30
0.0
 10
-10.778635502015218
 20
-5.530007899663561
 30
0.0
 10
-10.756529751844365
 20
-4.67331742975402
 30
0.0
  0
SPLINE
  5
43
330
17
100
AcDbEntity
  8
VISIBLE
100
AcDbSpline
 70
0
 71
3
 72
17
 73
13
 74
0
 40
0.0
 40
0.0
 40
0.0
 40
0.0
 40
0.2613044514270171
 40
0.2613044514270171
 40
0.2613044514270171
 40
0.5556159899860401
 40
0.5556159899860401
 40
0.5556159899860401
 40
0.8019683497514655
 40
0.8019683497514655
 40
0.8019683497514655
 40
1.0
 40
1.0
 40
1.0
 40
1.0
 10
-10.756529751844369
 20
-4.673317429754021
 30
0.0
 10
-10.740633457266389
 20
-3.991283070688355
 30
0.0
 10
-10.68528823536435
 20
-3.074716347751249
 30
0.0
 10
-10.631291833459542
 20
-2.0533831611397044
 30
0.0
 10
-10.569360701974276
 20
-0.9041181608640642
 30
0.0
 10
-10.514283268622414
 20
0.37613955536466115
 30
0.0
 10
-10.491755792514695
 20
1.560243043888698
 30
0.0
 10
-10.471510478687598
 20
2.551807909780376
 30
0.0
 10
-10.471988680606053
 20
3.472274966396251
 30
0.0
 10
-10.475324999222613
 20
4.204070718491967
 30
0.0
 10
-10.477742164046832
 20
4.793341056577021
 30
0.0
 10
-10.48071447568318
 20
5.261088327057247
 30
0.0
 10
-10.470703651527694
 20
5.568060232174986
 30
0.0
  0
SPLINE
  5
44
330
17
100
AcDbEntity
  8
VISIBLE
100
AcDbSpline
 70
0
 71
2
 72
6
 73
3
 74
0
 40
0.0
 40
0.0
 40
0.0
 40
1.0
 40
1.0
 40
1.0
 10
-10.470703651527694
 20
5.568060232174986
 30
0.0
 10
-10.458541650570087
 20
5.998166648296793
 30
0.0
 10
-10.402799295780069
 20
5.999999988794257
 30
0.0
  0
SPLINE
  5
45
330
17
100
AcDbEntity
  8
VISIBLE
100
AcDbSpline
 70
0
 71
3
 72
14
 73
10
 74
0
 40
0.0
 40
0.0
 40
0.0
 40
0.0
 40
0.24818745663744865
 40
0.24818745663744865
 40
0.24818745663744865
 40
0.6449750585681774
 40
0.6449750585681774
 40
0.6449750585681774
 40
1.0
 40
1.0
 40
1.0
 40
1.0
 10
-10.402799295780069
 20
5.999999988794257
 30
0.0
 10
-10.363334506715116
 20
5.998016301121013
 30
0.0
 10
-10.30685095314803
 20
5.847198499937993
 30
0.0
 10
-10.233348635078782
 20
5.547546585245179
 30
0.0
 10
-10.118028140346796
 20
5.074445163715833
 30
0.0
 10
-9.960903754858109
 20
4.236913950955785
 30
0.0
 10
-9.827357166488806
 20
3.1823780483941295
 30
0.0
 10
-9.708121250357244
 20
2.2411401423118917
 30
0.0
 10
-9.613372091178448
 20
1.1250114308920225
 30
0.0
 10
-9.59681189984865
 20
-1.7763568394002505e-15
 30
0.0
  0
SPLINE
  5
46
330
17
100
AcDbEntity
  8
VISIBLE
100
AcDbSpline
 70
0
 71
3
 72
14
 73
10
 74
0
 40
0.0
 40
0.0
 40
0.0
 40
0.0
 40
0.3298426937775282
 40
0.3298426937775282
 40
0.3298426937775282
 40
0.6486540656789701
 40
0.6486540656789701
 40
0.6486540656789701
 40
1.101341346245004
 40
1.101341346245004
 40
1.101341346245004
 40
1.101341346245004
 10
7.04723230235988
 20
-110.0
 30
0.0
 10
7.0617310477516995
 20
-109.03315040863609
 30
0.0
 10
7.156433965767899
 20
-108.07361277207734
 30
0.0
 10
7.307141443339154
 20
-107.23747006514024
 30
0.0
 10
7.451677926415375
 20
-106.42780489786468
 30
0.0
 10
7.643402579120221
 20
-105.73029797227598
 30
0.0
 10
7.834746299360487
 20
-105.19503287063847
 30
0.0
 10
8.107599695515827
 20
-104.43366204998644
 30
0.0
 10
8.3747312199873
 20
-103.99861648734021
 30
0.0
 10
8.53287181124517
 20
-104.00000001982275
 30
0.0
  0
SPLINE
  5
47
330
17
100
AcDbEntity
  8
VISIBLE
100
AcDbSpline
 70
0
 71
3
 72
8
 73
4
 74
0
 40
0.0
 40
0.0
 40
0.0
 40
0.0
 40
1.0
 40
1.0
 40
1.0
 40
1.0
 10
8.53287181124517
 20
-104.00000001982275
 30
0.0
 10
8.698976916664318
 20
-103.99466052957888
 30
0.0
 10
8.742381862593112
 20
-104.466516446655
 30
0.0
 10
8.685025748225621
 20
-105.31812633343408
 30
0.0
  0
SPLINE
  5
48
330
17
100
AcDbEntity
  8
VISIBLE
100
AcDbSpline
 70
0
 71
3
 72
17
 73
13
 74
0
 40
0.0
 40
0.0
 40
0.0
 40
0.0
 40
0.16397741795398496
 40
0.16397741795398496
 40
0.16397741795398496
 40
0.4948203723728397
 40
0.4948203723728397
 40
0.4948203723728397
 40
0.8632481289532071
 40
0.8632481289532071
 40
0.8632481289532071
 40
1.0
 40
1.0
 40
1.0
 40
1.0
 10
8.685025748225621
 20
-105.31812633343408
 30
0.0
 10
8.65744430844137
 20
-105.74671859708918
 30
0.0
 10
8.60763980493809
 20
-106.26649900825872
 30
0.0
 10
8.548939480279023
 20
-106.84651334794388
 30
0.0
 10
8.4291384571467
 20
-108.0154836335958
 30
0.0
 10
8.280963251854638
 20
-109.4345545151861
 30
0.0
 10
8.187128000983225
 20
-110.80223979631975
 30
0.0
 10
8.077615784802884
 20
-112.3272179679486
 30
0.0
 10
8.040234629720938
 20
-113.76663899928553
 30
0.0
 10
8.01481839356462
 20
-114.71654069176984
 30
0.0
 10
8.005397739046687
 20
-115.07245280835336
 30
0.0
 10
7.993324571706895
 20
-115.35749768355953
 30
0.0
 10
7.978598891545225
 20
-115.57167531738806
 30
0.0
  0
SPLINE
  5
49
330
17
100
AcDbEntity
  8
VISIBLE
100
AcDbSpline
 70
0
 71
2
 72
6
 73
3
 74
0
 40
0.0
 40
0.0
 40
0.0
 40
1.0
 40
1.0
 40
1.0
 10
7.978598891545225
 20
-115.57167531738807
 30
0.0
 10
7.949553067265716
 20
-115.998278908965
 30
0.0
 10
7.879997229241196
 20
-115.99999999424232
 30
0.0
  0
SPLINE
  5
4A
330
17
100
AcDbEntity
  8
VISIBLE
100
AcDbSpline
 70
0
 71
3
 72
14
 73
10
 74
0
 40
0.0
 40
0.0
 40
0.0
 40
0.0
 40
0.23367904341206425
 40
0.23367904341206425
 40
0.23367904341206425
 40
0.6365905201383342
 40
0.6365905201383342
 40
0.6365905201383342
 40
1.0
 40
1.0
 40
1.0
 40
1.0
 10
7.879997229241195
 20
-115.9999999942423
 30
0.0
 10
7.833657946452992
 20
-115.99835764554396
 30
0.0
 10
7.772170948827307
 20
-115.86464275599408
 30
0.0
 10
7.695536236364145
 20
-115.59885532559255
 30
0.0
 10
7.5658578534896535
 20
-115.14594193141913
 30
0.0
 10
7.389596341485416
 20
-114.31540343671273
 30
0.0
 10
7.2470140477998335
 20
-113.25440264069393
 30
0.0
 10
7.118855501340748
 20
-112.3001848990653
 30
0.0
 10
7.027110993648519
 20
-111.15351792813827
 30
0.0
 10
7.04723230235988
 20
-109.99999999999999
 30
0.0
  0
SPLINE
  5
4B
330
17
100
AcDbEntity
  8
VISIBLE
100
AcDbSpline
 70
0
 71
3
 72
14
 73
10
 74
0
 40
0.0
 40
0.0
 40
0.0
 40
0.0
 40
0.08712390733576475
 40
0.08712390733576475
 40
0.08712390733576475
 40
0.1742478146715295
 40
0.1742478146715295
 40
0.1742478146715295
 40
0.3334031731484867
 40
0.3334031731484867
 40
0.3334031731484867
 40
0.3334031731484867
 10
-7.047232302359906
 20
-110.0
 30
0.0
 10
-7.033237819881959
 20
-110.82932428074068
 30
0.0
 10
-7.075613387267865
 20
-111.6563666057852
 30
0.0
 10
-7.149357975711444
 20
-112.40878429836478
 30
0.0
 10
-7.22288168920491
 20
-113.16199651714965
 30
0.0
 10
-7.325470419595673
 20
-113.8413227883904
 30
0.0
 10
-7.427123031668431
 20
-114.39604792243762
 30
0.0
 10
-7.616191893357582
 20
-115.41385094108385
 30
0.0
 10
-7.7889213885864645
 20
-116.00466036340032
 30
0.0
 10
-7.8799972682520965
 20
-115.99999999455505
 30
0.0
  0
SPLINE
  5
4C
330
17
100
AcDbEntity
  8
VISIBLE
100
AcDbSpline
 70
0
 71
2
 72
6
 73
3
 74
0
 40
0.0
 40
0.0
 40
0.0
 40
1.0
 40
1.0
 40
1.0
 10
-7.879997268252097
 20
-115.99999999455508
 30
0.0
 10
-7.94955302742531
 20
-115.99827727618847
 30
0.0
 10
-7.978598884545686
 20
-115.57167539075915
 30
0.0
  0
SPLINE
  5
4D
330
17
100
AcDbEntity
  8
VISIBLE
100
AcDbSpline
 70
0
 71
3
 72
14
 73
10
 74
0
 40
0.0
 40
0.0
 40
0.0
 40
0.0
 40
0.253499282765303
 40
0.253499282765303
 40
0.253499282765303
 40
0.5615533475087153
 40
0.5615533475087153
 40
0.5615533475087153
 40
1.0
 40
1.0
 40
1.0
 40
1.0
 10
-7.978598884545686
 20
-115.57167539075915
 30
0.0
 10
-8.007527196324327
 20
-115.17926927283332
 30
0.0
 10
-8.018259207852793
 20
-114.51840149323797
 30
0.0
 10
-8.044499295503092
 20
-113.67919317869584
 30
0.0
 10
-8.074676548231425
 20
-112.66171809734914
 30
0.0
 10
-8.135825315620407
 20
-111.3834197592728
 30
0.0
 10
-8.239624040066767
 20
-110.10072438322763
 30
0.0
 10
-8.381696108847288
 20
-108.27271815648268
 30
0.0
 10
-8.60981950346512
 20
-106.4614662631524
 30
0.0
 10
-8.685025754155763
 20
-105.31812628654845
 30
0.0
  0
SPLINE
  5
4E
330
17
100
AcDbEntity
  8
VISIBLE
100
AcDbSpline
 70
0
 71
3
 72
11
 73
7
 74
0
 40
0.0
 40
0.0
 40
0.0
 40
0.0
 40
0.505715232900253
 40
0.505715232900253
 40
0.505715232900253
 40
1.0
 40
1.0
 40
1.0
 40
1.0
 10
-8.685025754155763
 20
-105.31812628654843
 30
0.0
 10
-8.712769510100244
 20
-104.8896627609805
 30
0.0
 10
-8.717812579061706
 20
-104.55295937354819
 30
0.0
 10
-8.692265730395606
 20
-104.32941165395663
 30
0.0
 10
-8.667223122038086
 20
-104.10990225017608
 30
0.0
 10
-8.614091814530079
 20
-104.00009836513958
 30
0.0
 10
-8.532871807871581
 20
-103.99999999884695
 30
0.0
  0
SPLINE
  5
4F
330
17
100
AcDbEntity
  8
VISIBLE
100
AcDbSpline
 70
0
 71
3
 72
11
 73
7
 74
0
 40
0.0
 40
0.0
 40
0.0
 40
0.0
 40
0.6213078458406516
 40
0.6213078458406516
 40
0.6213078458406516
 40
1.0
 40
1.0
 40
1.0
 40
1.0
 10
-8.532871807871581
 20
-103.99999999884695
 30
0.0
 10
-8.297234427394457
 20
-103.99598779792312
 30
0.0
 10
-7.797479231377136
 20
-104.99752122440682
 30
0.0
 10
-7.435625844021116
 20
-106.59810443617096
 30
0.0
 10
-7.215047174644999
 20
-107.56958073462266
 30
0.0
 10
-7.064279320445905
 20
-108.77549644653469
 30
0.0
 10
-7.047232302359907
 20
-109.99999999999999
 30
0.0
  0
SPLINE
  5
50
330
17
100
AcDbEntity
  8
VISIBLE
100
AcDbSpline
 70
0
 71
1
 72
17
 73
15
 74
0
 40
0.0
 40
0.0
 40
0.07142857142857115
 40
0.1428571428571423
 40
0.21428571428571347
 40
0.2857142857142846
 40
0.35714285714285576
 40
0.42857142857142694
 40
0.49999999999999806
 40
0.5714285714285692
 40
0.6428571428571404
 40
0.7142857142857115
 40
0.7857142857142827
 40
0.8571428571428539
 40
0.9285714285714249
 40
1.0
 40
1.0
 10
-3.5000000000000013
 20
-5.999999999999999
 30
0.0
 10
-3.5000000000000013
 20
-5.992752387934117
 30
0.0
 10
-3.5000000000000013
 20
-5.971027061030024
 30
0.0
 10
-3.5000000000000013
 20
-5.934876504868186
 30
0.0
 10
-3.5000000000000013
 20
-5.884388054517616
 30
0.0
 10
-3.5000000000000013
 20
-5.8196836835456285
 30
0.0
 10
-3.5000000000000013
 20
-5.740919709345478
 30
0.0
 10
-3.5000000000000013
 20
-5.648286415493758
 30
0.0
 10
-3.5000000000000013
 20
-5.542007592049875
 30
0.0
 10
-3.5000000000000013
 20
-5.422339994908208
 30
0.0
 10
-3.5000000000000013
 20
-5.289572725509069
 30
0.0
 10
-3.500000000000001
 20
-5.144026532407012
 30
0.0
 10
-3.500000000000001
 20
-4.98605303638379
 30
0.0
 10
-3.500000000000001
 20
-4.816033880978029
 30
0.0
 10
-3.500000000000001
 20
-4.634379810483766
 30
0.0
  0
SPLINE
  5
51
330
17
100
AcDbEntity
  8
VISIBLE
100
AcDbSpline
 70
0
 71
1
 72
17
 73
15
 74
0
 40
0.0
 40
0.0
 40
0.07142857142857087
 40
0.14285714285714174
 40
0.21428571428571264
 40
0.2857142857142835
 40
0.3571428571428544
 40
0.4285714285714253
 40
0.4999999999999961
 40
0.571428571428567
 40
0.6428571428571379
 40
0.7142857142857088
 40
0.7857142857142796
 40
0.8571428571428505
 40
0.9285714285714214
 40
1.0
 40
1.0
 10
3.4999999999999987
 20
-6.0
 30
0.0
 10
3.4999999999999987
 20
-5.992752387934118
 30
0.0
 10
3.4999999999999987
 20
-5.9710270610300205
 30
0.0
 10
3.4999999999999987
 20
-5.934876504868179
 30
0.0
 10
3.4999999999999987
 20
-5.8843880545176015
 30
0.0
 10
3.4999999999999987
 20
-5.819683683545604
 30
0.0
 10
3.4999999999999987
 20
-5.740919709345443
 30
0.0
 10
3.4999999999999987
 20
-5.648286415493709
 30
0.0
 10
3.4999999999999987
 20
-5.542007592049811
 30
0.0
 10
3.4999999999999987
 20
-5.4223399949081275
 30
0.0
 10
3.4999999999999987
 20
-5.289572725508971
 30
0.0
 10
3.499999999999999
 20
-5.144026532406893
 30
0.0
 10
3.499999999999999
 20
-4.986053036383652
 30
0.0
 10
3.499999999999999
 20
-4.816033880977866
 30
0.0
 10
3.499999999999999
 20
-4.634379810483569
 30
0.0
  0
SPLINE
  5
52
330
17
100
AcDbEntity
  8
VISIBLE
100
AcDbSpline
 70
0
 71
3
 72
8
 73
4
 74
0
 40
0.0
 40
0.0
 40
0.0
 40
0.0
 40
1.0
 40
1.0
 40
1.0
 40
1.0
 10
3.5
 20
-116.0
 30
0.0
 10
3.4999999999999987
 20
-117.12277368528916
 30
0.0
 10
3.4999999999999996
 20
-118.19366781183373
 30
0.0
 10
3.5
 20
-119.18577623840889
 30
0.0
  0
SPLINE
  5
53
330
17
100
AcDbEntity
  8
VISIBLE
100
AcDbSpline
 70
0
 71
3
 72
8
 73
4
 74
0
 40
0.0
 40
0.0
 40
0.0
 40
0.0
 40
1.0
 40
1.0
 40
1.0
 40
1.0
 10
-3.5
 20
-116.0
 30
0.0
 10
-3.5000000000000004
 20
-117.12277368528916
 30
0.0
 10
-3.499999999999999
 20
-118.19366781183358
 30
0.0
 10
-3.5
 20
-119.18577623840872
 30
0.0
  0
LINE
  5
54
330
17
100
AcDbEntity
  8
VISIBLE
100
AcDbLine
 10
3.5
 20
-110.0
 30
0.0
 11
-3.5
 21
-110.0
 31
0.0
  0
SPLINE
  5
55
330
17
100
AcDbEntity
  8
VISIBLE
100
AcDbSpline
 70
0
 71
2
 72
6
 73
3
 74
0
 40
0.0
 40
0.0
 40
0.0
 40
1.0
 40
1.0
 40
1.0
 10
9.999999985121686
 20
18.0
 30
0.0
 10
10.268557904423261
 20
11.80344331486316
 30
0.0
 10
10.470703649108177
 20
5.568060342941791
 30
0.0
  0
SPLINE
  5
56
330
17
100
AcDbEntity
  8
VISIBLE
100
AcDbSpline
 70
0
 71
2
 72
6
 73
3
 74
0
 40
0.0
 40
0.0
 40
0.0
 40
1.0
 40
1.0
 40
1.0
 10
-9.99999998512166
 20
18.0
 30
0.0
 10
-10.268557913817848
 20
11.803443098250277
 30
0.0
 10
-10.470703663230232
 20
5.568059907118235
 30
0.0
  0
SPLINE
  5
57
330
17
100
AcDbEntity
  8
VISIBLE
100
AcDbSpline
 70
0
 71
2
 72
6
 73
3
 74
0
 40
0.0
 40
0.0
 40
0.0
 40
1.0
 40
1.0
 40
1.0
 10
6.99999998958518
 20
-128.0
 30
0.0
 10
7.521198415394242
 20
-121.80616627708466
 30
0.0
 10
7.978598893548617
 20
-115.57167531358317
 30
0.0
  0
SPLINE
  5
58
330
17
100
AcDbEntity
  8
VISIBLE
100
AcDbSpline
 70
0
 71
2
 72
6
 73
3
 74
0
 40
0.0
 40
0.0
 40
0.0
 40
1.0
 40
1.0
 40
1.0
 10
-6.999999989585196
 20
-127.99999999999999
 30
0.0
 10
-7.521198415515178
 20
-121.8061662756482
 30
0.0
 10
-7.9785988937606795
 20
-115.57167531069211
 30
0.0
  0
SPLINE
  5
59
330
17
100
AcDbEntity
  8
VISIBLE
100
AcDbSpline
 70
0
 71
3
 72
11
 73
7
 74
0
 40
0.0
 40
0.0
 40
0.0
 40
0.0
 40
0.43480173389229265
 40
0.43480173389229265
 40
0.43480173389229265
 40
1.0
 40
1.0
 40
1.0
 40
1.0
 10
10.756529749125658
 20
-4.6733173069989675
 30
0.0
 10
11.096423141009371
 20
-19.175828608826393
 30
0.0
 10
11.160748264946097
 20
-33.79927295141973
 30
0.0
 10
10.942577833650281
 20
-48.434502202140784
 30
0.0
 10
10.660172623117226
 20
-67.45921990406721
 30
0.0
 10
9.898588592387458
 20
-86.49945229226812
 30
0.0
 10
8.685025747365119
 20
-105.31812639627888
 30
0.0
  0
SPLINE
  5
5A
330
17
100
AcDbEntity
  8
VISIBLE
100
AcDbSpline
 70
0
 71
3
 72
11
 73
7
 74
0
 40
0.0
 40
0.0
 40
0.0
 40
0.0
 40
0.4348017332190999
 40
0.4348017332190999
 40
0.4348017332190999
 40
1.0
 40
1.0
 40
1.0
 40
1.0
 10
-10.756529744868716
 20
-4.673317125203738
 30
0.0
 10
-11.096423139052225
 20
-19.175828426496206
 30
0.0
 10
-11.160748265334623
 20
-33.79927276899451
 30
0.0
 10
-10.942577836360513
 20
-48.43450202009651
 30
0.0
 10
-10.660172628078822
 20
-67.45921977463495
 30
0.0
 10
-9.898588596904968
 20
-86.49945221632471
 30
0.0
 10
-8.68502574888664
 20
-105.31812637266873
 30
0.0
  0
SPLINE
  5
5B
330
17
100
AcDbEntity
  8
HIDDEN
100
AcDbSpline
 70
0
 71
3
 72
23
 73
19
 74
0
 40
0.0
 40
0.0
 40
0.0
 40
0.0
 40
0.12499999999999994
 40
0.12499999999999994
 40
0.12499999999999994
 40
0.25
 40
0.25
 40
0.25
 40
0.5
 40
0.5
 40
0.5
 40
0.7500000000000001
 40
0.7500000000000001
 40
0.7500000000000001
 40
0.8750000000000001
 40
0.8750000000000001
 40
0.8750000000000001
 40
1.0
 40
1.0
 40
1.0
 40
1.0
 10
9.999999985121683
 20
18.0
 30
0.0
 10
10.000696495539044
 20
17.999999999999993
 30
0.0
 10
9.74041485805754
 20
18.0
 30
0.0
 10
9.238795331213858
 20
18.0
 30
0.0
 10
8.738462788881336
 20
18.0
 30
0.0
 10
7.997243358881381
 20
18.0
 30
0.0
 10
7.0710678189347895
 20
18.0
 30
0.0
 10
5.224787257654838
 20
18.000000000000007
 30
0.0
 10
2.6216469307425516
 20
18.0
 30
0.0
 10
2.3092638912203256e-14
 20
18.0
 30
0.0
 10
-2.621646930742472
 20
17.999999999999996
 30
0.0
 10
-5.224787257654753
 20
18.000000000000004
 30
0.0
 10
-7.071067818934756
 20
18.0
 30
0.0
 10
-7.997243358881278
 20
17.999999999999993
 30
0.0
 10
-8.738462788881245
 20
18.0
 30
0.0
 10
-9.238795331213835
 20
18.0
 30
0.0
 10
-9.740414858057452
 20
17.999999999999993
 30
0.0
 10
-10.000696495538948
 20
18.0
 30
0.0
 10
-9.999999985121685
 20
18.0
 30
0.0
  0
SPLINE
  5
5C
330
17
100
AcDbEntity
  8
HIDDEN
100
AcDbSpline
 70
0
 71
3
 72
23
 73
19
 74
0
 40
0.0
 40
0.0
 40
0.0
 40
0.0
 40
0.12500000000000003
 40
0.12500000000000003
 40
0.12500000000000003
 40
0.25000000000000006
 40
0.25000000000000006
 40
0.25000000000000006
 40
0.5000000000000001
 40
0.5000000000000001
 40
0.5000000000000001
 40
0.7500000000000002
 40
0.7500000000000002
 40
0.7500000000000002
 40
0.875
 40
0.875
 40
0.875
 40
1.0
 40
1.0
 40
1.0
 40
1.0
 10
6.99999998958518
 20
-128.0
 30
0.0
 10
6.9981961833813875
 20
-128.0000000000001
 30
0.0
 10
6.82058176413622
 20
-127.99999999999994
 30
0.0
 10
6.467156731849695
 20
-128.0
 30
0.0
 10
6.116923952216933
 20
-128.0000000000001
 30
0.0
 10
5.598070351216944
 20
-127.99999999999993
 30
0.0
 10
4.949747473254341
 20
-128.0
 30
0.0
 10
3.657351080358363
 20
-128.00000000000009
 30
0.0
 10
1.8351528515197546
 20
-127.99999999999999
 30
0.0
 10
-9.325873406851315e-15
 20
-128.0
 30
0.0
 10
-1.8351528515197626
 20
-128.0000000000001
 30
0.0
 10
-3.657351080358371
 20
-127.99999999999994
 30
0.0
 10
-4.949747473254348
 20
-128.0
 30
0.0
 10
-5.598070351216931
 20
-127.99999999999993
 30
0.0
 10
-6.116923952216926
 20
-128.0
 30
0.0
 10
-6.4671567318496965
 20
-128.0
 30
0.0
 10
-6.820581764136213
 20
-128.0000000000001
 30
0.0
 10
-6.998196183381365
 20
-127.99999999999993
 30
0.0
 10
-6.999999989585181
 20
-128.0
 30
0.0
  0
SPLINE
  5
5D
330
17
100
AcDbEntity
  8
HIDDEN
100
AcDbSpline
 70
0
 71
1
 72
17
 73
15
 74
0
 40
0.0
 40
0.0
 40
0.1121997376282069
 40
0.2243994752564138
 40
0.3365992128846207
 40
0.4487989505128276
 40
0.5609986881410345
 40
0.6731984257692414
 40
0.7853981633974483
 40
0.8975979010256552
 40
1.009797638653862
 40
1.121997376282069
 40
1.2341971139102759
 40
1.3463968515384828
 40
1.4585965891666897
 40
1.5707963267948966
 40
1.5707963267948966
 10
-3.5
 20
-110.0
 30
0.0
 10
-3.5
 20
-109.32821314338015
 30
0.0
 10
-3.4999999999999996
 20
-108.66487439626212
 30
0.0
 10
-3.4999999999999996
 20
-108.018325628269
 30
0.0
 10
-3.499999999999999
 20
-107.39669756529466
 30
0.0
 10
-3.499999999999999
 20
-106.80780754090799
 30
0.0
 10
-3.499999999999999
 20
-106.2590611888476
 30
0.0
 10
-3.499999999999999
 20
-105.75735931288071
 30
0.0
 10
-3.499999999999999
 20
-105.30901110519181
 30
0.0
 10
-3.4999999999999987
 20
-104.9196548046303
 30
0.0
 10
-3.4999999999999987
 20
-104.59418679258548
 30
0.0
 10
-3.4999999999999987
 20
-104.3367000181498
 30
0.0
 10
-3.4999999999999987
 20
-104.15043252690907
 30
0.0
 10
-3.4999999999999987
 20
-104.03772674064055
 30
0.0
 10
-3.4999999999999987
 20
-104.0
 30
0.0
  0
SPLINE
  5
5E
330
17
100
AcDbEntity
  8
HIDDEN
100
AcDbSpline
 70
0
 71
1
 72
17
 73
15
 74
0
 40
0.0
 40
0.0
 40
0.07142857142857142
 40
0.14285714285714285
 40
0.21428571428571427
 40
0.2857142857142857
 40
0.35714285714285715
 40
0.42857142857142855
 40
0.5
 40
0.5714285714285714
 40
0.6428571428571429
 40
0.7142857142857143
 40
0.7857142857142857
 40
0.8571428571428571
 40
0.9285714285714286
 40
1.0
 40
1.0
 10
-3.4999999999999987
 20
-104.0
 30
0.0
 10
-3.4999999999999987
 20
-104.15043252690906
 30
0.0
 10
-3.499999999999999
 20
-104.5941867925855
 30
0.0
 10
-3.499999999999999
 20
-105.30901110519181
 30
0.0
 10
-3.499999999999999
 20
-106.2590611888476
 30
0.0
 10
-3.4999999999999996
 20
-107.39669756529464
 30
0.0
 10
-3.5
 20
-108.66487439626212
 30
0.0
 10
-3.5
 20
-110.0
 30
0.0
 10
-3.5000000000000004
 20
-111.33512560373788
 30
0.0
 10
-3.500000000000001
 20
-112.60330243470534
 30
0.0
 10
-3.500000000000001
 20
-113.7409388111524
 30
0.0
 10
-3.500000000000001
 20
-114.69098889480819
 30
0.0
 10
-3.5000000000000013
 20
-115.40581320741451
 30
0.0
 10
-3.5000000000000013
 20
-115.84956747309093
 30
0.0
 10
-3.5000000000000013
 20
-116.0
 30
0.0
  0
SPLINE
  5
5F
330
17
100
AcDbEntity
  8
HIDDEN
100
AcDbSpline
 70
0
 71
1
 72
17
 73
15
 74
0
 40
0.0
 40
0.0
 40
0.07142857142857142
 40
0.14285714285714285
 40
0.21428571428571427
 40
0.2857142857142857
 40
0.35714285714285715
 40
0.42857142857142855
 40
0.5
 40
0.5714285714285714
 40
0.6428571428571429
 40
0.7142857142857143
 40
0.7857142857142857
 40
0.8571428571428571
 40
0.9285714285714286
 40
1.0
 40
1.0
 10
-3.5000000000000013
 20
-116.0
 30
0.0
 10
-3.5000000000000013
 20
-115.96227325935945
 30
0.0
 10
-3.5000000000000013
 20
-115.84956747309096
 30
0.0
 10
-3.5000000000000013
 20
-115.6632999818502
 30
0.0
 10
-3.5000000000000013
 20
-115.40581320741451
 30
0.0
 10
-3.500000000000001
 20
-115.08034519536972
 30
0.0
 10
-3.500000000000001
 20
-114.69098889480819
 30
0.0
 10
-3.500000000000001
 20
-114.24264068711929
 30
0.0
 10
-3.500000000000001
 20
-113.7409388111524
 30
0.0
 10
-3.500000000000001
 20
-113.19219245909203
 30
0.0
 10
-3.5000000000000004
 20
-112.60330243470537
 30
0.0
 10
-3.5000000000000004
 20
-111.981674371731
 30
0.0
 10
-3.5
 20
-111.3351256037379
 30
0.0
 10
-3.5
 20
-110.67178685661986
 30
0.0
 10
-3.5
 20
-110.0
 30
0.0
  0
SPLINE
  5
60
330
17
100
AcDbEntity
  8
HIDDEN
100
AcDbSpline
 70
0
 71
1
 72
17
 73
15
 74
0
 40
0.0
 40
0.0
 40
0.1121997376282069
 40
0.2243994752564138
 40
0.3365992128846207
 40
0.4487989505128276
 40
0.5609986881410345
 40
0.6731984257692414
 40
0.7853981633974483
 40
0.8975979010256552
 40
1.009797638653862
 40
1.121997376282069
 40
1.2341971139102759
 40
1.3463968515384828
 40
1.4585965891666897
 40
1.5707963267948966
 40
1.5707963267948966
 10
3.5
 20
-110.0
 30
0.0
 10
3.5
 20
-109.32821314338015
 30
0.0
 10
3.5000000000000004
 20
-108.66487439626212
 30
0.0
 10
3.5000000000000004
 20
-108.018325628269
 30
0.0
 10
3.500000000000001
 20
-107.39669756529466
 30
0.0
 10
3.500000000000001
 20
-106.80780754090799
 30
0.0
 10
3.500000000000001
 20
-106.2590611888476
 30
0.0
 10
3.500000000000001
 20
-105.75735931288071
 30
0.0
 10
3.500000000000001
 20
-105.30901110519181
 30
0.0
 10
3.5000000000000013
 20
-104.9196548046303
 30
0.0
 10
3.5000000000000013
 20
-104.59418679258548
 30
0.0
 10
3.5000000000000013
 20
-104.3367000181498
 30
0.0
 10
3.5000000000000013
 20
-104.15043252690907
 30
0.0
 10
3.5000000000000013
 20
-104.03772674064055
 30
0.0
 10
3.5000000000000013
 20
-104.0
 30
0.0
  0
SPLINE
  5
61
330
17
100
AcDbEntity
  8
HIDDEN
100
AcDbSpline
 70
0
 71
1
 72
17
 73
15
 74
0
 40
0.0
 40
0.0
 40
0.07142857142857142
 40
0.14285714285714285
 40
0.21428571428571427
 40
0.2857142857142857
 40
0.35714285714285715
 40
0.42857142857142855
 40
0.5
 40
0.5714285714285714
 40
0.6428571428571429
 40
0.7142857142857143
 40
0.7857142857142857
 40
0.8571428571428571
 40
0.9285714285714286
 40
1.0
 40
1.0
 10
3.5000000000000013
 20
-104.0
 30
0.0
 10
3.5000000000000013
 20
-104.15043252690906
 30
0.0
 10
3.500000000000001
 20
-104.5941867925855
 30
0.0
 10
3.500000000000001
 20
-105.30901110519181
 30
0.0
 10
3.500000000000001
 20
-106.2590611888476
 30
0.0
 10
3.5000000000000004
 20
-107.39669756529464
 30
0.0
 10
3.5
 20
-108.66487439626212
 30
0.0
 10
3.5
 20
-110.0
 30
0.0
 10
3.4999999999999996
 20
-111.33512560373788
 30
0.0
 10
3.499999999999999
 20
-112.60330243470534
 30
0.0
 10
3.499999999999999
 20
-113.7409388111524
 30
0.0
 10
3.499999999999999
 20
-114.69098889480819
 30
0.0
 10
3.4999999999999987
 20
-115.40581320741451
 30
0.0
 10
3.4999999999999987
 20
-115.84956747309093
 30
0.0
 10
3.4999999999999987
 20
-116.0
 30
0.0
  0
SPLINE
  5
62
330
17
100
AcDbEntity
  8
HIDDEN
100
AcDbSpline
 70
0
 71
1
 72
17
 73
15
 74
0
 40
0.0
 40
0.0
 40
0.07142857142857142
 40
0.14285714285714285
 40
0.21428571428571427
 40
0.2857142857142857
 40
0.35714285714285715
 40
0.42857142857142855
 40
0.5
 40
0.5714285714285714
 40
0.6428571428571429
 40
0.7142857142857143
 40
0.7857142857142857
 40
0.8571428571428571
 40
0.9285714285714286
 40
1.0
 40
1.0
 10
3.4999999999999987
 20
-116.0
 30
0.0
 10
3.4999999999999987
 20
-115.96227325935945
 30
0.0
 10
3.4999999999999987
 20
-115.84956747309096
 30
0.0
 10
3.4999999999999987
 20
-115.6632999818502
 30
0.0
 10
3.4999999999999987
 20
-115.40581320741451
 30
0.0
 10
3.499999999999999
 20
-115.08034519536972
 30
0.0
 10
3.499999999999999
 20
-114.69098889480819
 30
0.0
 10
3.499999999999999
 20
-114.24264068711929
 30
0.0
 10
3.499999999999999
 20
-113.7409388111524
 30
0.0
 10
3.499999999999999
 20
-113.19219245909203
 30
0.0
 10
3.4999999999999996
 20
-112.60330243470537
 30
0.0
 10
3.4999999999999996
 20
-111.981674371731
 30
0.0
 10
3.5
 20
-111.3351256037379
 30
0.0
 10
3.5
 20
-110.67178685661986
 30
0.0
 10
3.5
 20
-110.0
 30
0.0
  0
SPLINE
  5
63
330
17
100
AcDbEntity
  8
HIDDEN
100
AcDbSpline
 70
0
 71
1
 72
17
 73
15
 74
0
 40
0.0
 40
0.0
 40
0.1121997376282069
 40
0.2243994752564138
 40
0.3365992128846207
 40
0.4487989505128276
 40
0.5609986881410345
 40
0.6731984257692414
 40
0.7853981633974483
 40
0.8975979010256552
 40
1.009797638653862
 40
1.121997376282069
 40
1.2341971139102759
 40
1.3463968515384828
 40
1.4585965891666897
 40
1.5707963267948966
 40
1.5707963267948966
 10
-3.5
 20
7.771561172376096e-16
 30
0.0
 10
-3.5
 20
0.6717868566198479
 30
0.0
 10
-3.4999999999999996
 20
1.3351256037378874
 30
0.0
 10
-3.4999999999999996
 20
1.9816743717310035
 30
0.0
 10
-3.499999999999999
 20
2.6033024347053497
 30
0.0
 10
-3.499999999999999
 20
3.19219245909202
 30
0.0
 10
-3.499999999999999
 20
3.740938811152402
 30
0.0
 10
-3.499999999999999
 20
4.242640687119286
 30
0.0
 10
-3.499999999999999
 20
4.690988894808179
 30
0.0
 10
-3.4999999999999987
 20
5.080345195369706
 30
0.0
 10
-3.4999999999999987
 20
5.405813207414516
 30
0.0
 10
-3.4999999999999987
 20
5.663299981850205
 30
0.0
 10
-3.4999999999999987
 20
5.849567473090943
 30
0.0
 10
-3.4999999999999987
 20
5.962273259359456
 30
0.0
 10
-3.4999999999999987
 20
6.0
 30
0.0
  0
SPLINE
  5
64
330
17
100
AcDbEntity
  8
HIDDEN
100
AcDbSpline
 70
0
 71
1
 72
17
 73
15
 74
0
 40
0.0
 40
0.0
 40
0.07142857142857142
 40
0.14285714285714285
 40
0.21428571428571427
 40
0.2857142857142857
 40
0.35714285714285715
 40
0.42857142857142855
 40
0.5
 40
0.5714285714285714
 40
0.6428571428571429
 40
0.7142857142857143
 40
0.7857142857142857
 40
0.8571428571428571
 40
0.9285714285714286
 40
1.0
 40
1.0
 10
-3.4999999999999987
 20
6.0
 30
0.0
 10
-3.4999999999999987
 20
5.849567473090943
 30
0.0
 10
-3.499999999999999
 20
5.405813207414516
 30
0.0
 10
-3.499999999999999
 20
4.69098889480818
 30
0.0
 10
-3.499999999999999
 20
3.740938811152402
 30
0.0
 10
-3.4999999999999996
 20
2.60330243470535
 30
0.0
 10
-3.5
 20
1.3351256037378878
 30
0.0
 10
-3.5
 20
1.5543122344752192e-15
 30
0.0
 10
-3.5000000000000004
 20
-1.3351256037378847
 30
0.0
 10
-3.500000000000001
 20
-2.6033024347053475
 30
0.0
 10
-3.500000000000001
 20
-3.7409388111523993
 30
0.0
 10
-3.500000000000001
 20
-4.690988894808178
 30
0.0
 10
-3.5000000000000013
 20
-5.405813207414512
 30
0.0
 10
-3.5000000000000013
 20
-5.849567473090941
 30
0.0
 10
-3.5000000000000013
 20
-5.999999999999998
 30
0.0
  0
SPLINE
  5
65
330
17
100
AcDbEntity
  8
HIDDEN
100
AcDbSpline
 70
0
 71
3
 72
35
 73
31
 74
0
 40
0.0
 40
0.0
 40
0.0
 40
0.0
 40
0.07142857142857165
 40
0.07142857142857165
 40
0.07142857142857165
 40
0.1428571428571433
 40
0.1428571428571433
 40
0.1428571428571433
 40
0.21428571428571494
 40
0.21428571428571494
 40
0.21428571428571494
 40
0.2857142857142866
 40
0.2857142857142866
 40
0.2857142857142866
 40
0.3571428571428582
 40
0.3571428571428582
 40
0.3571428571428582
 40
0.4285714285714299
 40
0.4285714285714299
 40
0.4285714285714299
 40
0.5000000000000016
 40
0.5000000000000016
 40
0.5000000000000016
 40
0.5714285714285732
 40
0.5714285714285732
 40
0.5714285714285732
 40
0.7142857142857164
 40
0.7142857142857164
 40
0.7142857142857164
 40
1.0
 40
1.0
 40
1.0
 40
1.0
 10
-3.500000000000001
 20
-4.634379810483766
 30
0.0
 10
-3.5000000000000004
 20
-4.551281327609088
 30
0.0
 10
-3.5000000000000013
 20
-4.468182844734414
 30
0.0
 10
-3.500000000000001
 20
-4.385084361859733
 30
0.0
 10
-3.500000000000001
 20
-4.296178362254147
 30
0.0
 10
-3.5000000000000004
 20
-4.207272362648569
 30
0.0
 10
-3.5000000000000018
 20
-4.118366363042981
 30
0.0
 10
-3.5
 20
-4.024006082610922
 30
0.0
 10
-3.500000000000001
 20
-3.9296458021788583
 30
0.0
 10
-3.500000000000001
 20
-3.8352855217467985
 30
0.0
 10
-3.5000000000000004
 20
-3.7358458670091763
 30
0.0
 10
-3.5000000000000013
 20
-3.6364062122715533
 30
0.0
 10
-3.500000000000001
 20
-3.5369665575339306
 30
0.0
 10
-3.5000000000000004
 20
-3.4328426160723886
 30
0.0
 10
-3.5000000000000013
 20
-3.3287186746108417
 30
0.0
 10
-3.500000000000001
 20
-3.2245947331492992
 30
0.0
 10
-3.500000000000001
 20
-3.1162002038682743
 30
0.0
 10
-3.5000000000000004
 20
-3.0078056745872472
 30
0.0
 10
-3.5000000000000018
 20
-2.8994111453062223
 30
0.0
 10
-3.4999999999999996
 20
-2.7871766947496557
 30
0.0
 10
-3.4999999999999996
 20
-2.67494224419309
 30
0.0
 10
-3.5000000000000013
 20
-2.562707793636526
 30
0.0
 10
-3.499999999999999
 20
-2.4470793448897714
 30
0.0
 10
-3.5000000000000004
 20
-2.331450896143019
 30
0.0
 10
-3.5000000000000004
 20
-2.215822447396267
 30
0.0
 10
-3.500000000000001
 20
-1.980078005440335
 30
0.0
 10
-3.499999999999999
 20
-1.7404884045609317
 30
0.0
 10
-3.5
 20
-1.4970536447580616
 30
0.0
 10
-3.500000000000002
 20
-1.0076236815370825
 30
0.0
 10
-3.499999999999998
 20
-0.5045437061649702
 30
0.0
 10
-3.5
 20
-6.661338147750939e-16
 30
0.0
  0
SPLINE
  5
66
330
17
100
AcDbEntity
  8
HIDDEN
100
AcDbSpline
 70
0
 71
1
 72
17
 73
15
 74
0
 40
0.0
 40
0.0
 40
0.1121997376282069
 40
0.2243994752564138
 40
0.3365992128846207
 40
0.4487989505128276
 40
0.5609986881410345
 40
0.6731984257692414
 40
0.7853981633974483
 40
0.8975979010256552
 40
1.009797638653862
 40
1.121997376282069
 40
1.2341971139102759
 40
1.3463968515384828
 40
1.4585965891666897
 40
1.5707963267948966
 40
1.5707963267948966
 10
3.5
 20
-7.771561172376096e-16
 30
0.0
 10
3.5
 20
0.6717868566198465
 30
0.0
 10
3.5000000000000004
 20
1.3351256037378856
 30
0.0
 10
3.5000000000000004
 20
1.9816743717310017
 30
0.0
 10
3.500000000000001
 20
2.603302434705348
 30
0.0
 10
3.500000000000001
 20
3.192192459092018
 30
0.0
 10
3.500000000000001
 20
3.7409388111524002
 30
0.0
 10
3.500000000000001
 20
4.242640687119284
 30
0.0
 10
3.500000000000001
 20
4.690988894808177
 30
0.0
 10
3.5000000000000013
 20
5.080345195369704
 30
0.0
 10
3.5000000000000013
 20
5.405813207414514
 30
0.0
 10
3.5000000000000013
 20
5.663299981850203
 30
0.0
 10
3.5000000000000013
 20
5.849567473090941
 30
0.0
 10
3.5000000000000013
 20
5.9622732593594545
 30
0.0
 10
3.5000000000000013
 20
5.999999999999998
 30
0.0
  0
SPLINE
  5
67
330
17
100
AcDbEntity
  8
HIDDEN
100
AcDbSpline
 70
0
 71
1
 72
17
 73
15
 74
0
 40
0.0
 40
0.0
 40
0.07142857142857142
 40
0.14285714285714285
 40
0.21428571428571427
 40
0.2857142857142857
 40
0.35714285714285715
 40
0.42857142857142855
 40
0.5
 40
0.5714285714285714
 40
0.6428571428571429
 40
0.7142857142857143
 40
0.7857142857142857
 40
0.8571428571428571
 40
0.9285714285714286
 40
1.0
 40
1.0
 10
3.5000000000000013
 20
5.999999999999998
 30
0.0
 10
3.5000000000000013
 20
5.849567473090941
 30
0.0
 10
3.500000000000001
 20
5.405813207414514
 30
0.0
 10
3.500000000000001
 20
4.690988894808179
 30
0.0
 10
3.500000000000001
 20
3.7409388111524002
 30
0.0
 10
3.5000000000000004
 20
2.6033024347053484
 30
0.0
 10
3.5
 20
1.335125603737886
 30
0.0
 10
3.5
 20
0.0
 30
0.0
 10
3.4999999999999996
 20
-1.3351256037378865
 30
0.0
 10
3.499999999999999
 20
-2.6033024347053493
 30
0.0
 10
3.499999999999999
 20
-3.740938811152401
 30
0.0
 10
3.499999999999999
 20
-4.6909888948081795
 30
0.0
 10
3.4999999999999987
 20
-5.405813207414514
 30
0.0
 10
3.4999999999999987
 20
-5.849567473090943
 30
0.0
 10
3.4999999999999987
 20
-6.0
 30
0.0
  0
SPLINE
  5
68
330
17
100
AcDbEntity
  8
HIDDEN
100
AcDbSpline
 70
0
 71
3
 72
38
 73
34
 74
0
 40
0.0
 40
0.0
 40
0.0
 40
0.0
 40
0.07142857142857185
 40
0.07142857142857185
 40
0.07142857142857185
 40
0.1428571428571437
 40
0.1428571428571437
 40
0.1428571428571437
 40
0.21428571428571558
 40
0.21428571428571558
 40
0.21428571428571558
 40
0.2857142857142874
 40
0.2857142857142874
 40
0.2857142857142874
 40
0.3571428571428593
 40
0.3571428571428593
 40
0.3571428571428593
 40
0.42857142857143116
 40
0.42857142857143116
 40
0.42857142857143116
 40
0.500000000000003
 40
0.500000000000003
 40
0.500000000000003
 40
0.5714285714285748
 40
0.5714285714285748
 40
0.5714285714285748
 40
0.6428571428571468
 40
0.6428571428571468
 40
0.6428571428571468
 40
0.7142857142857186
 40
0.7142857142857186
 40
0.7142857142857186
 40
1.0
 40
1.0
 40
1.0
 40
1.0
 10
3.499999999999999
 20
-4.634379810483568
 30
0.0
 10
3.499999999999998
 20
-4.55128132760889
 30
0.0
 10
3.499999999999999
 20
-4.468182844734213
 30
0.0
 10
3.5
 20
-4.385084361859537
 30
0.0
 10
3.499999999999997
 20
-4.296178362253949
 30
0.0
 10
3.4999999999999996
 20
-4.2072723626483715
 30
0.0
 10
3.499999999999999
 20
-4.118366363042785
 30
0.0
 10
3.499999999999998
 20
-4.024006082610724
 30
0.0
 10
3.4999999999999996
 20
-3.9296458021786687
 30
0.0
 10
3.499999999999999
 20
-3.8352855217466075
 30
0.0
 10
3.5000000000000013
 20
-3.7358458670089916
 30
0.0
 10
3.4999999999999982
 20
-3.6364062122713654
 30
0.0
 10
3.499999999999999
 20
-3.5369665575337477
 30
0.0
 10
3.499999999999998
 20
-3.4328426160722065
 30
0.0
 10
3.499999999999999
 20
-3.3287186746106663
 30
0.0
 10
3.5
 20
-3.224594733149127
 30
0.0
 10
3.4999999999999964
 20
-3.1162002038681016
 30
0.0
 10
3.5
 20
-3.0078056745870834
 30
0.0
 10
3.5
 20
-2.899411145306061
 30
0.0
 10
3.499999999999997
 20
-2.787176694749499
 30
0.0
 10
3.500000000000001
 20
-2.6749422441929394
 30
0.0
 10
3.4999999999999996
 20
-2.5627077936363776
 30
0.0
 10
3.500000000000003
 20
-2.447079344889633
 30
0.0
 10
3.499999999999998
 20
-2.331450896142881
 30
0.0
 10
3.4999999999999996
 20
-2.215822447396135
 30
0.0
 10
3.4999999999999982
 20
-2.097259408371512
 30
0.0
 10
3.5000000000000004
 20
-1.9786963693468926
 30
0.0
 10
3.5000000000000004
 20
-1.8601333303222711
 30
0.0
 10
3.4999999999999973
 20
-1.7391067684675003
 30
0.0
 10
3.5000000000000004
 20
-1.6180802066127347
 30
0.0
 10
3.5
 20
-1.4970536447579654
 30
0.0
 10
3.4999999999999973
 20
-1.0076236815370179
 30
0.0
 10
3.500000000000002
 20
-0.504543706164945
 30
0.0
 10
3.5
 20
-2.220446049250313e-15
 30
0.0
  0
LINE
  5
69
330
17
100
AcDbEntity
  8
HIDDEN
100
AcDbLine
 10
3.5
 20
-4.634379810483566
 30
0.0
 11
3.5
 21
0.0
 31
0.0
  0
SPLINE
  5
6A
330
17
100
AcDbEntity
  8
HIDDEN
100
AcDbSpline
 70
0
 71
1
 72
17
 73
15
 74
0
 40
0.0
 40
0.0
 40
0.1121997376282069
 40
0.2243994752564138
 40
0.3365992128846207
 40
0.4487989505128276
 40
0.5609986881410345
 40
0.6731984257692414
 40
0.7853981633974483
 40
0.8975979010256552
 40
1.009797638653862
 40
1.121997376282069
 40
1.2341971139102759
 40
1.3463968515384828
 40
1.4585965891666897
 40
1.5707963267948966
 40
1.5707963267948966
 10
3.5
 20
0.0
 30
0.0
 10
3.5
 20
1.7914316176529255
 30
0.0
 10
3.5
 20
3.5603349433010303
 30
0.0
 10
3.5
 20
5.284464991282673
 30
0.0
 10
3.5
 20
6.942139825880929
 30
0.0
 10
3.5
 20
8.512513224245385
 30
0.0
 10
3.5
 20
9.975836829739734
 30
0.0
 10
3.5
 20
11.31370849898476
 30
0.0
 10
3.5
 20
12.509303719488479
 30
0.0
 10
3.5
 20
13.547587187652546
 30
0.0
 10
3.5
 20
14.415501886438708
 30
0.0
 10
3.5
 20
15.102133284933881
 30
0.0
 10
3.5
 20
15.598846594909178
 30
0.0
 10
3.5
 20
15.899395358291883
 30
0.0
 10
3.5
 20
16.0
 30
0.0
  0
SPLINE
  5
6B
330
17
100
AcDbEntity
  8
HIDDEN
100
AcDbSpline
 70
0
 71
1
 72
17
 73
15
 74
0
 40
0.0
 40
0.0
 40
0.07142857142857142
 40
0.14285714285714285
 40
0.21428571428571427
 40
0.2857142857142857
 40
0.35714285714285715
 40
0.42857142857142855
 40
0.5
 40
0.5714285714285714
 40
0.6428571428571429
 40
0.7142857142857143
 40
0.7857142857142857
 40
0.8571428571428571
 40
0.9285714285714286
 40
1.0
 40
1.0
 10
3.5
 20
16.0
 30
0.0
 10
3.5
 20
15.899395358291882
 30
0.0
 10
3.5
 20
15.59884659490918
 30
0.0
 10
3.5
 20
15.102133284933881
 30
0.0
 10
3.5
 20
14.415501886438706
 30
0.0
 10
3.5
 20
13.547587187652546
 30
0.0
 10
3.5
 20
12.509303719488479
 30
0.0
 10
3.5
 20
11.313708498984763
 30
0.0
 10
3.5
 20
9.975836829739738
 30
0.0
 10
3.5
 20
8.512513224245387
 30
0.0
 10
3.5
 20
6.942139825880933
 30
0.0
 10
3.5
 20
5.284464991282675
 30
0.0
 10
3.5
 20
3.560334943301032
 30
0.0
 10
3.5
 20
1.7914316176529277
 30
0.0
 10
3.5
 20
1.9984014443252818e-15
 30
0.0
  0
SPLINE
  5
6C
330
17
100
AcDbEntity
  8
HIDDEN
100
AcDbSpline
 70
0
 71
3
 72
8
 73
4
 74
0
 40
0.0
 40
0.0
 40
0.0
 40
0.0
 40
1.0
 40
1.0
 40
1.0
 40
1.0
 10
3.5
 20
-110.0
 30
0.0
 10
3.500000000000003
 20
-112.05042122571318
 30
0.0
 10
3.4999999999999982
 20
-114.09892307286813
 30
0.0
 10
3.5
 20
-116.0
 30
0.0
  0
SPLINE
  5
6D
330
17
100
AcDbEntity
  8
HIDDEN
100
AcDbSpline
 70
0
 71
1
 72
17
 73
15
 74
0
 40
0.0
 40
0.0
 40
0.0714285714285715
 40
0.142857142857143
 40
0.2142857142857145
 40
0.285714285714286
 40
0.3571428571428575
 40
0.428571428571429
 40
0.5000000000000004
 40
0.571428571428572
 40
0.6428571428571435
 40
0.714285714285715
 40
0.7857142857142865
 40
0.857142857142858
 40
0.9285714285714294
 40
1.0
 40
1.0
 10
3.5
 20
-119.18577623840889
 30
0.0
 10
3.5
 20
-120.06115950797704
 30
0.0
 10
3.5
 20
-120.88932437221553
 30
0.0
 10
3.5
 20
-121.66638413951507
 30
0.0
 10
3.5
 20
-122.38869196151505
 30
0.0
 10
3.5
 20
-123.05285794826439
 30
0.0
 10
3.5
 20
-123.65576507744142
 30
0.0
 10
3.5
 20
-124.19458382296821
 30
0.0
 10
3.5
 20
-124.66678543436578
 30
0.0
 10
3.5
 20
-125.07015380452768
 30
0.0
 10
3.5
 20
-125.40279587021561
 30
0.0
 10
3.5
 20
-125.66315049646548
 30
0.0
 10
3.5
 20
-125.84999580320843
 30
0.0
 10
3.5
 20
-125.96245489972227
 30
0.0
 10
3.5
 20
-126.0
 30
0.0
  0
SPLINE
  5
6E
330
17
100
AcDbEntity
  8
HIDDEN
100
AcDbSpline
 70
0
 71
1
 72
17
 73
15
 74
0
 40
0.0
 40
0.0
 40
0.07142857142857156
 40
0.14285714285714313
 40
0.2142857142857147
 40
0.28571428571428625
 40
0.3571428571428578
 40
0.4285714285714294
 40
0.5000000000000009
 40
0.5714285714285725
 40
0.642857142857144
 40
0.7142857142857156
 40
0.7857142857142871
 40
0.8571428571428588
 40
0.9285714285714303
 40
1.0
 40
1.0
 10
3.5
 20
-126.0
 30
0.0
 10
3.5
 20
-125.96245489972227
 30
0.0
 10
3.5
 20
-125.84999580320843
 30
0.0
 10
3.5
 20
-125.66315049646548
 30
0.0
 10
3.5
 20
-125.40279587021561
 30
0.0
 10
3.5
 20
-125.07015380452768
 30
0.0
 10
3.5
 20
-124.66678543436578
 30
0.0
 10
3.5
 20
-124.19458382296821
 30
0.0
 10
3.5
 20
-123.6557650774414
 30
0.0
 10
3.5
 20
-123.0528579482644
 30
0.0
 10
3.5
 20
-122.38869196151504
 30
0.0
 10
3.5
 20
-121.66638413951506
 30
0.0
 10
3.5
 20
-120.88932437221553
 30
0.0
 10
3.5
 20
-120.06115950797704
 30
0.0
 10
3.5
 20
-119.18577623840889
 30
0.0
  0
LINE
  5
6F
330
17
100
AcDbEntity
  8
HIDDEN
100
AcDbLine
 10
3.5
 20
-110.0
 30
0.0
 11
3.5
 21
0.0
 31
0.0
  0
LINE
  5
70
330
17
100
AcDbEntity
  8
HIDDEN
100
AcDbLine
 10
-3.5
 20
-110.0
 30
0.0
 11
-3.5
 21
0.0
 31
0.0
  0
SPLINE
  5
71
330
17
100
AcDbEntity
  8
HIDDEN
100
AcDbSpline
 70
0
 71
1
 72
17
 73
15
 74
0
 40
0.0
 40
0.0
 40
0.1121997376282069
 40
0.2243994752564138
 40
0.3365992128846207
 40
0.4487989505128276
 40
0.5609986881410345
 40
0.6731984257692414
 40
0.7853981633974483
 40
0.8975979010256552
 40
1.009797638653862
 40
1.121997376282069
 40
1.2341971139102759
 40
1.3463968515384828
 40
1.4585965891666897
 40
1.5707963267948966
 40
1.5707963267948966
 10
-3.5
 20
0.0
 30
0.0
 10
-3.5
 20
1.7914316176529255
 30
0.0
 10
-3.5
 20
3.5603349433010303
 30
0.0
 10
-3.5
 20
5.284464991282673
 30
0.0
 10
-3.5
 20
6.942139825880929
 30
0.0
 10
-3.5
 20
8.512513224245385
 30
0.0
 10
-3.5
 20
9.975836829739734
 30
0.0
 10
-3.5
 20
11.31370849898476
 30
0.0
 10
-3.5
 20
12.509303719488479
 30
0.0
 10
-3.5
 20
13.547587187652546
 30
0.0
 10
-3.5
 20
14.415501886438708
 30
0.0
 10
-3.5
 20
15.102133284933881
 30
0.0
 10
-3.5
 20
15.598846594909178
 30
0.0
 10
-3.5
 20
15.899395358291883
 30
0.0
 10
-3.5
 20
16.0
 30
0.0
  0
SPLINE
  5
72
330
17
100
AcDbEntity
  8
HIDDEN
100
AcDbSpline
 70
0
 71
1
 72
17
 73
15
 74
0
 40
0.0
 40
0.0
 40
0.07142857142857142
 40
0.14285714285714285
 40
0.21428571428571427
 40
0.2857142857142857
 40
0.35714285714285715
 40
0.42857142857142855
 40
0.5
 40
0.5714285714285714
 40
0.6428571428571429
 40
0.7142857142857143
 40
0.7857142857142857
 40
0.8571428571428571
 40
0.9285714285714286
 40
1.0
 40
1.0
 10
-3.5
 20
16.0
 30
0.0
 10
-3.5
 20
15.899395358291882
 30
0.0
 10
-3.5
 20
15.59884659490918
 30
0.0
 10
-3.5
 20
15.102133284933881
 30
0.0
 10
-3.5
 20
14.415501886438706
 30
0.0
 10
-3.5
 20
13.547587187652546
 30
0.0
 10
-3.5
 20
12.509303719488479
 30
0.0
 10
-3.5
 20
11.313708498984763
 30
0.0
 10
-3.5
 20
9.975836829739738
 30
0.0
 10
-3.5
 20
8.512513224245387
 30
0.0
 10
-3.5
 20
6.942139825880933
 30
0.0
 10
-3.5
 20
5.284464991282675
 30
0.0
 10
-3.5
 20
3.560334943301032
 30
0.0
 10
-3.5
 20
1.7914316176529277
 30
0.0
 10
-3.5
 20
1.9984014443252818e-15
 30
0.0
  0
SPLINE
  5
73
330
17
100
AcDbEntity
  8
HIDDEN
100
AcDbSpline
 70
0
 71
3
 72
8
 73
4
 74
0
 40
0.0
 40
0.0
 40
0.0
 40
0.0
 40
1.0
 40
1.0
 40
1.0
 40
1.0
 10
-3.5
 20
-110.0
 30
0.0
 10
-3.500000000000003
 20
-112.05042122571318
 30
0.0
 10
-3.4999999999999982
 20
-114.09892307286813
 30
0.0
 10
-3.5
 20
-116.0
 30
0.0
  0
SPLINE
  5
74
330
17
100
AcDbEntity
  8
HIDDEN
100
AcDbSpline
 70
0
 71
1
 72
17
 73
15
 74
0
 40
0.0
 40
0.0
 40
0.07142857142857147
 40
0.14285714285714293
 40
0.21428571428571438
 40
0.28571428571428537
 40
0.3571428571428568
 40
0.4285714285714283
 40
0.4999999999999998
 40
0.5714285714285712
 40
0.6428571428571427
 40
0.7142857142857142
 40
0.7857142857142856
 40
0.8571428571428571
 40
0.9285714285714285
 40
1.0
 40
1.0
 10
-3.5
 20
-119.18577623840872
 30
0.0
 10
-3.5
 20
-120.0611595079769
 30
0.0
 10
-3.5
 20
-120.88932437221538
 30
0.0
 10
-3.5
 20
-121.66638413951497
 30
0.0
 10
-3.5
 20
-122.38869196151495
 30
0.0
 10
-3.5
 20
-123.05285794826432
 30
0.0
 10
-3.5
 20
-123.65576507744134
 30
0.0
 10
-3.5
 20
-124.19458382296818
 30
0.0
 10
-3.5
 20
-124.66678543436575
 30
0.0
 10
-3.5
 20
-125.07015380452766
 30
0.0
 10
-3.5
 20
-125.40279587021558
 30
0.0
 10
-3.5
 20
-125.66315049646545
 30
0.0
 10
-3.5
 20
-125.84999580320843
 30
0.0
 10
-3.5
 20
-125.96245489972227
 30
0.0
 10
-3.5
 20
-126.0
 30
0.0
  0
SPLINE
  5
75
330
17
100
AcDbEntity
  8
HIDDEN
100
AcDbSpline
 70
0
 71
1
 72
17
 73
15
 74
0
 40
0.0
 40
0.0
 40
0.07142857142857156
 40
0.14285714285714313
 40
0.2142857142857147
 40
0.28571428571428625
 40
0.3571428571428578
 40
0.4285714285714294
 40
0.5000000000000009
 40
0.5714285714285725
 40
0.642857142857144
 40
0.7142857142857156
 40
0.7857142857142871
 40
0.8571428571428588
 40
0.9285714285714303
 40
1.0
 40
1.0
 10
-3.5
 20
-126.0
 30
0.0
 10
-3.5
 20
-125.96245489972227
 30
0.0
 10
-3.5
 20
-125.84999580320843
 30
0.0
 10
-3.5
 20
-125.66315049646545
 30
0.0
 10
-3.5
 20
-125.4027958702156
 30
0.0
 10
-3.5
 20
-125.07015380452765
 30
0.0
 10
-3.5
 20
-124.66678543436575
 30
0.0
 10
-3.5
 20
-124.19458382296818
 30
0.0
 10
-3.5
 20
-123.65576507744134
 30
0.0
 10
-3.5
 20
-123.05285794826432
 30
0.0
 10
-3.5
 20
-122.38869196151495
 30
0.0
 10
-3.5
 20
-121.66638413951497
 30
0.0
 10
-3.5
 20
-120.88932437221538
 30
0.0
 10
-3.5
 20
-120.0611595079769
 30
0.0
 10
-3.5
 20
-119.18577623840875
 30
0.0
  0
LINE
  5
76
330
17
100
AcDbEntity
  8
HIDDEN
100
AcDbLine
 10
-3.5
 20
-4.634379810483722
 30
0.0
 11
-3.5
 21
0.0
 31
0.0
  0
LINE
  5
77
330
17
100
AcDbEntity
  8
HIDDEN
100
AcDbLine
 10
-3.5
 20
-104.0
 30
0.0
 11
-8.53287181000011
 21
-104.0
 31
0.0
  0
LINE
  5
78
330
17
100
AcDbEntity
  8
HIDDEN
100
AcDbLine
 10
-3.5
 20
-116.0
 30
0.0
 11
-7.879997185415778
 21
-116.0
 31
0.0
  0
LINE
  5
79
330
17
100
AcDbEntity
  8
HIDDEN
100
AcDbLine
 10
8.532871808454297
 20
-104.0
 30
0.0
 11
3.5
 21
-104.0
 31
0.0
  0
LINE
  5
7A
330
17
100
AcDbEntity
  8
HIDDEN
100
AcDbLine
 10
7.8799971587322215
 20
-116.0
 30
0.0
 11
3.5
 21
-116.0
 31
0.0
  0
LINE
  5
7B
330
17
100
AcDbEntity
  8
HIDDEN
100
AcDbLine
 10
-3.5
 20
6.000000000000001
 30
0.0
 11
-10.402799289525351
 21
6.000000000000003
 31
0.0
  0
LINE
  5
7C
330
17
100
AcDbEntity
  8
HIDDEN
100
AcDbLine
 10
-3.5
 20
-5.999999999999999
 30
0.0
 11
-10.592194845026427
 21
-5.999999999999997
 31
0.0
  0
LINE
  5
7D
330
17
100
AcDbEntity
  8
HIDDEN
100
AcDbLine
 10
10.402799221906795
 20
5.999999999999997
 30
0.0
 11
3.5
 21
5.999999999999999
 31
0.0
  0
LINE
  5
7E
330
17
100
AcDbEntity
  8
HIDDEN
100
AcDbLine
 10
10.592194845152143
 20
-6.000000000000003
 30
0.0
 11
3.5
 21
-6.000000000000001
 31
0.0
  0
LINE
  5
7F
330
17
100
AcDbEntity
  8
HIDDEN
100
AcDbLine
 10
-3.5
 20
16.0
 30
0.0
 11
3.5
 21
16.0
 31
0.0
  0
LINE
  5
80
330
17
100
AcDbEntity
  8
HIDDEN
100
AcDbLine
 10
-3.5
 20
-126.0
 30
0.0
 11
3.5
 21
-126.0
 31
0.0
  0
LINE
  5
81
330
17
100
AcDbEntity
  8
HIDDEN
100
AcDbLine
 10
3.5
 20
0.0
 30
0.0
 11
-3.5
 21
0.0
 31
0.0
  0
LINE
  5
82
330
17
100
AcDbEntity
  8
HIDDEN
100
AcDbLine
 10
3.5
 20
0.0
 30
0.0
 11
-3.5
 21
0.0
 31
0.0
  0
ENDSEC
  0
SECTION
  2
OBJECTS
  0
DICTIONARY
  5
A
330
0
100
AcDbDictionary
281
1
  3
ACAD_COLOR
350
B
  3
ACAD_GROUP
350
C
  3
ACAD_LAYOUT
350
D
  3
ACAD_MATERIAL
350
E
  3
ACAD_MLEADERSTYLE
350
F
  3
ACAD_MLINESTYLE
350
10
  3
ACAD_PLOTSETTINGS
350
11
  3
ACAD_PLOTSTYLENAME
350
12
  3
ACAD_SCALELIST
350
14
  3
ACAD_TABLESTYLE
350
15
  3
ACAD_VISUALSTYLE
350
16
  3
EZDXF_META
350
2D
  0
DICTIONARY
  5
B
330
A
100
AcDbDictionary
281
1
  0
DICTIONARY
  5
C
330
A
100
AcDbDictionary
281
1
  0
DICTIONARY
  5
D
330
A
100
AcDbDictionary
281
1
  3
Model
350
1A
  3
Layout1
350
1E
  0
DICTIONARY
  5
E
330
A
100
AcDbDictionary
281
1
  3
ByBlock
350
1F
  3
ByLayer
350
20
  3
Global
350
21
  0
DICTIONARY
  5
F
330
A
100
AcDbDictionary
281
1
  3
Standard
350
2C
  0
DICTIONARY
  5
10
330
A
100
AcDbDictionary
281
1
  3
Standard
350
22
  0
DICTIONARY
  5
11
330
A
100
AcDbDictionary
281
1
  0
ACDBDICTIONARYWDFLT
  5
12
330
A
100
AcDbDictionary
281
1
  3
Normal
350
13
100
AcDbDictionaryWithDefault
340
13
  0
ACDBPLACEHOLDER
  5
13
330
12
  0
DICTIONARY
  5
14
330
A
100
AcDbDictionary
281
1
  0
DICTIONARY
  5
15
330
A
100
AcDbDictionary
281
1
  0
DICTIONARY
  5
16
330
A
100
AcDbDictionary
281
1
  0
LAYOUT
  5
1A
330
D
100
AcDbPlotSettings
  1

  4
A3
  6

 40
7.5
 41
20.0
 42
7.5
 43
20.0
 44
420.0
 45
297.0
 46
0.0
 47
0.0
 48
0.0
 49
0.0
140
0.0
141
0.0
142
1.0
143
1.0
 70
1024
 72
1
 73
0
 74
5
  7

 75
16
 76
0
 77
2
 78
300
147
1.0
148
0.0
149
0.0
100
AcDbLayout
  1
Model
 70
1
 71
0
 10
0.0
 20
0.0
 11
420.0
 21
297.0
 12
0.0
 22
0.0
 32
0.0
 14
1e+20
 24
1e+20
 34
1e+20
 15
-1e+20
 25
-1e+20
 35
-1e+20
146
0.0
 13
0.0
 23
0.0
 33
0.0
 16
1.0
 26
0.0
 36
0.0
 17
0.0
 27
1.0
 37
0.0
 76
1
330
17
  0
LAYOUT
  5
1E
330
D
100
AcDbPlotSettings
  1

  4
A3
  6

 40
7.5
 41
20.0
 42
7.5
 43
20.0
 44
420.0
 45
297.0
 46
0.0
 47
0.0
 48
0.0
 49
0.0
140
0.0
141
0.0
142
1.0
143
1.0
 70
0
 72
1
 73
0
 74
5
  7

 75
16
 76
0
 77
2
 78
300
147
1.0
148
0.0
149
0.0
100
AcDbLayout
  1
Layout1
 70
1
 71
1
 10
0.0
 20
0.0
 11
420.0
 21
297.0
 12
0.0
 22
0.0
 32
0.0
 14
1e+20
 24
1e+20
 34
1e+20
 15
-1e+20
 25
-1e+20
 35
-1e+20
146
0.0
 13
0.0
 23
0.0
 33
0.0
 16
1.0
 26
0.0
 36
0.0
 17
0.0
 27
1.0
 37
0.0
 76
1
330
1B
  0
MATERIAL
  5
1F
102
{ACAD_REACTORS
330
E
102
}
330
E
100
AcDbMaterial
  1
ByBlock
  2

 70
0
 40
1.0
 71
1
 41
1.0
 91
-1023410177
 42
1.0
 72
1
  3

 73
1
 74
1
 75
1
 44
0.5
 73
0
 45
1.0
 46
1.0
 77
1
  4

 78
1
 79
1
170
1
 48
1.0
171
1
  6

172
1
173
1
174
1
140
1.0
141
1.0
175
1
  7

176
1
177
1
178
1
143
1.0
179
1
  8

270
1
271
1
272
1
145
1.0
146
1.0
273
1
  9

274
1
275
1
276
1
 42
1.0
 72
1
  3

 73
1
 74
1
 75
1
 94
63
  0
MATERIAL
  5
20
102
{ACAD_REACTORS
330
E
102
}
330
E
100
AcDbMaterial
  1
ByLayer
  2

 70
0
 40
1.0
 71
1
 41
1.0
 91
-1023410177
 42
1.0
 72
1
  3

 73
1
 74
1
 75
1
 44
0.5
 73
0
 45
1.0
 46
1.0
 77
1
  4

 78
1
 79
1
170
1
 48
1.0
171
1
  6

172
1
173
1
174
1
140
1.0
141
1.0
175
1
  7

176
1
177
1
178
1
143
1.0
179
1
  8

270
1
271
1
272
1
145
1.0
146
1.0
273
1
  9

274
1
275
1
276
1
 42
1.0
 72
1
  3

 73
1
 74
1
 75
1
 94
63
  0
MATERIAL
  5
21
102
{ACAD_REACTORS
330
E
102
}
330
E
100
AcDbMaterial
  1
Global
  2

 70
0
 40
1.0
 71
1
 41
1.0
 91
-1023410177
 42
1.0
 72
1
  3

 73
1
 74
1
 75
1
 44
0.5
 73
0
 45
1.0
 46
1.0
 77
1
  4

 78
1
 79
1
170
1
 48
1.0
171
1
  6

172
1
173
1
174
1
140
1.0
141
1.0
175
1
  7

176
1
177
1
178
1
143
1.0
179
1
  8

270
1
271
1
272
1
145
1.0
146
1.0
273
1
  9

274
1
275
1
276
1
 42
1.0
 72
1
  3

 73
1
 74
1
 75
1
 94
63
  0
MLINESTYLE
  5
22
102
{ACAD_REACTORS
330
10
102
}
330
10
100
AcDbMlineStyle
  2
Standard
 70
0
  3

 62
256
 51
90.0
 52
90.0
 71
2
 49
0.5
 62
256
  6
BYLAYER
 49
-0.5
 62
256
  6
BYLAYER
  0
MLEADERSTYLE
  5
2C
102
{ACAD_REACTORS
330
F
102
}
330
F
100
AcDbMLeaderStyle
179
2
170
2
171
1
172
0
 90
2
 40
0.0
 41
0.0
173
1
 91
-1056964608
 92
-2
290
1
 42
2.0
291
1
 43
8.0
  3
Standard
 44
4.0
300

342
29
174
1
175
1
176
0
178
1
 93
-1056964608
 45
4.0
292
0
297
0
 46
4.0
 94
-1056964608
 47
1.0
 49
1.0
140
1.0
294
1
141
0.0
177
0
142
1.0
295
0
296
0
143
3.75
271
0
272
9
273
9
  0
DICTIONARY
  5
2D
330
A
100
AcDbDictionary
280
1
281
1
  3
CREATED_BY_EZDXF
350
2E
  3
WRITTEN_BY_EZDXF
350
86
  0
DICTIONARYVAR
  5
2E
330
2D
100
DictionaryVariables
280
0
  1
1.4.4 @ 2026-10-07T09:44:38.554422+00:00
  0
DICTIONARYVAR
  5
86
330
2D
100
DictionaryVariables
280
0
  1
1.4.4 @ 2026-10-07T09:44:38.962618+00:00
  0
ENDSEC
  0
EOF
