  0
SECTION
  2
HEADER
  9
$ACADVER
  1
AC1027
  9
$ACADMAINTVER
 70
105
  9
$DWGCODEPAGE
  3
ANSI_1252
  9
$LASTSAVEDBY
  1
ezdxf
  9
$REQUIREDVERSIONS
160
0
  9
$INSBASE
 10
0.0
 20
0.0
 30
0.0
  9
$EXTMIN
 10
1e+20
 20
1e+20
 30
1e+20
  9
$EXTMAX
 10
-1e+20
 20
-1e+20
 30
-1e+20
  9
$LIMMIN
 10
0.0
 20
0.0
  9
$LIMMAX
 10
420.0
 20
297.0
  9
$ORTHOMODE
 70
0
  9
$REGENMODE
 70
1
  9
$FILLMODE
 70
1
  9
$QTEXTMODE
 70
0
  9
$MIRRTEXT
 70
1
  9
$LTSCALE
 40
1.0
  9
$ATTMODE
 70
1
  9
$TEXTSIZE
 40
2.5
  9
$TRACEWID
 40
1.0
  9
$TEXTSTYLE
  7
Standard
  9
$CLAYER
  8
0
  9
$CELTYPE
  6
ByLayer
  9
$CECOLOR
 62
256
  9
$CELTSCALE
 40
1.0
  9
$DISPSILH
 70
0
  9
$DIMSCALE
 40
1.0
  9
$DIMASZ
 40
2.5
  9
$DIMEXO
 40
0.625
  9
$DIMDLI
 40
3.75
  9
$DIMRND
 40
0.0
  9
$DIMDLE
 40
0.0
  9
$DIMEXE
 40
1.25
  9
$DIMTP
 40
0.0
  9
$DIMTM
 40
0.0
  9
$DIMTXT
 40
2.5
  9
$DIMCEN
 40
2.5
  9
$DIMTSZ
 40
0.0
  9
$DIMTOL
 70
0
  9
$DIMLIM
 70
0
  9
$DIMTIH
 70
0
  9
$DIMTOH
 70
0
  9
$DIMSE1
 70
0
  9
$DIMSE2
 70
0
  9
$DIMTAD
 70
1
  9
$DIMZIN
 70
8
  9
$DIMBLK
  1

  9
$DIMASO
 70
1
  9
$DIMSHO
 70
1
  9
$DIMPOST
  1

  9
$DIMAPOST
  1

  9
$DIMALT
 70
0
  9
$DIMALTD
 70
3
  9
$DIMALTF
 40
0.03937007874
  9
$DIMLFAC
 40
1.0
  9
$DIMTOFL
 70
1
  9
$DIMTVP
 40
0.0
  9
$DIMTIX
 70
0
  9
$DIMSOXD
 70
0
  9
$DIMSAH
 70
0
  9
$DIMBLK1
  1

  9
$DIMBLK2
  1

  9
$DIMSTYLE
  2
ISO-25
  9
$DIMCLRD
 70
0
  9
$DIMCLRE
 70
0
  9
$DIMCLRT
 70
0
  9
$DIMTFAC
 40
1.0
  9
$DIMGAP
 40
0.625
  9
$DIMJUST
 70
0
  9
$DIMSD1
 70
0
  9
$DIMSD2
 70
0
  9
$DIMTOLJ
 70
0
  9
$DIMTZIN
 70
8
  9
$DIMALTZ
 70
0
  9
$DIMALTTZ
 70
0
  9
$DIMUPT
 70
0
  9
$DIMDEC
 70
2
  9
$DIMTDEC
 70
2
  9
$DIMALTU
 70
2
  9
$DIMALTTD
 70
3
  9
$DIMTXSTY
  7
Standard
  9
$DIMAUNIT
 70
0
  9
$DIMADEC
 70
0
  9
$DIMALTRND
 40
0.0
  9
$DIMAZIN
 70
0
  9
$DIMDSEP
 70
44
  9
$DIMATFIT
 70
3
  9
$DIMFRAC
 70
0
  9
$DIMLDRBLK
  1

  9
$DIMLUNIT
 70
2
  9
$DIMLWD
 70
-2
  9
$DIMLWE
 70
-2
  9
$DIMTMOVE
 70
0
  9
$DIMFXL
 40
1.0
  9
$DIMFXLON
 70
0
  9
$DIMJOGANG
 40
0.785398163397
  9
$DIMTFILL
 70
0
  9
$DIMTFILLCLR
 70
0
  9
$DIMARCSYM
 70
0
  9
$DIMLTYPE
  6

  9
$DIMLTEX1
  6

  9
$DIMLTEX2
  6

  9
$DIMTXTDIRECTION
 70
0
  9
$LUNITS
 70
2
  9
$LUPREC
 70
4
  9
$SKETCHINC
 40
1.0
  9
$FILLETRAD
 40
10.0
  9
$AUNITS
 70
0
  9
$AUPREC
 70
2
  9
$MENU
  1
.
  9
$ELEVATION
 40
0.0
  9
$PELEVATION
 40
0.0
  9
$THICKNESS
 40
0.0
  9
$LIMCHECK
 70
0
  9
$CHAMFERA
 40
0.0
  9
$CHAMFERB
 40
0.0
  9
$CHAMFERC
 40
0.0
  9
$CHAMFERD
 40
0.0
  9
$SKPOLY
 70
0
  9
$TDCREATE
 40
2461322.559675926
  9
$TDUCREATE
 40
2458532.153996898
  9
$TDUPDATE
 40
2461322.5596875
  9
$TDUUPDATE
 40
2458532.1544311
  9
$TDINDWG
 40
0.0
  9
$TDUSRTIMER
 40
0.0
  9
$USRTIMER
 70
1
  9
$ANGBASE
 50
0.0
  9
$ANGDIR
 70
0
  9
$PDMODE
 70
0
  9
$PDSIZE
 40
0.0
  9
$PLINEWID
 40
0.0
  9
$SPLFRAME
 70
0
  9
$SPLINETYPE
 70
6
  9
$SPLINESEGS
 70
8
  9
$HANDSEED
  5
88
  9
$SURFTAB1
 70
6
  9
$SURFTAB2
 70
6
  9
$SURFTYPE
 70
6
  9
$SURFU
 70
6
  9
$SURFV
 70
6
  9
$UCSBASE
  2

  9
$UCSNAME
  2

  9
$UCSORG
 10
0.0
 20
0.0
 30
0.0
  9
$UCSXDIR
 10
1.0
 20
0.0
 30
0.0
  9
$UCSYDIR
 10
0.0
 20
1.0
 30
0.0
  9
$UCSORTHOREF
  2

  9
$UCSORTHOVIEW
 70
0
  9
$UCSORGTOP
 10
0.0
 20
0.0
 30
0.0
  9
$UCSORGBOTTOM
 10
0.0
 20
0.0
 30
0.0
  9
$UCSORGLEFT
 10
0.0
 20
0.0
 30
0.0
  9
$UCSORGRIGHT
 10
0.0
 20
0.0
 30
0.0
  9
$UCSORGFRONT
 10
0.0
 20
0.0
 30
0.0
  9
$UCSORGBACK
 10
0.0
 20
0.0
 30
0.0
  9
$PUCSBASE
  2

  9
$PUCSNAME
  2

  9
$PUCSORG
 10
0.0
 20
0.0
 30
0.0
  9
$PUCSXDIR
 10
1.0
 20
0.0
 30
0.0
  9
$PUCSYDIR
 10
0.0
 20
1.0
 30
0.0
  9
$PUCSORTHOREF
  2

  9
$PUCSORTHOVIEW
 70
0
  9
$PUCSORGTOP
 10
0.0
 20
0.0
 30
0.0
  9
$PUCSORGBOTTOM
 10
0.0
 20
0.0
 30
0.0
  9
$PUCSORGLEFT
 10
0.0
 20
0.0
 30
0.0
  9
$PUCSORGRIGHT
 10
0.0
 20
0.0
 30
0.0
  9
$PUCSORGFRONT
 10
0.0
 20
0.0
 30
0.0
  9
$PUCSORGBACK
 10
0.0
 20
0.0
 30
0.0
  9
$USERI1
 70
0
  9
$USERI2
 70
0
  9
$USERI3
 70
0
  9
$USERI4
 70
0
  9
$USERI5
 70
0
  9
$USERR1
 40
0.0
  9
$USERR2
 40
0.0
  9
$USERR3
 40
0.0
  9
$USERR4
 40
0.0
  9
$USERR5
 40
0.0
  9
$WORLDVIEW
 70
1
  9
$SHADEDGE
 70
3
  9
$SHADEDIF
 70
70
  9
$TILEMODE
 70
1
  9
$MAXACTVP
 70
64
  9
$PINSBASE
 10
0.0
 20
0.0
 30
0.0
  9
$PLIMCHECK
 70
0
  9
$PEXTMIN
 10
1e+20
 20
1e+20
 30
1e+20
  9
$PEXTMAX
 10
-1e+20
 20
-1e+20
 30
-1e+20
  9
$PLIMMIN
 10
0.0
 20
0.0
  9
$PLIMMAX
 10
420.0
 20
297.0
  9
$UNITMODE
 70
0
  9
$VISRETAIN
 70
1
  9
$PLINEGEN
 70
0
  9
$PSLTSCALE
 70
1
  9
$TREEDEPTH
 70
3020
  9
$CMLSTYLE
  2
Standard
  9
$CMLJUST
 70
0
  9
$CMLSCALE
 40
20.0
  9
$PROXYGRAPHICS
 70
1
  9
$MEASUREMENT
 70
1
  9
$CELWEIGHT
370
-1
  9
$ENDCAPS
280
0
  9
$JOINSTYLE
280
0
  9
$LWDISPLAY
290
0
  9
$INSUNITS
 70
4
  9
$HYPERLINKBASE
  1

  9
$STYLESHEET
  1

  9
$XEDIT
290
1
  9
$CEPSNTYPE
380
0
  9
$PSTYLEMODE
290
1
  9
$FINGERPRINTGUID
  2
{79112F80-C68E-46CE-9622-FB156FC72097}
  9
$VERSIONGUID
  2
{D10B39E1-7607-4308-B89B-6B68D0AD08AC}
  9
$EXTNAMES
290
1
  9
$PSVPSCALE
 40
0.0
  9
$OLESTARTUP
290
0
  9
$SORTENTS
280
127
  9
$INDEXCTL
280
0
  9
$HIDETEXT
280
1
  9
$XCLIPFRAME
280
1
  9
$HALOGAP
280
0
  9
$OBSCOLOR
 70
257
  9
$OBSLTYPE
280
0
  9
$INTERSECTIONDISPLAY
280
0
  9
$INTERSECTIONCOLOR
 70
257
  9
$DIMASSOC
280
2
  9
$PROJECTNAME
  1

  9
$CAMERADISPLAY
290
0
  9
$LENSLENGTH
 40
50.0
  9
$CAMERAHEIGHT
 40
0.0
  9
$STEPSPERSEC
 40
24.0
  9
$STEPSIZE
 40
100.0
  9
$3DDWFPREC
 40
2.0
  9
$PSOLWIDTH
 40
0.005
  9
$PSOLHEIGHT
 40
0.08
  9
$LOFTANG1
 40
1.570796326795
  9
$LOFTANG2
 40
1.570796326795
  9
$LOFTMAG1
 40
0.0
  9
$LOFTMAG2
 40
0.0
  9
$LOFTPARAM
 70
7
  9
$LOFTNORMALS
280
1
  9
$LATITUDE
 40
37.795
  9
$LONGITUDE
 40
-122.394
  9
$NORTHDIRECTION
 40
0.0
  9
$TIMEZONE
 70
-8000
  9
$LIGHTGLYPHDISPLAY
280
1
  9
$TILEMODELIGHTSYNCH
280
1
  9
$CMATERIAL
347
20
  9
$SOLIDHIST
280
0
  9
$SHOWHIST
280
1
  9
$DWFFRAME
280
2
  9
$DGNFRAME
280
2
  9
$REALWORLDSCALE
290
1
  9
$INTERFERECOLOR
 62
256
  9
$CSHADOW
280
0
  9
$SHADOWPLANELOCATION
 40
0.0
  0
ENDSEC
  0
SECTION
  2
CLASSES
  0
CLASS
  1
ACDBDICTIONARYWDFLT
  2
AcDbDictionaryWithDefault
  3
ObjectDBX Classes
 90
0
 91
0
280
0
281
0
  0
CLASS
  1
SUN
  2
AcDbSun
  3
SCENEOE
 90
1153
 91
0
280
0
281
0
  0
CLASS
  1
VISUALSTYLE
  2
AcDbVisualStyle
  3
ObjectDBX Classes
 90
4095
 91
0
280
0
281
0
  0
CLASS
  1
MATERIAL
  2
AcDbMaterial
  3
ObjectDBX Classes
 90
1153
 91
0
280
0
281
0
  0
CLASS
  1
SCALE
  2
AcDbScale
  3
ObjectDBX Classes
 90
1153
 91
0
280
0
281
0
  0
CLASS
  1
TABLESTYLE
  2
AcDbTableStyle
  3
ObjectDBX Classes
 90
4095
 91
0
280
0
281
0
  0
CLASS
  1
MLEADERSTYLE
  2
AcDbMLeaderStyle
  3
ACDB_MLEADERSTYLE_CLASS
 90
4095
 91
0
280
0
281
0
  0
CLASS
  1
DICTIONARYVAR
  2
AcDbDictionaryVar
  3
ObjectDBX Classes
 90
0
 91
0
280
0
281
0
  0
CLASS
  1
CELLSTYLEMAP
  2
AcDbCellStyleMap
  3
ObjectDBX Classes
 90
1152
 91
0
280
0
281
0
  0
CLASS
  1
MENTALRAYRENDERSETTINGS
  2
AcDbMentalRayRenderSettings
  3
SCENEOE
 90
1024
 91
0
280
0
281
0
  0
CLASS
  1
ACDBDETAILVIEWSTYLE
  2
AcDbDetailViewStyle
  3
ObjectDBX Classes
 90
1025
 91
0
280
0
281
0
  0
CLASS
  1
ACDBSECTIONVIEWSTYLE
  2
AcDbSectionViewStyle
  3
ObjectDBX Classes
 90
1025
 91
0
280
0
281
0
  0
CLASS
  1
RASTERVARIABLES
  2
AcDbRasterVariables
  3
ISM
 90
0
 91
0
280
0
281
0
  0
CLASS
  1
ACDBPLACEHOLDER
  2
AcDbPlaceHolder
  3
ObjectDBX Classes
 90
0
 91
0
280
0
281
0
  0
CLASS
  1
LAYOUT
  2
AcDbLayout
  3
ObjectDBX Classes
 90
0
 91
0
280
0
281
0
  0
ENDSEC
  0
SECTION
  2
TABLES
  0
TABLE
  2
VPORT
  5
8
330
0
100
AcDbSymbolTable
 70
1
  0
VPORT
  5
84
330
8
100
AcDbSymbolTableRecord
100
AcDbViewportTableRecord
  2
*Active
 70
0
 10
0.0
 20
0.0
 11
1.0
 21
1.0
 12
0.0
 22
2.0
 13
0.0
 23
0.0
 14
0.5
 24
0.5
 15
0.5
 25
0.5
 16
0.0
 26
0.0
 36
1.0
 17
0.0
 27
0.0
 37
0.0
 40
24.000000000000004
 41
1.34
 42
50.0
 43
0.0
 44
0.0
 50
0.0
 51
0.0
 71
0
 72
1000
 73
1
 74
3
 75
0
 76
0
 77
0
 78
0
281
0
 65
1
110
0.0
120
0.0
130
0.0
111
1.0
121
0.0
131
0.0
112
0.0
122
1.0
132
0.0
 79
0
146
0.0
  0
ENDTAB
  0
TABLE
  2
LTYPE
  5
2
330
0
100
AcDbSymbolTable
 70
4
  0
LTYPE
  5
24
330
2
100
AcDbSymbolTableRecord
100
AcDbLinetypeTableRecord
  2
ByBlock
 70
0
  3

 72
65
 73
0
 40
0.0
  0
LTYPE
  5
25
330
2
100
AcDbSymbolTableRecord
100
AcDbLinetypeTableRecord
  2
ByLayer
 70
0
  3

 72
65
 73
0
 40
0.0
  0
LTYPE
  5
26
330
2
100
AcDbSymbolTableRecord
100
AcDbLinetypeTableRecord
  2
Continuous
 70
0
  3

 72
65
 73
0
 40
0.0
  0
LTYPE
  5
30
330
2
100
AcDbSymbolTableRecord
100
AcDbLinetypeTableRecord
  2
ACAD_ISO02W100
 70
0
  3
ISO dash __ __ __ __ __ __ __ __ __ __ __ __ __
 72
65
 73
2
 40
15.0
 49
12.0
 74
0
 49
-3.0
 74
0
  0
ENDTAB
  0
TABLE
  2
LAYER
  5
1
330
0
100
AcDbSymbolTable
 70
4
  0
LAYER
  5
27
330
1
100
AcDbSymbolTableRecord
100
AcDbLayerTableRecord
  2
0
 70
0
 62
7
  6
Continuous
370
-3
390
13
347
21
  0
LAYER
  5
28
330
1
100
AcDbSymbolTableRecord
100
AcDbLayerTableRecord
  2
Defpoints
 70
0
 62
7
  6
Continuous
290
0
370
-3
390
13
347
21
  0
LAYER
  5
2F
330
1
100
AcDbSymbolTableRecord
100
AcDbLayerTableRecord
  2
VISIBLE
 70
0
 62
7
  6
Continuous
370
25
390
13
347
21
  0
LAYER
  5
31
330
1
100
AcDbSymbolTableRecord
100
AcDbLayerTableRecord
  2
HIDDEN
 70
0
 62
7
  6
ACAD_ISO02W100
370
13
390
13
347
21
  0
ENDTAB
  0
TABLE
  2
STYLE
  5
5
330
0
100
AcDbSymbolTable
 70
1
  0
STYLE
  5
29
330
5
100
AcDbSymbolTableRecord
100
AcDbTextStyleTableRecord
  2
Standard
 70
0
 40
0.0
 41
1.0
 50
0.0
 71
0
 42
2.5
  3
txt
  4

  0
ENDTAB
  0
TABLE
  2
VIEW
  5
7
330
0
100
AcDbSymbolTable
 70
0
  0
ENDTAB
  0
TABLE
  2
UCS
  5
6
330
0
100
AcDbSymbolTable
 70
0
  0
ENDTAB
  0
TABLE
  2
APPID
  5
3
330
0
100
AcDbSymbolTable
 70
3
  0
APPID
  5
2A
330
3
100
AcDbSymbolTableRecord
100
AcDbRegAppTableRecord
  2
ACAD
 70
0
  0
APPID
  5
85
330
3
100
AcDbSymbolTableRecord
100
AcDbRegAppTableRecord
  2
HATCHBACKGROUNDCOLOR
 70
0
  0
APPID
  5
86
330
3
100
AcDbSymbolTableRecord
100
AcDbRegAppTableRecord
  2
EZDXF
 70
0
  0
ENDTAB
  0
TABLE
  2
DIMSTYLE
  5
4
330
0
100
AcDbSymbolTable
 70
1
100
AcDbDimStyleTable
  0
DIMSTYLE
105
2B
330
4
100
AcDbSymbolTableRecord
100
AcDbDimStyleTableRecord
  2
Standard
 70
0
 40
1.0
 41
2.5
 42
0.625
 43
3.75
 44
1.25
 45
0.0
 46
0.0
 47
0.0
 48
0.0
 49
2.5
140
2.5
141
2.5
142
0.0
143
0.03937007874
144
1.0
145
0.0
146
1.0
147
0.625
148
0.0
 69
0
 70
0
 71
0
 72
0
 73
0
 74
0
 75
0
 76
0
 77
1
 78
8
 79
3
170
0
171
3
172
1
173
0
174
0
175
0
176
0
177
0
178
0
179
2
271
2
272
2
273
2
274
3
275
0
276
0
277
2
278
44
279
0
280
0
281
0
282
0
283
0
284
8
285
0
286
0
288
0
289
3
290
0
371
-2
372
-2
  0
ENDTAB
  0
TABLE
  2
BLOCK_RECORD
  5
9
330
0
100
AcDbSymbolTable
 70
2
  0
BLOCK_RECORD
  5
17
330
9
100
AcDbSymbolTableRecord
100
AcDbBlockTableRecord
  2
*Model_Space
340
1A
 70
0
280
1
281
0
  0
BLOCK_RECORD
  5
1B
330
9
100
AcDbSymbolTableRecord
100
AcDbBlockTableRecord
  2
*Paper_Space
340
1E
 70
0
280
1
281
0
  0
ENDTAB
  0
ENDSEC
  0
SECTION
  2
BLOCKS
  0
BLOCK
  5
18
330
17
100
AcDbEntity
  8
0
100
AcDbBlockBegin
  2
*Model_Space
 70
0
 10
0.0
 20
0.0
 30
0.0
  3
*Model_Space
  1

  0
ENDBLK
  5
19
330
17
100
AcDbEntity
  8
0
100
AcDbBlockEnd
  0
BLOCK
  5
1C
330
1B
100
AcDbEntity
  8
0
100
AcDbBlockBegin
  2
*Paper_Space
 70
0
 10
0.0
 20
0.0
 30
0.0
  3
*Paper_Space
  1

  0
ENDBLK
  5
1D
330
1B
100
AcDbEntity
  8
0
100
AcDbBlockEnd
  0
ENDSEC
  0
SECTION
  2
ENTITIES
  0
SPLINE
  5
32
330
17
100
AcDbEntity
  8
VISIBLE
100
AcDbSpline
 70
0
 71
1
 72
17
 73
15
 74
0
 40
0.0
 40
0.0
 40
0.1121997376282069
 40
0.2243994752564138
 40
0.3365992128846207
 40
0.4487989505128276
 40
0.5609986881410345
 40
0.6731984257692414
 40
0.7853981633974483
 40
0.8975979010256552
 40
1.009797638653862
 40
1.121997376282069
 40
1.2341971139102759
 40
1.3463968515384828
 40
1.4585965891666897
 40
1.5707963267948966
 40
1.5707963267948966
 10
0.0
 20
-7.3
 30
0.0
 10
2.687147426479388
 20
-7.3
 30
0.0
 10
5.340502414951546
 20
-7.3
 30
0.0
 10
7.92669748692401
 20
-7.3
 30
0.0
 10
10.413209738821395
 20
-7.3
 30
0.0
 10
12.768769836368076
 20
-7.3
 30
0.0
 10
14.963755244609604
 20
-7.3
 30
0.0
 10
16.970562748477136
 20
-7.3
 30
0.0
 10
18.763955579232714
 20
-7.3
 30
0.0
 10
20.32138078147882
 20
-7.3
 30
0.0
 10
21.623252829658057
 20
-7.3
 30
0.0
 10
22.65319992740082
 20
-7.3
 30
0.0
 10
23.398269892363768
 20
-7.3
 30
0.0
 10
23.849093037437825
 20
-7.3
 30
0.0
 10
24.0
 20
-7.3
 30
0.0
  0
SPLINE
  5
33
330
17
100
AcDbEntity
  8
VISIBLE
100
AcDbSpline
 70
0
 71
1
 72
17
 73
15
 74
0
 40
0.0
 40
0.0
 40
0.07142857142857142
 40
0.14285714285714285
 40
0.21428571428571427
 40
0.2857142857142857
 40
0.35714285714285715
 40
0.42857142857142855
 40
0.5
 40
0.5714285714285714
 40
0.6428571428571429
 40
0.7142857142857143
 40
0.7857142857142857
 40
0.8571428571428571
 40
0.9285714285714286
 40
1.0
 40
1.0
 10
-24.0
 20
-7.3
 30
0.0
 10
-23.84909303743782
 20
-7.3
 30
0.0
 10
-23.398269892363768
 20
-7.3
 30
0.0
 10
-22.653199927400827
 20
-7.3
 30
0.0
 10
-21.623252829658064
 20
-7.3
 30
0.0
 10
-20.321380781478823
 20
-7.3
 30
0.0
 10
-18.76395557923272
 20
-7.3
 30
0.0
 10
-16.970562748477143
 20
-7.3
 30
0.0
 10
-14.963755244609608
 20
-7.3
 30
0.0
 10
-12.768769836368083
 20
-7.3
 30
0.0
 10
-10.4132097388214
 20
-7.3
 30
0.0
 10
-7.9266974869240165
 20
-7.3
 30
0.0
 10
-5.340502414951551
 20
-7.3
 30
0.0
 10
-2.6871474264793944
 20
-7.3
 30
0.0
 10
-5.773159728050814e-15
 20
-7.3
 30
0.0
  0
SPLINE
  5
34
330
17
100
AcDbEntity
  8
VISIBLE
100
AcDbSpline
 70
0
 71
1
 72
17
 73
15
 74
0
 40
0.0
 40
0.0
 40
0.1121997376282069
 40
0.2243994752564138
 40
0.3365992128846207
 40
0.4487989505128276
 40
0.5609986881410345
 40
0.6731984257692414
 40
0.7853981633974483
 40
0.8975979010256552
 40
1.009797638653862
 40
1.121997376282069
 40
1.2341971139102759
 40
1.3463968515384828
 40
1.4585965891666897
 40
1.5707963267948966
 40
1.5707963267948966
 10
0.0
 20
7.3
 30
0.0
 10
2.687147426479388
 20
7.3
 30
0.0
 10
5.340502414951546
 20
7.3
 30
0.0
 10
7.92669748692401
 20
7.3
 30
0.0
 10
10.413209738821395
 20
7.3
 30
0.0
 10
12.768769836368076
 20
7.3
 30
0.0
 10
14.963755244609604
 20
7.3
 30
0.0
 10
16.970562748477136
 20
7.3
 30
0.0
 10
18.763955579232714
 20
7.3
 30
0.0
 10
20.32138078147882
 20
7.3
 30
0.0
 10
21.623252829658057
 20
7.3
 30
0.0
 10
22.65319992740082
 20
7.3
 30
0.0
 10
23.398269892363768
 20
7.3
 30
0.0
 10
23.849093037437825
 20
7.3
 30
0.0
 10
24.0
 20
7.3
 30
0.0
  0
SPLINE
  5
35
330
17
100
AcDbEntity
  8
VISIBLE
100
AcDbSpline
 70
0
 71
1
 72
17
 73
15
 74
0
 40
0.0
 40
0.0
 40
0.07142857142857142
 40
0.14285714285714285
 40
0.21428571428571427
 40
0.2857142857142857
 40
0.35714285714285715
 40
0.42857142857142855
 40
0.5
 40
0.5714285714285714
 40
0.6428571428571429
 40
0.7142857142857143
 40
0.7857142857142857
 40
0.8571428571428571
 40
0.9285714285714286
 40
1.0
 40
1.0
 10
-24.0
 20
7.3
 30
0.0
 10
-23.84909303743782
 20
7.3
 30
0.0
 10
-23.398269892363768
 20
7.3
 30
0.0
 10
-22.653199927400827
 20
7.3
 30
0.0
 10
-21.623252829658064
 20
7.3
 30
0.0
 10
-20.321380781478823
 20
7.3
 30
0.0
 10
-18.76395557923272
 20
7.3
 30
0.0
 10
-16.970562748477143
 20
7.3
 30
0.0
 10
-14.963755244609608
 20
7.3
 30
0.0
 10
-12.768769836368083
 20
7.3
 30
0.0
 10
-10.4132097388214
 20
7.3
 30
0.0
 10
-7.9266974869240165
 20
7.3
 30
0.0
 10
-5.340502414951551
 20
7.3
 30
0.0
 10
-2.6871474264793944
 20
7.3
 30
0.0
 10
-5.773159728050814e-15
 20
7.3
 30
0.0
  0
SPLINE
  5
36
330
17
100
AcDbEntity
  8
VISIBLE
100
AcDbSpline
 70
0
 71
1
 72
17
 73
15
 74
0
 40
0.0
 40
0.0
 40
0.1121997376282069
 40
0.2243994752564138
 40
0.3365992128846207
 40
0.4487989505128276
 40
0.5609986881410345
 40
0.6731984257692414
 40
0.7853981633974483
 40
0.8975979010256552
 40
1.009797638653862
 40
1.121997376282069
 40
1.2341971139102759
 40
1.3463968515384828
 40
1.4585965891666897
 40
1.5707963267948966
 40
1.5707963267948966
 10
0.0
 20
-8.0
 30
0.0
 10
2.608772293207073
 20
-8.0
 30
0.0
 10
5.1847377611821255
 20
-8.0
 30
0.0
 10
7.695502143555393
 20
-8.0
 30
0.0
 10
10.109491121439106
 20
-8.0
 30
0.0
 10
12.396347382807342
 20
-8.0
 30
0.0
 10
14.527312383308491
 20
-8.0
 30
0.0
 10
16.475588001646557
 20
-8.0
 30
0.0
 10
18.216673541505095
 20
-8.0
 30
0.0
 10
19.72867384201902
 20
-8.0
 30
0.0
 10
20.992574622126362
 20
-8.0
 30
0.0
 10
21.992481596184966
 20
-8.0
 30
0.0
 10
22.71582035383649
 20
-8.0
 30
0.0
 10
23.153494490512553
 20
-8.0
 30
0.0
 10
23.3
 20
-8.0
 30
0.0
  0
SPLINE
  5
37
330
17
100
AcDbEntity
  8
VISIBLE
100
AcDbSpline
 70
0
 71
1
 72
17
 73
15
 74
0
 40
0.0
 40
0.0
 40
0.07142857142857142
 40
0.14285714285714285
 40
0.21428571428571427
 40
0.2857142857142857
 40
0.35714285714285715
 40
0.42857142857142855
 40
0.5
 40
0.5714285714285714
 40
0.6428571428571429
 40
0.7142857142857143
 40
0.7857142857142857
 40
0.8571428571428571
 40
0.9285714285714286
 40
1.0
 40
1.0
 10
-23.3
 20
-8.0
 30
0.0
 10
-23.153494490512557
 20
-8.0
 30
0.0
 10
-22.71582035383649
 20
-8.0
 30
0.0
 10
-21.992481596184966
 20
-8.0
 30
0.0
 10
-20.99257462212637
 20
-8.0
 30
0.0
 10
-19.728673842019024
 20
-8.0
 30
0.0
 10
-18.2166735415051
 20
-8.0
 30
0.0
 10
-16.47558800164656
 20
-8.0
 30
0.0
 10
-14.527312383308496
 20
-8.0
 30
0.0
 10
-12.396347382807345
 20
-8.0
 30
0.0
 10
-10.10949112143911
 20
-8.0
 30
0.0
 10
-7.695502143555399
 20
-8.0
 30
0.0
 10
-5.184737761182132
 20
-8.0
 30
0.0
 10
-2.6087722932070787
 20
-8.0
 30
0.0
 10
-5.773159728050814e-15
 20
-8.0
 30
0.0
  0
SPLINE
  5
38
330
17
100
AcDbEntity
  8
VISIBLE
100
AcDbSpline
 70
0
 71
1
 72
17
 73
15
 74
0
 40
0.0
 40
0.0
 40
0.1121997376282069
 40
0.2243994752564138
 40
0.3365992128846207
 40
0.4487989505128276
 40
0.5609986881410345
 40
0.6731984257692414
 40
0.7853981633974483
 40
0.8975979010256552
 40
1.009797638653862
 40
1.121997376282069
 40
1.2341971139102759
 40
1.3463968515384828
 40
1.4585965891666897
 40
1.5707963267948966
 40
1.5707963267948966
 10
0.0
 20
8.0
 30
0.0
 10
2.608772293207073
 20
8.0
 30
0.0
 10
5.1847377611821255
 20
8.0
 30
0.0
 10
7.695502143555393
 20
8.0
 30
0.0
 10
10.109491121439106
 20
8.0
 30
0.0
 10
12.396347382807342
 20
8.0
 30
0.0
 10
14.527312383308491
 20
8.0
 30
0.0
 10
16.475588001646557
 20
8.0
 30
0.0
 10
18.216673541505095
 20
8.0
 30
0.0
 10
19.72867384201902
 20
8.0
 30
0.0
 10
20.992574622126362
 20
8.0
 30
0.0
 10
21.992481596184966
 20
8.0
 30
0.0
 10
22.71582035383649
 20
8.0
 30
0.0
 10
23.153494490512553
 20
8.0
 30
0.0
 10
23.3
 20
8.0
 30
0.0
  0
SPLINE
  5
39
330
17
100
AcDbEntity
  8
VISIBLE
100
AcDbSpline
 70
0
 71
1
 72
17
 73
15
 74
0
 40
0.0
 40
0.0
 40
0.07142857142857142
 40
0.14285714285714285
 40
0.21428571428571427
 40
0.2857142857142857
 40
0.35714285714285715
 40
0.42857142857142855
 40
0.5
 40
0.5714285714285714
 40
0.6428571428571429
 40
0.7142857142857143
 40
0.7857142857142857
 40
0.8571428571428571
 40
0.9285714285714286
 40
1.0
 40
1.0
 10
-23.3
 20
8.0
 30
0.0
 10
-23.153494490512557
 20
8.0
 30
0.0
 10
-22.71582035383649
 20
8.0
 30
0.0
 10
-21.992481596184966
 20
8.0
 30
0.0
 10
-20.99257462212637
 20
8.0
 30
0.0
 10
-19.728673842019024
 20
8.0
 30
0.0
 10
-18.2166735415051
 20
8.0
 30
0.0
 10
-16.47558800164656
 20
8.0
 30
0.0
 10
-14.527312383308496
 20
8.0
 30
0.0
 10
-12.396347382807345
 20
8.0
 30
0.0
 10
-10.10949112143911
 20
8.0
 30
0.0
 10
-7.695502143555399
 20
8.0
 30
0.0
 10
-5.184737761182132
 20
8.0
 30
0.0
 10
-2.6087722932070787
 20
8.0
 30
0.0
 10
-5.773159728050814e-15
 20
8.0
 30
0.0
  0
SPLINE
  5
3A
330
17
100
AcDbEntity
  8
VISIBLE
100
AcDbSpline
 70
0
 71
1
 72
17
 73
15
 74
0
 40
0.0
 40
0.0
 40
0.1121997376282069
 40
0.2243994752564138
 40
0.3365992128846207
 40
0.4487989505128276
 40
0.5609986881410345
 40
0.6731984257692414
 40
0.7853981633974483
 40
0.8975979010256552
 40
1.009797638653862
 40
1.121997376282069
 40
1.2341971139102759
 40
1.3463968515384828
 40
1.4585965891666897
 40
1.5707963267948966
 40
1.5707963267948966
 10
0.0
 20
10.0
 30
0.0
 10
2.351253998169465
 20
10.0
 30
0.0
 10
4.672939613082601
 20
10.0
 30
0.0
 10
6.935860301058507
 20
10.0
 30
0.0
 10
9.111558521468721
 20
10.0
 30
0.0
 10
11.17267360682207
 20
10.0
 30
0.0
 10
13.093285839033403
 20
10.0
 30
0.0
 10
14.849242404917497
 20
10.0
 30
0.0
 10
16.418461131828625
 20
10.0
 30
0.0
 10
17.78120818379397
 20
10.0
 30
0.0
 10
18.9203462259508
 20
10.0
 30
0.0
 10
19.82154993647572
 20
10.0
 30
0.0
 10
20.4734861558183
 20
10.0
 30
0.0
 10
20.867956407758093
 20
10.0
 30
0.0
 10
21.0
 20
10.0
 30
0.0
  0
SPLINE
  5
3B
330
17
100
AcDbEntity
  8
VISIBLE
100
AcDbSpline
 70
0
 71
1
 72
17
 73
15
 74
0
 40
0.0
 40
0.0
 40
0.07142857142857142
 40
0.14285714285714285
 40
0.21428571428571427
 40
0.2857142857142857
 40
0.35714285714285715
 40
0.42857142857142855
 40
0.5
 40
0.5714285714285714
 40
0.6428571428571429
 40
0.7142857142857143
 40
0.7857142857142857
 40
0.8571428571428571
 40
0.9285714285714286
 40
1.0
 40
1.0
 10
-21.0
 20
10.0
 30
0.0
 10
-20.867956407758093
 20
10.0
 30
0.0
 10
-20.473486155818296
 20
10.0
 30
0.0
 10
-19.821549936475723
 20
10.0
 30
0.0
 10
-18.920346225950805
 20
10.0
 30
0.0
 10
-17.78120818379397
 20
10.0
 30
0.0
 10
-16.41846113182863
 20
10.0
 30
0.0
 10
-14.8492424049175
 20
10.0
 30
0.0
 10
-13.093285839033406
 20
10.0
 30
0.0
 10
-11.172673606822073
 20
10.0
 30
0.0
 10
-9.111558521468725
 20
10.0
 30
0.0
 10
-6.935860301058514
 20
10.0
 30
0.0
 10
-4.672939613082607
 20
10.0
 30
0.0
 10
-2.3512539981694696
 20
10.0
 30
0.0
 10
-5.10702591327572e-15
 20
10.0
 30
0.0
  0
SPLINE
  5
3C
330
17
100
AcDbEntity
  8
VISIBLE
100
AcDbSpline
 70
0
 71
1
 72
17
 73
15
 74
0
 40
0.0
 40
0.0
 40
0.1121997376282069
 40
0.2243994752564138
 40
0.3365992128846207
 40
0.4487989505128276
 40
0.5609986881410345
 40
0.6731984257692414
 40
0.7853981633974483
 40
0.8975979010256552
 40
1.009797638653862
 40
1.121997376282069
 40
1.2341971139102759
 40
1.3463968515384828
 40
1.4585965891666897
 40
1.5707963267948966
 40
1.5707963267948966
 10
0.0
 20
12.0
 30
0.0
 10
0.7837513327231549
 20
12.0
 30
0.0
 10
1.5576465376942008
 20
12.0
 30
0.0
 10
2.311953433686169
 20
12.0
 30
0.0
 10
3.0371861738229073
 20
12.0
 30
0.0
 10
3.7242245356073562
 20
12.0
 30
0.0
 10
4.364428613011134
 20
12.0
 30
0.0
 10
4.949747468305832
 20
12.0
 30
0.0
 10
5.472820377276209
 20
12.0
 30
0.0
 10
5.927069394597989
 20
12.0
 30
0.0
 10
6.306782075316934
 20
12.0
 30
0.0
 10
6.607183312158572
 20
12.0
 30
0.0
 10
6.8244953852727654
 20
12.0
 30
0.0
 10
6.955985469252699
 20
12.0
 30
0.0
 10
7.0
 20
12.0
 30
0.0
  0
SPLINE
  5
3D
330
17
100
AcDbEntity
  8
VISIBLE
100
AcDbSpline
 70
0
 71
1
 72
17
 73
15
 74
0
 40
0.0
 40
0.0
 40
0.07142857142857142
 40
0.14285714285714285
 40
0.21428571428571427
 40
0.2857142857142857
 40
0.35714285714285715
 40
0.42857142857142855
 40
0.5
 40
0.5714285714285714
 40
0.6428571428571429
 40
0.7142857142857143
 40
0.7857142857142857
 40
0.8571428571428571
 40
0.9285714285714286
 40
1.0
 40
1.0
 10
-7.0
 20
12.0
 30
0.0
 10
-6.955985469252699
 20
12.0
 30
0.0
 10
-6.8244953852727654
 20
12.0
 30
0.0
 10
-6.607183312158574
 20
12.0
 30
0.0
 10
-6.306782075316935
 20
12.0
 30
0.0
 10
-5.927069394597989
 20
12.0
 30
0.0
 10
-5.472820377276209
 20
12.0
 30
0.0
 10
-4.949747468305834
 20
12.0
 30
0.0
 10
-4.364428613011136
 20
12.0
 30
0.0
 10
-3.724224535607357
 20
12.0
 30
0.0
 10
-3.0371861738229082
 20
12.0
 30
0.0
 10
-2.3119534336861713
 20
12.0
 30
0.0
 10
-1.5576465376942026
 20
12.0
 30
0.0
 10
-0.7837513327231567
 20
12.0
 30
0.0
 10
-1.7208456881689926e-15
 20
12.0
 30
0.0
  0
LINE
  5
3E
330
17
100
AcDbEntity
  8
VISIBLE
100
AcDbLine
 10
24.0
 20
-7.3
 30
0.0
 11
24.0
 21
7.300000000000001
 31
0.0
  0
LINE
  5
3F
330
17
100
AcDbEntity
  8
VISIBLE
100
AcDbLine
 10
-24.0
 20
-7.3
 30
0.0
 11
-24.0
 21
7.300000000000001
 31
0.0
  0
LINE
  5
40
330
17
100
AcDbEntity
  8
VISIBLE
100
AcDbLine
 10
23.3
 20
-7.999999999999996
 30
0.0
 11
24.000000000000004
 21
-7.2999999999999945
 31
0.0
  0
LINE
  5
41
330
17
100
AcDbEntity
  8
VISIBLE
100
AcDbLine
 10
-23.3
 20
-7.999999999999996
 30
0.0
 11
-24.000000000000004
 21
-7.2999999999999945
 31
0.0
  0
LINE
  5
42
330
17
100
AcDbEntity
  8
VISIBLE
100
AcDbLine
 10
23.3
 20
7.999999999999996
 30
0.0
 11
24.000000000000004
 21
7.2999999999999945
 31
0.0
  0
LINE
  5
43
330
17
100
AcDbEntity
  8
VISIBLE
100
AcDbLine
 10
-23.3
 20
7.999999999999996
 30
0.0
 11
-24.000000000000004
 21
7.2999999999999945
 31
0.0
  0
LINE
  5
44
330
17
100
AcDbEntity
  8
VISIBLE
100
AcDbLine
 10
21.0
 20
8.0
 30
0.0
 11
21.0
 21
10.0
 31
0.0
  0
LINE
  5
45
330
17
100
AcDbEntity
  8
VISIBLE
100
AcDbLine
 10
-21.0
 20
8.0
 30
0.0
 11
-21.0
 21
10.0
 31
0.0
  0
LINE
  5
46
330
17
100
AcDbEntity
  8
VISIBLE
100
AcDbLine
 10
7.0
 20
10.0
 30
0.0
 11
7.0
 21
12.0
 31
0.0
  0
LINE
  5
47
330
17
100
AcDbEntity
  8
VISIBLE
100
AcDbLine
 10
-7.0
 20
10.0
 30
0.0
 11
-7.0
 21
12.0
 31
0.0
  0
SPLINE
  5
48
330
17
100
AcDbEntity
  8
HIDDEN
100
AcDbSpline
 70
0
 71
1
 72
17
 73
15
 74
0
 40
0.0
 40
0.0
 40
0.07142857142857142
 40
0.14285714285714285
 40
0.21428571428571427
 40
0.2857142857142857
 40
0.35714285714285715
 40
0.42857142857142855
 40
0.5
 40
0.5714285714285714
 40
0.6428571428571429
 40
0.7142857142857143
 40
0.7857142857142857
 40
0.8571428571428571
 40
0.9285714285714286
 40
1.0
 40
1.0
 10
24.0
 20
-7.3
 30
0.0
 10
23.398269892363768
 20
-7.3
 30
0.0
 10
21.62325282965806
 20
-7.3
 30
0.0
 10
18.763955579232718
 20
-7.3
 30
0.0
 10
14.963755244609604
 20
-7.3
 30
0.0
 10
10.413209738821397
 20
-7.3
 30
0.0
 10
5.340502414951548
 20
-7.3
 30
0.0
 10
2.6645352591003757e-15
 20
-7.3
 30
0.0
 10
-5.340502414951542
 20
-7.3
 30
0.0
 10
-10.413209738821394
 20
-7.3
 30
0.0
 10
-14.963755244609601
 20
-7.3
 30
0.0
 10
-18.763955579232714
 20
-7.3
 30
0.0
 10
-21.623252829658057
 20
-7.3
 30
0.0
 10
-23.39826989236377
 20
-7.3
 30
0.0
 10
-24.0
 20
-7.3
 30
0.0
  0
SPLINE
  5
49
330
17
100
AcDbEntity
  8
HIDDEN
100
AcDbSpline
 70
0
 71
1
 72
17
 73
15
 74
0
 40
0.0
 40
0.0
 40
0.07142857142857142
 40
0.14285714285714285
 40
0.21428571428571427
 40
0.2857142857142857
 40
0.35714285714285715
 40
0.42857142857142855
 40
0.5
 40
0.5714285714285714
 40
0.6428571428571429
 40
0.7142857142857143
 40
0.7857142857142857
 40
0.8571428571428571
 40
0.9285714285714286
 40
1.0
 40
1.0
 10
24.0
 20
7.3
 30
0.0
 10
23.398269892363768
 20
7.3
 30
0.0
 10
21.62325282965806
 20
7.3
 30
0.0
 10
18.763955579232718
 20
7.3
 30
0.0
 10
14.963755244609604
 20
7.3
 30
0.0
 10
10.413209738821397
 20
7.3
 30
0.0
 10
5.340502414951548
 20
7.3
 30
0.0
 10
2.6645352591003757e-15
 20
7.3
 30
0.0
 10
-5.340502414951542
 20
7.3
 30
0.0
 10
-10.413209738821394
 20
7.3
 30
0.0
 10
-14.963755244609601
 20
7.3
 30
0.0
 10
-18.763955579232714
 20
7.3
 30
0.0
 10
-21.623252829658057
 20
7.3
 30
0.0
 10
-23.39826989236377
 20
7.3
 30
0.0
 10
-24.0
 20
7.3
 30
0.0
  0
SPLINE
  5
4A
330
17
100
AcDbEntity
  8
HIDDEN
100
AcDbSpline
 70
0
 71
1
 72
17
 73
15
 74
0
 40
0.0
 40
0.0
 40
0.07142857142857142
 40
0.14285714285714285
 40
0.21428571428571427
 40
0.2857142857142857
 40
0.35714285714285715
 40
0.42857142857142855
 40
0.5
 40
0.5714285714285714
 40
0.6428571428571429
 40
0.7142857142857143
 40
0.7857142857142857
 40
0.8571428571428571
 40
0.9285714285714286
 40
1.0
 40
1.0
 10
23.299999999999997
 20
-8.0
 30
0.0
 10
22.71582035383649
 20
-8.0
 30
0.0
 10
20.992574622126366
 20
-8.0
 30
0.0
 10
18.2166735415051
 20
-8.0
 30
0.0
 10
14.527312383308493
 20
-8.0
 30
0.0
 10
10.109491121439108
 20
-8.0
 30
0.0
 10
5.184737761182128
 20
-8.0
 30
0.0
 10
2.6645352591003757e-15
 20
-8.0
 30
0.0
 10
-5.184737761182124
 20
-8.0
 30
0.0
 10
-10.109491121439103
 20
-8.0
 30
0.0
 10
-14.527312383308487
 20
-8.0
 30
0.0
 10
-18.21667354150509
 20
-8.0
 30
0.0
 10
-20.99257462212637
 20
-8.0
 30
0.0
 10
-22.71582035383649
 20
-8.0
 30
0.0
 10
-23.299999999999997
 20
-8.0
 30
0.0
  0
SPLINE
  5
4B
330
17
100
AcDbEntity
  8
HIDDEN
100
AcDbSpline
 70
0
 71
1
 72
17
 73
15
 74
0
 40
0.0
 40
0.0
 40
0.07142857142857142
 40
0.14285714285714285
 40
0.21428571428571427
 40
0.2857142857142857
 40
0.35714285714285715
 40
0.42857142857142855
 40
0.5
 40
0.5714285714285714
 40
0.6428571428571429
 40
0.7142857142857143
 40
0.7857142857142857
 40
0.8571428571428571
 40
0.9285714285714286
 40
1.0
 40
1.0
 10
23.299999999999997
 20
8.0
 30
0.0
 10
22.71582035383649
 20
8.0
 30
0.0
 10
20.992574622126366
 20
8.0
 30
0.0
 10
18.2166735415051
 20
8.0
 30
0.0
 10
14.527312383308493
 20
8.0
 30
0.0
 10
10.109491121439108
 20
8.0
 30
0.0
 10
5.184737761182128
 20
8.0
 30
0.0
 10
2.6645352591003757e-15
 20
8.0
 30
0.0
 10
-5.184737761182124
 20
8.0
 30
0.0
 10
-10.109491121439103
 20
8.0
 30
0.0
 10
-14.527312383308487
 20
8.0
 30
0.0
 10
-18.21667354150509
 20
8.0
 30
0.0
 10
-20.99257462212637
 20
8.0
 30
0.0
 10
-22.71582035383649
 20
8.0
 30
0.0
 10
-23.299999999999997
 20
8.0
 30
0.0
  0
SPLINE
  5
4C
330
17
100
AcDbEntity
  8
HIDDEN
100
AcDbSpline
 70
0
 71
3
 72
41
 73
37
 74
0
 40
0.0
 40
0.0
 40
0.0
 40
0.0
 40
0.3365992128846207
 40
0.3365992128846207
 40
0.3365992128846207
 40
0.4487989505128276
 40
0.4487989505128276
 40
0.4487989505128276
 40
0.5609986881410345
 40
0.5609986881410345
 40
0.5609986881410345
 40
0.6731984257692414
 40
0.6731984257692414
 40
0.6731984257692414
 40
0.7853981633974483
 40
0.7853981633974483
 40
0.7853981633974483
 40
0.8975979010256552
 40
0.8975979010256552
 40
0.8975979010256552
 40
1.009797638653862
 40
1.009797638653862
 40
1.009797638653862
 40
1.121997376282069
 40
1.121997376282069
 40
1.121997376282069
 40
1.2341971139102759
 40
1.2341971139102759
 40
1.2341971139102759
 40
1.3463968515384828
 40
1.3463968515384828
 40
1.3463968515384828
 40
1.4585965891666897
 40
1.4585965891666897
 40
1.4585965891666897
 40
1.5707963267948966
 40
1.5707963267948966
 40
1.5707963267948966
 40
1.5707963267948966
 10
-14.722431864335451
 20
-8.0
 30
0.0
 10
-14.531439912287684
 20
-7.999999999999996
 30
0.0
 10
-14.342238182064637
 20
-8.0
 30
0.0
 10
-14.160957459011666
 20
-8.0
 30
0.0
 10
-14.102248141952977
 20
-8.000000000000002
 30
0.0
 10
-14.043538824894291
 20
-7.999999999999997
 30
0.0
 10
-13.984829507835602
 20
-8.0
 30
0.0
 10
-13.929212116643525
 20
-8.000000000000002
 30
0.0
 10
-13.873594725451458
 20
-7.999999999999997
 30
0.0
 10
-13.81797733425938
 20
-8.0
 30
0.0
 10
-13.766151289898117
 20
-7.999999999999995
 30
0.0
 10
-13.714325245536862
 20
-8.000000000000002
 30
0.0
 10
-13.662499201175605
 20
-8.0
 30
0.0
 10
-13.615116246223172
 20
-7.999999999999995
 30
0.0
 10
-13.567733291270748
 20
-8.000000000000002
 30
0.0
 10
-13.520350336318323
 20
-8.0
 30
0.0
 10
-13.478006338925473
 20
-7.999999999999995
 30
0.0
 10
-13.435662341532641
 20
-8.000000000000002
 30
0.0
 10
-13.3933183441398
 20
-8.0
 30
0.0
 10
-13.356545804642321
 20
-7.999999999999995
 30
0.0
 10
-13.319773265144846
 20
-8.000000000000002
 30
0.0
 10
-13.28300072564737
 20
-8.0
 30
0.0
 10
-13.252262080065346
 20
-7.999999999999995
 30
0.0
 10
-13.221523434483357
 20
-8.000000000000002
 30
0.0
 10
-13.19078478890134
 20
-8.0
 30
0.0
 10
-13.166466593537958
 20
-7.999999999999995
 30
0.0
 10
-13.1421483981746
 20
-8.000000000000002
 30
0.0
 10
-13.117830202811227
 20
-8.0
 30
0.0
 10
-13.10023827308293
 20
-7.999999999999995
 30
0.0
 10
-13.082646343354645
 20
-8.000000000000002
 30
0.0
 10
-13.065054413626351
 20
-8.0
 30
0.0
 10
-13.054409978256546
 20
-7.999999999999995
 30
0.0
 10
-13.043765542886742
 20
-8.000000000000002
 30
0.0
 10
-13.03312110751694
 20
-8.0
 30
0.0
 10
-13.029558026456435
 20
-7.999999999999995
 30
0.0
 10
-13.025994945395954
 20
-8.000000000000002
 30
0.0
 10
-13.022431864335452
 20
-8.0
 30
0.0
  0
SPLINE
  5
4D
330
17
100
AcDbEntity
  8
HIDDEN
100
AcDbSpline
 70
0
 71
1
 72
17
 73
15
 74
0
 40
0.0
 40
0.0
 40
0.07142857142857142
 40
0.14285714285714285
 40
0.21428571428571427
 40
0.2857142857142857
 40
0.35714285714285715
 40
0.42857142857142855
 40
0.5
 40
0.5714285714285714
 40
0.6428571428571429
 40
0.7142857142857143
 40
0.7857142857142857
 40
0.8571428571428571
 40
0.9285714285714286
 40
1.0
 40
1.0
 10
-13.022431864335452
 20
-8.0
 30
0.0
 10
-13.06505441362635
 20
-8.0
 30
0.0
 10
-13.19078478890134
 20
-8.0
 30
0.0
 10
-13.3933183441398
 20
-8.0
 30
0.0
 10
-13.662499201175603
 20
-8.0
 30
0.0
 10
-13.984829507835602
 20
-8.0
 30
0.0
 10
-14.344146276609717
 20
-8.0
 30
0.0
 10
-14.722431864335451
 20
-8.0
 30
0.0
 10
-15.100717452061186
 20
-8.0
 30
0.0
 10
-15.4600342208353
 20
-8.0
 30
0.0
 10
-15.782364527495297
 20
-8.0
 30
0.0
 10
-16.051545384531103
 20
-8.0
 30
0.0
 10
-16.254078939769563
 20
-8.0
 30
0.0
 10
-16.379809315044554
 20
-8.0
 30
0.0
 10
-16.42243186433545
 20
-8.0
 30
0.0
  0
SPLINE
  5
4E
330
17
100
AcDbEntity
  8
HIDDEN
100
AcDbSpline
 70
0
 71
2
 72
28
 73
25
 74
0
 40
0.0
 40
0.0
 40
0.0
 40
0.07142857142857142
 40
0.07142857142857142
 40
0.14285714285714285
 40
0.14285714285714285
 40
0.21428571428571427
 40
0.21428571428571427
 40
0.2857142857142857
 40
0.2857142857142857
 40
0.35714285714285715
 40
0.35714285714285715
 40
0.42857142857142855
 40
0.42857142857142855
 40
0.5
 40
0.5
 40
0.5714285714285714
 40
0.5714285714285714
 40
0.6428571428571429
 40
0.6428571428571429
 40
0.7142857142857143
 40
0.7142857142857143
 40
0.8571428571428571
 40
0.8571428571428571
 40
1.0
 40
1.0
 40
1.0
 10
-16.42243186433545
 20
-8.0
 30
0.0
 10
-16.417087242744703
 20
-7.999999999999999
 30
0.0
 10
-16.411742621153962
 20
-8.0
 30
0.0
 10
-16.395775968099258
 20
-8.0
 30
0.0
 10
-16.379809315044554
 20
-8.0
 30
0.0
 10
-16.35342142045211
 20
-7.999999999999999
 30
0.0
 10
-16.327033525859676
 20
-8.0
 30
0.0
 10
-16.29055623281462
 20
-8.0
 30
0.0
 10
-16.254078939769563
 20
-8.0
 30
0.0
 10
-16.207970971396545
 20
-7.999999999999999
 30
0.0
 10
-16.161863003023534
 20
-8.0
 30
0.0
 10
-16.10670419377732
 20
-8.0
 30
0.0
 10
-16.051545384531103
 20
-8.0
 30
0.0
 10
-15.988029388441841
 20
-7.999999999999999
 30
0.0
 10
-15.924513392352583
 20
-8.0
 30
0.0
 10
-15.853438959923942
 20
-8.0
 30
0.0
 10
-15.7823645274953
 20
-8.0
 30
0.0
 10
-15.704625460953409
 20
-7.999999999999999
 30
0.0
 10
-15.626886394411525
 20
-8.0
 30
0.0
 10
-15.543460307623414
 20
-8.0
 30
0.0
 10
-15.4600342208353
 20
-8.0
 30
0.0
 10
-15.285886269150078
 20
-8.0
 30
0.0
 10
-15.100717452061186
 20
-8.0
 30
0.0
 10
-14.91344269278371
 20
-8.0
 30
0.0
 10
-14.722431864335451
 20
-8.0
 30
0.0
  0
SPLINE
  5
4F
330
17
100
AcDbEntity
  8
HIDDEN
100
AcDbSpline
 70
0
 71
3
 72
41
 73
37
 74
0
 40
0.0
 40
0.0
 40
0.0
 40
0.0
 40
0.3365992128846207
 40
0.3365992128846207
 40
0.3365992128846207
 40
0.4487989505128276
 40
0.4487989505128276
 40
0.4487989505128276
 40
0.5609986881410345
 40
0.5609986881410345
 40
0.5609986881410345
 40
0.6731984257692414
 40
0.6731984257692414
 40
0.6731984257692414
 40
0.7853981633974483
 40
0.7853981633974483
 40
0.7853981633974483
 40
0.8975979010256552
 40
0.8975979010256552
 40
0.8975979010256552
 40
1.009797638653862
 40
1.009797638653862
 40
1.009797638653862
 40
1.121997376282069
 40
1.121997376282069
 40
1.121997376282069
 40
1.2341971139102759
 40
1.2341971139102759
 40
1.2341971139102759
 40
1.3463968515384828
 40
1.3463968515384828
 40
1.3463968515384828
 40
1.4585965891666897
 40
1.4585965891666897
 40
1.4585965891666897
 40
1.5707963267948966
 40
1.5707963267948966
 40
1.5707963267948966
 40
1.5707963267948966
 10
-14.722431864335457
 20
-8.0
 30
0.0
 10
-14.531439912287693
 20
-7.999999999999996
 30
0.0
 10
-14.342238182064637
 20
-8.0
 30
0.0
 10
-14.160957459011673
 20
-8.0
 30
0.0
 10
-14.102248141952982
 20
-8.000000000000002
 30
0.0
 10
-14.043538824894302
 20
-7.999999999999997
 30
0.0
 10
-13.98482950783561
 20
-8.0
 30
0.0
 10
-13.929212116643532
 20
-8.000000000000002
 30
0.0
 10
-13.873594725451465
 20
-7.999999999999997
 30
0.0
 10
-13.817977334259385
 20
-8.0
 30
0.0
 10
-13.766151289898126
 20
-7.999999999999995
 30
0.0
 10
-13.714325245536866
 20
-8.000000000000002
 30
0.0
 10
-13.66249920117561
 20
-8.0
 30
0.0
 10
-13.615116246223177
 20
-7.999999999999995
 30
0.0
 10
-13.567733291270757
 20
-8.000000000000002
 30
0.0
 10
-13.520350336318327
 20
-8.0
 30
0.0
 10
-13.478006338925484
 20
-7.999999999999995
 30
0.0
 10
-13.435662341532646
 20
-8.000000000000002
 30
0.0
 10
-13.393318344139807
 20
-8.0
 30
0.0
 10
-13.356545804642323
 20
-7.999999999999995
 30
0.0
 10
-13.319773265144857
 20
-8.000000000000002
 30
0.0
 10
-13.283000725647375
 20
-8.0
 30
0.0
 10
-13.252262080065355
 20
-7.999999999999995
 30
0.0
 10
-13.221523434483357
 20
-8.000000000000002
 30
0.0
 10
-13.190784788901345
 20
-8.0
 30
0.0
 10
-13.16646659353797
 20
-7.999999999999995
 30
0.0
 10
-13.1421483981746
 20
-8.000000000000002
 30
0.0
 10
-13.117830202811234
 20
-8.0
 30
0.0
 10
-13.100238273082937
 20
-7.999999999999995
 30
0.0
 10
-13.082646343354652
 20
-8.000000000000002
 30
0.0
 10
-13.065054413626356
 20
-8.0
 30
0.0
 10
-13.054409978256546
 20
-7.999999999999995
 30
0.0
 10
-13.043765542886751
 20
-8.000000000000002
 30
0.0
 10
-13.033121107516944
 20
-8.0
 30
0.0
 10
-13.02955802645644
 20
-7.999999999999995
 30
0.0
 10
-13.025994945395958
 20
-8.000000000000002
 30
0.0
 10
-13.022431864335456
 20
-8.0
 30
0.0
  0
SPLINE
  5
50
330
17
100
AcDbEntity
  8
HIDDEN
100
AcDbSpline
 70
0
 71
1
 72
17
 73
15
 74
0
 40
0.0
 40
0.0
 40
0.07142857142857142
 40
0.14285714285714285
 40
0.21428571428571427
 40
0.2857142857142857
 40
0.35714285714285715
 40
0.42857142857142855
 40
0.5
 40
0.5714285714285714
 40
0.6428571428571429
 40
0.7142857142857143
 40
0.7857142857142857
 40
0.8571428571428571
 40
0.9285714285714286
 40
1.0
 40
1.0
 10
-13.02243186433546
 20
-8.0
 30
0.0
 10
-13.065054413626356
 20
-8.0
 30
0.0
 10
-13.190784788901345
 20
-8.0
 30
0.0
 10
-13.393318344139804
 20
-8.0
 30
0.0
 10
-13.66249920117561
 20
-8.0
 30
0.0
 10
-13.984829507835608
 20
-8.0
 30
0.0
 10
-14.344146276609722
 20
-8.0
 30
0.0
 10
-14.722431864335457
 20
-8.0
 30
0.0
 10
-15.100717452061192
 20
-8.0
 30
0.0
 10
-15.460034220835304
 20
-8.0
 30
0.0
 10
-15.782364527495304
 20
-8.0
 30
0.0
 10
-16.05154538453111
 20
-8.0
 30
0.0
 10
-16.25407893976957
 20
-8.0
 30
0.0
 10
-16.37980931504456
 20
-8.0
 30
0.0
 10
-16.422431864335458
 20
-8.0
 30
0.0
  0
SPLINE
  5
51
330
17
100
AcDbEntity
  8
HIDDEN
100
AcDbSpline
 70
0
 71
2
 72
28
 73
25
 74
0
 40
0.0
 40
0.0
 40
0.0
 40
0.07142857142857142
 40
0.07142857142857142
 40
0.14285714285714285
 40
0.14285714285714285
 40
0.21428571428571427
 40
0.21428571428571427
 40
0.2857142857142857
 40
0.2857142857142857
 40
0.35714285714285715
 40
0.35714285714285715
 40
0.42857142857142855
 40
0.42857142857142855
 40
0.5
 40
0.5
 40
0.5714285714285714
 40
0.5714285714285714
 40
0.6428571428571429
 40
0.6428571428571429
 40
0.7142857142857143
 40
0.7142857142857143
 40
0.8571428571428571
 40
0.8571428571428571
 40
1.0
 40
1.0
 40
1.0
 10
-16.422431864335458
 20
-8.0
 30
0.0
 10
-16.41708724274471
 20
-7.999999999999999
 30
0.0
 10
-16.41174262115397
 20
-8.0
 30
0.0
 10
-16.395775968099265
 20
-8.0
 30
0.0
 10
-16.37980931504456
 20
-8.0
 30
0.0
 10
-16.35342142045212
 20
-7.999999999999999
 30
0.0
 10
-16.327033525859683
 20
-8.0
 30
0.0
 10
-16.290556232814627
 20
-8.0
 30
0.0
 10
-16.25407893976957
 20
-8.0
 30
0.0
 10
-16.207970971396552
 20
-7.999999999999999
 30
0.0
 10
-16.16186300302354
 20
-8.0
 30
0.0
 10
-16.106704193777325
 20
-8.0
 30
0.0
 10
-16.051545384531106
 20
-8.0
 30
0.0
 10
-15.988029388441843
 20
-7.999999999999999
 30
0.0
 10
-15.924513392352587
 20
-8.0
 30
0.0
 10
-15.853438959923947
 20
-8.0
 30
0.0
 10
-15.782364527495304
 20
-8.0
 30
0.0
 10
-15.70462546095341
 20
-7.999999999999999
 30
0.0
 10
-15.62688639441153
 20
-8.0
 30
0.0
 10
-15.54346030762342
 20
-8.0
 30
0.0
 10
-15.460034220835306
 20
-8.0
 30
0.0
 10
-15.285886269150083
 20
-8.0
 30
0.0
 10
-15.100717452061192
 20
-8.0
 30
0.0
 10
-14.913442692783718
 20
-8.0
 30
0.0
 10
-14.722431864335457
 20
-8.0
 30
0.0
  0
SPLINE
  5
52
330
17
100
AcDbEntity
  8
HIDDEN
100
AcDbSpline
 70
0
 71
3
 72
41
 73
37
 74
0
 40
0.0
 40
0.0
 40
0.0
 40
0.0
 40
0.3365992128846207
 40
0.3365992128846207
 40
0.3365992128846207
 40
0.4487989505128276
 40
0.4487989505128276
 40
0.4487989505128276
 40
0.5609986881410345
 40
0.5609986881410345
 40
0.5609986881410345
 40
0.6731984257692414
 40
0.6731984257692414
 40
0.6731984257692414
 40
0.7853981633974483
 40
0.7853981633974483
 40
0.7853981633974483
 40
0.8975979010256552
 40
0.8975979010256552
 40
0.8975979010256552
 40
1.009797638653862
 40
1.009797638653862
 40
1.009797638653862
 40
1.121997376282069
 40
1.121997376282069
 40
1.121997376282069
 40
1.2341971139102759
 40
1.2341971139102759
 40
1.2341971139102759
 40
1.3463968515384828
 40
1.3463968515384828
 40
1.3463968515384828
 40
1.4585965891666897
 40
1.4585965891666897
 40
1.4585965891666897
 40
1.5707963267948966
 40
1.5707963267948966
 40
1.5707963267948966
 40
1.5707963267948966
 10
2.1094237467877974e-15
 20
-8.0
 30
0.0
 10
0.19099195204776445
 20
-7.999999999999996
 30
0.0
 10
0.3801936822708205
 20
-8.0
 30
0.0
 10
0.5614744053237861
 20
-8.0
 30
0.0
 10
0.6201837223824743
 20
-8.000000000000002
 30
0.0
 10
0.6788930394411625
 20
-7.999999999999997
 30
0.0
 10
0.7376023564998508
 20
-8.0
 30
0.0
 10
0.7932197476919254
 20
-8.000000000000002
 30
0.0
 10
0.8488371388839996
 20
-7.999999999999997
 30
0.0
 10
0.9044545300760742
 20
-8.0
 30
0.0
 10
0.9562805744373324
 20
-7.999999999999995
 30
0.0
 10
1.0081066187985905
 20
-8.000000000000002
 30
0.0
 10
1.059932663159849
 20
-8.0
 30
0.0
 10
1.1073156181122765
 20
-7.999999999999995
 30
0.0
 10
1.1546985730647046
 20
-8.000000000000002
 30
0.0
 10
1.2020815280171326
 20
-8.0
 30
0.0
 10
1.2444255254099723
 20
-7.999999999999995
 30
0.0
 10
1.2867695228028124
 20
-8.000000000000002
 30
0.0
 10
1.3291135201956523
 20
-8.0
 30
0.0
 10
1.3658860596931293
 20
-7.999999999999995
 30
0.0
 10
1.4026585991906073
 20
-8.000000000000002
 30
0.0
 10
1.439431138688085
 20
-8.0
 30
0.0
 10
1.4701697842700938
 20
-7.999999999999995
 30
0.0
 10
1.500908429852105
 20
-8.000000000000002
 30
0.0
 10
1.5316470754341145
 20
-8.0
 30
0.0
 10
1.5559652707974851
 20
-7.999999999999995
 30
0.0
 10
1.580283466160856
 20
-8.000000000000002
 30
0.0
 10
1.604601661524227
 20
-8.0
 30
0.0
 10
1.6221935912525172
 20
-7.999999999999995
 30
0.0
 10
1.639785520980811
 20
-8.000000000000002
 30
0.0
 10
1.6573774507091024
 20
-8.0
 30
0.0
 10
1.6680218860789058
 20
-7.999999999999995
 30
0.0
 10
1.6786663214487103
 20
-8.000000000000002
 30
0.0
 10
1.6893107568185144
 20
-8.0
 30
0.0
 10
1.6928738378790091
 20
-7.999999999999995
 30
0.0
 10
1.6964369189395065
 20
-8.000000000000002
 30
0.0
 10
1.700000000000002
 20
-8.0
 30
0.0
  0
SPLINE
  5
53
330
17
100
AcDbEntity
  8
HIDDEN
100
AcDbSpline
 70
0
 71
1
 72
17
 73
15
 74
0
 40
0.0
 40
0.0
 40
0.07142857142857142
 40
0.14285714285714285
 40
0.21428571428571427
 40
0.2857142857142857
 40
0.35714285714285715
 40
0.42857142857142855
 40
0.5
 40
0.5714285714285714
 40
0.6428571428571429
 40
0.7142857142857143
 40
0.7857142857142857
 40
0.8571428571428571
 40
0.9285714285714286
 40
1.0
 40
1.0
 10
1.700000000000002
 20
-8.0
 30
0.0
 10
1.6573774507091024
 20
-8.0
 30
0.0
 10
1.5316470754341145
 20
-8.0
 30
0.0
 10
1.3291135201956528
 20
-8.0
 30
0.0
 10
1.0599326631598491
 20
-8.0
 30
0.0
 10
0.7376023564998511
 20
-8.0
 30
0.0
 10
0.37828558772573684
 20
-8.0
 30
0.0
 10
2.275957200481571e-15
 20
-8.0
 30
0.0
 10
-0.3782855877257322
 20
-8.0
 30
0.0
 10
-0.7376023564998464
 20
-8.0
 30
0.0
 10
-1.0599326631598447
 20
-8.0
 30
0.0
 10
-1.3291135201956485
 20
-8.0
 30
0.0
 10
-1.5316470754341103
 20
-8.0
 30
0.0
 10
-1.6573774507090984
 20
-8.0
 30
0.0
 10
-1.699999999999998
 20
-8.0
 30
0.0
  0
SPLINE
  5
54
330
17
100
AcDbEntity
  8
HIDDEN
100
AcDbSpline
 70
0
 71
2
 72
28
 73
25
 74
0
 40
0.0
 40
0.0
 40
0.0
 40
0.07142857142857142
 40
0.07142857142857142
 40
0.14285714285714285
 40
0.14285714285714285
 40
0.21428571428571427
 40
0.21428571428571427
 40
0.2857142857142857
 40
0.2857142857142857
 40
0.35714285714285715
 40
0.35714285714285715
 40
0.42857142857142855
 40
0.42857142857142855
 40
0.5
 40
0.5
 40
0.5714285714285714
 40
0.5714285714285714
 40
0.6428571428571429
 40
0.6428571428571429
 40
0.7142857142857143
 40
0.7142857142857143
 40
0.8571428571428571
 40
0.8571428571428571
 40
1.0
 40
1.0
 40
1.0
 10
-1.699999999999998
 20
-8.0
 30
0.0
 10
-1.694655378409254
 20
-7.999999999999999
 30
0.0
 10
-1.6893107568185104
 20
-8.0
 30
0.0
 10
-1.6733441037638042
 20
-8.0
 30
0.0
 10
-1.6573774507090984
 20
-8.0
 30
0.0
 10
-1.6309895561166607
 20
-7.999999999999999
 30
0.0
 10
-1.6046016615242231
 20
-8.0
 30
0.0
 10
-1.5681243684791666
 20
-8.0
 30
0.0
 10
-1.5316470754341107
 20
-8.0
 30
0.0
 10
-1.485539107061096
 20
-7.999999999999999
 30
0.0
 10
-1.4394311386880814
 20
-8.0
 30
0.0
 10
-1.384272329441865
 20
-8.0
 30
0.0
 10
-1.3291135201956488
 20
-8.0
 30
0.0
 10
-1.2655975241063888
 20
-7.999999999999999
 30
0.0
 10
-1.202081528017129
 20
-8.0
 30
0.0
 10
-1.131007095588487
 20
-8.0
 30
0.0
 10
-1.0599326631598454
 20
-8.0
 30
0.0
 10
-0.9821935966179578
 20
-7.999999999999999
 30
0.0
 10
-0.9044545300760705
 20
-8.0
 30
0.0
 10
-0.8210284432879589
 20
-8.0
 30
0.0
 10
-0.7376023564998471
 20
-8.0
 30
0.0
 10
-0.5634544048146239
 20
-8.0
 30
0.0
 10
-0.3782855877257328
 20
-8.0
 30
0.0
 10
-0.19101082844825842
 20
-8.0
 30
0.0
 10
1.6653345369377348e-15
 20
-8.0
 30
0.0
  0
SPLINE
  5
55
330
17
100
AcDbEntity
  8
HIDDEN
100
AcDbSpline
 70
0
 71
3
 72
41
 73
37
 74
0
 40
0.0
 40
0.0
 40
0.0
 40
0.0
 40
0.3365992128846207
 40
0.3365992128846207
 40
0.3365992128846207
 40
0.4487989505128276
 40
0.4487989505128276
 40
0.4487989505128276
 40
0.5609986881410345
 40
0.5609986881410345
 40
0.5609986881410345
 40
0.6731984257692414
 40
0.6731984257692414
 40
0.6731984257692414
 40
0.7853981633974483
 40
0.7853981633974483
 40
0.7853981633974483
 40
0.8975979010256552
 40
0.8975979010256552
 40
0.8975979010256552
 40
1.009797638653862
 40
1.009797638653862
 40
1.009797638653862
 40
1.121997376282069
 40
1.121997376282069
 40
1.121997376282069
 40
1.2341971139102759
 40
1.2341971139102759
 40
1.2341971139102759
 40
1.3463968515384828
 40
1.3463968515384828
 40
1.3463968515384828
 40
1.4585965891666897
 40
1.4585965891666897
 40
1.4585965891666897
 40
1.5707963267948966
 40
1.5707963267948966
 40
1.5707963267948966
 40
1.5707963267948966
 10
14.722431864335459
 20
-8.0
 30
0.0
 10
14.913423816383212
 20
-7.999999999999996
 30
0.0
 10
15.10262554660628
 20
-8.0
 30
0.0
 10
15.283906269659244
 20
-8.0
 30
0.0
 10
15.34261558671793
 20
-8.000000000000002
 30
0.0
 10
15.401324903776622
 20
-7.999999999999997
 30
0.0
 10
15.460034220835308
 20
-8.0
 30
0.0
 10
15.515651612027376
 20
-8.000000000000002
 30
0.0
 10
15.571269003219461
 20
-7.999999999999997
 30
0.0
 10
15.62688639441153
 20
-8.0
 30
0.0
 10
15.678712438772779
 20
-7.999999999999995
 30
0.0
 10
15.730538483134051
 20
-8.000000000000002
 30
0.0
 10
15.782364527495305
 20
-8.0
 30
0.0
 10
15.82974748244772
 20
-7.999999999999995
 30
0.0
 10
15.877130437400169
 20
-8.000000000000002
 30
0.0
 10
15.924513392352587
 20
-8.0
 30
0.0
 10
15.966857389745424
 20
-7.999999999999995
 30
0.0
 10
16.00920138713827
 20
-8.000000000000002
 30
0.0
 10
16.05154538453111
 20
-8.0
 30
0.0
 10
16.088317924028573
 20
-7.999999999999995
 30
0.0
 10
16.12509046352607
 20
-8.000000000000002
 30
0.0
 10
16.16186300302354
 20
-8.0
 30
0.0
 10
16.192601648605542
 20
-7.999999999999995
 30
0.0
 10
16.223340294187565
 20
-8.000000000000002
 30
0.0
 10
16.25407893976957
 20
-8.0
 30
0.0
 10
16.278397135132938
 20
-7.999999999999995
 30
0.0
 10
16.302715330496316
 20
-8.000000000000002
 30
0.0
 10
16.327033525859683
 20
-8.0
 30
0.0
 10
16.344625455587973
 20
-7.999999999999995
 30
0.0
 10
16.362217385316267
 20
-8.000000000000002
 30
0.0
 10
16.37980931504456
 20
-8.0
 30
0.0
 10
16.390453750414355
 20
-7.999999999999995
 30
0.0
 10
16.401098185784175
 20
-8.000000000000002
 30
0.0
 10
16.41174262115397
 20
-8.0
 30
0.0
 10
16.415305702214454
 20
-7.999999999999995
 30
0.0
 10
16.418868783274966
 20
-8.000000000000002
 30
0.0
 10
16.422431864335458
 20
-8.0
 30
0.0
  0
SPLINE
  5
56
330
17
100
AcDbEntity
  8
HIDDEN
100
AcDbSpline
 70
0
 71
1
 72
17
 73
15
 74
0
 40
0.0
 40
0.0
 40
0.07142857142857142
 40
0.14285714285714285
 40
0.21428571428571427
 40
0.2857142857142857
 40
0.35714285714285715
 40
0.42857142857142855
 40
0.5
 40
0.5714285714285714
 40
0.6428571428571429
 40
0.7142857142857143
 40
0.7857142857142857
 40
0.8571428571428571
 40
0.9285714285714286
 40
1.0
 40
1.0
 10
16.422431864335458
 20
-8.0
 30
0.0
 10
16.379809315044554
 20
-8.0
 30
0.0
 10
16.25407893976957
 20
-8.0
 30
0.0
 10
16.05154538453111
 20
-8.0
 30
0.0
 10
15.782364527495307
 20
-8.0
 30
0.0
 10
15.460034220835308
 20
-8.0
 30
0.0
 10
15.100717452061193
 20
-8.0
 30
0.0
 10
14.722431864335459
 20
-8.0
 30
0.0
 10
14.344146276609724
 20
-8.0
 30
0.0
 10
13.98482950783561
 20
-8.0
 30
0.0
 10
13.662499201175613
 20
-8.0
 30
0.0
 10
13.393318344139807
 20
-8.0
 30
0.0
 10
13.190784788901347
 20
-8.0
 30
0.0
 10
13.065054413626356
 20
-8.0
 30
0.0
 10
13.02243186433546
 20
-8.0
 30
0.0
  0
SPLINE
  5
57
330
17
100
AcDbEntity
  8
HIDDEN
100
AcDbSpline
 70
0
 71
2
 72
28
 73
25
 74
0
 40
0.0
 40
0.0
 40
0.0
 40
0.07142857142857142
 40
0.07142857142857142
 40
0.14285714285714285
 40
0.14285714285714285
 40
0.21428571428571427
 40
0.21428571428571427
 40
0.2857142857142857
 40
0.2857142857142857
 40
0.35714285714285715
 40
0.35714285714285715
 40
0.42857142857142855
 40
0.42857142857142855
 40
0.5
 40
0.5
 40
0.5714285714285714
 40
0.5714285714285714
 40
0.6428571428571429
 40
0.6428571428571429
 40
0.7142857142857143
 40
0.7142857142857143
 40
0.8571428571428571
 40
0.8571428571428571
 40
1.0
 40
1.0
 40
1.0
 10
13.02243186433546
 20
-8.0
 30
0.0
 10
13.027776485926204
 20
-7.999999999999999
 30
0.0
 10
13.033121107516946
 20
-8.0
 30
0.0
 10
13.049087760571654
 20
-8.0
 30
0.0
 10
13.065054413626356
 20
-8.0
 30
0.0
 10
13.091442308218795
 20
-7.999999999999999
 30
0.0
 10
13.117830202811234
 20
-8.0
 30
0.0
 10
13.154307495856292
 20
-8.0
 30
0.0
 10
13.190784788901347
 20
-8.0
 30
0.0
 10
13.23689275727436
 20
-7.999999999999999
 30
0.0
 10
13.283000725647376
 20
-8.0
 30
0.0
 10
13.338159534893592
 20
-8.0
 30
0.0
 10
13.393318344139807
 20
-8.0
 30
0.0
 10
13.456834340229067
 20
-7.999999999999999
 30
0.0
 10
13.520350336318327
 20
-8.0
 30
0.0
 10
13.591424768746968
 20
-8.0
 30
0.0
 10
13.66249920117561
 20
-8.0
 30
0.0
 10
13.740238267717498
 20
-7.999999999999999
 30
0.0
 10
13.817977334259385
 20
-8.0
 30
0.0
 10
13.901403421047497
 20
-8.0
 30
0.0
 10
13.98482950783561
 20
-8.0
 30
0.0
 10
14.158977459520832
 20
-8.0
 30
0.0
 10
14.344146276609724
 20
-8.0
 30
0.0
 10
14.5314210358872
 20
-8.0
 30
0.0
 10
14.722431864335459
 20
-8.0
 30
0.0
  0
SPLINE
  5
58
330
17
100
AcDbEntity
  8
HIDDEN
100
AcDbSpline
 70
0
 71
3
 72
41
 73
37
 74
0
 40
0.0
 40
0.0
 40
0.0
 40
0.0
 40
0.3365992128846207
 40
0.3365992128846207
 40
0.3365992128846207
 40
0.4487989505128276
 40
0.4487989505128276
 40
0.4487989505128276
 40
0.5609986881410345
 40
0.5609986881410345
 40
0.5609986881410345
 40
0.6731984257692414
 40
0.6731984257692414
 40
0.6731984257692414
 40
0.7853981633974483
 40
0.7853981633974483
 40
0.7853981633974483
 40
0.8975979010256552
 40
0.8975979010256552
 40
0.8975979010256552
 40
1.009797638653862
 40
1.009797638653862
 40
1.009797638653862
 40
1.121997376282069
 40
1.121997376282069
 40
1.121997376282069
 40
1.2341971139102759
 40
1.2341971139102759
 40
1.2341971139102759
 40
1.3463968515384828
 40
1.3463968515384828
 40
1.3463968515384828
 40
1.4585965891666897
 40
1.4585965891666897
 40
1.4585965891666897
 40
1.5707963267948966
 40
1.5707963267948966
 40
1.5707963267948966
 40
1.5707963267948966
 10
-5.551115123125783e-17
 20
-8.0
 30
0.0
 10
0.19099195204776245
 20
-7.999999999999996
 30
0.0
 10
0.3801936822708183
 20
-8.0
 30
0.0
 10
0.561474405323784
 20
-8.0
 30
0.0
 10
0.6201837223824723
 20
-8.000000000000002
 30
0.0
 10
0.6788930394411605
 20
-7.999999999999997
 30
0.0
 10
0.7376023564998487
 20
-8.0
 30
0.0
 10
0.7932197476919229
 20
-8.000000000000002
 30
0.0
 10
0.8488371388839976
 20
-7.999999999999997
 30
0.0
 10
0.9044545300760722
 20
-8.0
 30
0.0
 10
0.9562805744373302
 20
-7.999999999999995
 30
0.0
 10
1.0081066187985885
 20
-8.000000000000002
 30
0.0
 10
1.059932663159847
 20
-8.0
 30
0.0
 10
1.1073156181122745
 20
-7.999999999999995
 30
0.0
 10
1.1546985730647026
 20
-8.000000000000002
 30
0.0
 10
1.2020815280171306
 20
-8.0
 30
0.0
 10
1.2444255254099703
 20
-7.999999999999995
 30
0.0
 10
1.2867695228028107
 20
-8.000000000000002
 30
0.0
 10
1.3291135201956505
 20
-8.0
 30
0.0
 10
1.365886059693127
 20
-7.999999999999995
 30
0.0
 10
1.4026585991906064
 20
-8.000000000000002
 30
0.0
 10
1.439431138688083
 20
-8.0
 30
0.0
 10
1.4701697842700923
 20
-7.999999999999995
 30
0.0
 10
1.5009084298521025
 20
-8.000000000000002
 30
0.0
 10
1.5316470754341123
 20
-8.0
 30
0.0
 10
1.5559652707974825
 20
-7.999999999999995
 30
0.0
 10
1.5802834661608536
 20
-8.000000000000002
 30
0.0
 10
1.604601661524225
 20
-8.0
 30
0.0
 10
1.6221935912525158
 20
-7.999999999999995
 30
0.0
 10
1.6397855209808088
 20
-8.000000000000002
 30
0.0
 10
1.6573774507091001
 20
-8.0
 30
0.0
 10
1.6680218860789031
 20
-7.999999999999995
 30
0.0
 10
1.6786663214487085
 20
-8.000000000000002
 30
0.0
 10
1.6893107568185124
 20
-8.0
 30
0.0
 10
1.6928738378790071
 20
-7.999999999999995
 30
0.0
 10
1.6964369189395043
 20
-8.000000000000002
 30
0.0
 10
1.7
 20
-8.0
 30
0.0
  0
SPLINE
  5
59
330
17
100
AcDbEntity
  8
HIDDEN
100
AcDbSpline
 70
0
 71
1
 72
17
 73
15
 74
0
 40
0.0
 40
0.0
 40
0.07142857142857142
 40
0.14285714285714285
 40
0.21428571428571427
 40
0.2857142857142857
 40
0.35714285714285715
 40
0.42857142857142855
 40
0.5
 40
0.5714285714285714
 40
0.6428571428571429
 40
0.7142857142857143
 40
0.7857142857142857
 40
0.8571428571428571
 40
0.9285714285714286
 40
1.0
 40
1.0
 10
1.6999999999999997
 20
-8.0
 30
0.0
 10
1.6573774507091001
 20
-8.0
 30
0.0
 10
1.5316470754341125
 20
-8.0
 30
0.0
 10
1.3291135201956508
 20
-8.0
 30
0.0
 10
1.0599326631598471
 20
-8.0
 30
0.0
 10
0.737602356499849
 20
-8.0
 30
0.0
 10
0.3782855877257347
 20
-8.0
 30
0.0
 10
2.220446049250313e-16
 20
-8.0
 30
0.0
 10
-0.3782855877257343
 20
-8.0
 30
0.0
 10
-0.7376023564998486
 20
-8.0
 30
0.0
 10
-1.059932663159847
 20
-8.0
 30
0.0
 10
-1.3291135201956505
 20
-8.0
 30
0.0
 10
-1.5316470754341123
 20
-8.0
 30
0.0
 10
-1.6573774507091001
 20
-8.0
 30
0.0
 10
-1.6999999999999997
 20
-8.0
 30
0.0
  0
SPLINE
  5
5A
330
17
100
AcDbEntity
  8
HIDDEN
100
AcDbSpline
 70
0
 71
2
 72
28
 73
25
 74
0
 40
0.0
 40
0.0
 40
0.0
 40
0.07142857142857142
 40
0.07142857142857142
 40
0.14285714285714285
 40
0.14285714285714285
 40
0.21428571428571427
 40
0.21428571428571427
 40
0.2857142857142857
 40
0.2857142857142857
 40
0.35714285714285715
 40
0.35714285714285715
 40
0.42857142857142855
 40
0.42857142857142855
 40
0.5
 40
0.5
 40
0.5714285714285714
 40
0.5714285714285714
 40
0.6428571428571429
 40
0.6428571428571429
 40
0.7142857142857143
 40
0.7142857142857143
 40
0.8571428571428571
 40
0.8571428571428571
 40
1.0
 40
1.0
 40
1.0
 10
-1.7
 20
-8.0
 30
0.0
 10
-1.6946553784092562
 20
-7.999999999999999
 30
0.0
 10
-1.6893107568185122
 20
-8.0
 30
0.0
 10
-1.673344103763806
 20
-8.0
 30
0.0
 10
-1.6573774507091001
 20
-8.0
 30
0.0
 10
-1.6309895561166623
 20
-7.999999999999999
 30
0.0
 10
-1.6046016615242253
 20
-8.0
 30
0.0
 10
-1.5681243684791693
 20
-8.0
 30
0.0
 10
-1.5316470754341127
 20
-8.0
 30
0.0
 10
-1.4855391070610977
 20
-7.999999999999999
 30
0.0
 10
-1.4394311386880831
 20
-8.0
 30
0.0
 10
-1.3842723294418668
 20
-8.0
 30
0.0
 10
-1.3291135201956505
 20
-8.0
 30
0.0
 10
-1.2655975241063906
 20
-7.999999999999999
 30
0.0
 10
-1.202081528017131
 20
-8.0
 30
0.0
 10
-1.131007095588489
 20
-8.0
 30
0.0
 10
-1.0599326631598474
 20
-8.0
 30
0.0
 10
-0.9821935966179601
 20
-7.999999999999999
 30
0.0
 10
-0.9044545300760726
 20
-8.0
 30
0.0
 10
-0.821028443287961
 20
-8.0
 30
0.0
 10
-0.7376023564998491
 20
-8.0
 30
0.0
 10
-0.5634544048146259
 20
-8.0
 30
0.0
 10
-0.37828558772573484
 20
-8.0
 30
0.0
 10
-0.1910108284482605
 20
-8.0
 30
0.0
 10
-4.163336342344337e-16
 20
-8.0
 30
0.0
  0
SPLINE
  5
5B
330
17
100
AcDbEntity
  8
HIDDEN
100
AcDbSpline
 70
0
 71
3
 72
41
 73
37
 74
0
 40
0.0
 40
0.0
 40
0.0
 40
0.0
 40
0.3365992128846207
 40
0.3365992128846207
 40
0.3365992128846207
 40
0.4487989505128276
 40
0.4487989505128276
 40
0.4487989505128276
 40
0.5609986881410345
 40
0.5609986881410345
 40
0.5609986881410345
 40
0.6731984257692414
 40
0.6731984257692414
 40
0.6731984257692414
 40
0.7853981633974483
 40
0.7853981633974483
 40
0.7853981633974483
 40
0.8975979010256552
 40
0.8975979010256552
 40
0.8975979010256552
 40
1.009797638653862
 40
1.009797638653862
 40
1.009797638653862
 40
1.121997376282069
 40
1.121997376282069
 40
1.121997376282069
 40
1.2341971139102759
 40
1.2341971139102759
 40
1.2341971139102759
 40
1.3463968515384828
 40
1.3463968515384828
 40
1.3463968515384828
 40
1.4585965891666897
 40
1.4585965891666897
 40
1.4585965891666897
 40
1.5707963267948966
 40
1.5707963267948966
 40
1.5707963267948966
 40
1.5707963267948966
 10
14.722431864335457
 20
-8.0
 30
0.0
 10
14.913423816383213
 20
-7.999999999999996
 30
0.0
 10
15.102625546606282
 20
-8.0
 30
0.0
 10
15.28390626965924
 20
-8.0
 30
0.0
 10
15.342615586717923
 20
-8.000000000000002
 30
0.0
 10
15.40132490377662
 20
-7.999999999999997
 30
0.0
 10
15.460034220835304
 20
-8.0
 30
0.0
 10
15.515651612027376
 20
-8.000000000000002
 30
0.0
 10
15.571269003219456
 20
-7.999999999999997
 30
0.0
 10
15.626886394411528
 20
-8.0
 30
0.0
 10
15.678712438772777
 20
-7.999999999999995
 30
0.0
 10
15.73053848313405
 20
-8.000000000000002
 30
0.0
 10
15.782364527495304
 20
-8.0
 30
0.0
 10
15.82974748244772
 20
-7.999999999999995
 30
0.0
 10
15.877130437400163
 20
-8.000000000000002
 30
0.0
 10
15.924513392352587
 20
-8.0
 30
0.0
 10
15.966857389745423
 20
-7.999999999999995
 30
0.0
 10
16.009201387138265
 20
-8.000000000000002
 30
0.0
 10
16.05154538453111
 20
-8.0
 30
0.0
 10
16.088317924028573
 20
-7.999999999999995
 30
0.0
 10
16.12509046352607
 20
-8.000000000000002
 30
0.0
 10
16.16186300302354
 20
-8.0
 30
0.0
 10
16.192601648605542
 20
-7.999999999999995
 30
0.0
 10
16.223340294187565
 20
-8.000000000000002
 30
0.0
 10
16.25407893976957
 20
-8.0
 30
0.0
 10
16.278397135132938
 20
-7.999999999999995
 30
0.0
 10
16.302715330496316
 20
-8.000000000000002
 30
0.0
 10
16.327033525859683
 20
-8.0
 30
0.0
 10
16.344625455587973
 20
-7.999999999999995
 30
0.0
 10
16.362217385316267
 20
-8.000000000000002
 30
0.0
 10
16.37980931504456
 20
-8.0
 30
0.0
 10
16.390453750414355
 20
-7.999999999999995
 30
0.0
 10
16.401098185784175
 20
-8.000000000000002
 30
0.0
 10
16.41174262115397
 20
-8.0
 30
0.0
 10
16.415305702214454
 20
-7.999999999999995
 30
0.0
 10
16.418868783274966
 20
-8.000000000000002
 30
0.0
 10
16.422431864335458
 20
-8.0
 30
0.0
  0
SPLINE
  5
5C
330
17
100
AcDbEntity
  8
HIDDEN
100
AcDbSpline
 70
0
 71
1
 72
17
 73
15
 74
0
 40
0.0
 40
0.0
 40
0.07142857142857142
 40
0.14285714285714285
 40
0.21428571428571427
 40
0.2857142857142857
 40
0.35714285714285715
 40
0.42857142857142855
 40
0.5
 40
0.5714285714285714
 40
0.6428571428571429
 40
0.7142857142857143
 40
0.7857142857142857
 40
0.8571428571428571
 40
0.9285714285714286
 40
1.0
 40
1.0
 10
16.422431864335458
 20
-8.0
 30
0.0
 10
16.379809315044554
 20
-8.0
 30
0.0
 10
16.25407893976957
 20
-8.0
 30
0.0
 10
16.051545384531106
 20
-8.0
 30
0.0
 10
15.782364527495304
 20
-8.0
 30
0.0
 10
15.460034220835306
 20
-8.0
 30
0.0
 10
15.100717452061192
 20
-8.0
 30
0.0
 10
14.722431864335457
 20
-8.0
 30
0.0
 10
14.344146276609722
 20
-8.0
 30
0.0
 10
13.98482950783561
 20
-8.0
 30
0.0
 10
13.66249920117561
 20
-8.0
 30
0.0
 10
13.393318344139807
 20
-8.0
 30
0.0
 10
13.190784788901347
 20
-8.0
 30
0.0
 10
13.065054413626356
 20
-8.0
 30
0.0
 10
13.02243186433546
 20
-8.0
 30
0.0
  0
SPLINE
  5
5D
330
17
100
AcDbEntity
  8
HIDDEN
100
AcDbSpline
 70
0
 71
2
 72
28
 73
25
 74
0
 40
0.0
 40
0.0
 40
0.0
 40
0.07142857142857142
 40
0.07142857142857142
 40
0.14285714285714285
 40
0.14285714285714285
 40
0.21428571428571427
 40
0.21428571428571427
 40
0.2857142857142857
 40
0.2857142857142857
 40
0.35714285714285715
 40
0.35714285714285715
 40
0.42857142857142855
 40
0.42857142857142855
 40
0.5
 40
0.5
 40
0.5714285714285714
 40
0.5714285714285714
 40
0.6428571428571429
 40
0.6428571428571429
 40
0.7142857142857143
 40
0.7142857142857143
 40
0.8571428571428571
 40
0.8571428571428571
 40
1.0
 40
1.0
 40
1.0
 10
13.022431864335456
 20
-8.0
 30
0.0
 10
13.027776485926198
 20
-7.999999999999999
 30
0.0
 10
13.033121107516944
 20
-8.0
 30
0.0
 10
13.04908776057165
 20
-8.0
 30
0.0
 10
13.065054413626356
 20
-8.0
 30
0.0
 10
13.091442308218797
 20
-7.999999999999999
 30
0.0
 10
13.11783020281123
 20
-8.0
 30
0.0
 10
13.154307495856287
 20
-8.0
 30
0.0
 10
13.190784788901343
 20
-8.0
 30
0.0
 10
13.236892757274358
 20
-7.999999999999999
 30
0.0
 10
13.283000725647373
 20
-8.0
 30
0.0
 10
13.338159534893586
 20
-8.0
 30
0.0
 10
13.393318344139804
 20
-8.0
 30
0.0
 10
13.456834340229063
 20
-7.999999999999999
 30
0.0
 10
13.520350336318327
 20
-8.0
 30
0.0
 10
13.591424768746968
 20
-8.0
 30
0.0
 10
13.66249920117561
 20
-8.0
 30
0.0
 10
13.7402382677175
 20
-7.999999999999999
 30
0.0
 10
13.817977334259384
 20
-8.0
 30
0.0
 10
13.901403421047496
 20
-8.0
 30
0.0
 10
13.984829507835608
 20
-8.0
 30
0.0
 10
14.158977459520834
 20
-8.0
 30
0.0
 10
14.344146276609722
 20
-8.0
 30
0.0
 10
14.531421035887199
 20
-8.0
 30
0.0
 10
14.722431864335457
 20
-8.0
 30
0.0
  0
SPLINE
  5
5E
330
17
100
AcDbEntity
  8
HIDDEN
100
AcDbSpline
 70
0
 71
1
 72
17
 73
15
 74
0
 40
0.0
 40
0.0
 40
0.1121997376282069
 40
0.2243994752564138
 40
0.3365992128846207
 40
0.4487989505128276
 40
0.5609986881410345
 40
0.6731984257692414
 40
0.7853981633974483
 40
0.8975979010256552
 40
1.009797638653862
 40
1.121997376282069
 40
1.2341971139102759
 40
1.3463968515384828
 40
1.4585965891666897
 40
1.5707963267948966
 40
1.5707963267948966
 10
0.0
 20
8.0
 30
0.0
 10
2.351253998169465
 20
8.0
 30
0.0
 10
4.672939613082601
 20
8.0
 30
0.0
 10
6.935860301058507
 20
8.0
 30
0.0
 10
9.111558521468721
 20
8.0
 30
0.0
 10
11.17267360682207
 20
8.0
 30
0.0
 10
13.093285839033403
 20
8.0
 30
0.0
 10
14.849242404917497
 20
8.0
 30
0.0
 10
16.418461131828625
 20
8.0
 30
0.0
 10
17.78120818379397
 20
8.0
 30
0.0
 10
18.9203462259508
 20
8.0
 30
0.0
 10
19.82154993647572
 20
8.0
 30
0.0
 10
20.4734861558183
 20
8.0
 30
0.0
 10
20.867956407758093
 20
8.0
 30
0.0
 10
21.0
 20
8.0
 30
0.0
  0
SPLINE
  5
5F
330
17
100
AcDbEntity
  8
HIDDEN
100
AcDbSpline
 70
0
 71
1
 72
17
 73
15
 74
0
 40
0.0
 40
0.0
 40
0.07142857142857142
 40
0.14285714285714285
 40
0.21428571428571427
 40
0.2857142857142857
 40
0.35714285714285715
 40
0.42857142857142855
 40
0.5
 40
0.5714285714285714
 40
0.6428571428571429
 40
0.7142857142857143
 40
0.7857142857142857
 40
0.8571428571428571
 40
0.9285714285714286
 40
1.0
 40
1.0
 10
21.0
 20
8.0
 30
0.0
 10
20.4734861558183
 20
8.0
 30
0.0
 10
18.9203462259508
 20
8.0
 30
0.0
 10
16.41846113182863
 20
8.0
 30
0.0
 10
13.093285839033406
 20
8.0
 30
0.0
 10
9.111558521468723
 20
8.0
 30
0.0
 10
4.672939613082605
 20
8.0
 30
0.0
 10
2.6645352591003757e-15
 20
8.0
 30
0.0
 10
-4.672939613082599
 20
8.0
 30
0.0
 10
-9.111558521468718
 20
8.0
 30
0.0
 10
-13.093285839033403
 20
8.0
 30
0.0
 10
-16.41846113182863
 20
8.0
 30
0.0
 10
-18.9203462259508
 20
8.0
 30
0.0
 10
-20.473486155818293
 20
8.0
 30
0.0
 10
-21.0
 20
8.0
 30
0.0
  0
SPLINE
  5
60
330
17
100
AcDbEntity
  8
HIDDEN
100
AcDbSpline
 70
0
 71
1
 72
17
 73
15
 74
0
 40
0.0
 40
0.0
 40
0.07142857142857142
 40
0.14285714285714285
 40
0.21428571428571427
 40
0.2857142857142857
 40
0.35714285714285715
 40
0.42857142857142855
 40
0.5
 40
0.5714285714285714
 40
0.6428571428571429
 40
0.7142857142857143
 40
0.7857142857142857
 40
0.8571428571428571
 40
0.9285714285714286
 40
1.0
 40
1.0
 10
-21.0
 20
8.0
 30
0.0
 10
-20.867956407758093
 20
8.0
 30
0.0
 10
-20.473486155818296
 20
8.0
 30
0.0
 10
-19.821549936475723
 20
8.0
 30
0.0
 10
-18.920346225950805
 20
8.0
 30
0.0
 10
-17.78120818379397
 20
8.0
 30
0.0
 10
-16.41846113182863
 20
8.0
 30
0.0
 10
-14.8492424049175
 20
8.0
 30
0.0
 10
-13.093285839033406
 20
8.0
 30
0.0
 10
-11.172673606822073
 20
8.0
 30
0.0
 10
-9.111558521468725
 20
8.0
 30
0.0
 10
-6.935860301058514
 20
8.0
 30
0.0
 10
-4.672939613082607
 20
8.0
 30
0.0
 10
-2.3512539981694696
 20
8.0
 30
0.0
 10
-5.10702591327572e-15
 20
8.0
 30
0.0
  0
SPLINE
  5
61
330
17
100
AcDbEntity
  8
HIDDEN
100
AcDbSpline
 70
0
 71
3
 72
41
 73
37
 74
0
 40
0.0
 40
0.0
 40
0.0
 40
0.0
 40
0.3365992128846207
 40
0.3365992128846207
 40
0.3365992128846207
 40
0.4487989505128276
 40
0.4487989505128276
 40
0.4487989505128276
 40
0.5609986881410345
 40
0.5609986881410345
 40
0.5609986881410345
 40
0.6731984257692414
 40
0.6731984257692414
 40
0.6731984257692414
 40
0.7853981633974483
 40
0.7853981633974483
 40
0.7853981633974483
 40
0.8975979010256552
 40
0.8975979010256552
 40
0.8975979010256552
 40
1.009797638653862
 40
1.009797638653862
 40
1.009797638653862
 40
1.121997376282069
 40
1.121997376282069
 40
1.121997376282069
 40
1.2341971139102759
 40
1.2341971139102759
 40
1.2341971139102759
 40
1.3463968515384828
 40
1.3463968515384828
 40
1.3463968515384828
 40
1.4585965891666897
 40
1.4585965891666897
 40
1.4585965891666897
 40
1.5707963267948966
 40
1.5707963267948966
 40
1.5707963267948966
 40
1.5707963267948966
 10
-14.722431864335451
 20
10.0
 30
0.0
 10
-14.531439912287684
 20
9.999999999999996
 30
0.0
 10
-14.342238182064637
 20
10.000000000000002
 30
0.0
 10
-14.160957459011666
 20
10.0
 30
0.0
 10
-14.102248141952977
 20
9.999999999999998
 30
0.0
 10
-14.043538824894291
 20
10.0
 30
0.0
 10
-13.984829507835602
 20
10.0
 30
0.0
 10
-13.929212116643525
 20
9.999999999999998
 30
0.0
 10
-13.873594725451458
 20
10.0
 30
0.0
 10
-13.81797733425938
 20
10.0
 30
0.0
 10
-13.766151289898117
 20
9.999999999999996
 30
0.0
 10
-13.714325245536862
 20
10.0
 30
0.0
 10
-13.662499201175605
 20
10.0
 30
0.0
 10
-13.615116246223172
 20
9.999999999999996
 30
0.0
 10
-13.567733291270748
 20
10.0
 30
0.0
 10
-13.520350336318323
 20
10.0
 30
0.0
 10
-13.478006338925473
 20
9.999999999999996
 30
0.0
 10
-13.435662341532641
 20
10.0
 30
0.0
 10
-13.3933183441398
 20
10.0
 30
0.0
 10
-13.356545804642321
 20
9.999999999999996
 30
0.0
 10
-13.319773265144846
 20
10.0
 30
0.0
 10
-13.28300072564737
 20
10.0
 30
0.0
 10
-13.252262080065346
 20
9.999999999999996
 30
0.0
 10
-13.221523434483357
 20
9.999999999999998
 30
0.0
 10
-13.19078478890134
 20
10.0
 30
0.0
 10
-13.166466593537958
 20
9.999999999999996
 30
0.0
 10
-13.1421483981746
 20
9.999999999999998
 30
0.0
 10
-13.117830202811227
 20
10.0
 30
0.0
 10
-13.10023827308293
 20
9.999999999999996
 30
0.0
 10
-13.082646343354645
 20
9.999999999999998
 30
0.0
 10
-13.065054413626351
 20
10.0
 30
0.0
 10
-13.054409978256546
 20
9.999999999999996
 30
0.0
 10
-13.043765542886742
 20
9.999999999999998
 30
0.0
 10
-13.03312110751694
 20
10.0
 30
0.0
 10
-13.029558026456435
 20
9.999999999999996
 30
0.0
 10
-13.025994945395954
 20
9.999999999999998
 30
0.0
 10
-13.022431864335452
 20
10.0
 30
0.0
  0
SPLINE
  5
62
330
17
100
AcDbEntity
  8
HIDDEN
100
AcDbSpline
 70
0
 71
1
 72
17
 73
15
 74
0
 40
0.0
 40
0.0
 40
0.07142857142857142
 40
0.14285714285714285
 40
0.21428571428571427
 40
0.2857142857142857
 40
0.35714285714285715
 40
0.42857142857142855
 40
0.5
 40
0.5714285714285714
 40
0.6428571428571429
 40
0.7142857142857143
 40
0.7857142857142857
 40
0.8571428571428571
 40
0.9285714285714286
 40
1.0
 40
1.0
 10
-13.022431864335452
 20
10.0
 30
0.0
 10
-13.06505441362635
 20
10.0
 30
0.0
 10
-13.19078478890134
 20
10.0
 30
0.0
 10
-13.3933183441398
 20
10.0
 30
0.0
 10
-13.662499201175603
 20
10.0
 30
0.0
 10
-13.984829507835602
 20
10.0
 30
0.0
 10
-14.344146276609717
 20
10.0
 30
0.0
 10
-14.722431864335451
 20
10.0
 30
0.0
 10
-15.100717452061186
 20
10.0
 30
0.0
 10
-15.4600342208353
 20
10.0
 30
0.0
 10
-15.782364527495297
 20
10.0
 30
0.0
 10
-16.051545384531103
 20
10.0
 30
0.0
 10
-16.254078939769563
 20
10.0
 30
0.0
 10
-16.379809315044554
 20
10.0
 30
0.0
 10
-16.42243186433545
 20
10.0
 30
0.0
  0
SPLINE
  5
63
330
17
100
AcDbEntity
  8
HIDDEN
100
AcDbSpline
 70
0
 71
2
 72
28
 73
25
 74
0
 40
0.0
 40
0.0
 40
0.0
 40
0.07142857142857142
 40
0.07142857142857142
 40
0.14285714285714285
 40
0.14285714285714285
 40
0.21428571428571427
 40
0.21428571428571427
 40
0.2857142857142857
 40
0.2857142857142857
 40
0.35714285714285715
 40
0.35714285714285715
 40
0.42857142857142855
 40
0.42857142857142855
 40
0.5
 40
0.5
 40
0.5714285714285714
 40
0.5714285714285714
 40
0.6428571428571429
 40
0.6428571428571429
 40
0.7142857142857143
 40
0.7142857142857143
 40
0.8571428571428571
 40
0.8571428571428571
 40
1.0
 40
1.0
 40
1.0
 10
-16.42243186433545
 20
10.0
 30
0.0
 10
-16.417087242744703
 20
9.999999999999998
 30
0.0
 10
-16.411742621153962
 20
10.0
 30
0.0
 10
-16.395775968099258
 20
10.0
 30
0.0
 10
-16.379809315044554
 20
10.0
 30
0.0
 10
-16.35342142045211
 20
9.999999999999998
 30
0.0
 10
-16.327033525859676
 20
10.0
 30
0.0
 10
-16.29055623281462
 20
10.0
 30
0.0
 10
-16.254078939769563
 20
10.0
 30
0.0
 10
-16.207970971396545
 20
9.999999999999998
 30
0.0
 10
-16.161863003023534
 20
10.0
 30
0.0
 10
-16.10670419377732
 20
10.0
 30
0.0
 10
-16.051545384531103
 20
10.0
 30
0.0
 10
-15.988029388441841
 20
9.999999999999998
 30
0.0
 10
-15.924513392352583
 20
10.0
 30
0.0
 10
-15.853438959923942
 20
10.0
 30
0.0
 10
-15.7823645274953
 20
10.0
 30
0.0
 10
-15.704625460953409
 20
9.999999999999998
 30
0.0
 10
-15.626886394411525
 20
10.0
 30
0.0
 10
-15.543460307623414
 20
10.0
 30
0.0
 10
-15.4600342208353
 20
10.0
 30
0.0
 10
-15.285886269150078
 20
10.0
 30
0.0
 10
-15.100717452061186
 20
10.0
 30
0.0
 10
-14.91344269278371
 20
10.0
 30
0.0
 10
-14.722431864335451
 20
10.0
 30
0.0
  0
SPLINE
  5
64
330
17
100
AcDbEntity
  8
HIDDEN
100
AcDbSpline
 70
0
 71
3
 72
41
 73
37
 74
0
 40
0.0
 40
0.0
 40
0.0
 40
0.0
 40
0.3365992128846207
 40
0.3365992128846207
 40
0.3365992128846207
 40
0.4487989505128276
 40
0.4487989505128276
 40
0.4487989505128276
 40
0.5609986881410345
 40
0.5609986881410345
 40
0.5609986881410345
 40
0.6731984257692414
 40
0.6731984257692414
 40
0.6731984257692414
 40
0.7853981633974483
 40
0.7853981633974483
 40
0.7853981633974483
 40
0.8975979010256552
 40
0.8975979010256552
 40
0.8975979010256552
 40
1.009797638653862
 40
1.009797638653862
 40
1.009797638653862
 40
1.121997376282069
 40
1.121997376282069
 40
1.121997376282069
 40
1.2341971139102759
 40
1.2341971139102759
 40
1.2341971139102759
 40
1.3463968515384828
 40
1.3463968515384828
 40
1.3463968515384828
 40
1.4585965891666897
 40
1.4585965891666897
 40
1.4585965891666897
 40
1.5707963267948966
 40
1.5707963267948966
 40
1.5707963267948966
 40
1.5707963267948966
 10
-14.722431864335457
 20
10.0
 30
0.0
 10
-14.531439912287693
 20
9.999999999999996
 30
0.0
 10
-14.342238182064637
 20
10.000000000000002
 30
0.0
 10
-14.160957459011673
 20
10.0
 30
0.0
 10
-14.102248141952982
 20
9.999999999999998
 30
0.0
 10
-14.043538824894302
 20
10.0
 30
0.0
 10
-13.98482950783561
 20
10.0
 30
0.0
 10
-13.929212116643532
 20
9.999999999999998
 30
0.0
 10
-13.873594725451465
 20
10.0
 30
0.0
 10
-13.817977334259385
 20
10.0
 30
0.0
 10
-13.766151289898126
 20
9.999999999999996
 30
0.0
 10
-13.714325245536866
 20
10.0
 30
0.0
 10
-13.66249920117561
 20
10.0
 30
0.0
 10
-13.615116246223177
 20
9.999999999999996
 30
0.0
 10
-13.567733291270757
 20
10.0
 30
0.0
 10
-13.520350336318327
 20
10.0
 30
0.0
 10
-13.478006338925484
 20
9.999999999999996
 30
0.0
 10
-13.435662341532646
 20
10.0
 30
0.0
 10
-13.393318344139807
 20
10.0
 30
0.0
 10
-13.356545804642323
 20
9.999999999999996
 30
0.0
 10
-13.319773265144857
 20
10.0
 30
0.0
 10
-13.283000725647375
 20
10.0
 30
0.0
 10
-13.252262080065355
 20
9.999999999999996
 30
0.0
 10
-13.221523434483357
 20
9.999999999999998
 30
0.0
 10
-13.190784788901345
 20
10.0
 30
0.0
 10
-13.16646659353797
 20
9.999999999999996
 30
0.0
 10
-13.1421483981746
 20
9.999999999999998
 30
0.0
 10
-13.117830202811234
 20
10.0
 30
0.0
 10
-13.100238273082937
 20
9.999999999999996
 30
0.0
 10
-13.082646343354652
 20
9.999999999999998
 30
0.0
 10
-13.065054413626356
 20
10.0
 30
0.0
 10
-13.054409978256546
 20
9.999999999999996
 30
0.0
 10
-13.043765542886751
 20
9.999999999999998
 30
0.0
 10
-13.033121107516944
 20
10.0
 30
0.0
 10
-13.02955802645644
 20
9.999999999999996
 30
0.0
 10
-13.025994945395958
 20
9.999999999999998
 30
0.0
 10
-13.022431864335456
 20
10.0
 30
0.0
  0
SPLINE
  5
65
330
17
100
AcDbEntity
  8
HIDDEN
100
AcDbSpline
 70
0
 71
1
 72
17
 73
15
 74
0
 40
0.0
 40
0.0
 40
0.07142857142857142
 40
0.14285714285714285
 40
0.21428571428571427
 40
0.2857142857142857
 40
0.35714285714285715
 40
0.42857142857142855
 40
0.5
 40
0.5714285714285714
 40
0.6428571428571429
 40
0.7142857142857143
 40
0.7857142857142857
 40
0.8571428571428571
 40
0.9285714285714286
 40
1.0
 40
1.0
 10
-13.02243186433546
 20
10.0
 30
0.0
 10
-13.065054413626356
 20
10.0
 30
0.0
 10
-13.190784788901345
 20
10.0
 30
0.0
 10
-13.393318344139804
 20
10.0
 30
0.0
 10
-13.66249920117561
 20
10.0
 30
0.0
 10
-13.984829507835608
 20
10.0
 30
0.0
 10
-14.344146276609722
 20
10.0
 30
0.0
 10
-14.722431864335457
 20
10.0
 30
0.0
 10
-15.100717452061192
 20
10.0
 30
0.0
 10
-15.460034220835304
 20
10.0
 30
0.0
 10
-15.782364527495304
 20
10.0
 30
0.0
 10
-16.05154538453111
 20
10.0
 30
0.0
 10
-16.25407893976957
 20
10.0
 30
0.0
 10
-16.37980931504456
 20
10.0
 30
0.0
 10
-16.422431864335458
 20
10.0
 30
0.0
  0
SPLINE
  5
66
330
17
100
AcDbEntity
  8
HIDDEN
100
AcDbSpline
 70
0
 71
2
 72
28
 73
25
 74
0
 40
0.0
 40
0.0
 40
0.0
 40
0.07142857142857142
 40
0.07142857142857142
 40
0.14285714285714285
 40
0.14285714285714285
 40
0.21428571428571427
 40
0.21428571428571427
 40
0.2857142857142857
 40
0.2857142857142857
 40
0.35714285714285715
 40
0.35714285714285715
 40
0.42857142857142855
 40
0.42857142857142855
 40
0.5
 40
0.5
 40
0.5714285714285714
 40
0.5714285714285714
 40
0.6428571428571429
 40
0.6428571428571429
 40
0.7142857142857143
 40
0.7142857142857143
 40
0.8571428571428571
 40
0.8571428571428571
 40
1.0
 40
1.0
 40
1.0
 10
-16.422431864335458
 20
10.0
 30
0.0
 10
-16.41708724274471
 20
9.999999999999998
 30
0.0
 10
-16.41174262115397
 20
10.0
 30
0.0
 10
-16.395775968099265
 20
10.0
 30
0.0
 10
-16.37980931504456
 20
10.0
 30
0.0
 10
-16.35342142045212
 20
9.999999999999998
 30
0.0
 10
-16.327033525859683
 20
10.0
 30
0.0
 10
-16.290556232814627
 20
10.0
 30
0.0
 10
-16.25407893976957
 20
10.0
 30
0.0
 10
-16.207970971396552
 20
9.999999999999998
 30
0.0
 10
-16.16186300302354
 20
10.0
 30
0.0
 10
-16.106704193777325
 20
10.0
 30
0.0
 10
-16.051545384531106
 20
10.0
 30
0.0
 10
-15.988029388441843
 20
9.999999999999998
 30
0.0
 10
-15.924513392352587
 20
10.0
 30
0.0
 10
-15.853438959923947
 20
10.0
 30
0.0
 10
-15.782364527495304
 20
10.0
 30
0.0
 10
-15.70462546095341
 20
9.999999999999998
 30
0.0
 10
-15.62688639441153
 20
10.0
 30
0.0
 10
-15.54346030762342
 20
10.0
 30
0.0
 10
-15.460034220835306
 20
10.0
 30
0.0
 10
-15.285886269150083
 20
10.0
 30
0.0
 10
-15.100717452061192
 20
10.0
 30
0.0
 10
-14.913442692783718
 20
10.0
 30
0.0
 10
-14.722431864335457
 20
10.0
 30
0.0
  0
SPLINE
  5
67
330
17
100
AcDbEntity
  8
HIDDEN
100
AcDbSpline
 70
0
 71
3
 72
41
 73
37
 74
0
 40
0.0
 40
0.0
 40
0.0
 40
0.0
 40
0.3365992128846207
 40
0.3365992128846207
 40
0.3365992128846207
 40
0.4487989505128276
 40
0.4487989505128276
 40
0.4487989505128276
 40
0.5609986881410345
 40
0.5609986881410345
 40
0.5609986881410345
 40
0.6731984257692414
 40
0.6731984257692414
 40
0.6731984257692414
 40
0.7853981633974483
 40
0.7853981633974483
 40
0.7853981633974483
 40
0.8975979010256552
 40
0.8975979010256552
 40
0.8975979010256552
 40
1.009797638653862
 40
1.009797638653862
 40
1.009797638653862
 40
1.121997376282069
 40
1.121997376282069
 40
1.121997376282069
 40
1.2341971139102759
 40
1.2341971139102759
 40
1.2341971139102759
 40
1.3463968515384828
 40
1.3463968515384828
 40
1.3463968515384828
 40
1.4585965891666897
 40
1.4585965891666897
 40
1.4585965891666897
 40
1.5707963267948966
 40
1.5707963267948966
 40
1.5707963267948966
 40
1.5707963267948966
 10
2.1094237467877974e-15
 20
10.0
 30
0.0
 10
0.19099195204776445
 20
9.999999999999996
 30
0.0
 10
0.3801936822708205
 20
10.000000000000002
 30
0.0
 10
0.5614744053237861
 20
10.0
 30
0.0
 10
0.6201837223824743
 20
9.999999999999998
 30
0.0
 10
0.6788930394411625
 20
10.0
 30
0.0
 10
0.7376023564998508
 20
10.0
 30
0.0
 10
0.7932197476919254
 20
9.999999999999998
 30
0.0
 10
0.8488371388839996
 20
10.0
 30
0.0
 10
0.9044545300760742
 20
10.0
 30
0.0
 10
0.9562805744373324
 20
9.999999999999996
 30
0.0
 10
1.0081066187985905
 20
10.0
 30
0.0
 10
1.059932663159849
 20
10.0
 30
0.0
 10
1.1073156181122765
 20
9.999999999999996
 30
0.0
 10
1.1546985730647046
 20
10.0
 30
0.0
 10
1.2020815280171326
 20
10.0
 30
0.0
 10
1.2444255254099723
 20
9.999999999999996
 30
0.0
 10
1.2867695228028124
 20
10.0
 30
0.0
 10
1.3291135201956523
 20
10.0
 30
0.0
 10
1.3658860596931293
 20
9.999999999999996
 30
0.0
 10
1.4026585991906073
 20
10.0
 30
0.0
 10
1.439431138688085
 20
10.0
 30
0.0
 10
1.4701697842700938
 20
9.999999999999996
 30
0.0
 10
1.500908429852105
 20
9.999999999999998
 30
0.0
 10
1.5316470754341145
 20
10.0
 30
0.0
 10
1.5559652707974851
 20
9.999999999999996
 30
0.0
 10
1.580283466160856
 20
9.999999999999998
 30
0.0
 10
1.604601661524227
 20
10.0
 30
0.0
 10
1.6221935912525172
 20
9.999999999999996
 30
0.0
 10
1.639785520980811
 20
9.999999999999998
 30
0.0
 10
1.6573774507091024
 20
10.0
 30
0.0
 10
1.6680218860789058
 20
9.999999999999996
 30
0.0
 10
1.6786663214487103
 20
9.999999999999998
 30
0.0
 10
1.6893107568185144
 20
10.0
 30
0.0
 10
1.6928738378790091
 20
9.999999999999996
 30
0.0
 10
1.6964369189395065
 20
9.999999999999998
 30
0.0
 10
1.700000000000002
 20
10.0
 30
0.0
  0
SPLINE
  5
68
330
17
100
AcDbEntity
  8
HIDDEN
100
AcDbSpline
 70
0
 71
1
 72
17
 73
15
 74
0
 40
0.0
 40
0.0
 40
0.07142857142857142
 40
0.14285714285714285
 40
0.21428571428571427
 40
0.2857142857142857
 40
0.35714285714285715
 40
0.42857142857142855
 40
0.5
 40
0.5714285714285714
 40
0.6428571428571429
 40
0.7142857142857143
 40
0.7857142857142857
 40
0.8571428571428571
 40
0.9285714285714286
 40
1.0
 40
1.0
 10
1.700000000000002
 20
10.0
 30
0.0
 10
1.6573774507091024
 20
10.0
 30
0.0
 10
1.5316470754341145
 20
10.0
 30
0.0
 10
1.3291135201956528
 20
10.0
 30
0.0
 10
1.0599326631598491
 20
10.0
 30
0.0
 10
0.7376023564998511
 20
10.0
 30
0.0
 10
0.37828558772573684
 20
10.0
 30
0.0
 10
2.275957200481571e-15
 20
10.0
 30
0.0
 10
-0.3782855877257322
 20
10.0
 30
0.0
 10
-0.7376023564998464
 20
10.0
 30
0.0
 10
-1.0599326631598447
 20
10.0
 30
0.0
 10
-1.3291135201956485
 20
10.0
 30
0.0
 10
-1.5316470754341103
 20
10.0
 30
0.0
 10
-1.6573774507090984
 20
10.0
 30
0.0
 10
-1.699999999999998
 20
10.0
 30
0.0
  0
SPLINE
  5
69
330
17
100
AcDbEntity
  8
HIDDEN
100
AcDbSpline
 70
0
 71
2
 72
28
 73
25
 74
0
 40
0.0
 40
0.0
 40
0.0
 40
0.07142857142857142
 40
0.07142857142857142
 40
0.14285714285714285
 40
0.14285714285714285
 40
0.21428571428571427
 40
0.21428571428571427
 40
0.2857142857142857
 40
0.2857142857142857
 40
0.35714285714285715
 40
0.35714285714285715
 40
0.42857142857142855
 40
0.42857142857142855
 40
0.5
 40
0.5
 40
0.5714285714285714
 40
0.5714285714285714
 40
0.6428571428571429
 40
0.6428571428571429
 40
0.7142857142857143
 40
0.7142857142857143
 40
0.8571428571428571
 40
0.8571428571428571
 40
1.0
 40
1.0
 40
1.0
 10
-1.699999999999998
 20
10.0
 30
0.0
 10
-1.694655378409254
 20
9.999999999999998
 30
0.0
 10
-1.6893107568185104
 20
10.0
 30
0.0
 10
-1.6733441037638042
 20
10.0
 30
0.0
 10
-1.6573774507090984
 20
10.0
 30
0.0
 10
-1.6309895561166607
 20
9.999999999999998
 30
0.0
 10
-1.6046016615242231
 20
10.0
 30
0.0
 10
-1.5681243684791666
 20
10.0
 30
0.0
 10
-1.5316470754341107
 20
10.0
 30
0.0
 10
-1.485539107061096
 20
9.999999999999998
 30
0.0
 10
-1.4394311386880814
 20
10.0
 30
0.0
 10
-1.384272329441865
 20
10.0
 30
0.0
 10
-1.3291135201956488
 20
10.0
 30
0.0
 10
-1.2655975241063888
 20
9.999999999999998
 30
0.0
 10
-1.202081528017129
 20
10.0
 30
0.0
 10
-1.131007095588487
 20
10.0
 30
0.0
 10
-1.0599326631598454
 20
10.0
 30
0.0
 10
-0.9821935966179578
 20
9.999999999999998
 30
0.0
 10
-0.9044545300760705
 20
10.0
 30
0.0
 10
-0.8210284432879589
 20
10.0
 30
0.0
 10
-0.7376023564998471
 20
10.0
 30
0.0
 10
-0.5634544048146239
 20
10.0
 30
0.0
 10
-0.3782855877257328
 20
10.0
 30
0.0
 10
-0.19101082844825842
 20
10.0
 30
0.0
 10
1.6653345369377348e-15
 20
10.0
 30
0.0
  0
SPLINE
  5
6A
330
17
100
AcDbEntity
  8
HIDDEN
100
AcDbSpline
 70
0
 71
3
 72
41
 73
37
 74
0
 40
0.0
 40
0.0
 40
0.0
 40
0.0
 40
0.3365992128846207
 40
0.3365992128846207
 40
0.3365992128846207
 40
0.4487989505128276
 40
0.4487989505128276
 40
0.4487989505128276
 40
0.5609986881410345
 40
0.5609986881410345
 40
0.5609986881410345
 40
0.6731984257692414
 40
0.6731984257692414
 40
0.6731984257692414
 40
0.7853981633974483
 40
0.7853981633974483
 40
0.7853981633974483
 40
0.8975979010256552
 40
0.8975979010256552
 40
0.8975979010256552
 40
1.009797638653862
 40
1.009797638653862
 40
1.009797638653862
 40
1.121997376282069
 40
1.121997376282069
 40
1.121997376282069
 40
1.2341971139102759
 40
1.2341971139102759
 40
1.2341971139102759
 40
1.3463968515384828
 40
1.3463968515384828
 40
1.3463968515384828
 40
1.4585965891666897
 40
1.4585965891666897
 40
1.4585965891666897
 40
1.5707963267948966
 40
1.5707963267948966
 40
1.5707963267948966
 40
1.5707963267948966
 10
14.722431864335459
 20
10.0
 30
0.0
 10
14.913423816383212
 20
9.999999999999996
 30
0.0
 10
15.10262554660628
 20
10.000000000000002
 30
0.0
 10
15.283906269659244
 20
10.0
 30
0.0
 10
15.34261558671793
 20
9.999999999999998
 30
0.0
 10
15.401324903776622
 20
10.0
 30
0.0
 10
15.460034220835308
 20
10.0
 30
0.0
 10
15.515651612027376
 20
9.999999999999998
 30
0.0
 10
15.571269003219461
 20
10.0
 30
0.0
 10
15.62688639441153
 20
10.0
 30
0.0
 10
15.678712438772779
 20
9.999999999999996
 30
0.0
 10
15.730538483134051
 20
10.0
 30
0.0
 10
15.782364527495305
 20
10.0
 30
0.0
 10
15.82974748244772
 20
9.999999999999996
 30
0.0
 10
15.877130437400169
 20
10.0
 30
0.0
 10
15.924513392352587
 20
10.0
 30
0.0
 10
15.966857389745424
 20
9.999999999999996
 30
0.0
 10
16.00920138713827
 20
10.0
 30
0.0
 10
16.05154538453111
 20
10.0
 30
0.0
 10
16.088317924028573
 20
9.999999999999996
 30
0.0
 10
16.12509046352607
 20
10.0
 30
0.0
 10
16.16186300302354
 20
10.0
 30
0.0
 10
16.192601648605542
 20
9.999999999999996
 30
0.0
 10
16.223340294187565
 20
9.999999999999998
 30
0.0
 10
16.25407893976957
 20
10.0
 30
0.0
 10
16.278397135132938
 20
9.999999999999996
 30
0.0
 10
16.302715330496316
 20
9.999999999999998
 30
0.0
 10
16.327033525859683
 20
10.0
 30
0.0
 10
16.344625455587973
 20
9.999999999999996
 30
0.0
 10
16.362217385316267
 20
9.999999999999998
 30
0.0
 10
16.37980931504456
 20
10.0
 30
0.0
 10
16.390453750414355
 20
9.999999999999996
 30
0.0
 10
16.401098185784175
 20
9.999999999999998
 30
0.0
 10
16.41174262115397
 20
10.0
 30
0.0
 10
16.415305702214454
 20
9.999999999999996
 30
0.0
 10
16.418868783274966
 20
9.999999999999998
 30
0.0
 10
16.422431864335458
 20
10.0
 30
0.0
  0
SPLINE
  5
6B
330
17
100
AcDbEntity
  8
HIDDEN
100
AcDbSpline
 70
0
 71
1
 72
17
 73
15
 74
0
 40
0.0
 40
0.0
 40
0.07142857142857142
 40
0.14285714285714285
 40
0.21428571428571427
 40
0.2857142857142857
 40
0.35714285714285715
 40
0.42857142857142855
 40
0.5
 40
0.5714285714285714
 40
0.6428571428571429
 40
0.7142857142857143
 40
0.7857142857142857
 40
0.8571428571428571
 40
0.9285714285714286
 40
1.0
 40
1.0
 10
16.422431864335458
 20
10.0
 30
0.0
 10
16.379809315044554
 20
10.0
 30
0.0
 10
16.25407893976957
 20
10.0
 30
0.0
 10
16.05154538453111
 20
10.0
 30
0.0
 10
15.782364527495307
 20
10.0
 30
0.0
 10
15.460034220835308
 20
10.0
 30
0.0
 10
15.100717452061193
 20
10.0
 30
0.0
 10
14.722431864335459
 20
10.0
 30
0.0
 10
14.344146276609724
 20
10.0
 30
0.0
 10
13.98482950783561
 20
10.0
 30
0.0
 10
13.662499201175613
 20
10.0
 30
0.0
 10
13.393318344139807
 20
10.0
 30
0.0
 10
13.190784788901347
 20
10.0
 30
0.0
 10
13.065054413626356
 20
10.0
 30
0.0
 10
13.02243186433546
 20
10.0
 30
0.0
  0
SPLINE
  5
6C
330
17
100
AcDbEntity
  8
HIDDEN
100
AcDbSpline
 70
0
 71
2
 72
28
 73
25
 74
0
 40
0.0
 40
0.0
 40
0.0
 40
0.07142857142857142
 40
0.07142857142857142
 40
0.14285714285714285
 40
0.14285714285714285
 40
0.21428571428571427
 40
0.21428571428571427
 40
0.2857142857142857
 40
0.2857142857142857
 40
0.35714285714285715
 40
0.35714285714285715
 40
0.42857142857142855
 40
0.42857142857142855
 40
0.5
 40
0.5
 40
0.5714285714285714
 40
0.5714285714285714
 40
0.6428571428571429
 40
0.6428571428571429
 40
0.7142857142857143
 40
0.7142857142857143
 40
0.8571428571428571
 40
0.8571428571428571
 40
1.0
 40
1.0
 40
1.0
 10
13.02243186433546
 20
10.0
 30
0.0
 10
13.027776485926204
 20
9.999999999999998
 30
0.0
 10
13.033121107516946
 20
10.0
 30
0.0
 10
13.049087760571654
 20
10.0
 30
0.0
 10
13.065054413626356
 20
10.0
 30
0.0
 10
13.091442308218795
 20
9.999999999999998
 30
0.0
 10
13.117830202811234
 20
10.0
 30
0.0
 10
13.154307495856292
 20
10.0
 30
0.0
 10
13.190784788901347
 20
10.0
 30
0.0
 10
13.23689275727436
 20
9.999999999999998
 30
0.0
 10
13.283000725647376
 20
10.0
 30
0.0
 10
13.338159534893592
 20
10.0
 30
0.0
 10
13.393318344139807
 20
10.0
 30
0.0
 10
13.456834340229067
 20
9.999999999999998
 30
0.0
 10
13.520350336318327
 20
10.0
 30
0.0
 10
13.591424768746968
 20
10.0
 30
0.0
 10
13.66249920117561
 20
10.0
 30
0.0
 10
13.740238267717498
 20
9.999999999999998
 30
0.0
 10
13.817977334259385
 20
10.0
 30
0.0
 10
13.901403421047497
 20
10.0
 30
0.0
 10
13.98482950783561
 20
10.0
 30
0.0
 10
14.158977459520832
 20
10.0
 30
0.0
 10
14.344146276609724
 20
10.0
 30
0.0
 10
14.5314210358872
 20
10.0
 30
0.0
 10
14.722431864335459
 20
10.0
 30
0.0
  0
SPLINE
  5
6D
330
17
100
AcDbEntity
  8
HIDDEN
100
AcDbSpline
 70
0
 71
3
 72
41
 73
37
 74
0
 40
0.0
 40
0.0
 40
0.0
 40
0.0
 40
0.3365992128846207
 40
0.3365992128846207
 40
0.3365992128846207
 40
0.4487989505128276
 40
0.4487989505128276
 40
0.4487989505128276
 40
0.5609986881410345
 40
0.5609986881410345
 40
0.5609986881410345
 40
0.6731984257692414
 40
0.6731984257692414
 40
0.6731984257692414
 40
0.7853981633974483
 40
0.7853981633974483
 40
0.7853981633974483
 40
0.8975979010256552
 40
0.8975979010256552
 40
0.8975979010256552
 40
1.009797638653862
 40
1.009797638653862
 40
1.009797638653862
 40
1.121997376282069
 40
1.121997376282069
 40
1.121997376282069
 40
1.2341971139102759
 40
1.2341971139102759
 40
1.2341971139102759
 40
1.3463968515384828
 40
1.3463968515384828
 40
1.3463968515384828
 40
1.4585965891666897
 40
1.4585965891666897
 40
1.4585965891666897
 40
1.5707963267948966
 40
1.5707963267948966
 40
1.5707963267948966
 40
1.5707963267948966
 10
-5.551115123125783e-17
 20
10.0
 30
0.0
 10
0.19099195204776245
 20
9.999999999999996
 30
0.0
 10
0.3801936822708183
 20
10.000000000000002
 30
0.0
 10
0.561474405323784
 20
10.0
 30
0.0
 10
0.6201837223824723
 20
9.999999999999998
 30
0.0
 10
0.6788930394411605
 20
10.0
 30
0.0
 10
0.7376023564998487
 20
10.0
 30
0.0
 10
0.7932197476919229
 20
9.999999999999998
 30
0.0
 10
0.8488371388839976
 20
10.0
 30
0.0
 10
0.9044545300760722
 20
10.0
 30
0.0
 10
0.9562805744373302
 20
9.999999999999996
 30
0.0
 10
1.0081066187985885
 20
10.0
 30
0.0
 10
1.059932663159847
 20
10.0
 30
0.0
 10
1.1073156181122745
 20
9.999999999999996
 30
0.0
 10
1.1546985730647026
 20
10.0
 30
0.0
 10
1.2020815280171306
 20
10.0
 30
0.0
 10
1.2444255254099703
 20
9.999999999999996
 30
0.0
 10
1.2867695228028107
 20
10.0
 30
0.0
 10
1.3291135201956505
 20
10.0
 30
0.0
 10
1.365886059693127
 20
9.999999999999996
 30
0.0
 10
1.4026585991906064
 20
10.0
 30
0.0
 10
1.439431138688083
 20
10.0
 30
0.0
 10
1.4701697842700923
 20
9.999999999999996
 30
0.0
 10
1.5009084298521025
 20
9.999999999999998
 30
0.0
 10
1.5316470754341123
 20
10.0
 30
0.0
 10
1.5559652707974825
 20
9.999999999999996
 30
0.0
 10
1.5802834661608536
 20
9.999999999999998
 30
0.0
 10
1.604601661524225
 20
10.0
 30
0.0
 10
1.6221935912525158
 20
9.999999999999996
 30
0.0
 10
1.6397855209808088
 20
9.999999999999998
 30
0.0
 10
1.6573774507091001
 20
10.0
 30
0.0
 10
1.6680218860789031
 20
9.999999999999996
 30
0.0
 10
1.6786663214487085
 20
9.999999999999998
 30
0.0
 10
1.6893107568185124
 20
10.0
 30
0.0
 10
1.6928738378790071
 20
9.999999999999996
 30
0.0
 10
1.6964369189395043
 20
9.999999999999998
 30
0.0
 10
1.7
 20
10.0
 30
0.0
  0
SPLINE
  5
6E
330
17
100
AcDbEntity
  8
HIDDEN
100
AcDbSpline
 70
0
 71
1
 72
17
 73
15
 74
0
 40
0.0
 40
0.0
 40
0.07142857142857142
 40
0.14285714285714285
 40
0.21428571428571427
 40
0.2857142857142857
 40
0.35714285714285715
 40
0.42857142857142855
 40
0.5
 40
0.5714285714285714
 40
0.6428571428571429
 40
0.7142857142857143
 40
0.7857142857142857
 40
0.8571428571428571
 40
0.9285714285714286
 40
1.0
 40
1.0
 10
1.6999999999999997
 20
10.0
 30
0.0
 10
1.6573774507091001
 20
10.0
 30
0.0
 10
1.5316470754341125
 20
10.0
 30
0.0
 10
1.3291135201956508
 20
10.0
 30
0.0
 10
1.0599326631598471
 20
10.0
 30
0.0
 10
0.737602356499849
 20
10.0
 30
0.0
 10
0.3782855877257347
 20
10.0
 30
0.0
 10
2.220446049250313e-16
 20
10.0
 30
0.0
 10
-0.3782855877257343
 20
10.0
 30
0.0
 10
-0.7376023564998486
 20
10.0
 30
0.0
 10
-1.059932663159847
 20
10.0
 30
0.0
 10
-1.3291135201956505
 20
10.0
 30
0.0
 10
-1.5316470754341123
 20
10.0
 30
0.0
 10
-1.6573774507091001
 20
10.0
 30
0.0
 10
-1.6999999999999997
 20
10.0
 30
0.0
  0
SPLINE
  5
6F
330
17
100
AcDbEntity
  8
HIDDEN
100
AcDbSpline
 70
0
 71
2
 72
28
 73
25
 74
0
 40
0.0
 40
0.0
 40
0.0
 40
0.07142857142857142
 40
0.07142857142857142
 40
0.14285714285714285
 40
0.14285714285714285
 40
0.21428571428571427
 40
0.21428571428571427
 40
0.2857142857142857
 40
0.2857142857142857
 40
0.35714285714285715
 40
0.35714285714285715
 40
0.42857142857142855
 40
0.42857142857142855
 40
0.5
 40
0.5
 40
0.5714285714285714
 40
0.5714285714285714
 40
0.6428571428571429
 40
0.6428571428571429
 40
0.7142857142857143
 40
0.7142857142857143
 40
0.8571428571428571
 40
0.8571428571428571
 40
1.0
 40
1.0
 40
1.0
 10
-1.7
 20
10.0
 30
0.0
 10
-1.6946553784092562
 20
9.999999999999998
 30
0.0
 10
-1.6893107568185122
 20
10.0
 30
0.0
 10
-1.673344103763806
 20
10.0
 30
0.0
 10
-1.6573774507091001
 20
10.0
 30
0.0
 10
-1.6309895561166623
 20
9.999999999999998
 30
0.0
 10
-1.6046016615242253
 20
10.0
 30
0.0
 10
-1.5681243684791693
 20
10.0
 30
0.0
 10
-1.5316470754341127
 20
10.0
 30
0.0
 10
-1.4855391070610977
 20
9.999999999999998
 30
0.0
 10
-1.4394311386880831
 20
10.0
 30
0.0
 10
-1.3842723294418668
 20
10.0
 30
0.0
 10
-1.3291135201956505
 20
10.0
 30
0.0
 10
-1.2655975241063906
 20
9.999999999999998
 30
0.0
 10
-1.202081528017131
 20
10.0
 30
0.0
 10
-1.131007095588489
 20
10.0
 30
0.0
 10
-1.0599326631598474
 20
10.0
 30
0.0
 10
-0.9821935966179601
 20
9.999999999999998
 30
0.0
 10
-0.9044545300760726
 20
10.0
 30
0.0
 10
-0.821028443287961
 20
10.0
 30
0.0
 10
-0.7376023564998491
 20
10.0
 30
0.0
 10
-0.5634544048146259
 20
10.0
 30
0.0
 10
-0.37828558772573484
 20
10.0
 30
0.0
 10
-0.1910108284482605
 20
10.0
 30
0.0
 10
-4.163336342344337e-16
 20
10.0
 30
0.0
  0
SPLINE
  5
70
330
17
100
AcDbEntity
  8
HIDDEN
100
AcDbSpline
 70
0
 71
3
 72
41
 73
37
 74
0
 40
0.0
 40
0.0
 40
0.0
 40
0.0
 40
0.3365992128846207
 40
0.3365992128846207
 40
0.3365992128846207
 40
0.4487989505128276
 40
0.4487989505128276
 40
0.4487989505128276
 40
0.5609986881410345
 40
0.5609986881410345
 40
0.5609986881410345
 40
0.6731984257692414
 40
0.6731984257692414
 40
0.6731984257692414
 40
0.7853981633974483
 40
0.7853981633974483
 40
0.7853981633974483
 40
0.8975979010256552
 40
0.8975979010256552
 40
0.8975979010256552
 40
1.009797638653862
 40
1.009797638653862
 40
1.009797638653862
 40
1.121997376282069
 40
1.121997376282069
 40
1.121997376282069
 40
1.2341971139102759
 40
1.2341971139102759
 40
1.2341971139102759
 40
1.3463968515384828
 40
1.3463968515384828
 40
1.3463968515384828
 40
1.4585965891666897
 40
1.4585965891666897
 40
1.4585965891666897
 40
1.5707963267948966
 40
1.5707963267948966
 40
1.5707963267948966
 40
1.5707963267948966
 10
14.722431864335457
 20
10.0
 30
0.0
 10
14.913423816383213
 20
9.999999999999996
 30
0.0
 10
15.102625546606282
 20
10.000000000000002
 30
0.0
 10
15.28390626965924
 20
10.0
 30
0.0
 10
15.342615586717923
 20
9.999999999999998
 30
0.0
 10
15.40132490377662
 20
10.0
 30
0.0
 10
15.460034220835304
 20
10.0
 30
0.0
 10
15.515651612027376
 20
9.999999999999998
 30
0.0
 10
15.571269003219456
 20
10.0
 30
0.0
 10
15.626886394411528
 20
10.0
 30
0.0
 10
15.678712438772777
 20
9.999999999999996
 30
0.0
 10
15.73053848313405
 20
10.0
 30
0.0
 10
15.782364527495304
 20
10.0
 30
0.0
 10
15.82974748244772
 20
9.999999999999996
 30
0.0
 10
15.877130437400163
 20
10.0
 30
0.0
 10
15.924513392352587
 20
10.0
 30
0.0
 10
15.966857389745423
 20
9.999999999999996
 30
0.0
 10
16.009201387138265
 20
10.0
 30
0.0
 10
16.05154538453111
 20
10.0
 30
0.0
 10
16.088317924028573
 20
9.999999999999996
 30
0.0
 10
16.12509046352607
 20
10.0
 30
0.0
 10
16.16186300302354
 20
10.0
 30
0.0
 10
16.192601648605542
 20
9.999999999999996
 30
0.0
 10
16.223340294187565
 20
9.999999999999998
 30
0.0
 10
16.25407893976957
 20
10.0
 30
0.0
 10
16.278397135132938
 20
9.999999999999996
 30
0.0
 10
16.302715330496316
 20
9.999999999999998
 30
0.0
 10
16.327033525859683
 20
10.0
 30
0.0
 10
16.344625455587973
 20
9.999999999999996
 30
0.0
 10
16.362217385316267
 20
9.999999999999998
 30
0.0
 10
16.37980931504456
 20
10.0
 30
0.0
 10
16.390453750414355
 20
9.999999999999996
 30
0.0
 10
16.401098185784175
 20
9.999999999999998
 30
0.0
 10
16.41174262115397
 20
10.0
 30
0.0
 10
16.415305702214454
 20
9.999999999999996
 30
0.0
 10
16.418868783274966
 20
9.999999999999998
 30
0.0
 10
16.422431864335458
 20
10.0
 30
0.0
  0
SPLINE
  5
71
330
17
100
AcDbEntity
  8
HIDDEN
100
AcDbSpline
 70
0
 71
1
 72
17
 73
15
 74
0
 40
0.0
 40
0.0
 40
0.07142857142857142
 40
0.14285714285714285
 40
0.21428571428571427
 40
0.2857142857142857
 40
0.35714285714285715
 40
0.42857142857142855
 40
0.5
 40
0.5714285714285714
 40
0.6428571428571429
 40
0.7142857142857143
 40
0.7857142857142857
 40
0.8571428571428571
 40
0.9285714285714286
 40
1.0
 40
1.0
 10
16.422431864335458
 20
10.0
 30
0.0
 10
16.379809315044554
 20
10.0
 30
0.0
 10
16.25407893976957
 20
10.0
 30
0.0
 10
16.051545384531106
 20
10.0
 30
0.0
 10
15.782364527495304
 20
10.0
 30
0.0
 10
15.460034220835306
 20
10.0
 30
0.0
 10
15.100717452061192
 20
10.0
 30
0.0
 10
14.722431864335457
 20
10.0
 30
0.0
 10
14.344146276609722
 20
10.0
 30
0.0
 10
13.98482950783561
 20
10.0
 30
0.0
 10
13.66249920117561
 20
10.0
 30
0.0
 10
13.393318344139807
 20
10.0
 30
0.0
 10
13.190784788901347
 20
10.0
 30
0.0
 10
13.065054413626356
 20
10.0
 30
0.0
 10
13.02243186433546
 20
10.0
 30
0.0
  0
SPLINE
  5
72
330
17
100
AcDbEntity
  8
HIDDEN
100
AcDbSpline
 70
0
 71
2
 72
28
 73
25
 74
0
 40
0.0
 40
0.0
 40
0.0
 40
0.07142857142857142
 40
0.07142857142857142
 40
0.14285714285714285
 40
0.14285714285714285
 40
0.21428571428571427
 40
0.21428571428571427
 40
0.2857142857142857
 40
0.2857142857142857
 40
0.35714285714285715
 40
0.35714285714285715
 40
0.42857142857142855
 40
0.42857142857142855
 40
0.5
 40
0.5
 40
0.5714285714285714
 40
0.5714285714285714
 40
0.6428571428571429
 40
0.6428571428571429
 40
0.7142857142857143
 40
0.7142857142857143
 40
0.8571428571428571
 40
0.8571428571428571
 40
1.0
 40
1.0
 40
1.0
 10
13.022431864335456
 20
10.0
 30
0.0
 10
13.027776485926198
 20
9.999999999999998
 30
0.0
 10
13.033121107516944
 20
10.0
 30
0.0
 10
13.04908776057165
 20
10.0
 30
0.0
 10
13.065054413626356
 20
10.0
 30
0.0
 10
13.091442308218797
 20
9.999999999999998
 30
0.0
 10
13.11783020281123
 20
10.0
 30
0.0
 10
13.154307495856287
 20
10.0
 30
0.0
 10
13.190784788901343
 20
10.0
 30
0.0
 10
13.236892757274358
 20
9.999999999999998
 30
0.0
 10
13.283000725647373
 20
10.0
 30
0.0
 10
13.338159534893586
 20
10.0
 30
0.0
 10
13.393318344139804
 20
10.0
 30
0.0
 10
13.456834340229063
 20
9.999999999999998
 30
0.0
 10
13.520350336318327
 20
10.0
 30
0.0
 10
13.591424768746968
 20
10.0
 30
0.0
 10
13.66249920117561
 20
10.0
 30
0.0
 10
13.7402382677175
 20
9.999999999999998
 30
0.0
 10
13.817977334259384
 20
10.0
 30
0.0
 10
13.901403421047496
 20
10.0
 30
0.0
 10
13.984829507835608
 20
10.0
 30
0.0
 10
14.158977459520834
 20
10.0
 30
0.0
 10
14.344146276609722
 20
10.0
 30
0.0
 10
14.531421035887199
 20
10.0
 30
0.0
 10
14.722431864335457
 20
10.0
 30
0.0
  0
SPLINE
  5
73
330
17
100
AcDbEntity
  8
HIDDEN
100
AcDbSpline
 70
0
 71
1
 72
17
 73
15
 74
0
 40
0.0
 40
0.0
 40
0.07142857142857142
 40
0.14285714285714285
 40
0.21428571428571427
 40
0.2857142857142857
 40
0.35714285714285715
 40
0.42857142857142855
 40
0.5
 40
0.5714285714285714
 40
0.6428571428571429
 40
0.7142857142857143
 40
0.7857142857142857
 40
0.8571428571428571
 40
0.9285714285714286
 40
1.0
 40
1.0
 10
21.0
 20
10.0
 30
0.0
 10
20.4734861558183
 20
10.0
 30
0.0
 10
18.9203462259508
 20
10.0
 30
0.0
 10
16.41846113182863
 20
10.0
 30
0.0
 10
13.093285839033406
 20
10.0
 30
0.0
 10
9.111558521468723
 20
10.0
 30
0.0
 10
4.672939613082605
 20
10.0
 30
0.0
 10
2.6645352591003757e-15
 20
10.0
 30
0.0
 10
-4.672939613082599
 20
10.0
 30
0.0
 10
-9.111558521468718
 20
10.0
 30
0.0
 10
-13.093285839033403
 20
10.0
 30
0.0
 10
-16.41846113182863
 20
10.0
 30
0.0
 10
-18.9203462259508
 20
10.0
 30
0.0
 10
-20.473486155818293
 20
10.0
 30
0.0
 10
-21.0
 20
10.0
 30
0.0
  0
SPLINE
  5
74
330
17
100
AcDbEntity
  8
HIDDEN
100
AcDbSpline
 70
0
 71
1
 72
17
 73
15
 74
0
 40
0.0
 40
0.0
 40
0.1121997376282069
 40
0.2243994752564138
 40
0.3365992128846207
 40
0.4487989505128276
 40
0.5609986881410345
 40
0.6731984257692414
 40
0.7853981633974483
 40
0.8975979010256552
 40
1.009797638653862
 40
1.121997376282069
 40
1.2341971139102759
 40
1.3463968515384828
 40
1.4585965891666897
 40
1.5707963267948966
 40
1.5707963267948966
 10
0.0
 20
10.0
 30
0.0
 10
0.7837513327231549
 20
10.0
 30
0.0
 10
1.5576465376942008
 20
10.0
 30
0.0
 10
2.311953433686169
 20
10.0
 30
0.0
 10
3.0371861738229073
 20
10.0
 30
0.0
 10
3.7242245356073562
 20
10.0
 30
0.0
 10
4.364428613011134
 20
10.0
 30
0.0
 10
4.949747468305832
 20
10.0
 30
0.0
 10
5.472820377276209
 20
10.0
 30
0.0
 10
5.927069394597989
 20
10.0
 30
0.0
 10
6.306782075316934
 20
10.0
 30
0.0
 10
6.607183312158572
 20
10.0
 30
0.0
 10
6.8244953852727654
 20
10.0
 30
0.0
 10
6.955985469252699
 20
10.0
 30
0.0
 10
7.0
 20
10.0
 30
0.0
  0
SPLINE
  5
75
330
17
100
AcDbEntity
  8
HIDDEN
100
AcDbSpline
 70
0
 71
1
 72
17
 73
15
 74
0
 40
0.0
 40
0.0
 40
0.07142857142857142
 40
0.14285714285714285
 40
0.21428571428571427
 40
0.2857142857142857
 40
0.35714285714285715
 40
0.42857142857142855
 40
0.5
 40
0.5714285714285714
 40
0.6428571428571429
 40
0.7142857142857143
 40
0.7857142857142857
 40
0.8571428571428571
 40
0.9285714285714286
 40
1.0
 40
1.0
 10
7.0
 20
10.0
 30
0.0
 10
6.8244953852727654
 20
10.0
 30
0.0
 10
6.306782075316933
 20
10.0
 30
0.0
 10
5.472820377276209
 20
10.0
 30
0.0
 10
4.364428613011135
 20
10.0
 30
0.0
 10
3.037186173822908
 20
10.0
 30
0.0
 10
1.5576465376942015
 20
10.0
 30
0.0
 10
8.881784197001252e-16
 20
10.0
 30
0.0
 10
-1.5576465376942
 20
10.0
 30
0.0
 10
-3.0371861738229065
 20
10.0
 30
0.0
 10
-4.364428613011134
 20
10.0
 30
0.0
 10
-5.472820377276209
 20
10.0
 30
0.0
 10
-6.306782075316933
 20
10.0
 30
0.0
 10
-6.8244953852727654
 20
10.0
 30
0.0
 10
-7.0
 20
10.0
 30
0.0
  0
SPLINE
  5
76
330
17
100
AcDbEntity
  8
HIDDEN
100
AcDbSpline
 70
0
 71
1
 72
17
 73
15
 74
0
 40
0.0
 40
0.0
 40
0.07142857142857142
 40
0.14285714285714285
 40
0.21428571428571427
 40
0.2857142857142857
 40
0.35714285714285715
 40
0.42857142857142855
 40
0.5
 40
0.5714285714285714
 40
0.6428571428571429
 40
0.7142857142857143
 40
0.7857142857142857
 40
0.8571428571428571
 40
0.9285714285714286
 40
1.0
 40
1.0
 10
-7.0
 20
10.0
 30
0.0
 10
-6.955985469252699
 20
10.0
 30
0.0
 10
-6.8244953852727654
 20
10.0
 30
0.0
 10
-6.607183312158574
 20
10.0
 30
0.0
 10
-6.306782075316935
 20
10.0
 30
0.0
 10
-5.927069394597989
 20
10.0
 30
0.0
 10
-5.472820377276209
 20
10.0
 30
0.0
 10
-4.949747468305834
 20
10.0
 30
0.0
 10
-4.364428613011136
 20
10.0
 30
0.0
 10
-3.724224535607357
 20
10.0
 30
0.0
 10
-3.0371861738229082
 20
10.0
 30
0.0
 10
-2.3119534336861713
 20
10.0
 30
0.0
 10
-1.5576465376942026
 20
10.0
 30
0.0
 10
-0.7837513327231567
 20
10.0
 30
0.0
 10
-1.7208456881689926e-15
 20
10.0
 30
0.0
  0
SPLINE
  5
77
330
17
100
AcDbEntity
  8
HIDDEN
100
AcDbSpline
 70
0
 71
1
 72
17
 73
15
 74
0
 40
0.0
 40
0.0
 40
0.07142857142857142
 40
0.14285714285714285
 40
0.21428571428571427
 40
0.2857142857142857
 40
0.35714285714285715
 40
0.42857142857142855
 40
0.5
 40
0.5714285714285714
 40
0.6428571428571429
 40
0.7142857142857143
 40
0.7857142857142857
 40
0.8571428571428571
 40
0.9285714285714286
 40
1.0
 40
1.0
 10
7.0
 20
12.0
 30
0.0
 10
6.8244953852727654
 20
12.0
 30
0.0
 10
6.306782075316933
 20
12.0
 30
0.0
 10
5.472820377276209
 20
12.0
 30
0.0
 10
4.364428613011135
 20
12.0
 30
0.0
 10
3.037186173822908
 20
12.0
 30
0.0
 10
1.5576465376942015
 20
12.0
 30
0.0
 10
8.881784197001252e-16
 20
12.0
 30
0.0
 10
-1.5576465376942
 20
12.0
 30
0.0
 10
-3.0371861738229065
 20
12.0
 30
0.0
 10
-4.364428613011134
 20
12.0
 30
0.0
 10
-5.472820377276209
 20
12.0
 30
0.0
 10
-6.306782075316933
 20
12.0
 30
0.0
 10
-6.8244953852727654
 20
12.0
 30
0.0
 10
-7.0
 20
12.0
 30
0.0
  0
LINE
  5
78
330
17
100
AcDbEntity
  8
HIDDEN
100
AcDbLine
 10
-13.022431864335452
 20
-8.0
 30
0.0
 11
-13.022431864335452
 21
10.0
 31
0.0
  0
LINE
  5
79
330
17
100
AcDbEntity
  8
HIDDEN
100
AcDbLine
 10
-16.42243186433545
 20
-8.0
 30
0.0
 11
-16.42243186433545
 21
10.0
 31
0.0
  0
LINE
  5
7A
330
17
100
AcDbEntity
  8
HIDDEN
100
AcDbLine
 10
-13.022431864335458
 20
-8.0
 30
0.0
 11
-13.022431864335458
 21
10.0
 31
0.0
  0
LINE
  5
7B
330
17
100
AcDbEntity
  8
HIDDEN
100
AcDbLine
 10
-16.422431864335458
 20
-8.0
 30
0.0
 11
-16.422431864335458
 21
10.0
 31
0.0
  0
LINE
  5
7C
330
17
100
AcDbEntity
  8
HIDDEN
100
AcDbLine
 10
1.700000000000002
 20
-8.0
 30
0.0
 11
1.700000000000002
 21
10.0
 31
0.0
  0
LINE
  5
7D
330
17
100
AcDbEntity
  8
HIDDEN
100
AcDbLine
 10
-1.699999999999998
 20
-8.0
 30
0.0
 11
-1.699999999999998
 21
10.0
 31
0.0
  0
LINE
  5
7E
330
17
100
AcDbEntity
  8
HIDDEN
100
AcDbLine
 10
16.422431864335458
 20
-8.0
 30
0.0
 11
16.422431864335458
 21
10.0
 31
0.0
  0
LINE
  5
7F
330
17
100
AcDbEntity
  8
HIDDEN
100
AcDbLine
 10
13.02243186433546
 20
-8.0
 30
0.0
 11
13.02243186433546
 21
10.0
 31
0.0
  0
LINE
  5
80
330
17
100
AcDbEntity
  8
HIDDEN
100
AcDbLine
 10
1.7
 20
-8.0
 30
0.0
 11
1.7
 21
10.0
 31
0.0
  0
LINE
  5
81
330
17
100
AcDbEntity
  8
HIDDEN
100
AcDbLine
 10
-1.7
 20
-8.0
 30
0.0
 11
-1.7
 21
10.0
 31
0.0
  0
LINE
  5
82
330
17
100
AcDbEntity
  8
HIDDEN
100
AcDbLine
 10
16.422431864335458
 20
-8.0
 30
0.0
 11
16.422431864335458
 21
10.0
 31
0.0
  0
LINE
  5
83
330
17
100
AcDbEntity
  8
HIDDEN
100
AcDbLine
 10
13.022431864335458
 20
-8.0
 30
0.0
 11
13.022431864335458
 21
10.0
 31
0.0
  0
ENDSEC
  0
SECTION
  2
OBJECTS
  0
DICTIONARY
  5
A
330
0
100
AcDbDictionary
281
1
  3
ACAD_COLOR
350
B
  3
ACAD_GROUP
350
C
  3
ACAD_LAYOUT
350
D
  3
ACAD_MATERIAL
350
E
  3
ACAD_MLEADERSTYLE
350
F
  3
ACAD_MLINESTYLE
350
10
  3
ACAD_PLOTSETTINGS
350
11
  3
ACAD_PLOTSTYLENAME
350
12
  3
ACAD_SCALELIST
350
14
  3
ACAD_TABLESTYLE
350
15
  3
ACAD_VISUALSTYLE
350
16
  3
EZDXF_META
350
2D
  0
DICTIONARY
  5
B
330
A
100
AcDbDictionary
281
1
  0
DICTIONARY
  5
C
330
A
100
AcDbDictionary
281
1
  0
DICTIONARY
  5
D
330
A
100
AcDbDictionary
281
1
  3
Model
350
1A
  3
Layout1
350
1E
  0
DICTIONARY
  5
E
330
A
100
AcDbDictionary
281
1
  3
ByBlock
350
1F
  3
ByLayer
350
20
  3
Global
350
21
  0
DICTIONARY
  5
F
330
A
100
AcDbDictionary
281
1
  3
Standard
350
2C
  0
DICTIONARY
  5
10
330
A
100
AcDbDictionary
281
1
  3
Standard
350
22
  0
DICTIONARY
  5
11
330
A
100
AcDbDictionary
281
1
  0
ACDBDICTIONARYWDFLT
  5
12
330
A
100
AcDbDictionary
281
1
  3
Normal
350
13
100
AcDbDictionaryWithDefault
340
13
  0
ACDBPLACEHOLDER
  5
13
330
12
  0
DICTIONARY
  5
14
330
A
100
AcDbDictionary
281
1
  0
DICTIONARY
  5
15
330
A
100
AcDbDictionary
281
1
  0
DICTIONARY
  5
16
330
A
100
AcDbDictionary
281
1
  0
LAYOUT
  5
1A
330
D
100
AcDbPlotSettings
  1

  4
A3
  6

 40
7.5
 41
20.0
 42
7.5
 43
20.0
 44
420.0
 45
297.0
 46
0.0
 47
0.0
 48
0.0
 49
0.0
140
0.0
141
0.0
142
1.0
143
1.0
 70
1024
 72
1
 73
0
 74
5
  7

 75
16
 76
0
 77
2
 78
300
147
1.0
148
0.0
149
0.0
100
AcDbLayout
  1
Model
 70
1
 71
0
 10
0.0
 20
0.0
 11
420.0
 21
297.0
 12
0.0
 22
0.0
 32
0.0
 14
1e+20
 24
1e+20
 34
1e+20
 15
-1e+20
 25
-1e+20
 35
-1e+20
146
0.0
 13
0.0
 23
0.0
 33
0.0
 16
1.0
 26
0.0
 36
0.0
 17
0.0
 27
1.0
 37
0.0
 76
1
330
17
  0
LAYOUT
  5
1E
330
D
100
AcDbPlotSettings
  1

  4
A3
  6

 40
7.5
 41
20.0
 42
7.5
 43
20.0
 44
420.0
 45
297.0
 46
0.0
 47
0.0
 48
0.0
 49
0.0
140
0.0
141
0.0
142
1.0
143
1.0
 70
0
 72
1
 73
0
 74
5
  7

 75
16
 76
0
 77
2
 78
300
147
1.0
148
0.0
149
0.0
100
AcDbLayout
  1
Layout1
 70
1
 71
1
 10
0.0
 20
0.0
 11
420.0
 21
297.0
 12
0.0
 22
0.0
 32
0.0
 14
1e+20
 24
1e+20
 34
1e+20
 15
-1e+20
 25
-1e+20
 35
-1e+20
146
0.0
 13
0.0
 23
0.0
 33
0.0
 16
1.0
 26
0.0
 36
0.0
 17
0.0
 27
1.0
 37
0.0
 76
1
330
1B
  0
MATERIAL
  5
1F
102
{ACAD_REACTORS
330
E
102
}
330
E
100
AcDbMaterial
  1
ByBlock
  2

 70
0
 40
1.0
 71
1
 41
1.0
 91
-1023410177
 42
1.0
 72
1
  3

 73
1
 74
1
 75
1
 44
0.5
 73
0
 45
1.0
 46
1.0
 77
1
  4

 78
1
 79
1
170
1
 48
1.0
171
1
  6

172
1
173
1
174
1
140
1.0
141
1.0
175
1
  7

176
1
177
1
178
1
143
1.0
179
1
  8

270
1
271
1
272
1
145
1.0
146
1.0
273
1
  9

274
1
275
1
276
1
 42
1.0
 72
1
  3

 73
1
 74
1
 75
1
 94
63
  0
MATERIAL
  5
20
102
{ACAD_REACTORS
330
E
102
}
330
E
100
AcDbMaterial
  1
ByLayer
  2

 70
0
 40
1.0
 71
1
 41
1.0
 91
-1023410177
 42
1.0
 72
1
  3

 73
1
 74
1
 75
1
 44
0.5
 73
0
 45
1.0
 46
1.0
 77
1
  4

 78
1
 79
1
170
1
 48
1.0
171
1
  6

172
1
173
1
174
1
140
1.0
141
1.0
175
1
  7

176
1
177
1
178
1
143
1.0
179
1
  8

270
1
271
1
272
1
145
1.0
146
1.0
273
1
  9

274
1
275
1
276
1
 42
1.0
 72
1
  3

 73
1
 74
1
 75
1
 94
63
  0
MATERIAL
  5
21
102
{ACAD_REACTORS
330
E
102
}
330
E
100
AcDbMaterial
  1
Global
  2

 70
0
 40
1.0
 71
1
 41
1.0
 91
-1023410177
 42
1.0
 72
1
  3

 73
1
 74
1
 75
1
 44
0.5
 73
0
 45
1.0
 46
1.0
 77
1
  4

 78
1
 79
1
170
1
 48
1.0
171
1
  6

172
1
173
1
174
1
140
1.0
141
1.0
175
1
  7

176
1
177
1
178
1
143
1.0
179
1
  8

270
1
271
1
272
1
145
1.0
146
1.0
273
1
  9

274
1
275
1
276
1
 42
1.0
 72
1
  3

 73
1
 74
1
 75
1
 94
63
  0
MLINESTYLE
  5
22
102
{ACAD_REACTORS
330
10
102
}
330
10
100
AcDbMlineStyle
  2
Standard
 70
0
  3

 62
256
 51
90.0
 52
90.0
 71
2
 49
0.5
 62
256
  6
BYLAYER
 49
-0.5
 62
256
  6
BYLAYER
  0
MLEADERSTYLE
  5
2C
102
{ACAD_REACTORS
330
F
102
}
330
F
100
AcDbMLeaderStyle
179
2
170
2
171
1
172
0
 90
2
 40
0.0
 41
0.0
173
1
 91
-1056964608
 92
-2
290
1
 42
2.0
291
1
 43
8.0
  3
Standard
 44
4.0
300

342
29
174
1
175
1
176
0
178
1
 93
-1056964608
 45
4.0
292
0
297
0
 46
4.0
 94
-1056964608
 47
1.0
 49
1.0
140
1.0
294
1
141
0.0
177
0
142
1.0
295
0
296
0
143
3.75
271
0
272
9
273
9
  0
DICTIONARY
  5
2D
330
A
100
AcDbDictionary
280
1
281
1
  3
CREATED_BY_EZDXF
350
2E
  3
WRITTEN_BY_EZDXF
350
87
  0
DICTIONARYVAR
  5
2E
330
2D
100
DictionaryVariables
280
0
  1
1.4.4 @ 2026-10-08T06:25:56.742584+00:00
  0
DICTIONARYVAR
  5
87
330
2D
100
DictionaryVariables
280
0
  1
1.4.4 @ 2026-10-08T06:25:57.196577+00:00
  0
ENDSEC
  0
EOF
